<svg width="581" height="54" viewBox="0 0 581 54" fill="none" xmlns="http://www.w3.org/2000/svg">
<rect width="581" height="54" rx="27" fill="white"/>
<path d="M54 27L36 39.1244V14.8756L54 27Z" fill="#C4C4C4"/>
<path fill-rule="evenodd" clip-rule="evenodd" d="M72 15H66V39H72V15ZM84 15H78V39H84V15Z" fill="#821A1A"/>
<rect x="107" y="20" width="408" height="14" rx="7" fill="#C4C4C4"/>
<rect x="112" y="25" width="72" height="4" rx="2" fill="#821A1A"/>
<circle cx="184" cy="27" r="15" fill="#821A1A"/>
<path d="M529 22V32H535.667L544 40.3334V13.6667L535.667 22H529ZM540.667 21.7167V32.2834L537.05 28.6667H532.333V25.3334H537.05L540.667 21.7167ZM551.5 27C551.5 24.05 549.8 21.5167 547.333 20.2834V33.7C549.8 32.4834 551.5 29.95 551.5 27ZM547.333 12.3834V15.8167C552.15 17.25 555.667 21.7167 555.667 27C555.667 32.2834 552.15 36.75 547.333 38.1834V41.6167C554.017 40.1 559 34.1334 559 27C559 19.8667 554.017 13.9 547.333 12.3834V12.3834Z" fill="#821A1A"/>
</svg>
