<svg width="300" height="300" viewBox="0 0 300 300" fill="none" xmlns="http://www.w3.org/2000/svg">
<g clip-path="url(#clip0_569_7895)">
<path d="M185.487 400.637C185.7 409.573 185.062 417.233 183.785 419.573C183.785 419.786 183.572 420 183.572 420C180.594 426.596 178.679 442.127 178.253 444.679C178.04 447.446 179.317 457.871 178.892 462.126C178.679 464.254 178.679 466.382 178.892 468.51L180.594 468.722C186.977 469.573 186.977 457.234 186.126 454.041C185.275 450.851 187.615 444.043 187.615 444.043C188.892 447.66 189.955 451.275 190.381 454.892C190.381 459.998 189.104 465.105 186.338 469.573C184.849 471.276 175.487 475.106 177.19 477.872C178.679 480.424 185.7 477.66 186.338 477.233C184.424 478.723 176.338 480.212 178.466 482.764C179.956 484.892 183.147 485.531 188.679 482.764C189.955 482.128 191.445 482.978 193.147 482.764C193.785 482.764 194.423 482.552 195.062 482.128C196.126 481.275 196.977 480.212 197.828 478.935C199.104 476.595 200.168 474.043 201.019 472.766C203.998 468.083 203.785 463.616 203.998 459.362C203.998 459.148 203.998 458.936 203.998 458.723C204.636 452.552 206.126 452.552 206.126 448.935C205.7 445.532 204.636 442.339 203.36 439.148C198.892 427.871 198.892 410.211 199.317 400.637C199.53 396.808 199.743 394.256 199.743 394.256C200.806 389.573 201.658 385.318 202.509 381.064C207.828 352.978 206.764 335.106 204.636 322.553C203.572 315.319 202.083 309.998 201.232 305.318C201.019 304.68 201.019 303.829 201.019 303.191C199.743 290.211 204.424 275.531 206.126 244.468C206.126 243.191 206.338 241.701 206.338 240.212C206.551 235.532 206.338 231.488 205.913 227.871C205.913 226.808 205.7 225.743 205.487 224.893C203.785 215.318 200.381 209.999 196.977 207.02C196.764 206.807 196.764 206.807 196.551 206.595C195.913 206.169 195.487 205.744 194.849 205.318C194.211 204.893 193.573 204.467 193.147 204.254C191.87 203.616 190.381 202.978 188.892 202.765L182.083 201.914L181.445 205.318L178.04 224.893L175.7 237.872C175.487 246.596 175.487 255.743 175.487 264.043C175.487 268.723 175.487 272.978 175.487 277.02C175.487 277.658 175.487 278.085 175.487 278.723C175.487 286.594 175.487 291.915 175.487 293.19C174.849 298.723 176.551 313.191 176.764 316.594C176.764 317.447 176.551 319.999 176.338 323.616C175.7 333.403 174.636 350.426 179.104 361.063C179.104 361.275 179.317 361.489 179.317 361.701C181.232 366.596 182.721 373.616 183.572 381.276C184.849 387.66 185.275 394.468 185.487 400.637Z" fill="#883A20"/>
<path d="M24.6383 752.34C24.8504 752.552 25.0626 752.979 25.2769 753.191C27.1905 754.68 29.3183 755.531 31.6583 755.957H31.8726C45.2762 759.362 59.106 762.341 72.9357 764.681C79.7442 765.744 86.7655 766.596 93.574 767.021C101.446 767.659 109.106 767.871 116.978 767.447C143.787 766.382 169.319 757.234 194.851 750.424C199.319 749.361 204.213 747.66 205.915 743.616C206.553 741.703 206.766 739.787 206.34 737.871C205.276 729.362 201.021 721.489 199.319 713.192C199.106 712.554 199.106 711.915 198.893 711.276C198.042 705.531 197.829 699.574 197.617 693.829C197.404 689.788 197.404 685.956 197.191 682.127C196.553 669.786 195.702 618.936 195.276 576.808C195.276 570 195.063 563.404 195.063 557.233C195.063 550.001 194.851 543.405 194.851 537.66C194.638 529.149 194.638 522.553 194.425 519.148C194.425 518.723 194.425 518.511 194.425 518.085C194 506.383 193.574 494.681 193.361 483.191C193.149 479.361 193.149 475.32 193.149 471.488C193.149 471.276 193.149 471.276 193.149 471.064C192.723 456.808 192.723 442.553 192.723 428.297C192.723 425.745 192.723 423.191 192.723 420.638C192.723 414.255 192.723 407.659 192.51 401.063C192.298 394.468 192.085 388.084 191.446 381.488C190.808 374.893 189.957 368.297 188.68 361.916C187.617 356.383 186.34 351.064 184.638 345.743C182.298 338.297 179.532 331.277 177.404 323.828C175.702 318.724 174.425 313.618 173.361 308.085C171.872 300 173.574 291.915 175.489 283.83C175.915 282.126 176.127 280.637 176.553 278.936C177.191 276.169 177.617 273.191 178.042 270.424C178.255 268.511 178.255 266.595 178.042 264.467C177.829 257.233 176.553 249.574 180.808 244.894C181.446 244.256 182.085 243.617 182.936 243.191C186.34 240.851 191.872 237.446 197.404 234.255C197.617 234.255 197.617 234.043 197.829 234.043C201.021 232.127 204.213 230.213 206.766 228.51C208.042 227.659 209.319 226.808 210.17 226.17C210.17 225.958 210.17 225.743 209.957 225.319C208.042 211.276 204.851 199.148 198.893 188.723C194.425 180.638 175.489 178.297 166.34 175.319C166.127 175.744 163.787 180.638 159.106 186.17C158.042 187.446 156.978 188.723 155.702 190C150.595 195.106 143.787 200.212 135.063 202.34C133.361 202.765 131.659 202.978 129.957 203.191C104.851 204.893 81.021 178.085 81.021 178.085C68.6805 179.574 54.4251 182.553 49.957 189.361C42.5097 200.638 38.0419 228.936 38.0419 228.936L69.5316 241.063C70.3825 247.446 71.4465 255.531 72.0848 264.043C72.0848 265.106 72.2976 265.956 72.2976 267.021C72.723 272.34 73.1485 278.085 73.3613 283.618C73.5741 290.213 73.7869 296.809 73.5741 303.191C73.3613 309.148 72.9358 314.681 72.2976 319.361C72.0848 320.426 71.872 321.488 71.6592 322.553C71.6592 322.766 71.6592 322.766 71.6592 322.978C70.3825 329.361 68.4677 335.745 66.34 342.126C64.638 347.447 63.1487 352.553 61.872 358.084C61.6592 359.361 61.4464 360.424 61.0208 361.701C56.9783 380.85 55.7018 400.637 54.4251 420.212C53.9997 426.808 53.5742 433.191 52.9358 439.787C52.9358 440.213 52.9358 440.85 52.723 441.488C52.0847 447.446 51.6593 453.405 51.021 459.362C50.3826 465.958 49.7443 472.339 49.1055 478.935C48.4669 485.531 47.8305 491.914 47.1919 498.51C46.5533 505.106 45.9147 511.489 45.2762 518.085C44.8497 522.341 44.4255 526.596 43.999 530.85C42.5097 546.169 41.8712 561.488 41.2347 576.808C41.0205 583.403 40.8083 589.787 40.3819 596.383C39.7433 613.83 38.8926 631.277 36.979 648.722C36.7647 650.85 36.5526 652.978 36.3405 654.894C35.7019 661.277 35.0633 667.873 34.4247 674.469C33.7862 681.703 33.1476 688.935 32.7233 696.169C31.6583 709.999 32.9354 725.531 25.9154 738.086C23.5733 742.339 21.4454 748.511 24.6383 752.34Z" fill="#681319"/>
<path d="M93.1485 224.893V244.468H114.212H113.787V264.043H134.425V283.616H175.701V263.829H177.191C176.978 256.594 175.701 248.936 179.957 244.256C180.595 243.617 181.233 242.979 182.084 242.552C185.489 240.212 191.021 236.807 196.553 233.616C196.765 233.616 196.765 233.404 196.978 233.404C200.169 231.489 203.361 229.575 205.914 227.871C207.191 227.021 208.467 226.17 209.318 225.531C209.318 225.319 209.318 225.105 209.106 224.681H196.765V205.106H175.701V185.532H134.212V205.106H113.574V224.681H93.1485V224.893Z" fill="#E73D23"/>
<path d="M73.5723 302.979H72.5086V283.404H93.1469V302.979H113.785V322.554H93.1469V342.129H72.5086V361.701H61.232C61.4448 360.426 61.6574 359.361 62.083 358.084C63.3597 352.766 64.849 347.447 66.551 342.129C68.4661 335.745 70.5938 329.574 71.8703 322.978C71.8703 322.766 71.8703 322.766 71.8703 322.554C72.083 321.489 72.2958 320.426 72.5086 319.363C72.9342 314.469 73.3595 308.936 73.5723 302.979Z" fill="#E73D23"/>
<path d="M72.2969 263.831V266.809C72.2969 265.744 72.0841 264.893 72.0841 263.831H72.2969Z" fill="#E73D23"/>
<path d="M60.5954 201.914L53.7869 202.765C52.2974 202.978 50.8084 203.403 49.5321 204.254C43.9992 207.02 35.2757 215.531 36.3407 240.212C38.0421 275.957 43.5749 291.062 41.2349 305.318C38.8928 319.573 30.1692 340.851 42.7242 394.256C42.7242 394.256 45.4885 423.191 39.1071 439.149C37.6178 442.127 36.5528 445.532 36.1285 448.935C36.1285 452.552 37.6178 452.552 38.2542 458.724C38.6807 462.977 38.2542 467.871 41.4471 472.766C42.7242 474.893 44.6378 480.212 47.4042 482.34C49.7447 484.041 51.8721 482.128 53.7869 483.191C59.3187 485.957 62.5103 485.318 63.9996 483.191C66.1274 480.638 58.0422 479.149 56.1274 477.66C56.1274 477.66 63.787 481.063 65.2763 478.296C66.7656 475.532 57.4039 471.701 56.1274 469.999C53.5742 465.531 52.0849 460.637 52.0849 455.318C52.5102 451.701 53.3614 447.872 54.6379 444.467C54.6379 444.467 56.9783 451.275 56.1274 454.468C55.2762 457.659 55.2762 469.999 61.6592 469.149L63.3614 468.936C63.5742 466.809 63.5742 464.681 63.3614 462.553C63.1486 458.297 64.4251 447.872 63.9996 445.106C63.5742 442.339 61.6591 426.169 58.4678 419.786C55.2762 413.404 56.5529 375.744 62.7231 361.063C68.8932 346.382 64.8507 319.787 65.0635 316.594C65.2763 313.404 66.9784 298.723 66.34 293.19C65.9146 290.211 66.7656 262.127 66.1274 237.872" fill="#883A20"/>
<path d="M150.17 158.297C149.106 154.042 148.68 143.829 150.17 139.574C150.595 138.297 151.233 137.234 152.51 136.383C154.212 135.744 155.914 135.957 157.617 136.595C163.574 138.297 169.744 138.936 175.702 138.297C177.617 138.085 179.744 137.659 181.446 136.595C183.148 135.744 184.212 133.829 184.425 131.915C184.212 129.787 182.51 127.234 183.999 125.744C184.425 125.319 184.851 125.106 185.276 124.893C186.553 124.042 186.978 122.34 186.127 121.064C185.914 120.638 185.489 120.425 185.063 120.212C186.553 119.574 187.617 118.085 187.829 116.383C187.829 116.17 187.829 115.744 187.617 115.532C186.553 114.255 184.851 111.276 185.489 110.212C185.914 109.574 186.765 109.574 187.404 109.149C188.468 108.297 188.893 106.808 188.255 105.319C187.617 104.042 186.765 102.978 185.914 101.915C183.361 98.0848 181.872 93.6168 181.659 89.1485C181.446 84.6804 180.808 79.9995 179.744 75.5315C176.765 65.9572 168.468 58.7231 159.957 52.9783C147.404 44.6805 131.446 42.3401 116.978 45.1061C109.106 46.5954 86.7654 53.4039 86.34 78.2975C86.1272 87.4464 91.0209 95.7444 96.5527 102.978C102.085 110.212 106.34 113.617 108.468 122.34C109.531 127.872 109.531 133.617 108.042 139.149C104.851 152.978 96.9783 165.319 88.2549 176.808C84.425 181.489 81.0208 186.595 78.6804 192.127C76.5527 197.659 76.34 204.468 79.7441 209.361C85.0633 217.02 120.595 210.638 134.212 204.893C140.808 202.127 147.617 200 153.787 196.808C158.468 194.255 166.978 190 167.404 184.893C167.616 182.127 155.489 168.297 150.17 158.297Z" fill="#883A20"/>
<path d="M179.105 117.872C179.318 117.659 179.531 117.446 179.743 117.446C180.594 116.595 181.658 115.744 182.722 115.319C186.765 114.468 187.403 115.106 187.403 115.531C187.616 117.021 186.765 118.51 185.488 119.361C185.275 119.574 185.063 119.574 184.85 119.787C186.339 120.638 186.765 122.34 185.914 123.829C185.488 124.468 185.063 124.893 184.424 125.106L184.211 124.893L184.424 125.106C184.424 125.106 175.914 122.34 172.509 118.51C172.722 118.51 174.85 120.425 179.105 117.872Z" fill="#3E1910"/>
<path d="M180.17 108.298C180.383 108.085 180.808 107.872 181.234 107.872C181.872 107.872 182.298 107.872 182.936 107.872C183.149 107.872 183.362 108.085 183.574 108.085C183.787 108.298 183.787 108.51 183.787 108.51L183.574 108.723C182.936 108.936 182.298 108.51 181.659 108.51C180.808 108.51 180.17 108.936 179.532 109.149C179.106 109.574 179.106 108.936 180.17 108.298Z" fill="#3E1910"/>
<path d="M173.361 78.9357C169.744 78.7229 166.127 78.7229 162.297 78.9357C161.446 78.9357 160.595 79.1485 159.744 79.3613C156.765 80.8506 154.424 83.4038 153.148 86.5951C153.148 86.5951 155.276 84.4675 156.127 83.8294C160.382 80.8506 166.765 81.7017 171.871 82.3399C172.935 82.5526 174.212 79.3613 173.361 78.9357Z" fill="#3E1910"/>
<path d="M179.105 110.85C179.105 110.85 176.978 111.488 176.127 110.637C174.637 109.148 176.127 106.807 177.191 105.956C173.574 111.488 179.105 110.85 179.105 110.85Z" fill="#3E1910"/>
<path d="M157.829 94.255C158.254 94.0422 158.467 93.8294 158.893 93.6166C160.595 91.489 163.148 89.9997 166.127 89.7869C167.403 89.5741 168.467 89.7869 169.531 89.7869C170.808 89.7869 171.871 89.9997 172.723 89.5741L175.701 88.2976L173.786 90.8508C173.148 91.7017 172.297 92.1273 171.446 92.1273C172.723 95.3189 171.659 97.6593 169.957 97.8721C168.255 98.0847 166.978 96.5954 166.34 95.1061C165.914 94.0422 165.914 93.1913 165.914 92.1273C163.786 92.5529 161.871 93.8294 160.382 95.5317C159.957 95.957 159.318 96.1698 158.893 96.1698C158.467 96.1698 158.042 95.957 157.616 95.7442L156.34 94.6805L157.829 94.255Z" fill="#3E1910"/>
<path d="M77.829 59.9998C76.5523 56.8084 90.5948 65.1062 91.8713 62.1274C93.1481 59.1488 92.9353 58.7233 96.5522 59.1488C94.6373 57.6593 99.9568 37.8722 103.148 39.3615C103.148 35.9573 132.084 32.9786 133.361 40.4254L133.999 40.851C144.85 41.0638 155.276 45.9572 162.51 54.0424C151.446 58.5105 147.829 59.787 141.446 68.2978C135.489 76.3828 137.403 78.5104 134.212 87.8721C133.361 90.4253 132.084 93.4041 129.105 93.8297C127.403 93.8297 125.701 93.4041 124.212 92.553C121.02 91.0637 116.127 90.6381 114.425 93.6169C113.148 95.7446 114.425 98.5106 116.127 100.425C118.042 102.127 119.319 104.255 120.169 106.596C120.382 108.085 119.957 109.787 120.169 111.276C120.382 112.766 121.446 114.468 123.148 114.468C121.02 120.638 117.403 146.596 111.659 149.787C101.021 155.745 101.233 177.872 97.8291 176.17C97.1908 175.744 96.3396 175.319 95.4885 175.106C94.4246 174.894 93.3611 174.894 92.0843 175.106C89.3186 175.106 86.5526 173.617 85.0631 171.276C84.6377 170.213 83.7866 169.149 82.9354 168.51C82.0845 168.085 81.0203 168.085 80.1694 168.085C74.4246 167.659 69.5312 130.213 70.1695 124.681C70.3823 123.83 70.3823 122.766 70.1695 121.915C69.744 121.064 68.8928 120.213 68.0419 119.787C62.0843 115.532 60.5951 107.234 64.8503 101.276C65.9143 99.7871 67.1908 98.5106 68.8928 97.6594C66.5524 94.4678 65.0631 90.6381 64.8503 86.5956C64.6376 82.3403 67.1908 78.7232 71.2333 77.2339C72.2972 77.0211 73.5735 76.5956 73.5735 75.7446C73.5735 75.3191 73.3611 74.8935 73.1483 74.4679C70.5951 69.9998 72.0844 64.0425 76.5525 61.4893C76.7653 61.2765 76.9781 61.2765 77.4036 61.0637" fill="#3E1910"/>
<path d="M35.2751 216.596C36.1258 216.169 36.7644 215.745 37.403 214.894C37.8294 213.829 37.8294 212.766 37.6151 211.702C36.7644 206.17 39.5308 199.361 45.488 198.723C45.7001 195.532 46.7651 192.553 48.893 190C50.1692 188.723 51.6585 187.446 53.3608 186.595C53.5736 186.17 53.7862 185.744 53.999 185.531C52.9352 183.617 51.8713 181.702 51.0204 179.787C48.4665 175.319 49.9565 169.574 54.4245 167.021C56.3394 165.532 58.8926 165.319 60.8075 166.383C59.3182 164.893 56.9777 161.702 55.9138 155.744C52.9352 138.298 53.5736 104.468 60.3821 87.6593C63.999 78.7231 63.999 74.8932 68.4671 66.3826C71.8715 59.3614 82.5097 45.106 90.1693 42.5528C98.6799 39.7868 103.574 36.3826 112.084 34.255C119.957 32.1274 150.595 41.4891 151.446 45.5316C151.446 45.9571 149.318 44.4676 145.488 42.9784C143.999 42.34 142.51 42.1272 140.808 41.9146C138.467 41.7019 136.127 42.5528 134.212 44.0423C110.169 77.2336 114.637 102.127 112.51 126.808C111.446 140.638 117.191 162.553 123.999 166.595C130.382 170.212 140.595 170.851 147.191 171.064C150.382 171.064 153.573 170.425 156.552 169.148C156.978 168.936 157.191 168.723 157.616 168.51C158.893 167.659 159.956 166.596 160.808 165.957C161.446 165.106 162.084 164.255 162.722 163.404C163.361 162.553 164.424 162.34 165.276 162.34C171.446 162.127 181.233 162.553 186.339 165.957C190.169 168.51 195.063 175.957 195.063 175.957C200.808 174.68 202.935 190.851 206.127 199.574C207.191 202.127 208.042 204.893 208.68 207.021C209.318 209.361 210.169 211.915 210.807 214.68C212.51 221.063 213.148 227.871 212.935 234.467C212.084 248.509 185.701 249.574 175.276 250.213C161.02 251.063 146.978 250.425 132.935 248.511C117.403 246.383 101.446 243.191 86.765 237.446C79.5309 239.361 72.5096 241.701 65.063 243.405C55.9138 245.318 45.9144 245.957 37.1908 242.766C32.5087 241.063 28.2551 237.872 26.5515 233.404C24.638 226.808 29.1058 219.786 35.2751 216.596Z" fill="white"/>
<path d="M124.425 101.489C124.638 101.276 124.85 101.276 125.063 101.276H125.914L125.063 101.702C124.637 101.914 124.425 102.34 124.425 102.765C124.425 103.191 124.85 104.255 125.489 104.468L126.127 104.68L125.489 104.893H125.276C125.063 104.893 123.999 104.68 123.786 102.978C123.999 102.34 124.212 101.702 124.425 101.489Z" fill="#3E1910"/>
<path d="M118.468 94.6805C118.468 94.6805 126.553 93.6168 126.553 99.9997C126.553 99.9997 126.765 100.851 125.914 101.064C125.914 101.064 126.34 97.4465 123.999 96.17C122.297 95.3188 120.382 94.8933 118.468 94.6805Z" fill="#3E1910"/>
<path d="M124.211 70.4252C124.85 69.3615 126.977 64.8935 128.041 63.1912C129.956 59.9998 132.083 56.8082 134.424 54.0422" fill="#7F3316"/>
<path d="M133.787 63.616C132.085 65.1053 130.808 67.0203 129.957 69.148C127.83 73.616 126.127 78.2969 124.638 82.9777" fill="#7F3316"/>
<path d="M162.51 114.467C162.084 115.531 161.659 116.807 161.446 117.871C161.233 116.595 161.659 115.318 162.51 114.467Z" fill="#9B4325"/>
<path d="M62.509 167.872C62.509 167.872 79.1048 194.681 122.296 201.276C122.509 201.276 73.573 202.34 62.509 167.872Z" fill="#E3DEC9"/>
<path d="M92.297 235.956C92.297 235.956 122.723 219.999 179.105 218.297C179.105 218.297 114.85 229.787 92.297 235.956Z" fill="#E3DEC9"/>
<path d="M194.85 180C194.85 180 204.424 190.213 192.084 202.766C196.127 195.957 197.19 187.66 194.85 180Z" fill="#E3DEC9"/>
<path d="M203.574 220.001C203.574 220.001 192.298 237.872 155.489 238.723C155.702 238.935 203.361 242.34 203.574 220.001Z" fill="#E3DEC9"/>
<path d="M45.4873 201.277C45.4873 201.277 47.8294 227.659 95.0625 218.297C95.0625 218.297 41.0194 232.978 45.4873 201.277Z" fill="#E3DEC9"/>
<path d="M170.594 165.531C170.594 165.531 184.211 188.723 141.232 182.553C141.019 182.553 176.126 186.17 170.594 165.531Z" fill="#E3DEC9"/>
<path d="M101.02 170.852C101.02 170.852 78.8917 153.405 85.4875 111.064C85.4875 111.064 70.8067 152.341 101.02 170.852Z" fill="#E3DEC9"/>
<path d="M272.036 32.6092L221.955 35.8633C220.736 35.9426 219.593 36.4791 218.752 37.3656C217.912 38.252 217.437 39.4231 217.423 40.6445L217 77.1452C216.985 78.4147 217.469 79.6395 218.348 80.5558C219.227 81.472 220.43 82.0066 221.699 82.0443L231.38 82.3396L228.146 98.4898C228.13 98.5777 228.141 98.6687 228.178 98.75C228.216 98.8313 228.277 98.8989 228.355 98.9433C228.433 98.9877 228.522 99.0067 228.611 98.9977C228.701 98.9887 228.784 98.952 228.852 98.893L247.002 82.8248L270.448 83.5364C271.722 83.5736 272.959 83.1081 273.892 82.2406C274.825 81.3732 275.38 80.1733 275.435 78.9004L277.19 37.6609C277.22 36.9806 277.106 36.3017 276.857 35.6682C276.607 35.0348 276.227 34.4611 275.74 33.9845C275.254 33.5078 274.673 33.139 274.034 32.9021C273.396 32.6651 272.715 32.5653 272.036 32.6092Z" fill="#DA6D56"/>
<path d="M234.047 63.2866H230.033C230.047 61.9054 230.17 60.776 230.4 59.8984C230.645 59.0064 231.04 58.1935 231.587 57.4597C232.134 56.726 232.86 55.8915 233.767 54.9563C234.428 54.2801 235.033 53.6471 235.579 53.0572C236.141 52.4529 236.594 51.8055 236.939 51.1149C237.284 50.4099 237.457 49.5683 237.457 48.5899C237.457 47.5972 237.277 46.7412 236.917 46.0218C236.572 45.3024 236.054 44.7485 235.364 44.3601C234.687 43.9716 233.846 43.7774 232.839 43.7774C232.004 43.7774 231.213 43.9284 230.465 44.2306C229.717 44.5327 229.112 45.0003 228.652 45.6333C228.192 46.252 227.954 47.0649 227.94 48.072H223.947C223.976 46.4462 224.379 45.0507 225.156 43.8853C225.947 42.7199 227.012 41.8279 228.35 41.2092C229.688 40.5906 231.184 40.2812 232.839 40.2812C234.666 40.2812 236.22 40.6122 237.5 41.274C238.795 41.9358 239.781 42.8854 240.457 44.1227C241.133 45.3456 241.471 46.7987 241.471 48.482C241.471 49.7769 241.205 50.971 240.673 52.0645C240.155 53.1435 239.486 54.1578 238.666 55.1074C237.845 56.057 236.975 56.9634 236.054 57.8266C235.263 58.5604 234.731 59.3876 234.457 60.3084C234.184 61.2292 234.047 62.2219 234.047 63.2866ZM229.86 70.1278C229.86 69.4804 230.062 68.9336 230.465 68.4876C230.868 68.0416 231.45 67.8186 232.213 67.8186C232.99 67.8186 233.58 68.0416 233.982 68.4876C234.385 68.9336 234.587 69.4804 234.587 70.1278C234.587 70.7464 234.385 71.2788 233.982 71.7248C233.58 72.1708 232.99 72.3938 232.213 72.3938C231.45 72.3938 230.868 72.1708 230.465 71.7248C230.062 71.2788 229.86 70.7464 229.86 70.1278Z" fill="#76241F"/>
<path d="M258.818 63.2866H254.804C254.818 61.9054 254.941 60.776 255.171 59.8984C255.415 59.0064 255.811 58.1935 256.358 57.4597C256.904 56.726 257.631 55.8915 258.537 54.9563C259.199 54.2801 259.803 53.6471 260.35 53.0572C260.911 52.4529 261.364 51.8055 261.71 51.1149C262.055 50.4099 262.228 49.5683 262.228 48.5899C262.228 47.5972 262.048 46.7412 261.688 46.0218C261.343 45.3024 260.825 44.7485 260.134 44.3601C259.458 43.9716 258.617 43.7774 257.609 43.7774C256.775 43.7774 255.984 43.9284 255.235 44.2306C254.487 44.5327 253.883 45.0003 253.423 45.6333C252.962 46.252 252.725 47.0649 252.71 48.072H248.718C248.747 46.4462 249.15 45.0507 249.927 43.8853C250.718 42.7199 251.783 41.8279 253.121 41.2092C254.459 40.5906 255.955 40.2812 257.609 40.2812C259.437 40.2812 260.99 40.6122 262.271 41.274C263.566 41.9358 264.551 42.8854 265.227 44.1227C265.904 45.3456 266.242 46.7987 266.242 48.482C266.242 49.7769 265.976 50.971 265.443 52.0645C264.925 53.1435 264.256 54.1578 263.436 55.1074C262.616 56.057 261.746 56.9634 260.825 57.8266C260.034 58.5604 259.501 59.3876 259.228 60.3084C258.955 61.2292 258.818 62.2219 258.818 63.2866ZM254.631 70.1278C254.631 69.4804 254.833 68.9336 255.235 68.4876C255.638 68.0416 256.221 67.8186 256.984 67.8186C257.76 67.8186 258.35 68.0416 258.753 68.4876C259.156 68.9336 259.357 69.4804 259.357 70.1278C259.357 70.7464 259.156 71.2788 258.753 71.7248C258.35 72.1708 257.76 72.3938 256.984 72.3938C256.221 72.3938 255.638 72.1708 255.235 71.7248C254.833 71.2788 254.631 70.7464 254.631 70.1278Z" fill="#76241F"/>
</g>
<defs>
<clipPath id="clip0_569_7895">
<rect width="300" height="300" fill="white" transform="matrix(-1 0 0 1 300 0)"/>
</clipPath>
</defs>
</svg>
