<svg width="100" height="100" viewBox="0 0 100 100" fill="none" xmlns="http://www.w3.org/2000/svg">
<path d="M67.3917 68.1252C66.6193 68.3826 65.8469 68.4856 65.0746 68.4856C64.6626 68.5371 64.3022 68.4341 63.9932 68.2281C63.8388 68.1252 63.6843 68.0222 63.5813 67.8162C63.3753 67.3528 63.2724 66.8894 63.3753 66.3744C63.0149 66.4259 62.8089 66.3229 62.7574 66.014C62.6544 65.6536 62.603 65.2416 62.603 64.8297C62.5515 63.6969 62.4485 62.6155 62.3455 61.5342V61.4827C62.294 61.1738 62.2425 60.9163 62.191 60.6074C62.088 60.1954 61.9851 59.835 61.8821 59.423C61.8306 59.2171 61.7791 59.0111 61.6761 58.8566C61.6246 58.7537 61.6246 58.7022 61.5731 58.5992C61.5216 58.4447 61.4701 58.2387 61.3672 58.0843C61.1612 57.4664 61.0067 56.797 60.9037 56.1791C60.7493 55.3037 60.5433 54.3769 60.3888 53.5015C60.2858 52.8836 60.1314 52.3172 59.9254 51.6993C59.9254 51.6478 59.8739 51.5448 59.8739 51.4933C59.8224 51.2873 59.7194 51.0814 59.6164 50.8754C59.359 50.206 59.153 49.4851 59.05 48.8157C58.9985 48.6098 58.9985 48.4553 58.9985 48.3008C59.359 48.1978 59.6679 48.0949 59.8739 48.0949C60.0799 48.0949 60.4918 48.1463 61.2127 48.2493C61.5216 48.3008 61.9336 48.3523 62.3455 48.4553C63.1179 48.6098 63.7358 48.7128 64.1992 48.8157C64.1477 49.3821 64.0447 50.0001 63.9417 50.5665C63.8903 50.7724 63.8903 50.9784 63.8388 51.1844C63.7358 52.1112 63.7358 53.0896 63.8388 54.0164C63.9417 55.1492 63.9932 56.282 63.8903 57.4149C63.8388 58.1872 63.8388 59.0111 63.8903 59.7835C63.9417 60.3499 64.0447 60.9163 64.1992 61.4312C64.3022 61.8432 64.4052 62.2551 64.5596 62.6155C64.7141 63.079 64.9201 63.5939 65.0746 64.0573C65.2805 64.6237 65.538 65.1901 65.8469 65.705C66.3619 66.5289 66.8768 67.3013 67.3917 68.1252Z" fill="#7D1520"/>
<path d="M21.564 50.0516C21.2036 50.515 20.8946 50.9784 20.5857 51.4418C20.0707 52.2657 19.5558 53.0896 19.0409 53.9649C18.629 54.6343 18.2685 55.3037 17.9596 56.0246C17.4447 57.0029 17.2387 58.0328 17.2387 59.1141C17.2387 60.1954 17.3417 61.3283 17.4962 62.4096C17.6506 63.3879 17.9596 64.2633 18.526 65.0872C18.9894 65.808 19.5043 66.5289 19.9678 67.2498C19.8648 67.3013 19.8133 67.3013 19.7103 67.3013C18.8349 67.4558 17.9596 67.6103 17.0842 67.6617C16.6723 67.7132 16.2604 67.6617 15.8999 67.5073C15.488 67.3528 15.3335 67.0438 15.385 66.5804C15.385 66.3744 15.3335 66.22 15.2305 66.117C14.9216 65.7565 14.5611 65.4991 14.0977 65.2931C14.2522 64.5722 14.3552 63.8514 14.4581 63.079C14.5611 62.2551 14.6641 61.4827 14.7156 60.6589C14.8186 59.732 14.8186 58.8052 14.8186 57.9298C14.8186 57.0029 14.7156 56.0761 14.5096 55.1492C14.3037 54.2739 14.1492 53.3985 14.0977 52.5232C14.0462 51.5448 14.2522 50.5665 14.7671 49.6911C15.282 48.8672 15.7454 48.0434 16.2089 47.168C16.6208 46.3441 17.0327 45.5203 17.3932 44.6449C17.7536 43.7696 18.0111 42.8942 18.1141 41.9673C18.217 41.092 18.2685 40.1651 18.2685 39.2898C18.2685 38.3114 18.2685 37.3331 18.217 36.3032C18.1656 35.3764 18.0111 34.501 17.8051 33.5742C17.5991 32.5958 17.4447 31.6175 17.4447 30.5877C17.4447 29.6608 17.5476 28.6825 17.7536 27.7556L17.8051 27.4467L17.9081 27.0347C18.217 27.2922 18.526 27.5496 18.8864 27.7556C18.32 28.3735 18.0111 29.0944 17.8566 29.8668C17.9081 30.7421 18.0111 31.6175 18.217 32.4929C18.32 32.9563 18.423 33.4197 18.4745 33.8831C19.5043 36.5092 20.2252 39.1868 20.7401 41.8644C21.3065 44.6449 21.564 47.3225 21.564 50.0516Z" fill="#7D1520"/>
<path d="M78.4624 38.9293C78.5139 38.9293 78.6169 38.9808 78.7199 39.0838C78.3594 39.1868 77.896 39.2898 77.3811 39.3928C76.7632 39.4957 76.2483 39.9592 75.6819 40.8345C75.4759 41.7099 75.064 42.1733 74.4975 42.1733C73.9826 42.0188 73.2102 42.0188 72.2834 42.2248C71.511 42.1218 70.7386 42.2763 69.9663 42.6367C69.1939 42.9972 68.473 43.4606 67.8036 44.027C67.0827 44.5419 66.5678 45.2628 66.1559 46.0867C65.6924 46.962 65.435 47.9404 65.3835 48.9702C65.2805 48.9702 65.229 48.9702 65.126 48.9702C64.9716 48.9702 64.6626 48.9187 64.1992 48.8672C63.7358 48.7643 63.1179 48.6613 62.3455 48.5068C61.9336 48.4553 61.5216 48.3523 61.2127 48.3008C60.4918 48.1979 60.0798 48.1464 59.8739 48.1464C59.6679 48.1464 59.4105 48.2493 58.9985 48.3523C58.844 48.4038 58.6896 48.4553 58.5351 48.5068C58.0202 48.7128 57.6082 48.8158 57.2993 48.8672C57.2478 48.8672 57.1963 48.8672 57.1448 48.8672C56.9388 48.8672 56.3724 48.7128 55.6001 48.4038C55.6001 48.2493 55.6001 48.1464 55.5486 47.9919C55.4456 47.374 55.3941 46.7046 55.2911 46.0867C55.703 45.6748 56.012 45.2628 56.218 44.7479C56.115 44.336 55.9605 43.924 55.8575 43.5121C55.6001 42.6882 55.3426 41.8644 55.0337 41.092C54.8277 40.6286 54.6217 40.2166 54.3128 39.8047C53.3344 38.5174 52.2016 37.5905 50.8113 36.9212C50.2449 36.5607 49.627 36.2518 49.0091 35.9943C48.5972 36.2518 48.2367 36.5092 47.9793 36.8697C47.0009 38.054 46.0741 39.3413 45.1987 40.6801C44.3234 42.0188 43.448 43.4091 42.6241 44.7994C41.6458 45.2628 40.8734 45.9322 40.3585 46.9106C40.101 47.3225 39.9466 47.7344 39.8436 48.2493C39.6376 49.0732 39.6891 49.8971 39.9466 50.618C39.2772 50.618 38.6078 50.6695 37.9384 50.6695C37.1145 50.6695 36.2906 50.5665 35.4668 50.3605C35.1578 50.309 34.8489 50.206 34.5914 50.103L32.4803 47.8889L32.0683 47.4255C32.1713 47.1165 31.8109 46.6531 31.09 46.1382C30.3691 46.9106 29.7512 47.7859 29.1333 48.6613C27.7945 50.5665 27.0736 52.5232 26.8676 54.6343C26.7132 56.0246 26.8676 57.5179 27.2281 59.0111L26.7647 59.3716L23.9326 59.4746C23.0573 58.0843 22.2334 56.694 21.4095 55.3037C21.2036 54.9948 21.1521 54.6858 21.1521 54.3769C21.255 52.9866 21.358 51.5963 21.358 50.206C21.358 47.477 21.1006 44.7994 20.6371 42.1218C20.3797 42.2248 20.1222 42.3278 19.8133 42.4308C19.6073 40.6801 19.3498 38.9808 18.9894 37.2816C18.7834 36.2518 18.526 35.1704 18.3715 34.1406C18.2685 33.6772 18.1655 33.2137 18.114 32.7503C17.9081 31.875 17.8051 30.9996 17.7536 30.1242C17.9081 29.3519 18.2685 28.631 18.7834 28.0131C18.4745 27.7556 18.1655 27.5496 17.8051 27.2922L17.9081 27.4982C17.7021 27.8586 17.4961 28.1676 17.3417 28.528C16.3118 30.5362 15.7969 32.5958 15.7454 34.81C15.7454 35.9943 15.7969 37.2301 15.8484 38.5174C15.9514 40.0107 15.7454 41.4009 15.179 42.6882C14.973 43.2031 14.7156 43.7181 14.5096 44.233C14.0977 45.1598 13.6858 46.1382 13.3768 47.1165C13.0164 48.3008 12.7074 49.4851 12.4499 50.618C12.244 51.5963 12.038 52.5747 11.8835 53.553L11.6261 53.8619L11.2141 52.4717C10.7507 53.9649 10.4418 55.5097 10.3903 57.0544L9.46343 54.1709L9.15448 54.8403C9.05149 54.1709 9 53.5015 9 52.8321C9 52.2142 9.05149 51.5448 9.20597 50.8754C9.51492 49.6396 10.0298 48.4553 10.8022 47.271C11.2141 46.7046 11.6776 46.1382 12.1925 45.5718C12.7074 45.0054 13.2223 44.336 13.6343 43.5121C14.0462 42.6882 14.3551 41.8129 14.4581 40.8345C14.5611 39.9077 14.6641 38.3114 14.6641 36.1488C14.6641 33.9346 14.7156 32.4929 14.7671 31.8235C14.8186 31.1541 14.973 30.3302 15.179 29.3519C15.385 28.3735 15.7454 27.5496 16.1574 26.9832C16.6208 26.4168 17.1357 25.9019 17.7536 25.5415C18.32 25.181 18.9894 24.9236 19.6588 24.7691C20.9976 24.5116 22.3879 24.4601 23.8296 24.6146C25.2714 24.6146 26.6617 24.4601 28.052 24.1512C28.4124 24.6661 28.7728 25.181 29.1848 25.6445C29.9057 26.5713 30.678 27.4982 31.5019 28.3735C31.9653 28.9399 32.5317 29.4548 33.1496 29.8668C33.4071 30.0727 33.6646 30.2272 33.9735 30.3302C34.9519 30.3817 35.9817 30.4847 36.96 30.6906C37.9384 30.7936 38.9167 30.9481 39.8436 31.1541C40.2555 31.1026 40.6674 30.9996 41.0794 30.8451C42.5211 30.3302 43.9114 29.6608 45.3017 28.8884C46.4345 28.2705 47.5673 27.5496 48.7002 26.8803C49.0091 26.7258 49.2666 26.5713 49.4725 26.3653C50.0904 25.7474 50.5539 25.078 50.8113 24.3572C51.6867 24.3572 52.6135 24.4087 53.4889 24.4601C54.3643 24.4601 55.2911 24.4601 56.1665 24.5116C57.0418 24.5116 57.9687 24.5116 58.844 24.5631H61.5216C62.9634 24.8206 64.3537 25.181 65.7439 25.593C66.7223 25.7989 67.7521 26.0049 68.7305 26.2624C70.2237 26.7773 71.717 27.1377 73.1588 27.4982C74.652 27.6526 76.1453 27.8071 77.587 27.9616C77.69 27.9616 77.793 28.0131 77.8445 28.0131C78.1535 28.3735 78.5139 28.7855 78.8229 29.1459C78.6684 29.8153 78.4624 30.4847 78.1535 31.0511C77.896 31.463 77.69 31.875 77.4841 32.3384C77.3811 32.5958 77.2266 32.9048 77.1236 33.1623C76.8147 34.0376 76.6602 35.016 76.6602 35.9943C76.6602 36.4062 76.7117 36.7667 76.7632 37.1786C76.8662 37.5905 77.0206 37.951 77.2266 38.3114C77.2781 38.4144 77.3296 38.4659 77.4326 38.5689C77.793 38.6204 78.102 38.7749 78.4624 38.9293Z" fill="#FCC89C"/>
<path d="M18.9894 27.8071C18.423 28.425 18.114 29.1459 17.9596 29.9183C17.9081 29.0429 17.9081 28.219 18.0111 27.3437C18.0111 27.3952 17.9596 27.3952 17.9596 27.4467L18.0626 27.0347C18.32 27.3437 18.629 27.6011 18.9894 27.8071Z" fill="#FCC89C"/>
<path d="M65.3835 50.3605C65.2805 50.412 64.7656 50.6694 63.9417 51.1329C63.8903 51.1329 63.8388 51.1844 63.7873 51.1844C62.9634 51.5963 61.7276 51.6993 60.1314 51.5448C60.0799 51.5448 59.9769 51.5448 59.9254 51.4933C59.8739 51.4933 59.8224 51.4933 59.8224 51.4933C58.6381 51.3388 57.4538 51.0299 56.2695 50.6694L57.3508 49.1762C57.2993 49.0732 57.2993 48.9187 57.2478 48.8157C57.5568 48.7642 57.9687 48.6613 58.4836 48.4553C58.6381 48.4038 58.7926 48.3523 58.947 48.3008C59.3075 48.1978 59.6164 48.0949 59.8224 48.0949C60.0284 48.0949 60.4403 48.1463 61.1612 48.2493C61.4701 48.3008 61.8821 48.3523 62.294 48.4553C63.0664 48.6098 63.6843 48.7128 64.1477 48.8157C64.6111 48.8672 64.9201 48.9187 65.0746 48.9187C65.1261 48.9187 65.229 48.9187 65.332 48.9187C65.332 49.3821 65.332 49.8456 65.3835 50.3605Z" fill="#FCC89C"/>
<path d="M82.6847 35.5309C82.6332 36.0973 82.4788 36.6637 82.2728 37.1786C82.1183 37.5391 81.8609 37.848 81.5519 38.054C80.934 38.4144 80.2131 38.7234 79.4922 38.8778C79.2863 38.9808 79.0288 39.0323 78.7199 39.1353C78.6169 39.0323 78.5654 39.0323 78.4624 38.9808C78.102 38.7749 77.793 38.6204 77.5356 38.5174C77.4841 38.4144 77.3811 38.3629 77.3296 38.2599C77.1236 37.8995 76.9691 37.4876 76.8662 37.1271C76.7632 36.7667 76.7632 36.3547 76.7632 35.9428C76.7632 34.913 76.9177 33.9861 77.2266 33.1108C77.3296 32.8018 77.4841 32.5443 77.587 32.2869C77.793 31.8235 77.999 31.4115 78.2564 30.9996C78.5654 30.4332 78.7714 29.7638 78.9258 29.0944C78.6169 28.734 78.3079 28.322 77.9475 27.9616C78.4624 28.0646 78.9258 28.219 79.4408 28.425C80.8825 28.9914 81.8094 29.9698 82.2728 31.36C82.3758 31.772 82.4788 32.1839 82.5818 32.5958C82.6332 32.9563 82.6847 33.3167 82.7362 33.6257C82.7362 34.2436 82.7362 34.913 82.6847 35.5309Z" fill="#FCC89C"/>
<path d="M20.7916 41.9673C20.5342 42.0703 20.2767 42.1733 19.9677 42.2763C20.0707 42.9457 20.1222 43.6151 20.1737 44.2845C20.2252 45.0054 20.2767 45.7262 20.2767 46.4471C20.3282 47.5285 20.5856 48.5583 21.1521 49.4851C21.255 49.6396 21.358 49.8456 21.5125 50.0001C21.564 47.3225 21.3065 44.6449 20.7916 41.9673ZM32.5832 47.7344L32.1713 47.271C32.2743 46.9621 31.9138 46.4986 31.193 45.9837C30.4721 46.7561 29.8542 47.6314 29.2363 48.5068C27.8975 50.412 27.1766 52.3687 26.9706 54.4799C27.0221 54.5828 27.0736 54.6858 27.1766 54.8403L27.6915 54.7888L28.0005 52.9866L29.0303 53.0896C29.0303 53.347 29.1333 53.6045 29.1848 53.8619C29.2878 54.0679 29.3907 54.2739 29.4937 54.4799C29.5967 54.6343 29.7512 54.7888 29.9057 54.9433C29.9571 54.8403 30.0086 54.7888 30.0086 54.6858C30.1116 54.1709 30.1116 53.7075 30.1116 53.1926L30.987 52.7806C30.987 53.0381 31.0385 53.347 31.09 53.656C31.1415 53.862 31.2444 54.1194 31.3474 54.3254C31.3474 54.3254 31.3989 54.3769 31.4504 54.4284H31.6049C31.6564 54.4799 31.7594 54.4799 31.8623 54.5313C31.8623 54.4799 31.9138 54.4284 31.9653 54.3769C32.0168 54.2739 32.0168 54.2224 32.0168 54.1709C32.0683 53.8105 32.1198 53.45 32.1198 53.1411C32.1713 52.8836 32.1713 52.6261 32.2228 52.3687L34.5399 50.0516H34.5914L32.5832 47.7344ZM48.1852 24.3572C47.3099 24.3572 46.383 24.3572 45.5077 24.4086C44.6323 24.4086 43.8599 24.4601 43.242 24.5116C42.6241 24.5631 41.7488 24.6146 40.7189 24.7176C39.6891 24.7691 38.5563 24.8721 37.4235 25.0266C36.2906 25.181 35.0548 25.2325 33.819 25.181C32.5832 25.1295 31.4504 24.9751 30.4721 24.7176C29.4937 24.4601 28.7213 24.3057 28.2064 24.2027C28.5669 24.7176 28.9273 25.2325 29.3392 25.6959C30.0601 26.6228 30.8325 27.5496 31.6564 28.425C32.1198 28.9914 32.6862 29.5063 33.3041 29.9183C33.5616 30.1242 33.819 30.2787 34.128 30.3817C35.1063 30.4332 36.1362 30.5362 37.1145 30.7421C38.0928 30.8451 39.0712 30.9996 39.998 31.2056C40.41 31.1541 40.8219 31.0511 41.2338 30.8966C42.6756 30.3817 44.0659 29.7123 45.4562 28.9399C46.589 28.322 47.7218 27.6011 48.8546 26.9317C49.1636 26.7773 49.421 26.6228 49.627 26.4168C50.2449 25.7989 50.7083 25.1295 50.9658 24.4086L48.1852 24.3572ZM72.2319 42.1733C71.4595 42.0703 70.6871 42.2248 69.9148 42.5853C69.1424 42.9457 68.4215 43.4091 67.7521 43.9755C67.0312 44.4904 66.5163 45.2113 66.1044 46.0352C65.641 46.9106 65.3835 47.8889 65.332 48.9187C65.332 49.3822 65.332 49.8456 65.3835 50.3605C65.6924 50.515 66.1559 50.3605 66.7738 50.0516C67.1857 49.6911 67.5461 49.2792 67.8036 48.8672C67.9581 48.6613 68.0611 48.4038 68.2155 48.1979C68.576 47.477 69.1939 47.1165 70.0692 47.065C70.9961 47.0135 71.511 46.6016 71.6655 45.8807C71.82 45.1598 72.0259 44.6449 72.2319 44.336C73.2102 43.6666 73.6737 43.2032 73.7767 42.8427C73.8281 42.4823 74.0856 42.2763 74.4975 42.1733C73.9311 41.9673 73.2102 41.9673 72.2319 42.1733ZM57.2993 48.8158C57.2478 48.8158 57.1963 48.8158 57.1448 48.8158C56.9388 48.8158 56.3724 48.6613 55.6001 48.3523C55.6001 48.1979 55.6001 48.0949 55.5486 47.9404C55.4456 47.3225 55.3941 46.6531 55.2911 46.0352C55.703 45.6233 56.012 45.2113 56.218 44.6964C56.115 44.2845 55.9605 43.8725 55.8575 43.4606C55.6001 42.6367 55.3426 41.8129 55.0336 41.0405C54.8277 40.5771 54.6217 40.1651 54.3128 39.7532C53.3344 38.4659 52.2016 37.5391 50.8113 36.8697C50.2449 36.5092 49.627 36.2003 49.0091 35.9428C48.5972 36.2003 48.2367 36.4577 47.9793 36.8182C47.0009 38.0025 46.0741 39.2898 45.1987 40.6286C44.3234 41.9673 43.448 43.3576 42.6241 44.7479C41.6458 45.2113 40.8734 45.8807 40.3585 46.8591C40.101 47.271 39.9466 47.6829 39.8436 48.1979C39.6376 49.0217 39.6891 49.8456 39.9466 50.5665C40.9764 50.412 42.0577 50.309 43.0876 50.1545C43.8084 50.0001 44.5293 49.8456 45.2502 49.6911C45.9196 49.5366 46.6405 49.4337 47.3099 49.2792C48.2882 49.1762 49.2666 49.1247 50.2964 49.1762C50.5539 49.1762 50.8628 49.2277 51.1718 49.2277C51.5322 49.2792 51.8926 49.3307 52.3046 49.4337C53.2314 49.6396 54.1068 49.8971 54.9822 50.206C55.1366 50.2575 55.2911 50.309 55.4456 50.412C55.703 50.515 55.9605 50.618 56.1665 50.721L57.2478 49.2277C57.3508 49.0217 57.2993 48.9187 57.2993 48.8158Z" fill="#4F2212"/>
<path d="M59.05 70.0304C59.05 70.0818 59.05 70.0818 59.05 70.1333C58.6381 70.1848 58.2261 70.1848 57.8142 70.1333C57.8142 69.9789 57.8142 69.7729 57.8142 69.5154C57.8142 68.3826 57.9172 67.5587 58.0717 66.9923C58.1232 66.8894 58.1232 66.7349 58.1746 66.6319C58.3806 67.0438 58.5866 67.4558 58.7411 67.8677C58.844 68.0737 58.8955 68.2281 58.9985 68.3826C58.9985 68.5371 58.9985 68.6916 58.9985 68.7946C59.05 69.3095 59.05 69.7214 59.05 70.0304Z" fill="white"/>
<path d="M59.05 68.4341C59.2045 68.7431 59.462 69.052 59.6679 69.3095C59.6679 69.361 59.6165 69.361 59.6165 69.4125C59.6165 69.4639 59.565 69.4639 59.5135 69.5154C59.5135 69.5154 59.462 69.5669 59.4105 69.5669C59.359 69.5669 59.3075 69.5669 59.3075 69.5669H59.153L59.359 70.0818C59.256 70.0818 59.153 70.1333 59.1015 70.1848C59.1015 70.1848 59.1015 70.1848 59.05 70.1848C59.05 70.1333 59.05 70.1333 59.05 70.0818C59.05 69.7729 59.05 69.361 59.05 68.8975C59.05 68.6916 59.05 68.5886 59.05 68.4341Z" fill="#FCC89C"/>
<path d="M59.8224 48.0434C59.6164 48.0434 59.3075 48.1463 58.947 48.2493C58.7926 48.3008 58.6381 48.3523 58.4836 48.4038C57.9687 48.6098 57.5568 48.7128 57.2478 48.7643C57.1963 48.7643 57.1448 48.7643 57.0933 48.7643C56.8874 48.7643 56.3724 48.6098 55.5486 48.3008C55.6001 48.5583 55.6001 48.8672 55.6001 49.1247L55.4971 50.309L55.0851 54.5313V54.7373C55.0851 55.7156 55.0851 56.7455 55.1366 57.7238C55.1366 58.0843 55.1366 58.3932 55.1366 58.7022C55.1366 59.1656 55.1366 59.629 55.0851 60.1439L55.1366 60.1954C55.0851 60.5044 55.0851 60.8133 55.0337 61.1223C54.8792 62.6155 54.6732 64.1088 54.4158 65.6021C54.3128 66.0655 54.1583 66.4259 53.7979 66.6834C54.3128 66.8894 54.6732 67.1983 54.7762 67.7132C54.8792 68.0737 54.8277 68.3826 54.7247 68.6916C54.5702 69.155 54.7247 69.4639 55.1881 69.6184C55.2911 69.6699 55.4456 69.7214 55.6001 69.7729C55.6001 69.7729 55.6001 69.7214 55.6516 69.7214C56.3724 69.9274 57.0933 70.0304 57.7627 70.0818C57.7627 69.8759 57.7627 69.6699 57.7627 69.4639C57.7627 68.3311 57.8657 67.5073 58.0202 66.9409C58.0717 66.7864 58.0717 66.6834 58.1232 66.5804C57.8657 66.117 57.6597 65.705 57.4538 65.2416C57.5053 64.9327 57.5053 64.5722 57.4538 64.2118C57.3508 63.3879 57.2993 62.5641 57.3508 61.7402C57.3508 61.5342 57.3508 61.2768 57.4023 61.0708C57.4538 60.9678 57.4538 60.9163 57.4538 60.8133C57.5568 59.8865 57.7627 58.9596 58.0202 58.0328C58.2776 57.2089 58.4836 56.3335 58.7411 55.5097C58.7926 55.3552 58.844 55.1492 58.8955 54.9948C59.05 54.3769 59.256 53.7075 59.4105 53.0896C59.5649 52.6261 59.6679 52.1627 59.8224 51.6993C59.8224 51.5963 59.8739 51.5448 59.8739 51.4933C59.9254 51.3903 59.9769 51.2359 59.9769 51.1329C60.1828 50.309 60.4403 49.4851 60.8522 48.7643C60.9552 48.6098 61.0582 48.4038 61.1612 48.2493C60.4918 48.1463 60.0284 48.0434 59.8224 48.0434ZM56.3209 66.1685C56.3209 66.5804 56.321 66.9409 56.2695 67.2498C56.321 66.8894 56.3209 66.5804 56.3209 66.1685Z" fill="#4F2212"/>
<path d="M18.526 33.9861C18.4745 33.8831 18.423 33.7287 18.3715 33.6257C17.8566 32.2354 17.6506 31.0511 17.9081 29.9183C17.9596 30.7936 18.0626 31.669 18.2685 32.5443C18.3715 33.0593 18.423 33.5227 18.526 33.9861Z" fill="#FCC89C"/>
<path d="M32.0168 68.846L32.0683 69.5669L28.1549 69.155C28.0005 68.8975 27.949 68.6401 27.8975 68.3826C27.743 67.9192 27.4855 67.6102 27.0221 67.3528C26.9191 67.3013 26.8676 67.2498 26.7132 67.2498C26.6617 67.1983 26.6102 67.1983 26.5587 67.1468C26.5072 67.0438 26.5072 66.9409 26.5072 66.8894C26.9191 64.1603 26.1468 61.6372 24.1386 59.2686L26.9706 59.1656L27.4341 58.8051C28.7728 62.2551 30.4721 65.6021 32.5317 68.7946L32.0168 68.846Z" fill="#4F2212"/>
<path d="M91.0779 39.5987C91.0264 39.3928 90.9749 39.1868 90.872 39.0323C90.563 38.3629 90.2541 37.745 89.9451 37.1786C89.6876 36.7667 89.3787 36.4062 89.1212 35.9943C88.9153 35.6339 88.7093 35.3249 88.6063 35.016C88.4004 34.6555 88.2459 34.2436 88.1429 33.8831C88.0399 33.5742 87.9884 33.2652 87.8854 32.9563C87.8854 32.5443 87.8854 32.1839 87.8854 31.772C87.8339 31.2571 87.731 30.7936 87.525 30.3817C87.422 30.1757 87.319 30.0212 87.2675 29.8153C87.2675 29.5578 87.422 29.1974 87.731 28.734C87.9369 28.425 88.0914 28.0646 88.2459 27.6526C88.4004 27.1377 88.4004 26.5713 88.3489 25.9534C88.2974 25.7989 88.2459 25.6959 88.2459 25.5415L87.731 25.0265C87.3705 25.2325 87.0616 25.5415 86.7526 25.9534C86.6496 26.0564 86.5466 26.1594 86.3922 26.2623C86.1862 26.3653 86.0317 26.5198 85.8258 26.6228L85.5168 25.9534C85.2079 26.1594 85.0019 26.0564 84.9504 25.6444C84.8989 25.5415 84.8989 25.49 84.8474 25.4385C84.7959 25.387 84.7959 25.387 84.7444 25.3355C84.4355 25.4385 84.281 25.387 84.2295 25.078C84.178 24.7691 84.075 24.4601 83.9206 24.1512C83.8691 24.0997 83.8691 24.0997 83.8176 24.0482C83.4571 23.9452 83.1482 23.9967 82.9422 24.3057C82.8392 24.2542 82.6848 24.2027 82.5303 24.1512L82.3758 24.6146C82.3243 24.5116 82.2728 24.4086 82.1698 24.3572C82.1184 24.3057 82.0669 24.3057 82.0669 24.3057L81.14 24.9236C81.0885 24.8206 81.037 24.7691 80.9855 24.7691C80.8826 24.6661 80.8311 24.6146 80.7281 24.6146C80.2132 24.8206 79.9042 25.181 79.8012 25.7474C79.5953 25.6959 79.3893 25.6959 79.1833 25.6444C78.6169 25.387 78.0505 25.1295 77.6386 24.8721C77.3811 24.7176 77.1751 24.6661 76.9177 24.7691C76.8147 24.9751 76.8147 25.1295 76.8662 25.3355C76.8662 25.3355 76.8662 25.3355 76.9177 25.3355C76.9177 25.4385 76.9692 25.49 77.0207 25.5415C76.9692 25.593 76.9177 25.6959 76.8662 25.7989C76.8147 25.8504 76.8147 25.9019 76.8147 26.0049C77.1236 26.6743 77.4841 27.2922 77.896 27.8071C77.9475 27.8586 77.999 27.9101 78.0505 27.9616C78.3595 28.322 78.7199 28.734 79.0288 29.0944C78.8744 29.7638 78.6684 30.4332 78.3595 30.9996C78.102 31.4115 77.896 31.8235 77.6901 32.2869C77.5871 32.5443 77.4326 32.8533 77.3296 33.1108C77.0207 33.9861 76.8662 34.9645 76.8662 35.9428C76.8662 36.3547 76.9177 36.7152 76.9692 37.1271C77.0722 37.539 77.2266 37.8995 77.4326 38.2599C77.4841 38.3629 77.5356 38.4144 77.6386 38.5174C77.896 38.6204 78.205 38.7749 78.5654 38.9808C78.6169 38.9808 78.7199 39.0323 78.8229 39.1353L78.8744 39.1868C79.2863 39.5987 79.8012 39.9077 80.2647 40.1136C80.7281 40.3196 81.2945 40.4741 81.9124 40.5771C82.4788 40.6286 83.0452 40.7315 83.6116 40.8345C84.0236 40.989 84.487 41.092 84.8989 41.2979C85.2594 41.4009 85.6198 41.4524 85.9287 41.5554C85.9802 41.6069 86.0832 41.6069 86.1862 41.6584L85.7228 40.7315C85.8773 40.8345 85.9802 41.0405 86.1347 41.195C86.2377 41.4524 86.3922 41.7099 86.4952 41.9673C86.7011 42.3278 86.9071 42.5852 87.2675 42.6882C87.3705 42.6882 87.4735 42.6882 87.5765 42.6882L90.46 42.3278C90.769 42.4308 90.9749 42.4308 91.1294 42.2248C91.2324 42.1218 91.2839 42.0703 91.3869 42.0188C91.2839 41.1435 91.2324 40.3711 91.0779 39.5987ZM82.2728 28.0646C82.2728 28.1161 82.3243 28.1675 82.3758 28.219C82.3758 28.2705 82.3243 28.3735 82.2728 28.4765C82.2213 28.322 82.2728 28.1675 82.2728 28.0646ZM80.5221 26.3653C80.6251 26.4168 80.7281 26.4683 80.8311 26.5713C80.8825 26.6228 80.934 26.6228 80.9855 26.6743C81.037 26.7258 81.0885 26.7773 81.14 26.7773C81.0885 26.7773 81.037 26.7258 81.037 26.6743C80.7281 26.4168 80.3676 26.2109 79.9557 26.0564C80.1617 26.1079 80.3676 26.2109 80.5221 26.3653ZM79.6467 26.6743C79.8527 26.8288 80.0587 26.9832 80.2132 27.1377C80.2646 27.1892 80.3676 27.2922 80.5221 27.3952C80.6251 27.4982 80.6766 27.6526 80.7281 27.9101C80.8311 28.1675 80.8826 28.425 80.8826 28.6825C80.8826 28.734 80.8825 28.7854 80.8311 28.8369C80.7281 28.631 80.6251 28.425 80.5221 28.219C80.4191 27.9616 80.2646 27.7556 80.1617 27.5496C80.0072 27.3437 79.8012 27.1892 79.5953 27.0347C79.1318 26.5713 78.6684 26.1594 78.1535 25.7989L79.6467 26.6743ZM84.178 33.5742C84.178 33.6257 84.1265 33.6772 84.075 33.7801L82.7877 33.6772L82.4788 33.3682C82.4273 33.2652 82.3758 33.1622 82.3758 33.0593C82.3243 32.9048 82.3243 32.6988 82.3243 32.5443H83.1482C83.4571 32.4929 83.7146 32.5958 83.9721 32.9048C83.9721 32.9563 84.0235 33.0078 84.075 33.0593C84.178 33.2652 84.178 33.4197 84.178 33.5742ZM89.3787 41.195C89.1727 41.2465 89.0182 41.2979 88.9153 41.2979L89.0183 41.1435C88.8638 41.0405 88.7608 40.886 88.6063 40.783C88.4518 40.68 88.2974 40.5256 88.1429 40.4226L88.5548 40.0621C88.7093 40.0621 88.8638 40.1651 89.0183 40.2166C89.1727 40.3196 89.2757 40.4741 89.4302 40.68L89.3787 41.195Z" fill="#FCC89C"/>
<path d="M86.0832 41.6069L85.6198 40.68C85.7742 40.8345 85.8772 40.989 86.0317 41.1435C86.1347 41.4009 86.2891 41.6584 86.3921 41.9158L86.0832 41.6069ZM89.4816 42.9457C89.1212 42.9972 88.7093 42.9972 88.3488 43.0487C88.0399 42.8942 87.7309 42.7912 87.4735 42.6367L90.357 42.2763L89.4816 42.9457ZM80.728 27.8586C80.831 28.0646 80.8825 28.322 80.8825 28.631C80.8825 28.6825 80.8825 28.7339 80.831 28.7854C80.728 28.5795 80.6251 28.3735 80.5221 28.1675C80.4191 27.9101 80.2646 27.7041 80.1616 27.4981C80.0071 27.2922 79.8012 27.1377 79.5952 26.9832C79.1318 26.5198 78.6684 26.1079 78.1534 25.7474L79.6467 26.6743C79.8527 26.8287 80.0586 26.9832 80.2131 27.1377C80.2646 27.1892 80.3676 27.2922 80.5221 27.3952C80.6251 27.4981 80.6765 27.6526 80.728 27.8586ZM80.9855 26.6743C80.6765 26.4168 80.3161 26.2108 79.9042 26.0564C80.1101 26.1079 80.3161 26.2108 80.4706 26.3653C80.728 26.5198 80.9855 26.6743 81.1915 26.8802C81.1915 26.8287 81.0885 26.7258 80.9855 26.6743ZM82.2213 28.4765C82.2213 28.322 82.2213 28.219 82.2213 28.116C82.2213 28.1675 82.2728 28.219 82.3243 28.2705C82.3243 28.2705 82.3243 28.3735 82.2213 28.4765ZM82.3243 32.5443C82.5817 32.5443 82.8392 32.5443 83.1481 32.5443C83.4571 32.4928 83.7146 32.5958 83.972 32.9048C83.972 32.9563 84.0235 33.0078 84.075 33.0593C84.1265 33.2137 84.1265 33.3682 84.1265 33.5742C84.1265 33.6257 84.075 33.6772 84.0235 33.7801L82.7362 33.6772L82.4273 33.3682C82.3758 33.2652 82.3243 33.1622 82.3243 33.0593C82.3758 32.9048 82.3243 32.7503 82.3243 32.5443ZM89.4301 40.6285L89.3787 41.1435C89.1727 41.195 89.0182 41.2464 88.9152 41.2464L89.0182 41.092C88.8637 40.989 88.7608 40.8345 88.6063 40.7315C88.4518 40.6285 88.2973 40.4741 88.1428 40.3711L88.5548 40.0106C88.7093 40.0106 88.8637 40.1136 89.0182 40.1651C89.1727 40.3196 89.2757 40.4741 89.4301 40.6285Z" fill="black"/>
<path d="M76.4028 64.1088C76.3513 64.4178 76.2483 64.8812 75.9909 65.4991C75.5789 66.5804 75.3215 67.3528 75.167 67.8162C75.0125 68.2796 74.9095 69.0005 74.8065 70.0304C74.7036 71.0602 74.6521 71.5236 74.5491 71.3691C74.1371 71.6781 73.9312 71.987 73.8282 72.193C73.7252 72.399 73.7252 72.6564 73.6222 72.9139C73.5192 73.1199 73.4678 73.3258 73.3133 73.4803C73.1073 73.6863 72.8499 73.8408 72.5924 73.9437C72.3349 74.0467 72.0775 74.0982 71.6655 74.0982H71.1506C71.0991 74.0982 71.0476 74.0467 71.0991 73.9437C71.1506 73.8408 71.1506 73.7893 71.1506 73.7378C70.9961 73.7378 70.8932 73.6863 70.8417 73.5833C70.9447 73.3258 71.0476 73.0684 71.1506 72.9139C71.3051 72.6049 71.4081 72.399 71.5111 72.296C71.7685 71.987 71.923 71.7296 71.9745 71.5236L72.026 71.2662C72.026 71.2662 72.026 71.2147 72.026 71.1632C72.026 71.0602 72.129 70.9057 72.2834 70.6483C72.3864 70.4423 72.5409 70.2363 72.7469 69.9789C72.8499 69.7729 72.9528 69.5154 73.0558 69.258C73.1073 69.0005 73.2103 68.6916 73.2618 68.4341C73.3133 68.1767 73.3133 67.7132 73.2618 67.0953C73.2103 66.4774 73.1588 66.014 73.1588 65.6536C73.1588 65.2931 73.0558 64.7782 73.0043 64.0058C72.9013 63.2849 72.7469 62.5641 72.4894 61.9462C72.4379 61.7917 72.3864 61.6372 72.3349 61.4827C72.9528 61.1223 73.5707 60.6589 74.2401 60.0924C74.4461 60.4014 74.6521 60.7103 74.8065 61.0193C75.064 61.4312 75.3215 61.9976 75.7334 62.7185C75.9909 63.1305 76.1968 63.5939 76.4028 64.1088Z" fill="#E08E17"/>
<path d="M58.4836 65.5506C58.4321 65.8595 58.3291 66.2715 58.2261 66.6834C58.1746 66.7864 58.1746 66.8894 58.1232 67.0438C57.9687 67.6102 57.8657 68.4341 57.8657 69.5669C57.8657 69.7729 57.8657 69.9789 57.8657 70.1848C57.8657 70.9057 57.8142 71.1632 57.7627 71.1117C57.2993 71.4721 57.0418 71.7811 57.0418 72.0385C57.0418 72.296 56.9903 72.5535 56.9388 72.8109C56.8874 73.0684 56.7844 73.3258 56.6299 73.5318C56.4754 73.7378 56.1665 73.8922 55.7545 73.8922C55.3426 73.9437 54.9307 73.9437 54.5702 73.8922C54.5702 73.7893 54.4672 73.6863 54.3643 73.6348C54.4672 73.3258 54.5702 73.0684 54.7247 72.8109C54.8792 72.5535 54.9822 72.3475 55.0851 72.09C55.2396 71.8326 55.3426 71.5751 55.4971 71.3177L55.3941 71.0087C55.3941 71.0087 55.3426 71.0087 55.3941 70.9057C55.3941 70.8027 55.4971 70.5968 55.6001 70.2878C55.6515 70.1848 55.703 70.0304 55.806 69.8759C55.8575 69.7729 55.9605 69.6184 56.0635 69.5154C56.115 69.3095 56.218 69.1035 56.2695 68.7946C56.3209 68.4856 56.3724 68.0737 56.4754 67.6102C56.5269 67.0953 56.5784 66.4774 56.5269 65.705C56.3724 65.3961 56.2695 65.0871 56.2695 64.6752C56.2695 64.2633 56.3209 63.7999 56.3724 63.2334C56.3724 62.4096 56.3209 61.7917 56.3209 61.2768C56.6299 61.4312 56.8874 61.5857 57.1963 61.5857C57.2993 61.6887 57.4538 61.7917 57.6082 61.8947C57.8142 61.9976 58.0202 62.1006 58.2261 62.1521C58.2261 62.2036 58.2261 62.2551 58.2776 62.3581C58.3291 62.873 58.4321 63.5939 58.5866 64.5722C58.4321 64.8812 58.4321 65.2416 58.4836 65.5506Z" fill="#E08E17"/>
<path d="M52.4076 50.206L51.4808 51.3903V51.5448C51.4808 51.8538 51.4293 52.1627 51.4293 52.4717C51.3778 52.7806 51.2233 53.0896 51.0173 53.2955C50.9144 53.3985 50.8114 53.5015 50.7084 53.6045C50.2965 53.5015 49.936 53.45 49.4726 53.45L50.3994 49.1247L50.7599 47.4255L50.9659 46.3956V46.3441L51.9957 46.8076L51.9442 46.8591C52.0472 46.9106 52.0987 46.962 52.2017 47.065C52.2531 47.477 52.3046 47.8374 52.3046 48.1978C52.3046 48.5583 52.3046 48.8672 52.3561 49.2277C52.4076 49.5366 52.4076 49.8456 52.4076 50.206Z" fill="#F3AD1C"/>
<path d="M79.6467 69.2065C79.5952 69.7214 79.5952 70.4938 79.7497 71.6266C79.8527 72.7594 79.9042 73.2743 79.8012 73.1199C79.4408 73.4803 79.2863 73.7893 79.2863 74.0467C79.2863 74.3042 79.2348 74.5616 79.2348 74.8191C79.2348 75.0766 79.1318 75.2825 79.0288 75.437C78.8744 75.6945 78.6684 75.8489 78.4109 75.9519C78.205 76.0549 77.896 76.1064 77.5356 76.1064H77.0207C76.9692 76.1064 76.9177 76.0549 76.9177 75.9519C76.9177 75.8489 76.9692 75.7459 76.9692 75.7459C76.8147 75.7459 76.7117 75.6945 76.6602 75.5915C76.7117 75.2825 76.7632 75.0251 76.8147 74.8706C76.8662 74.5101 76.9692 74.3042 77.0207 74.1497C77.1751 73.8408 77.2781 73.5318 77.2781 73.2743V73.0169C77.2781 73.0169 77.2781 72.9654 77.2781 72.9139C77.2781 72.8109 77.3296 72.605 77.3811 72.296C77.4326 72.09 77.5356 71.8326 77.69 71.5751C77.7415 71.3691 77.793 71.1117 77.8445 70.8027C77.8445 70.4938 77.896 70.1848 77.896 69.8759C77.896 69.5669 77.793 69.052 77.5871 68.3826C77.3811 67.7132 77.2266 67.1983 77.1751 66.7864C77.0721 66.4259 76.9177 65.808 76.6602 64.9842C76.5572 64.6752 76.4542 64.4178 76.3513 64.1088C76.1453 63.5939 75.9393 63.1305 75.7334 62.667C75.3729 61.9462 75.064 61.3797 74.8065 60.9678C74.6005 60.6589 74.4461 60.3499 74.2401 60.041C73.5707 60.6074 72.9528 61.0708 72.3349 61.4312C71.0991 62.1521 70.0178 62.5126 69.1424 62.4096C67.7006 62.2551 66.4648 62.0491 65.435 61.7402C64.9201 61.5857 64.5082 61.4827 64.1992 61.4312C63.9417 61.3797 63.7358 61.3283 63.5813 61.3283C63.2209 61.3283 62.8089 61.3797 62.294 61.4827C62.1395 61.5342 61.9851 61.5342 61.8306 61.5857C61.7791 61.8947 61.6761 62.2036 61.6246 62.6155L61.4186 65.3961C61.4186 65.7565 61.3672 66.117 61.3157 66.3744C61.2127 66.6319 61.1097 66.7864 61.0582 66.8894C61.0582 67.3013 60.9552 67.8162 60.9037 68.3311C60.8007 68.8975 60.8522 69.7214 60.9552 70.8542C61.0582 71.987 61.1097 72.502 61.0067 72.3475C60.6463 72.7079 60.4918 73.0169 60.4918 73.2743C60.4918 73.5318 60.4403 73.7893 60.4403 74.0467C60.4403 74.3042 60.3373 74.5101 60.2343 74.6646C60.0799 74.9221 59.8739 75.0766 59.6164 75.1795C59.4105 75.2825 59.1015 75.334 58.7411 75.3855H58.2262C58.1747 75.3855 58.1232 75.334 58.1232 75.231C58.1232 75.128 58.1747 75.0251 58.1747 75.0251C58.0202 75.0251 57.9172 74.9736 57.8657 74.8706C57.9172 74.5616 57.9687 74.3042 58.0202 74.1497C58.0717 73.7893 58.1747 73.5833 58.2262 73.4288C58.3806 73.1199 58.4836 72.8109 58.4836 72.5535V72.296C58.4836 72.296 58.4836 72.2445 58.4836 72.193C58.4836 72.09 58.5351 71.8841 58.6381 71.5751C58.6896 71.3691 58.7926 71.1117 58.947 70.8542C58.9985 70.6483 59.05 70.4423 59.05 70.1848C59.05 70.1333 59.05 70.1333 59.05 70.0819C59.05 69.7729 59.05 69.361 59.05 68.8975C59.05 68.7946 59.05 68.6401 59.05 68.4856C59.05 68.0737 58.947 67.5588 58.8955 67.0438C58.6896 66.7349 58.5351 66.4259 58.4836 66.014C58.4836 65.911 58.4836 65.808 58.4321 65.6536C58.4321 65.3446 58.3806 64.9842 58.3806 64.5722C58.2262 63.5939 58.1232 62.873 58.0717 62.3581C58.0717 62.3066 58.0717 62.2551 58.0202 62.1521C57.8142 62.1006 57.6082 61.9976 57.4023 61.8947C57.2478 61.7917 57.1448 61.6887 56.9904 61.5857C56.6814 61.5342 56.3724 61.4312 56.115 61.2768C55.7545 61.0708 55.3941 60.7104 55.0852 60.2984C54.7247 59.835 54.4158 59.2171 54.1068 58.4962C53.9008 57.3634 53.6434 56.694 53.3344 56.4365C53.077 56.2306 52.7165 55.6127 52.2531 54.5828C51.7897 54.1709 51.2233 53.9134 50.6569 53.759C50.7598 53.656 50.8628 53.553 50.9658 53.45C51.1718 53.1926 51.2748 52.9351 51.3777 52.6261C51.4292 52.3172 51.4292 52.0082 51.4292 51.6993V51.5448L52.4076 50.206C52.4076 49.8456 52.4076 49.5366 52.3561 49.2277C52.3561 48.9187 52.3046 48.5583 52.3046 48.1978C52.3046 47.8374 52.2531 47.477 52.2016 47.065C52.0986 47.0135 52.0471 46.962 51.9442 46.8591C51.9442 46.8591 51.9956 46.8591 51.9956 46.8076L53.6949 47.5799C54.4158 47.8889 55.0337 48.1464 55.5486 48.3008C56.3724 48.6098 56.8874 48.7643 57.0933 48.7643C57.1448 48.7643 57.1963 48.7643 57.2478 48.7643C57.5568 48.7128 57.9687 48.6098 58.4836 48.4038C58.6381 48.3523 58.7926 48.3008 58.947 48.2493C59.3075 48.1464 59.6164 48.0434 59.8224 48.0434C60.0284 48.0434 60.4403 48.0949 61.1612 48.1978C61.4701 48.2493 61.8821 48.3008 62.294 48.4038C63.0664 48.5583 63.6843 48.6613 64.1477 48.7643C64.6111 48.8158 64.9201 48.8672 65.0746 48.8672C65.1261 48.8672 65.229 48.8672 65.332 48.8672C65.7954 48.8672 66.5678 48.8158 67.8036 48.7643C69.9663 48.6613 73.3647 48.4038 77.999 47.9919C78.4109 48.0434 78.7199 48.1978 79.0288 48.4038C78.9773 48.4038 78.9773 48.4038 78.9258 48.4038C78.3079 48.3523 77.7415 48.4038 77.2781 48.5583L77.4841 49.4337C77.896 49.3307 78.205 49.3307 78.5139 49.3307C78.5139 49.3307 78.5654 49.3307 78.6169 49.3307C78.6684 49.3307 78.7199 49.3307 78.7199 49.3307C79.2348 49.4337 79.5952 49.7426 79.7497 50.309C79.8012 50.4635 79.8527 50.6695 79.8527 50.8239C80.0587 52.8836 79.9042 54.9948 79.3893 57.0544C78.8744 59.1141 78.7714 61.0193 79.0803 62.7185C79.4408 63.6969 79.6982 64.2633 79.9042 64.4178C80.1102 64.5722 80.1617 65.2931 80.0072 66.5289C79.8012 67.8677 79.6982 68.6916 79.6467 69.2065Z" fill="#F3AD1C"/>
<path d="M79.7497 50.3605C79.5953 49.7941 79.2348 49.4337 78.7199 49.3822C78.6684 49.3822 78.6684 49.3822 78.6169 49.3822C78.6169 49.3822 78.5654 49.3822 78.5139 49.3822C78.205 49.3822 77.896 49.3822 77.4841 49.4851L77.2781 48.6098C77.7416 48.4553 78.308 48.4038 78.9259 48.4553C78.9774 48.4553 78.9774 48.4553 79.0289 48.4553C79.3893 48.7128 79.5953 49.0217 79.6982 49.5366C79.6982 49.6396 79.7497 49.7941 79.7497 49.9486C79.7497 50.0516 79.7497 50.206 79.7497 50.3605Z" fill="#F3AD1C"/>
<path d="M83.5601 65.4991L83.6631 65.705C83.4571 65.3961 83.3026 65.0871 83.1481 64.8812C82.9422 64.4692 82.7877 64.1603 82.7362 63.9543C82.6332 63.5424 82.5302 63.2849 82.4787 63.182H82.4273C82.4273 63.2849 82.4272 63.3879 82.3758 63.5939C82.3758 63.6454 82.3243 63.6969 82.3243 63.7484C82.2728 63.5939 82.2213 63.2849 82.1698 62.9245C82.0668 62.4611 82.0153 62.1521 81.9638 61.9976C81.9123 62.0491 81.9123 62.1521 81.9123 62.2551C81.9123 62.3581 81.9123 62.4096 81.9123 62.4096C81.9123 62.4096 81.9123 62.5126 81.8608 62.7185C81.8093 62.873 81.8093 62.873 81.7579 62.77C81.7064 62.6155 81.6549 62.1521 81.5519 61.4312C81.4489 60.6589 81.3974 60.1954 81.3974 60.0924C81.3974 59.7835 81.3459 59.526 81.2429 59.2171C81.14 58.9596 80.934 58.4447 80.5735 57.7753C80.2131 57.0544 80.0586 56.2306 80.0586 55.3037C80.1101 54.0164 80.1616 53.244 80.1616 52.9866C80.1616 52.8836 80.1616 52.8321 80.2131 52.7806C80.2131 52.7291 80.2131 52.6776 80.2131 52.5746L80.1101 51.5448C80.0586 51.1329 80.0071 50.7724 79.8527 50.515C79.7497 50.309 79.6982 50.1545 79.5952 50.0516C79.5437 50.0001 79.4922 49.9486 79.4407 49.8971C79.2863 49.7426 79.1833 49.6396 79.0288 49.5881C78.9258 49.5366 78.7713 49.5366 78.5654 49.4851C78.5139 49.4851 78.5139 49.4851 78.4624 49.4851C78.4624 49.4851 78.4109 49.4851 78.3594 49.4851C78.0504 49.4851 77.7415 49.4851 77.3296 49.5881L77.1236 48.7128C77.587 48.5583 78.1534 48.5068 78.7713 48.5583C78.8228 48.5583 78.8228 48.5583 78.8743 48.5583C79.4922 48.6098 79.9556 49.1247 80.3161 50.0001C80.5221 50.4635 80.625 50.9784 80.625 51.5448C80.6765 52.0597 80.625 52.8321 80.5221 53.759C80.3161 55.6127 80.5735 56.9515 81.2429 57.8268C81.9123 58.7022 82.4272 59.5775 82.7877 60.5559C83.1481 61.5342 83.3541 62.1006 83.3541 62.3581C83.3541 62.5641 83.2511 62.5641 83.0452 62.3066C83.3026 63.079 83.4571 63.6454 83.4056 64.0058C83.4056 64.2633 83.3541 64.4178 83.3026 64.5722C83.3026 64.5722 83.2511 64.4692 83.1481 64.2633C83.7145 65.2931 83.766 65.7565 83.5601 65.4991Z" fill="#F3AD1C"/>
<path d="M45.8167 54.3254C45.9197 54.1194 46.0226 53.9134 46.0226 53.759L45.8682 53.8104C45.8682 53.8619 45.8167 53.9134 45.8167 53.9649C45.7652 54.1709 45.6622 54.3769 45.5592 54.5828L45.8167 54.3254ZM43.9115 54.2224C43.6025 54.0164 43.3451 53.9134 42.9846 53.9134C43.1906 54.1709 43.448 54.3769 43.757 54.5828C44.0145 54.6858 44.2719 54.7373 44.5294 54.6343C44.3234 54.4798 44.1174 54.3769 43.9115 54.2224ZM44.3234 52.9351H43.963L43.86 52.9866C43.8085 53.1411 43.757 53.2955 43.654 53.3985C43.757 53.45 43.8085 53.553 43.86 53.6045V53.5015C43.9115 53.45 43.963 53.3985 44.0659 53.3985C44.1174 53.3985 44.1689 53.347 44.2719 53.347C44.3234 53.347 44.3749 53.2955 44.3749 53.244C44.3749 53.244 44.4264 53.1925 44.4264 53.1411C44.4264 53.1411 44.4264 53.0896 44.3749 53.0896C44.3749 53.0896 44.3749 53.0381 44.3234 53.0381C44.3749 52.9866 44.3234 52.9351 44.3234 52.9351Z" fill="black"/>
<path d="M52.3561 49.2277C52.3561 48.9187 52.3046 48.5583 52.3046 48.1978C52.3046 47.8374 52.2531 47.477 52.2016 47.065C52.0986 47.0135 52.0472 46.962 51.9442 46.8591C51.6867 46.7046 51.4293 46.5501 51.1203 46.4471C51.0688 46.4471 51.0173 46.3956 50.9658 46.3956C50.8114 46.3441 50.6054 46.2926 50.4509 46.2412C50.3994 46.2412 50.3479 46.1897 50.2964 46.1897C50.1935 46.1382 50.142 46.1382 50.039 46.0867C49.9875 46.0867 49.9875 46.0352 49.936 46.0352C49.8845 46.0352 49.8845 46.0352 49.833 46.0352C49.7815 45.9837 49.73 45.8807 49.6785 45.8292C49.6785 45.8292 49.6785 45.7777 49.627 45.7777C49.4211 45.7262 49.2666 45.7777 49.1636 45.8807C49.1121 45.7777 49.0091 45.6747 48.8547 45.6747C48.7517 45.7262 48.5972 45.7777 48.4942 45.8292C48.3912 45.7777 48.2883 45.7262 48.1853 45.7262C47.9278 45.8807 47.6704 46.0867 47.5159 46.3441C47.3614 46.6531 47.1554 46.962 46.898 47.271C46.8465 47.374 46.7435 47.4255 46.692 47.5284C46.5375 47.6829 46.3316 47.8889 46.1771 48.0434C46.0226 48.1978 45.8681 48.4038 45.7137 48.6098C45.5592 48.9702 45.4562 49.2792 45.3532 49.6396C45.2502 50.0001 45.0443 50.2575 44.8383 50.515C44.5809 50.7209 44.3749 50.9269 44.1689 51.1844C44.0144 51.3388 43.8085 51.4933 43.654 51.5963C43.654 51.5963 43.6025 51.6478 43.6025 51.6993C43.345 51.9052 43.0876 52.1627 42.9331 52.4717C42.8301 52.6261 42.7786 52.8321 42.7786 52.9866C42.7271 53.1411 42.7271 53.2955 42.7786 53.45C42.8301 53.553 42.8816 53.7075 42.8816 53.8619C42.8816 53.9134 42.8816 53.9649 42.9331 53.9649C42.9846 53.9649 43.0361 53.9649 43.0361 53.9134C43.345 53.9134 43.654 54.0679 43.9629 54.2224C44.1689 54.3254 44.3749 54.4798 44.6323 54.5828C44.8898 54.7373 45.1988 54.7373 45.4562 54.6343C45.5077 54.5828 45.5592 54.5828 45.6622 54.5828C45.7652 54.3769 45.8167 54.1709 45.9196 53.9649C45.9196 53.9134 45.9196 53.8619 45.9711 53.8104L46.1256 53.759C46.1256 53.9649 46.0226 54.1709 45.9196 54.3769C46.5375 54.3769 46.9495 54.3254 47.001 54.3769C47.1039 54.3769 47.3099 54.3769 47.5674 54.3769C47.8248 54.3769 48.1338 54.3769 48.4942 54.3769C48.8032 54.3769 49.1121 54.3254 49.4211 54.2739C49.7815 54.2224 50.0905 54.1194 50.3479 53.9649C50.5024 53.9134 50.6054 53.8104 50.7599 53.7075C50.8628 53.6045 50.9658 53.5015 51.0688 53.3985C51.2748 53.1411 51.3778 52.8836 51.4807 52.5746C51.5322 52.2657 51.5322 51.9567 51.5322 51.6478V51.4933L52.4076 50.206C52.4076 49.8456 52.4076 49.5366 52.3561 49.2277ZM44.3749 53.244C44.3749 53.2955 44.3234 53.347 44.2719 53.347C44.2204 53.347 44.1174 53.347 44.1174 53.3985C44.0659 53.3985 43.9629 53.45 43.9629 53.5015V53.6045C43.9115 53.553 43.86 53.5015 43.757 53.45C43.8085 53.2955 43.86 53.1411 43.9629 52.9866L44.0659 52.9351H44.4264C44.4264 52.9351 44.4264 52.9866 44.4779 53.0381C44.4779 53.0381 44.5294 53.0381 44.5294 53.0896C44.5294 53.0896 44.5809 53.1411 44.5809 53.1925C44.4264 53.1925 44.3749 53.244 44.3749 53.244Z" fill="#F3AD1C"/>
<path d="M47.6704 50.0001L48.0308 50.1545C48.1853 50.1545 48.2882 50.103 48.3912 50.0001C48.4942 49.9486 48.5972 49.8456 48.7002 49.6396L48.3912 49.4851C48.1853 49.4336 48.0823 49.4336 47.9793 49.4336C47.8248 49.4336 47.7218 49.4851 47.6704 49.5366C47.5674 49.5881 47.4644 49.7941 47.3099 50.0515C47.3614 50.0515 47.4644 50.0515 47.5159 50.0515C47.5674 50.0001 47.6189 50.0001 47.6704 50.0001Z" fill="black"/>
<path d="M53.6949 44.6449C53.3859 44.4389 53.077 44.3875 52.8195 44.3875C52.5106 44.3875 52.2531 44.4389 52.0472 44.4904C51.7897 44.5419 51.5322 44.6449 51.2233 44.8509C50.9143 45.0568 50.6569 45.2628 50.3994 45.5203C50.1934 45.7777 50.039 45.9837 49.8845 46.1382C49.73 46.2412 49.5755 46.4471 49.5241 46.6016L49.3181 47.5799L49.5755 47.8374C49.7815 47.7344 49.9875 47.6314 50.2449 47.6314C50.3994 47.6314 50.5539 47.5799 50.7084 47.477C50.8113 47.4255 50.9658 47.374 51.1203 47.3225C51.4292 47.168 51.6352 47.065 51.8927 46.962C51.8927 46.962 51.9442 46.962 51.9442 46.9105C51.9957 46.9105 52.0472 46.8591 52.0472 46.8591C52.3561 46.7046 52.5621 46.5501 52.768 46.4471C52.974 46.2926 53.1285 46.0867 53.3344 45.8807C53.5404 45.6233 53.5919 45.3658 53.5919 45.1598C53.5919 44.9539 53.7464 44.7479 53.6949 44.6449ZM51.6352 45.5718C51.3778 45.6747 51.1718 45.7777 50.9143 45.9322C50.7599 46.0352 50.6569 46.1382 50.5024 46.2926C50.3994 46.3441 50.3479 46.4471 50.2449 46.5501C49.9875 46.8076 49.7815 47.065 49.627 47.3225C49.6785 47.1165 49.7815 46.8591 49.9875 46.6016L50.3479 46.2412C50.4509 46.1897 50.5024 46.0867 50.5539 46.0352C50.7599 45.9322 50.8628 45.8292 50.9143 45.7262C51.4807 45.4173 51.9442 45.2113 52.3046 45.1598C52.0986 45.2628 51.8927 45.3658 51.6352 45.5718Z" fill="#F3AD1C"/>
<path d="M51.6352 45.5718C51.8926 45.4173 52.0986 45.2628 52.3561 45.1083C51.9956 45.1598 51.4807 45.3658 50.9658 45.6748C50.9143 45.7777 50.8113 45.8807 50.6054 45.9837C50.4509 46.1382 50.2449 46.3441 50.0389 46.5501C49.833 46.8076 49.73 47.065 49.6785 47.271C49.8845 47.0135 50.0904 46.7561 50.2964 46.4986C50.5539 46.2412 50.7598 46.0352 50.9658 45.9322C51.1718 45.7777 51.3777 45.6233 51.6352 45.5718Z" fill="#4F2212"/>
</svg>
