<svg width="300" height="300" viewBox="0 0 300 300" fill="none" xmlns="http://www.w3.org/2000/svg">
<path d="M290.431 86.1309C285.942 75.0641 275.832 70.8634 272.492 69.4763C258.303 63.582 244.728 68.7925 243.03 69.4763C224.117 77.0654 221.967 95.6975 208.006 96.8074C203.809 97.1401 196.778 93.583 196.762 93.3906C193.25 89.127 180.355 74.5357 158.325 70.758C127.891 65.5398 105.861 85.3895 103.232 87.8398C103.084 88.5671 96.5941 92.3959 92.9825 92.11C79.022 91.0033 76.8716 72.368 57.9633 64.7789C56.2597 64.0951 42.6851 58.8834 28.5007 64.7789C25.1619 66.166 15.0522 70.3655 10.5622 81.4335C5.20999 94.6212 12.2049 106.802 13.1203 108.337L23.3703 95.9529C23.0267 94.4158 21.4894 86.8451 25.9328 81.8607C31.1838 75.9696 41.0446 77.8873 43.4429 78.445C60.69 82.4575 61.6434 102.308 77.1814 104.068C82.5477 104.676 85.9876 102.71 92.1291 105.35C96.7094 107.318 98.7891 110.122 101.553 111.033C102.176 118.942 104.077 125.217 106.222 130.118C114.933 150.021 131.938 157.23 130.993 174.531C130.572 182.232 127.048 183.622 124.587 192.894C120.189 209.454 125.981 225.531 132.273 237.307H162.171C171.978 218.674 172.401 204.669 170.713 195.029C168.538 182.594 163.219 179.566 164.306 169.833C165.937 155.207 179.118 151.556 188.649 135.67C191.462 130.983 194.362 124.546 195.933 115.815C196.389 115.934 196.857 116.005 197.328 116.025C201.359 116.19 203.199 112.478 208.859 110.046C215.002 107.407 218.44 109.372 223.806 108.765C239.344 107.006 240.298 87.1549 257.545 83.1424C259.937 82.5858 269.804 80.667 275.055 86.5581C279.499 91.5425 277.961 99.1132 277.617 100.65L287.867 113.035C288.784 111.501 295.779 99.3186 290.431 86.1309Z" fill="#5A1A1F"/>
<path d="M172.432 126.066C154.25 145.098 154.188 177.609 154.203 179.253C154.296 188.851 156.144 199.236 150.647 202.289C148.553 203.451 145.646 203.41 143.534 202.289C137.699 199.193 139.294 188.591 139.088 177.546C138.969 171.099 138.507 146.216 125.752 128.626C115.442 114.407 102.644 112.83 103.968 106.871C106.142 97.0756 137.361 96.3125 141.756 96.2048C163.955 95.6613 193.004 101.01 193.772 109.856C194.221 115.025 183.331 114.658 172.432 126.066Z" fill="#CB5646"/>
<path d="M45.0464 119.313C48.1326 113.968 43.5923 105.57 34.9054 100.554C26.2184 95.5393 16.6743 95.8069 13.5881 101.152C10.5019 106.497 15.0422 114.896 23.7291 119.911C32.4161 124.926 41.9602 124.659 45.0464 119.313Z" fill="#CB5646" stroke="#5A1A1F" stroke-width="5" stroke-miterlimit="10"/>
<path d="M277.264 124.609C285.951 119.594 290.491 111.195 287.405 105.85C284.319 100.505 274.775 100.237 266.088 105.252C257.401 110.267 252.86 118.666 255.947 124.011C259.033 129.356 268.577 129.624 277.264 124.609Z" fill="#CB5646" stroke="#5A1A1F" stroke-width="5" stroke-miterlimit="10"/>
<path d="M203.727 164.029L207.206 160.27C209.186 158.127 212.172 157.64 213.838 159.189L261.219 203.095C262.89 204.643 262.638 207.66 260.658 209.805L257.185 213.566C255.206 215.707 252.22 216.194 250.553 214.646L203.17 170.74C201.495 169.192 201.748 166.172 203.727 164.029Z" fill="#EAC15E"/>
<path d="M175.481 183.666C202.302 182.79 223.335 160.305 222.458 133.445C221.58 106.584 199.126 85.5191 172.305 86.3947C145.483 87.2704 124.451 109.755 125.328 136.616C126.205 163.476 148.659 184.541 175.481 183.666Z" fill="#EAC15E"/>
<path d="M175.019 169.857C194.205 169.23 209.25 153.146 208.622 133.932C207.995 114.717 191.933 99.6486 172.747 100.275C153.56 100.901 138.515 116.986 139.143 136.2C139.77 155.414 155.832 170.483 175.019 169.857Z" fill="white"/>
</svg>
