<svg width="100" height="100" viewBox="0 0 100 100" fill="none" xmlns="http://www.w3.org/2000/svg">
<path d="M24.6442 58.9645C26.7718 59.4406 43.2284 65.1532 50.61 68.6587C70.5836 78.223 71.5823 79.4781 72.7112 78.8722C73.8836 78.223 74.5783 76.0159 73.3625 75.4533C47.1363 63.249 36.8021 60.0897 25.1652 55.0263C24.1231 54.6368 23.4284 58.7048 24.6442 58.9645Z" fill="#DC7927"/>
<path d="M29.9733 57.4677C29.8514 58.3871 29.6076 59.2581 29.1606 60.0323C29.0387 60.2742 28.8355 60.4677 28.6324 60.6129C28.5105 60.6613 28.4292 60.6613 28.3073 60.6129C27.3321 60.2742 26.1536 59.7903 25.4629 60.0806C24.9346 60.3226 24.447 60.6129 24 61C24.0406 60.4194 24.0406 59.7903 24.0406 59.1613C24.0406 59.1129 24.0813 59.0645 24.0813 59.0645C24.1219 58.9677 24.4063 58.629 25.1784 58.3871C25.5035 58.3387 25.8692 58.3387 26.1943 58.3871C26.3568 58 26.4787 57.6129 26.56 57.2258C26.7632 56.5968 26.8444 55.871 26.7225 55.1935C26.7225 55.0968 26.7632 55.0484 26.8444 55C27.2914 55.0484 29.8514 56.2097 29.9327 56.5968C30.0139 56.9355 30.0139 57.2258 29.9733 57.4677Z" fill="#502110"/>
<path d="M24 59.1708C24 59.7408 24 60.2669 23.9519 60.8368C23.9519 60.9684 23.9519 61.0999 23.9519 61.2753C23.8558 62.2837 23.3749 63.2044 22.5576 63.862C19.7688 66.0103 16.8839 68.0271 13.8548 69.8685C13.7586 69.9562 13.6144 70 13.5182 70C13.0855 70 13.0855 69.43 13.0855 69.0793C13.0855 67.0187 12.8932 65.3965 13.0855 62.9851C13.0855 62.6782 13.2297 62.4152 13.422 62.1521C13.6144 61.9329 13.8548 61.8014 14.1433 61.6699C14.8645 61.2753 19.0957 58.6885 21.6921 57.4609C23.1826 56.7595 23.9038 56.891 24 57.6363C24 58.0747 24 58.6009 24 59.1708Z" fill="#924520"/>
<path d="M20.0088 46.5697C20.0528 46.6988 20.0968 46.8279 20.1408 47L19.9648 46.7418C19.9648 46.8279 19.9648 46.9139 19.9208 47L19.8768 46.8279C19.8328 46.8709 19.8328 46.957 19.7889 47L19.8328 46.6988L19.7889 46.5267L8 30.9931C12.2229 35.1239 16.7097 39.4699 19.261 44.8055L12.0469 22C14.1584 25.1411 17.9413 37.2754 19.173 41.3632C19.6129 42.7831 20.0088 44.2461 20.0528 45.7091L23 27.2926C22.912 33.747 22.912 40.6317 20.0088 46.5697Z" fill="#DC7927"/>
<path d="M45 45C49.3487 40.0286 51.1949 33.3 53 27L45 45Z" fill="#DC7927"/>
<path d="M44.1602 45.8713C44.9116 44.1129 45 42.0971 45 40.2099C44.9558 35.7923 44.6022 31.3747 43.895 27L44.116 45.0135C43.4972 38.6659 40.1381 32.8758 37 27.386L44.1602 45.8713L44.116 46C44.116 45.9571 44.116 45.9571 44.1602 45.9142L44.2044 46C44.1602 46 44.1602 45.9571 44.1602 45.8713Z" fill="#DC7927"/>
<path d="M33 47C35.1622 43.9496 36.0991 39.8361 37 36L33 47Z" fill="#DC7927"/>
<path d="M32.4823 46.9124C32.8764 45.8606 33.0734 44.7649 32.9749 43.6255C32.9749 41.0837 32.7286 38.498 32.2853 36L32.4823 46.4303C32.0883 42.749 29.9703 39.3745 28 36.2191L32.4823 46.9124V47V46.9562L32.5316 47C32.5316 47 32.4823 46.9562 32.4823 46.9124Z" fill="#DC7927"/>
<path d="M14.0511 27L14 26.8929C15.1744 26.4643 15.9403 25.2857 15.8893 24H15.9914C16.0935 25.2857 15.2765 26.5179 14.0511 27Z" fill="#DC7927"/>
<path d="M14 25V24.9298C14.5891 24.6491 14.9733 23.8772 14.9476 23H14.9989C15.0245 23.8772 14.6147 24.7193 14 25Z" fill="#DC7927"/>
<path d="M13.0455 27C12.2727 27 11.5455 26.6667 11 26.0833L11.0909 26C11.7727 26.7917 12.9545 27.0833 13.9545 26.7083L14 26.7917C13.7273 26.9167 13.3636 27 13.0455 27Z" fill="#DC7927"/>
<path d="M12.3636 25C11.8485 25 11.3333 24.6667 11 24.0833L11.0606 24C11.5152 24.7917 12.303 25.0833 12.9697 24.7083L13 24.7917C12.8182 24.9583 12.6061 25 12.3636 25Z" fill="#DC7927"/>
<path d="M51.8636 34C51.5909 34 51.2727 33.96 51 33.88L51.0455 33.8C52.0909 34.12 53.2727 33.8 53.9091 33L54 33.04C53.5 33.68 52.6818 34 51.8636 34Z" fill="#DC7927"/>
<path d="M52.1515 33C51.7879 33 51.3636 32.9583 51 32.875L51.0606 32.7917C52.4545 33.125 53.9697 32.7917 54.8788 32L55 32.0417C54.3333 32.625 53.2424 33 52.1515 33Z" fill="#DC7927"/>
<path d="M52.9091 31C52.5909 31 52.3182 30.9583 52 30.875L52.0455 30.7917C53.0909 31.125 54.2273 30.8333 54.9091 30L55 30.0417C54.5 30.6667 53.7273 31 52.9091 31Z" fill="#DC7927"/>
<path d="M49.9512 34C48.7805 33.8545 48 33.4545 48 33H48.0976C48.0976 33.4364 48.8293 33.8364 50 33.9636L49.9512 34Z" fill="#DC7927"/>
<path d="M50 34C49.4 33.5636 49 32.3636 49 31H49.05C49.05 32.3091 49.425 33.5091 50 33.8909V34Z" fill="#DC7927"/>
<path d="M51 33C49.8293 32.6182 49 31.3636 49 30H49.0976C49.0976 31.3091 49.878 32.5091 51 32.8909V33V33Z" fill="#DC7927"/>
<path d="M51.9512 31C50.7805 30.5636 50 29.3636 50 28H50.0976C50.0976 29.3091 50.8293 30.5091 52 30.8909L51.9512 31Z" fill="#DC7927"/>
<path d="M58 46.342C57.9138 46.8601 57.8277 47.3782 57.7846 48L11 47.1192C26.4656 44.7876 41.1989 44.1659 58 46.342Z" fill="#924520"/>
<path d="M13.0255 24L13 23.8929C13.5872 23.4643 13.9702 22.2857 13.9446 21H13.9957C14.0468 22.2857 13.6383 23.5179 13.0255 24Z" fill="#DC7927"/>
<path d="M12.0455 24C11.2727 24 10.5 23.6522 10 23.0435L10.0909 23C10.7727 23.8261 11.9545 24.1304 12.9545 23.7391L13 23.8261C12.6818 23.9565 12.3636 24 12.0455 24Z" fill="#DC7927"/>
<path d="M13.0521 24L13 23.9286C14.1991 23.6429 14.9812 22.8571 14.8769 22H14.9812C15.1376 22.8571 14.3034 23.7143 13.0521 24Z" fill="#DC7927"/>
<path d="M91.1593 55.1782C90.7673 54.1642 90.2445 52.3125 90.3752 50.8576C90.6801 46.9338 89.8525 45.2585 89.9832 44.1563H90.0268C90.593 38.7776 90.7237 38.6012 89.7218 35.5151C89.7654 35.471 89.809 35.4269 89.8525 35.3828C90.4188 34.6333 91.2464 32.7816 91.1157 31.8558C90.7673 28.9019 91.1157 28.4169 86.5855 27.1825L81.402 25.8157C79.7467 25.3749 78.0479 24.8899 76.3055 25.0221C75.3036 25.1103 74.2582 25.3308 73.2999 25.6394L61.5823 28.8137C60.8854 28.946 60.232 29.2546 59.6657 29.6955C59.1866 30.2686 58.8381 30.974 58.7074 31.6794C58.2718 33.2666 57.9233 34.8978 58.2283 36.485C58.2718 36.7495 58.3589 36.97 58.4461 37.2345C58.0976 38.6012 58.9252 40.1884 58.9252 43.0982C58.9252 44.1563 58.5332 45.1703 58.2283 46.6252C58.1411 47.0661 58.054 47.507 58.0105 48.036C57.9669 48.5651 57.9233 49.0941 57.9233 49.7113C57.9233 51.563 57.1393 53.7674 56.7472 55.5309C56.181 58.1762 55.484 60.6451 56.573 61.4828C57.5313 62.2323 59.0995 61.2624 60.7112 61.7032C64.8493 62.7614 67.6371 64.084 73.9968 63.9958C83.2315 63.9076 83.8413 60.9538 88.023 60.557C93.0759 60.0279 92.2918 58.1321 91.1593 55.1782ZM82.2731 34.7215C80.4872 35.3828 78.6577 35.8678 76.7846 36.1764C75.9134 36.3968 75.0423 36.485 74.1275 36.4409C72.2544 36.3086 70.5992 35.1183 68.7261 34.8537C67.5064 34.6774 66.2868 34.9419 65.0671 34.8097C63.8474 34.6774 61.0596 33.2666 60.7547 32.0321C60.4934 30.974 62.5842 30.6213 63.499 30.0041C64.4137 29.3868 65.5027 29.1664 66.5917 28.9901L74.5195 27.4911C75.5214 27.2706 76.5668 27.1384 77.5687 27.1825C79.7031 27.3588 81.6198 28.7255 83.7542 28.8137C84.364 28.8137 84.9738 28.8137 85.5401 28.9019C89.504 29.6514 86.1499 33.2225 82.2731 34.7215Z" fill="#924520"/>
<path d="M76.314 24.6335C75.5939 24.3466 74.8314 24.1554 74.0689 24.012C73.1794 23.9641 72.2474 24.0598 71.3579 24.2988C67.1218 25.3985 63.733 28.8888 60.6407 32.0923C60.1747 32.5226 59.9629 33.2398 60.0053 33.9092C60.09 34.3395 60.3018 34.722 60.5983 35.0089C62.1233 36.7301 64.3684 37.3517 66.4864 37.8298C70.2565 38.6904 74.1113 39.312 77.9237 38.8339C81.7361 38.3558 85.5486 36.7301 88.2173 33.6223C90.5471 30.897 87.1159 29.367 85.2097 28.841C84.1507 28.5542 79.3216 25.7332 76.314 24.6335Z" fill="#F7B01A"/>
<path d="M59 44C59.0437 44.4467 60.7024 47.33 62.8413 48.9137C64.9365 50.4569 67.381 51.5533 70 52C63.4524 49.8071 61.881 48.1827 59 44Z" fill="#502110"/>
<path d="M58 50C58.0418 50.4648 59.4226 53.5493 61.3473 55.3662C63.2301 57.0986 65.5314 58.3662 68 59C61.8494 56.2535 60.7197 54.4366 58 50Z" fill="#502110"/>
<path d="M85.3083 51.0968C88.782 48.7742 89.4135 46.7419 90 45C87.4737 50.1014 83.8647 52.0507 78 54C78.5865 54 82.3308 53.129 85.3083 51.0968Z" fill="#502110"/>
<path d="M78 59.9981C78.5552 60.0389 82.1423 59.4268 85.1317 57.6313C88.5907 55.591 89.3594 53.6323 90 52C87.2669 56.856 83.7224 58.5699 78 59.9981Z" fill="#502110"/>
<path d="M74.321 46.5966C68.5039 46.7769 65.3716 45.695 63 44.4688C64.2529 45.3344 65.7743 45.9835 67.3852 46.3081C72.9339 47.6785 81.3911 47.0654 86 44C82.5992 45.5147 80.5409 46.4163 74.321 46.5966Z" fill="#502110"/>
</svg>
