<svg width="200" height="200" viewBox="0 0 200 200" fill="none" xmlns="http://www.w3.org/2000/svg">
<path d="M125.281 100.925C125.281 100.925 128.23 104.902 128.407 107.217C128.525 109.532 128.407 111.016 127.817 111.669C127.227 112.322 125.871 113.687 125.281 113.687C124.691 113.687 124.219 112.737 125.281 111.965C126.343 111.194 125.517 109.176 125.517 109.176C125.517 109.176 124.809 113.806 124.278 114.221C123.747 114.637 122.685 114.221 122.98 112.5C123.275 110.778 123.806 108.048 122.036 106.386C122.036 106.386 121.682 108.285 122.449 109.532C122.449 109.532 122.036 111.965 120.738 110.007C119.44 107.988 119.971 106.03 119.971 104.664C119.971 103.299 120.266 100.568 119.853 99.2626C119.44 97.9567 114.544 85.7287 113.954 84.7196C113.364 83.7105 110.768 73.0853 110.768 71.1264C110.768 69.1676 118.614 68.1584 118.614 68.1584C118.614 68.1584 118.083 72.4917 119.617 75.0441C121.151 77.6559 124.16 88.2218 124.278 91.1898C124.514 94.2764 124.632 99.9749 125.281 100.925Z" fill="#994E2E"/>
<path d="M96.0783 138.558C96.0783 138.558 97.0812 143.07 97.0812 144.732C97.0812 146.394 94.9574 152.508 94.9574 154.763C94.9574 157.019 95.8424 163.311 95.5474 165.448C95.2524 167.585 96.1373 168.713 93.7186 169.84C91.3588 170.968 90.5919 175.123 89.235 175.183C88.822 175.183 88.1731 176.192 86.4033 175.361C85.7543 175.064 85.1644 175.658 84.2795 174.886C83.8075 174.47 83.4536 175.48 82.5097 174.827C81.9787 174.471 81.4478 174.292 81.4478 174.292C81.3298 174.649 80.1499 174.53 80.0909 174.174C79.7959 172.334 79.7959 171.265 81.3298 170.256C82.8636 169.188 87.5242 163.845 87.5242 161.708C87.5242 159.571 88.4681 159.987 86.8752 155.179C85.2234 150.371 85.0464 137.846 85.0464 137.846L96.0783 138.558Z" fill="#994E2E"/>
<path d="M108.231 142.417C108.231 142.417 109.411 145.028 109.529 147.64C109.647 150.252 112.832 155.416 112.832 158.444C112.832 161.471 113.245 165.448 112.832 166.873C112.419 168.297 112.773 169.484 113.009 172.155C113.245 174.767 111.535 176.489 112.066 178.329C112.596 180.169 114.838 180.05 114.956 179.635C114.956 179.635 116.667 179.991 116.785 179.338C116.785 179.338 118.201 179.991 119.145 179.575C119.145 179.575 120.856 179.1 120.797 178.507C120.797 178.507 121.918 178.744 121.918 177.676C121.918 176.607 122.272 173.58 122.272 173.165C122.272 172.749 122.154 168.772 121.623 166.754C121.092 164.736 119.971 161.708 120.443 154.704C120.915 147.7 119.322 143.723 118.201 139.33C117.021 134.997 107.405 139.983 108.231 142.417Z" fill="#994E2E"/>
<path d="M94.2494 25.123C94.2494 25.123 101.683 24.6481 106.048 29.6343C106.52 30.1685 105.871 30.1092 106.225 30.7621C106.225 30.7621 107.051 35.2734 108.054 36.4606C109.057 37.6478 108.585 38.2413 109.175 39.9628C109.765 41.6842 110.296 42.6339 110.591 43.643C110.827 44.6521 110.827 46.7297 110.296 49.1041C109.765 51.5378 109.352 50.7661 108.644 52.4875C107.936 54.2089 107.582 55.2774 103.098 55.2774C103.098 55.2774 98.9689 54.8619 97.671 54.8619C96.3731 54.8619 92.8925 52.6062 92.5975 51.8346L91.8306 51.1816C91.8306 51.1816 90.7687 52.8437 88.5859 50.6474C86.8161 48.8666 84.2203 48.3324 83.4534 43.8211C82.6865 39.3692 81.6836 38.0633 82.9815 35.4515C84.2793 32.7803 85.8722 29.6343 87.1701 28.6252C88.4089 27.6161 90.0608 25.6572 94.2494 25.123Z" fill="#994E2E"/>
<path d="M107.582 33.849C107.582 33.2554 107.405 32.8399 107.287 32.6618C107.287 32.4244 107.287 32.1276 107.228 31.7714C107.11 30.9404 106.52 31.1185 106.461 30.2281C106.402 29.3377 105.989 28.9815 105.694 28.8628C105.399 28.7441 104.75 27.3788 104.337 26.9633C103.865 26.4885 102.45 26.3697 101.978 25.5981C101.506 24.8264 100.857 23.8767 100.857 24.3515C100.798 24.8264 98.556 24.1141 97.7301 24.1734L96.9041 24.2328C96.9041 24.2328 95.4293 24.589 95.6063 24.0547C95.7242 23.5205 94.8983 24.589 94.4264 24.6483C93.9544 24.6483 93.6595 24.7077 92.8925 24.7077C92.4206 24.7077 91.6537 24.589 91.1227 24.589C91.1817 24.3515 91.2407 24.0547 91.1817 23.7579C90.8867 22.7488 89.8248 21.9772 88.7629 22.274C88.527 22.3333 88.291 22.452 88.055 22.6301C87.878 22.3333 87.642 22.0959 87.3471 21.9178C86.6981 21.5023 85.7542 21.6804 85.2233 22.2146C84.6923 22.7488 84.5154 23.6392 84.7513 24.3515C84.3384 24.1734 83.8664 24.0547 83.3945 24.2328C82.3916 24.589 81.7426 25.7761 82.1556 26.7852C82.3326 27.2601 82.7455 27.6756 83.1585 27.9724C83.1585 28.0318 83.1585 28.0911 83.1585 28.0911C82.9815 28.8035 83.3355 29.6938 84.0434 30.05C84.1614 30.1094 84.3384 30.1687 84.4564 30.2281C84.3384 30.2874 84.3384 30.4062 84.2794 30.4655C83.6894 31.2965 83.7484 31.2372 83.5125 31.5933C83.2765 31.9495 83.3945 34.7987 82.7455 34.8581C82.1556 34.9174 82.2736 35.0362 82.2146 36.0453C82.1556 37.0544 81.0347 36.3421 81.6246 38.1228C82.2146 39.8442 82.1556 40.2598 82.2146 41.3876C82.2736 42.456 82.8635 43.4058 82.9225 44.4742C82.9815 45.4834 82.4506 44.7117 83.6304 46.4925C84.8103 48.2732 86.4032 49.8759 86.8751 50.2321C87.2881 50.6476 86.9931 51.1225 86.4622 51.1225C85.9312 51.1225 87.2291 52.3096 87.3471 51.7754C87.4651 51.2412 88.586 50.707 88.586 50.707L88.114 50.2321C88.114 50.2321 87.0521 48.9855 86.6391 47.6796C86.2262 46.3737 85.4003 45.7802 86.9931 44.6523C87.878 44.0587 88.8219 45.3646 89.2349 45.2459C89.6478 45.1272 89.4119 44.7117 89.8248 45.1866C90.1788 45.6614 91.1227 45.1272 91.1227 45.1272C90.7097 45.1272 90.3558 44.593 90.0018 43.7619C89.6478 42.8716 90.7687 41.625 90.4148 41.4469C90.0608 41.2689 90.2968 39.4287 90.8277 39.6068C91.3587 39.7849 91.6537 40.8533 91.6537 40.8533C91.7716 39.963 90.7687 38.7758 90.7097 37.5886C90.6507 36.4608 91.5357 35.1549 92.0076 35.7485C92.5976 36.5795 93.0695 34.4426 93.2465 33.3147C93.3645 32.2463 95.7243 32.0088 96.9631 31.4153C98.202 30.7623 98.556 29.8719 99.3819 29.6345C100.208 29.397 100.444 29.7532 101.152 29.5158C101.447 29.4564 103.57 31.3559 103.688 30.4062C103.806 29.4564 104.632 29.6345 105.163 29.8126C105.694 29.9906 106.048 30.2874 106.107 30.6436C106.107 30.881 106.579 32.8992 106.815 33.4335C106.933 33.7303 107.051 34.2645 107.169 34.5613C107.287 34.8581 107.405 34.9768 107.641 34.68C107.877 34.5019 107.582 34.6206 107.582 33.849Z" fill="#502313"/>
<path d="M88.4682 29.4563C88.3502 29.6937 88.1142 29.8718 87.8193 29.9312C87.5243 29.9312 87.2883 29.8125 87.1113 29.575C87.1113 29.575 87.5833 29.8718 87.8783 29.8125C88.2322 29.6937 88.4682 29.4563 88.4682 29.4563Z" fill="#924621"/>
<path d="M85.8135 24.2921C85.8725 23.9953 86.0495 23.7579 86.2854 23.6985C86.5214 23.6392 86.8754 23.6985 87.0524 23.8766C87.0524 23.8766 86.5214 23.6985 86.2264 23.8766C86.0495 23.9953 85.8135 24.2921 85.8135 24.2921Z" fill="#924621"/>
<path d="M88.9988 24.3513C89.2348 24.47 89.3528 24.7668 89.3528 25.0636C89.3528 25.3604 89.1168 25.5979 88.8809 25.7166C88.8809 25.7166 89.2348 25.3011 89.2348 24.9449C89.1758 24.6481 88.9988 24.3513 88.9988 24.3513Z" fill="#924621"/>
<path d="M84.1616 27.26C83.9256 27.0819 83.8666 26.7851 83.9256 26.4883C83.9846 26.2509 84.2205 26.0135 84.5155 25.9541C84.5155 25.9541 84.0436 26.3103 84.0436 26.6071C84.0436 26.9632 84.1616 27.26 84.1616 27.26Z" fill="#924621"/>
<path d="M87.4063 27.8536C87.1113 27.913 86.8163 27.7943 86.6984 27.5568C86.5214 27.3194 86.5214 27.0226 86.6394 26.7852C86.6394 26.7852 86.6394 27.3787 86.8753 27.5568C87.0523 27.7349 87.4063 27.8536 87.4063 27.8536Z" fill="#924621"/>
<path d="M106.048 40.7939C106.048 40.7939 105.281 39.7848 106.52 39.1912C107.759 38.5977 107.995 38.7757 108.349 38.8351C108.703 38.8945 109.057 38.5977 109.057 38.5977C109.057 38.5977 108.88 39.3693 108.349 39.3693C108.349 39.3693 107.936 38.5977 106.579 39.4287C106.579 39.4287 105.812 39.6661 106.048 40.7939Z" fill="#421D13"/>
<path d="M97.7891 43.643C97.7891 43.643 98.497 42.6339 100.149 41.7435C100.149 41.7435 101.211 41.2687 101.27 41.0906C101.27 41.0906 101.506 41.3874 101.388 41.6842C101.388 41.6842 101.565 41.6842 101.86 42.5746C101.86 42.5746 101.506 41.4467 100.621 41.7435C100.621 41.7435 100.208 41.6248 97.7891 43.643Z" fill="#421D13"/>
<path d="M103.394 45.0083C103.394 45.0083 103.04 46.2548 104.515 46.0174C104.515 46.0174 103.335 46.0768 103.394 45.0083Z" fill="#502313"/>
<path d="M107.346 45.0678C107.346 45.0678 108.29 44.3555 107.7 43.6432C107.228 43.0496 106.521 42.5154 106.521 42.5154C106.521 42.5154 107.641 43.5838 107.759 43.9994C107.936 44.4149 107.346 45.0678 107.346 45.0678Z" fill="#502313"/>
<path d="M106.874 44.9491C106.874 44.9491 107.228 44.2962 107.582 44.2368C107.582 44.2368 107.582 44.2962 106.874 44.9491Z" fill="#502313"/>
<path d="M105.93 45.1865C105.93 45.1865 105.282 45.0084 105.223 45.0678C105.105 45.0678 104.633 45.3646 104.692 45.602C104.692 45.602 105.164 45.1865 105.341 45.2459C105.282 45.1865 105.459 45.1271 105.93 45.1865Z" fill="#502313"/>
<path d="M106.816 39.3099C106.816 39.3099 106.521 40.7346 107.287 40.4971C107.582 40.3784 107.877 40.319 107.995 40.141C108.231 39.7848 108.113 39.2506 108.054 39.1319C107.877 38.8944 107.052 38.8351 106.816 39.3099Z" fill="#421D13"/>
<path d="M99.3231 42.3965C99.3231 42.3965 99.2051 43.5243 100.149 43.5837C100.149 43.5837 100.739 43.3462 101.211 43.0494C101.683 42.7526 100.916 41.7435 100.739 41.8029C100.562 41.7435 100.09 41.6248 99.3231 42.3965Z" fill="#421D13"/>
<path d="M103.394 49.4603C103.394 49.4603 106.225 51.2411 107.346 50.4694C108.467 49.6977 108.762 48.9854 108.526 48.2138C108.29 47.4421 106.284 48.5106 106.284 48.5106C106.284 48.5106 103.512 49.4603 103.394 49.4603Z" fill="#502313"/>
<path d="M103.04 49.0449C103.04 49.0449 104.042 49.5791 104.691 48.6294C105.222 47.8577 105.93 47.1454 107.169 47.1454C107.169 47.1454 107.405 47.2047 107.641 46.8486C107.877 46.4924 108.762 46.7892 108.762 47.6796C108.762 47.6796 108.703 47.9764 108.349 48.2732C108.349 48.2732 108.349 47.8577 108.172 47.9764C107.995 48.0951 107.169 48.6294 106.52 48.6887C106.107 48.6887 103.806 50.5882 103.04 49.0449Z" fill="#502313"/>
<path d="M90.1197 49.2822C90.1197 49.2822 91.7715 49.5197 91.1816 48.6886C91.1816 48.6886 90.2377 48.3325 90.1197 47.5015C90.0017 46.6704 87.7599 44.2367 86.875 46.0175C86.875 46.0175 87.7009 44.949 89.2938 46.5517C89.2938 46.5517 89.2348 47.5015 90.2377 48.3919C91.4175 49.3416 90.1197 49.2822 90.1197 49.2822Z" fill="#502313"/>
<path d="M105.458 37.5884C105.458 37.5884 105.34 36.7574 105.871 36.4012C106.402 36.0451 107.582 35.7483 107.582 35.7483C107.582 35.7483 107.936 36.5793 108.29 36.8168C108.29 36.8168 107.464 36.5793 106.815 36.9355C106.166 37.2916 105.93 37.5884 105.93 37.5884C105.93 37.5884 105.694 37.8259 105.458 37.5884Z" fill="#502313"/>
<path d="M95.3706 43.0496C95.3706 43.0496 96.8455 41.8031 97.0224 41.2688C97.1404 40.7346 98.3203 39.7848 98.9693 39.7255C99.6182 39.6661 101.093 38.7757 101.034 38.5977C100.975 38.4196 100.562 37.8854 100.149 38.1228C99.7362 38.3602 99.0282 38.5977 98.7923 38.7164C98.5563 38.7757 97.1404 39.6068 96.6095 40.0816C96.0195 40.4972 95.3706 43.0496 95.3706 43.0496Z" fill="#502313"/>
<path d="M100.326 49.0447C100.326 49.0447 100.385 49.9351 100.739 50.2912C100.739 50.2912 99.7951 49.5195 100.326 49.0447Z" fill="#824123"/>
<path d="M115.841 103.18C115.841 101.696 114.897 97.5411 114.897 95.1668C114.897 92.7924 114.661 91.0116 114.189 88.9934C113.717 86.9159 113.422 84.7789 113.422 83.7105C113.422 82.642 111.712 74.7473 111.712 73.382C111.712 73.382 119.204 72.3729 119.204 71.898C119.204 71.4232 118.083 61.807 114.543 59.3139C111.004 56.8208 107.818 56.2272 105.753 55.6336C104.986 55.3962 104.455 55.2181 104.101 55.0401C104.101 55.0401 104.101 54.9807 104.16 54.9807C105.694 52.8438 88.5269 48.6293 89.8838 51.4192C89.8838 51.4192 91.2996 51.7159 91.8896 52.7844C91.8306 52.7251 91.8306 52.7251 91.8306 52.7251C91.8306 52.7251 92.3615 59.3733 82.6275 60.9166C82.6275 60.9166 77.7309 60.9166 77.082 71.7793C77.082 71.7793 75.4302 79.7334 74.5453 81.5142C73.6603 83.295 72.1855 91.2491 72.3035 93.6234C72.4215 95.9978 71.8905 98.3128 71.5366 99.4406C71.1826 100.568 71.1236 102.349 71.5366 102.883C71.9495 103.418 71.3596 105.851 75.0762 105.792C75.0762 105.792 75.6072 105.792 75.6072 105.258C75.6072 105.258 78.4389 105.673 78.1439 104.664C78.1439 104.664 80.0317 104.308 79.6188 103.121C79.6188 103.121 81.8015 102.824 80.7986 101.637L79.7957 101.459C79.7957 101.459 79.9137 98.0754 79.2058 96.6508C78.5569 95.2261 77.7309 95.1074 78.3799 93.9202C78.9698 92.7331 81.6836 86.6784 81.8015 85.1945C81.9195 83.7105 83.7484 76.4093 83.8663 76.2906C83.9843 76.1125 84.2203 77.6559 84.2203 78.2495C84.2203 78.843 83.8073 79.3773 84.2203 80.3864C84.6333 81.3955 83.9253 81.6923 84.3973 83.0575C84.8692 84.4228 83.8073 83.8886 83.8073 85.3132C83.8073 86.7378 82.8044 87.3314 83.3354 88.5186C83.9253 89.7058 83.9253 90.7742 83.6894 91.2491C83.4534 91.724 82.9814 93.6828 83.0994 95.5823C83.2174 97.4818 83.0404 98.847 83.0404 100.331V103.418C83.0404 104.249 82.3915 104.249 82.4505 106.386C82.5685 108.463 82.2735 113.746 82.0375 115.527C81.8015 117.308 80.3857 129.417 80.7986 131.91C81.2116 134.403 78.7928 135.294 80.7986 137.43C82.8044 139.567 91.2406 130.367 91.2406 130.367C91.2406 130.367 119.381 144.732 120.089 141.407C120.797 138.083 120.797 134.522 120.797 131.079C120.856 127.755 115.841 104.724 115.841 103.18Z" fill="#994E2E"/>
<path d="M77.7903 99.1439L77.3184 97.1851C77.3184 97.1851 78.2623 98.491 78.2033 99.8562L77.7903 99.1439Z" fill="#994E2E"/>
<path d="M103.63 55.2182C103.63 55.2182 96.2553 54.6247 95.5474 53.4968C95.5474 53.4968 96.4913 55.5744 103.63 55.2182Z" fill="#824123"/>
<path d="M96.0785 61.154C88.4682 61.3914 90.887 55.6336 89.9431 57.2956C89.1172 58.7202 87.1704 60.2042 82.6868 60.9165C82.6868 60.9165 76.4924 59.8481 75.6665 76.9435C75.6665 76.9435 83.2178 80.0301 83.3357 78.6055C83.4537 77.1809 83.8077 76.5873 83.9257 76.4092C84.0437 76.2312 84.2797 77.7745 84.2797 78.3681C84.2797 78.9617 83.8667 79.4959 84.2797 80.505C84.6926 81.5141 83.9847 81.8109 84.4566 83.1762C84.9286 84.5414 83.8667 84.0072 83.8667 85.4318C83.8667 86.8564 82.8638 87.45 83.3947 88.6372C83.9847 89.8244 83.9847 90.8928 83.7487 91.3677C83.5127 91.8426 83.0408 93.8014 83.1588 95.7009C83.2768 97.6004 83.0998 98.9657 83.0998 100.45V103.536C83.0998 104.367 82.4508 104.367 82.5098 106.445C82.6278 108.522 82.3328 113.805 82.0969 115.586C81.8609 117.426 80.445 129.476 80.858 131.969C81.271 134.462 78.8522 135.353 80.858 137.49C82.8638 139.627 84.9876 139.864 84.9876 139.864C84.9876 139.864 119.44 144.791 120.089 141.467C120.738 138.143 120.797 134.581 120.797 131.138C120.797 127.695 115.783 104.664 115.783 103.18C115.783 101.696 114.839 97.5411 114.839 95.1667C114.839 92.7923 114.603 91.0709 114.131 88.9934C113.659 86.9158 113.364 84.7789 113.364 83.7104C113.364 82.6419 111.653 74.7472 111.653 73.3819C111.653 73.3819 119.204 72.3728 119.204 71.8979C119.204 71.4231 118.083 61.8069 114.544 59.3138C111.004 56.8207 107.7 56.4646 105.754 55.6336C104.633 55.1587 104.869 60.8572 96.0785 61.154Z" fill="#F16C57"/>
<path d="M120.738 131.198C120.738 134.64 120.738 138.202 120.03 141.526C119.794 142.595 116.018 142.832 110.945 142.595C100.562 142.179 84.9283 139.923 84.9283 139.923C84.9283 139.923 84.2794 139.864 83.3945 139.449C82.6276 139.092 81.6836 138.558 80.7987 137.549C79.3829 136.006 80.2088 135.115 80.6807 133.809C80.8577 133.275 80.9757 132.741 80.7987 132.029C80.4448 130.01 81.3297 121.641 81.8016 117.604C81.9196 116.655 81.9786 116.002 82.0376 115.646C82.2736 113.865 82.5686 108.582 82.4506 106.504C82.3916 105.851 82.4506 105.436 82.5096 105.08C82.6276 104.308 82.9815 104.13 82.9815 103.536V100.45C82.9815 98.9657 83.1585 97.6004 83.0405 95.7009C83.0405 95.2854 83.0405 94.8699 83.0405 94.4544C83.0995 93.5047 83.2765 92.6143 83.3945 92.0207C83.5125 91.6645 83.5715 91.4271 83.6305 91.3084C83.8664 90.8929 83.8664 89.9431 83.3945 88.8153C83.3945 88.7559 83.3355 88.6966 83.2765 88.5778C83.1585 88.3404 83.0995 88.1623 83.0995 87.9249V87.6281C83.2175 86.9158 83.6895 86.3222 83.6895 85.3131C83.6895 83.8885 84.7513 84.4227 84.2794 83.0575C83.8074 81.6922 84.5154 81.3954 84.1024 80.3863C83.6895 79.3772 84.1024 78.843 84.1024 78.2494C84.1024 77.9526 84.0434 77.5371 83.9844 77.1215C83.9254 76.6467 83.8074 76.1718 83.7484 76.2905C83.6895 76.4092 83.5125 76.6467 83.3945 77.1215C83.2765 77.4777 83.2175 77.8932 83.1585 78.4868C83.0405 79.9708 75.4893 76.8248 75.4893 76.8248C75.6072 73.56 76.0202 70.9482 76.4922 68.8706C76.9051 66.9711 77.4361 65.5465 78.026 64.4187C79.5599 61.3914 81.3297 60.8572 82.1556 60.7978C82.4506 60.7978 82.5686 60.7978 82.5686 60.7978C87.0521 60.0855 88.9989 58.5422 89.8248 57.1769C90.7688 55.5149 88.35 61.2727 95.9602 61.0352C99.6769 60.9165 101.801 59.7887 103.04 58.6015C104.809 56.9988 104.986 55.2181 105.694 55.5149C107.641 56.3459 110.945 56.6427 114.484 59.1951C118.024 61.6882 119.145 71.3637 119.145 71.7792C119.145 72.2541 111.653 73.2632 111.653 73.2632C111.653 74.2723 112.597 78.9617 113.069 81.6922C113.246 82.6419 113.364 83.3542 113.364 83.5917C113.364 84.6008 113.717 86.7971 114.13 88.8746C114.602 90.9522 114.838 92.6736 114.838 95.048C114.838 96.4132 115.133 98.4315 115.369 100.094C115.546 101.34 115.723 102.409 115.723 103.061C115.723 104.011 117.847 114.162 119.322 122.056C120.148 126.449 120.738 130.01 120.738 131.198Z" fill="#F16C57"/>
<path d="M82.2147 76.6469C82.2147 76.9437 82.4507 77.1811 82.7457 77.1811H88.0551V82.4047C88.0551 82.7015 88.2911 82.9389 88.6451 82.9389H100.09C100.385 82.9389 100.621 82.7015 100.621 82.4047V77.1811H105.812C106.107 77.1811 106.343 76.9437 106.343 76.6469V71.4233H111.535C111.83 71.4233 112.125 71.1858 112.125 70.8297V65.0718C112.125 64.7751 111.889 64.5376 111.535 64.5376H106.343V59.314C106.343 59.0172 106.107 58.7798 105.812 58.7798H103.099C101.801 59.967 99.736 61.0354 96.0194 61.2135C88.4091 61.4509 90.8279 55.6931 89.884 57.3552C89.058 58.7798 87.1112 60.2638 82.6277 60.9761C82.6277 60.9761 82.5097 60.9761 82.2147 60.9761V64.597H78.0851C77.4952 65.7248 77.0232 67.1494 76.5513 69.0489V70.8297C76.5513 71.1265 76.7872 71.4233 77.0822 71.4233H82.1557L82.2147 76.6469Z" fill="#F1572B"/>
<path d="M119.322 122.235H117.257C116.962 122.235 116.726 122.472 116.726 122.769V127.992H111.535C111.24 127.992 111.004 128.23 111.004 128.527V133.75H105.812C105.517 133.75 105.281 133.988 105.281 134.285V140.042C105.281 140.339 105.517 140.577 105.812 140.577H111.004V142.535C116.077 142.773 119.853 142.535 120.089 141.467C120.797 138.143 120.797 134.581 120.797 131.138C120.738 130.011 120.148 126.449 119.322 122.235Z" fill="#F1572B"/>
<path d="M111.004 82.4046V87.6282H105.812C105.517 87.6282 105.281 87.8657 105.281 88.1625V93.9203C105.281 94.2171 105.517 94.4545 105.812 94.4545H111.004V99.6781C111.004 99.9749 111.24 100.212 111.535 100.212H115.369C115.133 98.4909 114.838 96.5321 114.838 95.1668C114.838 92.7331 114.602 91.071 114.13 88.9935C113.658 86.9159 113.363 84.779 113.363 83.7105C113.363 83.4731 113.245 82.7608 113.068 81.811H111.535C111.24 81.8704 111.004 82.1078 111.004 82.4046Z" fill="#F1572B"/>
<path d="M106.343 122.769V117.545H111.535C111.83 117.545 112.125 117.308 112.125 117.011V111.253C112.125 110.956 111.889 110.719 111.535 110.719H106.343V105.495C106.343 105.198 106.107 104.961 105.812 104.961H100.621V99.7374C100.621 99.4406 100.385 99.2031 100.09 99.2031H88.586C88.291 99.2031 87.9961 99.4406 87.9961 99.7374V104.961H82.8046C82.7456 104.961 82.6866 104.961 82.6276 105.02C82.5686 105.02 82.5096 105.08 82.4506 105.139C82.3916 105.495 82.3326 105.911 82.3916 106.564C82.5096 108.641 82.2146 113.924 81.9787 115.705C81.9197 116.061 81.8607 116.714 81.7427 117.664H82.2736V122.887C82.2736 123.184 82.5096 123.481 82.8046 123.481H87.9961V128.705C87.9961 129.001 88.232 129.239 88.586 129.239H100.031C100.326 129.239 100.562 129.001 100.562 128.705V123.481H105.753C106.107 123.362 106.343 123.125 106.343 122.769Z" fill="#F1572B"/>
<path d="M82.8634 133.81H80.6216C80.2087 135.115 79.3238 136.006 80.7396 137.549C81.6835 138.499 82.6274 139.093 83.3354 139.449V134.344C83.3944 134.047 83.1584 133.81 82.8634 133.81Z" fill="#F1572B"/>
</svg>
