<svg width="300" height="300" viewBox="0 0 300 300" fill="none" xmlns="http://www.w3.org/2000/svg">
<g clip-path="url(#clip0_569_7822)">
<path d="M117.797 126.938V144H115.535V126.938H117.797Z" fill="#333333" fill-opacity="0.38"/>
<path d="M122.625 126.938H124.816L130.406 140.848L135.984 126.938H138.188L131.25 144H129.539L122.625 126.938ZM121.91 126.938H123.844L124.16 137.344V144H121.91V126.938ZM136.957 126.938H138.891V144H136.641V137.344L136.957 126.938Z" fill="#333333" fill-opacity="0.38"/>
<path d="M149.391 128.449L143.742 144H141.434L147.938 126.938H149.426L149.391 128.449ZM154.125 144L148.465 128.449L148.43 126.938H149.918L156.445 144H154.125ZM153.832 137.684V139.535H144.246V137.684H153.832Z" fill="#333333" fill-opacity="0.38"/>
<path d="M171.199 135.504V141.75C170.988 142.062 170.652 142.414 170.191 142.805C169.73 143.188 169.094 143.523 168.281 143.812C167.477 144.094 166.438 144.234 165.164 144.234C164.125 144.234 163.168 144.055 162.293 143.695C161.426 143.328 160.672 142.797 160.031 142.102C159.398 141.398 158.906 140.547 158.555 139.547C158.211 138.539 158.039 137.398 158.039 136.125V134.801C158.039 133.527 158.188 132.391 158.484 131.391C158.789 130.391 159.234 129.543 159.82 128.848C160.406 128.145 161.125 127.613 161.977 127.254C162.828 126.887 163.805 126.703 164.906 126.703C166.211 126.703 167.301 126.93 168.176 127.383C169.059 127.828 169.746 128.445 170.238 129.234C170.738 130.023 171.059 130.922 171.199 131.93H168.938C168.836 131.312 168.633 130.75 168.328 130.242C168.031 129.734 167.605 129.328 167.051 129.023C166.496 128.711 165.781 128.555 164.906 128.555C164.117 128.555 163.434 128.699 162.855 128.988C162.277 129.277 161.801 129.691 161.426 130.23C161.051 130.77 160.77 131.422 160.582 132.188C160.402 132.953 160.312 133.816 160.312 134.777V136.125C160.312 137.109 160.426 137.988 160.652 138.762C160.887 139.535 161.219 140.195 161.648 140.742C162.078 141.281 162.59 141.691 163.184 141.973C163.785 142.254 164.449 142.395 165.176 142.395C165.98 142.395 166.633 142.328 167.133 142.195C167.633 142.055 168.023 141.891 168.305 141.703C168.586 141.508 168.801 141.324 168.949 141.152V137.332H165V135.504H171.199Z" fill="#333333" fill-opacity="0.38"/>
<path d="M185.789 142.16V144H176.754V142.16H185.789ZM177.211 126.938V144H174.949V126.938H177.211ZM184.594 134.273V136.113H176.754V134.273H184.594ZM185.672 126.938V128.789H176.754V126.938H185.672Z" fill="#333333" fill-opacity="0.38"/>
<path d="M104.309 170.16V172H95.2734V170.16H104.309ZM95.7305 154.938V172H93.4688V154.938H95.7305ZM103.113 162.273V164.113H95.2734V162.273H103.113ZM104.191 154.938V156.789H95.2734V154.938H104.191Z" fill="#333333" fill-opacity="0.38"/>
<path d="M108.574 154.938L112.676 161.477L116.777 154.938H119.414L114.023 163.387L119.543 172H116.883L112.676 165.332L108.469 172H105.809L111.328 163.387L105.938 154.938H108.574Z" fill="#333333" fill-opacity="0.38"/>
<path d="M132.152 166.574H134.402C134.285 167.652 133.977 168.617 133.477 169.469C132.977 170.32 132.27 170.996 131.355 171.496C130.441 171.988 129.301 172.234 127.934 172.234C126.934 172.234 126.023 172.047 125.203 171.672C124.391 171.297 123.691 170.766 123.105 170.078C122.52 169.383 122.066 168.551 121.746 167.582C121.434 166.605 121.277 165.52 121.277 164.324V162.625C121.277 161.43 121.434 160.348 121.746 159.379C122.066 158.402 122.523 157.566 123.117 156.871C123.719 156.176 124.441 155.641 125.285 155.266C126.129 154.891 127.078 154.703 128.133 154.703C129.422 154.703 130.512 154.945 131.402 155.43C132.293 155.914 132.984 156.586 133.477 157.445C133.977 158.297 134.285 159.285 134.402 160.41H132.152C132.043 159.613 131.84 158.93 131.543 158.359C131.246 157.781 130.824 157.336 130.277 157.023C129.73 156.711 129.016 156.555 128.133 156.555C127.375 156.555 126.707 156.699 126.129 156.988C125.559 157.277 125.078 157.688 124.688 158.219C124.305 158.75 124.016 159.387 123.82 160.129C123.625 160.871 123.527 161.695 123.527 162.602V164.324C123.527 165.16 123.613 165.945 123.785 166.68C123.965 167.414 124.234 168.059 124.594 168.613C124.953 169.168 125.41 169.605 125.965 169.926C126.52 170.238 127.176 170.395 127.934 170.395C128.895 170.395 129.66 170.242 130.23 169.938C130.801 169.633 131.23 169.195 131.52 168.625C131.816 168.055 132.027 167.371 132.152 166.574Z" fill="#333333" fill-opacity="0.38"/>
<path d="M147.832 170.16V172H139.301V170.16H147.832ZM139.746 154.938V172H137.484V154.938H139.746Z" fill="#333333" fill-opacity="0.38"/>
<path d="M159.551 154.938H161.801V166.48C161.801 167.762 161.516 168.828 160.945 169.68C160.375 170.531 159.617 171.172 158.672 171.602C157.734 172.023 156.715 172.234 155.613 172.234C154.457 172.234 153.41 172.023 152.473 171.602C151.543 171.172 150.805 170.531 150.258 169.68C149.719 168.828 149.449 167.762 149.449 166.48V154.938H151.688V166.48C151.688 167.371 151.852 168.105 152.18 168.684C152.508 169.262 152.965 169.691 153.551 169.973C154.145 170.254 154.832 170.395 155.613 170.395C156.402 170.395 157.09 170.254 157.676 169.973C158.27 169.691 158.73 169.262 159.059 168.684C159.387 168.105 159.551 167.371 159.551 166.48V154.938Z" fill="#333333" fill-opacity="0.38"/>
<path d="M169.969 172H166.406L166.43 170.16H169.969C171.188 170.16 172.203 169.906 173.016 169.398C173.828 168.883 174.438 168.164 174.844 167.242C175.258 166.312 175.465 165.227 175.465 163.984V162.941C175.465 161.965 175.348 161.098 175.113 160.34C174.879 159.574 174.535 158.93 174.082 158.406C173.629 157.875 173.074 157.473 172.418 157.199C171.77 156.926 171.023 156.789 170.18 156.789H166.336V154.938H170.18C171.297 154.938 172.316 155.125 173.238 155.5C174.16 155.867 174.953 156.402 175.617 157.105C176.289 157.801 176.805 158.645 177.164 159.637C177.523 160.621 177.703 161.73 177.703 162.965V163.984C177.703 165.219 177.523 166.332 177.164 167.324C176.805 168.309 176.285 169.148 175.605 169.844C174.934 170.539 174.121 171.074 173.168 171.449C172.223 171.816 171.156 172 169.969 172ZM167.613 154.938V172H165.352V154.938H167.613Z" fill="#333333" fill-opacity="0.38"/>
<path d="M191.941 170.16V172H182.906V170.16H191.941ZM183.363 154.938V172H181.102V154.938H183.363ZM190.746 162.273V164.113H182.906V162.273H190.746ZM191.824 154.938V156.789H182.906V154.938H191.824Z" fill="#333333" fill-opacity="0.38"/>
<path d="M199.359 172H195.797L195.82 170.16H199.359C200.578 170.16 201.594 169.906 202.406 169.398C203.219 168.883 203.828 168.164 204.234 167.242C204.648 166.312 204.855 165.227 204.855 163.984V162.941C204.855 161.965 204.738 161.098 204.504 160.34C204.27 159.574 203.926 158.93 203.473 158.406C203.02 157.875 202.465 157.473 201.809 157.199C201.16 156.926 200.414 156.789 199.57 156.789H195.727V154.938H199.57C200.688 154.938 201.707 155.125 202.629 155.5C203.551 155.867 204.344 156.402 205.008 157.105C205.68 157.801 206.195 158.645 206.555 159.637C206.914 160.621 207.094 161.73 207.094 162.965V163.984C207.094 165.219 206.914 166.332 206.555 167.324C206.195 168.309 205.676 169.148 204.996 169.844C204.324 170.539 203.512 171.074 202.559 171.449C201.613 171.816 200.547 172 199.359 172ZM197.004 154.938V172H194.742V154.938H197.004Z" fill="#333333" fill-opacity="0.38"/>
<path fill-rule="evenodd" clip-rule="evenodd" d="M-0.000396729 7.55191e-05L105 105L105.707 104.293L0.706696 -0.707031L-0.000396729 7.55191e-05ZM193.999 194L299.999 300L300.707 299.293L194.707 193.293L193.999 194ZM0 300L106 194L106.707 194.707L0.707123 300.707L0 300ZM300 6.10352e-05L195 105L195.707 105.707L300.707 0.707168L300 6.10352e-05Z" fill="#333333" fill-opacity="0.38"/>
</g>
<defs>
<clipPath id="clip0_569_7822">
<rect width="300" height="300" fill="white" transform="matrix(-1 0 0 1 300 0)"/>
</clipPath>
</defs>
</svg>
