<svg width="116" height="403" viewBox="0 0 116 403" fill="none" xmlns="http://www.w3.org/2000/svg">
<g clip-path="url(#clip0_332_224)">
<g filter="url(#filter0_d_332_224)">
<path d="M17.5783 119.06C16.549 120.913 16.8657 120.188 17.3408 119.141C17.42 119.221 17.4992 119.141 17.5783 119.06Z" fill="#994E2E"/>
<path d="M34.7603 109.629L14.8067 102.455C13.4607 107.855 12.9064 115.674 12.748 122.365C12.748 122.607 12.6688 122.768 12.6688 123.01C12.6688 123.01 12.6688 133.247 12.6688 136.391C12.748 138.648 12.0354 142.356 12.1938 143.968C12.4313 146.306 11.4811 153.319 11.4811 153.319C11.4811 153.319 11.402 155.737 12.1146 160.009C13.1439 166.7 13.619 174.519 13.7774 180.564C13.8566 179.678 13.8566 178.71 13.9357 177.743L26.1296 178.952C26.1296 178.952 25.1794 183.708 24.546 187.9C24.4668 188.625 24.3876 189.431 24.3084 190.237C24.3084 190.237 31.1972 152.029 29.7719 143.565C29.7719 143.565 29.4552 139.051 29.8511 136.552C29.9303 136.068 29.6136 134.617 31.0388 130.748C33.4142 124.541 34.4436 114.143 34.4436 111.402C34.4436 110.838 34.4436 110.435 34.2852 110.113L34.7603 109.629Z" fill="#994E2E"/>
<path d="M26.0507 178.952C26.0507 178.952 25.1005 183.708 24.4671 187.899C24.3879 188.625 24.3087 189.431 24.2295 190.237L13.4609 189.109C13.6985 187.335 13.7777 184.272 13.6985 180.564V180.484C13.7777 179.597 13.7777 178.63 13.8568 177.662L26.0507 178.952Z" fill="#994E2E"/>
<path d="M19.7953 212.405C19.7953 212.405 19.7953 213.049 19.7953 214.017C20.1912 219.256 19.4786 221.433 22.3291 225.302C18.6867 223.367 17.4199 219.256 19.6369 213.372C19.7953 212.808 19.7953 212.405 19.7953 212.405Z" fill="#854324"/>
<path d="M25.3378 196.766C24.4668 194.59 24.2293 192.333 24.3085 190.157C24.3085 189.35 24.3877 188.544 24.546 187.819C25.1795 183.708 26.1296 178.871 26.1296 178.871L13.9358 177.662C13.9358 178.63 13.8566 179.597 13.7774 180.484V180.564C13.3023 188.222 12.273 193.22 12.6689 195.396C13.144 197.895 10.9269 202.49 9.7392 205.553C8.55148 208.616 9.18493 210.954 9.34329 211.437C9.50165 211.921 9.97674 214.581 10.3726 216.677C10.6102 217.644 12.3522 219.498 12.3522 219.498C12.1938 220.868 14.3317 222.803 14.3317 222.803C15.5986 224.173 17.2614 224.496 17.2614 224.496C18.2116 224.818 17.2614 224.415 18.2907 224.979C18.6075 225.463 18.9242 225.866 18.9242 225.866C20.1119 226.995 19.5576 226.753 20.7453 227.398C21.6955 227.962 22.0122 227.881 22.0122 227.881C22.0122 227.881 22.4081 227.881 22.6457 227.639L22.7249 227.72C23.3583 228.929 24.546 228.204 24.546 228.204C26.5255 227.72 24.9419 224.335 24.7044 223.528C24.4668 222.722 24.546 221.191 24.0709 219.901C24.0709 219.901 24.8628 219.417 25.0211 218.047C24.9419 216.838 23.5959 214.097 23.5959 212.888C23.675 209.341 27.7133 202.893 25.3378 196.766Z" fill="#994E2E"/>
<path d="M19.4785 220.868C19.0826 220.143 19.1618 218.128 19.0035 217.483C18.9243 217.241 18.9243 217.241 19.241 217.644C19.241 217.644 19.3202 218.208 19.3202 218.45C19.3202 219.821 20.0328 221.352 20.2704 221.997C19.9536 221.594 19.7161 221.191 19.4785 220.868Z" fill="#994E2E"/>
<path d="M14.7276 211.034C14.7276 211.034 15.0444 216.677 15.0444 218.047C15.1235 219.417 15.4403 220.546 15.9945 221.352C16.5488 222.158 18.2908 224.899 18.2908 224.899C18.2908 224.899 16.3904 221.997 15.9154 221.674C14.886 220.868 14.8068 217.805 14.7276 216.838C14.4901 214.5 14.7276 211.034 14.7276 211.034Z" fill="#854324"/>
<path d="M11.8773 217.241C11.8773 217.241 11.4814 215.468 11.5606 213.372C11.6398 211.276 11.9565 210.551 11.0063 209.503C11.0063 209.503 11.6398 211.357 11.4814 212.485C11.2439 213.533 11.5606 216.677 11.8773 217.241Z" fill="#854324"/>
<path d="M102.302 158.719C100.639 169.521 100.322 183.224 100.876 187.819L91.0579 188.948C91.0579 188.948 83.219 150.739 84.6442 142.275C84.6442 142.275 84.961 137.761 84.5651 135.262C84.4859 134.779 84.8026 133.328 83.3773 129.459C81.1603 123.655 80.1309 114.143 79.9726 110.677C79.8142 110.032 79.735 109.306 79.5767 108.42L99.5302 101.246C100.955 106.808 101.431 114.949 101.589 121.72L101.668 121.801C101.668 121.801 101.668 132.038 101.668 135.182C101.589 137.439 102.302 141.147 102.143 142.759C101.906 145.097 102.856 152.19 102.856 152.19C102.856 152.19 102.935 154.447 102.302 158.719Z" fill="#994E2E"/>
<path d="M94.6213 211.115C94.6213 211.115 94.6213 211.759 94.5421 212.727C94.1462 217.966 94.8588 220.143 92.0083 224.012C95.6506 222.077 96.9175 217.966 94.6213 212.082C94.6213 211.518 94.6213 211.115 94.6213 211.115Z" fill="#854324"/>
<path d="M90.8997 186.61C91.2956 189.351 91.2956 192.575 90.1079 195.557C87.6533 201.603 90.8205 208.052 90.8205 211.76C90.8205 212.969 89.4744 215.629 89.3953 216.919C89.5536 218.289 90.3454 218.773 90.3454 218.773C90.2662 219.579 90.5038 218.37 90.3454 218.773C89.9495 220.062 89.9495 221.594 89.712 222.4C89.4744 223.206 87.8908 226.511 89.8703 227.075C89.8703 227.075 91.0581 227.801 91.6915 226.592C91.6915 226.592 92.9584 225.141 93.0376 224.657C93.1168 224.173 93.8294 221.513 94.0669 220.949C94.3045 220.385 95.1755 218.692 95.1755 217.241C95.1755 216.999 95.2546 216.435 95.2546 216.435C95.5714 216.032 95.5714 216.032 95.4922 216.274C95.2546 216.919 95.413 218.934 95.0171 219.659C94.4628 220.627 93.3543 221.513 92.7209 223.448C92.3249 224.818 91.6123 225.463 91.5331 225.866C91.3748 226.672 92.4041 226.753 92.4041 226.753C92.4041 226.753 92.7209 226.833 93.671 226.269C94.9379 225.544 94.3045 225.786 95.4922 224.738C95.4922 224.738 97.2342 222.158 97.7884 221.433C98.3427 220.707 98.8178 219.659 99.0553 218.37C99.2137 217.08 99.9263 214.339 99.0553 216.032C98.5802 216.838 99.4512 218.37 98.4219 219.014C97.9468 219.337 95.9673 223.932 95.9673 223.932C97.155 223.287 96.1256 223.77 97.0758 223.448C97.0758 223.448 98.8178 223.125 100.005 221.755C100.005 221.755 102.143 219.74 101.985 218.45C101.985 218.45 102.698 216.354 102.856 214.42C102.935 213.452 101.827 217.241 101.985 218.45C101.985 218.45 103.806 216.596 103.965 215.629C104.36 213.452 104.915 210.792 104.994 210.389C105.073 209.906 105.786 207.568 104.598 204.505C103.41 201.442 101.193 196.767 101.668 194.348C102.143 191.93 100.718 185.884 100.481 176.695L89.2369 177.904C89.3161 177.662 90.2663 182.418 90.8997 186.61Z" fill="#994E2E"/>
<path d="M99.6886 209.825C99.6886 209.825 99.3719 215.468 99.3719 216.838C99.2927 218.208 98.8968 219.337 98.4217 220.143C97.8675 220.949 96.1255 223.69 96.1255 223.69C96.1255 223.69 98.0258 220.788 98.5009 220.465C99.5303 219.659 99.6094 216.596 99.6886 215.629C99.9262 213.211 99.6886 209.825 99.6886 209.825Z" fill="#854324"/>
<path d="M102.539 215.951C102.539 215.951 102.935 214.178 102.856 212.082C102.777 209.986 102.46 209.261 103.41 208.213C103.41 208.213 102.777 210.067 102.935 211.195C103.093 212.243 102.777 215.387 102.539 215.951Z" fill="#854324"/>
<path d="M68.8873 348.068C69.1249 349.358 69.6 353.066 70.5501 359.354C71.4211 365.641 70.946 369.027 71.0252 369.51C71.1044 370.397 71.1044 371.525 70.8668 372.735C70.7877 373.379 70.6293 373.783 70.5501 374.105C70.3918 374.83 70.3126 375.556 70.3918 376.281L92.4832 375.556C91.7706 375.072 90.8996 374.589 90.0286 374.024C89.4744 373.621 88.9993 372.976 88.3658 372.251C87.1781 370.719 86.3863 369.027 85.9904 367.334C85.7529 366.205 84.7235 356.694 85.0402 353.227C86.0696 341.217 86.4655 329.367 86.2279 317.598C85.7529 307.442 82.2689 309.376 82.4273 306.878L73.559 301.719L69.5208 301.316C69.7583 302.686 64.2157 308.651 65.1658 318.646C66.0368 328.239 67.3037 338.073 68.8873 348.068Z" fill="#994E2E"/>
<path d="M45.8458 348.31C45.6083 349.6 45.054 353.308 44.0247 359.515C42.9953 365.802 43.4704 369.188 43.3912 369.671C43.312 370.558 43.312 371.687 43.4704 372.896C43.5496 373.541 43.6287 373.944 43.7871 374.266C43.9455 374.992 44.0247 375.717 43.9455 376.443L21.854 375.314C22.6458 374.83 23.4376 374.347 24.3086 373.863C24.8629 373.46 25.4171 372.815 25.9714 372.09C27.1591 370.558 27.9509 368.946 28.426 367.253C28.6636 366.205 29.8513 356.613 29.6137 353.147C28.8219 341.136 28.5844 329.287 29.0595 317.518C29.6929 307.361 33.0977 309.376 33.0977 306.877L41.9659 301.96L46.0042 301.638C45.7666 303.008 51.1509 309.054 50.0424 319.049C49.013 328.561 47.667 338.234 45.8458 348.31Z" fill="#994E2E"/>
<path d="M46.2417 384.1C44.7373 384.826 31.6724 383.536 22.8833 390.065C14.7277 396.111 3.64238 393.129 1.66286 389.662C0.633504 387.808 1.42531 384.423 1.82122 383.053C0.395961 389.824 7.20552 392.887 14.1734 390.71C21.3789 388.373 30.4055 382.005 33.256 381.843C36.0274 381.682 46.1625 382.891 47.4294 378.297C47.667 377.571 47.7461 376.684 47.667 375.717C47.667 375.717 47.7461 383.375 46.2417 384.1Z" fill="#783218"/>
<path d="M47.6667 375.717C47.6667 376.684 47.5875 377.571 47.4292 378.297C46.1623 382.891 36.1063 381.682 33.2558 381.843C30.4845 382.005 21.4578 388.373 14.1732 390.71C7.20528 392.967 0.395723 389.904 1.82098 383.052C1.90016 382.811 1.90016 382.649 1.97934 382.408C2.61279 380.231 14.4107 378.135 17.0237 374.83C17.6572 374.105 18.449 373.057 19.32 372.009C19.8742 372.251 21.537 373.138 22.0913 374.992C22.0913 374.992 22.408 371.687 20.1909 370.961C20.7452 370.236 21.3787 369.591 21.9329 368.865C22.5664 369.027 24.4667 369.752 25.021 371.445C25.021 371.445 25.3377 368.221 23.1998 367.495C25.021 365.399 26.4462 363.706 26.4462 363.706C30.6428 358.789 30.8012 366.044 33.0974 368.462C35.3937 370.961 42.5991 363.545 43.9452 363.706C45.1329 363.787 47.6667 370.8 47.6667 375.717Z" fill="#502110"/>
<path d="M22.1707 374.992C21.6165 373.218 19.8745 372.251 19.3994 372.009C19.7161 371.687 19.9537 371.364 20.2704 370.961C22.4875 371.687 22.1707 374.992 22.1707 374.992Z" fill="#502313"/>
<path d="M25.0212 371.445C24.5461 369.752 22.5666 369.107 21.9331 368.866C22.329 368.382 22.7249 367.898 23.1208 367.415C25.3379 368.221 25.0212 371.445 25.0212 371.445Z" fill="#502313"/>
<path d="M22.1704 374.992C21.6162 373.218 19.8742 372.251 19.3991 372.009C19.3199 372.009 19.2407 371.929 19.2407 371.929L20.1117 370.961C20.1117 370.961 20.1909 370.961 20.2701 370.961C22.4871 371.687 22.1704 374.992 22.1704 374.992Z" fill="#783218"/>
<path d="M25.0213 371.445C24.5462 369.752 22.5667 369.107 21.9333 368.865C21.7749 368.865 21.7749 368.785 21.7749 368.785L22.9626 367.334C23.0418 367.334 23.121 367.334 23.2002 367.414C25.338 368.221 25.0213 371.445 25.0213 371.445Z" fill="#783218"/>
<path d="M112.754 392.323C110.458 394.66 99.6098 397.159 91.2958 391.839C82.7442 386.358 69.9961 387.002 68.4917 386.277C67.1456 385.632 67.0664 379.345 67.0664 378.135C67.0664 379.022 67.1456 379.828 67.3831 380.554C68.65 385.148 78.706 383.939 81.5565 384.101C84.3278 384.262 93.0377 391.355 100.56 392.161C107.449 392.887 114.417 392 112.991 385.31C113.308 386.761 114.258 390.791 112.754 392.323Z" fill="#783218"/>
<path d="M100.48 392.081C92.9582 391.275 84.3274 384.181 81.4769 384.02C78.7056 383.859 68.5704 385.068 67.3035 380.473C67.1452 379.748 66.9868 378.941 66.9868 378.055V377.813C67.066 372.896 69.5206 365.883 70.7083 365.722C72.1336 365.56 79.2599 372.976 81.5561 370.478C83.8523 367.979 84.0107 360.805 88.2073 365.722C88.2073 365.722 90.6619 368.543 93.1165 371.525C90.8994 372.251 91.2162 375.556 91.2162 375.556C91.5329 373.299 93.5916 372.735 93.9875 372.654C94.9377 373.783 95.8878 374.911 96.6005 375.878C94.3042 376.523 94.6209 379.909 94.6209 379.909C94.8585 377.49 96.838 377.007 97.4715 376.926C100.084 380.312 111.962 382.408 112.516 384.503C112.595 384.665 112.595 384.826 112.595 384.987C112.595 385.068 112.595 385.148 112.674 385.148C114.337 391.919 107.369 392.806 100.48 392.081Z" fill="#502110"/>
<path d="M93.275 371.606C93.5917 371.929 93.9084 372.332 94.146 372.654C93.7501 372.735 91.6914 373.299 91.3747 375.556C91.3747 375.636 90.9788 372.332 93.275 371.606Z" fill="#502313"/>
<path d="M97.63 376.926C96.9965 377.007 95.017 377.41 94.7795 379.909C94.7795 379.909 94.4627 376.523 96.759 375.878C97.0757 376.281 97.3924 376.604 97.63 376.926Z" fill="#502313"/>
<path d="M97.7884 376.926C97.7884 376.926 97.7092 376.926 97.5509 376.926C96.9174 377.007 94.9379 377.41 94.7004 379.909C94.7004 379.909 94.3836 376.523 96.6799 375.878H96.7591L97.7884 376.926Z" fill="#783218"/>
<path d="M94.225 372.654C94.225 372.654 94.1459 372.654 94.225 372.654C93.75 372.735 91.6913 373.299 91.3745 375.556C91.3745 375.556 91.0578 372.251 93.2749 371.526C93.354 371.526 93.354 371.526 93.4332 371.445L94.225 372.654Z" fill="#783218"/>
<path d="M93.3541 226.914C92.6415 223.367 96.2046 220.304 95.2545 218.37C94.4627 216.274 93.8292 214.097 93.3541 212.001C89.4743 201.684 93.9084 183.305 87.4947 182.015C83.4565 181.209 78.9432 181.773 74.1923 182.66C72.6087 182.982 71.0251 183.305 69.4415 183.627C61.4442 185.965 52.7343 184.03 45.4497 183.627C44.0244 183.627 42.6784 183.708 41.2531 183.95C39.5111 183.466 37.8483 182.982 36.1063 182.418C32.3848 181.29 27.1589 183.789 23.3582 182.741C23.3582 196.525 19.5575 203.457 22.0121 218.611C22.7248 218.773 21.7746 224.415 20.4285 225.785C19.9534 228.526 19.9534 227.156 20.1118 230.219C20.1118 230.541 20.191 230.864 20.191 231.106C21.8538 234.975 21.8538 239.892 22.1705 244.084C22.1705 244.567 22.2497 245.051 22.3289 245.535C22.408 246.502 22.4872 247.469 22.5664 248.517C22.5664 249.001 22.5664 249.484 22.6456 250.049C22.7248 250.532 22.804 251.016 22.9623 251.419C25.8128 256.578 23.9125 261.495 22.7248 266.976C22.7248 267.379 22.7248 267.782 22.7248 268.186C21.933 276.246 23.8333 284.065 25.5753 292.126C25.5753 293.013 25.5753 293.819 25.4961 294.706C25.1794 299.865 23.8333 305.024 22.408 310.021C22.3289 310.827 22.2497 311.714 22.1705 312.52C22.0121 315.019 22.0121 317.518 22.4872 320.017C22.5664 320.581 22.6456 321.065 22.804 321.629C22.804 321.629 22.7248 322.032 22.6456 322.677C22.6456 322.999 22.5664 323.402 22.4872 323.886C21.8538 325.498 21.6954 326.949 21.6954 328.4C21.6954 328.884 21.6954 329.367 21.7746 329.851C23.0415 334.123 23.0415 339.04 22.7248 342.587C22.9623 343.151 23.0415 343.716 23.1999 344.199C23.5958 345.167 24.5459 345.811 28.0299 345.892C34.3644 346.053 39.2736 346.617 42.52 346.617C43.0743 346.617 43.8661 346.537 44.7371 346.376C45.133 346.295 45.6081 346.214 46.0831 346.053C52.8927 345.892 54.8722 341.942 51.9425 336.138C51.8633 335.655 51.8633 335.171 51.8633 334.687C51.9425 333.237 52.2592 331.866 53.1302 330.576C53.2094 330.093 53.3678 329.609 53.447 329.125C53.922 326.546 54.0804 323.725 53.5261 321.226C52.6551 317.276 54.6347 314.697 53.1302 308.973C51.705 303.25 52.0217 297.849 52.4968 293.819C52.7343 291.804 53.2886 289.869 53.8429 287.693C54.3971 285.516 55.0306 283.098 55.3473 280.035C56.6142 271.41 56.535 244.245 57.9603 234.733C60.6524 246.824 59.0688 275.601 62.3944 286.564C62.9487 288.741 63.5029 290.675 63.7405 292.69C64.2156 296.721 64.5323 302.122 63.107 307.845C61.6818 313.568 63.6613 316.148 62.7111 320.097C61.8401 324.047 62.9487 329.045 63.7405 332.027C64.5323 335.01 63.978 336.38 62.3944 339.282C60.8108 342.184 70.4708 345.57 73.7173 345.489C76.9637 345.408 81.8729 344.925 88.2074 344.764C89.791 344.764 90.8203 344.602 91.533 344.36C92.2456 344.119 92.6415 343.796 92.879 343.393C96.2046 333.156 91.3746 322.354 93.0374 312.44C93.1166 311.714 93.1958 310.908 93.1958 310.183C93.3541 308.651 93.4333 307.039 93.4333 305.427C93.2749 304.621 93.1166 303.814 92.879 303.089C92.6415 302.283 92.404 301.477 92.0872 300.751C91.9289 300.026 91.7705 299.22 91.6121 298.414C91.4538 297.608 91.2954 296.882 91.2162 296.076C91.0579 295.189 90.9787 294.303 90.8995 293.335C89.8702 287.532 91.9289 282.453 93.0374 277.455C93.1958 276.73 93.3541 276.005 93.4333 275.36C93.2749 274.392 93.1958 273.344 93.0374 272.377C92.9582 271.893 92.879 271.41 92.7999 270.926C92.404 266.493 89.4743 261.576 92.008 256.417C92.0872 255.933 92.1664 255.449 92.2456 254.966C92.404 253.998 92.6415 253.112 92.9582 252.144C92.9582 251.258 92.9582 250.371 92.9582 249.484C93.0374 243.358 90.5036 240.779 93.9876 235.459C96.1255 230.461 94.7794 227.478 93.3541 226.914Z" fill="#502110"/>
<path d="M84.882 74.6447C84.2485 74.3223 83.5359 73.9998 82.8233 73.6774C78.6267 71.904 74.3509 69.0827 71.1837 66.2614C68.4124 64.085 68.7291 57.4751 68.5707 53.7671C68.7291 52.3162 68.8083 51.4295 68.8083 51.4295C67.0663 50.6234 63.424 50.2204 58.7523 50.3816C58.5939 50.3816 58.4356 50.3816 58.2772 50.3816C58.1188 50.3816 57.9605 50.3816 57.8021 50.3816C57.7229 50.3816 57.6438 50.3816 57.5646 50.3816C57.4854 50.3816 57.4062 50.3816 57.327 50.3816C57.1687 50.3816 57.0103 50.3816 56.852 50.3816C56.6936 50.3816 56.5352 50.3816 56.3769 50.3816C51.7052 50.301 48.0629 50.6234 46.3209 51.4295C46.3209 51.4295 46.4001 52.3968 46.5584 53.7671C46.6376 57.8782 46.7168 64.1656 43.9455 66.342C40.7782 69.2439 37.4526 71.3398 33.2561 73.1132C32.5434 73.4356 31.8308 73.758 31.1973 74.0805C25.9714 76.9017 21.854 78.5139 21.854 82.4637C21.854 91.25 37.2151 96.7314 56.2977 96.7314C56.6936 96.7314 57.0895 96.7314 57.4854 96.7314C57.8813 96.7314 58.2772 96.7314 58.6731 96.7314C77.8349 96.7314 92.4834 91.25 92.4834 82.4637C92.4834 78.4333 90.1079 77.3854 84.882 74.6447Z" fill="#924520"/>
<path d="M72.5299 44.8196C71.5798 47.5603 71.3422 48.6888 69.917 52.155C68.4917 55.5406 66.5122 56.8303 63.82 58.12C61.9197 59.0067 59.861 59.4098 57.6439 59.2485C55.3477 59.4098 53.289 59.0067 51.3886 58.12C48.6965 56.9109 46.6378 55.5406 45.2917 52.155C43.8664 48.7694 43.6289 47.6409 42.6787 44.8196C41.8077 42.4014 40.8576 39.5801 41.0951 36.5976C41.0951 36.1945 41.1743 35.7109 41.2535 35.3078C41.3327 34.8242 41.4118 34.4212 41.491 34.0181C41.8077 33.6151 42.1245 33.1314 42.362 32.6478C43.7081 31.1162 43.7873 29.1816 43.7081 27.247C43.7081 27.1664 43.7081 27.0858 43.7081 27.0052C44.0248 26.844 44.0248 25.8767 43.6289 25.7961C43.6289 25.7154 43.6289 25.6348 43.6289 25.5542C43.6289 25.1512 43.5497 24.7481 43.5497 24.3451V24.1033C44.0248 23.8615 44.0248 23.8615 43.7081 22.7329C43.7081 22.6523 43.7081 22.5717 43.7081 22.5717C43.7873 22.2493 43.8664 21.9269 44.0248 21.6044C44.0248 21.5238 44.104 21.5238 44.104 21.4432C43.1538 20.8789 46.0043 20.8789 44.8958 20.3953C44.8958 20.3147 44.975 20.3147 44.975 20.2341C45.2125 19.9923 45.6084 19.7504 45.9252 19.5892C46.0835 19.428 46.7961 19.0249 47.4296 18.7025C47.7463 18.8637 48.1422 18.9443 48.5381 19.0249C48.6173 19.0249 48.7757 19.1056 48.8548 19.1056C48.934 19.1056 49.0924 19.1862 49.1716 19.1862C50.7552 18.9443 51.7054 18.9443 52.6555 19.5086C52.8139 19.5086 52.8931 19.5086 53.0514 19.5086C53.2098 19.5086 53.289 19.5086 53.4473 19.5086C54.5559 19.9116 56.5354 19.9116 57.3272 19.428C57.4856 19.428 57.6439 19.428 57.8023 19.428C58.119 19.428 58.5149 19.428 58.8316 19.428C58.99 19.428 59.1484 19.428 59.3067 19.428C60.3361 19.7504 61.2862 19.7504 62.5531 19.3474C62.7115 19.3474 62.8699 19.3474 63.0282 19.3474C63.1866 19.3474 63.2658 19.3474 63.4241 19.3474C64.0576 18.9443 65.562 18.9443 66.6705 18.9443C66.8289 18.9443 67.0665 18.9443 67.2248 18.9443C67.304 18.9443 67.3832 18.8637 67.5415 18.8637C67.6207 18.8637 67.7791 18.7831 67.8583 18.7831C68.9668 19.025 70.3129 19.3474 70.4712 19.5086C70.6296 19.6698 70.7088 19.7504 70.8671 19.9116C70.9463 19.9922 70.9463 20.0729 70.9463 20.0729C69.9961 20.7983 72.9258 20.7983 71.7381 21.3626C71.7381 21.4432 71.8173 21.5238 71.8173 21.6044C71.8965 21.8462 71.9757 22.0881 71.9757 22.2493C71.9757 22.3299 71.9757 22.4105 72.0548 22.4911C71.9757 22.7329 71.9757 23.7002 72.134 23.8615C72.134 23.9421 72.134 24.0227 72.134 24.1033V24.3451C72.134 24.4257 72.134 24.5063 72.134 24.5869C71.8965 25.6348 71.8965 25.6348 72.0548 26.1991C72.0548 26.2797 72.0548 26.3603 72.0548 26.4409C71.8965 28.6173 71.7381 30.7938 73.2426 32.809C73.4009 33.1314 73.6385 33.4539 73.876 33.7763C73.9552 34.1793 74.0344 34.663 74.1135 35.066C74.1927 35.4691 74.2719 35.8721 74.2719 36.2751C74.3511 39.5801 73.4009 42.3208 72.5299 44.8196Z" fill="#994E2E"/>
<path d="M67.7788 18.8638C67.6996 18.8638 67.5412 18.9444 67.462 18.9444C67.3829 18.9444 67.3037 19.025 67.1453 19.025C66.987 19.025 66.8286 19.025 66.5911 19.025C65.4825 18.9444 64.0573 19.025 63.3446 19.4281C63.1863 19.4281 63.0279 19.4281 62.9487 19.4281C62.7904 19.4281 62.632 19.4281 62.4736 19.4281C61.2068 19.9117 60.2566 19.9117 59.2272 19.5087C59.0689 19.5087 58.9105 19.5087 58.7521 19.5087C58.4354 19.5087 58.1187 19.5087 57.7228 19.5087C57.5644 19.5087 57.4061 19.5087 57.2477 19.5087C56.4559 19.9117 54.4764 19.9117 53.3678 19.5893C53.2095 19.5893 53.1303 19.5893 52.9719 19.5893C52.8136 19.5893 52.7344 19.5893 52.576 19.5893C51.6259 19.025 50.6757 19.025 49.0921 19.2668C49.0129 19.2668 48.8545 19.1862 48.7754 19.1862C48.6962 19.1862 48.5378 19.1056 48.4586 19.1056C48.0627 19.025 47.746 18.8638 47.3501 18.7832C48.0627 18.3802 48.7754 17.9771 49.0129 17.8965C49.7255 17.4935 50.1214 17.4935 50.5173 17.6547C51.0716 17.8159 51.5467 18.2995 52.6552 18.2995C53.2095 18.2189 53.8429 18.2189 54.3972 18.2995C54.9515 18.3802 55.5849 18.3802 56.2184 18.5414C56.6143 18.5414 57.0893 18.5414 57.4853 18.5414C57.8812 18.5414 58.3562 18.5414 58.7521 18.622C59.3064 18.622 59.9399 18.7026 60.4941 18.7832C63.1863 19.1056 64.1364 17.6547 66.0368 18.622C66.0368 18.622 66.0368 18.622 66.116 18.622C66.3535 18.5414 66.987 18.7026 67.7788 18.8638Z" fill="#994E2E"/>
<path d="M41.0156 34.5825C40.6989 34.0988 40.303 33.9376 39.9863 34.0182C39.432 34.1794 39.0361 34.7437 38.7986 35.6304C38.4818 36.5977 39.432 37.8874 39.5904 39.419C39.8279 41.5148 39.3528 43.127 40.2238 44.2555C41.0156 45.3034 41.8866 45.787 42.8368 45.5452L43.1535 45.4646L42.7576 42.9657C42.045 38.4517 41.5699 35.711 41.174 34.8243L41.0156 34.5825Z" fill="#924520"/>
<path d="M69.8374 34.1794C68.2538 32.8896 66.591 32.3254 64.849 32.406C63.2654 32.4866 61.9985 33.2121 61.0483 34.4212C61.1275 34.4212 61.1275 34.3406 61.2067 34.3406C61.2859 34.3406 61.2859 34.26 61.3651 34.1794C61.9985 33.7763 62.8695 33.4539 63.7405 33.3733C63.4238 33.6957 63.2654 34.0988 63.2654 34.5824C63.2654 35.0661 63.4238 35.4691 63.7405 35.7915C64.0572 36.114 64.4531 36.2752 65.0074 36.2752C65.5616 36.2752 65.8784 36.114 66.2743 35.7915C66.591 35.4691 66.7494 35.0661 66.7494 34.5824C66.7494 34.0988 66.591 33.6957 66.2743 33.3733C67.6203 33.4539 68.8081 33.7763 69.8374 34.1794Z" fill="#411E15"/>
<path d="M61.5236 29.9878C61.4445 29.0205 62.1571 29.0205 62.7114 28.9399C62.8697 28.9399 63.0281 28.8593 63.1864 28.8593C63.3448 28.8593 63.5032 28.7787 63.6615 28.7787C65.7994 28.4563 67.383 28.3757 69.0458 29.6654C69.2042 29.8266 69.2834 29.9878 69.4417 30.149C69.5209 30.2297 69.5209 30.3103 69.5209 30.3909C69.4417 30.5521 69.2834 30.6327 69.125 30.6327C68.9667 30.6327 68.8875 30.6327 68.5707 30.4715C68.4916 30.3909 68.3332 30.3103 68.1748 30.3103C66.6704 30.0684 65.8786 30.149 64.3742 30.149C64.2158 30.149 64.1366 30.2297 63.9783 30.2297C63.5824 30.3909 63.1864 30.4715 62.7114 30.5521C62.4738 30.5521 62.0779 30.7939 61.8404 30.7133C61.682 30.6327 61.5236 30.2297 61.5236 29.9878Z" fill="#411E15"/>
<path d="M50.2799 32.406C48.5379 32.3254 46.9543 32.8896 45.2915 34.1794C46.3209 33.6957 47.5086 33.4539 48.8546 33.3733C48.5379 33.6957 48.3796 34.0988 48.3796 34.5824C48.3796 35.0661 48.5379 35.4691 48.8546 35.7915C49.1714 36.114 49.5673 36.2752 50.0424 36.2752C50.5174 36.2752 50.9133 36.114 51.2301 35.7915C51.5468 35.4691 51.7052 35.0661 51.7052 34.5824C51.7052 34.0988 51.5468 33.6957 51.2301 33.3733C52.1802 33.5345 52.9721 33.7763 53.6055 34.1794C53.6847 34.1794 53.7639 34.26 53.7639 34.3406C53.843 34.3406 53.843 34.4212 53.9222 34.4212C53.1304 33.1315 51.8635 32.4866 50.2799 32.406Z" fill="#411E15"/>
<path d="M53.6057 29.9071C53.6849 28.9398 52.9722 28.9398 52.418 28.8592C52.2596 28.8592 52.1012 28.7786 51.9429 28.7786C51.7845 28.7786 51.6261 28.698 51.4678 28.698C49.3299 28.3756 47.7463 28.295 46.0835 29.5847C45.9251 29.7459 45.8459 29.9071 45.6876 30.0684C45.6084 30.149 45.6084 30.2296 45.6084 30.3102C45.6876 30.4714 45.8459 30.552 46.0043 30.552C46.1627 30.552 46.2418 30.552 46.5586 30.3908C46.6378 30.3102 46.7961 30.2296 46.9545 30.2296C48.4589 29.9878 49.2507 30.0684 50.7552 30.0684C50.9135 30.0684 50.9927 30.149 51.1511 30.149C51.547 30.3102 51.9429 30.3908 52.418 30.4714C52.6555 30.4714 53.0514 30.7132 53.289 30.6326C53.4473 30.552 53.6057 30.149 53.6057 29.9071Z" fill="#411E15"/>
<path d="M60.4941 43.9332C60.4941 43.9332 61.3651 44.3362 61.761 43.7719C62.3945 42.8852 61.761 41.1925 61.286 40.7894C62.7112 44.2556 60.4941 43.9332 60.4941 43.9332Z" fill="#502110"/>
<path d="M60.8901 44.0136C61.1277 44.0942 61.4444 44.0136 61.6819 43.7717C62.157 43.1269 61.9195 42.0789 61.6028 41.4341C61.9987 42.482 61.9987 43.2075 61.6028 43.6911C61.3652 43.8523 61.1277 43.9329 60.8901 44.0136Z" fill="#502110"/>
<path d="M59.3065 42.885C59.1482 42.8044 58.9898 42.8044 58.9106 42.8044C58.7522 42.8044 58.5939 42.8044 58.4355 42.885C58.3563 42.885 58.2772 42.9656 58.2772 42.9656C58.198 43.0461 58.198 43.1267 58.2772 43.1267L58.3563 43.2072C58.5147 43.2878 58.6731 43.1267 58.9106 43.1267C59.3065 43.0461 60.0191 43.4489 60.0191 43.4489C60.0191 43.4489 59.7024 43.0461 59.3065 42.885Z" fill="#502110"/>
<path d="M58.9107 43.0455C59.1483 43.0455 59.465 43.1259 59.7025 43.2063C59.6233 43.1259 59.465 42.9652 59.3066 42.8848C59.1483 42.8044 58.9899 42.8044 58.9107 42.8044C58.7524 42.8044 58.594 42.8044 58.5148 42.8848C58.4356 42.8848 58.4356 42.8848 58.3564 42.9652C58.3564 42.9652 58.3564 43.0455 58.3564 43.1259C58.3564 43.1259 58.3565 43.1259 58.4356 43.2063C58.5148 43.2063 58.594 43.2063 58.6732 43.1259C58.7524 43.1259 58.8315 43.0455 58.9107 43.0455C58.9107 43.0455 58.8315 43.0455 58.9107 43.0455Z" fill="#502110"/>
<path d="M54.635 43.9332C54.635 43.9332 53.764 44.3362 53.3681 43.7719C52.7346 42.8852 53.3681 41.1925 53.8432 40.7894C52.4179 44.2556 54.635 43.9332 54.635 43.9332Z" fill="#502110"/>
<path d="M53.6055 41.2728C53.2888 41.9177 53.0512 43.0462 53.4471 43.6911C53.6055 44.0135 54.0014 44.0135 54.2389 43.9329C54.0014 43.9329 53.7639 43.7717 53.5263 43.5299C53.2096 43.1268 53.2096 42.3207 53.6055 41.2728Z" fill="#502110"/>
<path d="M55.8225 42.885C55.9809 42.8044 56.1392 42.8044 56.2184 42.8044C56.3768 42.8044 56.5351 42.8044 56.6935 42.885C56.7727 42.885 56.8519 42.9656 56.8519 42.9656C56.931 43.0461 56.931 43.1267 56.8519 43.1267L56.7727 43.2072C56.6143 43.2878 56.4559 43.1267 56.2184 43.1267C55.8225 43.0461 55.1099 43.4489 55.1099 43.4489C55.1099 43.4489 55.4266 43.0461 55.8225 42.885Z" fill="#502110"/>
<path d="M62.7904 48.8502C62.3945 48.9308 60.2566 48.7696 59.8607 48.6084C59.3856 48.3665 58.9105 48.2859 58.1979 48.3665C58.1187 48.3665 57.8812 48.5277 57.5644 48.5277C57.2477 48.5277 56.6934 48.4471 56.6143 48.4471C55.9016 48.3665 55.6641 48.3665 55.189 48.6084C54.7931 48.8502 52.6552 49.0114 52.2593 48.8502C51.1508 48.6084 52.0218 49.1726 52.2593 49.2532C52.8928 49.6563 54.3972 50.7848 54.7931 51.1072C55.2682 51.4297 55.6641 51.6715 56.3767 51.8327C56.4559 51.8327 56.5351 51.8327 56.6934 51.8327C57.0102 51.7521 57.2477 51.5909 57.4852 51.4296C57.7228 51.5909 57.9603 51.7521 58.2771 51.8327C58.4354 51.8327 58.5146 51.8327 58.5938 51.8327C59.3064 51.6715 59.7023 51.349 60.1774 51.1072C60.6525 50.8654 62.1569 49.6563 62.7112 49.2532C63.0279 49.2532 63.8989 48.6084 62.7904 48.8502Z" fill="#773017"/>
<path d="M74.1134 34.5825C74.4301 34.0988 74.826 33.9376 75.1427 34.0182C75.697 34.1794 76.0929 34.7437 76.4096 35.6304C76.7264 36.5977 75.7762 37.8874 75.6178 39.419C75.3803 41.5148 75.8554 43.127 74.9844 44.2555C74.1926 45.3034 73.3216 45.787 72.3714 45.5452L72.0547 45.4646L72.4506 42.9657C73.1632 38.4517 73.7175 35.711 74.0342 34.8243L74.1134 34.5825Z" fill="#924520"/>
<path d="M61.682 48.5277C61.1277 48.3665 58.9898 46.8349 58.198 46.9155C58.1188 46.9155 57.8021 46.9155 57.4854 46.9155C57.1686 46.9155 56.8519 46.9155 56.7727 46.9155C56.0601 46.8349 53.843 48.3665 53.2888 48.5277C52.497 48.7695 51.626 49.0114 51.626 49.0114C52.7345 49.3338 54.1598 48.9308 54.8724 49.1726C54.9516 49.1726 56.7727 49.3338 57.4062 49.0114C58.0396 49.3338 59.94 49.1726 59.94 49.1726C60.6526 49.0114 62.157 49.3338 63.1864 49.0114C63.3448 49.0114 62.4738 48.6889 61.682 48.5277Z" fill="#6A2910"/>
<path d="M66.2744 46.5125C66.2744 46.5125 66.5911 48.6889 66.4328 49.4144C66.4328 49.4144 66.987 47.5604 66.2744 46.5125Z" fill="#6E3423"/>
<path d="M41.491 42.1597C41.2535 42.079 41.1743 41.8372 41.1743 41.5148C41.1743 41.1924 41.0951 40.9505 41.3326 40.7893C41.3326 40.7893 41.8077 39.7414 41.8077 39.5802C41.8077 39.2578 41.8077 38.9353 41.7285 38.6129C41.6494 38.1292 41.491 37.565 41.1743 37.1619C40.7784 36.6783 40.2241 36.5171 39.6698 36.5977C39.5115 36.5977 39.4323 36.6783 39.2739 36.6783C39.2739 36.6783 39.9866 36.6783 40.9367 37.6456C41.2535 37.968 41.4118 38.4517 41.491 38.9353C41.5702 39.1771 41.0159 40.5475 40.9367 40.5475C40.7784 40.7893 40.7784 41.1117 40.7784 41.1924C40.8575 42.2403 41.2535 42.3209 41.3326 42.3209H41.4118L41.7285 42.2403L41.491 42.1597Z" fill="#502313"/>
<path d="M73.5589 42.1597C73.7965 42.079 73.8756 41.8372 73.8756 41.5148C73.8756 41.1924 73.9548 40.9505 73.7173 40.7893C73.7173 40.7893 73.2422 39.7414 73.2422 39.5802C73.2422 39.2578 73.2422 38.9353 73.3214 38.6129C73.4005 38.1292 73.5589 37.565 73.8756 37.1619C74.2715 36.6783 74.8258 36.5171 75.3801 36.5977C75.5384 36.5977 75.6176 36.6783 75.6968 36.6783C75.6968 36.6783 74.9842 36.6783 74.034 37.6456C73.7173 37.968 73.5589 38.4517 73.4797 38.9353C73.4006 39.1771 73.9548 40.5475 74.034 40.5475C74.1924 40.7893 74.1924 41.1117 74.1924 41.1924C74.1132 42.2403 73.7173 42.3209 73.6381 42.3209H73.5589L73.2422 42.2403L73.5589 42.1597Z" fill="#502313"/>
<path d="M76.6469 25.0708C76.4885 24.2647 76.4093 23.7004 76.4885 22.8943C76.5677 22.0882 76.251 21.3628 76.1718 20.5567C76.1718 20.2342 75.7759 19.0251 75.4592 18.6221C75.38 17.9772 74.9049 16.1232 74.509 15.8814C74.2715 15.7202 73.9547 15.3977 73.8756 15.0753C73.7964 14.8335 72.3711 12.8183 71.6585 12.254C71.025 11.6898 69.9957 11.2061 69.7581 11.1255C69.5998 10.9643 68.6496 10.1582 68.4121 9.99698C68.0162 9.59394 66.4326 9.11029 65.0073 8.78786C64.9281 8.78786 64.7698 8.70725 64.6906 8.62664C64.6114 8.54603 64.5322 8.46542 64.453 8.38481C64.0571 7.90116 61.365 7.98177 61.1274 7.98177C60.8899 7.98177 60.1773 7.90117 59.9397 7.82056C59.4646 7.82056 58.3561 7.82056 57.6435 7.98177C56.9308 7.82056 55.9015 7.82056 55.3472 7.82056C55.1097 7.82056 54.3971 7.98177 54.1595 7.98177C53.8428 7.98177 51.1506 7.90116 50.8339 8.38481C50.7547 8.46542 50.6756 8.54603 50.5964 8.62664C50.5172 8.70725 50.3588 8.70725 50.2796 8.78786C48.8544 9.11029 47.2708 9.67455 46.8749 9.99698C46.7165 10.1582 45.7663 10.9643 45.608 11.1255C45.4496 11.2867 44.4203 11.7704 43.7076 12.254C42.995 12.8183 41.5698 14.8335 41.4906 15.0753C41.3322 15.3171 41.0947 15.7202 40.8571 15.8814C40.382 16.2038 39.9861 18.0578 39.907 18.6221C39.5902 19.0251 39.1943 20.2342 39.1943 20.5567C39.1151 21.3628 38.8776 22.0882 38.8776 22.8943C38.9568 23.7004 38.8776 24.2647 38.7192 25.0708C38.7984 25.4738 38.9568 27.6502 38.9568 27.892C39.036 28.4563 39.036 30.3103 39.3527 31.6C39.4319 32.1643 39.7486 32.8898 40.0653 33.2928C40.3029 33.6152 40.2237 33.8571 40.2237 34.2601C40.2237 34.5019 40.6196 35.2274 40.5404 35.4692C40.4612 35.7111 40.9363 36.3559 41.4906 37.0008C41.4906 36.6784 41.5697 36.4365 41.5697 36.1141C41.6489 36.8396 41.7281 37.5651 41.8073 38.4517C41.5697 38.8548 41.5698 39.2578 41.7281 39.6609C41.7281 39.8221 41.7281 39.9027 41.8865 40.0639C41.6489 40.467 41.6489 40.87 41.7281 41.3536C41.8073 41.5955 41.8865 41.8373 42.124 42.0791C42.124 42.1597 42.0448 42.1597 42.0448 42.2403C41.8073 42.724 41.8073 43.2883 41.8865 43.8525C42.0448 44.4168 42.2824 44.7392 42.7575 44.981C42.7575 44.981 42.7575 44.981 42.8366 45.0616C42.7575 45.1422 42.6783 45.3035 42.6783 45.4647C42.3616 46.1095 42.2824 46.7544 42.5199 47.3993C42.5991 47.9635 42.8366 48.3666 43.3117 48.689C43.3117 48.8502 43.3117 49.0114 43.3909 49.1727C43.4701 49.6563 43.7868 49.9787 44.1827 50.2206C44.1827 50.4624 44.1827 50.6236 44.1827 50.946C44.1827 51.2685 44.3411 51.5103 44.5786 51.7521C44.4203 52.0746 44.4203 52.4776 44.4994 52.8806C44.5786 53.4449 44.8953 53.8479 45.4496 54.0898C45.5288 54.1704 45.608 54.1704 45.7663 54.251C45.608 54.4928 45.4496 54.8152 45.3704 55.1377C45.1329 55.9438 45.1329 56.5886 45.4496 57.0723C45.6872 57.5559 46.1622 57.7171 46.7957 57.6365C46.7165 57.959 46.7165 58.2008 46.7165 58.5232C46.7165 58.7651 46.7957 59.0069 46.9541 59.1681C47.1916 59.4905 47.5875 59.4905 48.2209 59.2487C48.2209 59.3293 48.2209 59.4905 48.2209 59.6518C48.2209 60.4578 48.5377 61.0221 48.9336 61.4251C49.2503 61.5863 49.4878 61.7476 49.7254 61.8282C50.0421 61.9088 50.3588 61.9088 50.5964 61.7476C50.5964 61.7476 50.5964 61.7476 50.6756 61.7476C50.6756 61.9894 50.6756 62.2312 50.7547 62.473C50.9131 63.2791 51.309 63.7628 51.8633 64.0046C52.3384 64.1658 52.8926 64.0852 53.4469 63.5209L53.6052 63.3597C53.922 64.1658 54.3179 64.6495 54.793 64.7301C55.268 64.8107 55.8223 64.5689 56.2974 64.0046C56.2974 63.8434 56.3766 63.8434 56.4558 63.7628C56.6141 64.0852 56.7725 64.4076 57.01 64.6495C57.4851 65.2943 57.9602 65.5362 58.3561 65.5362V65.4556C58.6728 65.4556 58.9895 65.2137 59.4646 64.8107L60.0189 63.924L60.1773 64.1658C60.6523 64.7301 61.1274 64.9719 61.6817 64.8913C62.1568 64.8107 62.5527 64.327 62.9486 63.5209L63.107 63.6822C63.6612 64.2464 64.2155 64.4076 64.7698 64.1658C65.324 64.0046 65.6407 63.4403 65.9575 62.473C65.9575 62.1506 66.0366 61.9088 66.0366 61.7476C66.6701 62.1506 67.3035 62.1506 67.7786 61.8282C68.0162 61.667 68.1745 61.3445 68.3329 60.9415C68.4913 60.5384 68.4913 60.1354 68.5704 59.7324C68.5704 59.5711 68.4913 59.4099 68.5704 59.3293C69.1247 59.6517 69.5206 59.5711 69.8373 59.2487C69.9165 59.0875 69.9957 58.8457 69.9957 58.6038C69.9957 58.2814 69.9957 58.0396 69.9165 57.7171C70.55 57.8784 71.025 57.6365 71.3418 57.2335C71.5793 56.7498 71.5793 56.105 71.3418 55.2183C71.1834 54.8959 71.1042 54.5734 70.8667 54.3316C70.9459 54.251 71.025 54.251 71.1834 54.1704C71.6585 53.9286 71.9752 53.5255 72.0544 52.8806C72.0544 52.4776 72.0544 52.0746 71.896 51.7521C72.0544 51.5103 72.2128 51.2685 72.2919 50.946C72.2919 50.7042 72.2919 50.4624 72.2919 50.2206C72.6878 49.9787 72.9254 49.6563 73.0046 49.1727C73.0046 49.0114 73.0837 48.8502 73.0046 48.689C73.4005 48.3666 73.7172 47.9635 73.8756 47.3993C74.0339 46.7544 73.9547 46.1095 73.7172 45.4647C73.638 45.3035 73.5588 45.2229 73.4797 45.0616H73.5588C73.9547 44.8198 74.2715 44.4168 74.4298 43.9331C74.5882 43.3689 74.509 42.8046 74.2715 42.3209C74.1923 42.3209 74.1923 42.2403 74.1923 42.1597C74.3506 41.9179 74.509 41.7567 74.5882 41.4343C74.7465 40.9506 74.6674 40.5476 74.509 40.1445C74.5882 39.9833 74.5882 39.9027 74.6674 39.7415C74.7466 39.3384 74.7465 38.9354 74.5882 38.5324C74.6674 37.6457 74.7465 36.8396 74.8257 36.1141C74.9049 36.4365 74.9049 36.6784 74.9049 37.0008C75.4592 36.3559 75.8551 35.7917 75.7759 35.5498C75.6967 35.308 76.0926 34.6632 76.0926 34.3407C76.0926 33.9377 75.9343 33.6958 76.1718 33.3734C76.5677 32.9704 76.8052 32.2449 76.8844 31.6806C77.2012 30.3103 77.122 28.5369 77.2803 27.9727C76.6469 27.5696 76.8053 25.4738 76.6469 25.0708ZM72.6878 33.9377C72.4503 34.1795 72.2919 34.8244 72.2128 35.9529C72.2128 35.9529 72.2128 36.1141 72.1336 36.5171C72.0544 36.6784 72.0544 36.8396 71.9752 36.9202C71.9752 37.162 71.9752 37.3232 72.0544 37.5651C72.0544 37.8069 72.0544 38.0487 71.9752 38.3711C71.8169 39.1772 71.5793 40.3057 71.3418 41.5955C71.1042 42.8852 70.7083 44.3362 70.2332 45.7871C69.5206 47.8829 68.6496 49.8981 67.4619 51.8327C66.1158 54.0898 64.7698 55.5407 63.582 56.4274C62.1568 57.3141 60.4148 57.7978 58.1186 57.959C55.9015 58.0396 54.2387 57.7978 53.051 57.0723C51.5465 56.1856 50.0421 54.5734 48.3793 52.1552C46.7957 49.8175 45.7663 47.8023 45.2913 45.7871C44.8162 44.3362 44.4994 42.8852 44.3411 41.5149C44.1035 39.7415 43.9452 38.6936 43.7868 38.2905C43.7076 37.6457 43.6285 36.9202 43.3909 35.9529C43.1534 34.8244 42.9158 34.1795 42.7575 33.9377C42.6783 33.6152 42.5991 33.2928 42.5991 33.051C42.5991 33.051 42.5991 33.051 42.5991 32.9704C43.9452 31.4388 44.0244 29.5848 43.9452 27.6502C43.9452 27.5696 43.9452 27.489 43.9452 27.4084C44.2619 27.2472 44.2619 26.2799 43.866 26.1993C43.866 26.1187 43.866 26.0381 43.866 25.9574C43.866 25.5544 43.7868 25.1514 43.7868 24.7483V24.5065C44.2619 24.2647 44.2619 24.2647 43.9452 23.1361C43.9452 23.0555 43.9452 22.9749 43.9452 22.9749C44.0244 22.6525 44.1035 22.3301 44.2619 22.0076C44.2619 21.927 44.3411 21.927 44.3411 21.8464C43.3909 21.2822 46.2414 21.2822 45.1329 20.7985C45.1329 20.7179 45.2121 20.7179 45.2121 20.6373C45.4496 20.3955 45.8455 20.1536 46.1622 19.9924C46.3206 19.8312 47.0332 19.4282 47.6667 19.1057C47.9834 19.2669 48.3793 19.3476 48.7752 19.4282C48.8544 19.4282 49.0128 19.5088 49.0919 19.5088C49.1711 19.5088 49.3295 19.5894 49.4087 19.5894C50.9923 19.3476 51.9424 19.3476 52.8134 19.9118C52.9718 19.9118 53.051 19.9118 53.2093 19.9118C53.3677 19.9118 53.4469 19.9118 53.6052 19.9118C54.7138 20.3149 56.6141 20.3149 57.4059 19.8312C57.5643 19.8312 57.7227 19.8312 57.881 19.8312C58.1977 19.8312 58.5936 19.8312 58.9104 19.8312C59.0687 19.8312 59.2271 19.8312 59.3855 19.8312C60.4148 20.1536 61.365 20.1536 62.5527 19.7506C62.7111 19.7506 62.8694 19.7506 63.0278 19.7506C63.1861 19.7506 63.2653 19.7506 63.4237 19.7506C64.0571 19.3476 65.5616 19.3476 66.5909 19.3476C66.7493 19.3476 66.9868 19.3476 67.1452 19.3476C67.2244 19.3476 67.3035 19.2669 67.4619 19.2669C67.5411 19.2669 67.6994 19.1863 67.7786 19.1863C68.8872 19.4282 70.2332 19.7506 70.3916 19.9118C70.55 20.073 70.6291 20.1536 70.7875 20.3149C70.8667 20.3955 70.8667 20.4761 70.8667 20.4761C69.9165 21.2015 72.8462 21.2015 71.6585 21.7658C71.6585 21.8464 71.7377 21.927 71.7377 22.0076C71.8169 22.2495 71.896 22.4913 71.896 22.6525C71.896 22.7331 71.896 22.8137 71.9752 22.8943C71.896 23.1361 71.896 24.1035 72.0544 24.2647C72.0544 24.3453 72.0544 24.4259 72.0544 24.5065V24.7483C72.0544 24.8289 72.0544 24.9095 72.0544 24.9901C71.8169 26.0381 71.8169 26.0381 71.9752 26.6023C71.9752 26.6829 71.9752 26.7635 71.9752 26.8441C71.8169 28.8593 71.6585 30.7939 72.8462 32.6479C72.8462 33.2122 72.767 33.6152 72.6878 33.9377Z" fill="#502110"/>
<path d="M53.6054 3.38692C57.7228 2.74205 61.6027 2.90327 65.245 3.87057C68.8873 4.83787 71.3419 6.45004 72.4505 8.62647C73.559 10.8029 74.9842 13.3824 76.0136 16.5261C77.0429 19.6698 76.5679 21.6044 76.0136 21.4432C75.301 20.8789 74.1133 19.9923 71.7378 19.2668C69.3624 18.5413 66.116 17.977 61.9986 17.6546C57.8812 17.3322 52.5761 17.574 47.8252 18.8637C43.0743 20.0729 40.6989 21.1208 39.0361 21.8462C38.7194 22.0881 38.561 21.8462 38.561 21.0402C39.432 16.2037 40.6197 12.5763 42.1242 10.158C43.7078 7.57856 45.0539 5.88578 46.004 5.24091C46.9542 4.67665 49.488 4.03179 53.6054 3.38692Z" fill="#FDC99D"/>
<path d="M104.44 106.324L87.4949 112.047L87.1782 115.11L104.44 109.548V106.324Z" fill="#542317"/>
<path d="M9.97656 106.324L27.0005 112.047L27.238 115.11L10.0557 109.548L9.97656 106.324Z" fill="#542317"/>
<path d="M87.653 123.735C87.3363 132.925 88.1281 140.986 89.6325 150.659C89.8701 152.109 90.1076 153.641 90.4244 155.173C90.5827 156.624 90.6619 158.155 90.7411 159.606C91.0578 164.12 91.137 168.554 90.9786 173.148C90.9786 173.471 91.0578 173.874 91.0578 174.196C91.137 175.889 91.2954 177.501 91.3745 179.033C91.7704 184.353 92.008 187.9 92.008 187.9C92.008 187.9 90.5035 187.9 87.9698 187.819C86.7029 187.738 85.1192 187.738 83.3773 187.658C80.2892 187.819 77.2011 187.98 74.1923 188.141C72.6087 188.222 71.025 188.303 69.4414 188.383C67.937 188.464 66.4326 188.464 64.9281 188.544C58.2769 188.544 51.9424 188.544 45.608 188.464C37.8482 188.383 30.2469 188.141 22.2496 187.577C22.7247 182.66 23.1998 177.985 23.5957 173.39C23.5957 173.309 23.5957 173.148 23.5957 173.068C23.754 171.617 23.8332 170.166 23.9916 168.715C23.6749 162.589 24.2291 157.027 24.9418 151.626C25.2585 149.288 25.5752 146.951 25.8919 144.693C26.6837 138.728 27.238 132.683 26.6046 125.831C26.6046 124.219 26.5254 122.526 26.4462 120.914C26.367 119.463 26.367 118.093 26.2878 116.803C26.1295 113.82 26.0503 111.644 26.0503 111.644L10.0558 106.485C10.0558 106.485 9.58067 97.6182 12.1936 88.9125C14.3315 81.7383 18.4489 74.5642 26.6046 72.549C28.4257 72.0653 35.0769 69.8083 38.4817 68.5186C39.1151 68.2767 39.5902 68.0349 39.9861 67.8737C39.9861 67.8737 40.2237 68.1155 40.6988 68.5992C41.0947 69.0022 41.4906 69.4053 41.8073 69.8083C45.3704 75.5315 51.1506 79.4007 55.9807 83.9148C56.7725 84.7209 57.2476 85.2045 57.2476 85.2045C57.2476 85.2045 57.7227 84.7209 58.5145 83.9148C62.711 79.7231 68.5704 75.8539 71.8168 70.5338C72.3711 69.9695 72.8462 69.4859 73.2421 69.0828C74.0339 68.2767 74.509 67.7931 74.509 67.7931C75.6175 68.3573 78.468 69.4053 81.3186 70.3726C84.0899 71.3399 86.782 72.2266 87.8906 72.4684C96.7588 74.6448 100.876 82.8669 102.777 90.6859C104.756 98.7467 104.36 106.405 104.36 106.405L88.3657 111.563C88.3657 111.563 88.2865 112.934 88.2073 114.949C87.9698 118.093 87.7322 120.914 87.653 123.735Z" fill="#502110"/>
<path d="M45.5288 186.449V188.464C37.769 188.383 30.1677 188.141 22.1704 187.577C22.6455 182.66 23.1206 177.985 23.5165 173.39C23.5165 173.309 23.5165 173.148 23.5165 173.068H31.1179V179.516H38.2441V186.449H45.5288Z" fill="#7C161E"/>
<path d="M38.4026 130.748V123.816H31.2764V116.884H26.288C26.3672 118.173 26.3672 119.544 26.4463 120.995C26.5255 122.607 26.6047 124.3 26.6047 125.912C27.2381 132.522 26.6839 138.406 25.9712 144.21H25.8921C25.5753 146.547 25.2586 148.885 24.9419 151.142H31.2764V144.693H38.4026V137.761H45.5289V130.829L38.4026 130.748Z" fill="#7C161E"/>
<path d="M74.1926 172.503V165.49H81.3189V158.558H74.1926V151.626V151.545H66.9871V144.613H59.8609H52.7346V151.545H45.5291V151.626V158.558H38.4028V165.49H45.5291V172.503H52.7346V178.63H59.8609H66.9871V172.503H74.1926Z" fill="#7C161E"/>
<path d="M92.0081 187.98C92.0081 187.98 90.5036 187.98 87.9699 187.9C86.703 187.819 85.1193 187.819 83.3774 187.738C80.2893 187.9 77.2013 188.061 74.1924 188.222V186.449H81.3187V179.436H88.2866V174.196H90.9787C91.0579 175.889 91.2163 177.501 91.2955 179.033C91.6914 184.433 92.0081 187.98 92.0081 187.98Z" fill="#7C161E"/>
<path d="M45.5291 74.9673V81.9802H38.4028V88.9932H31.2765V95.9255H16.9448V88.9932H12.1147C14.2526 81.819 18.37 74.6449 26.5257 72.6297C28.3468 72.146 34.998 69.889 38.4028 68.5992V75.0479C38.4028 74.9673 45.5291 74.9673 45.5291 74.9673Z" fill="#7C161E"/>
<path d="M45.5291 102.858H38.4028V109.79H45.5291V116.803H52.7346V123.735H59.8609H66.9871V116.803H74.1926V109.79H81.3189V102.858H74.1926V95.8447H66.9871V88.9124H59.8609H52.7346V95.8447H45.5291V102.858Z" fill="#7C161E"/>
<path d="M88.4449 150.659V144.613H81.3187V137.681H74.1924V130.748H81.3187V123.816H87.6531C87.3364 133.005 88.1282 141.066 89.6327 150.739L88.4449 150.659Z" fill="#7C161E"/>
<path d="M102.777 90.847V95.9254H88.4449V88.9931H81.3187V81.9801H74.1924V74.9672H81.3187V70.4531C84.09 71.4204 86.7821 72.3071 87.8907 72.5489C96.7589 74.7254 100.876 82.9474 102.777 90.847Z" fill="#7C161E"/>
</g>
</g>
<defs>
<filter id="filter0_d_332_224" x="-2.84424" y="3" width="120.423" height="400" filterUnits="userSpaceOnUse" color-interpolation-filters="sRGB">
<feFlood flood-opacity="0" result="BackgroundImageFix"/>
<feColorMatrix in="SourceAlpha" type="matrix" values="0 0 0 0 0 0 0 0 0 0 0 0 0 0 0 0 0 0 127 0" result="hardAlpha"/>
<feOffset dy="4"/>
<feGaussianBlur stdDeviation="2"/>
<feComposite in2="hardAlpha" operator="out"/>
<feColorMatrix type="matrix" values="0 0 0 0 0 0 0 0 0 0 0 0 0 0 0 0 0 0 0.25 0"/>
<feBlend mode="normal" in2="BackgroundImageFix" result="effect1_dropShadow_332_224"/>
<feBlend mode="normal" in="SourceGraphic" in2="effect1_dropShadow_332_224" result="shape"/>
</filter>
<clipPath id="clip0_332_224">
<rect width="116" height="403" fill="white"/>
</clipPath>
</defs>
</svg>
