<svg width="100" height="100" viewBox="0 0 100 100" fill="none" xmlns="http://www.w3.org/2000/svg">
<path d="M89.6449 64.9159L64.9159 89.6449C61.7757 92.7851 56.6729 92.7851 53.5327 89.6449L10.3551 46.4673C7.21495 43.3271 7.21495 38.2243 10.3551 35.0841L35.0841 10.3551C38.2243 7.21495 43.3271 7.21495 46.4673 10.3551L89.6449 53.5327C92.7851 56.6729 92.7851 61.7757 89.6449 64.9159Z" fill="#C6B054"/>
<path fill-rule="evenodd" clip-rule="evenodd" d="M32.4673 23.9626C32.4673 25.2633 31.4129 26.3178 30.1122 26.3178C28.8115 26.3178 27.757 25.2633 27.757 23.9626C27.757 22.6619 28.8115 21.6075 30.1122 21.6075C31.4129 21.6075 32.4673 22.6619 32.4673 23.9626ZM22.1308 34.4299C23.4315 34.4299 24.486 33.3755 24.486 32.0748C24.486 30.7741 23.4315 29.7196 22.1308 29.7196C20.8301 29.7196 19.7757 30.7741 19.7757 32.0748C19.7757 33.3755 20.8301 34.4299 22.1308 34.4299ZM14.1495 42.4112C15.4502 42.4112 16.5047 41.3568 16.5047 40.0561C16.5047 38.7554 15.4502 37.7009 14.1495 37.7009C12.8488 37.7009 11.7944 38.7554 11.7944 40.0561C11.7944 41.3568 12.8488 42.4112 14.1495 42.4112ZM21.3458 49.7383C22.6465 49.7383 23.7009 48.6839 23.7009 47.3832C23.7009 46.0825 22.6465 45.028 21.3458 45.028C20.0451 45.028 18.9907 46.0825 18.9907 47.3832C18.9907 48.6839 20.0451 49.7383 21.3458 49.7383ZM31.8131 39.271C31.8131 40.5717 30.7586 41.6262 29.4579 41.6262C28.1572 41.6262 27.1028 40.5717 27.1028 39.271C27.1028 37.9703 28.1572 36.9159 29.4579 36.9159C30.7586 36.9159 31.8131 37.9703 31.8131 39.271ZM37.4392 33.6449C38.74 33.6449 39.7944 32.5904 39.7944 31.2897C39.7944 29.989 38.74 28.9346 37.4392 28.9346C36.1385 28.9346 35.0841 29.989 35.0841 31.2897C35.0841 32.5904 36.1385 33.6449 37.4392 33.6449ZM31.028 54.5794C31.028 55.8801 29.9736 56.9346 28.6729 56.9346C27.3722 56.9346 26.3177 55.8801 26.3177 54.5794C26.3177 53.2787 27.3722 52.2243 28.6729 52.2243C29.9736 52.2243 31.028 53.2787 31.028 54.5794ZM36.6542 48.9533C37.9549 48.9533 39.0094 47.8988 39.0094 46.5981C39.0094 45.2974 37.9549 44.243 36.6542 44.243C35.3535 44.243 34.2991 45.2974 34.2991 46.5981C34.2991 47.8988 35.3535 48.9533 36.6542 48.9533ZM46.9907 38.486C46.9907 39.7867 45.9362 40.8411 44.6355 40.8411C43.3348 40.8411 42.2804 39.7867 42.2804 38.486C42.2804 37.1853 43.3348 36.1308 44.6355 36.1308C45.9362 36.1308 46.9907 37.1853 46.9907 38.486ZM36 64.2617C37.3007 64.2617 38.3551 63.2073 38.3551 61.9065C38.3551 60.6058 37.3007 59.5514 36 59.5514C34.6993 59.5514 33.6448 60.6058 33.6448 61.9065C33.6448 63.2073 34.6993 64.2617 36 64.2617ZM46.3364 53.9252C46.3364 55.2259 45.282 56.2804 43.9813 56.2804C42.6806 56.2804 41.6262 55.2259 41.6262 53.9252C41.6262 52.6245 42.6806 51.5701 43.9813 51.5701C45.282 51.5701 46.3364 52.6245 46.3364 53.9252ZM51.9626 48.1682C53.2633 48.1682 54.3178 47.1138 54.3178 45.8131C54.3178 44.5124 53.2633 43.4579 51.9626 43.4579C50.6619 43.4579 49.6075 44.5124 49.6075 45.8131C49.6075 47.1138 50.6619 48.1682 51.9626 48.1682ZM45.6823 69.2336C45.6823 70.5344 44.6278 71.5888 43.3271 71.5888C42.0264 71.5888 40.972 70.5344 40.972 69.2336C40.972 67.9329 42.0264 66.8785 43.3271 66.8785C44.6278 66.8785 45.6823 67.9329 45.6823 69.2336ZM51.3084 63.6075C52.6091 63.6075 53.6635 62.553 53.6635 61.2523C53.6635 59.9516 52.6091 58.8972 51.3084 58.8972C50.0077 58.8972 48.9532 59.9516 48.9532 61.2523C48.9532 62.553 50.0077 63.6075 51.3084 63.6075ZM61.6448 53.1402C61.6448 54.4409 60.5904 55.4953 59.2897 55.4953C57.989 55.4953 56.9346 54.4409 56.9346 53.1402C56.9346 51.8395 57.989 50.785 59.2897 50.785C60.5904 50.785 61.6448 51.8395 61.6448 53.1402ZM50.5233 78.9159C51.8241 78.9159 52.8785 77.8615 52.8785 76.5608C52.8785 75.26 51.8241 74.2056 50.5233 74.2056C49.2226 74.2056 48.1682 75.26 48.1682 76.5608C48.1682 77.8615 49.2226 78.9159 50.5233 78.9159ZM60.9907 68.4486C60.9907 69.7493 59.9362 70.8037 58.6355 70.8037C57.3348 70.8037 56.2804 69.7493 56.2804 68.4486C56.2804 67.1479 57.3348 66.0935 58.6355 66.0935C59.9362 66.0935 60.9907 67.1479 60.9907 68.4486ZM66.486 62.8224C67.7867 62.8224 68.8411 61.768 68.8411 60.4673C68.8411 59.1666 67.7867 58.1122 66.486 58.1122C65.1853 58.1122 64.1309 59.1666 64.1309 60.4673C64.1309 61.768 65.1853 62.8224 66.486 62.8224ZM60.2056 83.757C60.2056 85.0577 59.1511 86.1122 57.8504 86.1122C56.5497 86.1122 55.4953 85.0577 55.4953 83.757C55.4953 82.4563 56.5497 81.4019 57.8504 81.4019C59.1511 81.4019 60.2056 82.4563 60.2056 83.757ZM65.8318 78.1308C67.1325 78.1308 68.1869 77.0764 68.1869 75.7757C68.1869 74.475 67.1325 73.4206 65.8318 73.4206C64.5311 73.4206 63.4766 74.475 63.4766 75.7757C63.4766 77.0764 64.5311 78.1308 65.8318 78.1308ZM76.1682 67.6636C76.1682 68.9643 75.1138 70.0187 73.8131 70.0187C72.5124 70.0187 71.4579 68.9643 71.4579 67.6636C71.4579 66.3628 72.5124 65.3084 73.8131 65.3084C75.1138 65.3084 76.1682 66.3628 76.1682 67.6636Z" fill="white"/>
<path fill-rule="evenodd" clip-rule="evenodd" d="M38.8785 17.5514C40.1792 17.5514 41.2337 16.497 41.2337 15.1963C41.2337 13.8956 40.1792 12.8411 38.8785 12.8411C37.5778 12.8411 36.5234 13.8956 36.5234 15.1963C36.5234 16.497 37.5778 17.5514 38.8785 17.5514ZM46.2056 24.8785C47.5063 24.8785 48.5607 23.8241 48.5607 22.5234C48.5607 21.2227 47.5063 20.1682 46.2056 20.1682C44.9049 20.1682 43.8505 21.2227 43.8505 22.5234C43.8505 23.8241 44.9049 24.8785 46.2056 24.8785ZM55.8878 29.8505C55.8878 31.1512 54.8334 32.2056 53.5327 32.2056C52.232 32.2056 51.1776 31.1512 51.1776 29.8505C51.1776 28.5498 52.232 27.4953 53.5327 27.4953C54.8334 27.4953 55.8878 28.5498 55.8878 29.8505ZM60.8598 39.5327C62.1606 39.5327 63.215 38.4783 63.215 37.1776C63.215 35.8769 62.1606 34.8224 60.8598 34.8224C59.5591 34.8224 58.5047 35.8769 58.5047 37.1776C58.5047 38.4783 59.5591 39.5327 60.8598 39.5327ZM70.4112 44.3738C70.4112 45.6745 69.3568 46.729 68.0561 46.729C66.7554 46.729 65.7009 45.6745 65.7009 44.3738C65.7009 43.0731 66.7554 42.0187 68.0561 42.0187C69.3568 42.0187 70.4112 43.0731 70.4112 44.3738ZM75.3832 54.0561C76.6839 54.0561 77.7383 53.0016 77.7383 51.7009C77.7383 50.4002 76.6839 49.3458 75.3832 49.3458C74.0825 49.3458 73.028 50.4002 73.028 51.7009C73.028 53.0016 74.0825 54.0561 75.3832 54.0561ZM85.0654 59.028C85.0654 60.3287 84.011 61.3832 82.7103 61.3832C81.4096 61.3832 80.3551 60.3287 80.3551 59.028C80.3551 57.7273 81.4096 56.6729 82.7103 56.6729C84.011 56.6729 85.0654 57.7273 85.0654 59.028Z" fill="#7C161E"/>
<path fill-rule="evenodd" clip-rule="evenodd" d="M37.1776 17.028C38.0935 18.0748 39.6635 18.0748 40.7103 17.028C41.757 15.9813 41.757 14.4112 40.7103 13.4953C39.7944 12.4486 38.2243 12.4486 37.1776 13.4953C36.1308 14.4112 36.1308 15.9813 37.1776 17.028ZM37.3084 16.7664C36.3925 15.8505 36.3925 14.5421 37.3084 13.6262C38.2243 12.8411 39.6635 12.8411 40.4486 13.6262C41.3645 14.5421 41.3645 15.8505 40.4486 16.7664C39.5327 17.6822 38.2243 17.6822 37.3084 16.7664ZM31.8131 25.7944C30.7663 26.8411 29.1962 26.8411 28.2803 25.7944C27.2336 24.7477 27.2336 23.1776 28.2803 22.2617C29.3271 21.215 30.8972 21.215 31.8131 22.2617C32.8598 23.1776 32.8598 24.7477 31.8131 25.7944ZM28.542 22.3925C27.6261 23.3084 27.6261 24.6168 28.542 25.5327C29.4579 26.4486 30.7663 26.4486 31.6822 25.5327C32.5981 24.6168 32.5981 23.3084 31.6822 22.3925C30.7663 21.6075 29.3271 21.6075 28.542 22.3925ZM20.4299 33.7757C21.3458 34.8224 22.9159 34.8224 23.9626 33.7757C24.8785 32.8598 24.8785 31.2897 23.9626 30.243C23.0467 29.1963 21.4766 29.1963 20.4299 30.243C19.3832 31.1589 19.3832 32.729 20.4299 33.7757ZM20.5607 33.6449C19.6448 32.729 19.6448 31.4206 20.5607 30.5047C21.4766 29.5888 22.785 29.5888 23.7009 30.5047C24.6168 31.4206 24.6168 32.729 23.7009 33.6449C22.785 34.5608 21.4766 34.5608 20.5607 33.6449ZM12.3178 41.8879C13.2336 42.9346 14.8037 42.9346 15.8505 41.8879C16.8972 40.8411 16.8972 39.271 15.8505 38.3551C14.9346 37.3084 13.3645 37.4393 12.3178 38.3551C11.271 39.271 11.271 40.8411 12.3178 41.8879ZM12.5794 41.6262C11.6636 40.7103 11.6636 39.4019 12.5794 38.486C13.3645 37.7009 14.8037 37.7009 15.7196 38.486C16.6355 39.4019 16.6355 40.7103 15.7196 41.6262C14.8037 42.5421 13.4953 42.5421 12.5794 41.6262ZM23.1776 49.0841C22.1308 50.1308 20.5607 50.1308 19.6448 49.0841C18.5981 48.0374 18.5981 46.4673 19.6448 45.5514C20.6916 44.5047 22.2617 44.5047 23.1776 45.5514C24.2243 46.5981 24.2243 48.1682 23.1776 49.0841ZM19.7757 45.8131C18.8598 46.729 18.8598 48.0374 19.7757 48.9533C20.6916 49.8692 22 49.8692 22.9159 48.9533C23.8318 48.0374 23.8318 46.729 22.9159 45.8131C22.1308 44.8972 20.6916 44.8972 19.7757 45.8131ZM27.6261 41.1028C28.542 42.1495 30.1121 42.1495 31.1589 41.1028C32.2056 40.1869 32.2056 38.486 31.1589 37.5701C30.243 36.5234 28.6729 36.5234 27.6261 37.5701C26.5794 38.486 26.7103 40.0561 27.6261 41.1028ZM27.8878 40.972C26.9719 40.0561 26.9719 38.7477 27.8878 37.8318C28.6729 36.9159 30.1121 36.9159 31.028 37.8318C31.9439 38.7477 31.9439 40.0561 31.028 40.972C30.1121 41.8879 28.8037 41.8879 27.8878 40.972ZM39.1402 32.9907C38.0935 34.0374 36.5234 34.0374 35.6075 32.9907C34.5608 31.9439 34.5608 30.3738 35.6075 29.4579C36.6542 28.4112 38.2243 28.4112 39.1402 29.4579C40.0561 30.5047 40.1869 32.0748 39.1402 32.9907ZM35.8692 29.7196C34.9533 30.6355 34.9533 31.9439 35.8692 32.8598C36.7851 33.7757 38.0935 33.7757 39.0094 32.8598C39.9253 31.9439 39.9253 30.6355 39.0094 29.7196C38.0935 28.8037 36.6542 28.8037 35.8692 29.7196ZM44.5047 24.3551C45.4205 25.4019 46.9906 25.4019 48.0374 24.3551C48.9533 23.3084 48.9533 21.7383 48.0374 20.8224C47.1215 19.7757 45.5514 19.7757 44.5047 20.8224C43.4579 21.7383 43.4579 23.3084 44.5047 24.3551ZM44.6355 24.0935C43.7196 23.1776 43.7196 21.8692 44.6355 20.9533C45.5514 20.1682 46.8598 20.1682 47.7757 20.9533C48.6916 21.8692 48.6916 23.1776 47.7757 24.0935C46.8598 25.0093 45.5514 25.0093 44.6355 24.0935ZM30.5046 56.4112C29.4579 57.458 27.8878 57.458 26.9719 56.4112C25.9252 55.3645 25.9252 53.7944 26.9719 52.8785C28.0187 51.8318 29.5888 51.8318 30.5046 52.8785C31.4205 53.9252 31.4205 55.4953 30.5046 56.4112ZM27.1028 53.1402C26.1869 54.0561 26.1869 55.3645 27.1028 56.2804C28.0187 57.1963 29.3271 57.1963 30.243 56.2804C31.1589 55.3645 31.1589 54.0561 30.243 53.1402C29.3271 52.2243 28.0187 52.2243 27.1028 53.1402ZM34.9533 48.4299C35.8692 49.4766 37.4393 49.4766 38.486 48.4299C39.5327 47.3832 39.5327 45.8131 38.486 44.8972C37.5701 43.8505 36 43.8505 34.9533 44.8972C33.9066 45.8131 34.0374 47.3832 34.9533 48.4299ZM35.0841 48.1682C34.1682 47.2523 34.1682 45.9439 35.0841 45.028C36 44.243 37.4393 44.243 38.2243 45.028C39.1402 45.9439 39.1402 47.2523 38.2243 48.1682C37.3084 49.0841 36 49.0841 35.0841 48.1682ZM46.4673 40.3178C45.4206 41.3645 43.8505 41.3645 42.9346 40.3178C41.8879 39.271 41.8879 37.7009 42.9346 36.785C43.9813 35.7383 45.5514 35.7383 46.4673 36.785C47.3832 37.7009 47.3832 39.4019 46.4673 40.3178ZM43.0654 37.0467C42.1495 37.9626 42.1495 39.271 43.0654 40.1869C43.9813 41.1028 45.2897 41.1028 46.2056 40.1869C47.1215 39.271 47.1215 37.9626 46.2056 37.0467C45.4206 36.1308 43.9813 36.1308 43.0654 37.0467ZM51.7009 31.5514C52.6168 32.5981 54.1869 32.5981 55.2336 31.5514C56.2803 30.6355 56.1495 29.0654 55.2336 28.0187C54.3177 26.972 52.7476 26.972 51.7009 28.0187C50.6542 28.9346 50.785 30.5047 51.7009 31.5514ZM51.9626 31.4206C51.0467 30.5047 51.0467 29.1963 51.9626 28.2804C52.7476 27.3645 54.1869 27.3645 55.1028 28.2804C56.0187 29.1963 56.0187 30.5047 55.1028 31.4206C54.1869 32.3364 52.8785 32.3364 51.9626 31.4206ZM37.8318 63.7383C36.7851 64.785 35.215 64.785 34.2991 63.7383C33.2524 62.6916 33.2524 61.1215 34.2991 60.2056C35.3458 59.1589 36.9159 59.1589 37.8318 60.2056C38.7477 61.1215 38.7477 62.6916 37.8318 63.7383ZM34.4299 60.3365C33.514 61.2523 33.514 62.5608 34.4299 63.4766C35.3458 64.3925 36.6542 64.3925 37.5701 63.4766C38.486 62.5608 38.486 61.2523 37.5701 60.3365C36.6542 59.5514 35.215 59.5514 34.4299 60.3365ZM42.2803 55.757C43.1962 56.8037 44.7663 56.8037 45.8131 55.757C46.7289 54.7103 46.7289 53.271 45.8131 52.2243C44.8972 51.1776 43.3271 51.1776 42.2803 52.2243C41.2336 53.1402 41.2336 54.7103 42.2803 55.757ZM42.4112 55.4953C41.4953 54.5794 41.4953 53.271 42.4112 52.3551C43.3271 51.4393 44.6355 51.4393 45.5514 52.3551C46.4673 53.271 46.4673 54.5794 45.5514 55.4953C44.6355 56.4112 43.3271 56.4112 42.4112 55.4953ZM53.7944 47.6449C52.7477 48.6916 51.1776 48.6916 50.2617 47.6449C49.2149 46.5981 49.2149 45.028 50.2617 44.1122C51.3084 43.0654 52.8785 43.0654 53.7944 44.1122C54.7103 45.028 54.7103 46.5981 53.7944 47.6449ZM50.3925 44.243C49.4766 45.1589 49.4766 46.4673 50.3925 47.3832C51.3084 48.2991 52.6168 48.2991 53.5327 47.3832C54.4486 46.4673 54.4486 45.1589 53.5327 44.243C52.6168 43.4579 51.3084 43.4579 50.3925 44.243ZM59.0281 38.8785C59.9439 39.9252 61.514 39.9252 62.5608 38.8785C63.6075 37.9626 63.4767 36.3925 62.5608 35.3458C61.6449 34.2991 60.0748 34.2991 59.0281 35.3458C57.9813 36.2617 58.1122 37.8318 59.0281 38.8785ZM59.2897 38.7477C58.3739 37.8318 58.3739 36.5234 59.2897 35.6075C60.0748 34.6916 61.514 34.6916 62.4299 35.6075C63.3458 36.5234 63.3458 37.8318 62.4299 38.7477C61.514 39.6635 60.2056 39.6635 59.2897 38.7477ZM45.028 71.0654C43.9813 72.1122 42.4112 72.1122 41.4953 71.0654C40.4486 70.0187 40.4486 68.4486 41.4953 67.5327C42.542 66.486 44.1121 66.486 45.028 67.5327C46.0747 68.4486 46.0747 70.0187 45.028 71.0654ZM41.757 67.6636C40.8411 68.5794 40.8411 69.8879 41.757 70.8037C42.6729 71.7196 43.9813 71.7196 44.8972 70.8037C45.8131 69.8879 45.8131 68.5794 44.8972 67.6636C43.9813 66.7477 42.542 66.7477 41.757 67.6636ZM49.6075 62.9533C50.5234 64 52.0934 64 53.1402 62.9533C54.0561 62.0374 54.0561 60.4673 53.1402 59.4206C52.2243 58.3738 50.6542 58.5047 49.6075 59.4206C48.5607 60.3365 48.6916 61.9065 49.6075 62.9533ZM49.7383 62.8224C48.8224 61.9065 48.8224 60.5981 49.7383 59.6822C50.6542 58.7664 51.9626 58.7664 52.8785 59.6822C53.7944 60.5981 53.7944 61.9065 52.8785 62.8224C51.9626 63.7383 50.6542 63.7383 49.7383 62.8224ZM60.9906 54.972C59.9439 56.0187 58.3738 56.0187 57.4579 54.972C56.542 53.9252 56.4112 52.3551 57.4579 51.4393C58.5047 50.3925 60.0748 50.3925 60.9906 51.4393C61.9065 52.486 62.0374 53.9252 60.9906 54.972ZM57.7196 51.5701C56.8037 52.486 56.8037 53.7944 57.7196 54.7103C58.6355 55.6262 59.9439 55.6262 60.8598 54.7103C61.7757 53.7944 61.7757 52.486 60.8598 51.5701C59.9439 50.6542 58.5047 50.6542 57.7196 51.5701ZM66.3551 46.2056C67.271 47.2523 68.8411 47.2523 69.8879 46.2056C70.8037 45.1589 70.8037 43.5888 69.8879 42.6729C68.972 41.6262 67.4019 41.6262 66.3551 42.6729C65.3084 43.5888 65.4393 45.1589 66.3551 46.2056ZM66.486 45.9439C65.5701 45.028 65.5701 43.7196 66.486 42.8037C67.4019 42.0187 68.8411 42.0187 69.6262 42.8037C70.5421 43.7196 70.5421 45.028 69.6262 45.9439C68.7103 46.8598 67.4019 46.8598 66.486 45.9439ZM52.3551 78.2617C51.3084 79.3084 49.7383 79.3084 48.8224 78.2617C47.7757 77.215 47.7757 75.6449 48.8224 74.729C49.8691 73.6823 51.4392 73.6823 52.3551 74.729C53.4018 75.7757 53.4018 77.3458 52.3551 78.2617ZM48.9532 74.9907C48.0373 75.9065 48.0373 77.215 48.9532 78.1308C49.8691 79.0467 51.1775 79.0467 52.0934 78.1308C53.0093 77.215 53.0093 75.9065 52.0934 74.9907C51.3084 74.0748 49.8691 74.0748 48.9532 74.9907ZM56.8038 70.2804C57.7196 71.3271 59.2897 71.3271 60.3365 70.2804C61.3832 69.3645 61.2524 67.7944 60.3365 66.7477C59.4206 65.7009 57.8505 65.7009 56.8038 66.7477C55.757 67.6636 55.8879 69.2336 56.8038 70.2804ZM57.0654 70.0187C56.1495 69.1028 56.1495 67.7944 57.0654 66.8785C57.8505 66.0935 59.2897 66.0935 60.2056 66.8785C61.1215 67.7944 61.1215 69.1028 60.2056 70.0187C59.2897 70.9346 57.9813 70.9346 57.0654 70.0187ZM68.3178 62.1682C67.2711 63.215 65.701 63.215 64.7851 62.1682C63.8692 61.1215 63.7383 59.5514 64.7851 58.6355C65.8318 57.5888 67.4019 57.5888 68.3178 58.6355C69.3645 59.6822 69.3645 61.2523 68.3178 62.1682ZM65.0468 58.8972C64.1309 59.8131 64.1309 61.1215 65.0468 62.0374C65.9626 62.9533 67.2711 62.9533 68.1869 62.0374C69.1028 61.1215 69.1028 59.8131 68.1869 58.8972C67.2711 57.9813 65.8318 57.9813 65.0468 58.8972ZM73.6822 53.5327C74.5981 54.5794 76.1682 54.5794 77.215 53.5327C78.1308 52.486 78.1308 51.0467 77.215 50C76.2991 48.9533 74.729 49.0841 73.6822 50C72.6355 50.9159 72.7663 52.486 73.6822 53.5327ZM73.8131 53.271C72.8972 52.3551 72.8972 51.0467 73.8131 50.1308C74.729 49.3458 76.0374 49.3458 76.9533 50.1308C77.8691 51.0467 77.8691 52.3551 76.9533 53.271C76.0374 54.1869 74.729 54.1869 73.8131 53.271ZM59.6823 85.5888C58.6355 86.6355 57.0654 86.6355 56.1495 85.5888C55.1028 84.5421 55.1028 82.972 56.1495 82.0561C57.1963 81.0093 58.7664 81.0093 59.6823 82.0561C60.5981 82.972 60.5981 84.6729 59.6823 85.5888ZM56.2804 82.3178C55.3645 83.2336 55.3645 84.5421 56.2804 85.4579C57.1963 86.3738 58.5047 86.3738 59.4206 85.4579C60.3365 84.5421 60.3365 83.2336 59.4206 82.3178C58.5047 81.4019 57.1963 81.4019 56.2804 82.3178ZM64.1308 77.6075C65.0467 78.6542 66.6168 78.6542 67.6635 77.6075C68.7103 76.5608 68.5794 75.1215 67.6635 74.0748C66.7477 73.028 65.1776 73.028 64.1308 74.0748C63.0841 74.9907 63.215 76.5608 64.1308 77.6075ZM64.2617 77.3458C63.3458 76.4299 63.3458 75.1215 64.2617 74.2056C65.1776 73.4206 66.6168 73.4206 67.4019 74.2056C68.3178 75.1215 68.3178 76.4299 67.4019 77.3458C66.486 78.2617 65.1776 78.2617 64.2617 77.3458ZM75.6449 69.4953C74.5981 70.5421 73.0281 70.5421 72.1122 69.4953C71.0654 68.4486 71.0654 66.8785 72.1122 65.9626C73.1589 64.9159 74.729 64.9159 75.6449 65.9626C76.5608 66.8785 76.5608 68.5794 75.6449 69.4953ZM72.243 66.0935C71.3271 67.0094 71.3271 68.3178 72.243 69.2337C73.1589 70.1495 74.4673 70.1495 75.3832 69.2337C76.2991 68.3178 76.2991 67.0094 75.3832 66.0935C74.5981 65.3084 73.1589 65.3084 72.243 66.0935ZM80.8785 60.729C81.7944 61.7757 83.3645 61.7757 84.4112 60.729C85.458 59.8131 85.3271 58.243 84.4112 57.1963C83.4953 56.1495 81.9253 56.2804 80.8785 57.1963C79.8318 58.1122 79.9626 59.6822 80.8785 60.729ZM81.1402 60.5981C80.2243 59.6822 80.2243 58.3738 81.1402 57.4579C81.9253 56.5421 83.3645 56.5421 84.2804 57.4579C85.1963 58.3738 85.1963 59.6822 84.2804 60.5981C83.3645 61.514 82.0561 61.514 81.1402 60.5981Z" fill="#C6CDC9"/>
</svg>
