<svg width="300" height="300" viewBox="0 0 300 300" fill="none" xmlns="http://www.w3.org/2000/svg">
<g clip-path="url(#clip0_569_7338)">
<path d="M180.777 46.47C180.543 46.7974 180.356 47.1248 180.262 47.4522C181.244 51.1939 180.262 54.7485 178.111 57.4144C178.017 57.7418 177.783 58.1627 177.596 58.4901C176.099 61.7173 174.042 64.8042 171.376 67.1895C172.218 67.8443 172.872 68.6862 173.2 69.528C173.527 70.5102 173.621 71.3521 173.434 72.1004C173.761 72.194 174.182 72.3343 174.509 72.5214C175.679 73.1761 176.427 74.2519 176.848 75.655C177.175 77.0581 177.082 78.3209 176.333 79.7241C176.006 80.3788 175.585 80.8933 175.024 81.3143C176.193 82.0626 176.941 83.0448 177.362 84.214C177.877 85.5236 177.783 86.7864 177.128 87.8622C176.474 89.0314 175.538 89.6862 174.135 90.0136C172.732 90.2475 171.469 90.0136 170.066 89.2653C169.832 89.1717 169.645 89.0314 169.552 88.9379C168.803 89.9201 167.821 90.5281 166.558 90.8555C164.968 91.2764 163.425 91.0894 161.928 90.341C160.618 89.6862 159.776 88.7508 159.262 87.4412H159.168C158.186 87.7686 157.251 87.6751 156.269 87.1138C155.286 86.5526 154.772 85.8043 154.538 84.8688C154.304 84.027 154.304 83.1383 154.772 82.2964C153.93 82.39 153.041 82.2029 152.2 81.6417C151.217 81.1272 150.469 80.3321 150.048 79.3031C149.627 80.3788 148.879 81.1272 147.897 81.6417C147.055 82.0626 146.166 82.2964 145.324 82.2964C145.652 83.1383 145.745 84.027 145.558 84.8688C145.324 85.851 144.716 86.6929 143.828 87.1138C142.986 87.5348 142.004 87.7686 140.928 87.4412H140.834C140.32 88.7508 139.431 89.6862 138.168 90.341C136.765 91.1829 135.175 91.3232 133.538 90.8555C132.228 90.5281 131.293 89.8733 130.545 88.9379C130.311 89.0314 130.124 89.1717 129.89 89.2653C128.58 90.0136 127.224 90.2475 125.914 90.0136C124.511 89.6862 123.576 89.0314 122.921 87.8622C122.266 86.6929 122.266 85.5236 122.687 84.214C123.108 83.0448 123.857 82.0626 125.026 81.3143C124.511 80.8933 124.044 80.3321 123.716 79.7241C122.968 78.4145 122.874 77.0581 123.202 75.655C123.529 74.2519 124.277 73.1761 125.54 72.5214C125.868 72.2875 126.289 72.194 126.616 72.1004C126.382 71.2585 126.382 70.3699 126.85 69.528C127.271 68.3588 128.159 67.3766 129.516 66.6282C129.75 66.5347 129.843 66.3944 130.03 66.3944C127.551 64.4768 125.4 62.2318 123.716 59.6126C123.482 59.2852 123.295 58.8643 123.061 58.4434C120.395 55.1226 117.823 51.5681 119.928 47.499C119.928 47.2651 119.928 47.2651 119.834 47.1716C117.355 44.2718 116.841 39.6415 120.91 37.303C121.004 37.2094 121.144 37.0691 121.237 36.7885C118.992 32.9065 119.413 27.7617 124.231 26.1715C123.997 25.9377 123.81 25.5167 123.716 25.0958C122.734 21.1203 125.634 17.0512 129.843 18.0334C129.843 17.5189 129.843 16.9577 130.077 16.4432C130.171 16.1158 130.311 15.7884 130.498 15.3675C131.995 12.5612 135.315 11.4855 139.104 12.0467C139.338 11.7194 139.525 11.392 139.759 11.0646C142.237 8.07123 145.979 6.90196 149.206 10.3162C149.44 10.4098 149.721 10.4098 150.048 10.3162C153.182 6.15363 158.327 8.25831 160.993 11.4855C161.413 11.2516 161.834 11.1581 162.302 11.0646C166.278 10.3162 169.598 12.7951 170.019 16.8641C170.44 16.9577 170.861 17.1915 171.329 17.3786C174.65 18.9688 177.222 21.4477 177.222 25.0958C177.222 25.5167 177.128 25.9377 177.128 26.4054C181.104 28.8842 183.676 33.4678 179.701 37.4433C179.701 37.5368 179.794 37.5368 179.935 37.6771C181.104 38.0981 181.104 39.5947 181.993 40.2495C182.086 40.4834 182.226 40.764 182.32 41.0914C183.068 43.009 181.759 44.7395 180.777 46.47Z" fill="#512415"/>
<path d="M136.579 85.7109C134.989 84.4013 133.773 82.3901 133.165 79.5839C132.323 76.3567 132.65 73.5972 134.006 71.2119C133.352 74.2052 133.258 76.7776 133.679 79.0226C134.1 81.2676 135.082 83.5594 136.579 85.7109Z" fill="#9A4F2E"/>
<path d="M132.837 85.8509C131.528 84.7751 130.592 83.0446 129.938 80.7996C129.283 78.1337 129.517 75.8419 130.686 73.9243C130.172 76.4032 130.031 78.5546 130.359 80.3787C130.686 82.2027 131.528 84.0268 132.837 85.8509Z" fill="#9A4F2E"/>
<path d="M139.152 82.9512C137.982 81.969 137.094 80.4723 136.579 78.3208C136.065 75.9823 136.252 73.9244 137.234 72.1003C136.813 74.3453 136.72 76.2629 137 77.8999C137.328 79.6304 138.076 81.3142 139.152 82.9512Z" fill="#9A4F2E"/>
<path d="M163.613 85.7109C165.203 84.4013 166.42 82.3901 167.028 79.5839C167.869 76.3567 167.542 73.5972 166.186 71.2119C166.84 74.2052 166.934 76.7776 166.513 79.0226C166.186 81.3144 165.25 83.5594 163.613 85.7109Z" fill="#9A4F2E"/>
<path d="M167.496 85.8509C168.806 84.7751 169.741 83.0446 170.396 80.7996C171.051 78.1337 170.817 75.8419 169.648 73.9243C170.162 76.4032 170.302 78.5546 169.975 80.3787C169.554 82.2027 168.759 84.0268 167.496 85.8509Z" fill="#9A4F2E"/>
<path d="M161.039 82.9512C162.208 81.969 163.097 80.4723 163.611 78.3208C164.126 75.9823 163.939 73.9244 162.957 72.1003C163.378 74.3453 163.471 76.2629 163.191 77.8999C163.003 79.6304 162.255 81.3142 161.039 82.9512Z" fill="#9A4F2E"/>
<path d="M191.396 124.11C191.396 138.796 174.138 147.823 151.501 147.823H148.694C126.057 147.823 107.91 138.796 107.91 124.11C107.91 117.468 112.728 114.662 118.948 110.079C119.696 109.564 120.538 109.003 121.427 108.488C126.478 105.495 131.296 105.168 135.037 100.444C138.264 96.8893 137.189 83.1855 137.095 76.3102C136.861 73.9716 136.768 72.3347 136.768 72.3347C138.826 70.9315 143.082 70.2767 148.694 70.5106H149.77C149.77 70.5106 149.864 70.5106 150.004 70.5106C150.004 70.5106 150.097 70.5106 150.238 70.5106H151.313C156.879 70.417 161.182 70.9315 163.24 72.3347C163.24 72.3347 163.146 73.9249 162.913 76.3102C163.146 82.5307 161.837 96.7958 165.064 100.35C168.946 105.074 174.933 106.477 179.89 109.471C180.732 109.892 181.621 110.546 182.369 111.061C188.543 115.644 191.302 117.375 191.396 124.11Z" fill="#97492D"/>
<path d="M175.117 56.6662C174.789 59.7999 174.883 61.6239 173.62 63.2141C172.451 64.8044 171.703 65.4591 170.206 65.1317L169.691 65.0382L170.206 61.3901C171.282 54.6083 171.515 50.6796 172.03 49.37L172.264 48.9491C172.685 48.4346 174.181 48.1072 175.07 48.1072C175.164 48.1072 175.397 48.1072 175.397 48.1072C176.239 48.341 176.894 49.1829 177.222 50.4457C177.783 52.0359 175.304 54.3745 175.117 56.6662Z" fill="#9A4E2D"/>
<path d="M172.733 59.6595C173.061 59.566 173.248 59.145 173.248 58.6773C173.248 58.2096 173.341 57.8354 173.014 57.6016C173.014 57.6016 172.265 56.0114 172.265 55.8711C172.265 55.4501 172.265 54.8889 172.359 54.4679C172.452 53.7196 172.686 52.8777 173.201 52.3165C173.715 51.5682 174.697 51.3343 175.446 51.4746C175.68 51.4746 175.773 51.5682 175.96 51.5682C175.96 51.5682 174.885 51.5682 173.388 52.9713C172.967 53.3922 172.64 54.1405 172.546 54.8889C172.453 55.3098 173.294 57.2274 173.294 57.3677C173.528 57.7887 173.528 58.2096 173.528 58.2096C173.435 59.7063 172.873 59.7998 172.686 59.7998H172.593L172.172 59.7063L172.733 59.6595Z" fill="#512517"/>
<path d="M130.36 65.0382L129.845 65.1317C128.349 65.4591 127.6 64.8979 126.431 63.2141C125.122 61.4836 125.262 59.6596 124.934 56.6662C124.701 54.4212 122.269 51.9424 122.689 50.4457C123.11 49.0426 123.672 48.2943 124.514 48.1072C124.607 48.1072 124.747 48.1072 124.841 48.1072C125.589 48.1072 127.179 48.4346 127.647 48.9491L127.881 49.37C128.629 50.6796 128.863 54.6083 129.939 61.3901L130.36 65.0382Z" fill="#9A4E2D"/>
<path d="M127.366 59.6595C127.038 59.566 126.851 59.145 126.851 58.6773C126.851 58.2096 126.758 57.8354 127.085 57.6016C127.085 57.6016 127.834 56.0114 127.834 55.8711C127.834 55.4501 127.834 54.8889 127.74 54.4679C127.646 53.7196 127.413 52.8777 126.898 52.3165C126.384 51.5682 125.401 51.3343 124.653 51.4746C124.419 51.4746 124.326 51.5682 124.139 51.5682C124.139 51.5682 125.214 51.5682 126.711 52.9713C127.132 53.3922 127.459 54.1405 127.553 54.8889C127.646 55.3098 126.805 57.2274 126.805 57.3677C126.571 57.7887 126.571 58.2096 126.571 58.2096C126.664 59.7063 127.226 59.7998 127.413 59.7998H127.506L127.927 59.7063L127.366 59.6595Z" fill="#512517"/>
<path d="M172.968 49.8845C172.314 48.4813 171.893 46.9847 171.565 45.488C171.472 44.7397 171.331 43.9913 171.238 43.243C172.547 30.4746 160.714 20.8398 148.367 22.851C147.198 22.851 145.888 22.851 144.719 22.9445C136.44 24.0202 128.396 30.9891 128.957 39.782C128.864 41.1851 128.864 42.6818 128.63 44.0849C128.396 45.488 128.115 46.8911 127.32 48.1539C126.244 50.3054 126.806 52.9713 127.086 54.9357C127.18 55.7776 127.32 56.5259 127.414 57.2742C127.647 58.4435 127.928 59.6128 128.256 60.6885C128.583 61.7642 128.91 62.84 129.331 63.9157C131.67 73.3634 137.048 84.2142 147.806 85.1496C148.554 85.1496 149.302 85.2432 150.051 85.1496C150.799 85.1496 151.547 85.1496 152.296 85.1496C162.819 84.1674 168.151 72.8021 170.77 63.9157C171.098 62.84 171.518 61.7642 171.846 60.6885C172.173 59.6128 172.501 58.4435 172.688 57.2742C172.781 56.5259 172.922 55.684 173.015 54.9357C173.109 54.1874 173.109 53.3455 173.109 52.4569C173.202 51.7085 173.062 50.8667 172.968 49.8845Z" fill="#9A4E2D"/>
<path d="M154.307 63.3075C154.307 63.3075 155.476 63.9623 156.131 63.0737C156.973 61.7641 156.131 59.332 155.476 58.6772C157.534 63.7285 154.307 63.3075 154.307 63.3075Z" fill="#512415"/>
<path d="M146.027 63.3075C146.027 63.3075 144.858 63.9623 144.203 63.0737C143.361 61.7641 144.203 59.332 144.858 58.6772C142.8 63.7285 146.027 63.3075 146.027 63.3075Z" fill="#512415"/>
<path d="M152.671 61.998C152.998 61.9045 153.326 61.9045 153.419 61.7642C153.653 61.7642 153.934 61.7642 154.261 61.8577C154.355 61.8577 154.495 61.9512 154.588 62.0915C154.682 62.1851 154.682 62.3254 154.588 62.4189C154.588 62.5125 154.495 62.5125 154.355 62.5125C154.027 62.606 153.7 62.4189 153.372 62.4189C152.624 62.3254 151.314 62.8399 151.314 62.8399C151.314 62.8399 151.922 62.3254 152.671 61.998Z" fill="#512415"/>
<path d="M147.851 61.998C147.617 61.9045 147.337 61.9045 147.103 61.7642C146.869 61.7642 146.588 61.7642 146.355 61.8577C146.261 61.8577 146.121 61.9512 146.027 62.0915C145.934 62.1851 145.934 62.3254 146.027 62.4189C146.027 62.5125 146.121 62.5125 146.121 62.5125C146.448 62.606 146.635 62.4189 146.963 62.4189C147.617 62.3254 148.787 62.8399 148.787 62.8399C148.787 62.8399 148.506 62.3254 147.851 61.998Z" fill="#512415"/>
<path d="M143.548 42.4944C141.396 41.9799 140.414 41.9799 138.075 41.7461C137.748 41.7461 137.421 41.7461 137.234 41.7461C136.906 41.7461 136.579 41.7461 136.392 41.7461C132.744 42.2606 129.937 45.0668 129.844 45.4877C129.844 45.4877 132.182 44.0846 132.837 43.8975C133.352 43.6637 134.895 43.3831 135.409 43.3831C136.158 43.2895 136.906 43.2895 137.561 43.2895C137.888 43.2895 138.309 43.2895 138.637 43.3831C141.77 43.7105 142.706 44.9733 145.091 43.7105C145.372 43.3363 143.781 42.588 143.548 42.4944Z" fill="#512415"/>
<path d="M142.801 49.7908C141.726 49.3698 140.556 48.8086 138.919 48.715C136.581 48.4812 134.429 50.1182 132.699 51.7084C132.372 51.9422 132.184 51.9422 131.857 51.9422C131.623 51.9422 131.53 51.9422 131.343 51.9422L130.828 52.0358L131.249 52.3632C131.67 52.6906 132.091 52.8776 132.559 52.8776C133.307 52.8776 133.962 52.3632 134.617 51.7084C135.037 51.2874 135.458 50.8665 136.02 50.5391C135.926 50.773 135.926 51.0536 135.926 51.381C135.926 52.1293 136.16 52.6905 136.674 53.205C137.189 53.7195 137.75 53.9534 138.499 53.9534C139.247 53.9534 139.808 53.7195 140.323 53.205C140.837 52.6905 141.071 52.1293 141.071 51.381C141.071 50.8665 140.837 50.3052 140.65 49.8843C141.492 49.9779 141.96 50.1182 142.568 50.2117C142.895 50.3052 143.409 50.4455 144.064 50.6326L144.158 50.1182C143.69 50.2117 143.269 49.9778 142.801 49.7908Z" fill="#512415"/>
<path d="M156.13 42.4009C158.281 41.8864 159.357 41.9799 161.695 41.7461C162.023 41.7461 162.35 41.7461 162.537 41.7461C162.865 41.7461 163.192 41.7461 163.379 41.7461C167.027 42.2606 169.834 45.0668 169.927 45.4877C169.927 45.4877 167.589 44.0846 166.934 43.8975C166.419 43.6637 164.876 43.3831 164.361 43.3831C163.613 43.2895 162.865 43.2895 162.21 43.2895C161.882 43.2895 161.462 43.2895 161.134 43.3831C158.001 43.7105 157.065 44.9733 154.68 43.7105C154.306 43.3363 155.896 42.4944 156.13 42.4009Z" fill="#512415"/>
<path d="M168.008 52.0356C167.775 52.0356 167.681 52.0356 167.494 52.0356C167.167 52.0356 166.979 52.0356 166.652 51.8018C164.922 50.2116 162.77 48.6681 160.432 48.8085C158.841 48.902 157.625 49.3229 156.55 49.8842C156.129 50.118 155.708 50.2116 155.146 50.3987L155.24 50.9131C155.988 50.6793 156.409 50.5857 156.737 50.4922C157.391 50.2583 157.719 50.1648 158.654 50.1648C158.327 50.5857 158.233 51.147 158.233 51.6615C158.233 52.4098 158.467 52.9711 158.982 53.4855C159.496 54 160.057 54.2339 160.806 54.2339C161.554 54.2339 162.115 54 162.63 53.4855C163.144 52.9711 163.378 52.4098 163.378 51.6615C163.378 51.3341 163.285 51.0067 163.285 50.8196C163.799 51.147 164.267 51.5679 164.688 51.9889C165.343 52.6437 165.997 53.1581 166.746 53.1581C167.167 53.1581 167.588 53.0646 168.055 52.6437L168.476 52.3163L168.008 52.0356Z" fill="#512415"/>
<path d="M120.068 176.82C120.583 183.041 123.062 188.934 121.986 194.64C121.659 196.37 121.238 198.054 120.817 199.785H179.374C178.953 198.054 178.532 196.37 178.204 194.64C177.129 188.934 179.935 183.041 180.543 176.82C180.964 172.19 182.04 166.11 183.77 158.673C186.763 145.39 188.4 138.375 188.588 137.626L159.169 136.785V136.27L150.376 136.504L141.583 136.27V136.785L112.164 137.626C112.258 138.375 113.895 145.344 116.981 158.673C118.572 166.063 119.647 172.19 120.068 176.82Z" fill="#ED6E84"/>
<path d="M213.003 284.533C214.172 281.306 214.593 277.985 214.079 274.571C213.658 271.578 213.003 269.099 212.161 267.275L211.413 265.451C209.682 262.036 208.419 257.921 207.531 253.337C206.689 248.613 205.94 243.702 205.192 238.511C204.537 233.366 203.789 228.315 202.947 223.404C201.357 211.477 199.299 203.433 196.727 199.27C196.82 197.867 196.82 196.464 196.82 195.201C196.82 193.143 196.82 191.132 196.586 189.214C196.493 187.156 196.493 185.145 196.493 183.087C196.493 180.842 196.586 178.597 196.586 176.306C196.586 174.154 196.68 172.003 196.68 169.992C196.773 167.747 196.773 165.361 196.68 163.116C196.68 160.871 196.586 158.72 196.586 156.568C196.493 154.323 196.352 152.172 196.165 150.02C195.932 147.869 195.838 145.718 195.651 143.706C195.417 141.461 194.996 139.31 194.248 137.159C193.593 135.101 192.517 133.417 191.021 131.92C189.524 130.517 187.793 129.675 185.782 129.254C183.444 128.927 181.386 129.675 179.562 131.406C178.159 132.996 177.083 134.726 176.568 136.784C176.054 139.357 175.727 142.023 175.727 144.595C175.727 146.84 175.727 149.085 175.96 151.377C176.054 154.37 176.288 157.27 176.381 160.263C176.615 162.836 176.802 165.315 176.896 167.793C177.223 170.927 177.551 174.014 177.972 177.148C178.299 179.626 178.626 182.199 179.047 184.678C179.468 187.577 179.889 190.571 180.544 193.471C181.058 196.37 181.62 199.364 182.368 202.17C182.695 203.573 183.116 204.976 183.444 206.333C183.21 206.847 183.21 207.174 183.21 207.315C182.695 211.384 183.116 217.511 184.707 225.555C186.203 230.607 188.027 236.079 190.179 242.065C191.488 245.48 193.499 250.952 196.165 258.388C196.586 259.558 197.007 260.727 197.335 261.943L196.914 262.177C194.762 266.339 194.435 270.783 196.072 275.46C197.802 280.417 196.586 284.486 192.658 287.807C191.254 288.789 190.413 289.959 189.851 291.362C189.758 291.596 189.758 291.876 189.758 292.11L190.179 292.531C191.161 292.765 192.237 292.625 193.312 292.204C193.546 292.11 193.827 291.876 194.154 291.783L192.237 294.121L191.722 295.945C192.237 296.039 193.032 296.179 193.78 296.179C194.295 296.086 194.856 295.945 195.511 295.852V295.945C196.914 296.179 198.41 296.179 199.814 295.852C200.234 295.758 200.655 295.618 201.123 295.431L201.357 295.337C205.753 294.028 208.981 291.689 211.132 288.135C211.88 288.556 212.442 288.649 212.722 288.368C213.237 288.041 213.377 287.293 212.956 286.03C213.096 285.375 213.096 284.954 213.003 284.533ZM205.052 277.658C205.379 278.734 205.8 279.809 206.221 280.979C205.8 279.903 205.379 278.734 205.052 277.658ZM213.096 279.061C212.863 280.464 212.863 281.727 212.863 282.943C212.769 281.727 212.863 280.464 213.096 279.061Z" fill="#9A4F2E"/>
<path d="M204.958 267.135C204.631 267.649 204.304 268.444 204.117 269.38C203.602 271.718 203.602 273.87 204.117 275.927C204.631 277.845 205.426 280.09 206.595 282.569C207.765 285.048 209.168 286.731 210.992 287.714C211.74 288.041 212.301 288.135 212.582 288.041C212.582 288.135 212.816 288.041 213.237 287.807C212.489 288.649 211.413 288.789 210.103 288.135C208.607 287.293 207.203 285.656 206.128 283.177C204.958 280.698 204.21 278.453 203.649 276.535C203.134 274.478 203.228 272.373 203.742 269.988C204.07 268.771 204.491 267.789 204.958 267.135Z" fill="#8D4328"/>
<path d="M95.9361 275.741C95.4216 277.798 94.533 280.043 93.4572 282.522C92.3815 285.001 90.8848 286.685 89.0608 287.574C88.406 286.591 87.985 285.656 87.5641 284.44C87.5641 284.346 87.5641 284.346 87.4706 284.206C87.798 282.055 87.7044 279.482 87.0496 276.582C86.5351 273.028 87.0496 270.268 88.6398 268.117C90.3704 265.965 91.867 265.124 93.1298 265.451C93.8782 265.544 94.533 266.106 95.0474 267.041C95.3748 267.696 95.5619 268.444 95.7958 269.286C96.357 271.671 96.4506 273.776 95.9361 275.741Z" fill="#9A4F2E"/>
<path d="M123.952 136.036C123.297 133.978 122.361 132.294 120.958 130.657C119.134 128.927 117.076 128.319 114.738 128.506C112.68 128.833 110.996 129.815 109.5 131.172C109.406 131.265 109.266 131.406 109.172 131.499C107.863 132.902 106.927 134.633 106.272 136.457C105.524 138.608 105.103 140.76 104.869 143.005C104.635 145.063 104.448 147.167 104.355 149.319C104.261 151.47 104.027 153.622 103.934 155.867C103.934 158.018 103.84 160.17 103.7 162.415C103.7 164.66 103.7 167.045 103.7 169.29C103.7 171.441 103.793 173.593 103.793 175.744C103.793 177.989 103.887 180.234 103.887 182.526C103.887 184.584 103.887 186.595 103.793 188.653C103.7 190.571 103.56 192.629 103.56 194.64C103.56 196.043 103.653 197.306 103.653 198.709C101.081 202.871 98.9293 210.963 97.4327 222.843C97.1053 224.9 96.6843 226.912 96.3569 229.063C95.936 231.963 95.5151 234.956 95.0473 237.949C94.299 243.001 93.5507 247.912 92.7088 252.776C91.8669 257.406 90.5574 261.382 88.8268 264.889L88.0785 266.714C87.3302 268.538 86.6754 271.016 86.1609 274.01C85.74 277.424 86.1609 280.792 87.2366 283.972C87.2366 284.393 87.1431 284.72 87.0028 285.141C86.5818 286.451 86.6754 287.293 87.2366 287.48C87.564 287.714 88.0785 287.573 88.8268 287.246C88.8268 287.339 88.9204 287.339 88.9204 287.48C89.0139 287.714 89.1542 287.901 89.3413 287.994C91.4928 290.988 94.5796 293.139 98.5552 294.308L98.789 294.402C99.2099 294.495 99.6309 294.636 100.099 294.823C101.595 295.15 102.998 295.15 104.495 294.916V294.823C105.15 294.916 105.664 295.057 106.226 295.15C106.974 295.15 107.629 295.15 108.283 294.916L107.769 293.092L105.851 290.754C106.085 290.847 106.366 291.081 106.693 291.175C107.769 291.689 108.751 291.829 109.827 291.502L110.248 291.081C110.341 290.847 110.248 290.567 110.154 290.333C109.733 288.93 108.751 287.76 107.348 286.778C103.373 283.457 102.203 279.388 103.934 274.431C105.524 269.707 105.243 265.217 103.092 261.148L102.671 260.914C103.092 259.745 103.513 258.575 103.84 257.359C106.506 249.97 108.564 244.497 109.827 241.036C111.978 235.05 113.802 229.578 115.299 224.526C116.796 216.482 117.357 210.355 116.796 206.286C116.796 206.192 116.796 205.865 116.562 205.304C116.983 203.9 117.31 202.497 117.638 201.141C118.386 198.241 119.041 195.341 119.462 192.442C119.976 189.542 120.537 186.548 120.958 183.649C121.379 181.17 121.8 178.597 122.034 176.119C122.455 172.985 122.782 169.898 123.11 166.764C123.344 164.426 123.531 161.807 123.624 159.234C123.858 156.335 123.952 153.341 124.045 150.348C124.279 148.103 124.373 145.858 124.279 143.566C124.794 141.321 124.466 138.608 123.952 136.036ZM95.1877 267.041C95.5151 267.696 95.7021 268.444 95.936 269.286C95.7021 268.444 95.5151 267.696 95.1877 267.041C95.0941 266.807 94.8603 266.62 94.7667 266.386C94.8603 266.48 94.9538 266.714 95.1877 267.041ZM92.9427 265.31C93.0362 265.31 93.1765 265.31 93.1765 265.31C93.4104 265.31 93.5975 265.404 93.691 265.404C93.4571 265.31 93.3636 265.31 93.1765 265.31C93.083 265.31 92.8491 265.31 92.7556 265.217C92.8024 265.31 92.9427 265.31 92.9427 265.31ZM92.6153 265.31C92.5217 265.31 92.3814 265.31 92.1943 265.31C92.3814 265.31 92.5217 265.31 92.6153 265.31ZM92.054 265.451C91.9605 265.451 91.8202 265.544 91.7266 265.544C91.8669 265.451 91.9605 265.451 92.054 265.451ZM91.5395 265.544C91.446 265.544 91.3057 265.638 91.2121 265.778C91.3057 265.638 91.446 265.638 91.5395 265.544ZM90.9783 265.872C90.8848 265.965 90.7444 265.965 90.6509 266.106C90.7912 265.965 90.8848 265.965 90.9783 265.872ZM90.4638 266.293C90.3703 266.386 90.23 266.526 90.1364 266.62C90.23 266.48 90.3703 266.386 90.4638 266.293ZM89.9026 266.807C89.809 266.901 89.6687 267.041 89.5752 267.134C89.7155 267.041 89.809 266.947 89.9026 266.807ZM86.8157 274.01C86.8157 272.092 87.2366 270.362 88.1253 268.865C87.2366 270.362 86.8157 272.092 86.8157 274.01ZM88.7333 268.117C88.9671 267.883 89.1542 267.602 89.3881 267.368C89.1542 267.555 88.9671 267.789 88.7333 268.117Z" fill="#9A4F2E"/>
<path d="M96.4495 269.52C96.964 271.859 96.964 274.01 96.5431 276.068C96.0286 277.986 95.2335 280.231 94.0642 282.709C92.9885 285.188 91.5854 286.872 90.0887 287.667C88.7791 288.322 87.7502 288.182 86.9551 287.34C87.376 287.574 87.6099 287.667 87.6099 287.574C87.9373 287.667 88.4517 287.574 89.2001 287.246C91.0241 286.264 92.4273 284.58 93.5965 282.101C94.7658 279.622 95.5141 277.377 96.0754 275.46C96.5899 273.402 96.5899 271.297 96.0754 268.912C95.8415 267.93 95.5609 267.322 95.2335 266.667C95.8415 267.369 96.2625 268.304 96.4495 269.52Z" fill="#8D4328"/>
<path d="M199.346 352.023C199.346 368.44 199.018 384.622 198.364 400.525C198.13 404.827 198.036 409.13 197.709 413.387C197.054 425.5 196.399 434.948 195.791 441.823C195.464 444.723 195.277 447.202 194.949 449.119C192.377 451.177 188.963 452.768 184.519 454.264C183.023 454.779 181.386 455.246 179.562 455.667C178.58 455.901 177.644 456.088 176.662 456.322C174.604 456.743 172.499 457.164 170.348 457.491C166.793 458.006 162.958 458.473 158.983 458.661V458.894C156.083 458.988 153.183 458.988 150.19 458.988C147.196 458.988 144.297 458.988 141.397 458.894V458.661C134.942 458.24 129.049 457.491 123.717 456.322C122.642 456.088 121.66 455.901 120.724 455.667C118.245 455.153 116.094 454.358 114.083 453.75C110.528 452.44 107.628 450.943 105.477 449.26C105.149 447.342 104.962 444.863 104.635 441.963C103.98 435.088 103.325 425.64 102.717 413.527C102.484 409.224 102.296 404.921 102.203 400.665C101.548 384.669 101.221 368.58 101.221 352.164C101.221 345.195 101.221 338.413 101.314 331.865C101.548 316.945 102.063 303.241 102.811 290.66C104.541 263.065 107.769 241.223 112.259 224.807C112.68 223.825 113.1 222.889 113.428 222C116.328 215.125 118.245 208.484 119.321 202.17C120.397 195.856 120.724 189.074 120.069 182.105C119.742 178.036 118.994 172.985 117.918 166.998C117.59 165.268 117.263 163.584 116.842 161.76C113.849 146.84 112.212 138.889 112.025 138.047L141.444 137.065V136.55L150.236 136.878L159.029 136.55V137.065L170.956 137.486L188.448 138C188.355 138.842 186.718 146.7 183.631 161.713C183.303 163.537 182.882 165.268 182.649 166.951C181.573 172.938 180.825 177.989 180.497 182.058C179.983 189.027 180.17 195.809 181.245 202.123C182.321 208.437 184.239 214.985 187.045 221.954C187.466 222.936 187.793 223.871 188.214 224.76C192.704 241.176 195.838 263.159 197.662 290.613C198.504 303.148 198.972 316.898 199.159 331.912C199.346 338.273 199.346 345.054 199.346 352.023Z" fill="#EA5930"/>
<path d="M185.079 277.985H170.908V264.235H156.736V250.484H170.908V236.734H185.079V222.983H186.997C187.418 223.965 187.745 224.901 188.166 225.789C192.656 242.206 195.79 264.188 197.614 291.642H185.079V277.985Z" fill="#EE715A"/>
<path d="M170.909 304.271V318.021H156.738V331.772H142.473V345.616H114.13V331.772H101.268C101.501 316.852 102.016 303.148 102.764 290.567H114.13V276.816H142.473V290.567H156.644V304.317H170.909V304.271Z" fill="#EE715A"/>
<path d="M188.4 137.767C188.307 138.609 186.67 146.466 183.583 161.479C183.255 163.304 182.834 165.034 182.601 166.718H170.908V152.967H156.736V139.217H170.908V137.159L188.4 137.767Z" fill="#EE715A"/>
<path d="M156.786 180.468H142.521V166.718H117.265C118.341 172.517 119.089 177.569 119.417 181.544C119.931 188.513 119.744 195.295 118.668 201.609C117.593 208.063 115.535 214.705 112.682 221.767H114.178V235.518H142.521V221.767H156.693V208.016H170.864V194.266H156.833V180.468H156.786Z" fill="#EE715A"/>
<path d="M190.367 140.339C178.019 139.497 164.83 139.591 150.658 140.76C136.487 141.929 124.373 141.275 114.084 138.842C111.09 138.094 108.518 137.252 106.273 136.27C106.273 136.364 106.179 136.504 106.179 136.597C105.431 138.749 105.01 140.9 104.776 143.145C104.542 145.203 104.355 147.308 104.262 149.459C104.168 151.611 103.934 153.762 103.841 156.007C103.841 158.159 103.747 160.31 103.607 162.555C103.607 164.8 103.607 167.186 103.607 169.431C103.607 171.582 103.607 173.733 103.701 175.745C103.701 177.99 103.794 180.235 103.794 182.526C103.794 184.584 103.794 186.595 103.701 188.653C103.607 190.571 103.467 192.629 103.467 194.64C103.467 196.043 103.56 197.446 103.56 198.803C100.988 202.965 98.8364 211.057 97.3397 222.936C97.0123 224.994 96.5914 227.099 96.264 229.157C95.6092 227.754 95.1882 226.257 94.9544 224.433C92.4755 229.157 90.9789 226.584 90.3241 216.716C89.6693 206.847 90.9789 192.676 94.206 174.108C97.0123 158.439 99.6782 145.157 102.484 134.212C99.5847 132.295 98.088 130.05 97.7606 127.43C97.6671 126.448 99.1637 125.279 102.251 124.016C100.333 120.274 102.999 116.065 110.202 111.482C117.404 106.851 123.952 104.419 129.845 104.185C135.738 103.858 140.696 103.764 144.531 103.671C146.122 103.671 147.197 103.671 147.525 103.437C147.852 103.203 151.407 102.782 157.955 102.127C164.596 101.473 173.202 103.718 182.743 106.103C186.298 106.945 187.888 108.161 187.373 109.658C194.763 111.575 197.476 114.475 195.512 118.45C204.819 134.867 202.667 141.181 190.367 140.339Z" fill="#F6AF1C"/>
<path d="M195.276 118.123C195.37 118.123 195.931 117.468 195.931 117.468C184.659 115.878 173.294 118.544 161.929 119.292C159.871 119.713 157.953 120.274 156.223 121.023C158.047 120.929 159.871 120.789 161.695 120.695C172.873 120.695 184.238 117.468 195.276 118.45C195.276 118.357 195.276 118.216 195.276 118.123Z" fill="#CC872B"/>
<path d="M103.232 123.829C102.905 124.343 101.829 124.343 101.314 124.905C104.542 125.98 108.283 126.495 111.931 126.401C113.662 126.401 115.252 126.308 116.983 126.167C121.94 125.84 126.945 125.419 131.996 126.495C128.769 124.577 125.121 123.689 121.379 123.361C119.462 123.127 117.497 123.127 115.58 123.268C113.662 123.361 111.604 123.595 109.686 123.782C107.629 123.829 105.477 123.829 103.232 123.829Z" fill="#CC872B"/>
<path d="M142.707 70.2764C142.707 70.2764 143.128 71.2586 144.017 72.1005C144.905 72.9424 146.683 74.5794 149.161 74.6729C151.5 74.7664 152.482 74.439 153.137 74.1584C153.792 73.831 156.271 72.4279 156.879 71.4925C157.533 70.4168 157.393 70.1829 157.393 70.1829C157.393 70.1829 148.928 70.0894 147.431 70.0894C146.028 70.1829 142.707 70.2764 142.707 70.2764Z" fill="#6C3421"/>
<path d="M141.445 70.2764C141.445 70.2764 142.942 69.8555 144.018 69.6216C145.093 69.3878 147.151 68.6394 147.9 68.7798C148.648 68.8733 149.49 69.2007 150.051 69.2007C150.612 69.2007 151.033 68.5459 151.969 68.6862C152.951 68.7798 155.523 69.7619 156.272 69.8555C157.02 69.8555 159.078 70.0893 159.078 70.0893C159.078 70.0893 158.563 70.6038 156.833 70.8377C155.102 71.0715 152.67 71.3522 151.688 71.1651C151.688 71.1651 150.94 71.3989 150.191 71.4925C149.443 71.586 148.461 71.2586 148.367 71.2586C148.274 71.2586 146.029 71.4925 144.626 71.2586C143.129 70.9312 142.053 70.9312 141.445 70.2764Z" fill="#502416"/>
<path d="M186.158 155.492V170.74C186.158 170.927 186.439 171.067 186.813 171.067C187.187 171.067 187.468 170.927 187.468 170.74V155.492" fill="white"/>
<path d="M186.813 171.207C186.392 171.207 186.018 171.02 186.018 170.74V155.492H186.251V170.74C186.251 170.786 186.439 170.927 186.766 170.927C187.093 170.927 187.28 170.786 187.28 170.74V155.492H187.514V170.74C187.561 171.02 187.234 171.207 186.813 171.207Z" fill="#5F727F"/>
<path d="M187.466 157.223C187.466 157.41 187.185 157.551 186.811 157.551C186.437 157.551 186.156 157.41 186.156 157.223C186.156 157.036 186.437 156.896 186.811 156.896C187.185 156.896 187.466 157.036 187.466 157.223Z" fill="white"/>
<path d="M186.811 157.551C186.437 157.551 186.109 157.41 186.109 157.176C186.109 156.943 186.39 156.802 186.811 156.802C187.232 156.802 187.512 156.943 187.512 157.176C187.512 157.41 187.185 157.551 186.811 157.551ZM186.811 156.896C186.484 156.896 186.203 157.036 186.203 157.176C186.203 157.317 186.484 157.457 186.811 157.457C187.138 157.457 187.419 157.317 187.419 157.176C187.419 157.036 187.138 156.896 186.811 156.896Z" fill="#5F727F"/>
<path d="M187.466 169.29C187.466 169.477 187.185 169.617 186.811 169.617C186.437 169.617 186.156 169.477 186.156 169.29C186.156 169.103 186.437 168.962 186.811 168.962C187.185 168.962 187.466 169.149 187.466 169.29Z" fill="white"/>
<path d="M186.811 169.711C186.437 169.711 186.109 169.524 186.109 169.337C186.109 169.103 186.437 168.962 186.811 168.962C187.185 168.962 187.512 169.149 187.512 169.337C187.512 169.524 187.185 169.711 186.811 169.711ZM186.811 169.056C186.484 169.056 186.203 169.196 186.203 169.337C186.203 169.477 186.437 169.617 186.811 169.617C187.138 169.617 187.419 169.477 187.419 169.337C187.419 169.196 187.138 169.056 186.811 169.056Z" fill="#5F727F"/>
<path d="M187.468 155.54C187.468 155.727 187.187 155.867 186.813 155.867C186.439 155.867 186.158 155.727 186.158 155.54C186.158 155.352 186.439 155.212 186.813 155.212C187.187 155.212 187.468 155.352 187.468 155.54Z" fill="white"/>
<path d="M186.813 156.007C186.392 156.007 186.018 155.82 186.018 155.539C186.018 155.259 186.345 155.072 186.813 155.072C187.234 155.072 187.608 155.259 187.608 155.539C187.608 155.82 187.234 156.007 186.813 156.007ZM186.813 155.352C186.485 155.352 186.298 155.493 186.298 155.539C186.298 155.586 186.485 155.727 186.813 155.727C187.14 155.727 187.327 155.586 187.327 155.539C187.327 155.493 187.14 155.352 186.813 155.352Z" fill="#5F727F"/>
<path d="M187 179C178.2 179 171 171.847 171 163C171 154.153 178.153 147 187 147C195.8 147 203 154.153 203 163C203 171.847 195.8 179 187 179ZM187 147.471C178.435 147.471 171.471 154.435 171.471 163C171.471 171.565 178.435 178.529 187 178.529C195.565 178.529 202.529 171.565 202.529 163C202.529 154.435 195.518 147.471 187 147.471Z" fill="white"/>
<path opacity="0.6" d="M186.5 184C175.193 184 166 174.583 166 163C166 151.417 175.193 142 186.5 142C197.807 142 207 151.417 207 163C207 174.583 197.761 184 186.5 184ZM186.5 142.471C175.469 142.471 166.46 151.652 166.46 163C166.46 174.348 175.423 183.529 186.5 183.529C197.531 183.529 206.54 174.348 206.54 163C206.54 151.652 197.531 142.471 186.5 142.471Z" fill="white"/>
<path opacity="0.3" d="M186.5 189C172.444 189 161 177.331 161 163C161 148.669 172.444 137 186.5 137C200.556 137 212 148.669 212 163C212 177.331 200.556 189 186.5 189ZM186.5 137.484C172.682 137.484 161.475 148.911 161.475 163C161.475 177.089 172.682 188.516 186.5 188.516C200.318 188.516 211.525 177.089 211.525 163C211.525 148.911 200.271 137.484 186.5 137.484Z" fill="white"/>
</g>
<defs>
<clipPath id="clip0_569_7338">
<rect width="300" height="300" fill="white" transform="matrix(-1 0 0 1 300 0)"/>
</clipPath>
</defs>
</svg>
