<svg width="100" height="100" viewBox="0 0 100 100" fill="none" xmlns="http://www.w3.org/2000/svg">
<path d="M89.2947 36.9246C89.0847 36.2947 89.0147 35.6648 89.0147 35.035C88.9447 32.7954 89.0147 30.6258 88.9448 28.3863C88.8748 27.2665 88.8748 26.2167 88.8048 25.0969C88.7348 23.8371 88.5948 22.5774 88.4548 21.3176C88.3849 20.8977 88.5248 20.4078 88.1749 20.0579C88.1749 20.5478 88.2449 21.0377 88.2449 21.5276C88.2449 21.0377 88.1749 20.5478 88.1749 20.0579C88.1749 20.0579 88.1749 19.568 88.0349 18.9381C87.895 18.3082 87.825 17.6783 87.3351 17.1884C87.1251 16.8385 86.8452 16.5585 86.4952 16.2786C86.4952 16.2786 87.475 10.5397 50.5922 11.3096C50.5922 11.3096 30.4361 9.76985 26.8668 14.5989V17.0484V18.1682H27.5666L55.6312 17.8183L62.5599 17.1184C62.5599 17.2584 62.5599 17.3284 62.5599 17.4684C62.5599 17.6083 62.6298 17.6783 62.7698 17.6783C63.7496 17.6083 64.6594 17.8183 65.6393 17.8183C66.4091 17.8883 67.2489 17.9583 68.0188 18.0283C69.0686 18.0982 70.1184 18.2382 71.1682 18.3782C71.8681 18.4482 72.6379 18.5182 73.3378 18.5881C74.4576 18.7281 75.5773 18.8681 76.6971 19.0081C76.9071 19.0081 77.117 19.0781 77.327 19.0781L80.8263 19.6379C81.4562 19.7779 82.0861 19.9879 82.716 20.2678C83.5558 20.6178 84.1157 21.2476 84.5356 22.0175C84.9555 22.7873 85.0955 23.6972 85.0955 24.607C85.1655 26.4966 85.0955 28.3863 84.9555 30.2059C84.8155 32.0255 84.7456 33.8452 84.6056 35.6648C84.5356 36.7846 84.5356 37.9044 84.3956 38.9542C84.3256 39.3741 84.3256 39.864 84.2557 40.2839C84.1857 41.1238 84.1157 41.9636 84.0457 42.8734C85.5154 42.3136 86.9851 41.7537 88.4548 41.2638C88.8748 41.1238 89.2247 40.9138 89.7146 40.9838C89.7146 40.9138 89.7846 40.9138 89.8546 40.8438C89.8546 40.8438 89.9246 40.8438 89.9246 40.7739C89.8546 39.4441 89.7146 38.1844 89.2947 36.9246ZM65.3593 17.3284C65.2193 17.3284 65.1494 17.3984 65.0094 17.1884C65.0794 17.1884 65.1494 17.1184 65.2193 17.1184L66.5491 17.3284C66.1292 17.3284 65.7792 17.3284 65.3593 17.3284ZM85.7954 20.3378C85.8653 21.5976 85.7954 22.7873 85.7254 24.0471C85.7954 22.8573 85.8653 21.5976 85.7954 20.3378ZM87.825 26.9865C87.1251 28.8762 86.4252 30.7658 85.7954 32.6554C85.4454 33.5652 85.1655 34.4051 84.7456 35.3149C85.1655 34.4751 85.4454 33.5652 85.7954 32.6554C86.4952 30.7658 87.1251 28.8762 87.825 26.9865C88.2449 25.9367 88.4548 24.8869 88.3149 23.7671C88.3149 23.6972 88.3149 23.6272 88.3149 23.5572C88.3149 23.6272 88.3149 23.6972 88.3149 23.7671C88.4548 24.8169 88.2449 25.8667 87.825 26.9865Z" fill="#FCC89C"/>
<path d="M23.2274 31.6756C23.2274 32.7954 22.3176 33.7752 21.1279 33.7752C20.0081 33.7752 19.0283 32.8654 19.0283 31.6756C19.0283 30.5558 19.9381 29.576 21.1279 29.576C22.2476 29.646 23.2274 30.5558 23.2274 31.6756Z" fill="#502110"/>
<path d="M81.7362 65.829C81.7362 65.829 81.3162 68.5585 84.6756 69.1884C84.6756 69.1884 88.1049 70.3081 89.7846 66.9488C91.4643 63.5195 91.0444 62.0497 90.6244 60.51C90.6244 60.51 87.1251 55.9609 84.4656 61.3499C84.4656 61.3499 82.0161 60.9999 81.7362 65.829Z" fill="#502110"/>
<path d="M30.0161 15.0888L25.2571 24.607L21.6877 33.7052L20.8479 34.965C20.8479 34.965 20.148 36.0848 20.0781 36.7146C19.9381 37.2745 20.8479 37.6945 20.8479 37.6945L28.3365 46.3028L39.1844 48.5424L88.1049 48.2624L86.9851 30.6258L84.8855 16.9085L61.51 13.1292L30.0161 15.0888Z" fill="#FCC89C"/>
<path d="M31.4159 77.7267L32.1857 77.3068L31.7658 76.6769L31.2059 75.977L29.8762 76.187L30.646 77.3068L31.4159 77.7967" fill="#502110"/>
<path d="M34.1453 83.3956C34.1453 87.7348 30.646 91.3041 26.2369 91.3041C21.8977 91.3041 18.3284 87.8048 18.3284 83.3956C18.3284 79.0564 21.8277 75.4871 26.2369 75.4871C30.646 75.5571 34.1453 79.0564 34.1453 83.3956Z" fill="#502110"/>
<path d="M18.6083 80.1762C18.6783 79.6163 18.8183 79.0565 18.8883 78.4966C19.2382 78.5665 19.5182 78.7065 19.7981 78.8465C20.358 79.1264 20.9179 79.2664 21.5478 79.4064C21.7577 79.4064 21.8277 79.4764 21.7577 79.8263C21.6877 80.1062 21.6877 80.3162 21.6178 80.5962C21.5478 80.9461 21.6178 81.0861 21.9677 81.0861C22.6676 81.0861 23.3674 80.9461 24.0673 80.7361C23.8573 81.436 23.7173 82.1359 23.6474 82.8357C23.5774 83.8855 23.5774 85.0053 23.9273 85.9851C24.3472 87.1049 25.1171 87.6648 26.0969 87.9447C27.2167 88.2247 28.1965 88.0147 29.1763 87.3149C30.2261 86.545 30.856 85.3552 31.3459 84.0255C31.7658 82.6957 32.0457 81.296 31.9758 79.8263C31.9058 78.4266 31.6258 77.1668 30.646 76.327C30.576 76.257 30.506 76.187 30.506 76.187C30.506 76.047 30.576 76.047 30.646 76.047C31.4858 75.7671 32.3257 75.4871 33.0955 75.1372C33.2355 75.0672 33.3055 75.0672 33.3755 75.3472C33.7954 76.8869 34.0753 78.4266 34.1453 80.1062C34.2153 83.1857 33.4455 85.8451 31.7658 88.1547C30.576 89.8344 29.1063 90.9542 27.3566 91.514C26.3768 91.864 25.327 91.794 24.3472 91.654C23.7873 91.584 23.4374 91.0941 23.1575 90.6042C22.3876 89.4144 21.9677 88.0847 21.8277 86.545C21.7577 85.6352 21.6877 84.7953 21.6877 83.8855C21.6877 83.3956 21.7577 82.9057 21.7577 82.4158C21.7577 82.2758 21.7577 82.0659 21.6178 82.0659C21.5478 81.9959 21.6178 81.8559 21.6178 81.7859C21.6178 81.436 21.6877 81.156 21.2678 81.0861C20.6379 81.0161 20.0081 80.8061 19.3782 80.5262C19.0982 80.2462 18.8183 80.1762 18.6083 80.1762Z" fill="#502110"/>
<path d="M18.7483 81.7859C19.0982 81.7859 19.4482 81.8559 19.7981 81.9259C20.7079 82.1358 21.6877 82.3458 22.5975 82.4158C23.2274 82.4858 23.1574 82.6957 23.1574 83.0457C23.1574 83.1157 23.0175 83.2556 23.1574 83.3256C22.1076 85.6352 22.2476 87.8747 23.5774 90.0443C23.9273 90.6042 24.4872 91.0941 25.1171 91.584C23.6473 91.3041 22.3176 91.0941 21.1278 90.6042C20.358 90.3243 20.0081 89.7644 19.5881 89.2045C18.3284 87.5248 17.9784 85.7052 18.2584 83.7455C18.3984 83.1157 18.4683 82.4158 18.7483 81.7859Z" fill="#4F2212"/>
<path d="M24.9071 84.5154C24.9071 84.0955 24.9771 83.7455 24.9771 83.3256C25.1171 83.1157 25.1171 82.9057 25.1171 82.6957C25.1871 82.6957 25.1871 82.6258 25.1171 82.6258C25.1871 82.1358 25.327 81.6459 25.537 81.156C25.677 81.0861 25.8169 81.0861 25.9569 81.0161C26.7268 80.8761 27.2866 80.5262 27.5666 79.7563C27.6366 79.5464 27.7766 79.4064 27.9865 79.3364C28.4764 79.1264 28.9663 78.9865 29.4562 78.7765C29.7362 78.6365 29.8761 78.7765 30.0161 78.9165C31.1359 80.3862 31.3459 82.3458 30.2961 84.0255C30.0161 84.4454 29.8062 84.8653 29.2463 85.0053C29.3163 84.8653 29.4562 84.7254 29.5262 84.5854C30.2261 83.3956 30.646 82.0659 30.2261 80.6661C30.0861 80.3162 30.0161 79.8963 29.6662 79.7563C29.6662 79.6863 29.5962 79.6863 29.5962 79.6163C29.5962 79.6163 29.5262 79.6163 29.5262 79.6863C29.5962 79.7563 29.5962 79.7563 29.6662 79.8263C29.8062 80.1762 30.0161 80.4562 30.0861 80.8061C30.436 82.5558 29.9461 84.0955 28.6864 85.3552C27.9865 86.0551 27.1467 86.2651 26.1669 86.0551C25.467 85.9151 25.1171 85.2852 24.9071 84.5154ZM27.2866 84.0255C27.2167 83.8155 27.0767 83.6056 26.7967 83.6056C26.5168 83.6056 26.3768 83.8155 26.3768 84.0955C26.3768 84.3754 26.5868 84.5854 26.8667 84.5854C27.0767 84.5854 27.2866 84.3754 27.2866 84.0255ZM29.5262 81.506C29.2463 81.576 29.0363 81.7159 29.0363 81.9959C29.0363 82.2758 29.1763 82.4158 29.4562 82.4158C29.7362 82.4158 29.9461 82.2058 29.9461 81.9259C29.9461 81.7159 29.8062 81.576 29.5262 81.506ZM27.9165 83.5356C28.2665 83.5356 28.4064 83.3256 28.4064 83.0457C28.4064 82.7657 28.1965 82.6258 27.9165 82.6258C27.6366 82.6258 27.4266 82.8357 27.4266 83.1157C27.4266 83.3256 27.6366 83.4656 27.9165 83.5356ZM28.9663 84.3754C28.9663 84.0955 28.7564 83.8855 28.4764 83.8855C28.1965 83.8855 27.9865 84.0955 27.9865 84.3754C27.9865 84.6554 28.1965 84.8653 28.4764 84.7953C28.8263 84.8653 28.9663 84.7253 28.9663 84.3754ZM28.4064 81.576C28.4064 81.296 28.1965 81.0861 27.9165 81.0861C27.6366 81.0861 27.4266 81.296 27.4266 81.576C27.4266 81.8559 27.5666 81.9959 27.8465 81.9959C28.1965 82.0659 28.3364 81.9259 28.4064 81.576Z" fill="#6D6F70"/>
<path d="M31.2759 78.0766C32.3957 78.6365 32.8856 79.6163 32.9556 80.7361C33.0955 82.5558 32.6756 84.3054 31.6958 85.9151C30.646 87.6648 28.6864 88.5046 26.9367 88.0147C25.677 87.6648 24.9771 86.8249 24.8371 85.4952C24.8371 85.3552 24.7672 85.2153 24.7672 85.0053C25.0471 85.2153 25.1171 85.6352 25.397 85.8451C25.397 85.9851 25.467 86.0551 25.537 86.1951C26.3069 87.1749 27.7766 87.3149 28.8264 86.8949C30.2261 86.2651 31.1359 85.1453 31.6258 83.6756C32.0457 82.4858 32.1157 81.296 31.6258 80.0363C31.3459 79.4064 30.856 78.9865 30.3661 78.4966C30.716 78.3566 30.9959 78.2166 31.2759 78.0766Z" fill="#6D6F70"/>
<path d="M31.2759 78.0766C30.9959 78.2166 30.716 78.3566 30.366 78.4965C30.8559 78.9865 31.3459 79.4064 31.6258 80.0362C32.1157 81.226 32.0457 82.4158 31.6258 83.6755C31.1359 85.1453 30.2261 86.265 28.8263 86.8949C27.8465 87.3148 26.3768 87.2449 25.537 86.1951C25.467 86.0551 25.397 85.9851 25.397 85.8451C26.7967 86.685 28.0565 86.1951 28.8263 85.4952C28.9663 85.3552 29.0363 85.2152 29.1763 85.1453C29.2463 85.1453 29.3162 85.0753 29.3162 85.0053C29.8062 84.8653 30.0861 84.3754 30.366 84.0255C31.4158 82.4158 31.2059 80.4562 30.0861 78.9165C29.9461 78.7065 29.8061 78.6365 29.5262 78.7765C29.0363 78.9865 28.5464 79.1964 28.0565 79.3364C27.8465 79.4064 27.7066 79.5463 27.6366 79.7563C27.3566 80.4562 26.7267 80.8061 26.0269 81.0161C25.8869 81.0161 25.7469 81.086 25.607 81.156C25.6769 80.6661 26.0269 80.4562 26.4468 80.3162C26.8667 80.1762 27.2167 79.9663 27.4266 79.5463C27.5666 79.1964 27.9165 79.0564 28.1965 78.9165C28.8263 78.5665 29.3862 78.2866 30.0161 77.9367C30.506 77.7267 30.8559 77.7967 31.2759 78.0766Z" fill="#58595B"/>
<path d="M29.2463 85.2153C29.0363 85.2852 28.9663 85.4252 28.8964 85.5652C28.1265 86.2651 26.7968 86.755 25.467 85.9151C25.1871 85.7052 25.1171 85.2852 24.8371 85.0753C24.8371 84.8653 24.6972 84.6554 24.9771 84.5154C25.1871 85.2852 25.537 85.8451 26.3069 86.0551C27.2167 86.1951 28.1265 86.0551 28.8264 85.3552C30.0861 84.0955 30.5061 82.5558 30.2261 80.8061C30.1561 80.4562 29.8762 80.1762 29.8062 79.8263C30.1561 80.0363 30.2961 80.3862 30.3661 80.7361C30.786 82.1358 30.3661 83.3956 29.6662 84.6554C29.5962 84.7953 29.5262 84.9353 29.3863 85.0753C29.3863 85.0753 29.3163 85.1453 29.2463 85.2153Z" fill="#6D6F70"/>
<path d="M25.187 82.6957C25.187 82.9057 25.187 83.1157 25.0471 83.3256C24.9071 83.1157 25.0471 82.9057 25.1171 82.6957H25.187Z" fill="#403F41"/>
<path d="M27.2867 84.0255C27.2867 84.3754 27.0767 84.5854 26.7968 84.5854C26.5168 84.5854 26.3069 84.3754 26.3069 84.0955C26.3069 83.8155 26.4468 83.6056 26.7268 83.6056C27.0767 83.6056 27.2167 83.8155 27.2867 84.0255Z" fill="#242427"/>
<path d="M27.9165 83.5356C27.6366 83.5356 27.4266 83.3956 27.4266 83.0457C27.4266 82.7657 27.6366 82.5558 27.9165 82.5558C28.1965 82.5558 28.3365 82.6958 28.4064 82.9757C28.4064 83.3256 28.2665 83.4656 27.9165 83.5356Z" fill="#242427"/>
<path d="M28.9663 84.3754C28.9663 84.6554 28.8263 84.8653 28.5464 84.8653C28.1965 84.8653 28.0565 84.7254 28.0565 84.4454C28.0565 84.1655 28.1965 83.9555 28.5464 83.9555C28.7564 83.9555 28.9663 84.0955 28.9663 84.3754Z" fill="#242427"/>
<path d="M29.2463 85.2153C29.3163 85.1453 29.3163 85.0753 29.3863 85.0753C29.3863 85.1453 29.3862 85.2153 29.2463 85.2153Z" fill="#6D6F70"/>
<path d="M33.8654 85.4252C33.8654 85.4252 35.825 79.3364 33.4455 75.5571L31.9058 76.257L32.3957 77.7967C32.4657 77.7267 34.5652 79.2664 33.8654 85.4252Z" fill="#502110"/>
<path d="M25.1871 82.6957H25.1171L25.1871 82.6258C25.1871 82.6957 25.1871 82.6957 25.1871 82.6957Z" fill="#6D6F70"/>
<path d="M29.5262 81.506C29.8062 81.506 30.0161 81.7159 30.0161 81.9959C30.0161 82.2758 29.8062 82.4858 29.5262 82.4858C29.2463 82.4858 29.1063 82.3458 29.1063 82.0659C29.0363 81.7159 29.1763 81.576 29.5262 81.506Z" fill="#242427"/>
<path d="M28.4065 81.576C28.4065 81.9259 28.1965 82.0659 27.9166 82.0659C27.6366 82.0659 27.4966 81.9259 27.4966 81.646C27.4966 81.366 27.6366 81.156 27.9865 81.156C28.1965 81.0861 28.3365 81.296 28.4065 81.576Z" fill="#242427"/>
<path d="M25.1871 82.6957V82.6258C25.2571 82.6957 25.2571 82.6957 25.1871 82.6957Z" fill="#403F41"/>
<path d="M22.8075 35.1749C23.7174 33.4253 24.5572 31.6756 25.3271 29.926C26.8668 26.6366 28.4065 23.2772 29.9462 19.9879C30.3661 19.148 30.716 18.3082 31.1359 17.3984C31.2759 17.1184 31.4159 17.0484 31.6958 17.0484C34.9852 16.9785 38.3445 16.8385 41.6339 16.7685C44.2934 16.6985 46.8829 16.6285 49.5424 16.4886C49.6823 16.4886 49.8223 16.4886 49.9623 16.4886C50.0323 16.6285 49.9623 16.7685 49.8923 16.8385C49.1225 18.7981 48.3526 20.7577 47.5128 22.7174C46.253 25.7968 45.0632 28.8062 43.8035 31.8856C43.6635 32.2355 43.4536 32.3755 43.1736 32.5155C39.9542 33.4953 36.8048 34.5451 33.7254 36.0148C33.3755 36.1547 33.0256 36.2247 32.6756 36.1547C29.8062 36.0148 26.9367 35.8048 24.0673 35.6648C23.5774 35.6648 23.1575 35.7348 22.6676 35.5949C22.6676 35.5249 22.6676 35.4549 22.6676 35.4549V35.3849C22.8075 35.3149 22.8075 35.1749 22.8075 35.1749Z" fill="white"/>
<path d="M61.2301 44.973C61.2301 46.2328 61.2301 47.4226 61.2301 48.6123C61.2301 51.7617 61.2301 54.9811 61.2301 58.1305C61.2301 61.4898 60.8801 64.7792 60.3203 68.0686C60.0403 69.9582 59.7604 71.8478 59.2705 73.6675C56.7509 74.3674 54.2314 74.9972 51.6419 74.7873C50.3822 74.6473 49.1224 74.3674 48.1426 73.5275C47.0928 72.6877 46.253 71.7779 45.4131 70.7981C44.2934 69.5383 43.2436 68.2085 42.1938 66.8788C42.1238 66.7388 42.0538 66.5989 41.8438 66.6688C41.8438 66.4589 41.8438 66.2489 41.5639 66.2489C41.5639 66.1789 41.5639 66.109 41.4239 66.039C40.934 65.1991 40.4441 64.3593 39.9542 63.5195C39.5343 62.7496 38.9744 62.1897 38.3445 61.6998C36.3849 60.2301 34.1453 59.2503 31.7658 58.6204C29.3162 57.9905 26.8667 57.7106 24.3472 57.7806C24.0673 57.7806 23.9273 57.8506 23.7873 58.0605C23.2274 58.6904 22.6675 59.3203 22.1076 60.0201C21.6877 58.6204 21.2678 57.2907 20.8479 55.8909C20.8479 55.8209 20.8479 55.8209 20.7779 55.751C20.7779 55.751 20.7079 55.681 20.7779 55.681C20.9179 55.681 21.0578 55.681 21.1278 55.751C24.2772 56.4508 27.3566 57.0807 30.506 57.7806C32.4656 58.2005 34.3553 58.6904 36.2449 59.1103C39.1144 59.6702 41.9138 60.4401 44.7133 61.0699C46.7429 61.4899 48.8425 61.9798 50.9421 61.7698C51.9219 61.6998 52.9017 61.4199 53.8115 60.9999C55.3512 60.2301 56.611 59.1103 57.6608 57.7806C57.8707 57.5706 58.1507 57.3606 58.2207 57.0107C58.9205 56.8008 59.0605 56.3109 59.0605 55.611C59.0605 52.5316 59.1305 49.4522 59.2705 46.3728C59.2705 46.0228 59.2005 45.9529 58.8505 46.0228C54.8613 47.0027 50.8021 47.6325 46.6729 48.1224C43.8734 48.4724 41.004 48.3324 38.2045 48.1224C36.6648 47.9825 35.1251 47.7725 33.5854 47.5625C33.4455 46.7227 33.5154 45.8829 33.5154 45.043C36.8048 45.6029 40.0942 45.8829 43.3835 46.0928C46.6729 46.3028 50.0322 46.3028 53.3216 46.0928C55.7711 45.9529 58.2207 45.6729 60.6002 45.253C60.7402 45.253 60.8801 45.183 61.0201 45.113C61.1601 44.973 61.2301 44.973 61.2301 44.973Z" fill="#F6AE1A"/>
<path d="M77.9568 44.3432C77.8869 45.6029 77.7469 46.9327 77.6769 48.1924C77.4669 50.8519 77.257 53.4414 77.117 56.1009C76.9071 59.4602 76.6971 62.8196 76.6271 66.1789C76.6271 66.8788 76.3472 67.1587 75.7873 67.5087C72.2879 69.3983 68.8586 71.3579 65.2193 72.8276C64.4495 73.1076 63.6796 73.4575 62.9098 73.4575C62.1399 73.4575 61.9299 73.2476 62.1399 72.5477C62.7698 70.3081 63.0497 68.0686 63.2597 65.759C63.8896 59.7402 64.1695 53.7213 64.2395 47.7025C64.2395 47.5625 64.2395 47.4226 64.3095 47.2826C65.5692 47.0026 66.899 46.7227 68.1587 46.4427C71.4481 45.7429 74.6675 45.043 77.9568 44.3432Z" fill="#F6AE1A"/>
<path d="M12.5895 72.5477C12.4495 73.1776 12.8695 73.4575 13.2894 73.6675C13.9892 74.0174 14.5491 74.5073 15.249 74.7173C16.1588 74.9972 16.9987 75.4871 17.9085 75.8371C18.8883 76.117 19.9381 76.257 20.9179 76.6069C21.5478 76.8169 22.2476 76.6069 22.8075 76.397C24.4872 75.907 25.747 74.8572 27.1467 73.8774C28.4065 73.0376 29.6662 72.1978 30.856 71.2879C31.9758 70.5181 33.1655 69.6783 34.2853 68.9084C35.755 67.9286 37.1548 66.8088 38.5545 65.759C38.9044 65.4791 39.3243 65.2691 39.6743 65.0591C39.7443 64.9892 39.7443 64.9892 39.8142 64.9192L42.1938 69.1184H42.1238C40.2342 70.2381 38.2745 71.3579 36.3849 72.4777C34.8452 73.3875 33.3055 74.2274 31.7658 75.0672C29.4562 76.397 27.0767 77.7267 24.5572 78.7065C23.0175 79.3364 21.4778 79.5463 19.8681 78.9865C17.9785 78.3566 16.0888 77.5867 14.2692 76.7469C13.8493 76.5369 13.4293 76.397 13.0094 76.187C13.4993 76.8169 14.1992 77.1668 14.8991 77.4468C16.5088 78.2166 18.2584 78.7765 20.0081 79.4064C20.8479 79.6863 21.7577 79.6863 22.5976 79.5463C24.2073 79.2664 25.747 78.7065 27.2867 78.0066C29.3863 77.0268 31.4859 75.907 33.5155 74.7173C35.4751 73.5975 37.4347 72.4077 39.3943 71.2879C40.4441 70.6581 41.4239 70.0282 42.4737 69.4683C43.4535 71.148 44.3634 72.8276 45.3432 74.5073C45.4132 74.6473 45.4132 74.7173 45.2732 74.7873C44.0134 75.2072 42.7537 75.6971 41.4939 75.977C41.214 76.047 41.004 75.8371 40.7941 75.6971C40.3042 75.3472 39.8142 74.8572 39.2544 74.5073C38.4845 73.9474 37.6447 73.8774 36.7348 74.2274C34.7052 74.9272 32.8156 75.907 30.856 76.8869C29.8062 77.3768 28.8264 77.9367 27.7766 78.4965C27.4266 78.7065 27.1467 78.9165 26.9367 79.2664C26.7968 79.5463 26.5868 79.6863 26.3069 79.8263C23.9273 80.8761 21.5478 80.8061 19.1682 79.8263C17.2786 79.0564 15.389 78.2166 13.4993 77.3768C13.3594 77.3068 13.1494 77.1668 13.0094 77.2368C12.7995 77.2368 12.6595 77.0968 12.6595 76.8869C12.7295 76.327 12.6595 75.6971 12.5895 75.1372C12.5195 74.2974 12.4495 73.4575 12.5895 72.5477Z" fill="#7D1520"/>
<path d="M90.2045 56.0309C89.1547 54.5612 88.1049 54.4212 86.7051 55.401C85.3054 56.4508 84.4656 57.9905 83.9057 59.8102C83.5558 60.79 83.3458 61.8398 83.3458 62.9596C83.5558 62.0497 83.7657 61.1399 84.1156 60.2301C84.6755 58.5504 85.4454 57.0807 86.7051 56.0309C87.335 55.541 88.0349 55.1211 88.8747 55.401C89.1547 55.471 89.3646 55.611 89.5746 55.8909C88.3148 56.1009 87.7549 57.2207 87.1951 58.3405C86.4952 59.7402 86.0753 61.2099 85.7953 62.8196C85.7953 63.0296 85.7253 63.2395 85.7953 63.4495C86.0053 63.3095 86.0753 63.0296 86.2152 62.7496C86.8451 61.2099 87.335 59.5302 88.0349 58.0605C88.3848 57.4306 88.7348 56.8008 89.2946 56.3808C89.7846 56.0309 89.8545 56.1009 90.0645 56.6608C90.4844 57.7106 90.6944 58.8304 90.8343 59.9502C90.8343 60.1601 90.8344 60.3701 90.6944 60.4401C90.4844 60.51 90.4844 60.3001 90.4144 60.1601C89.8545 59.2503 89.8545 59.2503 89.1547 59.8102C89.0147 59.9501 88.8747 60.0901 88.6648 60.2301C87.615 60.79 87.1251 61.7698 86.9851 63.1695C86.9851 63.6594 86.7751 63.7994 86.4252 64.0793C85.7253 64.5693 85.0255 64.5693 84.3256 64.4993C83.8357 64.4293 83.4158 64.5693 82.9959 64.9892C82.9259 65.0592 82.8559 65.1991 82.6459 65.1991C82.7859 64.2893 82.9259 63.3795 82.9959 62.4697C83.2758 59.5302 83.4858 56.5208 83.6257 53.5814C83.8357 49.8721 83.9057 46.2328 83.9057 42.5235C83.9057 42.3836 83.8357 42.2436 84.0457 42.1736C84.8155 42.1036 85.4454 41.6837 86.1453 41.3338C87.405 40.7039 88.6648 40.004 89.9245 39.0242C89.9945 44.6931 90.2045 50.292 90.2045 56.0309Z" fill="#EF6C56"/>
<path d="M46.6029 44.1332C45.1332 44.2032 43.5935 44.0632 42.1238 44.0632C40.2342 43.9932 38.3445 43.9232 36.4549 43.7133C36.5249 43.5733 36.5249 43.4333 36.4549 43.2234C36.1749 42.3136 35.4751 41.8237 34.6352 41.4737C33.3755 40.9838 31.9758 41.0538 30.646 40.8438C29.1763 40.6339 27.7066 40.4939 26.2369 40.214C25.467 40.074 24.6972 39.864 24.0673 39.4441C23.1575 38.8142 22.3876 37.9744 22.1077 36.7846C24.1373 36.9946 26.0969 37.1346 28.1265 37.3445C28.8264 37.4145 29.4562 37.4845 30.1561 37.4845C30.2261 37.6245 30.0161 37.6245 29.9461 37.6944C29.8062 37.7644 29.6662 37.9044 29.7362 38.1144C29.8062 38.3243 29.8762 38.4643 30.0861 38.5343C30.2261 38.5343 30.3661 38.6043 30.4361 38.5343C30.506 38.5343 30.576 38.5343 30.576 38.4643C31.9058 37.6245 33.3755 37.6944 34.8452 37.9044C37.2947 38.1844 39.8142 38.3943 42.2638 38.5343C45.8331 38.8142 49.4024 39.0942 52.9717 39.0942C54.2315 39.0942 55.4912 39.0242 56.751 38.8842C58.0807 38.7442 59.4804 37.4845 59.9004 36.0148C59.9004 35.8748 59.9703 35.7348 59.9703 35.6648C59.9703 35.7348 60.0403 35.7348 60.0403 35.8048C59.9004 36.9246 59.6204 38.0444 58.4306 38.6043C58.0107 38.8142 57.5208 38.8842 57.0309 38.9542C55.4212 39.2342 53.8115 39.3741 52.2018 39.3741C51.292 39.3741 50.3822 39.3741 49.4024 39.3741C49.2624 39.3741 49.0525 39.3741 48.9825 39.5841C48.8425 39.864 48.7025 40.074 48.5625 40.2839C48.0726 41.1938 47.5128 42.1036 47.0228 43.0134C46.8829 43.3634 46.6029 43.7133 46.6029 44.1332Z" fill="#FCC89C"/>
<path d="M83.4158 43.1534C83.6958 44.4132 83.3458 45.6029 83.2758 46.8627C83.2059 48.8923 83.0659 50.8519 82.9959 52.8815C82.7859 56.3109 82.646 59.7402 82.436 63.2395C82.436 63.3795 82.366 63.5195 82.2261 63.5894C80.4764 64.6392 78.7967 65.689 77.0471 66.7388C76.9771 66.7388 76.9771 66.8088 76.8371 66.8088C76.9071 65.899 77.0471 64.9892 77.117 64.0793C77.257 62.6096 77.397 61.0699 77.537 59.6002C77.8169 56.1009 78.0269 52.6716 78.2368 49.1722C78.3768 47.4926 78.4468 45.8829 78.5168 44.2032C78.5868 44.2032 78.7267 44.2032 78.7967 44.1332C80.3364 43.8533 81.8761 43.5033 83.4158 43.1534Z" fill="#F6AE1A"/>
<path d="M58.2207 26.8466V27.1965C58.0807 27.3365 58.1507 27.4764 58.1507 27.6164C58.1507 29.646 58.1507 31.6756 58.1507 33.7052C58.1507 33.7752 58.1507 33.9152 58.2207 34.0552V29.926C58.2907 31.6756 58.3606 33.4253 58.2207 35.1749C58.1507 35.8748 57.7308 36.3647 57.1009 36.6447C56.0511 37.1346 54.9313 37.2045 53.8115 37.2045C51.292 37.3445 48.7725 37.2045 46.183 37.2045C45.973 37.2045 45.7631 37.2045 45.5531 37.2045C45.0632 37.1346 44.5033 37.1346 44.0134 37.1346C43.8734 37.1346 43.7335 37.2045 43.6635 37.0646C44.1534 36.1548 44.5733 35.105 44.9932 34.1251C45.1332 33.8452 45.2732 33.7052 45.5531 33.5653C47.5827 32.7954 49.5423 31.9556 51.502 31.1157C53.0417 30.4859 54.5114 29.786 56.0511 29.1561C56.331 29.0861 56.331 28.9461 56.1911 28.7362C56.1211 28.5262 55.9811 28.3863 55.9111 28.1763C55.9111 27.9663 55.7012 28.0363 55.5612 28.1063C54.8613 28.3863 54.2314 28.6662 53.5316 28.8762C52.6917 29.0861 51.8519 29.506 51.0121 29.786C49.6823 30.2759 48.3526 30.7658 47.0228 31.3257C46.7429 31.4657 46.393 31.5356 45.973 31.6756C46.6729 29.926 47.3728 28.3163 48.0726 26.7066C48.0726 26.9165 48.2826 27.1265 48.2126 27.4764C48.1426 27.6864 48.3526 27.7564 48.4925 27.6164C48.7025 27.4064 48.9825 27.4064 49.2624 27.4064C51.082 27.4064 52.8317 27.4064 54.6514 27.4064C54.7913 27.4064 55.0013 27.4064 55.1413 27.4764C55.5612 27.5464 55.9811 27.7564 56.401 27.4764C56.541 27.4064 56.681 27.4764 56.8209 27.5464C57.1009 27.6164 57.3808 27.6164 57.5208 27.2665C57.7308 26.6366 57.9407 26.6366 58.2207 26.8466Z" fill="white"/>
<path d="M46.6029 44.1332C46.6029 43.7133 46.8829 43.4333 47.0928 43.0834C47.5827 42.1736 48.1426 41.2638 48.6325 40.3539C48.7725 40.144 48.9125 39.864 49.0524 39.6541C49.1224 39.4441 49.3324 39.4441 49.4724 39.4441C50.3822 39.4441 51.292 39.4441 52.2718 39.4441C53.8815 39.3741 55.5612 39.3041 57.1009 39.0242C57.5908 38.9542 58.0807 38.8842 58.5006 38.6743C59.6904 38.1144 59.9003 36.9946 60.1103 35.8748C60.1103 35.8748 60.0403 35.8048 60.0403 35.7348C60.1803 34.895 60.1803 33.9852 60.1803 33.1453C60.2503 28.8762 60.3902 24.607 60.4602 20.3378C60.4602 19.148 60.3203 18.0982 59.6204 17.1184C59.8303 16.9785 60.0403 16.7685 60.2503 16.6285C60.8102 16.2086 61.2301 15.7187 61.86 15.3688C61.86 17.1884 61.79 19.0081 61.79 20.8277C61.72 23.0673 61.65 25.3069 61.65 27.5464C61.65 27.8963 61.65 28.1763 61.2301 28.3163C61.65 28.3863 61.58 28.6662 61.58 28.9461C61.51 33.7752 61.3701 38.5343 61.3001 43.3634C61.3001 43.7833 61.1601 43.8533 60.8102 43.8533C57.4508 44.0632 54.0915 44.2732 50.6621 44.2732C49.3324 44.1332 47.9326 44.1332 46.6029 44.1332Z" fill="#FCC89C"/>
<path d="M43.6635 36.9946C43.7335 37.2046 43.9434 37.0646 44.0134 37.0646C44.5033 37.0646 45.0632 37.0646 45.5531 37.1346H43.7335V37.2046C44.6433 37.2745 45.6231 37.4145 46.5329 37.4845C49.1224 37.6245 51.7119 37.6945 54.2314 37.6245C55.0713 37.6245 55.9111 37.5545 56.7509 37.2745C58.2906 36.7846 58.7805 35.8748 58.7805 34.5451C58.8505 29.4361 58.7805 24.397 58.7805 19.288C58.7805 18.2382 58.1507 17.5384 57.3808 16.9785C56.401 16.2786 55.3512 15.9987 54.1614 15.7887C53.4616 15.7187 52.7617 15.6487 52.0618 15.6487C51.7819 15.6487 51.7119 15.7187 51.5719 15.9987C50.6621 18.3082 49.7523 20.6178 48.7725 22.9973C47.6527 25.7968 46.5329 28.5962 45.4831 31.3957C45.2732 31.9556 44.7133 31.8856 44.2934 32.0955C44.2234 31.8856 44.2934 31.8156 44.3633 31.6756C46.253 27.0565 48.1426 22.4374 50.0322 17.8183C50.2422 17.2584 50.5221 16.6985 50.7321 16.1386C50.8021 15.9287 50.8021 15.8587 50.5221 15.8587C48.9824 15.8587 47.5127 15.9287 45.973 15.9987C45.903 15.9987 45.8331 15.9987 45.8331 15.9987C44.3633 15.9987 42.9636 16.0686 41.4939 16.1386C39.8142 16.2086 38.1345 16.2786 36.3849 16.3486C34.7752 16.4186 33.1655 16.4886 31.6258 16.4886C30.646 16.4886 30.716 16.4886 30.2961 17.3984C29.5262 19.0781 28.7564 20.7577 28.0565 22.4374C27.0767 24.677 26.0969 26.9165 25.1171 29.0861C24.3472 30.9058 23.5774 32.6554 22.7375 34.4751C22.6675 34.685 22.5276 34.965 22.5975 35.1749C22.4576 35.1749 22.5276 35.2449 22.5276 35.3849H22.4576C22.4576 35.3849 22.4576 35.4549 22.5276 35.4549C22.5276 35.5249 22.5276 35.5949 22.5276 35.5949C22.5276 35.8048 22.7375 35.7348 22.8775 35.7348C24.6272 35.8748 26.3768 36.0848 28.0565 36.2247C29.3162 36.3647 30.506 36.4347 31.7658 36.5047C31.8358 36.5047 31.9757 36.5047 32.0457 36.5747C31.4858 36.9246 30.9259 37.2046 30.1561 37.1346C29.5962 37.0646 29.0363 36.9946 28.4764 36.9946C27.2167 36.9246 26.0269 36.9246 24.7671 36.7846C23.3674 36.6447 22.0377 36.6447 20.6379 36.3647C20.5679 36.3647 20.498 36.3647 20.498 36.3647C20.218 36.2947 20.218 36.0848 20.288 35.8748C20.5679 35.3149 20.5679 35.2449 21.2678 35.5249C21.6177 35.6648 21.7577 35.5949 21.9677 35.2449C23.5074 32.0256 24.9771 28.8062 26.4468 25.5168C27.4966 23.0673 28.6164 20.6877 29.6662 18.2382C29.8062 17.8183 30.0161 17.4684 30.1561 17.0484C30.2961 16.6985 30.2261 16.6285 29.8761 16.6985C28.9663 16.6985 28.1965 16.9785 27.4966 17.5384C27.4266 17.6083 27.3566 17.6083 27.2866 17.6783C27.2866 17.6783 27.2866 17.6783 27.2167 17.6783C27.1467 17.0484 27.9865 16.2086 28.6864 16.1386C29.9461 16.0686 31.2759 15.9987 32.5356 15.9287C34.4952 15.8587 36.4549 15.7187 38.3445 15.5787C38.9744 15.5087 39.6742 15.5787 40.3041 15.5087C41.9138 15.4388 43.5235 15.3688 45.1332 15.2988C46.6029 15.2288 48.0726 15.2288 49.5423 15.0888C51.0121 15.0188 52.4818 14.9489 53.9515 15.0188C55.4912 15.0888 56.9609 15.5087 58.1507 16.4886C58.9905 17.1884 59.4804 18.1682 59.5504 19.288C59.6204 21.5276 59.4804 23.7672 59.4104 25.9367C59.4104 26.9165 59.4104 27.8964 59.3404 28.8062C59.2705 30.6958 59.3404 32.5854 59.2705 34.4751C59.2005 36.2947 58.2906 37.6245 56.681 38.0444C56.1911 38.1844 55.7711 38.1144 55.2812 38.1844C53.7415 38.3243 52.2018 38.3243 50.5921 38.2543C48.8425 38.1844 47.0228 38.1144 45.2732 37.9744C43.6635 37.9044 42.1238 37.7644 40.5141 37.6245C38.6244 37.4845 36.8048 37.3445 34.9152 37.2046C34.4253 37.1346 33.8654 37.2045 33.4455 37.0646C34.2153 36.3647 35.1951 36.6447 36.1049 36.6447C36.9448 36.7146 37.7846 36.7846 38.6245 36.8546C39.6043 36.9246 40.5841 36.9946 41.6339 37.0646C41.9838 37.0646 42.1238 36.9946 42.1938 36.7146C42.4737 36.0848 42.7537 35.4549 42.9636 34.825C43.1736 34.0552 43.7335 33.9852 44.3633 33.8452C44.0834 34.685 43.7335 35.5249 43.4535 36.4347C43.6635 36.7146 43.5935 36.8546 43.6635 36.9946Z" fill="#58595B"/>
<path d="M63.3997 17.8883C64.4495 18.0282 65.4993 18.1682 66.5491 18.3082C67.5289 18.4482 68.5087 18.5182 69.5585 18.6581C70.6083 18.7981 71.6581 18.9381 72.7079 19.078C73.7577 19.218 74.8075 19.288 75.8573 19.428C76.2772 19.498 76.7671 19.498 77.187 19.7079V19.8479C76.9071 20.1278 76.9071 20.4778 76.977 20.7577C76.977 21.5976 76.7671 22.5074 76.7671 23.3472H76.5571H76.4871C76.4172 23.3472 76.3472 23.3472 76.2772 23.4172C76.1372 23.1373 75.8573 23.2072 75.5773 23.2072C73.5477 23.2072 71.5881 23.1373 69.5585 23.2072C68.6487 23.2072 67.6688 23.2772 66.829 23.7671C66.4091 24.0471 66.1991 24.467 65.9892 24.8869C65.7792 25.5168 65.7092 26.0767 65.7092 26.7066C65.7092 27.1265 65.7792 27.5464 65.6392 27.9663C65.6392 28.1063 65.6392 28.2463 65.6392 28.3163C65.6392 28.4562 65.9192 28.5262 65.7092 28.6662C65.5693 28.8062 65.4293 28.6662 65.3593 28.5962C64.8694 28.3163 64.3095 28.1063 63.7496 27.9663C63.4697 27.8963 63.3297 27.7564 63.3297 27.4064C63.3297 26.4966 63.4697 25.5868 63.3997 24.607C63.2597 22.4374 63.3297 20.1978 63.3297 18.0282C63.3997 18.0282 63.3997 17.9583 63.3997 17.8883Z" fill="#1A1310"/>
<path d="M76.4871 23.4172H76.6971C76.5571 26.0767 76.4172 28.8062 76.3472 31.4657C76.3472 31.6756 76.2772 31.7456 76.0672 31.6756C75.0874 31.4657 74.1076 31.4657 73.1278 31.6756C72.9178 31.7456 72.8479 31.6756 72.7779 31.5356C71.5881 30.0659 69.9084 29.856 68.3687 30.9058C68.2287 30.9758 68.1588 31.0457 68.0188 30.8358C67.5989 30.2759 67.109 29.786 66.5491 29.2961C66.4791 29.2261 66.4091 29.1561 66.4091 29.0161C66.4091 27.8963 66.3391 26.8466 66.4791 25.7268C66.689 24.467 67.179 24.0471 68.3687 23.9071C69.3485 23.7671 70.3283 23.7671 71.3082 23.7671C72.7779 23.6972 74.2476 23.6272 75.7173 23.4872C75.8573 23.4872 76.0672 23.4172 76.2072 23.4172C76.2772 23.4172 76.3472 23.4172 76.4172 23.3472C76.4172 23.4172 76.4172 23.4172 76.4871 23.4172Z" fill="white"/>
<path d="M67.1789 34.3351C67.5289 36.1547 69.7684 37.2745 71.5181 36.5047C72.008 36.2947 72.4279 35.9448 72.7779 35.5249C72.9178 35.3849 72.9878 35.3849 73.1278 35.3849C74.0376 35.6648 74.8775 35.5949 75.7873 35.4549C76.0672 35.3849 76.1372 35.4549 76.1372 35.7348C76.1372 37.6245 76.1372 39.5141 75.9272 41.4737C75.5773 41.5437 75.2274 41.5437 74.8775 41.6137C74.3176 41.3337 73.6177 41.2638 72.9878 41.1938C71.0982 40.9138 69.2086 40.7039 67.2489 40.5639C65.9892 40.4239 64.7294 40.2839 63.4697 40.3539C63.1897 40.3539 63.0497 40.2839 63.0497 40.004C63.1197 38.3243 63.1197 36.7146 63.1897 35.035C63.3997 34.825 63.1197 34.4751 63.3997 34.3351C64.7294 34.615 65.9192 34.895 67.1789 34.3351Z" fill="#FCC89C"/>
<path d="M48.2126 26.4266C48.6325 25.4468 48.9824 24.397 49.4024 23.4172C50.3122 21.1077 51.292 18.8681 52.2018 16.5585C52.2718 16.4186 52.2718 16.2786 52.5517 16.2786C54.0215 16.2786 55.4212 16.4886 56.6809 17.1884C57.4508 17.6083 58.1507 18.2382 58.2906 19.148C58.2906 19.218 58.2906 19.288 58.2906 19.358C58.1507 19.498 58.2207 19.6379 58.2207 19.7779C58.2207 20.5478 58.2207 21.2476 58.2207 22.0175C58.2207 22.2274 58.2206 22.3674 58.0107 22.4374C56.9609 22.9273 55.9111 23.4872 54.8613 23.9071C53.7415 24.327 52.6217 24.747 51.5719 25.2369C50.7321 25.5868 49.8223 25.9367 48.9125 26.2167C48.6325 26.2867 48.4225 26.4266 48.2126 26.4266Z" fill="white"/>
<path d="M62.7698 64.5692C62.5598 66.9488 62.2099 69.3983 61.72 71.7779C61.65 72.1978 61.4401 72.5477 61.4401 72.9676C61.4401 73.5975 61.79 74.0174 62.4199 74.1574C63.0497 74.2274 63.6096 74.0874 64.2395 73.9474C66.1291 73.3176 67.8788 72.4077 69.6285 71.4979C73.9676 69.2583 78.0968 66.7388 82.0861 63.8694C82.156 63.8694 82.156 63.7994 82.296 63.7294C82.366 64.3593 82.226 64.9192 82.226 65.4791C82.226 65.619 82.0861 65.619 82.0161 65.689C76.4871 68.9784 70.9582 72.3377 65.1493 75.1372C64.1695 75.6271 63.1197 76.047 61.9999 76.187C60.8802 76.327 60.0403 75.9071 59.7604 74.8573C59.6904 74.7173 59.6904 74.5773 59.7604 74.3674C60.3903 71.7079 60.8802 68.9784 61.2301 66.2489C61.2301 66.1789 61.2301 66.1089 61.3001 66.1089C61.72 65.5491 62.2799 65.0592 62.7698 64.5692Z" fill="#F6AE1A"/>
<path d="M31.9758 44.4831C31.9758 45.113 31.9758 45.8129 31.9758 46.4428C31.9758 46.7227 31.9058 46.7927 31.6258 46.7227C29.4563 46.4428 27.2167 46.1628 25.0471 45.8829C24.4172 45.8129 23.7174 45.7429 23.0175 45.6729C22.8076 45.6729 22.6676 45.6029 22.7376 45.323C22.8775 43.9932 22.8775 42.5935 22.8775 41.2638C22.8775 40.9838 22.9475 40.9138 23.2975 40.9138C25.9569 41.2638 28.6864 41.6137 31.3459 41.8936C31.7658 41.9636 31.9758 42.1036 31.9058 42.5235C31.9058 43.2234 31.9058 43.8533 31.9758 44.4831Z" fill="#FAA81B"/>
<path d="M78.7267 32.0256C79.1466 32.3055 79.6365 32.1655 80.0565 32.2355C80.7563 32.3055 81.5262 32.3755 82.226 32.1655C82.7859 31.9556 83.1359 31.5356 83.2058 30.9758C83.4158 29.716 83.4158 28.4562 83.3458 27.1265C83.2758 26.4266 83.2758 25.7268 83.2058 25.0269C83.2058 24.0471 82.7859 23.5572 81.8761 23.2772C81.2462 23.1373 80.5464 23.2073 79.9165 23.2073C79.5666 23.2073 79.2866 23.2073 78.9367 23.2772C78.7267 23.2772 78.7267 23.2073 78.7267 22.9973C78.7267 22.0175 78.7267 21.1077 78.7267 20.1279C78.7267 19.9179 78.7967 19.8479 79.0067 19.8479C79.5665 19.8479 80.0565 19.9879 80.5464 20.1279C81.2462 20.2678 81.8761 20.4778 82.436 20.7577C83.4858 21.3176 83.9757 22.2274 84.1157 23.4172C84.3956 25.2369 84.1857 27.0565 84.1857 28.8762C84.1857 29.926 84.0457 31.0457 84.0457 32.0955C84.0457 33.1453 83.9057 34.1251 83.9057 35.1749C83.9057 35.4549 83.6958 35.4549 83.5558 35.3849C82.9259 35.3149 82.296 35.2449 81.5962 35.1749C81.5262 35.1749 81.4562 35.105 81.3162 35.105C80.5464 35.105 79.7765 35.105 79.0067 35.035C78.7967 35.035 78.5867 35.035 78.3068 35.035C78.3068 34.1251 78.3768 33.2153 78.3768 32.3055C78.3768 32.1655 78.4468 32.0256 78.4468 31.9556C78.5867 32.0256 78.6567 32.0256 78.7267 32.0256Z" fill="#1A1310"/>
<path d="M58.5706 47.6325V50.9219C58.4306 50.9919 58.3607 50.9219 58.2907 50.9219C57.8707 50.572 57.3808 50.572 56.9609 50.9919C56.331 51.6218 56.331 52.9515 56.8909 53.5814C57.3109 54.0013 57.7308 54.0713 58.3607 53.7213V55.541C57.5908 55.8209 56.821 56.0309 56.0511 56.3108C56.0511 54.0713 55.9811 51.7617 55.9811 49.5222C55.9811 49.2422 55.9811 48.9623 55.9811 48.6123C55.2812 48.9623 54.6514 49.3122 53.9515 49.5921C52.3418 50.152 50.5922 50.432 48.9125 50.6419C48.5625 50.7119 48.3526 50.7119 48.4926 51.2018C49.1924 53.5114 49.2624 55.8209 48.4226 58.0605C48.2826 58.4104 48.5625 58.3405 48.7025 58.3405C50.1023 58.4804 51.502 58.5504 52.9717 58.4104C52.4818 58.5504 52.1319 58.7604 51.7819 58.6904C50.5222 58.6904 49.2624 58.6204 48.0027 58.6204C47.8627 58.6204 47.7927 58.6204 47.6527 58.4104C47.5128 58.0605 47.3028 58.0605 47.0928 58.4104C47.0228 58.5504 46.9529 58.5504 46.8129 58.5504C45.9031 58.5504 44.9233 58.4804 44.0134 58.4104C44.7133 58.0605 45.4132 57.6406 45.9031 57.0107C46.5329 56.2409 46.8129 55.331 46.8129 54.2812C46.8129 54.0713 46.8129 53.9313 46.6729 53.7213C46.8129 53.0215 46.5329 52.3916 46.253 51.8317C45.9031 51.1318 45.3432 50.572 44.6433 50.222C45.3432 50.222 46.043 50.222 46.6729 50.222C46.8129 50.222 46.8829 50.292 46.8829 50.432C46.8829 50.572 46.9529 50.7119 47.1628 50.7119C47.3028 50.7119 47.4428 50.6419 47.4428 50.502C47.4428 50.222 47.6527 50.292 47.7927 50.292C48.3526 50.292 48.9125 50.292 49.4724 50.292C51.222 50.362 52.8317 49.7321 54.3714 48.9623C55.4212 48.4024 56.541 47.8425 57.5208 47.1426C57.8008 46.9327 58.0807 47.0026 58.3607 46.8627C58.5006 46.7927 58.5006 46.9327 58.5006 47.0026C58.5006 47.2126 58.5006 47.3526 58.5006 47.5625C57.6608 47.8425 56.8909 48.2624 55.9811 48.6823C56.331 48.8223 56.541 48.7523 56.821 48.6123C57.4508 48.1924 58.0107 47.9125 58.5706 47.6325Z" fill="#F6AE1A"/>
<path d="M58.2906 57.0107C58.2206 57.3606 57.9407 57.5706 57.7307 57.7806C56.6809 59.1103 55.4212 60.2301 53.8815 60.9999C52.9717 61.4199 51.9918 61.6998 51.012 61.7698C48.9124 61.9098 46.8129 61.4898 44.7832 61.0699C41.9138 60.44 39.1143 59.7402 36.3149 59.1103C34.3553 58.6904 32.4656 58.2005 30.576 57.7806C27.4266 57.0807 24.3472 56.4508 21.1978 55.751C21.0578 55.751 20.9179 55.751 20.8479 55.681C20.7079 55.261 20.5679 54.8411 20.358 54.3512C21.4078 54.7012 22.3876 55.0511 23.3674 55.331C26.8667 56.3808 30.436 57.1507 34.0053 57.7806C35.755 58.1305 37.5746 58.3405 39.3943 58.5504C39.7442 58.6204 40.0942 58.7604 40.5141 58.8304C43.5935 59.5302 46.6029 60.2301 49.7523 60.58C51.432 60.79 53.0416 60.51 54.3714 59.4602C54.7913 59.1103 55.2812 58.6904 55.5612 58.2005C56.401 57.8505 57.3108 57.4306 58.2906 57.0107Z" fill="#F6AE1A"/>
<path d="M62.7698 64.5692C62.2799 65.0592 61.79 65.5491 61.2301 66.039C61.3701 64.4993 61.58 62.9596 61.65 61.4199C61.72 60.0901 61.79 58.6904 61.79 57.3606C61.72 53.1615 61.86 48.9623 61.86 44.7631C61.86 44.3432 61.93 44.1332 62.4199 44.2032C62.8398 44.2032 63.2597 44.1332 63.6096 44.0632C63.8896 43.9932 63.9596 44.0632 63.9596 44.4131C63.8196 47.2126 63.6796 50.0821 63.5397 52.9515C63.3997 56.8007 63.1897 60.72 62.7698 64.5692Z" fill="#F6AE1A"/>
<path d="M78.7267 32.0255C78.6567 32.0255 78.5867 32.0255 78.5867 32.0255C78.6567 30.1359 78.6567 28.3163 78.7267 26.4266C78.7267 25.4468 78.7267 24.467 78.7267 23.4872C79.8465 23.7671 81.0363 23.4872 82.156 23.9771C82.436 24.1171 82.7159 24.327 82.7159 24.677C82.7859 26.5666 82.8559 28.3862 82.7859 30.2759C82.7159 31.3957 82.436 31.7456 81.3162 31.8156C80.6163 31.8856 79.9165 31.8856 79.1466 31.8856C78.9367 31.8856 78.7267 31.8156 78.7267 32.0255Z" fill="white"/>
<path d="M41.7739 66.7388C41.9838 66.6688 42.0538 66.8788 42.1238 66.9488C43.1736 68.2785 44.2234 69.6083 45.3432 70.868C46.183 71.8478 47.0928 72.7577 48.0726 73.5975C49.1224 74.4373 50.3122 74.7173 51.572 74.8573C54.2315 75.1372 56.751 74.4373 59.2005 73.7375L58.8506 75.1372C57.1009 75.6271 55.3512 76.187 53.5316 76.5369C52.8317 76.6769 52.0619 76.8169 51.362 76.7469C49.9623 76.6069 48.6325 76.187 47.3728 75.6971C46.9529 75.5571 46.463 75.4871 46.113 75.1372C46.463 75.0672 46.253 74.8573 46.183 74.7173C45.0632 72.7577 43.9434 70.7281 42.8237 68.7684C42.5437 68.1386 42.1238 67.4387 41.7739 66.7388Z" fill="#F6AE1A"/>
<path d="M55.4212 51.8317C55.4212 53.2314 55.4212 54.5612 55.4212 55.9609C55.4212 56.1709 55.3512 56.3108 55.2113 56.4508C54.5814 57.1507 53.8115 57.5006 52.9017 57.6406C51.7819 57.7806 50.5922 57.7806 49.4724 57.7106C49.3324 57.7106 49.1224 57.7106 49.2624 57.4306C49.6823 55.8209 49.6823 54.2112 49.3324 52.6016C49.4724 52.6016 49.6823 52.6016 49.8223 52.6016C50.5922 52.6715 51.362 52.6016 52.1319 52.6715C53.3216 52.6715 54.3714 52.2516 55.4212 51.8317Z" fill="#FAA81B"/>
<path d="M20.4979 35.8048C20.428 36.0148 20.428 36.2247 20.7079 36.2947C21.1278 36.5747 21.6177 36.5747 22.1076 36.7146C22.3876 37.9044 23.0874 38.6743 24.0673 39.3741C24.6971 39.794 25.467 40.004 26.2368 40.144C27.7066 40.4239 29.1763 40.5639 30.646 40.7739C31.9757 40.9838 33.3055 40.9138 34.6352 41.4037C35.475 41.7537 36.1749 42.2436 36.4549 43.1534C36.5248 43.3634 36.5248 43.5033 36.4549 43.6433C35.475 43.6433 34.5652 43.5033 33.5854 43.4333C33.5854 43.1534 33.5854 42.8734 33.5154 42.6635C33.4454 41.8237 33.4454 41.8237 32.6056 41.7537C32.6056 41.5437 32.5356 41.4737 32.3257 41.4037C29.2463 41.0538 26.0969 40.7039 23.0175 40.4239C22.4576 40.3539 22.5276 40.3539 22.5276 40.9138C22.5276 41.3337 22.5276 41.6837 22.5276 42.1036C21.5477 41.8237 20.5679 41.5437 19.5181 41.3337C19.2382 41.2638 19.3782 41.1238 19.3782 40.9838C19.5181 39.6541 19.7281 38.3943 20.008 37.1346C20.078 36.8546 20.078 36.5747 20.148 36.3647C20.288 36.1547 20.288 35.8748 20.428 35.7348C20.428 35.7348 20.428 35.8048 20.4979 35.8048Z" fill="#FCC89C"/>
<path d="M77.9568 41.2638C78.1668 39.4441 78.2368 37.6945 78.3768 35.8748C78.3768 35.6649 78.4468 35.5949 78.6567 35.6648C80.1964 35.9448 81.8061 36.0148 83.4158 35.8748C83.6258 35.8748 83.6957 35.8048 83.9057 35.5949C83.8357 36.9246 83.7657 38.1844 83.6957 39.5141C83.6957 39.7941 83.6258 40.074 83.6258 40.3539C83.6258 40.7039 83.4158 40.8438 83.1358 40.8438C82.0861 40.8438 81.0363 41.0538 79.9865 41.1238C79.4966 41.1238 79.0766 41.1238 78.6567 41.2638C78.3768 41.1938 78.1668 41.1938 77.9568 41.2638Z" fill="#FCC89C"/>
<path d="M48.2126 26.4266C48.4226 26.4966 48.6325 26.3566 48.8425 26.2867C49.7523 26.0767 50.5921 25.6568 51.502 25.3068C52.6217 24.8869 53.7415 24.467 54.7913 23.9771C55.9111 23.5572 56.8909 22.9973 57.9407 22.5074C58.1507 22.4374 58.1507 22.2974 58.1507 22.0875C58.1507 21.3176 58.1507 20.6178 58.1507 19.8479C58.1507 19.7079 58.0807 19.498 58.2207 19.428C58.2207 21.3176 58.2207 23.2772 58.2207 25.1669C58.2207 25.7268 58.2207 26.2867 58.2207 26.8466C57.9407 26.7066 57.7308 26.7066 57.5908 27.0565C57.5208 27.3365 57.1709 27.4064 56.8909 27.3365C56.7509 27.3365 56.541 27.1965 56.471 27.2665C56.0511 27.5464 55.6312 27.4064 55.2112 27.2665C55.0713 27.1965 54.8613 27.1965 54.7213 27.1965C52.9017 27.1965 51.152 27.1965 49.3324 27.1965C49.0524 27.1965 48.7725 27.1965 48.5625 27.4064C48.4226 27.5464 48.2126 27.4764 48.2826 27.2665C48.3526 26.9865 48.2126 26.7766 48.1426 26.4966C48.1426 26.4966 48.1426 26.4266 48.2126 26.4266Z" fill="white"/>
<path d="M27.0067 16.9085C26.9367 17.1184 26.8667 17.2584 26.8667 17.4684C26.8667 16.7685 26.7968 15.9986 26.9367 15.2988C27.0067 14.9488 27.2867 14.8789 27.5666 14.8089C28.6164 14.5289 29.7362 14.389 30.786 14.319C33.4455 14.109 36.105 14.039 38.7644 13.969C42.8936 13.8291 46.9529 13.6891 51.0821 13.6191C53.0417 13.5491 55.0013 13.5491 56.9609 13.5491C58.5006 13.5491 60.0403 13.7591 61.58 14.179C61.65 14.179 61.79 14.179 61.86 14.179C61.79 14.389 62.0699 14.389 61.93 14.5989C61.72 14.5989 61.51 14.5989 61.3001 14.5989C60.6702 14.5289 59.9703 14.5289 59.3405 14.4589C57.1009 14.249 54.9313 14.249 52.6917 14.389C52.5518 14.389 52.4118 14.389 52.2718 14.389C52.0619 14.4589 51.8519 14.5289 51.6419 14.4589C51.292 14.319 50.9421 14.389 50.5921 14.4589C49.0524 14.5289 47.5127 14.5289 46.043 14.5989C45.8331 14.5989 45.5531 14.5289 45.3432 14.5989C44.4333 14.7389 43.5235 14.6689 42.6837 14.7389C41.074 14.8089 39.4643 14.8789 37.8546 14.9488C36.035 15.0188 34.2153 15.0188 32.3957 15.1588C31.2759 15.2288 30.0861 15.2288 28.9663 15.2288C27.9165 15.2288 27.2167 15.9986 27.2167 16.9085C27.0767 16.8385 27.0067 16.9085 27.0067 16.9085Z" fill="#FCC89C"/>
<path d="M29.6662 17.1884C29.1063 18.5182 28.4765 19.7779 27.9166 21.0377C25.817 25.6568 23.7874 30.2759 21.8977 34.965C21.8277 35.105 21.8277 35.3149 21.6178 35.2449C21.3378 35.1749 21.0579 35.2449 20.8479 35.035C20.7779 34.965 20.9179 34.755 20.9879 34.615C21.9677 32.0255 22.9475 29.4361 23.9973 26.8466C24.9771 24.327 26.0269 21.8075 27.0067 19.218C27.2167 18.6581 27.4966 18.1682 27.9866 17.8183C28.4065 17.3984 28.9664 17.1884 29.6662 17.1884Z" fill="#DBEEF8"/>
<path d="M77.187 19.9179V19.7779C77.537 19.7079 77.8869 19.8479 78.2368 19.8479C78.4468 19.8479 78.4468 19.9879 78.4468 20.1279C78.5168 20.5478 78.3768 20.8977 78.3768 21.2476C78.3768 21.7375 78.3068 22.2274 78.3068 22.7873C78.2368 23.8371 78.1668 24.8169 78.0969 25.8667C78.0269 27.1965 77.9569 28.5962 77.8869 29.926C77.8169 30.6958 77.8869 31.4657 77.8169 32.2355C77.6769 33.5653 77.8169 34.825 77.7469 36.1548C77.607 37.5545 77.7469 39.0242 77.6769 40.4239C77.6769 40.7039 77.8169 41.0538 77.7469 41.3337C77.467 41.4037 77.187 41.4037 76.9771 41.5437C76.4172 41.6837 76.4172 41.6837 76.4872 41.1238C76.5572 40.3539 76.6271 39.6541 76.6971 38.8842C76.7671 36.9246 76.9071 34.965 76.9771 32.9354C77.0471 31.3957 77.0471 29.856 77.117 28.3163C77.187 27.1265 77.117 25.8667 77.187 24.677C77.327 23.3472 77.187 21.9475 77.257 20.6178C77.257 20.3378 77.187 20.1279 77.187 19.9179Z" fill="#403F41"/>
<path d="M61.2301 44.973C61.1601 44.973 61.0901 44.973 61.0201 44.973C60.8802 44.8331 60.7402 44.9031 60.6002 44.9031C58.9905 45.043 57.4508 45.183 55.8412 45.253C54.6514 45.323 53.4616 45.393 52.3418 45.4629C50.1722 45.6029 48.0027 45.5329 45.8331 45.5329C44.0834 45.5329 42.3338 45.393 40.5841 45.253C39.3943 45.183 38.2046 45.113 36.9448 44.973C35.5451 44.8331 34.2153 44.7631 32.8156 44.6231C32.6756 44.6231 32.5357 44.5531 32.5357 44.3432C32.5357 44.1332 32.3957 43.7833 32.5357 43.6433C32.6756 43.5033 32.9556 43.7133 33.1655 43.7133C34.9152 44.0632 36.7348 44.2032 38.4845 44.4132C39.6043 44.5531 40.6541 44.5531 41.7739 44.6231C44.6433 44.8331 47.5128 44.7631 50.3822 44.7631C52.1319 44.7631 53.8815 44.6231 55.6312 44.4831C57.3809 44.3432 59.1305 44.2032 60.8102 43.8533C61.0901 43.7833 61.2301 43.9232 61.1601 44.1332C61.1601 44.4831 61.4401 44.6931 61.2301 44.973Z" fill="#403F41"/>
<path d="M46.7429 53.6514C46.6729 54.0713 46.6029 54.4912 46.4629 54.9111C46.113 56.0309 45.4831 56.8008 44.2234 56.9407C43.5935 57.0107 43.0336 56.8707 42.5437 56.5208C41.074 55.611 40.3741 53.5114 41.004 51.9017C41.6339 50.362 43.2436 49.8021 44.6433 50.6419C45.6231 51.2018 46.183 52.0417 46.5329 53.0915C46.6729 53.3014 46.7429 53.5114 46.7429 53.6514ZM42.3337 55.681L42.4037 55.751C42.5437 55.751 42.4737 55.681 42.3337 55.681C42.3337 55.471 42.2637 55.331 42.2637 55.1911C42.1938 55.0511 42.2637 54.9811 42.4037 55.1211C42.5437 55.541 42.8936 55.751 43.3135 55.681C43.8734 55.611 44.0134 55.471 44.0134 54.9811C44.0834 54.9111 44.2234 54.7711 44.2933 54.7012C44.5033 54.4212 44.5033 54.1413 44.2234 54.0013C43.3835 53.5114 42.4737 53.4414 41.5639 53.7214C41.2839 53.7913 41.2139 54.0713 41.2839 54.2812C41.5639 54.9111 41.8438 55.401 42.3337 55.681ZM44.8532 54.1413C45.4831 54.6312 45.6231 54.9811 45.3431 55.611C45.1332 56.1709 44.6433 56.4508 44.0134 56.5908C44.0834 56.6608 44.0834 56.6608 44.1534 56.6608C45.6231 56.6608 46.8129 54.9811 46.253 53.5814C46.183 53.4414 46.183 53.3014 45.973 53.3014C45.8331 53.3014 45.6931 53.3714 45.6931 53.5114C45.6231 54.0013 45.3431 54.1413 44.8532 54.1413ZM45.2732 51.6917C44.8532 50.9219 44.0834 50.502 43.2436 50.6419C42.7536 50.7119 41.9838 51.3418 41.8438 51.9717C42.9636 51.2718 44.0834 51.4118 45.2732 51.6917ZM44.0834 52.8815C44.1534 52.8815 44.2234 52.8815 44.2933 52.8815C44.5733 52.8115 44.7833 52.7415 44.7833 52.4616C44.7833 52.1816 44.5733 52.0417 44.2933 52.0417C44.2234 52.0417 44.1534 52.0417 44.0834 52.0417C43.7335 52.0417 43.4535 52.1117 43.4535 52.5316C43.4535 52.8115 43.7335 52.8815 44.0834 52.8815Z" fill="#ABA6A4"/>
<path d="M73.1978 33.6352C72.9878 34.1251 72.8479 34.615 72.4979 35.035C71.868 35.7348 71.0982 36.1547 70.1184 36.0848C68.9286 36.0148 68.0888 35.3849 67.8088 34.1951C67.3189 32.4455 68.5087 30.9058 70.1184 30.8358C70.0484 31.0457 69.8384 31.0457 69.6985 31.1157C69.3485 31.3257 68.9286 31.5356 68.7186 31.9556L68.6487 32.0255L68.7186 31.9556C69.0686 31.8156 69.4885 31.6756 69.8384 31.6056C70.9582 31.4657 72.218 31.7456 72.5679 33.0753L72.6379 33.1453C72.7779 32.7254 72.5679 32.3755 72.4979 32.0255C72.9178 32.3055 72.9178 32.8654 73.1278 33.2853C73.1978 33.4253 73.1978 33.5652 73.1978 33.6352Z" fill="#502110"/>
<path d="M67.179 34.3351C65.9892 34.825 64.7994 34.5451 63.5397 34.3351C63.3997 34.2651 63.6796 33.9152 63.3297 34.0552C63.4697 32.3055 63.3997 30.5558 63.3997 28.8762C63.3997 28.5962 63.4697 28.5262 63.7496 28.5962C64.4495 28.8062 65.0094 29.1561 65.6393 29.506C65.8492 29.646 65.9892 29.856 65.9892 30.1359C66.0592 30.7658 66.1992 31.3957 66.899 31.7456C67.109 31.8156 67.3889 31.6756 67.4589 31.9556C67.5289 32.1655 67.3189 32.3755 67.249 32.5854C67.039 33.0753 66.969 33.7052 67.179 34.3351Z" fill="#1A1310"/>
<path d="M77.9568 44.3432C74.7375 45.043 71.4481 45.7429 68.2287 46.4427C66.969 46.7227 65.6392 47.0026 64.3795 47.2826C64.3095 47.0726 64.3095 46.7927 64.3795 46.5827C65.8492 46.2328 67.3189 45.9528 68.9286 45.6029C68.0887 44.973 67.3189 44.3432 66.549 43.7133C67.5988 43.5033 68.6486 43.3633 69.6984 43.2234C70.3983 43.7833 71.1681 44.2732 71.868 44.8331C72.008 44.973 72.148 44.903 72.2879 44.8331C74.2475 44.4131 76.2072 43.9932 78.1668 43.5733C78.0268 43.8533 78.0268 44.1332 77.9568 44.3432Z" fill="#F6AE1A"/>
<path d="M46.253 75.2072C46.6029 75.5571 47.0928 75.6271 47.5127 75.7671C48.7725 76.257 50.1022 76.6769 51.502 76.8169C52.2718 76.8869 52.9717 76.7469 53.6715 76.6069C55.4912 76.257 57.2409 75.6971 58.9905 75.2072C58.7806 76.467 58.7806 76.467 57.5908 76.8169C55.2113 77.4468 52.8317 77.9367 50.3822 77.7967C49.8923 77.7967 49.4024 77.7267 48.9125 77.5867C47.3028 77.0968 45.7631 76.6069 44.0834 76.047C44.8533 75.6971 45.5531 75.4871 46.253 75.2072Z" fill="#F6AE1A"/>
<path d="M42.5437 69.5383C41.4939 70.0982 40.5141 70.7281 39.4643 71.3579C37.5047 72.5477 35.6151 73.6675 33.5855 74.7873C31.5559 75.977 29.5262 77.0968 27.3567 78.0766C25.8869 78.7765 24.3472 79.4064 22.6676 79.6163C21.8277 79.7563 20.9179 79.7563 20.0781 79.4764C18.3984 78.8465 16.6487 78.2866 15.039 77.5167C14.3392 77.1668 13.6393 76.8869 13.1494 76.257C13.5693 76.4669 13.9893 76.6069 14.4092 76.8169C16.2288 77.6567 18.0485 78.4966 20.0081 79.0564C21.6178 79.5463 23.1575 79.3364 24.6972 78.7765C27.2167 77.7967 29.5962 76.4669 31.9058 75.1372C33.4455 74.2274 34.9852 73.3875 36.5249 72.5477C38.4145 71.4279 40.3741 70.3081 42.2638 69.1884H42.3338L42.5437 69.5383Z" fill="#EF6C56"/>
<path d="M55.4212 58.2705C55.1413 58.7604 54.6514 59.1803 54.2315 59.5302C52.9017 60.65 51.362 60.93 49.6124 60.65C46.533 60.2301 43.4536 59.6002 40.3741 58.9003C40.0242 58.8304 39.6743 58.6904 39.2544 58.6204C40.3741 58.6904 41.4939 58.7604 42.6837 58.9003C44.1534 59.0403 45.6931 59.1103 47.1628 59.1103C48.5626 59.1803 49.9623 59.1803 51.362 59.2503C51.9919 59.2503 52.5518 59.1103 53.1117 58.9703C53.9515 58.6904 54.6514 58.4804 55.4212 58.2705Z" fill="#F6AE1A"/>
<path d="M78.0268 43.6433C76.0672 44.0632 74.1076 44.4831 72.148 44.9031C72.008 44.9031 71.868 44.973 71.7281 44.9031C71.0282 44.3432 70.3283 43.8533 69.5585 43.2934C72.3579 42.8734 75.1574 42.3835 77.9568 41.9636C78.1668 41.8936 78.2368 41.9636 78.1668 42.1736C78.1668 42.6635 78.0968 43.1534 78.0268 43.6433Z" fill="#F6AE1A"/>
<path d="M90.9743 61.9798C90.9044 64.0094 90.6244 65.829 89.5746 67.4387C89.2947 67.8586 88.9447 68.2085 88.5948 68.5585C87.8949 69.1884 87.2651 69.1184 86.7052 68.3485C86.2153 67.6487 86.0753 66.8788 85.8653 66.109C85.8653 65.969 85.7953 65.829 85.7953 65.6191C85.7953 65.4791 85.7953 65.3391 85.9353 65.2691C86.2853 65.1291 86.6352 64.9892 86.9851 64.8492C87.1251 64.7792 87.1951 64.8492 87.1951 64.9892C87.1951 65.1291 87.1951 65.2691 87.2651 65.3391C87.405 65.829 87.475 66.3889 88.1049 66.4589C88.8048 66.5989 89.3647 66.3189 89.7146 65.689C90.2045 64.7792 90.2745 63.7994 90.2045 62.8196C90.2045 62.5396 90.0645 62.2597 90.0645 61.9798C90.0645 61.9098 89.9246 61.8398 89.9945 61.7698C90.0645 61.6998 90.2045 61.7698 90.2745 61.8398C90.4145 62.0497 90.5544 62.3297 90.9743 61.9798Z" fill="#502110"/>
<path d="M86.9151 69.3283C85.6554 69.4683 84.6056 69.2583 83.5558 68.9084C82.7859 68.6285 82.436 67.9986 82.086 67.2987C82.086 67.2287 82.0161 67.1587 82.0161 67.1587C81.9461 66.9488 81.6661 66.7388 81.7361 66.5989C81.8061 66.4589 82.086 66.3889 82.296 66.2489C82.6459 66.039 82.9259 65.899 83.2058 65.689C83.8357 65.2691 84.5356 65.4791 85.1655 65.4791C85.3754 65.4791 85.3054 65.689 85.3054 65.829C85.2354 66.7388 85.3754 67.5787 85.7953 68.3485C86.0753 68.6985 86.4252 68.9784 86.9151 69.3283Z" fill="#502110"/>
<path d="M45.903 13.0592C44.3633 13.1292 42.8936 13.1292 41.3539 13.1992C38.8344 13.2692 36.3149 13.3392 33.8654 13.5491C33.5854 13.5491 33.2355 13.5491 32.9556 13.5491C32.8156 13.4791 32.7456 13.6191 32.6056 13.4791C32.7456 13.4791 32.9556 13.4791 33.0955 13.4091C34.5652 13.0592 36.1049 12.8493 37.6446 12.7093C39.3243 12.4993 41.074 12.2894 42.7537 12.2194C44.5033 12.0794 46.253 11.9394 48.0026 11.9394C48.6325 11.9394 49.2624 11.9394 49.8923 11.9394C50.6621 11.9394 51.432 11.9394 52.2018 12.0094C51.222 12.0794 50.2422 12.1494 49.2624 12.2194C48.2826 12.2894 47.3028 12.4293 46.323 12.8493C46.043 12.8493 45.903 12.9192 45.903 13.0592Z" fill="#FCC89C"/>
<path d="M41.074 49.9421C39.2544 49.9421 37.7846 50.9219 37.3647 52.4616C36.8048 54.3512 37.5747 56.4508 39.1144 57.6406C39.2544 57.7106 39.3943 57.8505 39.6043 57.9905C38.6945 57.9205 37.9246 57.7806 37.1548 57.7106C36.9448 57.7106 37.0848 57.5706 37.0848 57.5006C37.1548 57.2907 37.0148 57.1507 36.8048 57.1507C36.5949 57.1507 36.5249 57.2207 36.4549 57.4306C36.4549 57.5006 36.5949 57.6406 36.3849 57.6406C36.2449 57.6406 36.3149 57.5006 36.3149 57.3606C36.3849 56.8007 36.4549 56.3108 36.4549 55.751C36.5949 53.6514 36.5949 51.4818 36.5949 49.3822C36.8748 49.2422 37.0848 49.4522 37.3647 49.3822C38.0646 49.6621 38.8344 49.6621 39.6043 49.7321C40.1642 49.8021 40.7241 49.8721 41.284 49.8721C41.3539 50.0121 41.214 49.9421 41.074 49.9421ZM37.1548 50.0821C37.2947 50.0121 37.4347 49.9421 37.4347 49.7321C37.4347 49.5921 37.2947 49.4522 37.1548 49.4522C36.9448 49.4522 36.8748 49.5921 36.8748 49.7321C36.8748 49.9421 37.0148 50.0821 37.1548 50.0821Z" fill="#F6AE1A"/>
<path d="M37.1547 48.8223C37.4347 48.4724 37.7146 48.4024 38.1345 48.4724C40.934 48.8223 43.7335 48.8923 46.6029 48.6823C49.4723 48.4024 52.3418 47.9825 55.1412 47.4926C55.6311 47.4226 56.0511 47.2126 56.611 47.2826C55.4212 47.9125 54.2314 48.4724 52.9717 48.9623C52.9017 48.8923 52.8317 48.8923 52.7617 48.8923C51.7119 49.1022 50.7321 49.1022 49.6823 49.1022C46.323 49.1722 42.9636 49.1722 39.6043 49.0323C38.7644 48.9623 37.9246 49.0323 37.1547 48.8223Z" fill="#F6AE1A"/>
<path d="M55.4212 51.8317C54.3714 52.2516 53.3916 52.6716 52.2018 52.6716C51.432 52.6716 50.6621 52.6716 49.8923 52.6016C49.7523 52.6016 49.5424 52.6016 49.4024 52.6016C49.1924 52.0417 48.9825 51.4818 48.8425 50.9219C48.9125 50.8519 48.7725 50.7819 48.8425 50.7119C48.9125 50.7119 48.9825 50.7119 48.9825 50.7119V50.7819C49.1224 50.9919 49.3324 50.9919 49.5424 50.9919C50.1722 51.0619 50.8721 50.9919 51.502 50.8519C51.9219 50.7819 52.3418 50.8519 52.6218 50.432C53.5316 50.152 54.5114 49.9421 55.4912 49.5222V51.8317H55.4212ZM52.6918 51.0619C51.572 51.2018 50.5222 51.1319 49.4024 51.2018C49.9623 51.6218 51.9219 51.5518 52.6918 51.0619ZM49.8923 52.1117C50.5222 52.4616 51.7119 52.5316 52.2718 52.1816C51.502 52.2516 50.7321 52.1117 49.8923 52.1117ZM52.5518 51.6218C51.642 51.6917 50.7321 51.5518 49.6823 51.6218C50.7321 52.0417 51.642 51.8317 52.5518 51.6218Z" fill="#FAA81B"/>
<path d="M61.9999 41.9636C62.0699 40.074 62.0699 38.1844 62.1399 36.2947C62.2099 34.895 62.1399 33.4953 62.2099 32.0955C62.2799 30.9757 62.2099 29.856 62.2799 28.7362C62.2799 28.5962 62.2099 28.3163 62.4898 28.3163C62.7698 28.3163 62.7698 28.5262 62.7698 28.7362C62.5598 30.8358 62.6998 32.9354 62.6998 35.035C62.6998 37.3445 62.6998 39.5841 62.6998 41.8936C62.6998 42.4535 62.8398 42.9434 62.7698 43.5033C62.7698 43.8533 62.5598 43.9232 62.2799 43.9232C61.93 43.9232 61.9999 43.7133 61.9999 43.5033C61.9999 43.0134 61.9999 42.5235 61.9999 41.9636Z" fill="#403F41"/>
<path d="M45.903 13.0592C45.973 12.9192 46.043 12.8493 46.253 12.7793C47.1628 12.4293 48.2126 12.2194 49.1924 12.1494C50.1722 12.0794 51.152 12.0094 52.1318 11.9394C52.2718 11.9394 52.3418 11.9394 52.4818 11.9394C52.9017 12.0794 53.3916 12.0094 53.8815 12.0094C54.5814 12.0094 55.2812 12.0794 55.9811 12.1494C56.1911 12.2194 56.331 12.2894 56.541 12.4293C56.8209 12.5693 57.1009 12.6393 57.1709 12.9892C57.1009 12.9892 57.0309 12.9892 57.0309 12.9892C56.7509 12.8493 56.541 12.9192 56.261 12.9192C53.1816 12.9192 50.1722 12.9192 47.0928 12.9192C46.6729 13.0592 46.253 13.0592 45.903 13.0592Z" fill="#FCC89C"/>
<path d="M16.7887 49.5921C16.4388 48.7523 16.3688 47.8425 16.6487 46.9327C16.8587 46.3028 17.2786 46.1628 17.9085 46.4428C17.2786 46.5827 16.9987 47.0726 16.8587 47.7025C16.9287 47.7025 16.9987 47.7025 17.0686 47.6325C17.4886 47.2826 17.9085 47.2826 18.3984 47.3526C18.5384 47.4226 18.7483 47.5625 18.8883 47.3526C19.2382 47.7725 19.4482 48.2624 19.7281 48.7523C19.7981 48.8923 19.8681 49.0323 19.9381 49.1722C19.8681 49.5921 20.0081 50.0121 19.8681 50.432C19.7981 50.082 19.7981 49.6621 19.6581 49.3122C19.6581 49.2422 19.5882 49.0322 19.4482 49.0322C19.3082 49.0322 19.3082 49.1722 19.3082 49.3122C19.3082 49.5921 19.1682 49.7321 18.8883 49.7321C19.5182 50.222 19.4482 51.2718 19.0982 51.6917C18.9583 51.8317 18.6783 51.8317 18.6783 52.1117C18.2584 52.0417 17.9785 51.8317 17.6985 51.4818C17.8385 51.3418 17.6985 51.2718 17.6985 51.1318C17.8385 51.1318 17.9085 51.2018 18.0485 51.2018C18.3984 51.2018 18.5384 50.9919 18.4684 50.7119C18.8183 49.8721 18.6783 49.5921 17.8385 49.3122C17.4886 49.2422 17.1386 49.4522 16.7887 49.5921ZM17.9085 48.1924C17.9085 48.4724 18.1184 48.6123 18.3284 48.6123C18.5384 48.6123 18.6783 48.4724 18.6783 48.2624C18.6783 47.9825 18.5384 47.8425 18.1884 47.8425C17.9785 47.8425 17.9085 47.9825 17.9085 48.1924Z" fill="#ABA6A4"/>
<path d="M66.4091 43.7833C67.1789 44.4131 67.9488 44.973 68.7886 45.6729C67.2489 46.0228 65.7792 46.3028 64.2395 46.6527C64.2395 45.8829 64.1695 45.043 64.1695 44.2732C64.1695 44.0632 64.2395 44.0632 64.3795 44.0632C65.0793 43.9232 65.7792 43.7833 66.4091 43.7833Z" fill="#F6AE1A"/>
<path d="M73.1978 33.6352C73.1978 33.4953 73.1978 33.4253 73.1978 33.2853C73.4077 32.9354 73.2678 32.6554 73.1978 32.3055C73.1278 32.0955 73.1278 32.0256 73.4077 32.0256C74.2476 32.0256 75.1574 32.1655 75.9972 31.9556C76.2072 31.8856 76.3472 31.9556 76.3472 32.2355C76.2772 33.0753 76.2772 33.8452 76.2772 34.685C76.2772 35.035 75.9273 34.895 75.7173 34.895C75.2274 34.895 74.7375 34.825 74.2476 34.755C73.8977 34.755 73.6177 34.755 73.2678 34.685C73.1978 34.4751 73.3378 34.1951 73.3378 33.9852C73.2678 33.9152 73.3378 33.7752 73.1978 33.6352Z" fill="#1A1310"/>
<path d="M35.755 36.2947C37.7146 35.3849 39.6043 34.6151 41.5639 34.0552C40.934 34.4051 40.3041 34.755 39.6742 35.1749C39.5343 35.2449 39.2543 35.2449 39.3943 35.5249C39.5343 35.8048 39.6742 35.8048 39.9542 35.7348C40.864 35.3849 41.7738 35.035 42.7537 34.685C42.4737 35.3149 42.2637 35.9448 41.9838 36.5747C41.9138 36.7846 41.7738 36.7846 41.6339 36.7146C39.7442 36.5747 37.7846 36.4347 35.755 36.2947Z" fill="#DBEEF8"/>
<path d="M49.8223 11.9394C49.1924 11.9394 48.5626 11.9394 47.9327 11.9394C46.183 11.9394 44.4334 12.0794 42.6837 12.2194C41.004 12.3593 39.2544 12.4993 37.5747 12.7093C36.035 12.9192 34.5653 13.1292 33.0256 13.4091C32.8856 13.4091 32.7456 13.4791 32.5357 13.4791C32.6756 13.6191 32.8156 13.4791 32.8856 13.5491C32.1157 13.6191 31.3459 13.6891 30.576 13.7591C29.8762 13.8291 29.1063 13.969 28.4065 14.039C28.3365 14.039 28.3365 14.039 28.2665 13.969C29.4562 13.5491 30.576 13.1992 31.8358 12.9892C35.4751 12.2894 39.2544 12.0094 42.9636 11.8694C44.9932 11.7995 46.9529 11.7995 48.9825 11.7995C49.2624 11.8694 49.5424 11.8694 49.8223 11.9394Z" fill="#FCC89C"/>
<path d="M33.2355 47.7025C34.5652 47.9125 35.895 48.1924 37.2247 48.4024C36.6648 48.6823 36.2449 48.8923 35.5451 48.7523C32.3957 48.1224 29.1763 47.6325 25.9569 47.1426C24.2072 46.8627 22.3876 46.5827 20.6379 46.1628C20.8479 45.8129 21.0579 45.6729 21.5478 45.7429C22.3176 45.8829 23.1575 45.8129 23.8573 46.0928C23.9273 46.1628 23.9973 46.1628 24.1373 46.1628C24.2072 46.3028 24.3472 46.3028 24.4172 46.3028C27.2867 47.2826 30.2261 47.7725 33.2355 47.7025Z" fill="#F6AE1A"/>
<path d="M27.0767 16.8385C27.0767 15.8587 27.7766 15.1588 28.8264 15.1588C29.9461 15.0888 31.1359 15.0888 32.2557 15.0888C34.0753 15.0188 35.895 14.9489 37.7146 14.8789C39.3243 14.8089 40.934 14.8089 42.5437 14.6689C43.4535 14.5989 44.3633 14.6689 45.2032 14.5289C45.4131 14.459 45.6931 14.5289 45.903 14.5289C46.393 14.5289 46.8129 14.5989 47.2328 14.5989C45.6931 14.6689 44.1534 14.7389 42.6137 14.8089C38.9044 15.0188 35.1951 15.2288 31.5558 15.4388C30.716 15.5087 29.8761 15.5787 29.1063 15.5787C28.3364 15.5787 27.7066 15.9987 27.2867 16.6285C27.2167 16.6985 27.1467 16.7685 27.0767 16.8385Z" fill="#EED0B3"/>
<path d="M38.0646 54.8411C37.7846 53.6514 37.7846 52.5316 38.5545 51.5518C39.1844 51.5518 39.7443 51.9017 40.3741 51.8317C40.3042 52.3216 40.1642 52.8115 40.1642 53.3014C40.1642 53.4414 40.0942 53.5114 39.9542 53.5114C39.6743 53.5814 39.4643 53.6514 39.1844 53.7214C39.0444 53.7913 38.9744 53.8613 38.9744 54.0013C38.9744 54.1413 39.1144 54.2113 39.2544 54.2113C39.3943 54.2113 39.5343 54.2113 39.6743 54.1413C40.0942 54.0013 40.3042 54.2113 40.3042 54.6312C39.6043 54.7711 38.7645 54.7012 38.0646 54.8411Z" fill="#F6AE1A"/>
<path d="M22.6676 45.6729C21.7577 45.393 20.9179 45.183 20.1481 44.6931C19.0283 44.0632 19.1682 44.2032 19.3082 42.7335C20.0081 43.1534 20.7079 43.3633 21.5478 43.5033C21.6878 43.5033 21.8277 43.5733 21.9677 43.5733C22.5976 43.5733 22.5976 43.5733 22.6676 44.2032C22.5976 44.6231 22.5976 45.113 22.6676 45.6729Z" fill="#F6AE1A"/>
<path d="M37.1548 48.8223C37.9246 49.0323 38.6945 48.9623 39.4643 48.9623C42.8237 49.1022 46.183 49.1022 49.5424 49.0323C50.5922 49.0323 51.642 49.0323 52.6218 48.8223C52.6918 48.8223 52.7617 48.8223 52.8317 48.8923C51.7119 49.3822 50.5222 49.5222 49.3324 49.5222C46.113 49.4522 42.8937 49.3122 39.6743 49.2422C39.0444 49.2422 38.4145 49.2422 37.8546 49.2422C37.7147 49.2422 37.5747 49.1722 37.4347 49.3122C37.1548 49.3822 36.9448 49.1722 36.6649 49.3122C36.6649 48.9623 37.0148 48.9623 37.1548 48.8223Z" fill="#F6AE1A"/>
<path d="M20.8479 45.6029C20.358 46.0228 19.8681 46.0228 19.3082 45.8129C18.3284 45.4629 17.3486 45.183 16.4387 44.6231C16.1588 44.4131 16.1588 44.2732 16.4387 44.1332C17.0686 43.7833 17.6985 43.5733 18.3284 43.2934C18.5383 43.2234 18.6083 43.2934 18.5383 43.4333C18.3284 44.5531 19.1682 44.9031 20.0081 45.323C20.288 45.393 20.568 45.4629 20.8479 45.6029Z" fill="#F6AE1A"/>
<path d="M19.9381 49.3122C19.9381 48.1224 19.3782 47.2126 18.6083 46.3728C18.5383 46.3028 18.4684 46.2328 18.3984 46.2328C18.3984 46.2328 18.3984 46.2328 18.3984 46.1628C18.6783 46.2328 18.9583 46.3728 19.2382 46.4428C19.5881 46.5127 19.2382 46.8627 19.4482 47.0026C19.5881 47.0726 19.8681 46.9327 19.9381 47.3526C20.0781 48.7523 20.358 50.152 20.6379 51.5518C20.7779 52.2516 20.9179 52.9515 21.1278 53.6514C21.0579 53.6514 20.9879 53.6514 20.9179 53.6514C20.7079 53.6514 20.6379 53.7913 20.6379 54.0013C20.7079 54.2113 20.8479 54.2812 20.9879 54.1413C21.4078 53.9313 21.1978 54.2812 21.4078 54.4912C20.288 54.1413 19.3082 53.7913 18.3984 53.3714C19.1682 53.3714 19.3082 53.2314 19.5182 52.7415C20.428 51.9017 20.6379 50.292 19.9381 49.3122Z" fill="#F6AE1A"/>
<path d="M63.3997 17.8883C63.3997 17.9583 63.3997 18.0283 63.3997 18.0283C63.1897 18.0283 63.1197 18.0982 63.1197 18.3082C63.0497 19.0081 62.9797 19.7079 62.9797 20.4078C62.9797 21.6676 62.9097 22.8573 62.8398 24.1171C62.7698 25.2369 62.8398 26.3566 62.7698 27.4764C62.7698 27.6864 62.7698 27.8963 62.4198 27.8264C62.1399 27.7564 62.2799 27.6164 62.2799 27.4064C62.2799 26.4966 62.2799 25.6568 62.3499 24.747C62.4198 23.2772 62.3499 21.8075 62.4198 20.3378C62.4198 19.6379 62.4898 18.9381 62.4898 18.2382C62.4898 17.7483 62.5598 17.7483 62.9797 17.8183C63.1897 17.8883 63.2597 17.8883 63.3997 17.8883Z" fill="#403F41"/>
<path d="M41.004 56.0309C41.7738 57.0107 42.7537 57.6406 44.0834 57.6406C42.5437 58.4804 40.3041 57.9905 39.0444 56.6608C39.7442 56.4508 40.3741 56.3108 41.004 56.0309Z" fill="#F6AE1A"/>
<path d="M41.004 56.0309C40.3741 56.3108 39.6742 56.4508 39.0444 56.5908C38.4845 56.1009 38.1345 55.471 37.9946 54.7711C38.7644 54.6312 39.5343 54.7012 40.3041 54.6312C40.5141 55.1211 40.724 55.611 41.004 56.0309Z" fill="#F6AE1A"/>
<path d="M61.9299 15.2988C61.3001 15.6487 60.8801 16.1386 60.3203 16.5585C60.1103 16.6985 59.9003 16.9085 59.6904 17.0484C59.3404 16.6285 58.9205 16.2086 58.5006 15.8587C58.7806 15.6487 59.1305 15.4388 59.2705 15.0888C60.1803 15.0888 61.0201 15.0888 61.9299 15.0888C61.9299 15.0888 61.9299 15.1588 61.9299 15.2988Z" fill="#FCC89C"/>
<path d="M83.4158 43.1534C81.8761 43.5033 80.3364 43.8533 78.7967 44.1332C78.7267 44.1332 78.5867 44.1332 78.5167 44.2032C78.5167 43.9932 78.5167 43.7833 78.5167 43.5033C79.0066 43.3633 79.4265 43.2934 79.9165 43.1534C80.6163 43.0134 81.3162 42.8734 82.086 42.6635C82.5759 42.5935 82.9959 42.5235 83.4858 42.3835C83.4858 42.7335 83.4158 42.9434 83.4158 43.1534Z" fill="#E6262A"/>
<path d="M33.2355 47.7025C30.2261 47.7725 27.2867 47.2826 24.4172 46.3728C24.2772 46.3728 24.2073 46.3028 24.1373 46.2328C25.1871 46.3028 26.1669 46.5127 27.1467 46.7227C28.7564 47.0026 30.2961 47.2126 31.9058 47.4925C32.3957 47.4925 32.8156 47.5625 33.2355 47.7025Z" fill="#FAA81B"/>
<path d="M82.0161 42.7335C81.3162 42.8735 80.6163 43.0134 79.8465 43.2234C80.0565 42.6635 80.3364 42.1036 80.5464 41.4737C81.1762 41.3338 81.8061 41.2638 82.436 41.1238L82.0161 42.7335Z" fill="#F6AE1A"/>
<path d="M80.5463 41.4737C80.3364 42.0336 80.0564 42.5935 79.8465 43.2234C79.3566 43.3634 78.9367 43.4333 78.4467 43.5733C78.4467 43.0834 78.4467 42.6635 78.4467 42.1736C78.4467 41.9636 78.5167 41.8936 78.7267 41.8237C79.3566 41.6837 79.9864 41.6137 80.5463 41.4737Z" fill="#F6AE1A"/>
<path d="M87.8249 64.9192C87.545 64.6392 87.685 64.2893 87.545 63.9394C88.1749 63.6594 87.545 63.0295 87.8249 62.6096C87.8949 62.4697 87.9649 62.3297 88.1049 62.2597C88.1749 62.3297 88.1749 62.3997 88.1749 62.4697C88.1749 62.5396 88.1749 62.6796 88.3148 62.6796C88.4548 62.6796 88.4548 62.5396 88.4548 62.4697C88.3148 61.9798 88.6648 61.9098 88.9447 61.7698C89.1547 62.7496 89.0147 63.7294 88.4548 64.6392C88.3148 64.8492 88.1049 64.9192 87.8249 64.9192ZM88.3848 64.0094C88.5248 63.9394 88.5248 63.8694 88.5248 63.7994C88.5248 63.7294 88.5248 63.5894 88.3848 63.6594C88.2448 63.6594 88.3148 63.7994 88.3148 63.9394C88.1749 63.8694 88.2448 64.0094 88.3848 64.0094ZM88.8047 62.8896C88.8047 62.8196 88.8047 62.6796 88.6648 62.6796C88.5248 62.6796 88.5248 62.8196 88.5248 62.8896C88.5248 62.9596 88.5248 63.0995 88.6648 63.0995C88.8047 63.0995 88.8047 63.0295 88.8047 62.8896Z" fill="#6D6F70"/>
<path d="M40.3742 51.8317C39.7443 51.9017 39.1844 51.5518 38.5545 51.5518C39.1144 50.7819 39.9542 50.502 40.7241 50.222C40.8641 50.152 41.074 50.222 41.074 49.9421C41.214 49.9421 41.354 50.0121 41.424 49.8721H42.0538C41.284 50.292 40.7241 50.9919 40.3742 51.8317Z" fill="#F6AE1A"/>
<path d="M68.7886 32.0255C68.9986 31.6056 69.4185 31.3957 69.7684 31.1857C69.9084 31.1157 70.1184 31.1157 70.1884 30.9058C71.2382 30.8358 72.078 31.1857 72.5679 32.1655C72.5679 32.5155 72.7779 32.8654 72.7079 33.2853L72.6379 33.2153C72.288 31.8856 71.0982 31.6056 69.9084 31.7456C69.4885 31.8156 69.1386 31.9556 68.7886 32.0255Z" fill="#502110"/>
<path d="M17.8385 51.2018C17.8385 51.3418 17.9785 51.4118 17.8385 51.5518C17.2786 50.9919 16.9987 50.362 16.7887 49.5921C17.1386 49.3822 17.4886 49.2422 17.9785 49.3822C18.8183 49.6621 18.9583 49.9421 18.6083 50.7819C18.3284 50.8519 17.9785 50.9919 17.6985 50.7819C17.6985 50.7819 17.6985 50.7819 17.6285 50.7819V50.8519C17.6285 50.9219 17.6285 51.0619 17.6985 51.1318C17.7685 51.1318 17.7685 51.2018 17.8385 51.2018Z" fill="white"/>
<path d="M61.86 14.249C61.2301 13.7591 60.5302 13.6891 59.7604 13.4791C59.3405 13.3392 58.8506 13.3392 58.3607 13.1992C58.5006 13.1992 58.5706 13.1992 58.7806 13.1992C58.5706 12.9892 58.3607 12.7793 58.1507 12.6393C59.2705 12.8493 60.3903 13.1292 61.51 13.1992C61.79 13.1992 61.79 13.5491 61.93 13.7591C61.9999 13.8991 62.1399 14.109 61.86 14.249Z" fill="#FCC89C"/>
<path d="M33.5154 44.973C33.5154 45.8129 33.4455 46.6527 33.5854 47.4926C32.6756 47.3526 32.6756 47.3526 32.6056 46.4428C32.6056 46.0228 32.6056 45.5329 32.6056 45.113C32.6056 44.8331 32.6756 44.7631 32.8856 44.8331C33.0955 44.9031 33.3055 44.973 33.5154 44.973Z" fill="#FAA81B"/>
<path d="M87.825 64.9192C88.1049 64.9192 88.3848 64.8492 88.5248 64.5693C89.0847 63.6594 89.2247 62.7496 89.0147 61.6998C89.0847 61.6298 89.1547 61.6298 89.2247 61.5598C89.3647 62.2597 89.2947 62.9596 89.1547 63.6594C89.4346 62.9596 89.5046 62.2597 89.2947 61.4898C89.3647 61.4199 89.3647 61.4199 89.4346 61.3499C89.5046 61.3499 89.5046 61.2799 89.6446 61.2799C89.6446 62.1897 89.7146 63.0995 89.5046 64.0094C89.2247 64.0793 89.2947 64.3593 89.2247 64.5693C88.9447 65.1291 88.5248 65.4091 87.8949 65.3391C87.8949 65.2691 87.8949 65.1291 87.825 65.0592C87.685 65.0592 87.685 64.9892 87.825 64.9192Z" fill="#58595B"/>
<path d="M57.1709 52.2516C57.1709 52.1816 57.1709 52.1816 57.1709 52.1117C57.1709 51.7617 57.2409 51.3418 57.5908 51.1318C57.7308 51.0619 57.8708 51.1318 58.0107 51.2018C58.2907 51.5518 58.5006 51.9017 58.4307 52.3216C58.4307 52.3916 58.3607 52.4616 58.3607 52.5316C58.2207 52.8115 58.0807 53.2314 57.6608 53.2314C57.2409 53.1615 57.1709 52.7415 57.1709 52.3216C57.1709 52.3916 57.1709 52.3216 57.1709 52.2516Z" fill="#FAA81B"/>
<path d="M82.0161 42.7335C82.156 42.1736 82.296 41.6837 82.436 41.1238C82.7859 41.0538 83.1358 40.9138 83.5558 40.8438C83.4858 41.4037 83.4858 41.9636 83.4158 42.5235C82.9959 42.5935 82.506 42.6635 82.0161 42.7335Z" fill="#F6AE1A"/>
<path d="M58.3607 56.1009C57.5208 56.6608 56.611 57.0107 55.7012 57.3606C55.4912 57.4306 55.2113 57.5706 54.9313 57.5706C55.2813 57.2907 55.6312 56.9407 55.9811 56.5208C56.681 56.3108 57.3109 56.0309 58.0107 55.8209C58.2207 55.8209 58.3607 55.8209 58.3607 56.1009Z" fill="#FAA81B"/>
<path d="M32.6056 41.7537C33.4455 41.8237 33.4455 41.8237 33.5155 42.6635C33.5155 42.9434 33.5155 43.2234 33.5854 43.4333C32.6056 43.5033 32.6056 43.5033 32.6056 42.5235C32.5356 42.3136 32.6056 42.0336 32.6056 41.7537Z" fill="#FAA81B"/>
<path d="M18.8183 52.2516C18.8183 51.9717 19.0982 52.0417 19.2382 51.8317C19.5881 51.4118 19.6581 50.292 19.0283 49.8721C19.3082 49.8021 19.4482 49.6621 19.4482 49.4522C19.4482 49.3122 19.4482 49.1722 19.5881 49.1722C19.7281 49.1722 19.7281 49.3122 19.7981 49.4522C19.9381 49.8021 19.9381 50.222 20.0081 50.572C20.0081 50.9919 19.9381 51.4118 19.7281 51.7617C19.4482 52.1117 19.1682 52.3216 18.8183 52.2516Z" fill="white"/>
<path d="M18.9583 47.4926C18.8183 47.7025 18.6084 47.5625 18.4684 47.4926C17.9785 47.3526 17.4886 47.4226 17.1386 47.7725C17.0687 47.7725 17.0687 47.8425 16.9287 47.8425C17.0687 47.2126 17.3486 46.7227 17.9785 46.5827C18.3984 46.7227 18.6783 47.0726 18.9583 47.4926Z" fill="#CCC8C7"/>
<path d="M17.5585 45.7429C16.7887 45.7429 16.2988 46.1628 15.9489 46.7927C15.9489 46.3728 15.9489 46.0228 15.9489 45.6029C15.9489 45.4629 16.0188 45.4629 16.0888 45.4629C16.4388 45.253 16.4388 45.113 16.0888 44.9031C15.9489 44.8331 15.9489 44.8331 15.9489 44.5531C16.4388 45.043 16.9986 45.393 17.5585 45.7429Z" fill="#F6AE1A"/>
<path d="M22.4576 43.1534C21.4778 42.8734 20.428 42.5935 19.4482 42.3136C19.2382 42.2436 19.3082 42.0336 19.3082 41.8936C19.3782 41.6837 19.5182 41.8236 19.5881 41.8936C20.288 42.2436 21.0579 42.4535 21.8277 42.4535C22.4576 42.5235 22.4576 42.5235 22.4576 43.1534Z" fill="#403F41"/>
<path d="M59.3405 14.4589C58.0807 14.5989 56.751 14.4589 55.4912 14.5289C55.3513 14.5289 55.2113 14.5289 55.0713 14.5289C54.3015 14.5289 53.6016 14.389 52.8317 14.4589C52.7618 14.4589 52.6918 14.4589 52.6918 14.389C54.8614 14.179 57.1009 14.179 59.3405 14.4589Z" fill="#FCC89C"/>
<path d="M19.5881 52.6715C19.3782 53.1615 19.1682 53.2314 18.4684 53.3014C18.3284 53.3014 18.1184 53.2314 17.9785 53.0915C17.9085 53.0215 17.9085 53.0215 17.8385 53.0215C17.5585 52.6715 17.3486 52.2516 16.9986 51.9717C16.9986 51.8317 16.9287 51.6917 16.8587 51.5518C16.8587 51.4818 16.8587 51.3418 16.9287 51.2718C17.2786 51.7617 17.6285 52.2516 18.1184 52.5316C18.4684 52.8815 19.0283 52.9515 19.5881 52.6715Z" fill="#DB7927"/>
<path d="M58.1507 12.6393C58.3607 12.8493 58.5706 12.9892 58.7806 13.1992C58.6406 13.1992 58.5006 13.1992 58.3607 13.1992C57.9407 13.1292 57.5208 13.1292 57.1009 13.0592C57.0309 12.7093 56.751 12.6393 56.471 12.4993C56.2611 12.4293 56.1211 12.3593 55.9111 12.2194C56.681 12.2894 57.4508 12.3593 58.1507 12.6393Z" fill="#FCC89C"/>
<path d="M52.5518 50.502C52.2719 50.9219 51.782 50.8519 51.432 50.9219C50.8021 50.9919 50.1023 51.0619 49.4724 51.0619C49.2624 51.0619 49.0525 51.0619 48.9125 50.8519C49.2624 50.7819 49.6824 50.9219 50.0323 50.7819C50.8021 50.7819 51.502 50.6419 52.2719 50.572C52.3418 50.572 52.4118 50.572 52.4818 50.502C52.4818 50.502 52.5518 50.502 52.5518 50.502Z" fill="#FAA81B"/>
<path d="M57.1009 15.0888C57.5208 14.9489 57.9407 15.0188 58.3606 15.0188C58.6406 15.0188 58.9905 15.0188 59.2705 15.0188C59.1305 15.4388 58.7806 15.5787 58.5006 15.7887C58.0107 15.5787 57.5908 15.2988 57.1009 15.0888Z" fill="#FCC89C"/>
<path d="M66.4791 30.0659C66.899 30.4858 67.3189 30.8358 67.6688 31.1857C67.7388 31.2557 67.8788 31.3257 67.8088 31.3957C67.7388 31.5356 67.5988 31.5356 67.4589 31.5356C66.689 31.3957 66.4791 30.9757 66.4791 30.0659Z" fill="#DBEEF8"/>
<path d="M58.3607 56.1009C58.3607 55.751 58.2207 55.751 58.0107 55.8909C57.3109 56.1709 56.681 56.4508 55.9811 56.5908C56.0511 56.4508 56.1211 56.3808 56.1211 56.2409C56.8909 55.9609 57.6608 55.751 58.4306 55.471C58.4306 55.681 58.4306 55.8909 58.3607 56.1009Z" fill="#FAA81B"/>
<path d="M87.825 65.4091C88.4548 65.4791 88.8747 65.1991 89.1547 64.6392C89.2247 64.4293 89.2247 64.1493 89.4346 64.0793C89.3647 64.4993 89.2947 64.9192 89.0847 65.2691C88.9447 65.4791 88.8048 65.619 88.5948 65.759C88.1749 65.969 88.0349 65.899 87.825 65.4091Z" fill="#6D6F70"/>
<path d="M58.5706 47.6325C58.0107 47.9125 57.4508 48.1924 56.8909 48.5424C56.611 48.6823 56.401 48.7523 56.0511 48.6123C56.9609 48.1924 57.7308 47.7725 58.5706 47.4926C58.5706 47.4926 58.5706 47.5625 58.5706 47.6325Z" fill="#FAA81B"/>
<path d="M16.8587 51.9717C17.2086 52.2516 17.4886 52.6016 17.6985 53.0215C17.3486 53.0215 17.1386 52.6016 16.7887 52.8115C16.5787 52.6715 16.5088 52.5316 16.5088 52.3216C16.5787 52.1816 16.7887 52.1117 16.8587 51.9717Z" fill="#DB7927"/>
<path d="M58.2907 29.856V33.9852C58.1507 33.8452 58.2207 33.7052 58.2207 33.6352C58.2207 31.6056 58.2207 29.576 58.2207 27.5464C58.2207 27.4064 58.1507 27.2665 58.2907 27.1265C58.2907 28.0363 58.2907 28.9461 58.2907 29.856Z" fill="white"/>
<path d="M47.2328 14.5989C46.8129 14.5989 46.3929 14.5289 45.973 14.5289C47.5127 14.4589 49.0524 14.4589 50.5221 14.389C50.6621 14.389 50.7321 14.389 50.8721 14.4589C49.6823 14.5289 48.4225 14.5289 47.2328 14.5989Z" fill="#FCC89C"/>
<path d="M16.7887 51.3418C16.7187 51.4118 16.7187 51.4818 16.7187 51.6218C16.4388 51.6917 16.2988 51.6218 16.2988 51.3418C16.2288 50.8519 16.0888 50.432 16.1588 49.9421C16.2988 50.362 16.5087 50.8519 16.7887 51.3418Z" fill="#DB7927"/>
<path d="M89.2247 61.5598C89.5046 62.2597 89.3647 63.0295 89.0847 63.7294C89.2247 63.0295 89.2947 62.3297 89.2247 61.5598C89.2247 61.5598 89.1547 61.5598 89.2247 61.5598Z" fill="#6D6F70"/>
<path d="M50.8721 14.4589C50.8021 14.389 50.6621 14.389 50.5222 14.389C50.8721 14.319 51.222 14.249 51.572 14.389C51.7819 14.4589 51.9919 14.389 52.2018 14.319C52.0619 14.5289 51.8519 14.389 51.6419 14.4589C51.432 14.5289 51.152 14.4589 50.8721 14.4589Z" fill="#FCC89C"/>
<path d="M76.9771 41.4737C77.187 41.3337 77.467 41.3337 77.7469 41.2638C77.8169 41.3337 77.8869 41.3337 77.9569 41.2638C78.1669 41.2638 78.3768 41.2638 78.6568 41.2638C78.6568 41.2638 78.6568 41.2638 78.7267 41.3337C78.0969 41.3337 77.537 41.4737 76.9771 41.4737Z" fill="#ABA6A4"/>
<path d="M73.1978 34.755C73.5477 34.755 73.8277 34.755 74.1776 34.825C73.8977 35.105 73.5477 34.895 73.3378 34.965C73.2678 34.965 73.1978 35.035 73.1278 34.965C73.0578 34.895 73.1278 34.825 73.1978 34.755Z" fill="#375176"/>
<path d="M74.9474 41.6137C75.2974 41.5437 75.6473 41.5437 75.9972 41.4737C75.9972 41.6137 75.9972 41.6137 75.8573 41.6137C75.5773 41.6837 75.2274 41.6837 74.9474 41.7537C74.9474 41.7537 74.8075 41.7537 74.8774 41.6837C74.8774 41.6837 74.8774 41.6837 74.9474 41.6137Z" fill="#CCC8C7"/>
<path d="M16.3688 67.3687C16.4387 67.7886 16.2988 67.9986 15.8788 67.9986C16.0188 67.7886 16.1588 67.5787 16.3688 67.3687Z" fill="#DB7927"/>
<path d="M78.6567 41.2638C79.0767 41.0538 79.4966 41.0538 79.9865 41.0538C79.5666 41.1238 79.1466 41.1938 78.6567 41.2638Z" fill="#6D6F70"/>
<path d="M17.5586 66.039C17.6285 66.2489 17.4886 66.4589 17.3486 66.5989C17.3486 66.6688 17.2786 66.6688 17.2786 66.6688C17.2086 66.5989 17.2086 66.5289 17.2086 66.4589C17.2786 66.2489 17.4186 66.1789 17.5586 66.039Z" fill="#DB7927"/>
<path d="M63.3297 34.0552C63.6796 33.9152 63.3997 34.3351 63.5397 34.3351C63.1897 34.4751 63.4697 34.825 63.3297 35.035V34.0552Z" fill="#6D6F70"/>
<path d="M78.3768 35.1049C78.5867 35.1049 78.7967 35.1049 79.0766 35.1049C78.7967 35.3849 78.5867 35.4549 78.3768 35.1049Z" fill="#403F41"/>
<path d="M53.8115 12.0794C53.3216 12.0794 52.9017 12.1494 52.4118 12.0094C52.9017 12.0094 53.3216 12.0094 53.8115 12.0794Z" fill="#FCC89C"/>
<path d="M50.0323 50.7119C49.6824 50.8519 49.2624 50.7819 48.9125 50.7819V50.7119C49.2624 50.7119 49.6824 50.7119 50.0323 50.7119Z" fill="#ABA6A4"/>
<path d="M56.1911 13.0592C56.471 13.0592 56.681 12.9892 56.9609 13.1292C56.681 13.1292 56.401 13.1292 56.1911 13.0592Z" fill="#FCC89C"/>
<path d="M41.5639 66.3189C41.8438 66.3889 41.8439 66.5289 41.8439 66.7388C41.6339 66.5989 41.5639 66.4589 41.5639 66.3189Z" fill="#0E88C4"/>
<path d="M20.148 63.0995C20.148 63.3095 20.0781 63.4495 19.8681 63.4495C19.9381 63.3095 20.0081 63.2395 20.148 63.0995Z" fill="#2EA9DF"/>
<path d="M20.358 62.8896C20.428 62.9596 20.498 63.0295 20.428 63.0995C20.358 63.1695 20.288 63.0995 20.288 63.0295C20.288 62.8896 20.358 62.8896 20.358 62.8896Z" fill="#2EA9DF"/>
<path d="M48.7025 50.7119C48.7025 50.7819 48.8425 50.8519 48.7025 50.9219C48.7025 50.9219 48.4925 50.8519 48.7025 50.7119Z" fill="white"/>
<path d="M15.6689 68.2085C15.6689 68.3485 15.6689 68.4885 15.4589 68.4185C15.5289 68.3485 15.5989 68.2785 15.6689 68.2085Z" fill="#DB7927"/>
<path d="M15.8789 67.9986C15.9489 68.2085 15.8089 68.1386 15.7389 68.2085C15.7389 68.1386 15.8089 68.0686 15.8789 67.9986Z" fill="#DB7927"/>
<path d="M24.2073 46.1628C24.0673 46.1628 23.9973 46.1628 23.9273 46.0928C23.9973 46.0928 24.1373 46.0928 24.2073 46.1628Z" fill="#066493"/>
<path d="M87.7549 65.1991C87.8949 65.2691 87.8249 65.3391 87.8249 65.4791C87.7549 65.4091 87.7549 65.2691 87.7549 65.1991Z" fill="#6D6F70"/>
<path d="M16.5787 67.2287C16.5787 67.3687 16.5087 67.4387 16.4388 67.4387C16.4388 67.3687 16.5087 67.2987 16.5787 67.2287Z" fill="#DB7927"/>
<path d="M41.4239 66.109C41.4939 66.109 41.5639 66.1789 41.5639 66.3189C41.4939 66.2489 41.4239 66.1789 41.4239 66.109Z" fill="#0E88C4"/>
<path d="M20.498 35.8048C20.498 35.7348 20.428 35.7348 20.428 35.6648C20.428 35.6648 20.428 35.5949 20.498 35.5949C20.498 35.6649 20.498 35.7348 20.498 35.8048Z" fill="#58595B"/>
<path d="M52.4817 50.502C52.4118 50.572 52.3418 50.572 52.2718 50.572C52.3418 50.502 52.4118 50.432 52.4817 50.502Z" fill="#CCC8C7"/>
<path d="M17.7685 53.0215C17.8385 53.0215 17.9085 53.0215 17.9085 53.0915C17.8385 53.0915 17.7685 53.0915 17.7685 53.0215Z" fill="#2EA9DF"/>
<path d="M20.7779 55.8209C20.7779 55.8909 20.7779 55.8909 20.8479 55.9609C20.7779 55.8909 20.7779 55.8909 20.7779 55.8209Z" fill="#0E88C4"/>
<path d="M27.0067 16.9085C27.0067 16.8385 27.0767 16.8385 27.0767 16.7685C27.0767 16.8385 27.0067 16.9085 27.0067 16.9085Z" fill="#0E88C4"/>
<path d="M20.218 63.0295C20.218 63.0995 20.148 63.0995 20.148 63.1695C20.148 63.0995 20.218 63.0295 20.218 63.0295Z" fill="#2EA9DF"/>
<path d="M22.7376 35.3149C22.7376 35.2449 22.7376 35.1749 22.8076 35.1049C22.8076 35.1749 22.8076 35.3149 22.7376 35.3149Z" fill="#242427"/>
<path d="M22.7375 35.3849C22.6676 35.3849 22.6676 35.3149 22.7375 35.3849V35.3149V35.3849Z" fill="#242427"/>
<path d="M89.7846 40.7739C89.7846 40.8438 89.7146 40.8438 89.6446 40.9138C89.5746 40.7739 89.7146 40.7739 89.7846 40.7739Z" fill="#242427"/>
<path d="M31.1359 55.8209C28.6164 55.8209 26.3768 55.0511 24.1373 54.0013C23.3674 53.6514 22.6676 53.2314 22.0377 52.7415C21.7577 52.5316 21.6178 52.2516 21.5478 51.9017C21.5478 51.1319 21.4778 50.362 21.4078 49.6621C21.4078 49.3822 21.4778 49.3122 21.7577 49.3122C23.0175 49.4522 24.2073 49.6621 25.467 49.8021C25.677 49.8721 25.817 50.0821 25.8869 50.222C26.1669 50.7119 26.5868 50.9919 27.2167 50.9919C27.7766 50.9919 28.2665 51.1319 28.8264 51.2718C29.1063 51.3418 29.3163 51.2718 29.4562 51.0619C29.8062 50.572 30.1561 50.502 30.716 50.6419C32.3257 50.9219 33.8654 51.1319 35.4751 51.3418C35.825 51.4118 35.965 51.4818 35.895 51.9017C35.755 52.5316 35.685 53.1615 35.6151 53.8613C35.5451 54.5612 35.1951 55.0511 34.4953 55.331C33.3755 55.681 32.2557 55.751 31.1359 55.8209ZM25.817 51.0619C25.817 50.9919 25.817 50.9219 25.747 50.9219C25.537 50.432 25.1871 50.222 24.6972 50.152C23.9273 50.0121 23.1575 49.8021 22.3876 49.6621C22.1077 49.5921 21.8277 49.5222 21.5478 49.3822C21.6878 50.222 21.8277 50.9219 21.9677 51.6917C21.8977 52.3216 22.3876 52.4616 22.7376 52.7415C23.7873 53.4414 24.9071 53.8613 26.0969 54.2812C27.8466 54.9111 29.6662 55.2611 31.5558 55.1911C32.3957 55.1211 33.2355 55.1211 34.0754 54.7012C34.1453 54.7012 34.1453 54.7012 34.2153 54.6312C34.2853 54.6312 34.2853 54.6312 34.3553 54.5612C34.5653 54.4212 34.9152 54.3512 34.9152 54.0713C34.9852 53.5114 35.0552 52.9515 35.1951 52.4616C35.2651 52.0417 35.1252 51.9017 34.7752 51.8317C33.4455 51.6218 32.1857 51.4118 30.856 51.2018C30.3661 51.1319 30.0861 51.2718 29.8762 51.6218C29.8062 51.6917 29.7362 51.6917 29.7362 51.7617C29.5962 51.9017 29.4562 51.9017 29.2463 51.8317C28.3365 51.6917 27.4966 51.4818 26.5868 51.3418C26.3768 51.2718 26.2369 51.2018 26.0969 51.0619C25.8869 51.1319 25.817 51.0619 25.817 51.0619Z" fill="#DB7927"/>
<path d="M29.7362 79.8263C29.6662 79.7563 29.6662 79.7563 29.5962 79.6863C29.5962 79.6863 29.6662 79.6863 29.6662 79.6163C29.6662 79.6863 29.7362 79.7563 29.7362 79.8263Z" fill="#403F41"/>
<path d="M42.4038 55.1911C42.2638 55.0511 42.1938 55.1211 42.2638 55.261C42.3338 55.401 42.3338 55.541 42.4038 55.681C42.4038 55.681 42.3338 55.681 42.3338 55.751C41.7739 55.471 41.4939 54.9811 41.284 54.4212C41.214 54.1413 41.284 53.9313 41.5639 53.8613C42.4737 53.5814 43.3836 53.6514 44.2234 54.1413C44.5033 54.3512 44.5733 54.6312 44.2934 54.8411C44.2234 54.9811 44.0834 55.0511 44.0134 55.1211C43.5235 55.261 42.9636 55.331 42.4038 55.1911Z" fill="white"/>
<path d="M44.8533 54.1413C45.3432 54.1413 45.6231 54.0713 45.6931 53.5814C45.6931 53.4414 45.8331 53.3714 45.9731 53.3714C46.183 53.3714 46.183 53.5114 46.253 53.6514C46.8129 55.0511 45.6231 56.7308 44.1534 56.7308C44.1534 56.7308 44.0834 56.7308 44.0134 56.6608C44.5733 56.5208 45.0632 56.2409 45.3432 55.681C45.6231 54.9811 45.5531 54.6312 44.8533 54.1413Z" fill="white"/>
<path d="M45.2732 51.6917C44.0834 51.4118 42.9636 51.3418 41.8438 51.9717C42.0538 51.3418 42.7537 50.7119 43.2436 50.6419C44.0834 50.502 44.8533 50.8519 45.2732 51.6917Z" fill="#CCC8C7"/>
<path d="M44.0834 52.8815C43.7335 52.8815 43.4536 52.8115 43.4536 52.4616C43.4536 52.1117 43.8035 52.0417 44.0834 51.9717C44.1534 51.9717 44.2234 51.9717 44.2934 51.9717C44.5733 52.0417 44.7833 52.1117 44.7833 52.3916C44.7833 52.6716 44.5733 52.8115 44.2934 52.8115C44.2234 52.8815 44.1534 52.8815 44.0834 52.8815Z" fill="white"/>
<path d="M42.4037 55.1911C42.9636 55.331 43.5235 55.2611 44.0134 55.1211C44.0134 55.541 43.8734 55.681 43.3135 55.8209C42.8936 55.8209 42.5437 55.541 42.4037 55.1911Z" fill="#CCC8C7"/>
<path d="M42.4037 55.681C42.4737 55.751 42.4737 55.751 42.4037 55.8209C42.4037 55.751 42.4037 55.751 42.4037 55.681Z" fill="white"/>
<path d="M68.7886 32.0255L68.7186 32.0955C68.7186 32.0955 68.7186 32.0255 68.7886 32.0255Z" fill="#6D6F70"/>
<path d="M37.1548 50.0821C36.9448 50.0821 36.8748 49.9421 36.8748 49.8021C36.8748 49.6621 37.0148 49.5222 37.1548 49.5222C37.2947 49.5222 37.4347 49.5921 37.4347 49.8021C37.4347 49.9421 37.3647 50.0821 37.1548 50.0821Z" fill="#DB7927"/>
<path d="M52.6917 51.0619C51.9219 51.5518 49.9623 51.6218 49.4024 51.2018C50.5222 51.0619 51.572 51.2018 52.6917 51.0619Z" fill="#FAA81B"/>
<path d="M49.8923 52.1117C50.6622 52.0417 51.502 52.1816 52.2718 52.1816C51.712 52.5316 50.5222 52.5316 49.8923 52.1117Z" fill="#FAA81B"/>
<path d="M52.5518 51.6218C51.642 51.8317 50.7321 52.0417 49.6823 51.6218C50.6622 51.6218 51.642 51.6917 52.5518 51.6218Z" fill="#FAA81B"/>
<path d="M17.9085 48.1924C17.9085 47.9825 17.9785 47.8425 18.1884 47.8425C18.4684 47.8425 18.6083 48.0524 18.6783 48.2624C18.6783 48.4724 18.6083 48.6123 18.3284 48.6123C18.1184 48.6823 17.9085 48.4724 17.9085 48.1924Z" fill="white"/>
<path d="M17.7685 51.0619C17.6985 50.9919 17.6985 50.9219 17.6985 50.7819C17.9785 50.9919 18.3284 50.8519 18.6083 50.7819C18.6783 51.0619 18.5384 51.3418 18.1884 51.2718C18.0484 51.2718 17.9085 51.2018 17.8385 51.2018C17.8385 51.1318 17.8385 51.0619 17.7685 51.0619Z" fill="#CCC8C7"/>
<path d="M88.3848 64.0094C88.2449 64.0094 88.2449 63.9394 88.2449 63.8694C88.2449 63.7994 88.2449 63.6594 88.3149 63.5894C88.4548 63.5195 88.4548 63.6594 88.4548 63.7294C88.4548 63.8694 88.4548 63.9394 88.3848 64.0094Z" fill="#242427"/>
<path d="M88.8048 62.8896C88.8048 62.9596 88.8048 63.0995 88.6648 63.0995C88.5948 63.0995 88.5248 62.9596 88.5248 62.8896C88.5248 62.8196 88.5248 62.6796 88.6648 62.6796C88.8048 62.6796 88.8048 62.8196 88.8048 62.8896Z" fill="#242427"/>
<path d="M17.7685 51.0619C17.8385 51.1318 17.8385 51.1318 17.8385 51.2718C17.7685 51.2018 17.7685 51.1318 17.7685 51.0619Z" fill="#ABA6A4"/>
<path d="M29.6662 51.6218C29.8762 51.2718 30.2261 51.1318 30.646 51.2018C31.9758 51.4118 33.2355 51.6218 34.5653 51.8317C34.9852 51.9017 35.1252 52.0417 34.9852 52.4616C34.8452 53.0215 34.8452 53.5114 34.7052 54.0713C34.6353 54.3512 34.3553 54.4212 34.1453 54.5612C34.0754 54.5612 34.0754 54.5612 34.0054 54.6312C33.9354 54.6312 33.9354 54.6312 33.8654 54.7012C33.7254 54.6312 33.6554 54.6312 33.5155 54.6312C32.1857 54.6312 30.926 54.6312 29.5962 54.4212C27.6366 54.0713 25.677 53.5114 23.8573 52.6716C23.7874 52.6016 23.6474 52.6016 23.5774 52.4616C24.4872 52.6716 25.3271 52.8815 26.1669 53.0915C27.0067 53.3014 27.8466 53.5114 28.7564 53.6514C29.5962 53.8613 30.5061 54.0013 31.4159 54.1413C32.2557 54.2812 33.1655 54.4912 34.0054 54.4912C33.8654 54.4212 33.7954 54.3512 33.6554 54.3512C31.6258 54.0013 29.6662 53.5814 27.6366 53.1615C26.3069 52.8815 24.9771 52.5316 23.5774 52.3216C23.0875 52.2516 22.8075 52.1117 22.6676 51.6218C22.5976 51.4118 22.5976 51.3418 22.8775 51.4118C23.6474 51.6218 24.4172 51.7617 25.1871 51.9017C27.8466 52.4616 30.5061 52.9515 33.0956 53.4414C33.5155 53.5114 34.0054 53.7213 34.5653 53.5814C32.4657 53.0915 30.4361 52.6716 28.4065 52.2516C26.5868 51.9017 24.7672 51.5518 22.9475 51.2018C22.6676 51.1318 22.5976 51.0619 22.5276 50.7819C22.4576 50.502 22.5276 50.222 22.3176 50.0121C22.2477 49.8721 22.2477 49.7321 22.2477 49.5921C23.0175 49.7321 23.7874 49.9421 24.5572 50.0821C25.0471 50.152 25.397 50.432 25.607 50.8519L22.8775 50.292C23.5074 50.572 24.0673 50.7119 24.6972 50.8519C25.0471 50.9219 25.397 51.0619 25.747 50.9919C25.747 51.0619 25.817 51.0619 25.817 51.0619C25.9569 51.2018 26.0969 51.2718 26.3069 51.3418C27.2167 51.4818 28.0565 51.6917 28.9664 51.8317C29.1063 51.8317 29.3163 51.9017 29.4563 51.7617C31.2059 52.1117 33.0256 52.3216 34.7752 52.4616C34.4953 52.3916 34.1453 52.3216 33.8654 52.2516C32.5357 52.1117 31.1359 51.8317 29.6662 51.6218Z" fill="#DB7927"/>
<path d="M34.0054 54.6312C33.2355 55.0511 32.3957 55.1211 31.5559 55.1211C29.6662 55.1911 27.8466 54.8411 26.0969 54.2112C24.9072 53.7913 23.7874 53.3714 22.7376 52.6715C22.9475 52.6016 23.0875 52.5316 23.2275 52.3216C23.7874 52.6016 24.3473 52.9515 24.9072 53.1615C27.8466 54.3512 30.786 54.9811 34.0054 54.6312Z" fill="#DB7927"/>
<path d="M22.3876 49.5921C22.3876 49.7321 22.3176 49.8721 22.4576 50.0121C22.4576 50.572 22.6676 51.0619 22.7376 51.6218C22.4576 51.6218 22.2477 51.6218 21.9677 51.6218C21.8277 50.8519 21.6878 50.152 21.5478 49.3122C21.8277 49.4522 22.1077 49.5222 22.3876 49.5921Z" fill="#DB7927"/>
<path d="M29.6662 51.6218C31.0659 51.8317 32.4656 52.0417 33.9354 52.2516C34.2153 52.3216 34.5652 52.3216 34.8452 52.4616C33.0255 52.3216 31.2759 52.1117 29.5262 51.7617C29.5962 51.7617 29.6662 51.6917 29.6662 51.6218Z" fill="#DB7927"/>
<path d="M21.9677 51.6917C22.2476 51.6917 22.4576 51.6917 22.7375 51.6917C22.8775 51.9717 23.0175 52.2516 23.2274 52.3916C23.0875 52.5316 22.9475 52.6716 22.7375 52.7415C22.3176 52.4616 21.8277 52.2516 21.9677 51.6917Z" fill="#DB7927"/>
<path d="M25.817 51.0619C25.467 51.1319 25.1171 50.9919 24.7672 50.9219C24.1373 50.7819 23.5074 50.572 22.9475 50.362L25.817 50.9219C25.817 50.9219 25.817 50.9919 25.817 51.0619Z" fill="#DB7927"/>
<path d="M34.0753 54.6312C34.1453 54.6312 34.1453 54.6312 34.2153 54.5612C34.1453 54.5612 34.1453 54.6312 34.0753 54.6312Z" fill="#066493"/>
<path d="M25.8869 51.1318C25.8169 51.1318 25.8169 51.1318 25.8169 51.0619C25.8169 51.0619 25.8869 51.1318 25.8869 51.1318Z" fill="#066493"/>
<path d="M23.2274 52.3216C22.9475 52.1817 22.8075 51.9017 22.7375 51.6218C22.6675 51.0619 22.4576 50.572 22.4576 50.0121C22.6675 50.222 22.5976 50.502 22.6675 50.7819C22.7375 50.9919 22.8075 51.1319 23.0875 51.2018C24.9071 51.5518 26.7268 51.9017 28.5464 52.2516C30.576 52.6716 32.6056 53.0915 34.7052 53.5814C34.1453 53.7214 33.7254 53.5114 33.2355 53.4414C30.576 52.9515 27.9165 52.4616 25.327 51.9017C24.5572 51.7617 23.7873 51.6218 23.0175 51.4118C22.7375 51.3418 22.7375 51.4118 22.8075 51.6218C22.8775 52.1117 23.2274 52.2516 23.7173 52.3216C25.0471 52.5316 26.3768 52.8815 27.7766 53.1615C29.8062 53.5814 31.7658 54.0013 33.7954 54.3512C33.9354 54.3512 34.0053 54.4212 34.1453 54.4912C33.2355 54.4912 32.3957 54.2812 31.5558 54.1413C30.646 54.0013 29.8062 53.7913 28.8963 53.6514C28.0565 53.4414 27.1467 53.3014 26.3068 53.0915C25.467 52.8815 24.5572 52.6716 23.7173 52.4616C23.7173 52.6016 23.8573 52.6016 23.9973 52.6716C25.8169 53.5814 27.7066 54.1413 29.7362 54.4212C31.0659 54.6312 32.3257 54.7012 33.6554 54.6312C33.7954 54.6312 33.9354 54.6312 34.0053 54.7012C30.856 55.0511 27.8465 54.4212 24.9071 53.2314C24.3472 52.9515 23.7873 52.6716 23.2274 52.3216Z" fill="#DB7927"/>
<path d="M60.1103 57.5006V57.0107V45.6729L56.0511 46.1628L46.8829 46.7927L33.2355 45.9529L32.6056 45.183L32.8156 44.6931L32.7456 41.4037L22.3876 40.3539L22.4576 42.2436L19.3782 41.4737L19.2382 43.1534L18.5383 43.2934C18.5383 43.2934 16.2988 44.1332 16.2288 44.3432C16.2288 44.3432 15.7389 44.3432 16.0188 45.9529V46.9327C16.0188 46.9327 15.5289 53.3714 18.1884 53.4414L19.9381 54.0013L22.1077 61.1399L24.4172 58.5504C24.4172 58.5504 32.3957 58.3405 37.4347 61.9098C37.4347 61.9098 41.144 65.899 43.5935 71.288L45.5531 74.6473L45.7631 75.4871L44.2934 75.9771L48.5625 77.3768C48.5625 77.3768 49.1924 78.1466 54.9313 77.4468L58.2907 76.6069C58.2907 76.6069 58.9205 76.467 59.2005 74.7873L60.1103 57.5006Z" fill="#F3AD1C"/>
<path d="M36.9448 61.4898C33.0955 59.1803 28.8963 58.3405 24.4872 58.4104C24.3472 58.4104 24.2772 58.4104 24.1373 58.5504C22.8775 60.0201 21.6178 61.4199 20.358 62.8896C20.428 62.9596 20.498 63.0295 20.428 63.0995C20.358 63.1695 20.288 63.0995 20.288 63.0295C20.288 63.0295 20.218 63.0295 20.218 63.0995L20.148 63.1695C20.148 63.3795 20.0781 63.5195 19.8681 63.5195C19.0982 64.3593 18.3284 65.2691 17.5585 66.1089C17.6285 66.3189 17.4886 66.5289 17.3486 66.6688L17.2786 66.7388C17.2086 66.6688 17.2086 66.5989 17.2086 66.5289C16.9986 66.8088 16.7887 67.0188 16.5087 67.2987C16.5087 67.4387 16.4388 67.5087 16.3688 67.5087C16.4388 67.7886 16.2988 67.9986 15.8789 67.9986C15.9488 68.2085 15.8089 68.1386 15.7389 68.2085C15.7389 68.3485 15.7389 68.4885 15.5289 68.4185C14.6891 69.3283 13.9192 70.2382 13.0794 71.148C12.7295 71.5679 12.5895 71.9878 12.5895 72.5477C12.4495 73.1776 12.8694 73.4575 13.2894 73.6675C13.9892 74.0174 14.5491 74.5073 15.249 74.7173C16.1588 75.0672 16.9986 75.4871 17.9085 75.8371C18.8883 76.117 19.9381 76.257 20.9179 76.6069C21.5478 76.8169 22.2476 76.6069 22.8075 76.397C23.0875 76.327 23.2974 76.257 23.5074 76.117C26.2369 74.8573 26.3768 74.3674 28.1265 73.1776C29.0363 72.5477 29.9461 71.9178 30.856 71.2879C31.9757 70.5181 33.1655 69.6783 34.2853 68.8384C35.755 67.8586 37.1547 66.7388 38.5545 65.689C38.9044 65.4091 39.3243 65.1991 39.6743 64.9892C39.7442 64.9192 39.7442 64.9192 39.8142 64.8492C39.3243 63.4495 38.2745 62.3297 36.9448 61.4898Z" fill="#EF6C56"/>
<path d="M57.5908 76.7469C57.5908 76.7469 59.4804 75.977 60.8801 76.047C60.8801 76.047 74.8074 70.0982 75.7173 68.7684C76.6271 67.5087 82.7859 64.5692 82.7859 64.5692L83.6257 58.9703L84.3956 45.253V43.2934L84.2556 42.5935L83.9057 42.7335L84.0456 40.6339L83.5557 40.7039L78.7267 41.6837L77.5369 41.8936L66.4091 43.6433L64.4494 43.9932L63.7496 44.0632L62.9097 44.2032H62.2798C62.2798 44.2032 61.72 44.0632 61.8599 44.973H61.1601H60.9501L60.6002 45.113L57.5908 76.7469Z" fill="#F3AD1C"/>
<path d="M81.8761 65.689C81.8061 65.759 82.506 65.3391 82.506 65.3391L82.7159 64.2893L81.8761 64.4293V65.689Z" fill="#F6AE1A"/>
<path d="M82.7859 65.0592L83.2758 61.5598L84.9555 55.681L87.2651 53.8613L89.2247 54.2113L90.2045 54.7711C90.2045 54.7711 90.2045 57.5006 90.2745 57.7806L90.6944 60.3001L89.7146 58.6904L88.4548 58.3405L86.7751 61.4199L86.3552 63.3095L84.8855 63.8694L83.3458 64.3593L82.7859 65.0592Z" fill="#EF6C56"/>
<path d="M39.1144 65.4791L40.0242 64.9192C40.0242 64.9192 44.6433 71.8478 45.4132 74.5773L42.2638 73.8774L39.1144 65.4791Z" fill="#7D1520"/>
<path d="M26.7968 51.4818C26.7968 52.2516 26.0969 52.7415 25.2571 52.6715L18.0485 51.6917C17.2086 51.5518 16.5088 50.8519 16.5088 50.082L16.5787 46.1628C16.5787 45.393 17.2786 44.9031 18.1184 44.973L25.3271 45.9528C26.1669 46.0928 26.8668 46.7927 26.8668 47.5625L26.7968 51.4818Z" fill="#7D1520"/>
<path d="M49.6123 54.4912C49.6123 55.261 48.7025 55.751 47.6527 55.681L38.6944 54.5612C37.6446 54.4212 36.8048 53.7213 36.8048 52.9515L36.8748 49.0323C36.8748 48.2624 37.7846 47.7725 38.8344 47.8425L47.7927 48.8923C48.8425 49.0323 49.6823 49.7321 49.6823 50.502L49.6123 54.4912Z" fill="#7D1520"/>
<path d="M33.0255 55.1911C33.0255 57.9205 31.0659 60.0901 28.6164 60.0901C26.1669 60.0901 24.2072 57.9205 24.2072 55.1911C24.2072 52.4616 26.1669 50.292 28.6164 50.292C30.9959 50.292 33.0255 52.4616 33.0255 55.1911Z" fill="#7D1520"/>
<path d="M31.1359 55.1911C31.1359 57.9205 29.5962 60.0901 27.6366 60.0901C25.677 60.0901 24.1373 57.9205 24.1373 55.1911C24.1373 52.4616 25.677 50.292 27.6366 50.292C29.5262 50.292 31.1359 52.4616 31.1359 55.1911Z" fill="#FCC89C"/>
</svg>
