<svg width="300" height="300" viewBox="0 0 300 300" fill="none" xmlns="http://www.w3.org/2000/svg">
<path d="M10.9286 101.816H61.2698C63.0465 101.816 64.4464 100.416 64.4464 98.6396V64.8813H7.75195V98.6396C7.75195 100.416 9.15182 101.816 10.9286 101.816Z" fill="white"/>
<path d="M64.4464 42.6451C64.4464 40.8684 63.0465 39.4685 61.2698 39.4685H10.9286C9.15182 39.4685 7.75195 40.8684 7.75195 42.6451V58.6897H64.4464V42.6451Z" fill="#821B1C"/>
<path d="M64.4464 58.6895H7.75195V60.9508H64.4464V58.6895Z" fill="#821B1C"/>
<path d="M64.4464 60.9509H7.75195V63.2122H64.4464V60.9509Z" fill="#821B1C"/>
<path d="M51.0937 41.0837C49.317 41.0837 47.8633 42.5374 47.8633 44.3142C47.8633 46.0909 49.317 47.5446 51.0937 47.5446C52.8705 47.5446 54.3242 46.0909 54.3242 44.3142C54.3242 42.5374 52.8705 41.0837 51.0937 41.0837Z" fill="#F5A999"/>
<path d="M20.9961 41.0837C19.2193 41.0837 17.7656 42.5374 17.7656 44.3142C17.7656 46.0909 19.2193 47.5446 20.9961 47.5446C22.7728 47.5446 24.2265 46.0909 24.2265 44.3142C24.2265 42.5374 22.7728 41.0837 20.9961 41.0837Z" fill="#F5A999"/>
<path d="M51.1476 41.0837C49.5324 41.0837 48.2402 42.3759 48.2402 43.9911C48.2402 45.6064 49.5324 46.8986 51.1476 46.8986C52.7629 46.8986 54.0551 45.6064 54.0551 43.9911C54.0551 42.3759 52.709 41.0837 51.1476 41.0837Z" fill="#752515"/>
<path d="M51.1484 32.2V46.2524C52.3868 46.2524 53.3559 45.2833 53.3559 44.0449V34.4074C53.3559 33.1691 52.3329 32.2 51.1484 32.2Z" fill="black"/>
<path d="M51.1489 32.2C49.9105 32.2 48.9414 33.1691 48.9414 34.4074V44.0449C48.9414 45.2294 49.9105 46.2524 51.1489 46.2524V32.2Z" fill="black"/>
<path opacity="0.1" d="M51.1489 32.2C49.9105 32.2 48.9414 33.1691 48.9414 34.4074V44.0449C48.9414 45.2294 49.9105 46.2524 51.1489 46.2524V32.2Z" fill="black"/>
<path d="M21.0539 41.0835C19.4387 41.0835 18.1465 42.3757 18.1465 43.9909C18.1465 45.6061 19.4387 46.8983 21.0539 46.8983C22.6691 46.8983 23.9613 45.6061 23.9613 43.9909C23.9613 42.3757 22.6691 41.0835 21.0539 41.0835Z" fill="#752515"/>
<path d="M21.1035 32.2V46.2524C22.3419 46.2524 23.311 45.2833 23.311 44.0449V34.4074C23.311 33.1691 22.288 32.2 21.1035 32.2Z" fill="black"/>
<path d="M21.104 32.2C19.8656 32.2 18.8965 33.1691 18.8965 34.4074V44.0449C18.8965 45.2294 19.8656 46.2524 21.104 46.2524V32.2Z" fill="black"/>
<path opacity="0.1" d="M21.104 32.2C19.8656 32.2 18.8965 33.1691 18.8965 34.4074V44.0449C18.8965 45.2294 19.8656 46.2524 21.104 46.2524V32.2Z" fill="black"/>
<path d="M30.0957 92.3942V90.3482H35.1567V75.7035C33.9722 76.6726 32.2493 77.1034 30.0957 77.1034V75.1651C31.2802 75.1112 32.357 74.842 33.3262 74.4113C34.3491 73.9806 35.0491 73.3345 35.4798 72.4192H37.3104V90.2944H42.1022V92.3403H30.0957V92.3942Z" fill="#821B1C" stroke="#821B1C" stroke-width="2" stroke-miterlimit="10"/>
<path d="M26.7022 56.2131H26.2715L25.087 54.0056V57.0746H24.6562V52.9827H25.087L26.4868 55.6747L27.8867 52.9827H28.3174V57.0746H27.8867V54.0056L26.7022 56.2131Z" fill="white"/>
<path d="M29.0723 55.0825C29.0723 54.4902 29.2876 54.0056 29.6645 53.5749C30.0414 53.1442 30.526 52.9827 31.1182 52.9827C31.7105 52.9827 32.195 53.198 32.5719 53.5749C32.9488 53.9518 33.1642 54.4902 33.1642 55.0825C33.1642 55.6747 32.9488 56.1593 32.5719 56.59C32.195 57.0207 31.7105 57.1823 31.1182 57.1823C30.526 57.1823 30.0414 56.9669 29.6645 56.59C29.2876 56.2131 29.0723 55.6747 29.0723 55.0825ZM29.503 55.0825C29.503 55.567 29.6645 55.9978 29.9337 56.267C30.2568 56.59 30.6337 56.7515 31.1182 56.7515C31.6028 56.7515 31.9797 56.59 32.2489 56.267C32.5719 55.9439 32.6796 55.567 32.6796 55.0825C32.6796 54.5979 32.5181 54.221 32.2489 53.898C31.9797 53.5749 31.5489 53.4134 31.1182 53.4134C30.6337 53.4134 30.2568 53.5749 29.9876 53.898C29.7184 54.221 29.503 54.5979 29.503 55.0825Z" fill="white"/>
<path d="M37.0937 57.1283H36.6092L34.294 53.844V57.1283H33.8633V53.0364H34.294L36.6092 56.3745V53.0364H37.0399V57.1283H37.0937Z" fill="white"/>
<path d="M37.7402 53.4671V53.0364H40.7553V53.4671H39.4631V57.1283H39.0324V53.4671H37.7402Z" fill="white"/>
<path d="M44.5221 57.1283H44.0913V55.2439H41.8839V57.1283H41.4531V53.0364H41.8839V54.8131H44.0913V53.0364H44.5221V57.1283V57.1283Z" fill="white"/>
<path d="M47.1079 55.3517L46.5695 55.244C46.2465 55.1901 45.9773 55.0825 45.7619 54.8671C45.5465 54.7056 45.4389 54.4364 45.4389 54.1133C45.4389 53.7903 45.6004 53.4672 45.8696 53.3057C46.1388 53.0904 46.4618 52.9827 46.8387 52.9827C47.3771 52.9827 47.8617 53.198 48.2386 53.6288L47.9155 53.9518C47.6463 53.5749 47.2156 53.4134 46.7849 53.4134C46.5157 53.4134 46.3003 53.4672 46.1388 53.6288C45.9773 53.7364 45.8696 53.9518 45.8696 54.1133C45.8696 54.4902 46.1388 54.7594 46.7311 54.8133L47.1079 54.8671C47.4848 54.9209 47.8079 55.0825 48.0232 55.244C48.2386 55.4594 48.3463 55.6747 48.3463 55.9978C48.3463 56.3208 48.1848 56.59 47.9155 56.8054C47.6463 57.0207 47.2695 57.1284 46.8387 57.1284C46.5157 57.1284 46.1926 57.0746 45.9234 56.9131C45.6542 56.7515 45.4389 56.59 45.2773 56.3746L45.6004 56.0516C45.9234 56.4823 46.3542 56.6977 46.8926 56.6977C47.1618 56.6977 47.431 56.6438 47.5925 56.4823C47.754 56.3746 47.8617 56.1593 47.8617 55.9439C47.9694 55.6747 47.6463 55.4594 47.1079 55.3517Z" fill="white"/>
<path d="M91.0965 101.816H141.438C143.215 101.816 144.614 100.416 144.614 98.6396V64.8813H87.9199V98.6396C87.9199 100.416 89.3198 101.816 91.0965 101.816Z" fill="white"/>
<path d="M144.614 42.6451C144.614 40.8684 143.215 39.4685 141.438 39.4685H91.0965C89.3198 39.4685 87.9199 40.8684 87.9199 42.6451V58.6897H144.614V42.6451Z" fill="#821B1C"/>
<path d="M144.614 58.6895H87.9199V60.9508H144.614V58.6895Z" fill="#821B1C"/>
<path d="M144.614 60.9509H87.9199V63.2122H144.614V60.9509Z" fill="#821B1C"/>
<path d="M131.262 41.0837C129.485 41.0837 128.031 42.5374 128.031 44.3142C128.031 46.0909 129.485 47.5446 131.262 47.5446C133.038 47.5446 134.492 46.0909 134.492 44.3142C134.492 42.5374 133.038 41.0837 131.262 41.0837Z" fill="#F5A999"/>
<path d="M101.164 41.0837C99.3873 41.0837 97.9336 42.5374 97.9336 44.3142C97.9336 46.0909 99.3873 47.5446 101.164 47.5446C102.941 47.5446 104.395 46.0909 104.395 44.3142C104.395 42.5374 102.941 41.0837 101.164 41.0837Z" fill="#F5A999"/>
<path d="M131.263 41.0837C129.648 41.0837 128.355 42.3759 128.355 43.9911C128.355 45.6064 129.648 46.8986 131.263 46.8986C132.878 46.8986 134.17 45.6064 134.17 43.9911C134.17 42.3759 132.878 41.0837 131.263 41.0837Z" fill="#752515"/>
<path d="M131.314 32.2V46.2524C132.553 46.2524 133.522 45.2833 133.522 44.0449V34.4074C133.468 33.1691 132.499 32.2 131.314 32.2Z" fill="black"/>
<path d="M131.315 32.2C130.077 32.2 129.107 33.1691 129.107 34.4074V44.0449C129.107 45.2294 130.077 46.2524 131.315 46.2524V32.2Z" fill="black"/>
<path opacity="0.1" d="M131.315 32.2C130.077 32.2 129.107 33.1691 129.107 34.4074V44.0449C129.107 45.2294 130.077 46.2524 131.315 46.2524V32.2Z" fill="black"/>
<path d="M101.22 41.0835C99.6047 41.0835 98.3125 42.3757 98.3125 43.9909C98.3125 45.6061 99.6047 46.8983 101.22 46.8983C102.835 46.8983 104.127 45.6061 104.127 43.9909C104.127 42.3757 102.835 41.0835 101.22 41.0835Z" fill="#752515"/>
<path d="M101.221 32.2V46.2524C102.459 46.2524 103.428 45.2833 103.428 44.0449V34.4074C103.428 33.1691 102.459 32.2 101.221 32.2Z" fill="black"/>
<path d="M101.221 32.2C99.9828 32.2 99.0137 33.1691 99.0137 34.4074V44.0449C99.0137 45.2294 99.9828 46.2524 101.221 46.2524V32.2Z" fill="black"/>
<path opacity="0.1" d="M101.221 32.2C99.9828 32.2 99.0137 33.1691 99.0137 34.4074V44.0449C99.0137 45.2294 99.9828 46.2524 101.221 46.2524V32.2Z" fill="black"/>
<path d="M112.093 90.3479H122.538V92.3938H109.777V91.7477C109.777 89.7018 110.208 87.925 111.123 86.5252C112.039 85.1253 113.708 83.8331 116.131 82.7025L116.669 82.4333C117.907 81.841 118.823 81.1949 119.469 80.5488C120.115 79.8489 120.438 78.9336 120.438 77.7491C120.438 76.6723 120.061 75.8108 119.253 75.1648C118.446 74.5187 117.477 74.1956 116.238 74.1956C115.054 74.1956 114.031 74.5725 113.223 75.2724C112.416 75.9724 111.769 76.8877 111.285 78.0183L109.831 76.5108C110.423 75.1648 111.231 74.1418 112.362 73.3342C113.439 72.5804 114.731 72.1497 116.238 72.1497C118.015 72.1497 119.523 72.6881 120.815 73.711C122.053 74.734 122.699 76.1877 122.699 78.0722C122.699 79.4182 122.322 80.6027 121.515 81.5718C120.707 82.541 119.523 83.4562 117.907 84.2639L116.292 85.0715C113.6 86.4175 112.2 88.1942 112.093 90.3479Z" fill="#821B1C" stroke="#821B1C" stroke-width="2" stroke-miterlimit="10"/>
<path d="M106.872 56.2131H106.441L105.257 54.0056V57.0746H104.826V52.9827H105.257L106.657 55.6747L108.057 52.9827H108.487V57.0746H108.057V54.0056L106.872 56.2131Z" fill="white"/>
<path d="M109.242 55.0825C109.242 54.4902 109.458 54.0056 109.834 53.5749C110.211 53.1442 110.696 52.9827 111.288 52.9827C111.88 52.9827 112.365 53.198 112.742 53.5749C113.119 53.9518 113.334 54.4902 113.334 55.0825C113.334 55.6747 113.119 56.1593 112.742 56.59C112.365 57.0207 111.88 57.1823 111.288 57.1823C110.696 57.1823 110.211 56.9669 109.834 56.59C109.404 56.2131 109.242 55.6747 109.242 55.0825ZM109.673 55.0825C109.673 55.567 109.834 55.9978 110.104 56.267C110.427 56.59 110.804 56.7515 111.288 56.7515C111.773 56.7515 112.15 56.59 112.419 56.267C112.742 55.9439 112.85 55.567 112.85 55.0825C112.85 54.5979 112.688 54.221 112.419 53.898C112.15 53.5749 111.719 53.4134 111.288 53.4134C110.804 53.4134 110.427 53.5749 110.157 53.898C109.888 54.221 109.673 54.5979 109.673 55.0825Z" fill="white"/>
<path d="M117.264 57.1283H116.779L114.464 53.844V57.1283H114.033V53.0364H114.464L116.779 56.3745V53.0364H117.21V57.1283H117.264Z" fill="white"/>
<path d="M117.91 53.4671V53.0364H120.925V53.4671H119.633V57.1283H119.202V53.4671H117.91Z" fill="white"/>
<path d="M124.692 57.1283H124.261V55.2439H122.054V57.1283H121.623V53.0364H122.054V54.8131H124.261V53.0364H124.692V57.1283Z" fill="white"/>
<path d="M127.278 55.3517L126.739 55.244C126.416 55.1901 126.147 55.0825 125.932 54.8671C125.716 54.7056 125.609 54.4364 125.609 54.1133C125.609 53.7903 125.77 53.4672 126.04 53.3057C126.309 53.0904 126.632 52.9827 127.009 52.9827C127.547 52.9827 128.032 53.198 128.409 53.6288L128.085 53.9518C127.816 53.5749 127.386 53.4134 126.955 53.4134C126.686 53.4134 126.47 53.4672 126.309 53.6288C126.147 53.7364 126.04 53.9518 126.04 54.1133C126.04 54.4902 126.309 54.7594 126.901 54.8133L127.278 54.8671C127.655 54.9209 127.978 55.0825 128.193 55.244C128.409 55.4594 128.516 55.6747 128.516 55.9978C128.516 56.3208 128.355 56.59 128.085 56.8054C127.816 57.0207 127.439 57.1284 127.009 57.1284C126.686 57.1284 126.363 57.0746 126.093 56.9131C125.824 56.7515 125.609 56.59 125.447 56.3746L125.77 56.0516C126.093 56.4823 126.524 56.6977 127.062 56.6977C127.332 56.6977 127.601 56.6438 127.762 56.4823C127.924 56.3746 128.032 56.1593 128.032 55.9439C128.085 55.6747 127.816 55.4594 127.278 55.3517Z" fill="white"/>
<path d="M51.1484 114.738V128.791C52.3868 128.791 53.3559 127.822 53.3559 126.583V116.946C53.3559 115.761 52.3329 114.738 51.1484 114.738Z" fill="black"/>
<path d="M51.1489 114.738C49.9105 114.738 48.9414 115.707 48.9414 116.946V126.583C48.9414 127.768 49.9105 128.791 51.1489 128.791V114.738Z" fill="black"/>
<path opacity="0.1" d="M51.1489 114.738C49.9105 114.738 48.9414 115.707 48.9414 116.946V126.583C48.9414 127.768 49.9105 128.791 51.1489 128.791V114.738Z" fill="black"/>
<path d="M10.9286 184.408H61.2698C63.0465 184.408 64.4464 183.008 64.4464 181.231V147.473H7.75195V181.231C7.75195 183.008 9.15182 184.408 10.9286 184.408Z" fill="white"/>
<path d="M64.4464 125.237C64.4464 123.46 63.0465 122.061 61.2698 122.061H10.9286C9.15182 122.061 7.75195 123.46 7.75195 125.237V141.282H64.4464V125.237Z" fill="#821B1C"/>
<path d="M64.4464 141.282H7.75195V143.543H64.4464V141.282Z" fill="#821B1C"/>
<path d="M64.4464 143.543H7.75195V145.804H64.4464V143.543Z" fill="#821B1C"/>
<path d="M51.0937 123.676C49.317 123.676 47.8633 125.129 47.8633 126.906C47.8633 128.683 49.317 130.137 51.0937 130.137C52.8705 130.137 54.3242 128.683 54.3242 126.906C54.3242 125.129 52.8705 123.676 51.0937 123.676Z" fill="#F5A999"/>
<path d="M20.9961 123.676C19.2193 123.676 17.7656 125.129 17.7656 126.906C17.7656 128.683 19.2193 130.137 20.9961 130.137C22.7728 130.137 24.2265 128.683 24.2265 126.906C24.2265 125.129 22.7728 123.676 20.9961 123.676Z" fill="#F5A999"/>
<path d="M51.1476 123.676C49.5324 123.676 48.2402 124.968 48.2402 126.583C48.2402 128.198 49.5324 129.491 51.1476 129.491C52.7629 129.491 54.0551 128.198 54.0551 126.583C54.0551 124.968 52.709 123.676 51.1476 123.676Z" fill="#752515"/>
<path d="M21.0539 123.676C19.4387 123.676 18.1465 124.968 18.1465 126.583C18.1465 128.198 19.4387 129.491 21.0539 129.491C22.6691 129.491 23.9613 128.198 23.9613 126.583C23.9613 124.968 22.6691 123.676 21.0539 123.676Z" fill="#752515"/>
<path d="M21.1035 114.738V128.791C22.3419 128.791 23.311 127.821 23.311 126.583V116.946C23.311 115.761 22.288 114.738 21.1035 114.738Z" fill="black"/>
<path d="M21.104 114.738C19.8656 114.738 18.8965 115.707 18.8965 116.946V126.583C18.8965 127.768 19.8656 128.791 21.104 128.791V114.738Z" fill="black"/>
<path opacity="0.1" d="M21.104 114.738C19.8656 114.738 18.8965 115.707 18.8965 116.946V126.583C18.8965 127.768 19.8656 128.791 21.104 128.791V114.738Z" fill="black"/>
<path d="M38.4405 164.541C39.3558 164.918 40.1634 165.51 40.8095 166.372C41.4556 167.233 41.7786 168.202 41.7786 169.441C41.7786 171.325 41.1326 172.779 39.8942 173.802C38.6559 174.825 37.0945 175.309 35.2101 175.309C33.9717 175.309 32.7872 175.04 31.6027 174.555C30.4182 174.071 29.4491 173.317 28.6953 172.456L30.2029 170.948C31.5489 172.509 33.2718 173.263 35.3716 173.263C36.6099 173.263 37.5791 172.94 38.4405 172.294C39.2481 171.648 39.6789 170.679 39.6789 169.441C39.6789 168.202 39.1943 167.341 38.279 166.748C37.3637 166.156 36.1792 165.887 34.7793 165.887H33.2718V163.787H34.4563C35.8561 163.787 37.0407 163.464 37.9021 162.818C38.7636 162.172 39.1943 161.257 39.1943 160.072C39.1943 158.942 38.8174 158.134 38.0098 157.542C37.2022 156.949 36.2869 156.734 35.3177 156.734C33.4871 156.734 31.9796 157.434 30.6874 158.888L29.2337 157.434C30.9028 155.657 32.8411 154.742 35.1562 154.742C36.8253 154.742 38.2252 155.227 39.4635 156.142C40.7018 157.057 41.2941 158.403 41.2941 160.126C41.2941 161.203 40.971 162.172 40.3788 162.98C39.7327 163.733 39.0866 164.326 38.4405 164.541Z" fill="#821B1C" stroke="#821B1C" stroke-width="2" stroke-miterlimit="10"/>
<path d="M26.7022 138.805H26.2715L25.087 136.597V139.666H24.6562V135.574H25.087L26.4868 138.267L27.8867 135.574H28.3174V139.666H27.8867V136.597L26.7022 138.805Z" fill="white"/>
<path d="M29.0723 137.674C29.0723 137.082 29.2876 136.597 29.6645 136.167C30.0414 135.736 30.526 135.574 31.1182 135.574C31.7105 135.574 32.195 135.79 32.5719 136.167C32.9488 136.544 33.1642 137.082 33.1642 137.674C33.1642 138.267 32.9488 138.751 32.5719 139.182C32.195 139.613 31.7105 139.774 31.1182 139.774C30.526 139.774 30.0414 139.559 29.6645 139.182C29.2876 138.751 29.0723 138.267 29.0723 137.674ZM29.503 137.674C29.503 138.159 29.6645 138.59 29.9337 138.859C30.2568 139.182 30.6337 139.343 31.1182 139.343C31.6028 139.343 31.9797 139.182 32.2489 138.859C32.5719 138.536 32.6796 138.159 32.6796 137.674C32.6796 137.19 32.5181 136.813 32.2489 136.49C31.9797 136.167 31.5489 136.005 31.1182 136.005C30.6337 136.005 30.2568 136.167 29.9876 136.49C29.7184 136.813 29.503 137.19 29.503 137.674Z" fill="white"/>
<path d="M37.0937 139.72H36.6092L34.294 136.436V139.72H33.8633V135.628H34.294L36.6092 138.967V135.628H37.0399V139.72H37.0937Z" fill="white"/>
<path d="M37.7402 136.059V135.628H40.7553V136.059H39.4631V139.72H39.0324V136.059H37.7402Z" fill="white"/>
<path d="M44.5221 139.72H44.0913V137.836H41.8839V139.72H41.4531V135.628H41.8839V137.405H44.0913V135.628H44.5221V139.72V139.72Z" fill="white"/>
<path d="M47.1079 137.89L46.5695 137.782C46.2465 137.728 45.9773 137.621 45.7619 137.405C45.5465 137.244 45.4389 136.974 45.4389 136.651C45.4389 136.328 45.6004 136.005 45.8696 135.844C46.1388 135.628 46.4618 135.521 46.8387 135.521C47.3771 135.521 47.8617 135.736 48.2386 136.167L47.9155 136.49C47.6463 136.113 47.2156 135.951 46.7849 135.951C46.5157 135.951 46.3003 136.005 46.1388 136.167C45.9773 136.275 45.8696 136.49 45.8696 136.651C45.8696 137.028 46.1388 137.297 46.7311 137.351L47.1079 137.405C47.4848 137.459 47.8079 137.621 48.0232 137.782C48.2386 137.997 48.3463 138.213 48.3463 138.536C48.3463 138.859 48.1848 139.128 47.9155 139.343C47.6463 139.559 47.2695 139.666 46.8387 139.666C46.5157 139.666 46.1926 139.613 45.9234 139.451C45.6542 139.29 45.4389 139.128 45.2773 138.913L45.6004 138.59C45.9234 139.02 46.3542 139.236 46.8926 139.236C47.1618 139.236 47.431 139.182 47.5925 139.02C47.754 138.913 47.8617 138.697 47.8617 138.482C47.9694 138.267 47.6463 137.997 47.1079 137.89Z" fill="white"/>
<path d="M91.0965 184.408H141.438C143.215 184.408 144.614 183.008 144.614 181.232V147.473H87.9199V181.232C87.9199 183.008 89.3198 184.408 91.0965 184.408Z" fill="white"/>
<path d="M144.614 125.237C144.614 123.461 143.215 122.061 141.438 122.061H91.0965C89.3198 122.061 87.9199 123.461 87.9199 125.237V141.282H144.614V125.237Z" fill="#821B1C"/>
<path d="M144.614 141.282H87.9199V143.543H144.614V141.282Z" fill="#821B1C"/>
<path d="M144.614 143.543H87.9199V145.804H144.614V143.543Z" fill="#821B1C"/>
<path d="M131.262 123.676C129.485 123.676 128.031 125.13 128.031 126.906C128.031 128.683 129.485 130.137 131.262 130.137C133.038 130.137 134.492 128.683 134.492 126.906C134.492 125.13 133.038 123.676 131.262 123.676Z" fill="#F5A999"/>
<path d="M101.164 123.676C99.3873 123.676 97.9336 125.13 97.9336 126.906C97.9336 128.683 99.3873 130.137 101.164 130.137C102.941 130.137 104.395 128.683 104.395 126.906C104.395 125.13 102.941 123.676 101.164 123.676Z" fill="#F5A999"/>
<path d="M131.263 123.676C129.648 123.676 128.355 124.968 128.355 126.583C128.355 128.199 129.648 129.491 131.263 129.491C132.878 129.491 134.17 128.199 134.17 126.583C134.17 124.968 132.878 123.676 131.263 123.676Z" fill="#752515"/>
<path d="M131.314 114.738V128.791C132.553 128.791 133.522 127.822 133.522 126.583V116.946C133.468 115.761 132.499 114.738 131.314 114.738Z" fill="black"/>
<path d="M131.315 114.738C130.077 114.738 129.107 115.707 129.107 116.946V126.583C129.107 127.768 130.077 128.791 131.315 128.791V114.738Z" fill="black"/>
<path opacity="0.1" d="M131.315 114.738C130.077 114.738 129.107 115.707 129.107 116.946V126.583C129.107 127.768 130.077 128.791 131.315 128.791V114.738Z" fill="black"/>
<path d="M101.22 123.676C99.6047 123.676 98.3125 124.968 98.3125 126.583C98.3125 128.199 99.6047 129.491 101.22 129.491C102.835 129.491 104.127 128.199 104.127 126.583C104.127 124.968 102.835 123.676 101.22 123.676Z" fill="#752515"/>
<path d="M101.221 114.738V128.791C102.459 128.791 103.428 127.822 103.428 126.583V116.946C103.428 115.761 102.459 114.738 101.221 114.738Z" fill="black"/>
<path d="M101.221 114.738C99.9828 114.738 99.0137 115.707 99.0137 116.946V126.583C99.0137 127.768 99.9828 128.791 101.221 128.791V114.738Z" fill="black"/>
<path opacity="0.1" d="M101.221 114.738C99.9828 114.738 99.0137 115.707 99.0137 116.946V126.583C99.0137 127.768 99.9828 128.791 101.221 128.791V114.738Z" fill="black"/>
<path d="M123.402 167.879V169.925H120.603V174.986H118.449V169.925H109.242V168.04L118.611 155.011H120.656V167.825H123.402V167.879ZM118.449 158.403L111.557 167.933H118.449V158.403Z" fill="#821B1C" stroke="#821B1C" stroke-width="2" stroke-miterlimit="10"/>
<path d="M106.872 138.805H106.441L105.257 136.598V139.667H104.826V135.575H105.257L106.657 138.267L108.057 135.575H108.487V139.667H108.057V136.598L106.872 138.805Z" fill="white"/>
<path d="M109.242 137.675C109.242 137.082 109.458 136.598 109.834 136.167C110.211 135.736 110.696 135.575 111.288 135.575C111.88 135.575 112.365 135.79 112.742 136.167C113.119 136.544 113.334 137.082 113.334 137.675C113.334 138.267 113.119 138.751 112.742 139.182C112.365 139.613 111.88 139.774 111.288 139.774C110.696 139.774 110.211 139.559 109.834 139.182C109.404 138.751 109.242 138.267 109.242 137.675ZM109.673 137.675C109.673 138.159 109.834 138.59 110.104 138.859C110.427 139.182 110.804 139.344 111.288 139.344C111.773 139.344 112.15 139.182 112.419 138.859C112.742 138.536 112.85 138.159 112.85 137.675C112.85 137.19 112.688 136.813 112.419 136.49C112.15 136.167 111.719 136.005 111.288 136.005C110.804 136.005 110.427 136.167 110.157 136.49C109.888 136.813 109.673 137.19 109.673 137.675Z" fill="white"/>
<path d="M117.264 139.721H116.779L114.464 136.436V139.721H114.033V135.629H114.464L116.779 138.967V135.629H117.21V139.721H117.264Z" fill="white"/>
<path d="M117.91 136.059V135.629H120.925V136.059H119.633V139.721H119.202V136.059H117.91Z" fill="white"/>
<path d="M124.692 139.721H124.261V137.836H122.054V139.721H121.623V135.629H122.054V137.405H124.261V135.629H124.692V139.721Z" fill="white"/>
<path d="M127.278 137.89L126.739 137.782C126.416 137.728 126.147 137.621 125.932 137.405C125.716 137.244 125.609 136.975 125.609 136.652C125.609 136.329 125.77 136.006 126.04 135.844C126.309 135.629 126.632 135.521 127.009 135.521C127.547 135.521 128.032 135.736 128.409 136.167L128.085 136.49C127.816 136.113 127.386 135.952 126.955 135.952C126.686 135.952 126.47 136.006 126.309 136.167C126.147 136.275 126.04 136.49 126.04 136.652C126.04 137.029 126.309 137.298 126.901 137.352L127.278 137.405C127.655 137.459 127.978 137.621 128.193 137.782C128.409 137.998 128.516 138.213 128.516 138.536C128.516 138.859 128.355 139.128 128.085 139.344C127.816 139.559 127.439 139.667 127.009 139.667C126.686 139.667 126.363 139.613 126.093 139.451C125.824 139.29 125.609 139.128 125.447 138.913L125.77 138.59C126.093 139.021 126.524 139.236 127.062 139.236C127.332 139.236 127.601 139.182 127.762 139.021C127.924 138.913 128.032 138.698 128.032 138.482C128.085 138.267 127.816 137.998 127.278 137.89Z" fill="white"/>
<path d="M10.9286 267H61.2698C63.0465 267 64.4464 265.6 64.4464 263.823V230.065H7.75195V263.823C7.75195 265.6 9.15182 267 10.9286 267Z" fill="white"/>
<path d="M64.4464 207.829C64.4464 206.052 63.0465 204.652 61.2698 204.652H10.9286C9.15182 204.652 7.75195 206.052 7.75195 207.829V223.874H64.4464V207.829Z" fill="#821B1C"/>
<path d="M64.4464 223.874H7.75195V226.135H64.4464V223.874Z" fill="#821B1C"/>
<path d="M64.4464 226.135H7.75195V228.396H64.4464V226.135Z" fill="#821B1C"/>
<path d="M51.0937 206.268C49.317 206.268 47.8633 207.721 47.8633 209.498C47.8633 211.275 49.317 212.728 51.0937 212.728C52.8705 212.728 54.3242 211.275 54.3242 209.498C54.3242 207.721 52.8705 206.268 51.0937 206.268Z" fill="#F5A999"/>
<path d="M20.9961 206.268C19.2193 206.268 17.7656 207.721 17.7656 209.498C17.7656 211.275 19.2193 212.728 20.9961 212.728C22.7728 212.728 24.2265 211.275 24.2265 209.498C24.2265 207.721 22.7728 206.268 20.9961 206.268Z" fill="#F5A999"/>
<path d="M51.1476 206.214C49.5324 206.214 48.2402 207.506 48.2402 209.121C48.2402 210.736 49.5324 212.028 51.1476 212.028C52.7629 212.028 54.0551 210.736 54.0551 209.121C54.0551 207.56 52.709 206.214 51.1476 206.214Z" fill="#752515"/>
<path d="M51.1484 197.33V211.382C52.3868 211.382 53.3559 210.413 53.3559 209.175V199.537C53.3559 198.299 52.3329 197.33 51.1484 197.33Z" fill="black"/>
<path d="M51.1489 197.33C49.9105 197.33 48.9414 198.299 48.9414 199.537V209.175C48.9414 210.359 49.9105 211.382 51.1489 211.382V197.33Z" fill="black"/>
<path opacity="0.1" d="M51.1489 197.33C49.9105 197.33 48.9414 198.299 48.9414 199.537V209.175C48.9414 210.359 49.9105 211.382 51.1489 211.382V197.33Z" fill="black"/>
<path d="M21.0539 206.213C19.4387 206.213 18.1465 207.506 18.1465 209.121C18.1465 210.736 19.4387 212.028 21.0539 212.028C22.6691 212.028 23.9613 210.736 23.9613 209.121C23.9613 207.559 22.6691 206.213 21.0539 206.213Z" fill="#752515"/>
<path d="M21.1035 197.33V211.382C22.3419 211.382 23.311 210.413 23.311 209.175V199.537C23.311 198.299 22.288 197.33 21.1035 197.33Z" fill="black"/>
<path d="M21.104 197.33C19.8656 197.33 18.8965 198.299 18.8965 199.537V209.175C18.8965 210.359 19.8656 211.382 21.104 211.382V197.33Z" fill="black"/>
<path opacity="0.1" d="M21.104 197.33C19.8656 197.33 18.8965 198.299 18.8965 199.537V209.175C18.8965 210.359 19.8656 211.382 21.104 211.382V197.33Z" fill="black"/>
<path d="M40.4886 251.332C40.4886 249.932 40.0578 248.856 39.1964 248.102C38.3349 247.348 37.2581 246.917 35.9659 246.917C35.1045 246.917 34.3507 247.133 33.5969 247.563C32.8432 247.994 32.3047 248.532 31.9817 249.125H30.0434L30.528 237.603H41.1885V239.649H32.5201L32.1971 246.379C32.5739 245.948 33.1124 245.571 33.8661 245.302C34.6199 245.033 35.3737 244.871 36.289 244.871C38.0657 244.871 39.5733 245.464 40.8116 246.594C42.0499 247.725 42.696 249.34 42.696 251.332C42.696 253.109 42.0499 254.67 40.7578 255.963C39.4656 257.255 37.7427 257.847 35.6429 257.847C33.22 257.847 31.1202 256.824 29.4512 254.778L31.0126 253.271C32.3586 254.94 33.92 255.801 35.8044 255.801C37.1504 255.801 38.2811 255.37 39.1964 254.563C40.0578 253.809 40.4886 252.732 40.4886 251.332Z" fill="#821B1C" stroke="#821B1C" stroke-width="2" stroke-miterlimit="10"/>
<path d="M26.7022 221.397H26.2715L25.087 219.189V222.258H24.6562V218.166H25.087L26.4868 220.858L27.8867 218.166H28.3174V222.258H27.8867V219.189L26.7022 221.397Z" fill="white"/>
<path d="M29.0723 220.266C29.0723 219.674 29.2876 219.189 29.6645 218.758C30.0414 218.328 30.526 218.166 31.1182 218.166C31.7105 218.166 32.195 218.382 32.5719 218.758C32.9488 219.189 33.1642 219.674 33.1642 220.266C33.1642 220.858 32.9488 221.343 32.5719 221.774C32.195 222.204 31.7105 222.366 31.1182 222.366C30.526 222.366 30.0414 222.15 29.6645 221.774C29.2876 221.343 29.0723 220.858 29.0723 220.266ZM29.503 220.266C29.503 220.751 29.6645 221.181 29.9337 221.451C30.2568 221.774 30.6337 221.935 31.1182 221.935C31.6028 221.935 31.9797 221.774 32.2489 221.451C32.5719 221.127 32.6796 220.751 32.6796 220.266C32.6796 219.781 32.5181 219.405 32.2489 219.082C31.9797 218.759 31.5489 218.597 31.1182 218.597C30.6337 218.597 30.2568 218.759 29.9876 219.082C29.7184 219.405 29.503 219.781 29.503 220.266Z" fill="white"/>
<path d="M37.0937 222.312H36.6092L34.294 219.028V222.312H33.8633V218.22H34.294L36.6092 221.558V218.22H37.0399V222.312H37.0937Z" fill="white"/>
<path d="M37.7402 218.651V218.22H40.7553V218.651H39.4631V222.312H39.0324V218.651H37.7402Z" fill="white"/>
<path d="M44.5221 222.312H44.0913V220.428H41.8839V222.312H41.4531V218.22H41.8839V219.997H44.0913V218.22H44.5221V222.312V222.312Z" fill="white"/>
<path d="M47.1079 220.482L46.5695 220.374C46.2465 220.32 45.9773 220.212 45.7619 219.997C45.5465 219.835 45.4389 219.566 45.4389 219.243C45.4389 218.92 45.6004 218.597 45.8696 218.436C46.1388 218.22 46.4618 218.113 46.8387 218.113C47.3771 218.113 47.8617 218.328 48.2386 218.759L47.9155 219.082C47.6463 218.705 47.2156 218.543 46.7849 218.543C46.5157 218.543 46.3003 218.597 46.1388 218.759C45.9773 218.866 45.8696 219.082 45.8696 219.243C45.8696 219.62 46.1388 219.889 46.7311 219.943L47.1079 219.997C47.4848 220.051 47.8079 220.212 48.0232 220.374C48.2386 220.589 48.3463 220.805 48.3463 221.128C48.3463 221.451 48.1848 221.72 47.9155 221.935C47.6463 222.151 47.2695 222.258 46.8387 222.258C46.5157 222.258 46.1926 222.204 45.9234 222.043C45.6542 221.881 45.4389 221.72 45.2773 221.505L45.6004 221.181C45.9234 221.612 46.3542 221.828 46.8926 221.828C47.1618 221.828 47.431 221.774 47.5925 221.612C47.754 221.505 47.8617 221.289 47.8617 221.074C47.9694 220.858 47.6463 220.589 47.1079 220.482Z" fill="white"/>
<path d="M91.0965 267H141.438C143.215 267 144.614 265.6 144.614 263.823V230.065H87.9199V263.823C87.9199 265.6 89.3198 267 91.0965 267Z" fill="white"/>
<path d="M144.614 207.829C144.614 206.052 143.215 204.652 141.438 204.652H91.0965C89.3198 204.652 87.9199 206.052 87.9199 207.829V223.874H144.614V207.829Z" fill="#821B1C"/>
<path d="M144.614 223.874H87.9199V226.135H144.614V223.874Z" fill="#821B1C"/>
<path d="M144.614 226.135H87.9199V228.396H144.614V226.135Z" fill="#821B1C"/>
<path d="M131.262 206.268C129.485 206.268 128.031 207.721 128.031 209.498C128.031 211.275 129.485 212.728 131.262 212.728C133.038 212.728 134.492 211.275 134.492 209.498C134.492 207.721 133.038 206.268 131.262 206.268Z" fill="#F5A999"/>
<path d="M101.164 206.268C99.3873 206.268 97.9336 207.721 97.9336 209.498C97.9336 211.275 99.3873 212.728 101.164 212.728C102.941 212.728 104.395 211.275 104.395 209.498C104.395 207.721 102.941 206.268 101.164 206.268Z" fill="#F5A999"/>
<path d="M131.263 206.214C129.648 206.214 128.355 207.506 128.355 209.121C128.355 210.736 129.648 212.028 131.263 212.028C132.878 212.028 134.17 210.736 134.17 209.121C134.17 207.56 132.878 206.214 131.263 206.214Z" fill="#752515"/>
<path d="M131.314 197.33V211.382C132.553 211.382 133.522 210.413 133.522 209.175V199.537C133.468 198.299 132.499 197.33 131.314 197.33Z" fill="black"/>
<path d="M131.315 197.33C130.077 197.33 129.107 198.299 129.107 199.537V209.175C129.107 210.359 130.077 211.382 131.315 211.382V197.33Z" fill="black"/>
<path opacity="0.1" d="M131.315 197.33C130.077 197.33 129.107 198.299 129.107 199.537V209.175C129.107 210.359 130.077 211.382 131.315 211.382V197.33Z" fill="black"/>
<path d="M101.22 206.213C99.6047 206.213 98.3125 207.506 98.3125 209.121C98.3125 210.736 99.6047 212.028 101.22 212.028C102.835 212.028 104.127 210.736 104.127 209.121C104.127 207.559 102.835 206.213 101.22 206.213Z" fill="#752515"/>
<path d="M101.221 197.33V211.382C102.459 211.382 103.428 210.413 103.428 209.175V199.537C103.428 198.299 102.459 197.33 101.221 197.33Z" fill="black"/>
<path d="M101.221 197.33C99.9828 197.33 99.0137 198.299 99.0137 199.537V209.175C99.0137 210.359 99.9828 211.382 101.221 211.382V197.33Z" fill="black"/>
<path opacity="0.1" d="M101.221 197.33C99.9828 197.33 99.0137 198.299 99.0137 199.537V209.175C99.0137 210.359 99.9828 211.382 101.221 211.382V197.33Z" fill="black"/>
<path d="M116.992 257.901C114.785 257.901 113.008 256.931 111.716 255.047C110.423 253.163 109.777 250.578 109.777 247.455C109.777 244.386 110.423 241.964 111.769 240.133C113.115 238.302 114.946 237.387 117.207 237.387C119.469 237.387 121.299 238.249 122.699 239.972L121.192 241.533C120.169 240.133 118.823 239.433 117.154 239.433C115.484 239.433 114.138 240.187 113.115 241.748C112.093 243.31 111.608 245.302 111.716 247.778C112.254 246.809 113.008 246.056 113.977 245.517C114.946 244.979 115.915 244.763 116.938 244.763C118.715 244.763 120.222 245.356 121.515 246.594C122.807 247.832 123.453 249.394 123.453 251.386C123.453 253.378 122.807 254.993 121.461 256.232C120.222 257.254 118.715 257.901 116.992 257.901ZM116.992 246.702C115.808 246.702 114.785 247.132 113.977 247.94C113.115 248.801 112.685 249.878 112.685 251.224C112.685 252.516 113.115 253.647 113.977 254.509C114.838 255.424 115.861 255.855 117.154 255.855C118.284 255.855 119.253 255.478 120.115 254.67C120.976 253.863 121.407 252.732 121.407 251.278C121.407 249.878 120.976 248.801 120.115 247.94C119.2 247.079 118.177 246.702 116.992 246.702Z" fill="#821B1C" stroke="#821B1C" stroke-width="2" stroke-miterlimit="10"/>
<path d="M106.872 221.397H106.441L105.257 219.189V222.258H104.826V218.166H105.257L106.657 220.858L108.057 218.166H108.487V222.258H108.057V219.189L106.872 221.397Z" fill="white"/>
<path d="M109.242 220.266C109.242 219.674 109.458 219.189 109.834 218.758C110.211 218.328 110.696 218.166 111.288 218.166C111.88 218.166 112.365 218.382 112.742 218.758C113.119 219.189 113.334 219.674 113.334 220.266C113.334 220.858 113.119 221.343 112.742 221.774C112.365 222.204 111.88 222.366 111.288 222.366C110.696 222.366 110.211 222.15 109.834 221.774C109.404 221.343 109.242 220.858 109.242 220.266ZM109.673 220.266C109.673 220.751 109.834 221.181 110.104 221.451C110.427 221.774 110.804 221.935 111.288 221.935C111.773 221.935 112.15 221.774 112.419 221.451C112.742 221.127 112.85 220.751 112.85 220.266C112.85 219.781 112.688 219.405 112.419 219.082C112.15 218.759 111.719 218.597 111.288 218.597C110.804 218.597 110.427 218.759 110.157 219.082C109.888 219.405 109.673 219.781 109.673 220.266Z" fill="white"/>
<path d="M117.264 222.312H116.779L114.464 219.028V222.312H114.033V218.22H114.464L116.779 221.558V218.22H117.21V222.312H117.264Z" fill="white"/>
<path d="M117.91 218.651V218.22H120.925V218.651H119.633V222.312H119.202V218.651H117.91Z" fill="white"/>
<path d="M124.692 222.312H124.261V220.428H122.054V222.312H121.623V218.22H122.054V219.997H124.261V218.22H124.692V222.312Z" fill="white"/>
<path d="M127.278 220.482L126.739 220.374C126.416 220.32 126.147 220.212 125.932 219.997C125.716 219.835 125.609 219.566 125.609 219.243C125.609 218.92 125.77 218.597 126.04 218.436C126.309 218.22 126.632 218.113 127.009 218.113C127.547 218.113 128.032 218.328 128.409 218.759L128.085 219.082C127.816 218.705 127.386 218.543 126.955 218.543C126.686 218.543 126.47 218.597 126.309 218.759C126.147 218.866 126.04 219.082 126.04 219.243C126.04 219.62 126.309 219.889 126.901 219.943L127.278 219.997C127.655 220.051 127.978 220.212 128.193 220.374C128.409 220.589 128.516 220.805 128.516 221.128C128.516 221.451 128.355 221.72 128.085 221.935C127.816 222.151 127.439 222.258 127.009 222.258C126.686 222.258 126.363 222.204 126.093 222.043C125.824 221.881 125.609 221.72 125.447 221.505L125.77 221.181C126.093 221.612 126.524 221.828 127.062 221.828C127.332 221.828 127.601 221.774 127.762 221.612C127.924 221.505 128.032 221.289 128.032 221.074C128.085 220.858 127.816 220.589 127.278 220.482Z" fill="white"/>
<path d="M266.187 166.748C263.441 169.656 259.08 174.717 256.173 179.186C255.204 180.747 253.104 181.178 251.542 180.155C251.273 179.993 251.058 179.832 250.896 179.67C249.227 178.486 249.012 176.117 250.412 174.609C253.212 171.648 258.273 166.156 261.072 162.441C262.257 160.88 264.572 160.611 266.026 161.957C267.372 163.249 267.479 165.295 266.187 166.748Z" fill="white"/>
<path d="M290.901 143.812C286.863 135.521 274.587 129.329 266.565 132.613C259.996 135.359 258.758 145.374 255.958 152.911C254.774 151.404 253.158 150.112 251.651 150.435C248.69 151.189 242.121 157.542 238.083 162.441C234.422 166.91 239.214 169.817 241.636 170.948C237.598 174.502 233.291 177.463 229.63 178.917C221.5 182.201 220.423 191.354 226.992 197.976C233.56 204.599 249.982 213.482 258.381 196.253C259.942 193.023 261.611 189.954 263.334 187.154C265.38 189.469 270.764 194.423 275.018 189.2C279.648 183.655 285.032 174.986 284.978 171.54C284.871 169.548 282.071 167.987 279.702 167.072C281.694 165.079 283.686 163.357 285.409 161.688C285.409 161.741 295.585 153.504 290.901 143.812ZM279.11 158.942C274.533 163.087 259.35 179.993 254.343 190.331C251.112 196.953 245.89 197.115 241.583 195.392C239.16 194.423 237.006 192.808 235.606 191.408C231.73 187.423 232.268 182.039 237.275 180.047C242.175 178.055 252.835 166.21 256.227 162.334C263.657 153.719 263.119 143.543 267.803 141.551C269.957 140.636 272.595 140.905 275.179 141.982C278.248 143.22 280.994 145.535 282.286 148.281C285.248 153.988 279.11 158.942 279.11 158.942Z" fill="white"/>
<path d="M257.465 84.5334H184.08C181.926 84.5334 180.203 86.2564 180.203 88.41V104.508C180.203 105.478 180.58 106.393 181.172 107.093L207.016 137.028C207.985 138.105 209.385 138.751 210.839 138.751H230.652C232.106 138.751 233.506 138.105 234.475 137.028L260.265 107.093C260.911 106.393 261.234 105.478 261.234 104.508V88.41C261.288 86.3102 259.565 84.5334 257.465 84.5334ZM258.757 90.9944V93.5787V104.401C245.297 105.316 230.383 118.346 230.544 135.467H210.946C210.623 118.292 196.302 105.316 182.787 104.401V93.5787V90.9944V88.41C182.787 87.7101 183.38 87.1178 184.08 87.1178H257.465C258.165 87.1178 258.757 87.7101 258.757 88.41V90.9944Z" fill="white"/>
<path d="M228.123 124.052C228.123 127.606 225.216 130.513 221.662 130.513C218.109 130.513 215.201 127.606 215.201 124.052C215.201 122.868 215.524 121.791 216.063 120.822C216.116 120.714 216.17 120.607 216.224 120.499C216.224 120.499 221.662 113.553 221.662 111.831C221.877 113.715 227.1 120.499 227.1 120.499C227.746 121.576 228.123 122.76 228.123 124.052Z" fill="#E53112"/>
<path d="M265.594 176.332C265.594 179.886 262.686 182.793 259.133 182.793C255.579 182.793 252.672 179.886 252.672 176.332C252.672 175.148 252.995 174.071 253.533 173.102C253.587 172.994 253.641 172.886 253.695 172.779C253.695 172.779 259.133 165.833 259.133 164.11C259.348 165.995 264.571 172.779 264.571 172.779C265.217 173.856 265.594 175.04 265.594 176.332Z" fill="#E53112"/>
</svg>
