<svg width="101" height="289" viewBox="0 0 101 289" fill="none" xmlns="http://www.w3.org/2000/svg">
<g clip-path="url(#clip0_431_320)">
<path d="M33.5049 197.024L34.5048 194.511L71.0042 189.485C73.1528 195.134 73.3343 199.361 72.0042 208.582L48.5046 221.648L40.0047 218.13L33.5049 197.024Z" fill="#F5CBA3"/>
<path d="M100.904 120.235C100.604 121.943 99.7039 123.149 98.004 124.556C96.404 125.964 95.404 127.371 94.904 128.376C94.4041 129.381 92.704 132.798 92.3041 133.2C92.0041 133.602 93.0041 139.934 92.804 142.246C92.604 144.558 92.604 155.614 91.8041 157.724C91.0041 159.835 87.7042 169.584 77.6043 165.162C77.6043 165.162 74.1044 163.353 73.6043 162.75C73.1044 162.147 72.8044 174.409 72.2044 177.826C71.6044 181.344 70.9044 182.248 71.3045 184.46C71.6044 186.168 71.6044 188.279 71.3045 189.686C71.2044 190.189 71.0044 190.591 70.9044 190.892C70.6044 191.093 66.3045 194.913 61.0046 196.722C55.5047 198.631 50.2048 202.551 45.7049 202.35C41.4048 202.149 34.105 197.626 34.505 194.108C34.505 194.008 34.505 194.008 34.505 193.907V193.807C34.505 193.505 34.505 193.003 34.405 192.4V192.299C33.805 188.58 31.605 180.942 32.905 174.208C34.205 167.172 34.205 166.77 34.205 166.77C34.205 166.77 29.4051 171.494 23.6051 167.172C17.8053 162.85 10.1054 154.207 9.40544 151.895C8.6054 149.583 7.80545 150.287 6.70547 149.181C5.70548 148.076 4.90549 145.864 4.7055 144.658C4.50549 143.452 4.2055 143.553 3.70552 142.95C3.20552 142.246 2.10554 140.939 1.70555 140.336C1.30556 139.733 0.205575 137.422 1.50555 137.321C2.80553 137.221 4.2055 141.14 5.40548 141.241C6.60547 141.341 7.20545 141.14 7.20545 139.934C7.20545 138.728 6.00547 136.819 6.00547 136.014C6.00547 136.014 4.8055 134.306 5.50549 133.301C6.10547 132.296 7.30545 134.105 7.40546 134.607C7.40546 135.21 9.00549 136.416 8.90536 137.221C8.90536 137.924 9.10547 138.326 9.20546 138.427C9.20546 138.226 8.80537 136.416 8.90536 136.014C8.90536 135.612 8.10546 133.803 7.90544 133.502C7.70545 133.2 5.50549 130.889 7.30545 130.185C7.30545 130.185 8.30543 129.582 9.40544 132.296C9.40544 132.296 10.2053 131.894 11.3054 132.698C12.4054 133.502 12.8053 134.808 13.1054 134.808C13.3054 134.808 14.7054 133.2 15.1053 135.512C15.5053 137.824 15.2053 139.934 15.2053 141.341C15.2053 142.749 16.3053 143.553 15.7054 146.367C15.7054 146.367 16.1053 145.864 17.7053 148.779C19.3052 151.593 26.6052 154.709 28.0052 155.714C28.0052 155.714 31.605 153.201 33.6051 148.478C35.605 143.754 41.4048 141.04 43.2049 141.844C43.0049 141.442 42.7048 141.14 42.1049 140.839C40.6049 140.236 38.905 136.517 38.805 135.512C38.6049 134.507 37.405 130.889 37.405 129.481C37.405 128.074 36.705 123.853 37.3049 122.044C37.805 120.235 38.005 113.601 38.005 112.797C38.1049 110.686 40.5049 106.063 48.9048 106.163C57.3046 106.163 61.1046 104.053 63.5046 106.867C65.9046 109.681 68.3044 108.274 68.3044 111.49C68.3044 114.707 68.8045 116.817 69.3044 119.029C69.8044 121.24 70.4044 123.551 70.1045 124.657C69.9044 125.763 67.7045 124.858 67.5045 127.773C67.3045 130.587 66.5045 134.909 66.5045 134.909C66.5045 134.909 66.4045 138.527 63.6046 141.442C64.6046 141.844 67.2044 142.849 68.7045 142.95C70.5044 143.05 75.2043 140.738 80.2043 147.171C80.2043 147.171 81.4042 143.251 80.7042 140.135C80.0043 137.02 81.3043 135.612 81.5042 134.708C81.7042 133.803 78.8043 128.677 78.5043 126.265C78.2044 123.853 76.9044 123.35 77.0044 121.642C77.1043 119.933 76.9044 118.024 78.9043 118.928C80.9043 119.933 81.4043 124.758 82.2043 124.155C82.2043 124.155 82.1042 122.647 82.7042 122.144C82.7042 122.144 82.4043 121.039 83.2042 119.029C83.2042 119.029 82.6042 116.918 83.5043 114.707C83.5043 114.707 83.9042 112.395 84.4042 111.49C84.9042 110.586 83.6043 107.068 86.2041 106.967C86.2041 106.967 87.5041 106.565 87.2041 110.686C86.9042 114.807 87.6042 116.817 87.6042 117.219C87.6042 117.621 88.8041 117.42 89.3041 115.712C89.8041 114.003 90.204 112.093 90.5041 111.892C90.8041 111.691 90.104 107.37 92.704 107.47C92.704 107.47 94.304 106.967 93.604 112.294C92.904 117.621 91.7041 118.224 92.2041 118.928C92.704 119.632 93.0041 118.425 93.804 117.923C94.6041 117.42 95.104 115.913 95.504 115.209C95.9041 114.506 95.7041 111.49 97.704 112.294C99.7039 113.098 96.104 121.039 96.104 121.039C96.104 121.039 97.904 120.938 97.804 120.235C97.804 120.235 98.704 119.833 98.804 118.928C98.904 118.024 98.804 116.214 100.704 116.717C100.704 116.616 101.204 118.425 100.904 120.235Z" fill="#994E2E"/>
<path d="M35.3047 246.373C35.3047 246.373 36.5047 248.584 42.1046 248.484C42.0046 248.484 36.0046 249.489 35.3047 246.373Z" fill="#773A1E"/>
<path d="M25.605 252.605C25.605 252.605 26.305 250.895 28.005 251.498C28.005 251.398 26.505 251.097 25.605 252.605Z" fill="#824123"/>
<path d="M34.7053 248.484C34.7053 248.484 35.9053 251.198 39.1052 252.203C39.0052 252.203 34.6053 250.695 34.7053 248.484Z" fill="#824123"/>
<path d="M43.8049 225.367C43.8049 225.367 39.405 225.768 35.2051 222.653C35.2051 222.754 39.1049 227.076 43.8049 225.367Z" fill="#773A1E"/>
<path d="M50.7051 234.01C50.7051 234.01 52.205 231.699 54.805 231.699C54.805 231.699 51.505 231.296 50.7051 234.01Z" fill="#824123"/>
<path d="M62.9048 269.089C62.9048 269.089 66.5046 273.108 72.0045 271.601C72.0045 271.601 67.6046 272.706 62.9048 269.089Z" fill="#773A1E"/>
<path d="M64.9048 273.008C64.9048 273.008 67.6047 274.314 69.2048 275.52C70.8048 276.727 73.4047 276.225 73.6047 275.923C73.6047 275.923 71.1047 277.933 67.1048 274.617L64.9048 273.008Z" fill="#773A1E"/>
<path d="M57.3048 279.642C57.3048 279.642 58.3048 280.044 56.9048 281.552C55.5048 283.159 56.2047 285.472 56.2047 285.472C56.2047 285.472 55.8048 283.159 56.7048 282.053C57.6047 281.049 58.2048 279.944 57.3048 279.642Z" fill="#824123"/>
<path d="M59.0045 286.275C59.0045 286.275 58.2045 284.969 59.0045 283.661C59.8044 282.355 59.8045 281.25 59.8045 281.25C59.8045 281.149 59.9045 282.556 58.8045 284.366C58.8045 284.366 58.5046 284.868 59.0045 286.275Z" fill="#824123"/>
<path d="M61.4043 284.567C61.4043 284.567 61.7043 282.858 62.2042 282.255C62.2042 282.255 61.4043 283.059 61.4043 284.567Z" fill="#824123"/>
<path d="M65.0045 283.26C65.0045 283.26 63.6045 284.164 63.8045 285.672C63.7045 285.672 63.9045 284.164 65.0045 283.26Z" fill="#824123"/>
<path d="M70.1042 159.132C70.1042 159.132 65.5041 154.609 68.6042 148.578C68.6042 148.679 64.2042 153.302 70.1042 159.132Z" fill="#824123"/>
<path d="M79.8042 148.377C79.8042 148.377 77.6042 151.292 77.4042 153.704C77.2042 156.117 77.2042 157.926 77.9041 159.735C77.9041 159.735 74.7042 153.403 79.8042 148.377Z" fill="#824123"/>
<path d="M74.2041 160.941C74.2041 160.941 73.2041 154.91 76.6041 152.096C76.6041 152.096 73.7041 155.312 74.2041 160.941Z" fill="#824123"/>
<path d="M71.2046 160.036C71.2046 160.036 68.2047 161.343 66.8047 155.815C66.8047 155.815 68.3046 162.549 71.2046 160.036Z" fill="#824123"/>
<path d="M83.4043 122.044C83.4043 122.044 87.7043 123.954 85.5043 129.381C85.4043 129.482 88.6042 124.657 83.4043 122.044Z" fill="#824123"/>
<path d="M86.9043 119.933C86.9043 119.933 92.8043 124.758 93.2042 126.466C93.2042 126.466 93.2042 123.954 86.9043 119.933Z" fill="#824123"/>
<path d="M34.3046 150.589C34.3046 150.589 33.6047 152.599 34.3046 155.614C34.9046 158.629 32.7046 160.74 32.7046 161.544C32.7046 162.449 34.1046 166.77 34.1046 166.77C34.1046 166.77 31.9047 162.047 32.8046 160.438C33.7046 158.83 34.4046 157.222 34.0046 156.016C33.5047 154.81 34.3046 150.589 34.3046 150.589Z" fill="#773A1E"/>
<path d="M27.7045 155.715C27.7045 155.715 25.0046 154.207 25.5047 162.951C25.4047 162.951 25.4047 155.815 27.7045 155.715Z" fill="#773A1E"/>
<path d="M12.9054 135.512C12.9054 135.512 12.7054 137.12 12.8054 137.522C12.8054 137.824 12.1053 139.332 12.0054 140.035C11.9054 140.739 10.6054 140.437 10.0055 142.95C10.0055 142.95 9.50538 144.558 9.60536 145.463C9.60536 145.463 8.80546 142.246 11.5054 140.236C11.5054 140.236 12.8054 137.02 12.9054 135.512Z" fill="#824123"/>
<path d="M6.10547 144.759C6.10547 144.759 7.90545 143.955 8.00544 142.548C8.10548 141.14 9.00538 140.336 9.00538 140.336C9.00538 140.336 8.00544 141.844 8.10548 143.05C8.10548 143.05 7.70545 144.357 6.10547 144.759Z" fill="#824123"/>
<path d="M9.00499 133.402C9.00499 133.402 8.80501 134.105 10.205 135.11C10.205 135.11 10.7049 135.412 10.7049 136.115C10.7049 136.819 10.6049 137.623 10.8049 138.025C10.8049 138.025 10.405 137.522 10.6049 136.216C10.7049 134.909 9.80489 135.512 9.30495 134.507C9.20496 134.407 8.905 133.804 9.00499 133.402Z" fill="#824123"/>
<path d="M53.8047 162.951C53.8047 162.951 54.7046 161.142 56.7046 163.152C58.7045 165.162 54.3046 166.268 53.8047 162.951Z" fill="#773A1E"/>
<path d="M33.4054 159.835C33.4054 159.835 34.4054 161.846 33.0054 163.253C33.0054 163.253 32.2054 161.343 32.7055 160.438L33.4054 159.835Z" fill="#773A1E"/>
<path d="M59.2046 242.051C59.2046 242.051 62.5046 241.75 65.0045 242.454C65.0045 242.454 62.5046 240.845 59.2046 242.051Z" fill="#773A1E"/>
<path d="M39.2047 196.018C39.2047 196.018 40.6047 196.119 40.6047 195.616C40.6047 195.214 41.7047 195.817 41.9046 196.219L42.1046 196.621C42.1046 196.621 41.6047 196.722 41.0047 196.521C40.4047 196.42 39.1047 196.521 39.2047 196.018Z" fill="#773A1E"/>
<path d="M48.1045 129.482C48.1045 129.482 46.9045 128.376 48.2045 127.471C48.2045 127.371 47.2046 128.477 48.1045 129.482Z" fill="#421D13"/>
<path d="M55.7046 129.582C55.7046 129.582 57.0046 128.577 55.7046 127.271C55.7046 127.17 56.7046 128.175 55.7046 129.582Z" fill="#421D13"/>
<path d="M52.9048 129.18C52.9048 129.18 53.5048 128.276 54.7047 128.577C54.7047 128.577 55.0048 128.879 53.9048 128.879C53.9048 128.879 53.4049 128.778 52.9048 129.18Z" fill="#421D13"/>
<path d="M50.6047 129.08C50.6047 129.08 49.7047 128.175 49.0047 128.477C49.0047 128.477 48.5047 128.778 49.8047 128.879C49.8047 128.879 50.1047 128.678 50.6047 129.08Z" fill="#421D13"/>
<path d="M55.9048 118.526C55.9048 118.526 56.1048 117.32 56.4047 117.421C56.7047 117.421 58.1047 117.421 58.7047 117.622C59.3047 117.823 61.9046 117.622 62.4047 117.823C62.9046 118.024 64.6046 119.632 64.5046 119.933C64.5046 120.235 63.5046 119.431 63.5046 119.431C63.5046 119.431 61.8046 118.928 61.1047 118.727C60.4047 118.526 58.8047 118.325 58.1047 118.526C57.3048 118.526 55.9048 118.526 55.9048 118.526Z" fill="#421D13"/>
<path d="M46.6048 117.119C46.6048 117.119 45.7049 117.521 44.7049 117.32C43.7049 117.119 41.8049 117.32 41.5048 117.521C41.2049 117.722 39.205 118.727 39.305 120.235C39.4049 121.642 39.105 122.245 39.105 122.245C39.105 122.245 39.9049 119.431 40.6049 119.029C41.3049 118.627 42.1049 118.526 42.5049 118.426C42.9048 118.225 45.7049 118.627 46.2048 118.426C46.7048 118.225 46.9048 117.823 46.9048 117.521C46.9048 117.22 46.6048 117.119 46.6048 117.119Z" fill="#421D13"/>
<path d="M42.105 133.2C42.105 133.2 42.6051 134.105 42.505 134.507C42.505 134.407 42.005 133.703 42.105 133.2Z" fill="#421D13"/>
<path d="M61.7046 133.603C61.7046 133.603 61.5047 134.608 61.3047 134.909C61.3047 134.909 61.4047 134.005 61.7046 133.603Z" fill="#421D13"/>
<path d="M61.905 122.747C62.005 122.848 62.005 122.949 62.005 122.949C62.005 122.949 62.005 122.848 61.905 122.747C61.905 122.446 61.905 122.245 62.2049 121.843C62.2049 121.843 61.1049 121.541 60.3049 121.24C60.3049 121.24 60.3049 121.24 60.2049 121.24C60.1049 121.139 59.9049 121.139 59.8049 121.139C59.705 121.139 59.705 121.139 59.605 121.139C59.505 121.139 59.505 121.139 59.405 121.139H59.505C56.605 120.536 55.2051 122.747 55.2051 122.747C55.705 122.647 56.005 122.245 56.5051 122.044C56.3051 122.647 56.805 123.451 56.805 123.451C56.805 123.451 58.9049 123.954 59.605 123.451C60.1049 123.049 59.9049 122.245 59.8049 121.943C60.3049 122.044 60.705 122.144 61.0049 122.345C61.6049 122.345 61.805 122.547 61.905 122.747Z" fill="#421D13"/>
<path d="M61.9043 122.748C61.9043 122.848 62.0043 122.949 62.0043 122.949L61.9043 122.748Z" fill="#421D13"/>
<path d="M48.4046 122.245C48.4046 122.245 46.8047 120.235 44.0048 121.039H44.1047C44.1047 121.039 44.0048 121.039 43.9048 121.14C43.9048 121.14 43.8048 121.14 43.7048 121.14C43.5048 121.24 43.4048 121.24 43.3048 121.34C42.5048 121.642 41.4048 122.145 41.4048 122.145C41.7048 122.547 41.8049 122.748 41.8049 122.949C41.8049 123.15 41.7048 123.25 41.7048 123.25C41.7048 123.25 41.7047 123.15 41.8049 123.049C41.9049 122.848 42.1048 122.547 42.6048 122.245C42.8048 122.145 43.1047 121.943 43.4048 121.843C43.4048 122.245 43.4048 122.748 43.8048 123.049C44.5048 123.552 46.6047 122.848 46.6047 122.848C46.6047 122.848 47.0047 122.145 46.8047 121.541C47.5048 121.743 47.8047 122.145 48.4046 122.245Z" fill="#421D13"/>
<path d="M57.3043 134.306C57.4043 134.206 57.5043 134.206 57.5043 134.206C55.4044 134.909 54.1045 133.603 52.7045 133.603C52.3044 133.603 51.9044 134.005 51.2044 133.603C50.4045 133.201 49.1045 134.005 48.3044 134.407C47.7045 134.708 47.1045 134.708 46.5045 134.507L46.1046 134.306C46.1046 134.306 46.2046 134.407 46.3045 134.407C45.9046 134.306 45.6045 134.105 45.6045 134.105C45.6045 134.105 46.2046 134.407 46.8045 134.708C47.6045 135.211 48.9045 136.015 49.6044 136.819C50.5045 137.623 53.6044 137.925 54.7044 136.92C55.6044 136.216 57.1044 134.809 57.3043 134.306C57.4043 134.306 57.4043 134.306 57.3043 134.306Z" fill="#582817"/>
<path d="M48.8052 135.311C48.8052 135.311 52.0052 135.814 54.6052 135.412L48.8052 135.311Z" fill="#3A180D"/>
<path d="M66.1045 134.809C66.1045 134.809 68.6045 135.613 70.5044 131.894C72.3043 128.175 73.3043 125.16 71.1045 124.657C68.9044 124.255 66.8044 126.768 66.8044 126.768L66.1045 134.809Z" fill="#994E2E"/>
<path d="M36.8051 127.572C36.8051 127.572 34.4052 125.763 34.3052 127.371C34.2052 128.979 35.4051 130.688 35.5051 131.592C35.6052 132.396 36.0052 135.311 37.2052 135.512C38.4052 135.613 39.0051 134.507 39.0051 134.507L36.8051 127.572Z" fill="#994E2E"/>
<path d="M70.804 127.07C70.804 127.07 69.604 125.763 69.304 128.778C69.004 131.794 68.104 130.688 68.204 131.492C68.304 132.296 69.504 132.095 69.404 130.487C69.304 128.778 69.504 126.467 70.804 127.07Z" fill="#421D13"/>
<path d="M35.105 128.175C35.105 128.175 36.8049 128.878 36.6049 131.09C36.405 133.301 37.105 133.401 37.105 133.401C37.105 133.401 36.6049 134.205 36.305 133.301C36.005 131.693 37.605 129.984 35.105 128.175Z" fill="#421D13"/>
<path d="M43.5049 141.643C43.5049 141.643 47.7048 143.352 49.6049 144.156C51.7047 145.06 56.9047 145.06 58.0047 144.055C58.0047 144.055 54.2047 146.166 49.4049 144.256C44.6049 142.548 43.5049 141.643 43.5049 141.643Z" fill="#824123"/>
<path d="M62.8047 141.744C62.8047 141.744 60.4047 144.96 54.9048 145.865C54.9048 145.865 61.0046 145.362 62.8047 141.744Z" fill="#824123"/>
<path d="M37.0052 127.572C37.0052 127.572 37.6051 125.662 37.2052 125.16C36.8052 124.657 37.7051 123.351 37.4051 122.748C37.1052 122.145 37.7051 119.33 37.8051 118.526C37.9052 117.722 37.9052 113.4 38.5051 112.797C39.0051 112.194 38.8051 110.083 39.5052 109.883C40.3051 109.681 41.805 108.274 42.6051 108.073C43.4051 107.872 44.305 107.571 45.305 107.068C46.305 106.465 48.105 106.867 49.5049 106.767C50.8049 106.566 54.0048 106.566 54.8049 106.264C55.6049 105.963 58.7048 105.661 59.0048 105.963C59.3047 106.365 59.3048 106.365 60.1048 106.365C60.9048 106.365 61.6048 105.862 62.2047 106.867C62.8048 107.872 63.4047 108.777 64.6047 108.777C65.8047 108.777 67.3046 109.28 67.3046 110.083C67.3046 110.888 66.5047 110.888 67.2046 111.893C67.9047 112.898 68.1047 114.606 68.0047 114.908C67.8047 115.209 67.4046 116.114 67.9047 116.617C68.4046 117.119 69.4047 120.737 69.4047 121.944C69.3047 123.15 69.1047 125.361 69.1047 125.361L69.0047 126.165C69.0047 126.165 70.2046 124.155 71.9046 125.16C71.9046 125.16 71.5046 124.657 71.6045 123.853C71.7045 123.15 71.8047 122.647 71.8047 121.944C71.8047 121.14 72.4046 121.14 72.5046 119.933C72.6046 118.727 72.4046 116.617 72.4046 116.617C72.4046 116.617 73.2046 112.094 72.2046 110.285C71.2046 108.475 71.3046 108.475 70.9046 107.269C70.5047 106.063 69.6046 105.762 69.6046 105.762C69.6046 105.762 69.3047 103.148 66.3047 101.641C63.3047 100.133 63.3047 99.1281 61.6048 98.9271C59.6048 98.6256 55.9049 97.2184 54.5049 97.0174C53.1049 96.8164 49.9049 98.4245 47.505 98.324C45.0051 98.2235 44.105 98.9271 42.6051 99.7311C41.1051 100.535 38.8051 102.847 38.1052 103.048C37.5051 103.249 37.4051 103.952 36.6052 105.058C35.8052 106.164 35.5052 107.571 34.8052 108.676C34.1052 109.782 33.9053 110.888 33.8053 112.194C33.7052 113.501 34.3052 118.024 33.9053 118.124C33.6052 118.225 33.1052 118.526 33.3052 120.737C33.5052 122.949 35.0051 125.461 34.8052 126.567C34.9051 126.667 35.4052 126.567 37.0052 127.572Z" fill="#421D13"/>
<path d="M76.4047 276.124C75.5048 280.044 68.0049 286.978 67.0049 286.978C66.005 286.978 66.205 288.386 63.9049 288.185C63.9049 288.185 62.9049 289.692 61.005 288.386C61.005 288.386 59.0051 288.486 58.805 287.683C58.805 287.683 56.9051 287.883 56.4051 286.878C56.4051 286.878 53.9052 287.683 52.7052 286.375C52.7052 286.375 52.7052 285.169 52.8052 283.763C52.9051 282.355 52.6052 279.944 55.5051 279.039C55.5051 279.039 60.5051 273.711 60.905 273.109C61.305 272.405 61.105 270.897 62.505 268.184C63.905 265.47 56.7051 248.082 55.4051 246.876C54.0051 245.67 49.4051 240.042 50.0052 235.117C50.0052 235.117 47.5052 225.166 47.8052 221.146C47.8052 221.146 47.0053 224.06 45.0052 224.865C45.0052 224.865 45.1052 227.076 43.9052 228.282C42.7052 229.588 45.0052 229.187 45.1052 234.011C45.2052 238.835 44.0052 244.564 45.6053 246.072C47.2053 247.579 48.0052 251.298 44.5053 253.509C41.0053 255.72 29.0055 256.826 28.0056 256.726C27.0056 256.625 23.2056 256.525 23.8055 254.817C23.8055 254.817 23.9057 253.811 24.4056 253.609C24.4056 253.609 23.7056 253.409 24.3056 252.103L24.8056 250.795C24.8056 250.795 24.6056 249.59 25.6056 249.187C26.7056 248.886 28.3056 248.484 29.6056 247.781C30.9055 247.076 32.4055 248.584 33.5055 247.479C34.6054 246.273 35.2054 246.373 34.3054 244.464C33.5055 242.454 30.2055 231.799 29.3056 229.387C28.4056 226.976 26.4055 224.865 27.1056 221.246C27.7055 217.628 26.9056 209.989 28.3056 205.466C29.2055 202.853 31.1055 200.24 32.6055 197.928C32.6055 197.928 32.6055 197.928 32.7055 197.828C33.0054 197.426 34.0054 196.219 34.8055 197.325C36.0053 199.134 36.6054 200.742 37.1054 201.446C37.6054 202.15 37.4055 205.265 38.1054 206.27C38.8054 207.276 36.1055 210.793 40.2054 214.713C44.3053 218.633 46.7052 220.945 47.9052 221.146C49.1052 221.347 47.8052 218.13 48.3053 216.522C48.8052 214.914 50.5052 209.688 55.2051 207.074C59.905 204.562 65.5049 202.15 67.7049 203.155C69.7048 204.059 71.9048 207.879 72.1048 208.381C72.2048 210.492 72.4048 212.703 72.4048 212.703C72.4048 212.703 70.8048 221.95 70.6048 224.06C70.4049 226.071 70.4049 233.81 70.2049 236.323C70.0049 238.835 68.9049 240.343 70.0049 241.75C71.1048 243.157 75.2047 247.076 74.8048 255.017C74.4048 262.957 73.6048 266.173 74.4048 268.184C75.0047 269.992 77.3047 272.103 76.4047 276.124Z" fill="#994E2E"/>
</g>
<defs>
<clipPath id="clip0_431_320">
<rect width="100.11" height="289" fill="white" transform="translate(0.889648)"/>
</clipPath>
</defs>
</svg>
