<svg width="100" height="100" viewBox="0 0 100 100" fill="none" xmlns="http://www.w3.org/2000/svg">
<path d="M41.4073 51.9193L41.8985 50.72L59.825 48.3213C60.8891 51.0398 60.971 53.0387 60.3161 57.5162L48.7744 63.7528L44.5997 62.0737L41.4073 51.9193Z" fill="#F5CBA3"/>
<path d="M74.5591 15.1396C74.3954 15.9392 73.9861 16.4989 73.1676 17.2185C72.349 17.8581 71.8579 18.5777 71.6123 19.0575C71.3667 19.5372 70.5482 21.2163 70.3026 21.3762C70.1389 21.5361 70.63 24.5744 70.5482 25.6938C70.4663 26.8132 70.4663 32.0903 70.057 33.1297C69.6478 34.1691 68.0106 38.8065 63.0993 36.7277C63.0993 36.7277 61.3803 35.8482 61.1347 35.6083C60.8891 35.2885 60.7254 41.2052 60.4799 42.8043C60.1524 44.4834 59.825 44.9631 60.0706 46.0026C60.2343 46.8021 60.2343 47.8415 60.0706 48.4812C59.9887 48.7211 59.9069 48.881 59.9069 49.0409C59.7432 49.1208 57.6149 50.9598 55.0774 51.8393C52.3761 52.7188 49.7567 54.6378 47.5466 54.5578C45.4183 54.4779 41.8166 52.3191 42.0622 50.64C42.0622 50.56 42.0622 50.56 42.0622 50.56V50.4801C42.0622 50.3202 42.0622 50.0803 41.9803 49.8404V49.7605C41.6529 48.0015 40.5888 44.3235 41.2436 41.1253C41.8985 37.7671 41.8985 37.5272 41.8985 37.5272C41.8985 37.5272 39.5247 39.766 36.6597 37.6872C33.7947 35.6083 30.0293 31.4506 29.7019 30.3312C29.2926 29.2118 28.8833 29.5317 28.3922 29.0519C27.9011 28.4922 27.4918 27.4528 27.4099 26.8931C27.3281 26.3334 27.1644 26.3334 26.9188 26.0936C26.6732 25.7737 26.1002 25.1341 25.9365 24.8143C25.7728 24.4944 25.1998 23.455 25.8547 23.3751C26.5095 23.2951 27.1644 25.2141 27.7374 25.294C28.3104 25.374 28.6378 25.2141 28.6378 24.6544C28.6378 24.0947 28.0648 23.1352 28.0648 22.7354C28.0648 22.7354 27.4918 21.9359 27.8192 21.4561C28.1466 20.9764 28.7196 21.8559 28.7196 22.0958C28.7196 22.4156 29.5382 22.9753 29.4563 23.3751C29.4563 23.6949 29.5382 23.9348 29.6201 23.9348C29.6201 23.8548 29.4563 22.9753 29.4563 22.8154C29.4563 22.6555 29.0471 21.776 28.9652 21.616C28.8833 21.4561 27.8192 20.3367 28.6378 20.0169C28.6378 20.0169 29.1289 19.6971 29.7019 21.0564C29.7019 21.0564 30.1112 20.8964 30.6023 21.2163C31.1753 21.616 31.339 22.2557 31.5027 22.2557C31.5846 22.2557 32.3213 21.4561 32.485 22.5755C32.6487 23.6949 32.5669 24.7343 32.5669 25.374C32.5669 26.0136 33.1399 26.4134 32.8124 27.7726C32.8124 27.7726 32.9762 27.5328 33.7947 28.892C34.6133 30.2513 38.1331 31.7704 38.8698 32.2502C38.8698 32.2502 40.6706 31.0508 41.6529 28.8121C42.6352 26.5733 45.5002 25.2141 46.4006 25.6138C46.3187 25.4539 46.155 25.294 45.8276 25.1341C45.0909 24.8143 44.2723 23.0552 44.1905 22.5755C44.1086 22.0958 43.5356 20.3367 43.5356 19.6971C43.5356 19.0575 43.2082 16.9786 43.4538 16.0991C43.6993 15.2196 43.7812 12.0213 43.7812 11.7015C43.863 10.6621 45.009 8.50329 49.1018 8.50329C53.1947 8.50329 55.0774 7.46387 56.3052 8.82312C57.4512 10.1824 58.679 9.46276 58.679 11.0619C58.679 12.581 58.9246 13.6205 59.1702 14.6599C59.4157 15.6993 59.7432 16.8187 59.5794 17.3784C59.4976 17.9381 58.4335 17.4583 58.2697 18.8975C58.1879 20.2568 57.7786 22.3356 57.7786 22.3356C57.7786 22.3356 57.6967 24.0947 56.387 25.4539C56.8782 25.6138 58.1879 26.0936 58.9246 26.1735C59.825 26.2535 62.117 25.1341 64.5727 28.1724C64.5727 28.1724 65.1457 26.2535 64.8182 24.8143C64.4908 23.2951 65.1457 22.6555 65.2275 22.1757C65.3094 21.776 63.9178 19.2973 63.7541 18.098C63.5904 16.9786 62.9356 16.7387 63.0174 15.8592C63.0993 15.0597 62.9356 14.1002 63.9178 14.5799C64.9001 15.0597 65.1457 17.3784 65.555 17.0586C65.555 17.0586 65.4731 16.339 65.8005 16.0991C65.8005 16.0991 65.6368 15.5394 66.0461 14.5799C66.0461 14.5799 65.7187 13.5405 66.2098 12.5011C66.2098 12.5011 66.3735 11.3817 66.6191 10.9819C66.8647 10.5821 66.2098 8.82312 67.5195 8.82312C67.5195 8.82312 68.1744 8.6632 68.0106 10.5821C67.8469 12.581 68.1744 13.5405 68.1744 13.7004C68.1744 13.8603 68.7473 13.7804 68.9929 12.9808C69.2385 12.1813 69.4022 11.2218 69.5659 11.1418C69.7296 11.0619 69.4022 8.98303 70.63 8.98303C70.63 8.98303 71.4486 8.74316 71.0393 11.3017C70.7119 13.8603 70.1389 14.1802 70.3845 14.5C70.63 14.8198 70.7938 14.2601 71.203 14.0202C71.6123 13.7804 71.8579 13.0608 72.0216 12.7409C72.1853 12.4211 72.1035 10.9819 73.0857 11.3817C74.068 11.7815 72.2672 15.5394 72.2672 15.5394C72.2672 15.5394 73.1676 15.4594 73.0857 15.1396C73.0857 15.1396 73.495 14.9797 73.5769 14.5C73.6587 14.1002 73.5769 13.2207 74.4773 13.4606C74.3954 13.3806 74.641 14.2601 74.5591 15.1396Z" fill="#994E2E"/>
<path d="M42.3077 75.5862C42.3077 75.5862 42.8807 76.6256 45.6638 76.6256C45.582 76.6256 42.6352 77.1054 42.3077 75.5862Z" fill="#773A1E"/>
<path d="M37.5601 78.6245C37.5601 78.6245 37.8875 77.825 38.7061 78.0648C38.7061 77.9849 37.9694 77.9049 37.5601 78.6245Z" fill="#824123"/>
<path d="M42.0622 76.6256C42.0622 76.6256 42.6352 77.9049 44.1905 78.3847C44.1086 78.3847 41.9804 77.6651 42.0622 76.6256Z" fill="#824123"/>
<path d="M46.4824 65.5118C46.4824 65.5118 44.3542 65.6717 42.2259 64.2325C42.3077 64.3124 44.1904 66.3913 46.4824 65.5118Z" fill="#773A1E"/>
<path d="M49.9204 69.6695C49.9204 69.6695 50.6571 68.5501 51.9668 68.5501C51.885 68.5501 50.2478 68.3902 49.9204 69.6695Z" fill="#824123"/>
<path d="M55.8959 86.5402C55.8959 86.5402 57.6967 88.4591 60.398 87.7395C60.3161 87.7395 58.1878 88.2192 55.8959 86.5402Z" fill="#773A1E"/>
<path d="M56.8782 88.3791C56.8782 88.3791 58.1879 89.0188 59.0064 89.5785C59.825 90.1382 61.0528 89.8983 61.1347 89.7384C61.1347 89.7384 59.9069 90.6979 57.9423 89.0987L56.8782 88.3791Z" fill="#773A1E"/>
<path d="M53.1128 91.5774C53.1128 91.5774 53.6039 91.7373 52.9491 92.4569C52.2942 93.2564 52.6217 94.3758 52.6217 94.3758C52.6217 94.3758 52.4579 93.2564 52.8672 92.6967C53.2765 92.217 53.5221 91.7373 53.1128 91.5774Z" fill="#824123"/>
<path d="M53.9314 94.7756C53.9314 94.7756 53.5221 94.1359 53.9314 93.4963C54.3407 92.8566 54.3407 92.3769 54.3407 92.3769C54.3407 92.2969 54.4225 93.0165 53.8496 93.8961C53.8496 93.8161 53.6858 94.056 53.9314 94.7756Z" fill="#824123"/>
<path d="M55.1592 93.8961C55.1592 93.8961 55.323 93.0965 55.5685 92.7767C55.4867 92.8567 55.1592 93.1765 55.1592 93.8961Z" fill="#824123"/>
<path d="M56.8782 93.3364C56.8782 93.3364 56.2233 93.7362 56.3052 94.4558C56.2233 94.4558 56.3871 93.7362 56.8782 93.3364Z" fill="#824123"/>
<path d="M59.4158 33.7693C59.4158 33.7693 57.1238 31.6105 58.6791 28.7321C58.6791 28.7321 56.4689 30.9709 59.4158 33.7693Z" fill="#824123"/>
<path d="M64.1634 28.6522C64.1634 28.6522 63.0993 30.0114 63.0174 31.2107C62.9355 32.3301 62.9355 33.2096 63.263 34.0892C63.263 34.0892 61.6258 31.0508 64.1634 28.6522Z" fill="#824123"/>
<path d="M61.3803 34.6488C61.3803 34.6488 60.8891 31.7704 62.5263 30.4112C62.6081 30.4112 61.1347 31.9303 61.3803 34.6488Z" fill="#824123"/>
<path d="M59.9068 34.2491C59.9068 34.2491 58.4334 34.8887 57.7786 32.2502C57.7786 32.1702 58.5153 35.4484 59.9068 34.2491Z" fill="#824123"/>
<path d="M65.9642 16.0191C65.9642 16.0191 68.0925 16.8987 67.0284 19.5372C66.9465 19.5372 68.5018 17.2185 65.9642 16.0191Z" fill="#824123"/>
<path d="M67.6832 14.9797C67.6832 14.9797 70.5482 17.2984 70.7938 18.098C70.7119 18.098 70.7119 16.8987 67.6832 14.9797Z" fill="#824123"/>
<path d="M41.8167 29.6916C41.8167 29.6916 41.4893 30.6511 41.8167 32.0903C42.1441 33.5295 40.9981 34.5689 40.9981 34.9687C40.9981 35.3685 41.653 37.4473 41.653 37.4473C41.653 37.4473 40.5888 35.2085 40.9981 34.409C41.4074 33.6094 41.8167 32.8898 41.5711 32.2502C41.4074 31.6905 41.8167 29.6916 41.8167 29.6916Z" fill="#773A1E"/>
<path d="M38.6243 32.1702C38.6243 32.1702 37.3146 31.4506 37.5601 35.6083C37.4783 35.6083 37.4783 32.1702 38.6243 32.1702Z" fill="#773A1E"/>
<path d="M31.339 22.4156C31.339 22.4156 31.2572 23.2152 31.2572 23.3751C31.2572 23.535 30.9297 24.2546 30.8479 24.5744C30.766 24.8942 30.193 24.7343 29.8656 25.9337C29.8656 25.9337 29.62 26.7332 29.7019 27.133C29.7019 27.133 29.2926 25.6138 30.6023 24.6544C30.6023 24.7343 31.2572 23.2152 31.339 22.4156Z" fill="#824123"/>
<path d="M27.983 26.8931C27.983 26.8931 28.8834 26.4933 28.8834 25.8537C28.9652 25.2141 29.3745 24.8143 29.3745 24.8143C29.3745 24.8143 28.8834 25.5339 28.9652 26.0936C28.9652 26.0936 28.8015 26.7332 27.983 26.8931Z" fill="#824123"/>
<path d="M29.3745 21.4561C29.3745 21.4561 29.2926 21.776 29.9475 22.2557C29.9475 22.2557 30.1931 22.4156 30.1931 22.7354C30.1931 23.0552 30.1112 23.455 30.2749 23.6149C30.2749 23.6149 30.1112 23.3751 30.1931 22.7354C30.2749 22.0958 29.7838 22.4156 29.5382 21.9359C29.5382 21.9359 29.3745 21.616 29.3745 21.4561Z" fill="#824123"/>
<path d="M51.3938 35.6083C51.3938 35.6083 51.8031 34.7288 52.7854 35.6883C53.7676 36.6477 51.6394 37.2074 51.3938 35.6083Z" fill="#773A1E"/>
<path d="M41.4074 34.0892C41.4074 34.0892 41.8985 35.0486 41.2436 35.6883C41.2436 35.6883 40.8344 34.8088 41.0799 34.329L41.4074 34.0892Z" fill="#773A1E"/>
<path d="M54.0132 73.5074C54.0132 73.5074 55.6503 73.3475 56.8782 73.6673C56.8782 73.7472 55.6503 72.9477 54.0132 73.5074Z" fill="#773A1E"/>
<path d="M44.2724 51.4396C44.2724 51.4396 44.9272 51.5195 44.9272 51.2797C44.9272 51.1197 45.5002 51.3596 45.5821 51.5995L45.6639 51.7594C45.6639 51.7594 45.4183 51.8393 45.0909 51.6794C44.8453 51.6794 44.1905 51.6794 44.2724 51.4396Z" fill="#773A1E"/>
<path d="M48.6107 19.5372C48.6107 19.5372 48.0377 18.9775 48.6926 18.5777C48.6926 18.5777 48.2014 19.0575 48.6107 19.5372Z" fill="#421D13"/>
<path d="M52.3761 19.6171C52.3761 19.6171 53.031 19.1374 52.3761 18.4978C52.3761 18.4178 52.8672 18.8975 52.3761 19.6171Z" fill="#421D13"/>
<path d="M50.9845 19.3773C50.9845 19.3773 51.3119 18.9775 51.8849 19.0575C51.8849 19.0575 52.0486 19.2174 51.4756 19.2174C51.4756 19.2973 51.2301 19.2174 50.9845 19.3773Z" fill="#421D13"/>
<path d="M49.8385 19.3773C49.8385 19.3773 49.4292 18.9775 49.02 19.0575C49.02 19.0575 48.7744 19.2174 49.4292 19.2174C49.4292 19.2973 49.5929 19.1374 49.8385 19.3773Z" fill="#421D13"/>
<path d="M52.4579 14.3401C52.4579 14.3401 52.5398 13.7804 52.7035 13.7804C52.8672 13.7804 53.5221 13.7804 53.8495 13.8603C54.1769 13.9403 55.4048 13.8603 55.6503 13.9403C55.8959 14.0202 56.7145 14.8198 56.7145 14.9797C56.7145 15.1396 56.2233 14.7398 56.2233 14.7398C56.2233 14.7398 55.4048 14.5 55.0773 14.42C54.7499 14.3401 53.9314 14.2601 53.6039 14.3401C53.1128 14.3401 52.4579 14.3401 52.4579 14.3401Z" fill="#421D13"/>
<path d="M47.874 13.6205C47.874 13.6205 47.4647 13.7804 46.9736 13.7004C46.4825 13.6205 45.582 13.7004 45.4183 13.7804C45.2546 13.8603 44.2723 14.3401 44.3542 15.0597C44.4361 15.6993 44.2723 16.0191 44.2723 16.0191C44.2723 16.0191 44.6816 14.6599 45.009 14.5C45.3365 14.3401 45.7458 14.2601 45.9095 14.1802C46.0732 14.1002 47.4647 14.2601 47.7103 14.1802C47.9559 14.1002 48.0377 13.8603 48.0377 13.7804C48.0377 13.7004 47.874 13.6205 47.874 13.6205Z" fill="#421D13"/>
<path d="M45.6639 21.3762C45.6639 21.3762 45.9094 21.776 45.8276 22.0158C45.8276 21.9359 45.582 21.616 45.6639 21.3762Z" fill="#421D13"/>
<path d="M55.241 21.5361C55.241 21.5361 55.1592 22.0158 55.0773 22.1757C55.0773 22.1757 55.1592 21.696 55.241 21.5361Z" fill="#421D13"/>
<path d="M55.4047 16.339C55.4866 16.4189 55.4866 16.4189 55.4866 16.4189C55.4866 16.4189 55.4047 16.4189 55.4047 16.339C55.4047 16.179 55.4047 16.0991 55.5685 15.9392C55.5685 15.9392 54.9955 15.7793 54.668 15.6194C54.668 15.6194 54.668 15.6194 54.5862 15.6194C54.5043 15.5394 54.4225 15.5394 54.4225 15.5394C54.3406 15.5394 54.3406 15.5394 54.3406 15.5394C54.2588 15.5394 54.2588 15.5394 54.2588 15.5394H54.1769C52.7853 15.2196 52.0486 16.339 52.0486 16.339C52.2942 16.259 52.4579 16.0991 52.7035 16.0191C52.6216 16.339 52.8672 16.6588 52.8672 16.6588C52.8672 16.6588 53.9313 16.8986 54.2588 16.6588C54.5043 16.4989 54.4225 16.0991 54.3406 15.9392C54.5862 16.0191 54.7499 16.0191 54.9136 16.0991C55.241 16.179 55.3229 16.259 55.4047 16.339Z" fill="#421D13"/>
<path d="M55.4048 16.339C55.4048 16.4189 55.4866 16.4189 55.4866 16.4189L55.4048 16.339Z" fill="#421D13"/>
<path d="M48.7744 16.0991C48.7744 16.0991 47.9559 15.1396 46.6462 15.5394H46.728C46.728 15.5394 46.6462 15.5394 46.6462 15.6194H46.5643C46.4825 15.6993 46.4006 15.6993 46.4006 15.6993C45.9913 15.8592 45.5002 16.0991 45.5002 16.0991C45.6639 16.259 45.6639 16.4189 45.6639 16.4989C45.6639 16.5788 45.582 16.6588 45.582 16.6588C45.582 16.6588 45.582 16.5788 45.6639 16.5788C45.7457 16.4989 45.8276 16.339 46.0732 16.1791C46.155 16.0991 46.3187 16.0191 46.4825 16.0191C46.4825 16.1791 46.4825 16.4189 46.6462 16.5788C46.9736 16.8187 48.0377 16.4989 48.0377 16.4989C48.0377 16.4989 48.2014 16.1791 48.1196 15.8592C48.2833 15.8592 48.447 16.0191 48.7744 16.0991Z" fill="#421D13"/>
<path d="M53.1128 21.8559C53.1947 21.776 53.1947 21.776 53.1947 21.776C52.1305 22.0958 51.5575 21.4561 50.8208 21.4561C50.6571 21.4561 50.4116 21.616 50.0841 21.4561C49.6749 21.2962 49.02 21.616 48.6926 21.8559C48.3651 22.0158 48.1196 22.0158 47.7922 21.9359L47.6284 21.8559L47.7103 21.9359C47.5466 21.8559 47.3829 21.776 47.3829 21.776C47.3829 21.776 47.7103 21.9359 47.9559 22.0958C48.3652 22.3356 49.02 22.7354 49.3474 23.1352C49.7567 23.535 51.312 23.6949 51.885 23.2152C52.2943 22.8154 53.031 22.0958 53.1128 21.8559C53.1947 21.8559 53.1947 21.8559 53.1128 21.8559Z" fill="#582817"/>
<path d="M48.9382 22.3356C48.9382 22.3356 50.4934 22.5755 51.8031 22.4156L48.9382 22.3356Z" fill="#3A180D"/>
<path d="M57.4512 22.0958C57.4512 22.0958 58.679 22.4956 59.5794 20.7365C60.4798 18.9775 60.971 17.5383 59.9069 17.2984C58.8427 17.1385 57.7786 18.3379 57.7786 18.3379L57.4512 22.0958Z" fill="#994E2E"/>
<path d="M43.0445 18.6577C43.0445 18.6577 41.8985 17.7782 41.8167 18.5777C41.7348 19.3773 42.3896 20.1768 42.3896 20.5766C42.4715 20.9764 42.6352 22.3356 43.2082 22.4956C43.7812 22.5755 44.1086 22.0158 44.1086 22.0158L43.0445 18.6577Z" fill="#994E2E"/>
<path d="M59.7432 18.4178C59.7432 18.4178 59.1702 17.7782 59.0065 19.2174C58.8428 20.6566 58.4335 20.0969 58.4335 20.4967C58.5153 20.8964 59.0883 20.8165 59.0065 20.0169C59.0065 19.2174 59.0883 18.098 59.7432 18.4178Z" fill="#421D13"/>
<path d="M42.2259 18.8976C42.2259 18.8976 43.0445 19.2174 42.9626 20.2568C42.8807 21.2962 43.2082 21.3762 43.2082 21.3762C43.2082 21.3762 42.9626 21.776 42.7989 21.2962C42.6352 20.6566 43.4537 19.7771 42.2259 18.8976Z" fill="#421D13"/>
<path d="M46.3187 25.374C46.3187 25.374 48.3651 26.1735 49.3474 26.5733C50.4115 26.9731 52.9491 26.9731 53.4402 26.4933C53.4402 26.4933 51.5575 27.5328 49.1837 26.5733C46.8917 25.8537 46.3187 25.374 46.3187 25.374Z" fill="#824123"/>
<path d="M55.814 25.4539C55.814 25.4539 54.6681 26.9731 51.9668 27.4528C51.9668 27.4528 54.9136 27.2129 55.814 25.4539Z" fill="#824123"/>
<path d="M43.1264 18.6577C43.1264 18.6577 43.4538 17.7782 43.2082 17.5383C43.0445 17.2984 43.4538 16.6588 43.2901 16.4189C43.1264 16.0991 43.4538 14.8198 43.4538 14.42C43.5356 14.0202 43.5356 11.9414 43.7812 11.7015C44.0268 11.3817 43.9449 10.4222 44.2724 10.3423C44.6816 10.2623 45.4183 9.54272 45.8276 9.46276C46.2369 9.38281 46.6462 9.2229 47.1373 8.98303C47.6285 8.66321 48.5289 8.90307 49.1837 8.82312C49.8386 8.74316 51.3938 8.74316 51.8031 8.58325C52.2124 8.42334 53.6858 8.26343 53.8495 8.42334C54.0132 8.58325 54.0132 8.58325 54.4225 8.58325C54.8318 8.58325 55.1592 8.34338 55.4867 8.82312C55.8141 9.30285 56.0597 9.70263 56.6326 9.70263C57.2056 9.70263 57.9423 9.9425 57.9423 10.3423C57.9423 10.7421 57.5331 10.7421 57.8605 11.2218C58.1879 11.7015 58.2698 12.5011 58.2698 12.661C58.1879 12.8209 57.9423 13.2207 58.1879 13.4606C58.4335 13.7004 58.9246 15.4594 58.9246 16.0191C58.8428 16.5788 58.7609 17.6183 58.7609 17.6183L58.6791 18.018C58.6791 18.018 59.252 17.0586 60.0706 17.5383C60.0706 17.5383 59.9069 17.2984 59.9069 16.8987C59.9888 16.5788 59.9888 16.339 59.9888 16.0191C59.9888 15.6194 60.3162 15.6194 60.3162 15.0597C60.398 14.5 60.2343 13.4606 60.2343 13.4606C60.2343 13.4606 60.6436 11.3017 60.1525 10.4222C59.6613 9.54272 59.7432 9.54272 59.4976 8.98303C59.5795 8.34338 59.1702 8.18347 59.1702 8.18347C59.1702 8.18347 59.0065 6.90418 57.5331 6.18458C56.0597 5.46498 56.0597 4.98524 55.2411 4.90528C54.2588 4.74537 52.458 4.10573 51.7213 4.02577C51.0664 3.94582 49.4293 4.66542 48.2833 4.66542C47.0555 4.58546 46.6462 4.98524 45.9095 5.30506C45.1728 5.70484 44.0268 6.82422 43.6994 6.90418C43.3719 6.98414 43.3719 7.30396 42.9626 7.86365C42.5534 8.42334 42.3897 9.06299 42.0622 9.62268C41.7348 10.1824 41.6529 10.6621 41.5711 11.3017C41.4892 11.9414 41.8167 14.1002 41.653 14.1802C41.4892 14.2601 41.2437 14.3401 41.3255 15.4594C41.4074 16.4989 42.1441 17.6982 42.0622 18.2579C42.1441 18.1779 42.3897 18.1779 43.1264 18.6577Z" fill="#421D13"/>
<path d="M62.5263 89.8983C62.117 91.8172 58.4335 95.0954 57.9423 95.0954C57.4512 95.0954 57.533 95.7351 56.387 95.6551C56.387 95.6551 55.8959 96.3747 54.9955 95.7351C54.9955 95.7351 54.0132 95.815 53.9314 95.4152C53.9314 95.4152 53.0309 95.4952 52.7854 95.0155C52.7854 95.0155 51.5575 95.4152 50.9845 94.7756C50.9845 94.7756 50.9845 94.2159 51.0664 93.4963C51.1482 92.8567 50.9845 91.6573 52.3761 91.2575C52.3761 91.2575 54.8318 88.699 54.9955 88.3791C55.1592 88.0593 55.0773 87.3397 55.8141 85.9805C56.4689 84.7012 52.9491 76.3058 52.2942 75.7461C51.6394 75.1864 49.3474 72.4679 49.6748 70.0693C49.6748 70.0693 48.447 65.2719 48.6107 63.353C48.6107 63.353 48.2014 64.7122 47.2191 65.112C47.2191 65.112 47.301 66.1514 46.6462 66.7111C46.0732 67.3508 47.2191 67.1109 47.2191 69.4296C47.301 71.7483 46.6462 74.4668 47.4647 75.1864C48.2833 75.906 48.6107 77.6651 46.8917 78.7844C45.1727 79.8239 39.2791 80.3836 38.788 80.3036C38.2968 80.2236 36.4141 80.2236 36.7415 79.4241C36.7415 79.4241 36.8234 78.9443 37.069 78.8644C37.069 78.8644 36.7415 78.7844 36.9871 78.1448L37.2327 77.5051C37.2327 77.5051 37.1508 76.9455 37.642 76.7056C38.215 76.5457 38.9517 76.3858 39.6065 76.0659C40.2614 75.7461 40.9981 76.4657 41.4892 75.906C42.0622 75.3463 42.3078 75.3463 41.8985 74.4668C41.4892 73.5074 39.8521 68.3902 39.4428 67.2708C39.0335 66.1514 38.0512 65.112 38.3787 63.353C38.7061 61.5939 38.2968 57.916 38.9517 55.7572C39.3609 54.4779 40.3432 53.2785 41.0799 52.1592C41.0799 52.1592 41.0799 52.1592 41.1618 52.0792C41.3255 51.9193 41.8166 51.2796 42.2259 51.8393C42.7989 52.7188 43.1263 53.4384 43.3719 53.8382C43.6175 54.158 43.5356 55.6772 43.863 56.1569C44.1905 56.6367 42.8808 58.3158 44.9272 60.2347C46.9736 62.1536 48.1196 63.1931 48.6926 63.353C49.2656 63.4329 48.6107 61.9138 48.8563 61.1142C49.1018 60.3146 49.9204 57.836 52.2124 56.5567C54.5044 55.3574 57.2875 54.158 58.3516 54.6378C59.3339 55.0376 60.398 56.8765 60.4799 57.1164C60.5617 58.1558 60.6436 59.1953 60.6436 59.1953C60.6436 59.1953 59.825 63.5928 59.7432 64.6323C59.6613 65.5917 59.6613 69.2697 59.5794 70.549C59.4976 71.7483 58.9246 72.4679 59.4976 73.1875C60.0706 73.8272 62.0351 75.7461 61.8714 79.584C61.7077 83.4219 61.2984 84.941 61.7077 85.9005C61.7896 86.9399 62.9355 87.9794 62.5263 89.8983Z" fill="#994E2E"/>
</svg>
