<svg width="24" height="24" viewBox="0 0 24 24" fill="none" xmlns="http://www.w3.org/2000/svg">
<path fill-rule="evenodd" clip-rule="evenodd" d="M20.4 5.6C20.2 5.33501 20 5.06751 19.8 4.80002C19.6 4.53251 19.4 4.26501 19.2 4C18.5285 4.50192 17.7374 5.09584 16.9983 5.65072C16.6477 5.91393 16.3089 6.16835 16 6.4C16.1998 6.66472 16.3996 6.93194 16.5994 7.19916L16.6 7.19998C16.8 7.46749 17 7.73499 17.2 8C17.5089 7.7683 17.8479 7.51485 18.1986 7.25265L18.1987 7.25253C18.9377 6.69999 19.7286 6.10861 20.4 5.6ZM18 13V11H22V13H18ZM18.2823 19.3131C17.5064 18.7319 16.6804 18.1132 16 17.61C16.4 17.08 16.8 16.54 17.2 16C17.5073 16.2305 17.8443 16.4835 18.193 16.7453L18.1987 16.7496C18.9377 17.3044 19.7286 17.8982 20.4 18.4C20.2 18.665 20 18.9325 19.8 19.2C19.6 19.4675 19.4 19.735 19.2 20C18.9116 19.7845 18.6012 19.5519 18.2823 19.3131ZM2 11C2 9.9 2.9 9 4 9H8L13 6V18L8 15H7V19H5V15H4C2.9 15 2 14.1 2 13V11ZM11 9.53L9.03 10.71L8.55 11H8H4V13H8H8.55L9.03 13.29L11 14.47V9.53Z" fill="black"/>
<path d="M15.5 12C15.5 10.67 14.92 9.46999 14 8.64999V15.34C14.92 14.53 15.5 13.33 15.5 12Z" fill="black"/>
</svg>
