<svg width="300" height="300" viewBox="0 0 300 300" fill="none" xmlns="http://www.w3.org/2000/svg">
<path d="M290.431 86.1309C285.942 75.0641 275.832 70.8634 272.492 69.4763C258.303 63.582 244.728 68.7925 243.03 69.4763C224.117 77.0654 221.967 95.6975 208.006 96.8074C203.809 97.1401 196.778 93.583 196.762 93.3906C193.25 89.127 180.355 74.5357 158.325 70.758C127.891 65.5398 105.861 85.3895 103.232 87.8398C103.084 88.5671 96.5941 92.3959 92.9825 92.11C79.022 91.0033 76.8716 72.368 57.9633 64.7789C56.2597 64.0951 42.6851 58.8834 28.5007 64.7789C25.1619 66.166 15.0522 70.3655 10.5622 81.4335C5.20999 94.6212 12.2049 106.802 13.1203 108.337L23.3703 95.9529C23.0267 94.4158 21.4894 86.8451 25.9328 81.8607C31.1838 75.9696 41.0446 77.8873 43.4429 78.445C60.69 82.4575 61.6434 102.308 77.1814 104.068C82.5477 104.676 85.9876 102.71 92.1291 105.35C96.7094 107.318 98.7891 110.122 101.553 111.033C102.176 118.942 104.077 125.217 106.222 130.118C114.933 150.021 131.938 157.23 130.993 174.531C130.572 182.232 127.048 183.622 124.587 192.894C120.189 209.454 125.981 225.531 132.273 237.307H162.171C171.978 218.674 172.401 204.669 170.713 195.029C168.538 182.594 163.219 179.566 164.306 169.833C165.937 155.207 179.118 151.556 188.649 135.67C191.462 130.983 194.362 124.546 195.933 115.815C196.389 115.934 196.857 116.005 197.328 116.025C201.359 116.19 203.199 112.478 208.859 110.046C215.002 107.407 218.44 109.372 223.806 108.765C239.344 107.006 240.298 87.1549 257.545 83.1424C259.937 82.5858 269.804 80.667 275.055 86.5581C279.499 91.5425 277.961 99.1132 277.617 100.65L287.867 113.035C288.784 111.501 295.779 99.3186 290.431 86.1309Z" fill="#5A1A1F"/>
<path d="M172.432 126.066C154.25 145.098 154.188 177.609 154.203 179.253C154.296 188.851 156.144 199.236 150.647 202.289C148.553 203.451 145.646 203.41 143.534 202.289C137.699 199.193 139.294 188.591 139.088 177.546C138.969 171.099 138.507 146.216 125.752 128.626C115.442 114.407 102.644 112.83 103.968 106.871C106.142 97.0756 137.361 96.3125 141.756 96.2048C163.955 95.6613 193.004 101.01 193.772 109.856C194.221 115.025 183.331 114.658 172.432 126.066Z" fill="#CB5646"/>
<path d="M45.0464 119.313C48.1326 113.968 43.5923 105.57 34.9054 100.554C26.2184 95.5393 16.6743 95.8069 13.5881 101.152C10.5019 106.497 15.0422 114.896 23.7291 119.911C32.4161 124.926 41.9602 124.659 45.0464 119.313Z" fill="#CB5646" stroke="#5A1A1F" stroke-width="5" stroke-miterlimit="10"/>
<path d="M277.264 124.609C285.951 119.594 290.491 111.195 287.405 105.85C284.319 100.505 274.775 100.237 266.088 105.252C257.401 110.267 252.86 118.666 255.947 124.011C259.033 129.356 268.577 129.624 277.264 124.609Z" fill="#CB5646" stroke="#5A1A1F" stroke-width="5" stroke-miterlimit="10"/>
<path d="M203.727 164.029L207.206 160.27C209.186 158.127 212.172 157.64 213.838 159.189L261.219 203.095C262.89 204.643 262.638 207.66 260.658 209.805L257.185 213.566C255.206 215.707 252.22 216.194 250.553 214.646L203.17 170.74C201.495 169.192 201.748 166.172 203.727 164.029Z" fill="#EAC15E"/>
<path d="M175.481 183.666C202.302 182.79 223.335 160.305 222.458 133.445C221.58 106.584 199.126 85.5191 172.305 86.3947C145.483 87.2704 124.451 109.755 125.328 136.616C126.205 163.476 148.659 184.541 175.481 183.666Z" fill="#EAC15E"/>
<path d="M175.019 169.857C194.205 169.23 209.25 153.146 208.622 133.932C207.995 114.717 191.933 99.6486 172.747 100.275C153.56 100.901 138.515 116.986 139.143 136.2C139.77 155.414 155.832 170.483 175.019 169.857Z" fill="white"/>
<path d="M198.317 127.485L191.589 129.081C191.539 128.914 191.487 128.749 191.432 128.584C191.317 128.233 191.193 127.89 191.06 127.553L197.101 123.101C197.287 122.992 197.449 122.847 197.579 122.675C197.709 122.503 197.804 122.308 197.858 122.099C197.912 121.891 197.925 121.674 197.895 121.46C197.865 121.247 197.793 121.042 197.684 120.856C197.574 120.67 197.43 120.508 197.257 120.378C197.085 120.249 196.889 120.154 196.68 120.1C196.471 120.046 196.254 120.033 196.04 120.063C195.827 120.093 195.621 120.165 195.435 120.274L188.842 123.457C188.323 122.729 187.753 122.039 187.136 121.391L192.203 116.395C192.543 116.124 192.762 115.728 192.81 115.296C192.858 114.863 192.732 114.43 192.46 114.09C192.188 113.75 191.792 113.532 191.358 113.484C190.925 113.436 190.491 113.562 190.151 113.833L183.431 118.358C183.116 118.162 182.796 117.974 182.47 117.794L184.586 110.245C184.665 110.045 184.705 109.831 184.701 109.615C184.698 109.4 184.652 109.187 184.567 108.99C184.481 108.792 184.357 108.613 184.202 108.463C184.048 108.313 183.865 108.195 183.664 108.115C183.463 108.036 183.249 107.997 183.033 108C182.818 108.003 182.605 108.049 182.407 108.135C182.208 108.22 182.029 108.344 181.879 108.498C181.729 108.653 181.61 108.836 181.531 109.036L178.07 116.036C177.056 115.771 176.021 115.589 174.977 115.492L175.12 110.111C175.171 109.683 175.051 109.253 174.787 108.912C174.522 108.572 174.133 108.349 173.705 108.292C173.277 108.236 172.844 108.35 172.499 108.61C172.155 108.869 171.927 109.254 171.864 109.681L170.578 115.595C169.864 115.695 169.157 115.835 168.458 116.013L164.346 109.049C164.257 108.853 164.129 108.677 163.971 108.53C163.813 108.383 163.628 108.269 163.426 108.193C163.224 108.118 163.009 108.083 162.793 108.091C162.578 108.099 162.366 108.149 162.169 108.238C161.973 108.328 161.796 108.455 161.649 108.613C161.502 108.77 161.388 108.955 161.312 109.157C161.237 109.359 161.202 109.573 161.21 109.789C161.218 110.004 161.268 110.216 161.357 110.412C162.243 112.858 163.13 115.306 164.017 117.755C163.348 118.118 162.701 118.522 162.081 118.963C160.547 117.231 159.012 115.5 157.478 113.77C157.353 113.595 157.194 113.446 157.012 113.332C156.829 113.218 156.625 113.14 156.412 113.105C156.199 113.069 155.982 113.076 155.772 113.124C155.561 113.173 155.363 113.262 155.187 113.387C155.011 113.512 154.862 113.67 154.748 113.853C154.633 114.035 154.556 114.239 154.521 114.451C154.485 114.664 154.491 114.881 154.54 115.091C154.588 115.301 154.678 115.499 154.803 115.674C156.083 117.814 157.363 119.955 158.642 122.096C158.15 122.67 157.692 123.273 157.271 123.901L152.387 120.913C152.04 120.654 151.605 120.543 151.177 120.603C150.748 120.663 150.361 120.889 150.098 121.233C149.836 121.576 149.72 122.009 149.775 122.437C149.831 122.866 150.053 123.255 150.395 123.52L155.247 127.88C154.873 128.889 154.585 129.928 154.384 130.986L149.858 130.083C149.652 130.019 149.436 129.996 149.221 130.015C149.006 130.035 148.797 130.096 148.606 130.196C148.415 130.296 148.245 130.433 148.107 130.598C147.969 130.764 147.865 130.955 147.801 131.161C147.736 131.366 147.713 131.582 147.733 131.797C147.752 132.011 147.814 132.22 147.914 132.411C148.014 132.602 148.151 132.771 148.317 132.909C148.483 133.047 148.674 133.151 148.88 133.215L154.058 135.298C154.078 135.809 154.119 136.322 154.182 136.835L148.355 138.505C147.926 138.581 147.545 138.824 147.296 139.181C147.046 139.537 146.949 139.978 147.025 140.407C147.102 140.835 147.345 141.215 147.703 141.464C148.06 141.713 148.501 141.81 148.93 141.734L155.224 141.144C155.439 141.726 155.676 142.293 155.944 142.843L149.998 147.464C149.815 147.578 149.656 147.726 149.53 147.902C149.405 148.077 149.315 148.275 149.266 148.485C149.217 148.695 149.21 148.912 149.246 149.124C149.281 149.337 149.358 149.54 149.472 149.723C149.586 149.906 149.735 150.065 149.911 150.19C150.086 150.315 150.285 150.405 150.495 150.454C150.705 150.502 150.923 150.509 151.135 150.474C151.348 150.439 151.552 150.362 151.735 150.248L158.469 146.783C158.741 147.111 159.023 147.427 159.315 147.732C158.512 149.137 157.709 150.541 156.906 151.945C156.78 152.12 156.69 152.318 156.641 152.528C156.591 152.738 156.584 152.955 156.619 153.168C156.654 153.38 156.73 153.584 156.844 153.767C156.957 153.95 157.106 154.109 157.281 154.234C157.456 154.36 157.655 154.45 157.865 154.499C158.075 154.548 158.292 154.556 158.505 154.521C158.718 154.486 158.922 154.41 159.105 154.296C159.289 154.183 159.448 154.034 159.574 153.86L162.501 150.422C163.437 151.053 164.428 151.601 165.461 152.057C165.286 153.918 165.113 155.779 164.94 157.638C164.855 158.064 164.942 158.507 165.184 158.869C165.425 159.231 165.801 159.483 166.228 159.568C166.655 159.654 167.099 159.566 167.462 159.325C167.824 159.084 168.076 158.709 168.162 158.282C168.632 156.639 169.103 154.995 169.574 153.351C170.447 153.522 171.331 153.631 172.219 153.679L174.808 159.833C174.934 160.25 175.22 160.599 175.604 160.805C175.988 161.011 176.438 161.056 176.855 160.93C177.272 160.805 177.622 160.519 177.828 160.136C178.034 159.753 178.08 159.303 177.954 158.887C177.56 157.051 177.165 155.213 176.77 153.374C177.225 153.288 177.679 153.185 178.132 153.065L182.16 157.725C182.412 158.07 182.79 158.303 183.213 158.374C183.635 158.445 184.068 158.348 184.42 158.105C184.772 157.861 185.015 157.49 185.097 157.071C185.179 156.651 185.094 156.216 184.859 155.858C184.002 154.387 183.146 152.915 182.29 151.441C183.03 151.046 183.743 150.604 184.425 150.116L187.543 152.829C187.69 152.986 187.867 153.113 188.063 153.203C188.259 153.292 188.471 153.342 188.687 153.35C188.903 153.358 189.118 153.323 189.32 153.248C189.522 153.172 189.707 153.058 189.865 152.911C190.023 152.764 190.151 152.588 190.24 152.392C190.33 152.196 190.38 151.984 190.388 151.769C190.395 151.554 190.36 151.339 190.285 151.137C190.209 150.935 190.095 150.75 189.948 150.593L187.442 147.434C187.977 146.843 188.474 146.22 188.93 145.567L195.114 148.943C195.473 149.19 195.915 149.286 196.344 149.207C196.773 149.129 197.153 148.884 197.401 148.526C197.649 148.168 197.744 147.727 197.666 147.299C197.588 146.87 197.343 146.491 196.984 146.243L191.101 141.459C191.272 141.015 191.427 140.566 191.566 140.11L198.968 141.055C199.178 141.106 199.397 141.116 199.611 141.082C199.825 141.049 200.031 140.973 200.216 140.86C200.401 140.747 200.561 140.599 200.688 140.423C200.815 140.248 200.906 140.049 200.956 139.838C201.006 139.628 201.013 139.409 200.978 139.196C200.943 138.982 200.866 138.777 200.751 138.594C200.636 138.41 200.486 138.251 200.309 138.126C200.132 138 199.933 137.911 199.721 137.863L192.371 135.484C192.402 134.892 192.402 134.296 192.371 133.697L199.33 130.606C199.744 130.471 200.088 130.178 200.286 129.79C200.484 129.402 200.52 128.952 200.385 128.538C200.25 128.125 199.957 127.781 199.568 127.584C199.18 127.386 198.729 127.351 198.315 127.485H198.317Z" fill="#CB5646"/>
<path d="M176.347 162C175.791 162 175.249 161.823 174.799 161.497C174.349 161.17 174.014 160.71 173.841 160.181L171.51 154.636C171.092 154.6 170.672 154.551 170.256 154.492L169.106 158.532C169.039 158.871 168.906 159.194 168.714 159.482C168.522 159.77 168.275 160.017 167.988 160.209C167.7 160.402 167.378 160.536 167.038 160.604C166.699 160.672 166.349 160.672 166.01 160.605C165.67 160.538 165.347 160.405 165.059 160.213C164.771 160.022 164.524 159.775 164.331 159.488C164.138 159.2 164.004 158.878 163.936 158.539C163.868 158.2 163.868 157.85 163.935 157.511L164.386 152.675C163.801 152.388 163.231 152.076 162.676 151.739L160.339 154.488C159.929 155.046 159.316 155.421 158.631 155.531C157.947 155.64 157.247 155.476 156.683 155.073C156.119 154.67 155.737 154.062 155.62 153.379C155.502 152.697 155.659 151.995 156.055 151.427L157.898 148.202L152.215 151.127C151.623 151.485 150.915 151.596 150.242 151.436C149.569 151.276 148.987 150.858 148.62 150.272C148.253 149.686 148.131 148.98 148.281 148.305C148.431 147.631 148.84 147.042 149.421 146.667L154.705 142.556C154.657 142.444 154.61 142.33 154.561 142.217L149.057 142.735C148.375 142.846 147.677 142.685 147.112 142.286C146.548 141.887 146.163 141.282 146.041 140.602C145.919 139.923 146.07 139.222 146.46 138.652C146.851 138.082 147.45 137.688 148.128 137.555L153.107 136.12L153.099 135.994L148.542 134.159C147.9 133.933 147.371 133.467 147.065 132.86C146.76 132.253 146.701 131.551 146.902 130.901C147.102 130.251 147.547 129.705 148.142 129.375C148.738 129.046 149.437 128.96 150.095 129.135L153.614 129.838C153.749 129.282 153.908 128.733 154.09 128.19L149.761 124.3C149.228 123.87 148.882 123.249 148.799 122.569C148.716 121.889 148.901 121.204 149.315 120.658C149.729 120.112 150.34 119.749 151.018 119.646C151.696 119.543 152.387 119.708 152.945 120.106L157.01 122.581C157.153 122.39 157.297 122.201 157.441 122.014L153.984 116.225C153.584 115.657 153.424 114.955 153.541 114.27C153.657 113.586 154.039 112.975 154.603 112.571C155.168 112.167 155.869 112.002 156.555 112.112C157.241 112.222 157.855 112.599 158.265 113.16L162.247 117.663C162.429 117.545 162.612 117.432 162.798 117.32L160.448 110.797C160.169 110.165 160.15 109.448 160.395 108.802C160.64 108.156 161.13 107.632 161.758 107.344C162.387 107.055 163.103 107.026 163.754 107.261C164.404 107.496 164.935 107.977 165.233 108.6L168.947 114.894C169.216 114.835 169.486 114.782 169.754 114.735L170.886 109.521C170.931 109.178 171.043 108.848 171.216 108.548C171.389 108.249 171.619 107.986 171.893 107.776C172.167 107.565 172.48 107.411 172.814 107.321C173.148 107.231 173.496 107.208 173.839 107.253C174.182 107.298 174.513 107.41 174.812 107.583C175.112 107.755 175.375 107.985 175.585 108.259C175.796 108.533 175.951 108.846 176.04 109.18C176.13 109.513 176.153 109.861 176.108 110.204L175.983 114.628C176.498 114.7 177.011 114.792 177.516 114.903L180.608 108.646C180.868 108.003 181.372 107.488 182.01 107.214C182.648 106.94 183.368 106.929 184.014 107.183C184.66 107.437 185.18 107.936 185.46 108.571C185.739 109.207 185.757 109.926 185.508 110.574L183.721 116.973L189.538 113.048C190.082 112.61 190.778 112.406 191.473 112.481C192.167 112.556 192.804 112.904 193.242 113.448C193.68 113.991 193.884 114.687 193.809 115.381C193.734 116.075 193.386 116.711 192.842 117.149L188.489 121.444C188.708 121.698 188.921 121.957 189.127 122.222L194.941 119.412C195.541 119.07 196.252 118.978 196.919 119.155C197.587 119.332 198.159 119.764 198.51 120.358C198.862 120.953 198.966 121.661 198.8 122.332C198.633 123.002 198.21 123.58 197.621 123.941L192.233 127.919L198.021 126.545C198.684 126.328 199.407 126.383 200.03 126.698C200.653 127.014 201.125 127.563 201.343 128.227C201.56 128.89 201.505 129.612 201.189 130.235C200.874 130.857 200.323 131.329 199.66 131.546L193.357 134.348C193.357 134.493 193.357 134.637 193.357 134.779L199.966 136.914C200.646 137.073 201.235 137.495 201.603 138.088C201.972 138.68 202.09 139.395 201.931 140.075C201.772 140.754 201.35 141.343 200.756 141.711C200.163 142.08 199.448 142.197 198.768 142.039L192.34 141.222L197.525 145.461C198.088 145.861 198.472 146.467 198.592 147.147C198.713 147.827 198.561 148.527 198.17 149.096C197.778 149.665 197.179 150.058 196.5 150.189C195.821 150.321 195.118 150.18 194.543 149.798L189.163 146.861C189.006 147.065 188.845 147.266 188.68 147.464L190.651 149.957C191.094 150.472 191.32 151.138 191.283 151.816C191.245 152.494 190.947 153.131 190.451 153.595C189.954 154.058 189.297 154.312 188.618 154.303C187.939 154.294 187.289 154.023 186.805 153.546L184.305 151.37C184.076 151.521 183.843 151.667 183.607 151.809L185.652 155.329C186.052 155.901 186.208 156.609 186.086 157.296C185.964 157.983 185.573 158.594 185.001 158.994C184.717 159.192 184.397 159.332 184.06 159.407C183.722 159.481 183.373 159.488 183.032 159.428C182.344 159.306 181.733 158.916 181.333 158.344L177.982 154.459L178.881 158.649C178.991 159.041 179.01 159.452 178.934 159.852C178.859 160.252 178.692 160.628 178.447 160.953C178.201 161.277 177.884 161.54 177.519 161.721C177.155 161.902 176.754 161.997 176.347 161.997V162ZM168.848 152.214L169.741 152.388C170.568 152.549 171.406 152.652 172.247 152.698L172.869 152.731L175.726 159.555C175.748 159.64 175.787 159.719 175.84 159.788C175.893 159.857 175.96 159.914 176.036 159.957C176.112 160 176.196 160.027 176.282 160.036C176.369 160.046 176.457 160.038 176.54 160.013C176.624 159.988 176.701 159.946 176.768 159.89C176.835 159.834 176.89 159.765 176.93 159.688C176.97 159.61 176.993 159.526 177 159.439C177.006 159.352 176.994 159.264 176.966 159.182L176.946 159.103L175.551 152.597L176.557 152.409C176.988 152.329 177.419 152.231 177.849 152.122L178.45 151.963L182.939 157.174C182.987 157.245 183.049 157.307 183.12 157.355C183.192 157.402 183.273 157.435 183.357 157.451C183.442 157.467 183.529 157.467 183.613 157.449C183.698 157.431 183.777 157.396 183.848 157.347C183.919 157.298 183.979 157.236 184.026 157.163C184.072 157.09 184.103 157.009 184.118 156.924C184.132 156.839 184.13 156.752 184.11 156.669C184.09 156.585 184.054 156.506 184.004 156.436L183.961 156.367L180.879 151.055L181.787 150.572C182.487 150.198 183.162 149.779 183.807 149.317L184.445 148.859L188.227 152.161C188.285 152.223 188.355 152.273 188.433 152.308C188.51 152.344 188.594 152.363 188.679 152.366C188.764 152.369 188.848 152.356 188.928 152.326C189.008 152.296 189.081 152.251 189.143 152.193C189.205 152.135 189.256 152.065 189.291 151.988C189.326 151.911 189.346 151.827 189.349 151.742C189.352 151.657 189.338 151.572 189.308 151.493C189.279 151.413 189.234 151.34 189.176 151.278L189.124 151.218L186.107 147.392L186.672 146.77C187.177 146.212 187.648 145.624 188.081 145.007L188.591 144.282L195.639 148.135C195.78 148.233 195.954 148.271 196.123 148.24C196.292 148.209 196.442 148.113 196.539 147.972C196.587 147.901 196.621 147.822 196.638 147.738C196.655 147.654 196.655 147.568 196.639 147.484C196.622 147.401 196.59 147.321 196.542 147.25C196.495 147.179 196.434 147.118 196.363 147.07L196.298 147.021L189.889 141.782L190.148 141.111C190.31 140.696 190.458 140.266 190.589 139.834L190.833 139.031L199.166 140.102C199.333 140.141 199.509 140.112 199.655 140.022C199.728 139.977 199.791 139.919 199.84 139.85C199.889 139.781 199.924 139.703 199.943 139.62C199.962 139.537 199.965 139.451 199.952 139.367C199.938 139.283 199.908 139.203 199.864 139.13C199.819 139.058 199.76 138.995 199.691 138.945C199.622 138.896 199.544 138.86 199.461 138.84L199.384 138.819L191.319 136.212L191.355 135.454C191.382 134.888 191.384 134.32 191.355 133.761L191.323 133.085L198.99 129.68C199.154 129.627 199.289 129.511 199.367 129.358C199.445 129.205 199.459 129.027 199.406 128.864C199.353 128.701 199.237 128.565 199.084 128.487C198.931 128.409 198.753 128.395 198.589 128.448L198.512 128.47L190.876 130.274L190.608 129.379C190.56 129.221 190.512 129.063 190.464 128.905C190.361 128.59 190.241 128.262 190.111 127.927L189.833 127.22L196.565 122.257C196.639 122.214 196.703 122.156 196.754 122.089C196.805 122.021 196.843 121.943 196.864 121.861C196.885 121.778 196.89 121.693 196.879 121.608C196.867 121.524 196.838 121.443 196.795 121.37C196.752 121.296 196.695 121.232 196.627 121.181C196.559 121.13 196.481 121.092 196.399 121.071C196.316 121.05 196.231 121.045 196.146 121.057C196.062 121.069 195.981 121.097 195.907 121.14L195.837 121.177L188.497 124.726L188.01 124.043C187.517 123.355 186.976 122.703 186.391 122.092L185.722 121.387L191.552 115.645C191.618 115.592 191.674 115.526 191.715 115.452C191.756 115.377 191.782 115.295 191.791 115.211C191.801 115.126 191.794 115.041 191.77 114.959C191.746 114.877 191.707 114.801 191.654 114.735C191.547 114.601 191.392 114.515 191.223 114.495C191.138 114.486 191.052 114.494 190.971 114.519C190.889 114.544 190.813 114.584 190.747 114.638L190.682 114.687L183.435 119.568L182.888 119.224C182.6 119.043 182.291 118.862 181.975 118.688L181.287 118.309L183.646 109.907C183.709 109.747 183.707 109.569 183.638 109.411C183.57 109.254 183.442 109.13 183.282 109.066C183.122 109.003 182.944 109.006 182.786 109.074C182.628 109.142 182.504 109.271 182.441 109.43L182.408 109.503L178.591 117.228L177.808 117.023C176.847 116.771 175.868 116.598 174.879 116.506L173.952 116.42L174.137 110.009C174.154 109.882 174.133 109.753 174.077 109.638C174.02 109.523 173.931 109.427 173.82 109.363C173.709 109.299 173.582 109.269 173.454 109.277C173.326 109.285 173.203 109.331 173.102 109.409C173.034 109.46 172.976 109.525 172.934 109.599C172.891 109.673 172.864 109.755 172.853 109.839L172.839 109.918L171.402 116.506L170.715 116.602C170.038 116.697 169.367 116.829 168.704 117L167.986 117.185L163.451 109.488C163.397 109.371 163.311 109.273 163.202 109.206C163.093 109.138 162.966 109.105 162.838 109.109C162.71 109.114 162.586 109.157 162.482 109.232C162.378 109.307 162.299 109.411 162.254 109.531C162.224 109.61 162.21 109.695 162.213 109.779C162.216 109.864 162.236 109.947 162.271 110.025L162.301 110.101L165.249 118.243L164.499 118.651C163.866 118.997 163.254 119.38 162.666 119.799L161.939 120.316L156.691 114.376C156.643 114.305 156.58 114.244 156.508 114.198C156.436 114.151 156.355 114.12 156.27 114.105C156.185 114.09 156.098 114.092 156.014 114.111C155.93 114.13 155.851 114.165 155.781 114.215C155.711 114.265 155.651 114.329 155.606 114.402C155.561 114.475 155.531 114.556 155.517 114.641C155.504 114.726 155.508 114.813 155.528 114.897C155.549 114.98 155.586 115.059 155.637 115.128L155.68 115.195L159.881 122.23L159.417 122.771C158.953 123.316 158.521 123.888 158.124 124.483L157.595 125.273L151.798 121.739C151.731 121.687 151.654 121.649 151.571 121.628C151.489 121.606 151.403 121.601 151.319 121.612C151.234 121.623 151.153 121.651 151.079 121.694C151.006 121.737 150.941 121.794 150.89 121.861C150.838 121.929 150.801 122.006 150.779 122.088C150.757 122.171 150.752 122.256 150.763 122.341C150.774 122.425 150.802 122.506 150.845 122.58C150.888 122.653 150.945 122.718 151.013 122.769L151.074 122.821L156.424 127.63L156.187 128.263C155.83 129.22 155.555 130.205 155.364 131.207L155.176 132.191L149.573 131.065C149.492 131.04 149.406 131.032 149.321 131.04C149.236 131.048 149.153 131.073 149.078 131.113C149.003 131.153 148.936 131.207 148.882 131.273C148.827 131.339 148.786 131.414 148.762 131.496C148.736 131.578 148.727 131.663 148.735 131.748C148.743 131.833 148.768 131.916 148.808 131.991C148.848 132.067 148.902 132.134 148.968 132.188C149.035 132.242 149.111 132.283 149.193 132.307L149.269 132.334L155.038 134.657L155.062 135.299C155.081 135.777 155.121 136.266 155.18 136.754L155.282 137.594L148.548 139.519C148.464 139.534 148.384 139.565 148.312 139.611C148.24 139.657 148.178 139.716 148.129 139.786C148.08 139.856 148.046 139.934 148.027 140.017C148.009 140.1 148.007 140.186 148.022 140.27C148.037 140.354 148.068 140.434 148.113 140.506C148.159 140.577 148.219 140.64 148.288 140.688C148.358 140.737 148.437 140.772 148.52 140.79C148.603 140.808 148.689 140.81 148.773 140.796L148.853 140.784L155.901 140.121L156.164 140.839C156.367 141.391 156.595 141.932 156.842 142.451L157.187 143.168L150.533 148.336C150.461 148.381 150.398 148.44 150.348 148.509C150.299 148.579 150.263 148.657 150.244 148.74C150.225 148.822 150.222 148.908 150.236 148.992C150.25 149.076 150.28 149.156 150.325 149.229C150.37 149.301 150.429 149.363 150.498 149.413C150.567 149.462 150.646 149.498 150.729 149.517C150.812 149.536 150.897 149.539 150.981 149.525C151.065 149.511 151.146 149.481 151.218 149.436L151.288 149.397L158.724 145.567L159.234 146.182C159.481 146.479 159.75 146.782 160.034 147.08L160.543 147.614L157.716 152.554C157.665 152.623 157.629 152.701 157.609 152.784C157.589 152.867 157.585 152.954 157.599 153.038C157.612 153.122 157.642 153.203 157.687 153.276C157.732 153.349 157.791 153.412 157.86 153.462C157.929 153.512 158.008 153.548 158.091 153.567C158.175 153.586 158.261 153.589 158.345 153.575C158.43 153.561 158.51 153.53 158.583 153.485C158.655 153.44 158.718 153.38 158.767 153.311L158.818 153.247L162.314 149.133L163.051 149.63C163.939 150.228 164.877 150.747 165.855 151.182L166.508 151.469L165.906 157.86C165.889 157.943 165.889 158.029 165.905 158.113C165.922 158.196 165.955 158.276 166.002 158.346C166.049 158.417 166.11 158.478 166.181 158.525C166.251 158.573 166.331 158.606 166.414 158.622C166.498 158.639 166.584 158.64 166.667 158.623C166.751 158.607 166.831 158.574 166.901 158.526C166.972 158.479 167.033 158.418 167.08 158.347C167.128 158.277 167.16 158.197 167.177 158.114L167.196 158.035L168.848 152.214Z" fill="#5A1A1F"/>
<path d="M164.504 134C163.624 134.001 162.775 133.67 162.128 133.074C161.481 132.477 161.082 131.659 161.011 130.781C160.941 129.904 161.203 129.032 161.746 128.339C162.29 127.647 163.074 127.185 163.943 127.045C164.812 126.905 165.702 127.097 166.436 127.584C167.169 128.071 167.692 128.816 167.901 129.671C168.109 130.527 167.987 131.429 167.56 132.199C167.133 132.968 166.431 133.549 165.595 133.824C165.243 133.941 164.875 134 164.504 134V134ZM164.504 128.96C164.177 128.96 163.859 129.064 163.595 129.257C163.331 129.449 163.134 129.72 163.033 130.031C162.933 130.342 162.933 130.677 163.035 130.987C163.136 131.298 163.334 131.569 163.598 131.76C163.863 131.952 164.182 132.055 164.509 132.054C164.835 132.053 165.153 131.949 165.417 131.756C165.681 131.564 165.877 131.292 165.978 130.981C166.078 130.67 166.077 130.335 165.975 130.025C165.872 129.716 165.675 129.447 165.411 129.256C165.148 129.065 164.831 128.962 164.505 128.96H164.504Z" fill="#5A1A1F"/>
<path d="M186.504 135C185.624 135.001 184.775 134.623 184.128 133.941C183.48 133.259 183.082 132.323 183.011 131.32C182.941 130.318 183.204 129.321 183.747 128.53C184.291 127.738 185.076 127.21 185.945 127.051C186.814 126.891 187.704 127.112 188.437 127.669C189.171 128.226 189.693 129.078 189.901 130.056C190.109 131.033 189.987 132.065 189.559 132.944C189.131 133.824 188.429 134.486 187.592 134.8C187.241 134.932 186.874 134.999 186.504 135V135ZM186.504 129.228C186.177 129.228 185.858 129.347 185.593 129.568C185.328 129.788 185.132 130.099 185.031 130.455C184.93 130.811 184.931 131.195 185.032 131.55C185.134 131.906 185.332 132.216 185.597 132.435C185.862 132.655 186.181 132.773 186.509 132.772C186.836 132.771 187.155 132.652 187.42 132.432C187.684 132.211 187.881 131.901 187.982 131.544C188.082 131.188 188.082 130.805 187.98 130.449C187.877 130.094 187.678 129.784 187.413 129.565C187.147 129.346 186.827 129.228 186.5 129.228H186.504Z" fill="#5A1A1F"/>
<path d="M175.005 140C174.083 140.001 173.179 139.722 172.393 139.193C171.606 138.664 170.968 137.907 170.548 137.004C170.129 136.101 169.944 135.089 170.015 134.078C170.086 133.067 170.409 132.097 170.949 131.276C171.49 130.454 172.226 129.813 173.077 129.423C173.927 129.033 174.86 128.909 175.77 129.066C176.681 129.222 177.535 129.652 178.237 130.308C178.94 130.965 179.463 131.822 179.751 132.785V132.785C179.997 133.611 180.062 134.489 179.94 135.347C179.819 136.206 179.514 137.02 179.051 137.724C178.588 138.428 177.98 139.001 177.276 139.397C176.573 139.792 175.795 139.999 175.005 140ZM174.998 130.993C174.324 130.993 173.668 131.229 173.123 131.665C172.578 132.101 172.173 132.716 171.966 133.422C171.758 134.127 171.759 134.886 171.969 135.591C172.178 136.296 172.585 136.909 173.131 137.344C173.677 137.779 174.334 138.012 175.008 138.01C175.682 138.008 176.338 137.772 176.882 137.335C177.426 136.897 177.831 136.282 178.037 135.576C178.243 134.87 178.241 134.111 178.031 133.406V133.406C177.821 132.704 177.414 132.093 176.87 131.66C176.325 131.226 175.67 130.993 174.998 130.993V130.993Z" fill="#5A1A1F"/>
<path d="M173.508 128C172.677 128.001 171.856 127.814 171.108 127.452C170.359 127.09 169.702 126.564 169.186 125.912C168.671 125.26 168.309 124.499 168.13 123.688C167.95 122.876 167.957 122.034 168.15 121.226C168.342 120.417 168.716 119.663 169.242 119.019C169.768 118.376 170.433 117.86 171.188 117.51C171.942 117.16 172.766 116.986 173.597 117.001C174.429 117.015 175.246 117.218 175.987 117.594C176.632 117.918 177.206 118.367 177.676 118.915C178.147 119.463 178.503 120.099 178.726 120.785C178.997 121.611 179.068 122.489 178.934 123.347C178.8 124.206 178.465 125.02 177.956 125.724C177.446 126.428 176.777 127.001 176.003 127.397C175.23 127.792 174.373 127.999 173.504 128H173.508ZM173.508 118.991C173 118.991 172.498 119.1 172.036 119.312C171.575 119.524 171.165 119.834 170.835 120.22C170.505 120.607 170.262 121.06 170.125 121.549C169.987 122.038 169.957 122.551 170.037 123.052C170.117 123.554 170.305 124.032 170.588 124.454C170.871 124.876 171.242 125.232 171.676 125.496C172.11 125.76 172.596 125.927 173.101 125.986C173.605 126.044 174.117 125.992 174.599 125.833C175.037 125.689 175.442 125.461 175.792 125.161C176.141 124.861 176.428 124.494 176.636 124.083C176.844 123.672 176.969 123.224 177.003 122.765C177.038 122.306 176.982 121.844 176.838 121.406C176.607 120.705 176.161 120.094 175.564 119.661C174.966 119.227 174.247 118.993 173.508 118.991V118.991Z" fill="#5A1A1F"/>
<path d="M168.502 150C167.37 150 166.279 149.574 165.448 148.806C164.616 148.039 164.104 146.986 164.014 145.857C163.924 144.729 164.263 143.608 164.963 142.719C165.662 141.829 166.671 141.235 167.789 141.057C168.907 140.878 170.051 141.127 170.993 141.754C171.935 142.381 172.607 143.34 172.873 144.44C173.14 145.54 172.982 146.7 172.432 147.689C171.881 148.678 170.978 149.423 169.902 149.776C169.45 149.924 168.977 150 168.502 150V150ZM168.502 142.983C167.97 142.982 167.452 143.15 167.021 143.463C166.591 143.775 166.271 144.215 166.107 144.721C165.942 145.227 165.942 145.772 166.107 146.277C166.271 146.783 166.592 147.223 167.022 147.535C167.453 147.847 167.971 148.015 168.503 148.014C169.035 148.014 169.552 147.844 169.982 147.531C170.411 147.218 170.731 146.776 170.894 146.27C171.057 145.764 171.055 145.219 170.89 144.714V144.714C170.725 144.21 170.405 143.771 169.976 143.46C169.547 143.148 169.03 142.98 168.5 142.978L168.502 142.983Z" fill="#5A1A1F"/>
<path d="M181.506 150C180.374 150.001 179.283 149.576 178.451 148.809C177.618 148.043 177.106 146.99 177.015 145.862C176.924 144.734 177.261 143.613 177.959 142.723C178.658 141.832 179.666 141.238 180.784 141.057C181.901 140.877 183.045 141.125 183.988 141.751C184.931 142.376 185.604 143.335 185.872 144.434C186.14 145.534 185.984 146.694 185.435 147.684C184.886 148.673 183.984 149.419 182.909 149.774C182.456 149.924 181.982 150 181.506 150V150ZM181.513 143.004C180.897 143.003 180.303 143.228 179.842 143.636C179.381 144.044 179.087 144.607 179.014 145.218C178.941 145.829 179.095 146.446 179.446 146.951C179.798 147.456 180.323 147.814 180.921 147.958C181.52 148.101 182.15 148.02 182.693 147.73C183.235 147.439 183.652 146.959 183.864 146.381C184.077 145.804 184.069 145.168 183.844 144.596C183.618 144.023 183.19 143.553 182.641 143.275C182.292 143.097 181.905 143.004 181.513 143.004V143.004Z" fill="#5A1A1F"/>
</svg>
