<svg width="300" height="300" viewBox="0 0 300 300" fill="none" xmlns="http://www.w3.org/2000/svg">
<g clip-path="url(#clip0_569_4229)">
<path d="M42.6148 153.828L20.1297 148.266C18.2414 160.605 18.1608 184.537 16.9041 189.723C15.6475 194.908 13.4904 202.344 13.1745 210.626C12.8587 218.908 16.716 254.796 18.3691 267.907C20.0222 281.019 19.2292 284.753 18.5774 289.24C17.9256 293.727 15.7214 295.003 18.0936 300.578C18.0936 300.578 19.3704 305.529 20.17 307.06C20.17 307.06 19.74 312.434 24.874 312.286C24.874 312.286 31.7351 314.778 35.2429 314.006C35.2429 314.006 37.0506 311.943 32.2996 310.466C27.5486 308.988 29.0404 305.529 29.0404 305.529C29.0404 305.529 29.3764 307.369 32.1988 300.78C32.1988 300.78 34.1543 297.421 36.009 293.391C36.009 293.391 37.353 279.246 31.5873 276.599C25.8215 273.953 33.3479 236.849 33.5159 211.049C33.5159 211.049 37.7495 178.136 40.0813 168.645C42.4132 159.154 42.6148 153.828 42.6148 153.828Z" fill="#9F4A25"/>
<path d="M28.9053 303.95C29.3814 301.978 29.6938 299.969 29.8394 297.945C29.8394 297.945 33.1456 294.312 33.9318 290.51C33.9318 290.51 33.7437 293.573 30.6256 298.268C29.6109 299.793 30.1149 301.915 28.9053 303.95Z" fill="#683113"/>
<path d="M24.0878 310.667C23.3973 310.242 22.8683 309.599 22.5847 308.84C22.3011 308.081 22.279 307.249 22.522 306.476C23.3284 303.621 22.9185 298.314 22.9185 298.314C22.9185 298.314 22.7841 304.326 22.0718 307.147C22.0718 307.147 21.4401 310.183 24.0878 310.667Z" fill="#88411E"/>
<path d="M20.4583 304.306C20.4583 304.306 20.9623 299.571 20.7943 298.805C20.7943 298.805 20.2567 303.225 20.4583 304.306Z" fill="#88411E"/>
<path d="M18.7582 299.383C18.7582 299.383 18.5767 297.039 18.449 296.441C18.3214 295.843 18.3886 298.389 18.7582 299.383Z" fill="#88411E"/>
<path d="M115.13 150.946L134.913 144.605C137.353 155.514 138.885 176.847 140.33 181.448C141.775 186.049 144.147 192.517 144.94 199.892C145.733 207.267 144.476 239.576 143.804 251.397C143.132 263.219 144.059 266.497 144.92 270.467C145.78 274.436 147.823 275.444 146.042 280.542C146.042 280.542 145.208 285.042 144.59 286.46C144.59 286.46 145.303 291.262 140.686 291.417C140.686 291.417 134.705 294.063 131.527 293.586C131.527 293.586 129.786 291.853 133.939 290.228C138.092 288.602 136.546 285.613 136.546 285.613C136.546 285.613 136.358 287.279 133.442 281.583C133.442 281.583 131.486 278.681 129.585 275.222C129.585 275.222 127.508 262.668 132.501 259.968C137.494 257.268 128.469 224.557 126.776 201.531C126.776 201.531 120.983 172.4 118.315 164.044C115.647 155.688 115.13 150.946 115.13 150.946Z" fill="#9F4A25"/>
<path d="M136.553 284.236C136.01 282.503 135.61 280.728 135.357 278.93C135.357 278.93 132.178 275.887 131.244 272.542C131.244 272.542 131.6 275.262 134.671 279.259C135.673 280.569 135.35 282.496 136.553 284.236Z" fill="#683113"/>
<path d="M141.271 289.945C141.862 289.524 142.296 288.917 142.503 288.221C142.71 287.524 142.678 286.779 142.413 286.103C141.519 283.604 141.559 278.835 141.559 278.835C141.559 278.835 142.05 284.209 142.863 286.674C142.863 286.674 143.609 289.361 141.271 289.945Z" fill="#88411E"/>
<path d="M144.126 284.042C144.126 284.042 143.387 279.844 143.488 279.145C143.488 279.145 144.241 283.061 144.126 284.042Z" fill="#88411E"/>
<path d="M145.343 279.534C145.343 279.534 145.343 277.432 145.437 276.895C145.531 276.357 145.612 278.614 145.343 279.534Z" fill="#88411E"/>
<path d="M110.876 159.725C110.88 159.771 110.874 159.817 110.86 159.861C110.846 159.905 110.823 159.945 110.793 159.98C110.763 160.015 110.727 160.044 110.685 160.065C110.644 160.085 110.599 160.098 110.554 160.101C110.461 160.094 110.376 160.052 110.314 159.983C110.253 159.914 110.221 159.824 110.224 159.732C110.219 159.64 110.249 159.55 110.31 159.481C110.37 159.412 110.455 159.369 110.547 159.362C110.638 159.368 110.724 159.408 110.786 159.476C110.847 159.544 110.88 159.633 110.876 159.725V159.725Z" fill="#BDBDBF"/>
<path d="M112.119 159.678C112.111 159.741 112.086 159.8 112.045 159.849C112.004 159.897 111.951 159.933 111.89 159.952C111.83 159.971 111.765 159.972 111.704 159.955C111.643 159.938 111.588 159.904 111.546 159.857C111.504 159.809 111.477 159.751 111.467 159.689C111.457 159.626 111.466 159.562 111.491 159.504C111.517 159.446 111.559 159.397 111.612 159.362C111.665 159.328 111.726 159.309 111.79 159.309C111.882 159.315 111.968 159.358 112.029 159.427C112.09 159.496 112.123 159.586 112.119 159.678V159.678Z" fill="#BDBDBF"/>
<path d="M110.883 160.928C110.891 161.019 110.862 161.11 110.802 161.18C110.743 161.251 110.659 161.295 110.567 161.304C110.475 161.297 110.389 161.254 110.328 161.185C110.266 161.117 110.234 161.026 110.238 160.934C110.232 160.842 110.263 160.751 110.323 160.681C110.383 160.611 110.468 160.567 110.561 160.558C110.652 160.565 110.737 160.608 110.798 160.677C110.858 160.746 110.889 160.836 110.883 160.928V160.928Z" fill="#BDBDBF"/>
<path d="M112.126 160.907C112.131 160.953 112.126 160.999 112.113 161.042C112.099 161.086 112.077 161.127 112.048 161.162C112.018 161.197 111.982 161.226 111.941 161.247C111.901 161.267 111.856 161.28 111.81 161.283C111.718 161.276 111.632 161.234 111.571 161.165C111.51 161.096 111.477 161.006 111.481 160.914C111.476 160.822 111.506 160.732 111.567 160.663C111.627 160.594 111.712 160.551 111.804 160.544C111.849 160.547 111.893 160.558 111.933 160.578C111.974 160.598 112.01 160.625 112.04 160.659C112.07 160.693 112.093 160.732 112.108 160.774C112.123 160.817 112.129 160.862 112.126 160.907V160.907Z" fill="#BDBDBF"/>
<path d="M113.269 185.196C113.25 185.235 113.223 185.27 113.19 185.298C113.156 185.326 113.117 185.347 113.075 185.358C113.033 185.37 112.988 185.372 112.945 185.365C112.902 185.358 112.861 185.341 112.825 185.317C112.75 185.258 112.697 185.175 112.678 185.081C112.658 184.988 112.672 184.89 112.718 184.806C112.736 184.766 112.763 184.73 112.797 184.701C112.831 184.672 112.871 184.651 112.914 184.64C112.957 184.628 113.002 184.626 113.046 184.634C113.09 184.642 113.132 184.659 113.168 184.685C113.241 184.746 113.291 184.829 113.31 184.922C113.328 185.016 113.314 185.112 113.269 185.196V185.196Z" fill="#BDBDBF"/>
<path d="M114.323 185.954C114.304 185.993 114.277 186.028 114.243 186.055C114.209 186.082 114.17 186.102 114.128 186.113C114.086 186.124 114.042 186.125 113.999 186.118C113.956 186.11 113.916 186.093 113.88 186.068C113.804 186.01 113.752 185.926 113.732 185.833C113.713 185.739 113.727 185.642 113.772 185.558C113.791 185.518 113.818 185.484 113.851 185.455C113.885 185.427 113.924 185.407 113.966 185.395C114.008 185.384 114.052 185.382 114.096 185.389C114.139 185.396 114.18 185.413 114.216 185.437C114.292 185.497 114.344 185.581 114.364 185.676C114.384 185.771 114.369 185.869 114.323 185.954Z" fill="#BDBDBF"/>
<path d="M112.697 186.243C112.678 186.283 112.651 186.318 112.618 186.346C112.584 186.374 112.544 186.394 112.502 186.405C112.459 186.416 112.415 186.418 112.372 186.409C112.329 186.401 112.288 186.383 112.253 186.357C112.177 186.299 112.126 186.215 112.107 186.121C112.089 186.027 112.105 185.93 112.152 185.847C112.171 185.807 112.198 185.772 112.231 185.744C112.265 185.716 112.304 185.696 112.347 185.685C112.389 185.674 112.434 185.672 112.477 185.681C112.52 185.689 112.56 185.707 112.596 185.733C112.669 185.793 112.719 185.877 112.738 185.97C112.756 186.063 112.742 186.16 112.697 186.243V186.243Z" fill="#BDBDBF"/>
<path d="M113.752 186.995C113.734 187.035 113.707 187.07 113.673 187.098C113.64 187.126 113.601 187.146 113.558 187.158C113.516 187.169 113.472 187.172 113.429 187.164C113.386 187.157 113.345 187.141 113.309 187.116C113.232 187.059 113.179 186.975 113.161 186.88C113.142 186.786 113.159 186.688 113.208 186.606C113.226 186.566 113.252 186.53 113.286 186.501C113.319 186.472 113.358 186.451 113.401 186.44C113.443 186.428 113.488 186.426 113.531 186.434C113.575 186.442 113.616 186.459 113.652 186.485C113.725 186.545 113.775 186.629 113.793 186.722C113.812 186.815 113.797 186.912 113.752 186.995Z" fill="#BDBDBF"/>
<path d="M114.202 214.911C114.234 215.001 114.231 215.098 114.195 215.186C114.159 215.274 114.093 215.346 114.008 215.388C113.966 215.403 113.922 215.41 113.878 215.408C113.834 215.405 113.791 215.393 113.751 215.373C113.712 215.353 113.678 215.324 113.65 215.29C113.622 215.256 113.602 215.216 113.591 215.173C113.56 215.083 113.562 214.985 113.598 214.898C113.634 214.81 113.701 214.738 113.786 214.696C113.827 214.68 113.871 214.674 113.915 214.676C113.96 214.679 114.003 214.691 114.042 214.711C114.081 214.731 114.116 214.759 114.143 214.794C114.171 214.828 114.191 214.868 114.202 214.911V214.911Z" fill="#BDBDBF"/>
<path d="M115.364 214.414C115.395 214.503 115.392 214.599 115.358 214.687C115.323 214.774 115.259 214.846 115.176 214.891C115.134 214.906 115.09 214.913 115.045 214.91C115.001 214.907 114.958 214.894 114.918 214.873C114.879 214.852 114.844 214.823 114.817 214.788C114.79 214.753 114.77 214.712 114.76 214.669C114.726 214.58 114.727 214.482 114.762 214.394C114.797 214.306 114.863 214.234 114.948 214.192C114.99 214.177 115.034 214.17 115.079 214.173C115.123 214.176 115.167 214.188 115.206 214.209C115.245 214.23 115.28 214.259 115.307 214.295C115.334 214.33 115.354 214.37 115.364 214.414V214.414Z" fill="#BDBDBF"/>
<path d="M114.578 216.066C114.61 216.156 114.607 216.254 114.571 216.341C114.535 216.429 114.469 216.501 114.384 216.543C114.342 216.559 114.298 216.565 114.254 216.563C114.21 216.56 114.167 216.548 114.127 216.528C114.088 216.508 114.054 216.48 114.026 216.445C113.998 216.411 113.978 216.371 113.967 216.328C113.936 216.239 113.938 216.141 113.974 216.053C114.01 215.965 114.077 215.893 114.162 215.851C114.203 215.836 114.247 215.829 114.291 215.832C114.336 215.834 114.379 215.846 114.418 215.866C114.457 215.886 114.492 215.915 114.519 215.949C114.547 215.984 114.567 216.024 114.578 216.066V216.066Z" fill="#BDBDBF"/>
<path d="M115.741 215.569C115.772 215.658 115.769 215.755 115.735 215.842C115.7 215.93 115.636 216.002 115.553 216.046C115.511 216.062 115.467 216.068 115.422 216.065C115.378 216.062 115.334 216.05 115.295 216.029C115.256 216.008 115.221 215.979 115.194 215.944C115.167 215.909 115.147 215.868 115.137 215.825C115.103 215.736 115.104 215.638 115.139 215.55C115.174 215.462 115.24 215.39 115.325 215.348C115.367 215.332 115.411 215.326 115.456 215.329C115.5 215.332 115.543 215.344 115.583 215.365C115.622 215.386 115.657 215.415 115.684 215.45C115.711 215.486 115.731 215.526 115.741 215.569V215.569Z" fill="#BDBDBF"/>
<path d="M115.231 248.113C115.231 248.202 115.195 248.287 115.132 248.35C115.069 248.413 114.984 248.448 114.895 248.448C114.806 248.448 114.72 248.413 114.657 248.35C114.594 248.287 114.559 248.202 114.559 248.113C114.555 248.067 114.56 248.021 114.575 247.977C114.589 247.933 114.612 247.892 114.642 247.857C114.672 247.822 114.708 247.794 114.749 247.773C114.791 247.752 114.835 247.74 114.881 247.736C114.93 247.735 114.978 247.744 115.023 247.763C115.068 247.782 115.108 247.81 115.141 247.846C115.174 247.881 115.199 247.924 115.214 247.97C115.23 248.016 115.236 248.064 115.231 248.113V248.113Z" fill="#BDBDBF"/>
<path d="M116.473 248.099C116.473 248.188 116.438 248.274 116.375 248.337C116.312 248.4 116.227 248.435 116.137 248.435C116.048 248.435 115.963 248.4 115.9 248.337C115.837 248.274 115.801 248.188 115.801 248.099C115.796 248.007 115.826 247.916 115.887 247.846C115.947 247.776 116.032 247.732 116.124 247.723C116.172 247.723 116.22 247.733 116.264 247.752C116.308 247.771 116.348 247.799 116.381 247.835C116.414 247.87 116.439 247.912 116.455 247.957C116.471 248.003 116.477 248.051 116.473 248.099V248.099Z" fill="#BDBDBF"/>
<path d="M115.244 249.348C115.244 249.437 115.209 249.523 115.146 249.586C115.083 249.649 114.997 249.684 114.908 249.684C114.819 249.684 114.733 249.649 114.67 249.586C114.607 249.523 114.572 249.437 114.572 249.348C114.566 249.256 114.597 249.165 114.657 249.095C114.717 249.025 114.802 248.981 114.895 248.972C114.943 248.972 114.991 248.982 115.035 249.001C115.079 249.02 115.119 249.048 115.152 249.084C115.184 249.119 115.21 249.161 115.225 249.206C115.241 249.252 115.248 249.3 115.244 249.348V249.348Z" fill="#BDBDBF"/>
<path d="M116.488 249.328C116.488 249.417 116.452 249.503 116.389 249.566C116.326 249.629 116.241 249.664 116.152 249.664C116.062 249.664 115.977 249.629 115.914 249.566C115.851 249.503 115.816 249.417 115.816 249.328C115.812 249.283 115.817 249.236 115.832 249.193C115.846 249.149 115.869 249.108 115.899 249.073C115.929 249.038 115.965 249.01 116.006 248.989C116.047 248.968 116.092 248.956 116.138 248.952C116.187 248.951 116.235 248.96 116.28 248.979C116.324 248.998 116.365 249.026 116.398 249.062C116.431 249.097 116.456 249.139 116.471 249.185C116.487 249.231 116.492 249.28 116.488 249.328V249.328Z" fill="#BDBDBF"/>
<path d="M116.77 281.543C116.725 281.551 116.68 281.551 116.636 281.541C116.592 281.531 116.55 281.513 116.513 281.486C116.477 281.46 116.446 281.426 116.423 281.387C116.4 281.348 116.386 281.305 116.38 281.26C116.36 281.169 116.374 281.073 116.42 280.992C116.466 280.91 116.54 280.848 116.629 280.817C116.672 280.808 116.718 280.809 116.761 280.819C116.805 280.829 116.846 280.847 116.882 280.874C116.918 280.9 116.948 280.934 116.971 280.973C116.993 281.012 117.007 281.055 117.012 281.099C117.035 281.19 117.023 281.286 116.978 281.369C116.933 281.451 116.859 281.513 116.77 281.543V281.543Z" fill="#BDBDBF"/>
<path d="M117.052 282.933C117.007 282.942 116.962 282.941 116.918 282.931C116.874 282.922 116.832 282.903 116.795 282.876C116.759 282.85 116.728 282.816 116.705 282.777C116.682 282.739 116.667 282.696 116.662 282.651C116.642 282.56 116.657 282.466 116.703 282.385C116.748 282.304 116.823 282.244 116.911 282.214C116.954 282.206 116.999 282.206 117.042 282.215C117.085 282.225 117.126 282.243 117.162 282.269C117.198 282.295 117.228 282.327 117.251 282.365C117.273 282.403 117.288 282.446 117.294 282.49C117.317 282.58 117.305 282.677 117.26 282.759C117.215 282.841 117.141 282.904 117.052 282.933V282.933Z" fill="#BDBDBF"/>
<path d="M115.734 281.811C115.69 281.819 115.645 281.817 115.601 281.807C115.557 281.797 115.516 281.778 115.48 281.752C115.443 281.726 115.413 281.693 115.389 281.654C115.366 281.616 115.351 281.573 115.344 281.529C115.321 281.437 115.334 281.34 115.38 281.258C115.426 281.175 115.503 281.114 115.593 281.086C115.637 281.077 115.682 281.078 115.726 281.087C115.769 281.097 115.811 281.116 115.847 281.142C115.883 281.169 115.913 281.203 115.935 281.242C115.957 281.28 115.971 281.323 115.976 281.368C115.998 281.459 115.985 281.554 115.94 281.636C115.896 281.718 115.822 281.78 115.734 281.811Z" fill="#BDBDBF"/>
<path d="M116.003 283.202C115.959 283.21 115.913 283.21 115.869 283.2C115.825 283.19 115.784 283.172 115.747 283.145C115.711 283.119 115.68 283.085 115.657 283.046C115.634 283.007 115.619 282.964 115.613 282.92C115.592 282.828 115.606 282.732 115.652 282.65C115.698 282.568 115.773 282.506 115.862 282.476C115.906 282.468 115.951 282.468 115.995 282.478C116.039 282.488 116.08 282.507 116.116 282.533C116.152 282.56 116.182 282.593 116.204 282.632C116.226 282.671 116.24 282.714 116.245 282.758C116.267 282.849 116.254 282.945 116.21 283.027C116.165 283.109 116.091 283.171 116.003 283.202V283.202Z" fill="#BDBDBF"/>
<path d="M99.7009 85.9331C99.0826 83.112 98.5047 78.3497 99.4186 75.6159C99.6182 74.7636 100.126 74.015 100.843 73.5135C101.791 72.9896 103.646 73.3456 104.721 73.2516C109.519 72.8284 111.783 73.6814 115.607 73.2516C116.857 73.1038 118.557 72.5799 119.256 71.5052C120.23 70.0476 120.096 69.6916 119.995 68.4087C119.881 66.9981 118.772 65.2719 119.773 64.2979C120.03 64.0655 120.306 63.8564 120.6 63.6733C121.675 62.9075 122.186 60.3887 120.949 59.9387C122.293 59.267 122.045 58.555 122.099 57.9236C122.113 57.7171 122.059 57.5115 121.944 57.3392C121.332 56.4392 120.56 54.6525 121.003 53.9808C121.272 53.5576 121.675 53.7994 122.871 53.027C124.215 52.1336 124.565 49.7223 123.866 49.1312C122.26 47.7878 121.534 46.1623 120.996 45.4369C118.705 42.3673 118.174 41.2859 117.771 39.0021C117.24 36.0265 117.442 31.6471 116.622 28.7454C114.801 22.3308 111.024 19.6104 105.641 15.849C97.9335 10.4755 87.9947 8.92385 78.8421 10.771C73.9566 11.7584 59.9253 16.2251 59.5759 32.7755C59.4482 38.8208 62.5864 44.3488 66.0271 49.2454C69.4677 54.142 72.2229 56.2377 73.5131 62.1217C74.2288 65.8325 74.1533 69.6525 73.2914 73.3322C71.3627 82.541 69.4072 90.4401 63.9842 98.0369C61.6927 101.248 56.2025 104.754 54.8517 108.468C53.501 112.183 53.3801 116.636 55.5237 119.947C58.7829 124.952 78.3717 137.868 86.8523 134.053C90.9582 132.206 105.379 159.772 109.337 157.602C112.308 155.977 118.073 123.581 118.329 120.142C118.47 118.416 103.088 92.7104 99.7009 85.9331Z" fill="#9F4A25"/>
<path d="M115.869 60.2211C116.242 59.7242 116.673 59.2733 117.153 58.8777C117.704 58.3084 118.35 57.8381 119.061 57.4873C119.961 57.1649 120.741 56.6343 121.601 56.8156C121.675 56.9903 123.395 58.562 121.426 59.6703C121.285 59.7658 121.137 59.8511 120.983 59.9256C121.385 60.1518 121.705 60.4993 121.897 60.9184C122.089 61.3375 122.143 61.8065 122.052 62.2584C121.961 62.7103 121.729 63.1218 121.39 63.4339C121.051 63.7461 120.621 63.9428 120.163 63.996C119.22 63.526 118.342 62.9368 117.549 62.2429C116.928 61.696 116.373 61.0783 115.896 60.4025V60.342L115.862 60.295L115.869 60.2211Z" fill="#572713"/>
<path d="M120.163 63.9823C120.163 63.9823 115.405 62.4508 113.302 59.9521C113.302 59.9521 114.505 61.094 116.843 59.1528" fill="#572713"/>
<path d="M118.51 52.8054C118.693 52.6687 118.904 52.5746 119.128 52.53C119.469 52.4763 119.816 52.4763 120.157 52.53C120.301 52.5506 120.438 52.6085 120.553 52.6979C120.608 52.7372 120.646 52.7946 120.662 52.8598C120.678 52.9251 120.671 52.9939 120.64 53.0539C120.592 53.1185 120.523 53.1656 120.446 53.1883C120.062 53.3159 119.646 53.0942 119.236 53.101C118.739 53.1457 118.26 53.3143 117.845 53.5913C117.845 53.5913 117.818 53.2487 118.51 52.8054Z" fill="#572713"/>
<path d="M114.277 32.0366C114.217 32.0366 113.907 32.359 113.753 32.3523C113.471 32.3523 113.256 32.0232 112.765 32.0702C110.904 32.2247 107.88 32.6546 106.529 32.93C105.919 33.0322 105.329 33.2318 104.782 33.5211C102.692 34.7032 100.4 38.2833 100.454 39.0356C101.238 38.472 101.985 37.8596 102.692 37.2019C103.149 36.7452 104.11 36.5302 104.667 36.2145C107.355 34.7637 110.595 34.8174 113.672 34.8308C114.284 34.8308 114.754 32.1978 114.277 32.0366Z" fill="#572713"/>
<path d="M117.771 54.4778C117.771 54.4778 116.467 54.9144 115.863 54.3031C114.935 53.3829 115.863 51.7037 116.535 51.2671C114.297 54.827 117.771 54.4778 117.771 54.4778Z" fill="#572713" stroke="#572713" stroke-width="0.28" stroke-miterlimit="10"/>
<path d="M107.811 40.5469C107.353 41.2802 107.096 42.121 107.065 42.9851C107.065 43.9792 107.569 45.3092 108.577 45.4972C109.585 45.6853 110.896 44.1942 110.721 41.6149C109.855 41.0236 108.855 40.6566 107.811 40.5469V40.5469Z" fill="#572713"/>
<path d="M108.161 40.9705C104.842 41.3668 104.996 45.2156 102.066 43.6573C102.423 43.5162 103.686 43.8117 104.002 43.402C105.104 41.9915 106.401 40.6481 108.081 40.4667C109.761 40.2854 111.394 40.8294 112.361 40.3525C111.548 41.5078 110.608 40.6749 108.161 40.9705Z" fill="#492214" stroke="#492214" stroke-width="1.14" stroke-miterlimit="10"/>
<path d="M89.5738 8.02406C93.0072 8.13695 96.3776 8.97663 99.4624 10.4876C102.547 11.9986 105.276 14.1466 107.469 16.7896C100.574 19.7652 98.2292 20.6451 94.2711 26.3142C90.5214 31.6877 91.6973 33.0915 89.8225 39.3584C89.3118 41.0645 88.4247 43.0459 86.6574 43.2609C85.5956 43.3952 84.601 42.8109 83.6401 42.3407C81.6241 41.3264 78.58 40.9973 77.5249 43.0124C76.7723 44.4632 77.5652 46.2365 78.5531 47.5328C79.5409 48.8292 80.7841 50.0718 81.0529 51.6839C81.2209 52.7048 80.9588 53.7594 81.0529 54.7871C81.147 55.8148 81.9063 56.9298 82.9345 56.8827L82.6859 57.4268C82.4218 60.7778 81.7262 64.0807 80.6161 67.2536C79.5879 70.1889 76.3624 73.6011 73.2644 73.3391C73.3652 68.147 72.6664 62.9212 69.508 58.8239C63.2248 50.6831 57.8488 41.7026 58.6485 31.063C59.3205 22.4385 63.9304 14.029 72.3841 10.9593C77.8032 8.93124 83.5526 7.92902 89.3386 8.00391L89.5738 8.02406Z" fill="#572713"/>
<path d="M64.9516 62.5316C66.3651 63.0223 67.8929 63.0808 69.3398 62.6995C72.0278 61.8733 73.2105 58.6693 72.3302 56.1505C71.8732 55.0602 71.0072 54.1922 69.9177 53.7324C70.8325 53.3914 71.6353 52.8046 72.2377 52.0365C72.84 51.2685 73.2185 50.3492 73.3314 49.3799C73.4092 48.4068 73.1697 47.4348 72.6489 46.609C72.128 45.7833 71.3538 45.1483 70.4419 44.799C69.1577 44.4798 67.815 44.4798 66.5308 44.799L60.9936 44.0198C59.853 43.049 58.4497 42.4389 56.9616 42.2667C54.1593 42.0517 51.888 44.584 51.7805 47.2708C51.8051 48.4489 52.2871 49.5713 53.1245 50.4008C52.1477 50.3848 51.1855 50.6384 50.3437 51.1337C49.5019 51.6291 48.8131 52.347 48.3533 53.2085C47.9273 54.0863 47.7959 55.0781 47.9787 56.0365C48.1615 56.9948 48.6487 57.8687 49.368 58.5283C50.4486 59.2947 51.6978 59.79 53.0102 59.9724" fill="#572713"/>
<path d="M67.3173 61.6181C67.5001 62.9279 67.3618 64.2626 66.9141 65.5072C66.4767 66.3801 65.7684 67.088 64.895 67.5251C64.0217 67.9622 63.0302 68.1049 62.069 67.9319C61.1151 67.7245 60.237 67.2579 59.5315 66.5836C58.826 65.9092 58.3205 65.0533 58.0706 64.11C57.5062 65.1477 56.5585 65.9239 55.4296 66.2729C52.8156 66.9043 49.7647 65.4131 49.2002 62.6592C48.9639 61.1812 49.172 59.6663 49.7983 58.3066" fill="#572713"/>
<path d="M58.7629 48.05C58.4652 47.8624 58.1207 47.762 57.7687 47.7603C57.4167 47.7586 57.0713 47.8556 56.7717 48.0403C56.4721 48.225 56.2304 48.49 56.0739 48.8052C55.9175 49.1204 55.8527 49.4731 55.8868 49.8233C55.8868 49.8233 56.4445 48.4799 57.2308 48.1978C57.7284 48.0568 58.2475 48.0068 58.7629 48.05V48.05Z" fill="#964216"/>
<path d="M60.6445 62.6321C60.8808 62.8917 61.1848 63.0804 61.5224 63.1768C61.86 63.2733 62.2178 63.2738 62.5557 63.1782C62.8935 63.0826 63.198 62.8947 63.435 62.6357C63.6719 62.3767 63.8319 62.0568 63.897 61.7119C63.897 61.7119 62.9898 62.8672 62.1834 62.921C61.6572 62.9189 61.1357 62.821 60.6445 62.6321Z" fill="#964216"/>
<path d="M67.1625 57.9571C67.3086 57.6375 67.3625 57.2834 67.3183 56.9348C67.274 56.5862 67.1332 56.2569 66.9118 55.9839C66.6904 55.711 66.3971 55.5052 66.0651 55.3898C65.733 55.2744 65.3753 55.254 65.0322 55.3308C65.0322 55.3308 66.4501 55.7069 66.813 56.4256C67.0235 56.9101 67.142 57.4294 67.1625 57.9571V57.9571Z" fill="#964216"/>
<path d="M52.8294 58.7837C52.7401 59.1268 52.7493 59.4881 52.8559 59.8263C52.9625 60.1644 53.1623 60.4657 53.4323 60.6956C53.7023 60.9255 54.0316 61.0748 54.3825 61.1263C54.7335 61.1778 55.0918 61.1295 55.4166 60.9868C55.4166 60.9868 53.9449 60.8794 53.4543 60.248C53.1576 59.8025 52.9457 59.3061 52.8294 58.7837V58.7837Z" fill="#964216"/>
<path d="M58.7767 52.96C58.4599 53.1037 58.1889 53.3322 57.9938 53.6202C57.7987 53.9082 57.6869 54.2444 57.6709 54.5919C57.655 54.9393 57.7353 55.2844 57.9032 55.5891C58.071 55.8938 58.3199 56.1462 58.6222 56.3184C58.6222 56.3184 57.8091 55.0892 58.0174 54.3033C58.1836 53.8117 58.4412 53.3559 58.7767 52.96V52.96Z" fill="#964216"/>
<path d="M79.5545 18.5156C78.822 19.1201 75.5225 21.4643 74.2524 22.492C71.9419 24.4472 69.758 26.5471 67.7139 28.779" fill="#964216"/>
<path d="M80.0314 31.1836C79.4669 31.6471 76.9268 33.4405 75.9994 34.2264C74.228 35.7216 72.5536 37.3279 70.9863 39.0356" fill="#964216"/>
<path d="M79.6823 15.4526C79.0977 15.8892 76.4634 17.5483 75.4689 18.2804C73.6224 19.6831 71.8672 21.202 70.2139 22.8278" fill="#964216"/>
<path d="M75.6701 25.8037C75.1123 26.2672 72.5655 28.0606 71.6381 28.8465C69.8666 30.344 68.1922 31.9526 66.625 33.6625" fill="#964216"/>
<path d="M72.2432 33.098C73.0219 31.775 74.0705 30.6307 75.3209 29.7395C77.9892 27.6219 80.8029 25.6939 83.741 23.9697" fill="#964216"/>
<path d="M73.1709 73.6211C71.5514 84.2069 64.5066 91.0383 53.9803 95.5837C49.5451 95.6374 52.0097 100.737 50.4842 104.747C48.9588 108.757 48.8244 113.526 51.2503 117.086C54.9194 122.46 80.0925 117.912 89.608 113.815C94.2246 111.8 99.0159 110.282 103.498 107.951C106.858 106.205 111.287 96.5324 111.562 92.8516C111.71 90.9574 102.154 95.2495 98.8278 81.4328" fill="#9F4A25"/>
<path d="M189.11 243.444C188.982 248.932 189.372 253.634 190.158 255.071C190.171 255.17 190.215 255.262 190.286 255.333C192.12 259.363 193.296 268.921 193.552 270.487C193.686 272.186 192.88 278.587 193.162 281.234C193.296 282.535 193.296 283.848 193.162 285.15L192.12 285.284C188.196 285.808 188.196 278.231 188.72 276.27C189.244 274.308 187.806 270.131 187.806 270.131C186.994 272.282 186.424 274.517 186.106 276.794C186.08 279.97 186.939 283.091 188.586 285.808C189.506 286.849 195.252 289.166 194.21 290.899C193.296 292.464 188.982 290.772 188.586 290.51C189.762 291.423 194.728 292.337 193.424 293.868C192.51 295.211 190.548 295.567 187.148 293.868C186.368 293.478 185.454 294.002 184.406 293.868C183.984 293.86 183.574 293.724 183.23 293.478C182.565 292.916 181.992 292.255 181.53 291.517C180.75 290.08 180.092 288.515 179.568 287.729C177.74 284.854 177.874 282.113 177.74 279.501V279.111C177.35 275.323 176.436 275.323 176.436 273.099C176.74 271.033 177.312 269.014 178.136 267.094C180.878 260.169 180.878 249.328 180.616 243.444C180.488 241.093 180.354 239.528 180.354 239.528C179.682 236.654 179.178 234.041 178.654 231.428C175.388 214.186 176.04 203.217 177.35 195.506C178.022 191.066 178.916 187.795 179.44 184.927C179.545 184.498 179.588 184.057 179.568 183.617C180.354 175.651 177.478 166.637 176.436 147.561C176.436 146.781 176.302 145.868 176.302 144.948C176.182 142.422 176.27 139.89 176.564 137.378C176.579 136.758 176.667 136.143 176.826 135.544C177.874 129.667 179.964 126.402 182.054 124.575L182.316 124.313C182.706 124.051 182.988 123.79 183.358 123.528C183.695 123.285 184.045 123.061 184.406 122.856C185.223 122.414 186.105 122.105 187.02 121.942L191.2 121.418L191.596 123.507L193.686 135.544L195.124 143.517C195.252 148.891 195.252 154.486 195.252 159.584V177.478C195.648 180.876 194.58 189.756 194.472 191.845C194.472 192.369 194.6 193.941 194.728 196.157C195.124 202.169 195.776 212.62 193.034 219.149C193.034 219.277 192.9 219.411 192.9 219.539C191.538 223.436 190.66 227.485 190.286 231.596C189.583 235.508 189.19 239.47 189.11 243.444V243.444Z" fill="#893B21"/>
<path d="M184.796 286.95C183.6 284.524 182.648 281.986 181.953 279.373C181.953 279.373 182.208 284.337 184.823 286.95H184.796Z" fill="#6F2F18"/>
<path d="M287.914 459.379C287.786 459.513 287.652 459.775 287.524 459.903C286.375 460.783 285.028 461.367 283.6 461.602H283.472C275.24 463.691 266.739 465.518 258.245 466.976C254.065 467.648 249.751 468.151 245.571 468.413C240.792 468.826 235.989 468.914 231.197 468.675C214.727 468.004 199.042 462.408 183.358 458.224C180.616 457.552 177.612 456.524 176.564 454.046C176.154 452.917 176.063 451.697 176.302 450.52C176.974 445.294 179.568 440.444 180.616 435.366C180.75 434.97 180.75 434.58 180.878 434.191C181.335 430.625 181.598 427.038 181.664 423.444C181.792 420.959 181.792 418.608 181.926 416.257C182.316 408.68 182.84 377.46 183.102 351.593C183.102 347.415 183.23 343.365 183.23 339.577C183.23 335.137 183.358 331.086 183.358 327.56C183.492 322.334 183.492 318.284 183.62 316.195V315.523C183.882 308.336 184.144 301.149 184.292 294.097C184.42 291.746 184.42 289.267 184.42 286.916V286.674C184.682 277.942 184.682 269.17 184.682 260.418V255.716C184.682 251.794 184.682 247.743 184.809 243.693C184.937 239.643 185.071 235.727 185.481 231.676C185.891 227.626 186.395 223.576 187.175 219.66C187.804 216.304 188.634 212.989 189.661 209.732C191.099 205.158 192.799 200.846 194.103 196.299C195.148 193.134 195.979 189.903 196.589 186.626C197.503 181.662 196.455 176.699 195.279 171.735C195.017 170.694 194.889 169.78 194.607 168.732C194.217 167.033 193.935 165.206 193.693 163.507C193.559 162.292 193.559 161.067 193.693 159.853C193.821 155.406 194.607 150.704 191.993 147.829C191.617 147.415 191.177 147.063 190.689 146.788C188.593 145.351 185.199 143.262 181.799 141.301C181.671 141.301 181.671 141.166 181.537 141.166C179.574 139.991 177.619 138.815 176.046 137.774C175.267 137.25 174.481 136.726 173.957 136.337C173.951 136.153 173.997 135.971 174.091 135.813C175.267 127.195 177.222 119.746 180.885 113.345C183.627 108.381 195.259 106.944 200.884 105.117C202.091 107.508 203.583 109.745 205.325 111.78C205.997 112.559 206.629 113.345 207.415 114.131C210.554 117.261 214.733 120.398 220.089 121.707C221.124 121.943 222.172 122.118 223.227 122.231C238.65 123.272 253.286 106.816 253.286 106.816C260.866 107.73 269.622 109.557 272.371 113.734C276.94 120.66 279.689 138.036 279.689 138.036L260.342 145.479C259.824 149.401 259.166 154.365 258.776 159.584C258.776 160.256 258.648 160.759 258.648 161.411C258.386 164.675 258.124 168.202 257.976 171.601C257.849 175.631 257.714 179.701 257.849 183.617C257.976 187.278 258.239 190.67 258.635 193.545C258.763 194.216 258.897 194.854 259.025 195.506V195.768C259.872 199.749 260.963 203.675 262.291 207.522V207.522C263.339 210.787 264.253 213.924 265.039 217.322C265.148 218.075 265.321 218.816 265.557 219.539C268.043 231.3 268.829 243.444 269.589 255.468C269.851 259.498 270.113 263.434 270.502 267.484C270.493 267.842 270.546 268.199 270.657 268.539C271.047 272.199 271.329 275.86 271.699 279.514C272.095 283.544 272.485 287.48 272.875 291.531C273.264 295.581 273.661 299.504 274.057 303.554C274.447 307.584 274.837 311.52 275.233 315.57C275.489 318.181 275.749 320.794 276.013 323.409C276.927 332.813 277.323 342.216 277.713 351.62C277.847 355.65 277.975 359.593 278.237 363.643C278.627 374.35 279.151 385.063 280.327 395.777C280.455 397.08 280.589 398.39 280.717 399.565C281.113 403.481 281.503 407.531 281.893 411.582C282.289 416.022 282.679 420.468 282.941 424.908C283.613 433.398 282.813 442.936 287.121 450.64C288.566 453.253 289.876 457.028 287.914 459.379Z" fill="#67131A"/>
<path d="M245.834 135.544V147.561H233.153V159.584H220.479V171.6H195.125V159.45H194.211C194.338 155.01 195.125 150.308 192.511 147.433C192.134 147.014 191.691 146.66 191.2 146.385C189.11 144.948 185.717 142.859 182.316 140.904C182.182 140.904 182.182 140.77 182.054 140.77C180.092 139.594 178.137 138.419 176.564 137.378C175.778 136.854 174.998 136.33 174.474 135.94C174.468 135.757 174.512 135.576 174.602 135.416H182.182V123.4H195.125V111.363H220.607V123.387H233.287V135.403H245.834V135.544Z" fill="#E73E25"/>
<path d="M257.889 183.49H258.561V171.466H245.833V183.49H233.152V195.506H245.833V207.523H258.507V219.539H265.435C265.321 218.787 265.146 218.046 264.911 217.323C264.122 214.058 263.209 210.791 262.169 207.523C260.993 203.607 259.683 199.818 258.903 195.768V195.506C258.769 194.834 258.641 194.196 258.507 193.545C258.245 190.542 257.983 187.144 257.889 183.49Z" fill="#E73E25"/>
<path d="M258.642 267.484H245.961V279.501H233.287V291.517H245.961V303.541H258.642V315.557H275.106C274.716 311.527 274.319 307.584 273.93 303.541H274.064C273.667 299.51 273.278 295.568 272.881 291.517C272.485 287.467 272.102 283.551 271.705 279.501C271.315 275.847 271.033 272.186 270.664 268.525C270.664 268.27 270.529 267.854 270.529 267.484C270.139 263.562 269.857 259.518 269.615 255.468H258.507V267.484H258.642Z" fill="#E73E25"/>
<path d="M258.642 159.45V161.283C258.642 160.612 258.769 160.101 258.769 159.45H258.642Z" fill="#E73E25"/>
<path d="M245.834 231.428V243.444H233.153V255.468H220.479V267.484H195.125V255.468H185.045C185.045 251.545 185.045 247.495 185.179 243.444C185.314 239.394 185.441 235.478 185.851 231.428C186.214 227.396 186.781 223.386 187.551 219.411H195.125V207.415H220.607V219.432H233.288V231.448L245.834 231.428Z" fill="#E73E25"/>
<path d="M265.826 121.438L270.012 121.962C270.941 122.067 271.835 122.379 272.626 122.876C276.033 124.575 281.409 129.801 280.737 144.948C279.696 166.898 276.295 176.174 277.733 184.927C279.171 193.679 284.527 206.736 276.819 239.528C276.819 239.528 275.119 257.294 279.044 267.067C279.984 268.953 280.601 270.983 280.872 273.072C280.872 275.296 279.958 275.296 279.561 279.084C279.299 281.697 279.561 284.699 277.606 287.702C276.819 289.012 275.643 292.276 273.943 293.586C272.505 294.627 271.202 293.451 270.026 294.103C266.625 295.802 264.65 295.413 263.749 294.103C262.445 292.538 267.411 291.624 268.587 290.711C268.587 290.711 263.883 292.8 262.963 291.101C262.042 289.401 267.801 287.07 268.587 286.009C270.193 283.275 271.049 280.166 271.067 276.995C270.81 274.72 270.285 272.483 269.501 270.332C269.501 270.332 268.063 274.51 268.587 276.471C269.112 278.432 269.105 286.009 265.187 285.485L264.139 285.351C264.011 284.049 264.011 282.737 264.139 281.435C264.273 278.822 263.467 272.421 263.749 270.721C264.031 269.022 265.187 259.095 267.149 255.179C269.112 251.263 268.325 228.136 264.535 219.122C260.745 210.108 263.225 193.779 263.097 191.818C262.97 189.857 261.921 180.849 262.311 177.451C262.573 175.624 262.049 158.381 262.445 143.49" fill="#893B21"/>
<path d="M272.102 286.95C273.305 284.524 274.269 281.986 274.978 279.373C274.978 279.373 274.843 284.337 272.102 286.95Z" fill="#6F2F18"/>
<path d="M277.195 283.423C277.195 283.423 277.867 276.76 277.982 276.364C278.096 275.967 276.671 281.065 277.195 283.423Z" fill="#6F2F18"/>
<path d="M210.809 94.6587C211.481 92.0458 211.723 85.7722 210.809 83.166C210.575 82.3636 210.066 81.6691 209.371 81.2047C208.346 80.8536 207.226 80.8991 206.233 81.3323C202.632 82.3904 198.86 82.7462 195.125 82.3802C193.887 82.2911 192.683 81.9335 191.597 81.3323C191.081 81.0374 190.644 80.6218 190.325 80.121C190.005 79.6202 189.812 79.0494 189.762 78.4575C189.897 77.1544 190.938 75.5894 190.024 74.6692C189.798 74.4514 189.533 74.2762 189.245 74.152C189.055 74.0324 188.892 73.8765 188.763 73.6935C188.634 73.5105 188.543 73.3038 188.494 73.0854C188.445 72.8669 188.44 72.641 188.479 72.4206C188.518 72.2002 188.6 71.9897 188.721 71.8011C188.877 71.5543 189.115 71.3692 189.393 71.2771C188.932 71.0634 188.533 70.735 188.236 70.3234C187.938 69.9118 187.751 69.4307 187.692 68.9262C187.672 68.7411 187.72 68.5548 187.827 68.4023C188.499 67.6164 189.527 65.7894 189.13 65.1379C188.868 64.7416 188.351 64.7416 187.954 64.4662C187.617 64.1891 187.382 63.8071 187.287 63.381C187.192 62.955 187.242 62.5094 187.43 62.1153C187.838 61.372 188.319 60.6721 188.868 60.0263C190.433 57.6981 191.337 54.9889 191.482 52.1877C191.62 49.3725 192.014 46.5757 192.658 43.8319C194.493 37.9479 199.587 33.508 204.815 29.9817C212.523 24.8903 222.327 23.4528 231.218 25.1522C236.049 26.0657 249.772 30.2436 250.034 45.5246C250.161 51.1466 247.157 56.2716 243.764 60.6779C240.37 65.0842 237.749 67.2134 236.439 72.5668C235.743 75.9835 235.833 79.5136 236.701 82.8906C238.663 91.3808 243.502 98.9575 248.858 106.01C251.253 108.851 253.232 112.017 254.738 115.414C256.082 118.813 256.176 122.991 254.066 126C250.8 130.702 228.973 126.779 220.607 123.252C216.575 121.553 212.375 120.25 208.585 118.289C205.709 116.724 200.48 114.111 200.218 110.974C200.091 109.275 207.536 100.784 210.809 94.6452" fill="#893B21"/>
<path d="M193.034 69.8397C192.9 69.7054 192.772 69.5778 192.638 69.5778C192.119 69.0269 191.499 68.5821 190.81 68.268C188.33 67.7508 187.934 68.1403 187.934 68.4023C187.894 68.8644 187.983 69.3284 188.191 69.7432C188.398 70.1581 188.716 70.5075 189.11 70.7532C189.244 70.8808 189.372 70.8808 189.506 71.0152C189.212 71.1879 188.972 71.4401 188.813 71.7429C188.655 72.0456 188.585 72.3868 188.612 72.7273C188.639 73.0678 188.761 73.3939 188.964 73.6684C189.167 73.9429 189.444 74.1547 189.762 74.2796L189.896 74.152L189.762 74.2796C189.762 74.2796 194.99 72.5802 197.087 70.2494C196.952 70.2293 195.649 71.4048 193.034 69.8397Z" fill="#3D1A12"/>
<path d="M192.376 63.9622C192.194 63.7916 191.953 63.6977 191.704 63.7002H190.689C190.555 63.7002 190.427 63.8279 190.293 63.8279C190.22 63.897 190.175 63.99 190.165 64.0898L190.293 64.2242C190.689 64.3518 191.079 64.0898 191.469 64.0898C191.936 64.1386 192.392 64.2705 192.813 64.4794C193.075 64.7414 193.075 64.3518 192.416 63.9622" fill="#3D1A12"/>
<path d="M196.562 45.9343C198.825 45.7999 201.093 45.7999 203.356 45.9343C203.887 45.9554 204.413 46.0434 204.922 46.1962C206.767 47.1287 208.203 48.7099 208.954 50.6361C208.954 50.6361 207.65 49.2927 207.126 48.9367C204.512 47.1097 200.594 47.6337 197.456 48.0232C196.784 48.1509 196.018 46.1962 196.542 45.9343" fill="#3D1A12"/>
<path d="M193.035 65.5274C193.035 65.5274 194.339 65.9169 194.863 65.3997C195.777 64.4795 194.863 63.0488 194.191 62.5249C196.408 65.8834 193.015 65.5274 193.015 65.5274" fill="#3D1A12"/>
<path d="M206.097 55.3376C205.842 55.21 205.708 55.0756 205.425 54.948C204.889 54.2689 204.217 53.7091 203.452 53.3043C202.688 52.8995 201.847 52.6587 200.983 52.5971C200.288 52.5298 199.589 52.5298 198.894 52.5971C198.237 52.6933 197.568 52.6475 196.931 52.4628L195.104 51.6836L196.28 53.2486C196.44 53.484 196.654 53.6779 196.904 53.8146C197.154 53.9512 197.433 54.0266 197.718 54.0345C196.931 55.9891 197.583 57.393 198.632 57.5609C199.68 57.7288 200.459 56.775 200.856 55.8615C201.065 55.2764 201.152 54.6546 201.111 54.0345C202.445 54.3354 203.641 55.0702 204.511 56.1235C204.758 56.3603 205.083 56.4988 205.425 56.513C205.704 56.4875 205.973 56.3979 206.212 56.2511L206.998 55.5794L206.097 55.3376Z" fill="#3D1A12"/>
<path d="M255.241 34.3072C256.028 32.3459 247.399 37.444 246.613 35.6103C245.827 33.7766 245.941 33.5213 243.744 33.7833C244.92 32.8698 241.647 20.7189 239.712 21.6324C239.712 19.5435 221.937 17.7165 221.151 22.3041L220.761 22.5661C217.447 22.6443 214.183 23.3997 211.171 24.7859C208.159 26.1721 205.463 28.1597 203.249 30.6264C210.043 33.3736 212.267 34.1527 216.185 39.3583C219.847 44.3221 218.665 45.6319 220.627 51.3816C221.151 52.9466 221.971 54.74 223.765 55.0356C224.818 55.0394 225.853 54.7685 226.769 54.2497C228.731 53.3362 231.735 53.0742 232.783 54.9214C233.57 56.2245 232.783 57.9238 231.735 59.0993C230.604 60.1345 229.751 61.4371 229.255 62.8876C229.121 63.8011 229.383 64.8489 229.255 65.7624C229.128 66.6759 228.469 67.7238 227.428 67.7238C228.731 71.5121 230.955 87.4446 234.483 89.4059C241.015 93.0666 240.888 106.648 242.978 105.607C243.417 105.306 243.903 105.079 244.416 104.935C245.106 104.808 245.815 104.808 246.506 104.935C247.363 104.928 248.205 104.71 248.957 104.3C249.709 103.89 250.349 103.301 250.82 102.584C251.103 101.917 251.552 101.332 252.123 100.885C252.664 100.676 253.245 100.589 253.824 100.63C257.352 100.368 260.355 77.376 259.966 73.9772C259.838 73.4179 259.838 72.8371 259.966 72.2778C260.264 71.7233 260.72 71.2698 261.276 70.9748C263.027 69.722 264.213 67.8289 264.576 65.707C264.938 63.585 264.448 61.4059 263.211 59.6434C262.581 58.7088 261.729 57.9449 260.732 57.4201C262.203 55.4466 263.065 53.0861 263.211 50.6293C263.277 49.3729 262.93 48.1295 262.222 47.0889C261.515 46.0483 260.486 45.2677 259.294 44.8662C258.622 44.7386 257.856 44.4766 257.856 43.9527C257.881 43.674 257.971 43.405 258.118 43.1668C258.876 41.8285 259.082 40.2471 258.692 38.7593C258.301 37.2715 257.346 35.9947 256.028 35.2006C255.893 35.0729 255.766 35.0729 255.504 34.9386" fill="#3D1A12"/>
<path d="M281.409 130.453C281.109 130.362 280.83 130.209 280.592 130.005C280.354 129.8 280.161 129.549 280.026 129.265C279.89 128.982 279.816 128.674 279.806 128.36C279.797 128.047 279.853 127.734 279.971 127.444C280.489 124.052 278.795 119.867 275.133 119.477C275.036 117.507 274.303 115.622 273.043 114.104C272.246 113.266 271.321 112.56 270.301 112.015C270.199 111.775 270.066 111.549 269.905 111.343C270.577 110.168 271.249 108.992 271.732 107.817C272.493 106.5 272.701 104.935 272.309 103.466C271.917 101.996 270.958 100.742 269.642 99.9783C269.097 99.5411 268.437 99.2716 267.741 99.2024C267.046 99.1332 266.345 99.2674 265.725 99.5887C266.639 98.6752 268.077 96.7139 268.729 93.0599C270.556 82.3128 270.167 61.5778 265.987 51.2539C263.762 45.7662 263.763 43.4153 261.021 38.1896C258.931 33.884 252.392 25.1319 247.688 23.5602C242.46 21.8608 239.456 19.7718 234.248 18.4688C229.41 17.1254 210.594 22.9086 210.056 25.3872C210.056 25.6491 211.36 24.7155 213.712 23.8221C214.634 23.4616 215.602 23.2353 216.588 23.1504C218.049 23.0615 219.488 23.5269 220.62 24.4535C235.404 44.8326 232.642 60.1202 233.953 75.2735C234.625 83.7637 231.077 97.2176 226.897 99.6962C222.972 101.919 216.702 102.309 212.65 102.443C210.673 102.446 208.716 102.046 206.898 101.268C206.636 101.134 206.508 101.006 206.226 100.872C205.44 100.354 204.788 99.6962 204.264 99.3066L203.088 97.7415C202.897 97.5152 202.657 97.3365 202.385 97.2199C202.113 97.1032 201.817 97.0519 201.522 97.0699C197.732 96.9422 191.718 97.2042 188.579 99.2931C186.227 100.858 183.203 105.432 183.203 105.432C179.675 104.647 178.365 114.581 176.41 119.934C175.808 121.431 175.283 122.958 174.837 124.508C174.447 125.946 173.923 127.511 173.533 129.21C172.511 133.174 172.07 137.264 172.223 141.354C172.747 149.979 188.956 150.63 195.36 151.027C204.042 151.526 212.752 151.175 221.366 149.979C230.909 148.635 240.706 146.714 249.724 143.188C254.166 144.364 258.46 145.801 263.057 146.842C268.675 148.018 274.817 148.414 280.179 146.452C283.049 145.405 285.663 143.45 286.711 140.703C287.914 136.72 285.172 132.407 281.409 130.453Z" fill="white"/>
<path d="M226.62 59.7777C226.567 59.7291 226.504 59.6924 226.436 59.6704C226.368 59.6484 226.295 59.6414 226.224 59.6501H225.706L226.224 59.9121C226.348 59.9733 226.452 60.0695 226.522 60.1888C226.593 60.3081 226.627 60.4454 226.62 60.5837C226.601 60.7996 226.53 61.0077 226.413 61.1901C226.296 61.3726 226.137 61.5241 225.948 61.6316L225.552 61.7592L225.948 61.8868H226.076C226.204 61.8868 226.862 61.7592 226.99 60.7114C226.908 60.3884 226.777 60.0802 226.6 59.7979" fill="#3D1A12"/>
<path d="M230.277 55.6133C230.277 55.6133 225.311 54.9416 225.311 58.8777C225.289 58.9479 225.283 59.0216 225.292 59.0944C225.301 59.1671 225.324 59.2372 225.362 59.3003C225.399 59.3634 225.449 59.4181 225.508 59.461C225.568 59.5039 225.635 59.534 225.707 59.5494C225.707 59.5494 225.445 57.3328 226.883 56.547C227.951 56.0432 229.1 55.7339 230.277 55.6335" fill="#3D1A12"/>
<path d="M226.748 40.7084C226.359 40.0367 225.048 37.3096 224.396 36.2685C223.242 34.2933 221.932 32.4133 220.479 30.6465" fill="#803416"/>
<path d="M220.868 36.5303C221.905 37.4497 222.711 38.6002 223.22 39.8887C224.502 42.6409 225.593 45.4776 226.486 48.3789" fill="#803416"/>
<path d="M203.229 67.7505C203.51 68.4268 203.735 69.1256 203.901 69.8394C203.961 69.4629 203.931 69.0776 203.814 68.7146C203.698 68.3517 203.497 68.0214 203.229 67.7505" fill="#9C4425"/>
<path d="M264.649 100.536C264.649 100.536 254.455 116.999 227.924 121.042C227.797 121.042 257.855 121.714 264.649 100.536Z" fill="#E2DDC9"/>
<path d="M246.351 142.342C246.351 142.342 227.649 132.542 193.034 131.514C193.034 131.514 232.501 138.574 246.351 142.362" fill="#E2DDC9"/>
<path d="M183.358 108.005C183.358 108.005 177.478 114.272 185.058 121.983C183.821 119.898 183.032 117.578 182.739 115.172C182.446 112.766 182.657 110.325 183.358 108.005Z" fill="#E2DDC9"/>
<path d="M178.002 132.542C178.002 132.542 184.93 143.517 207.536 144.034C207.409 144.168 178.136 146.257 178.002 132.542" fill="#E2DDC9"/>
<path d="M275.105 121.042C275.105 121.042 273.667 137.244 244.657 131.494C244.657 131.494 277.854 140.508 275.105 121.042Z" fill="#E2DDC9"/>
<path d="M198.263 99.0981C198.263 99.0981 189.897 113.338 216.293 109.55C216.427 109.55 194.863 111.773 198.263 99.0981Z" fill="#E2DDC9"/>
<path d="M240.995 102.363C240.995 102.363 254.59 91.6559 250.538 65.6548C250.538 65.6548 259.556 90.9976 240.995 102.363Z" fill="#E2DDC9"/>
<path d="M66.8987 86.9712C87.1857 100.982 95.2818 103.854 104.937 91.0382C111.875 98.2152 112.965 138.077 108.286 164.483C81.7309 115.628 57.09 92.4736 66.8987 86.9712Z" fill="#F7B101"/>
<path d="M16.8992 137.45C18.2568 123.119 20.7762 116.16 27.9038 107.785C46.2823 111.887 50.474 120.852 50.3919 145.105C49.4417 169.678 47.9257 182.635 43.9327 204.675C45.0082 228.221 40.8224 265.679 39.6263 268.55C38.4303 271.421 23.6849 271.17 12.1144 268.55C11.9122 258.422 11.8846 252.684 12.8321 241.756C11.8861 222.322 11.8739 212.959 13.5498 201.325C12.9606 185.786 12.204 177.129 14.2676 162.091C15.6459 152.505 16.3091 147.119 16.8992 137.45Z" fill="url(#paint0_linear_569_4229)"/>
<path d="M36.5158 101.325C47.268 95.2799 53.6283 92.319 65.4631 87.689C64.6593 97.1031 68.4663 106.269 78.1426 125.249L109.243 160.416C111.541 208.874 112.722 236.065 113.549 284.818H43.932C45.7961 261.027 46.4363 250.036 45.8459 240.56C43.9384 227.361 43.9706 219.009 43.932 204.196C44.5953 199.412 44.6948 196.678 44.6497 191.756C46.0983 183.009 46.6585 179.925 46.5636 174.531C48.1634 166.572 49.0157 160.373 50.3914 145.105C48.177 120.124 42.4562 113.213 27.9033 107.785C31.5113 104.585 33.4355 103.055 36.5158 101.325Z" fill="url(#paint1_linear_569_4229)"/>
<g filter="url(#filter0_d_569_4229)">
<path fill-rule="evenodd" clip-rule="evenodd" d="M78.9758 115.363L67.4841 95.4688L66.8985 86.9714C68.8123 84.8183 70.7262 82.6652 71.6832 79.3159C69.7236 80.3168 68.6002 80.9761 66.5127 82.426C63.2498 84.8276 61.6614 87.5405 60.3854 97.9297C60.2545 98.4246 60.2447 98.6941 60.3624 99.1602L64.6736 118.601C64.8884 120.21 65.3812 120.285 66.5127 119.866L74.0911 117.335L68.4554 125.751C68.0685 126.226 68.1078 126.515 68.6982 127.073L108.525 159.699L78.9758 115.363Z" fill="#F1F2F3"/>
</g>
<path d="M139.865 131.708C138.715 125.34 138.321 118.812 136.755 117.354C122.371 169.622 122.333 199.887 131.013 254.914C140.036 257.896 144.91 254.421 153.74 252.043C152.517 240.138 152.294 232.917 149.913 222.378C146.756 207.016 145.228 197.07 143.453 174.292C142.966 157.279 142.243 153.615 140.822 145.344C140.822 140.167 140.475 137.004 139.865 131.708Z" fill="#E3E5E4"/>
<g filter="url(#filter1_d_569_4229)">
<path d="M128.86 107.067C120.063 99.3054 115.153 95.0487 106.851 89.603C116.181 114.723 113.071 135.031 108.286 160.416C109.346 194.33 109.413 208.313 108.406 222.737C108.626 252.219 108.89 266.341 109.721 285.058H133.406L126.946 185.297L136.994 117.593C136.202 113.941 134.347 111.622 128.86 107.067Z" fill="#E4E6E5"/>
</g>
<g filter="url(#filter2_d_569_4229)">
<ellipse cx="112.066" cy="163.718" rx="2.39235" ry="2.39234" transform="rotate(-4.77694 112.066 163.718)" fill="#D7D7D7"/>
</g>
<g filter="url(#filter3_d_569_4229)">
<ellipse cx="112.544" cy="190.033" rx="2.39234" ry="2.39234" transform="rotate(-4.77693 112.544 190.033)" fill="#D7D7D7"/>
</g>
<g filter="url(#filter4_d_569_4229)">
<ellipse cx="112.066" cy="223.526" rx="2.39235" ry="2.39234" transform="rotate(-4.77694 112.066 223.526)" fill="#D7D7D7"/>
</g>
<g filter="url(#filter5_d_569_4229)">
<ellipse cx="112.544" cy="255.105" rx="2.39234" ry="2.39234" transform="rotate(-4.77693 112.544 255.105)" fill="#D7D7D7"/>
</g>
<path fill-rule="evenodd" clip-rule="evenodd" d="M112.027 163.24C112.553 163.196 112.971 163.054 112.96 162.922C112.949 162.791 112.513 162.72 111.987 162.764C111.46 162.808 111.042 162.95 111.053 163.082C111.064 163.213 111.5 163.284 112.027 163.24ZM112.146 164.671C112.673 164.627 113.091 164.484 113.08 164.353C113.069 164.221 112.633 164.15 112.106 164.194C111.58 164.238 111.162 164.38 111.173 164.512C111.184 164.644 111.62 164.715 112.146 164.671Z" fill="#C3C7C6"/>
<path fill-rule="evenodd" clip-rule="evenodd" d="M112.504 189.556C113.031 189.512 113.449 189.37 113.438 189.238C113.427 189.107 112.991 189.035 112.464 189.079C111.938 189.124 111.52 189.266 111.531 189.398C111.542 189.529 111.978 189.6 112.504 189.556ZM112.624 190.987C113.15 190.943 113.568 190.8 113.557 190.669C113.546 190.537 113.111 190.466 112.584 190.51C112.057 190.554 111.639 190.696 111.65 190.828C111.661 190.96 112.097 191.031 112.624 190.987Z" fill="#C3C7C6"/>
<path fill-rule="evenodd" clip-rule="evenodd" d="M112.027 223.049C112.553 223.005 112.971 222.863 112.96 222.731C112.949 222.599 112.513 222.528 111.987 222.572C111.46 222.616 111.042 222.759 111.053 222.89C111.064 223.022 111.5 223.093 112.027 223.049ZM112.146 224.479C112.673 224.435 113.091 224.293 113.08 224.161C113.069 224.03 112.633 223.959 112.106 224.003C111.58 224.047 111.162 224.189 111.173 224.321C111.184 224.452 111.62 224.523 112.146 224.479Z" fill="#C3C7C6"/>
<path fill-rule="evenodd" clip-rule="evenodd" d="M112.504 254.628C113.031 254.584 113.449 254.442 113.438 254.31C113.427 254.178 112.991 254.107 112.464 254.151C111.938 254.195 111.52 254.338 111.531 254.469C111.542 254.601 111.978 254.672 112.504 254.628ZM112.624 256.058C113.15 256.014 113.568 255.872 113.557 255.74C113.546 255.609 113.111 255.538 112.584 255.582C112.057 255.626 111.639 255.768 111.65 255.9C111.661 256.031 112.097 256.103 112.624 256.058Z" fill="#C3C7C6"/>
<g filter="url(#filter6_d_569_4229)">
<path fill-rule="evenodd" clip-rule="evenodd" d="M99.1953 82.665C100.152 85.6176 101.587 89.4461 104.486 91.684L109.705 112.826L108.286 160.655L120.319 119.231C120.487 118.79 120.487 118.789 120.248 118.551L120.248 118.55L115.889 115.164L120.565 114.284C121.488 114.149 121.74 113.878 120.94 112.467L112.353 93.8371C112.312 93.747 112.262 93.6296 112.206 93.4971C111.992 92.9941 111.685 92.2727 111.396 91.9951C107.634 86.4455 104.954 84.4519 99.1953 82.665Z" fill="#E9EAEC"/>
</g>
<path d="M51.1417 190.612C51.1417 190.612 46.9114 209.656 55.3887 239.722C55.3887 239.722 51.3343 203.659 51.1609 190.606" fill="url(#paint2_radial_569_4229)"/>
<path d="M52.2276 242.03C52.2276 242.03 47.9973 261.074 56.4746 291.14C56.4746 291.14 52.4202 255.077 52.2468 242.024" fill="url(#paint3_radial_569_4229)"/>
</g>
<defs>
<filter id="filter0_d_569_4229" x="56.2803" y="77.3159" width="56.2451" height="88.3828" filterUnits="userSpaceOnUse" color-interpolation-filters="sRGB">
<feFlood flood-opacity="0" result="BackgroundImageFix"/>
<feColorMatrix in="SourceAlpha" type="matrix" values="0 0 0 0 0 0 0 0 0 0 0 0 0 0 0 0 0 0 127 0" result="hardAlpha"/>
<feOffset dy="2"/>
<feGaussianBlur stdDeviation="2"/>
<feComposite in2="hardAlpha" operator="out"/>
<feColorMatrix type="matrix" values="0 0 0 0 0 0 0 0 0 0 0 0 0 0 0 0 0 0 0.25 0"/>
<feBlend mode="normal" in2="BackgroundImageFix" result="effect1_dropShadow_569_4229"/>
<feBlend mode="normal" in="SourceGraphic" in2="effect1_dropShadow_569_4229" result="shape"/>
</filter>
<filter id="filter1_d_569_4229" x="100.851" y="85.603" width="38.1436" height="203.455" filterUnits="userSpaceOnUse" color-interpolation-filters="sRGB">
<feFlood flood-opacity="0" result="BackgroundImageFix"/>
<feColorMatrix in="SourceAlpha" type="matrix" values="0 0 0 0 0 0 0 0 0 0 0 0 0 0 0 0 0 0 127 0" result="hardAlpha"/>
<feOffset dx="-2"/>
<feGaussianBlur stdDeviation="2"/>
<feComposite in2="hardAlpha" operator="out"/>
<feColorMatrix type="matrix" values="0 0 0 0 0 0 0 0 0 0 0 0 0 0 0 0 0 0 0.25 0"/>
<feBlend mode="normal" in2="BackgroundImageFix" result="effect1_dropShadow_569_4229"/>
<feBlend mode="normal" in="SourceGraphic" in2="effect1_dropShadow_569_4229" result="shape"/>
</filter>
<filter id="filter2_d_569_4229" x="105.673" y="159.325" width="12.7852" height="12.7852" filterUnits="userSpaceOnUse" color-interpolation-filters="sRGB">
<feFlood flood-opacity="0" result="BackgroundImageFix"/>
<feColorMatrix in="SourceAlpha" type="matrix" values="0 0 0 0 0 0 0 0 0 0 0 0 0 0 0 0 0 0 127 0" result="hardAlpha"/>
<feOffset dy="2"/>
<feGaussianBlur stdDeviation="2"/>
<feComposite in2="hardAlpha" operator="out"/>
<feColorMatrix type="matrix" values="0 0 0 0 0 0 0 0 0 0 0 0 0 0 0 0 0 0 0.25 0"/>
<feBlend mode="normal" in2="BackgroundImageFix" result="effect1_dropShadow_569_4229"/>
<feBlend mode="normal" in="SourceGraphic" in2="effect1_dropShadow_569_4229" result="shape"/>
</filter>
<filter id="filter3_d_569_4229" x="106.151" y="185.64" width="12.7852" height="12.7852" filterUnits="userSpaceOnUse" color-interpolation-filters="sRGB">
<feFlood flood-opacity="0" result="BackgroundImageFix"/>
<feColorMatrix in="SourceAlpha" type="matrix" values="0 0 0 0 0 0 0 0 0 0 0 0 0 0 0 0 0 0 127 0" result="hardAlpha"/>
<feOffset dy="2"/>
<feGaussianBlur stdDeviation="2"/>
<feComposite in2="hardAlpha" operator="out"/>
<feColorMatrix type="matrix" values="0 0 0 0 0 0 0 0 0 0 0 0 0 0 0 0 0 0 0.25 0"/>
<feBlend mode="normal" in2="BackgroundImageFix" result="effect1_dropShadow_569_4229"/>
<feBlend mode="normal" in="SourceGraphic" in2="effect1_dropShadow_569_4229" result="shape"/>
</filter>
<filter id="filter4_d_569_4229" x="105.673" y="219.134" width="12.7852" height="12.7852" filterUnits="userSpaceOnUse" color-interpolation-filters="sRGB">
<feFlood flood-opacity="0" result="BackgroundImageFix"/>
<feColorMatrix in="SourceAlpha" type="matrix" values="0 0 0 0 0 0 0 0 0 0 0 0 0 0 0 0 0 0 127 0" result="hardAlpha"/>
<feOffset dy="2"/>
<feGaussianBlur stdDeviation="2"/>
<feComposite in2="hardAlpha" operator="out"/>
<feColorMatrix type="matrix" values="0 0 0 0 0 0 0 0 0 0 0 0 0 0 0 0 0 0 0.25 0"/>
<feBlend mode="normal" in2="BackgroundImageFix" result="effect1_dropShadow_569_4229"/>
<feBlend mode="normal" in="SourceGraphic" in2="effect1_dropShadow_569_4229" result="shape"/>
</filter>
<filter id="filter5_d_569_4229" x="106.151" y="250.712" width="12.7852" height="12.7852" filterUnits="userSpaceOnUse" color-interpolation-filters="sRGB">
<feFlood flood-opacity="0" result="BackgroundImageFix"/>
<feColorMatrix in="SourceAlpha" type="matrix" values="0 0 0 0 0 0 0 0 0 0 0 0 0 0 0 0 0 0 127 0" result="hardAlpha"/>
<feOffset dy="2"/>
<feGaussianBlur stdDeviation="2"/>
<feComposite in2="hardAlpha" operator="out"/>
<feColorMatrix type="matrix" values="0 0 0 0 0 0 0 0 0 0 0 0 0 0 0 0 0 0 0.25 0"/>
<feBlend mode="normal" in2="BackgroundImageFix" result="effect1_dropShadow_569_4229"/>
<feBlend mode="normal" in="SourceGraphic" in2="effect1_dropShadow_569_4229" result="shape"/>
</filter>
<filter id="filter6_d_569_4229" x="95.1953" y="80.665" width="30.2246" height="85.9905" filterUnits="userSpaceOnUse" color-interpolation-filters="sRGB">
<feFlood flood-opacity="0" result="BackgroundImageFix"/>
<feColorMatrix in="SourceAlpha" type="matrix" values="0 0 0 0 0 0 0 0 0 0 0 0 0 0 0 0 0 0 127 0" result="hardAlpha"/>
<feOffset dy="2"/>
<feGaussianBlur stdDeviation="2"/>
<feComposite in2="hardAlpha" operator="out"/>
<feColorMatrix type="matrix" values="0 0 0 0 0 0 0 0 0 0 0 0 0 0 0 0 0 0 0.25 0"/>
<feBlend mode="normal" in2="BackgroundImageFix" result="effect1_dropShadow_569_4229"/>
<feBlend mode="normal" in="SourceGraphic" in2="effect1_dropShadow_569_4229" result="shape"/>
</filter>
<linearGradient id="paint0_linear_569_4229" x1="11.8752" y1="267.354" x2="77.6647" y2="-15.8995" gradientUnits="userSpaceOnUse">
<stop stop-color="#E5E7E6"/>
<stop offset="1" stop-color="#D4D4D4"/>
</linearGradient>
<linearGradient id="paint1_linear_569_4229" x1="105.894" y1="211.852" x2="46.3244" y2="244.388" gradientUnits="userSpaceOnUse">
<stop stop-color="#E4E8E9"/>
<stop offset="0.479167" stop-color="#E4E6E5"/>
<stop offset="1" stop-color="#D3D5D3"/>
</linearGradient>
<radialGradient id="paint2_radial_569_4229" cx="0" cy="0" r="1" gradientUnits="userSpaceOnUse" gradientTransform="translate(20.4082 217.024) rotate(-5.26154) scale(38.1966 169.33)">
<stop stop-color="#C6C8C5"/>
<stop offset="1" stop-color="#C6C8C5" stop-opacity="0"/>
</radialGradient>
<radialGradient id="paint3_radial_569_4229" cx="0" cy="0" r="1" gradientUnits="userSpaceOnUse" gradientTransform="translate(21.4941 268.442) rotate(-5.26154) scale(38.1966 169.33)">
<stop stop-color="#C6C8C5"/>
<stop offset="1" stop-color="#C6C8C5" stop-opacity="0"/>
</radialGradient>
<clipPath id="clip0_569_4229">
<rect width="300" height="300" fill="white"/>
</clipPath>
</defs>
</svg>
