<svg width="300" height="300" viewBox="0 0 300 300" fill="none" xmlns="http://www.w3.org/2000/svg">
<g clip-path="url(#clip0_569_7538)">
<path d="M90.2832 93.9625C87.0419 94.434 82.7988 97.9699 82.7988 97.9699C82.7988 97.9699 77.0824 102.272 74.784 101.211L72.191 100.209L68.5961 96.3787L69.1265 93.8447C69.1265 93.8447 70.3052 92.0177 70.1873 91.6642C70.1873 91.6642 73.4875 90.2498 74.5483 88.3639L82.2095 89.3069C82.8577 89.3658 87.867 89.2479 89.1046 88.6586C90.1653 88.1871 90.3421 86.537 90.4011 85.712C90.4011 85.4173 90.2243 85.1816 89.9296 85.1227L85.3329 84.4744L75.0197 81.8814C75.0197 81.8814 71.6017 80.5849 70.0105 82.8243L65.5906 86.4781C65.5906 86.4781 64.8244 80.8795 65.4727 79.1705C65.4727 79.1705 66.3567 72.2165 67.2407 70.8611C68.1247 69.5056 70.5409 60.9015 70.5409 60.9015C70.5409 60.9015 70.3641 56.7173 66.7103 58.0727L65.7084 61.4319L63.5279 65.3214C63.5279 65.3214 64.7655 60.1354 60.2277 61.1962L58.7544 65.7929L56.4561 71.9808C56.4561 71.9808 55.9257 69.3877 52.0361 70.6842L53.0969 74.1613L53.8041 80.9974L54.1577 86.4192L54.5113 95.6716C54.5702 98.0289 54.4524 100.445 54.1577 102.743L54.0988 103.038C53.922 104.452 53.9809 105.926 54.3934 107.34C54.9238 109.226 55.0417 112.408 56.5739 118.361C57.8115 123.311 58.3419 128.438 57.9883 133.506C57.4579 141.698 56.6918 153.484 56.1614 157.609C54.5702 170.103 53.4505 226.089 68.655 230.568C88.9278 236.52 116.98 190.553 116.98 190.553C116.98 190.553 94.9389 144.055 82.9756 181.713L74.4893 121.484C74.4893 121.484 74.784 116.416 75.1965 115.178C75.9037 113.174 77.0234 111.289 78.4967 109.697C80.2058 107.812 82.2095 106.338 84.7436 104.983C85.4508 104.57 86.2169 104.217 86.8651 103.686C88.2206 102.508 88.3384 100.209 89.8707 99.2664C90.6368 98.736 93.8191 97.1449 93.8191 97.1449C93.8191 97.1449 93.5245 93.491 90.2832 93.9625Z" fill="#893B21"/>
<path d="M56.457 71.981C57.0464 73.6311 57.5767 75.3401 58.1071 77.0491C58.3429 77.8742 58.5786 78.7582 58.8143 79.6422C59.0501 80.5261 59.2269 81.3512 59.4036 82.2352C59.5804 83.1192 59.7572 84.0031 59.8751 84.8871C60.0519 85.7711 60.1698 86.6551 60.2876 87.5391C60.4055 88.4231 60.4644 89.3071 60.5234 90.191C60.5234 90.6625 60.5234 91.075 60.5234 91.5465C60.5234 91.7822 60.4644 92.0179 60.4644 92.1947C60.4055 92.4305 60.3466 92.6073 60.2876 92.843C60.4055 92.6662 60.4055 92.4305 60.4644 92.1947C60.4644 91.959 60.5234 91.7822 60.5234 91.5465C60.5234 91.075 60.5234 90.6625 60.4644 90.25C60.4055 89.366 60.2876 88.482 60.1698 87.598C60.0519 86.714 59.8751 85.8301 59.6983 85.005C59.5804 84.121 59.4036 83.237 59.2268 82.412C59.1679 81.9995 59.0501 81.528 58.9322 81.1155C58.8143 80.7029 58.6965 80.2315 58.6375 79.8189C58.4018 78.935 58.225 78.1099 57.9893 77.2259C57.7535 76.3419 57.5178 75.5169 57.2821 74.6329C57.1642 74.2204 57.0464 73.7489 56.9285 73.3364L56.457 71.981Z" fill="#DA7E5C"/>
<path d="M63.5278 65.3208C63.4689 65.9691 63.41 66.6762 63.2921 67.3245C63.2332 67.9728 63.1153 68.6799 63.0564 69.3282L62.8207 71.3319L62.5849 73.3356C62.4081 74.691 62.2313 76.0465 62.0545 77.343C61.8188 78.6984 61.642 79.9949 61.4063 81.3504V81.2914C61.5831 81.7629 61.7009 82.2344 61.7599 82.6469C61.8188 83.1184 61.8777 83.5898 61.9367 84.0613V84.2381C61.9367 84.297 61.9367 84.3559 61.9367 84.4149C61.9367 84.5327 61.9367 84.6506 61.9367 84.7685C61.9367 85.0042 61.9367 85.2399 61.8777 85.4756C61.8777 85.5935 61.8777 85.7114 61.8188 85.8292L61.7599 86.1828C61.7599 86.2418 61.7599 86.3007 61.7599 86.3596L61.7009 86.5364L61.642 86.89L61.7009 86.5364V86.3596C61.7009 86.3007 61.7009 86.2418 61.7009 86.1828L61.7599 85.8292C61.7599 85.7114 61.7599 85.5935 61.7599 85.4756C61.7599 85.2399 61.7599 85.0042 61.7599 84.7685C61.7599 84.6506 61.7599 84.5327 61.7599 84.4149C61.7599 84.3559 61.7599 84.297 61.7599 84.2381V84.0613C61.7009 83.5898 61.642 83.1184 61.5831 82.6469C61.4652 82.1754 61.3474 81.7629 61.2295 81.2914C61.4063 79.936 61.642 78.5806 61.8188 77.2841L61.9956 76.2822C62.0545 75.9286 62.1135 75.634 62.1135 75.2804L62.4081 73.2767L62.7028 71.273L62.9975 69.2693C63.1153 68.621 63.1743 67.9138 63.2921 67.2656C63.3511 66.6762 63.41 66.028 63.5278 65.3208Z" fill="#DA7E5C"/>
<path d="M72.3086 99.9734C72.9568 100.798 73.5462 101.623 74.0766 102.507C74.3712 102.92 74.607 103.391 74.8427 103.863C75.0784 104.334 75.3141 104.806 75.5499 105.277C75.7856 105.749 75.9624 106.22 76.1392 106.692C76.316 107.163 76.4928 107.694 76.6696 108.165C76.7875 108.636 76.9642 109.167 77.0232 109.697C77.141 110.228 77.2 110.699 77.2 111.229C77.141 110.699 77.0232 110.228 76.9053 109.697C76.7875 109.226 76.6696 108.695 76.4928 108.224C76.316 107.752 76.1392 107.281 75.9624 106.751C75.7856 106.279 75.5499 105.808 75.3731 105.336C75.1374 104.865 74.9016 104.393 74.6659 103.981C74.4302 103.509 74.1944 103.097 73.9587 102.625C73.723 102.154 73.4283 101.741 73.1926 101.27C72.839 100.798 72.6033 100.386 72.3086 99.9734Z" fill="#DA7E5C"/>
<path d="M68.5947 96.3789C68.0643 96.9093 67.5929 97.4397 67.1214 98.029C66.8857 98.3237 66.65 98.6183 66.4142 98.913C66.1785 99.2077 66.0017 99.5023 65.766 99.797C65.6481 99.9738 65.5892 100.092 65.4713 100.268C65.3534 100.445 65.2945 100.563 65.1767 100.74C65.0588 100.917 64.9998 101.035 64.9409 101.211C64.882 101.388 64.7641 101.565 64.7052 101.683C64.4105 102.331 64.2337 103.097 64.1748 103.804C64.1748 103.038 64.2927 102.331 64.5873 101.624C64.7052 101.27 64.882 100.917 65.0588 100.622C65.2356 100.268 65.4124 99.9738 65.6481 99.6791C66.0606 99.0309 66.5321 98.5005 67.0035 97.9112C67.2393 97.6165 67.5339 97.3808 67.7697 97.0861C68.0643 96.8504 68.3001 96.6146 68.5947 96.3789Z" fill="#DA7E5C"/>
<path d="M65.5312 86.478C65.8259 87.0084 66.1206 87.4799 66.4742 87.9513C66.8278 88.4228 67.1814 88.8942 67.5939 89.3068L67.7118 89.4836L67.8885 89.6604C68.0064 89.7782 68.0653 89.8961 68.1832 89.955C68.4189 90.1318 68.5957 90.3676 68.8315 90.5444C69.244 90.9569 69.7154 91.3105 70.1869 91.6051C69.6565 91.3105 69.1851 91.0158 68.7136 90.6033C68.4779 90.4265 68.2421 90.1908 68.0653 90.014C67.9475 89.8961 67.8296 89.7782 67.7707 89.7193L67.5939 89.5425L67.4171 89.3657C67.2992 89.2478 67.2403 89.13 67.1224 89.0121L66.8278 88.6585L66.592 88.3049C66.5331 88.1871 66.4152 88.0692 66.3563 87.9513C66.0616 87.5977 65.767 87.0674 65.5312 86.478Z" fill="#DA7E5C"/>
<path d="M52.802 73.2179C52.802 73.2179 51.8002 70.9785 52.0359 70.6838L52.802 73.2179Z" fill="#F8B89B"/>
<path d="M85.6278 84.533C85.6278 84.533 83.9188 85.9473 86.5118 86.7135C89.1048 87.4796 90.2834 86.8903 90.2834 86.8903C90.4013 86.4188 90.4602 85.9473 90.4602 85.4169C90.4602 85.2401 90.3424 85.1223 90.1656 85.0634L85.6278 84.533Z" fill="#F8B89B"/>
<path d="M89.5176 99.6196C89.5176 99.6196 91.4623 97.2623 92.0517 97.0855C92.8178 96.8498 93.6428 96.614 93.6428 96.614L93.8786 97.3212C93.9375 97.3212 89.6354 99.4428 89.5176 99.6196Z" fill="#F8B89B"/>
<path d="M65.708 61.6082C65.708 61.6082 67.5349 60.901 68.1832 57.8365C67.7117 57.7776 67.1224 57.7187 66.7099 58.0723L65.708 61.6082Z" fill="#F8B89B"/>
<path d="M59.4023 63.9065L59.9327 61.3135C60.0506 61.1367 60.4042 61.2545 60.4042 61.2545L59.4023 63.9065Z" fill="#F8B89B"/>
<path d="M82.9763 182.007C83.212 183.127 83.4477 184.246 83.5656 185.366C83.7424 186.486 83.8602 187.605 84.037 188.725C84.1549 189.845 84.2728 190.965 84.3317 192.084C84.3906 193.204 84.4496 194.324 84.5085 195.443L84.7442 198.803L84.921 202.162C85.0389 204.401 85.1568 206.641 85.2746 208.939H85.1568C84.8621 206.699 84.6264 204.46 84.3906 202.221L84.037 198.861L83.6834 195.502C83.5656 194.383 83.4477 193.263 83.2709 192.143C83.1531 191.023 83.0352 189.904 82.9763 188.784C82.9173 187.664 82.8584 186.545 82.8584 185.425C82.8584 184.305 82.8584 183.185 82.9173 182.007H82.9763Z" fill="#DA7E5C"/>
<path d="M246.927 648.339C246.75 648.515 246.573 648.928 246.337 649.105C244.628 650.46 242.742 651.167 240.621 651.58H240.444C228.481 654.585 216.164 657.296 203.847 659.359C197.777 660.302 191.53 661.068 185.46 661.421C178.447 662.011 171.611 662.188 164.598 661.775C140.731 660.832 117.924 652.7 95.1759 646.629C91.1685 645.687 86.8075 644.154 85.3342 640.56C84.7449 638.85 84.5681 637.141 84.9806 635.432C85.9235 627.83 89.6952 620.817 91.2274 613.451C91.4042 612.861 91.4042 612.331 91.581 611.742C92.3472 606.614 92.5239 601.311 92.7007 596.183C92.8775 592.589 92.8775 589.171 93.0543 585.752C93.6437 574.732 94.4098 529.413 94.7634 491.873C94.7634 485.803 94.9402 479.91 94.9402 474.429C94.9402 468.006 95.117 462.112 95.117 456.985C95.2938 449.383 95.2938 443.549 95.4706 440.484C95.4706 440.131 95.4706 439.895 95.4706 439.541C95.8242 429.11 96.2367 418.679 96.4135 408.425C96.5903 405.007 96.5903 401.412 96.5903 397.994C96.5903 397.817 96.5903 397.817 96.5903 397.64C96.9439 384.911 96.9439 372.241 96.9439 359.511C96.9439 357.213 96.9439 354.973 96.9439 352.675C96.9439 346.959 96.9439 341.124 97.1207 335.231C97.2975 329.338 97.4743 323.68 98.0636 317.787C98.6529 311.894 99.419 306.001 100.539 300.343C101.482 295.393 102.601 290.678 104.134 285.905C106.196 279.245 108.671 272.999 110.557 266.398C112.089 261.86 113.209 257.323 114.152 252.372C115.508 245.183 113.975 237.934 112.266 230.744C111.913 229.212 111.677 227.915 111.323 226.383C110.734 223.908 110.38 221.256 109.968 218.781C109.791 217.072 109.791 215.363 109.968 213.477C110.145 207.053 111.323 200.217 107.493 196.033C106.903 195.444 106.373 194.913 105.607 194.501C102.601 192.438 97.6511 189.374 92.7007 186.545C92.5239 186.545 92.5239 186.368 92.3471 186.368C89.5184 184.659 86.6307 182.95 84.3913 181.418C83.2716 180.652 82.0929 179.886 81.3857 179.355C81.3857 179.178 81.3857 179.002 81.5625 178.589C83.2716 166.095 86.1003 155.252 91.4042 145.941C95.4116 138.751 112.266 136.629 120.399 133.977C120.576 134.331 122.697 138.692 126.823 143.642C127.765 144.762 128.708 145.941 129.828 147.06C134.366 151.598 140.436 156.136 148.215 158.081C149.747 158.434 151.221 158.67 152.753 158.847C175.147 160.379 196.363 136.452 196.363 136.452C207.383 137.808 220.053 140.46 224.061 146.53C230.72 156.607 234.669 181.83 234.669 181.83L206.617 192.615C205.851 198.331 204.908 205.521 204.319 213.123C204.319 214.066 204.142 214.832 204.142 215.775C203.788 220.49 203.376 225.617 203.199 230.567C203.022 236.461 202.845 242.354 203.022 248.011C203.199 253.315 203.611 258.266 204.142 262.45C204.319 263.393 204.495 264.336 204.731 265.278C204.731 265.455 204.731 265.455 204.731 265.632C205.851 271.349 207.56 277.006 209.446 282.722C210.978 287.437 212.274 292.034 213.453 296.925C213.63 298.045 213.807 298.988 214.219 300.166C217.814 317.257 218.934 334.878 220.112 352.322C220.466 358.215 220.879 363.872 221.468 369.765C221.468 370.119 221.468 370.708 221.645 371.298C222.234 376.602 222.588 381.906 223.177 387.209C223.766 393.103 224.297 398.76 224.886 404.653C225.475 410.547 226.006 416.204 226.595 422.097C227.184 427.991 227.715 433.648 228.304 439.541C228.658 443.313 229.07 447.144 229.424 450.915C230.779 464.588 231.31 478.201 231.899 491.873C232.076 497.766 232.252 503.424 232.665 509.317C233.254 524.875 234.02 540.434 235.671 555.992C235.847 557.877 236.024 559.763 236.26 561.472C236.849 567.189 237.38 573.023 237.969 578.916C238.558 585.34 239.089 591.822 239.501 598.246C240.444 610.563 239.324 624.412 245.571 635.609C247.87 639.44 249.755 644.92 246.927 648.339Z" fill="#67131A"/>
<path d="M185.872 178.177V195.62H167.073H167.426V213.064H149.04V230.508H112.266V212.888H110.91C111.087 206.464 112.266 199.628 108.435 195.444C107.846 194.854 107.315 194.324 106.549 193.911C103.544 191.849 98.5935 188.784 93.6431 185.956C93.4663 185.956 93.4663 185.779 93.2895 185.779C90.4608 184.07 87.5731 182.361 85.3337 180.828C84.214 180.062 83.0353 179.296 82.3281 178.766C82.3281 178.589 82.3281 178.412 82.5049 178H93.5253V160.556H112.325V143.112H149.334V160.556H167.721V178H185.931V178.177H185.872Z" fill="#E73E25"/>
<path d="M203.316 247.775H204.259V230.332H185.872V247.775H167.485V265.219H185.872V282.663H204.259V300.107H214.337C214.16 298.988 213.983 298.045 213.57 296.866C212.451 292.152 211.095 287.378 209.563 282.663C207.854 276.947 205.968 271.466 204.848 265.573C204.848 265.396 204.848 265.396 204.848 265.219C204.672 264.277 204.495 263.334 204.259 262.391C203.847 258.03 203.493 253.079 203.316 247.775Z" fill="#E73E25"/>
<path d="M204.437 212.888V215.54C204.437 214.597 204.613 213.831 204.613 212.888H204.437Z" fill="#E73E25"/>
<path d="M185.874 317.375V334.819H167.487V352.263H149.1V369.707H112.326V352.263H97.7109C97.7109 346.546 97.7109 340.712 97.8877 334.819C98.0645 328.925 98.2413 323.268 98.8306 317.375C99.42 311.482 100.186 305.588 101.306 299.931H112.326V282.487H149.336V299.931H167.723V317.375H185.874Z" fill="#E73E25"/>
<path d="M214.867 157.668L220.937 158.434C222.292 158.611 223.589 159.024 224.708 159.79C229.659 162.265 237.438 169.867 236.495 191.849C234.963 223.731 230.071 237.168 232.134 249.897C234.197 262.627 241.976 281.544 230.778 329.161C230.778 329.161 228.303 354.974 234.02 369.176C235.375 371.828 236.318 374.893 236.672 377.898C236.672 381.14 235.316 381.14 234.786 386.62C234.432 390.392 234.786 394.753 231.957 399.114C230.837 401 229.128 405.773 226.653 407.659C224.591 409.191 222.646 407.482 220.937 408.425C215.986 410.9 213.158 410.311 211.861 408.425C209.975 406.127 217.165 404.83 218.874 403.475C218.874 403.475 212.038 406.48 210.741 404.064C209.445 401.648 217.754 398.171 218.874 396.639C221.173 392.631 222.469 388.27 222.469 383.556C222.115 380.315 221.349 376.896 220.171 373.891C220.171 373.891 218.108 379.961 218.815 382.79C219.581 385.618 219.581 396.639 213.865 395.873L212.333 395.696C212.156 393.81 212.156 391.924 212.333 389.979C212.509 386.208 211.39 376.896 211.743 374.421C212.097 371.946 213.806 357.567 216.694 351.85C219.522 346.134 218.403 312.601 212.922 299.518C207.441 286.435 211.036 262.745 210.859 259.857C210.683 257.028 209.15 243.945 209.74 238.995C210.093 236.343 209.386 211.297 209.916 189.668" fill="#893B21"/>
<path d="M135.014 118.832C135.957 115.06 136.369 105.926 135.014 102.154C134.66 101.034 134.071 100.091 132.951 99.3252C131.419 98.7359 129.946 98.9716 128.413 99.502C123.109 101.034 117.629 101.565 112.266 101.034C110.557 100.857 108.671 100.445 107.139 99.502C105.606 98.7359 104.664 97.0268 104.487 95.3178C104.664 93.432 106.196 91.1336 104.84 89.8371C104.487 89.4835 104.074 89.2478 103.721 89.071C102.601 88.3049 102.188 86.7726 102.955 85.6529C103.131 85.2993 103.544 85.0636 103.897 84.8868C102.542 84.2975 101.599 83.001 101.422 81.4687C101.422 81.2919 101.422 80.8794 101.599 80.7026C102.542 79.5829 104.074 76.9309 103.485 75.988C103.131 75.3987 102.365 75.3987 101.776 75.0451C100.833 74.279 100.42 72.9825 101.01 71.627C101.599 70.5073 102.365 69.5644 103.072 68.6215C105.371 65.2034 106.667 61.196 106.844 57.2475C107.021 53.2991 107.61 49.1149 108.553 45.1075C111.205 36.5623 118.631 30.1387 126.174 25.0116C137.371 17.5861 151.574 15.5235 164.48 17.9986C171.493 19.3541 191.412 25.4241 191.766 47.5826C191.942 55.7153 187.581 63.1408 182.69 69.5644C177.74 75.988 173.968 79.0525 172.082 86.8316C171.139 91.7819 171.139 96.909 172.436 101.8C175.264 114.117 182.277 125.138 190.057 135.392C193.475 139.576 196.48 144.114 198.602 149.064C200.488 154.014 200.664 160.084 197.659 164.445C192.944 171.282 161.239 165.565 149.099 160.438C143.205 157.963 137.135 156.077 131.655 153.248C127.47 150.95 119.868 147.178 119.515 142.64C119.456 140.047 130.299 127.731 135.014 118.832Z" fill="#893B21"/>
<path d="M109.202 82.7652C109.025 82.5884 108.848 82.4116 108.612 82.4116C107.846 81.6455 106.903 80.8794 105.961 80.5258C102.366 79.7597 101.776 80.349 101.776 80.7026C101.6 82.058 102.366 83.3545 103.485 84.1207C103.662 84.2975 103.839 84.2975 104.075 84.4743C102.719 85.2404 102.366 86.7726 103.132 88.0691C103.485 88.6584 103.898 89.012 104.487 89.1888L104.664 89.012L104.487 89.1888C104.487 89.1888 112.09 86.7137 115.095 83.2956C114.918 83.3545 113.032 85.0636 109.202 82.7652Z" fill="#3D1A12"/>
<path d="M108.259 74.22C108.082 74.0432 107.67 73.8665 107.316 73.8665C106.727 73.8665 106.373 73.8665 105.784 73.8665C105.607 73.8665 105.43 74.0432 105.194 74.0432C105.018 74.22 105.018 74.3968 105.018 74.3968L105.194 74.5736C105.784 74.7504 106.314 74.3968 106.903 74.3968C107.67 74.3968 108.259 74.7504 108.789 74.9862C109.202 75.3987 109.202 74.8094 108.259 74.22Z" fill="#3D1A12"/>
<path d="M114.33 48.054C117.571 47.8772 120.753 47.8772 124.171 48.054C124.937 48.054 125.704 48.2308 126.47 48.4076C129.122 49.763 131.184 52.0024 132.363 54.8312C132.363 54.8312 130.477 52.9454 129.711 52.356C125.939 49.7041 120.223 50.4702 115.685 51.0006C114.742 51.2953 113.563 48.4665 114.33 48.054Z" fill="#3D1A12"/>
<path d="M109.202 76.5185C109.202 76.5185 111.088 77.1078 111.854 76.3417C113.21 74.9862 111.854 72.9236 110.911 72.1575C114.152 77.1078 109.202 76.5185 109.202 76.5185Z" fill="#3D1A12"/>
<path d="M128.178 61.7263C127.824 61.5495 127.589 61.3727 127.235 61.1369C125.703 59.2511 123.463 57.8957 120.811 57.7189C119.692 57.5421 118.749 57.7189 117.806 57.7189C116.686 57.7189 115.743 57.8957 114.977 57.5421L112.325 56.4224L114.034 58.7207C114.624 59.4868 115.39 59.8404 116.097 59.8404C114.977 62.6692 115.92 64.7908 117.452 64.9675C118.985 65.1443 120.104 63.8478 120.694 62.4924C121.047 61.5495 121.047 60.7833 121.047 59.8404C122.933 60.194 124.642 61.3727 125.997 62.846C126.351 63.1996 126.94 63.4353 127.353 63.4353C127.765 63.4353 128.119 63.2585 128.473 63.0817L129.592 62.1388L128.178 61.7263Z" fill="#3D1A12"/>
<path d="M199.486 31.1994C200.606 28.3706 188.112 35.7372 186.993 33.0852C185.873 30.4333 186.05 30.0797 182.809 30.4333C184.518 29.0778 179.803 11.4571 176.915 12.8125C176.915 9.80696 151.103 7.09607 149.983 13.7554L149.394 14.109C139.729 14.2858 130.418 18.6468 123.994 25.8955C133.836 29.9029 137.077 31.0226 142.794 38.6249C148.097 45.8146 146.388 47.7004 149.217 56.0688C149.983 58.3672 151.103 61.0191 153.755 61.3727C155.287 61.3727 156.761 61.0191 158.116 60.253C160.945 58.8976 165.306 58.544 166.838 61.1959C167.958 63.0818 166.838 65.5569 165.306 67.266C163.597 68.7982 162.477 70.684 161.711 72.7467C161.534 74.1021 161.888 75.5754 161.711 76.9309C161.534 78.2863 160.591 79.7596 159.059 79.7596C160.945 85.2403 164.186 108.401 169.313 111.229C178.801 116.533 178.624 136.276 181.63 134.743C182.219 134.39 182.985 133.977 183.693 133.801C184.635 133.624 185.578 133.624 186.698 133.801C189.173 133.801 191.648 132.445 192.945 130.382C193.299 129.44 194.065 128.497 194.831 127.907C195.597 127.554 196.54 127.554 197.306 127.554C202.433 127.2 206.794 93.7855 206.205 88.8352C206.028 88.0691 206.028 87.1262 206.205 86.36C206.558 85.5939 207.324 84.8278 208.091 84.4742C213.394 80.7025 214.75 73.2771 210.919 67.9732C209.976 66.6177 208.857 65.498 207.324 64.7319C209.387 61.9031 210.743 58.4851 210.919 54.8902C211.096 51.1185 208.857 47.8772 205.203 46.5218C204.26 46.345 203.14 45.9325 203.14 45.1663C203.14 44.8128 203.317 44.4002 203.494 44.0466C205.792 40.0392 204.437 34.7353 200.488 32.4959C200.311 32.3191 200.135 32.3191 199.722 32.1423" fill="#3D1A12"/>
<path d="M237.438 170.81C236.672 170.456 236.083 170.044 235.553 169.278C235.199 168.335 235.199 167.392 235.376 166.449C236.142 161.499 233.667 155.429 228.363 154.898C228.186 152.07 227.243 149.418 225.357 147.119C224.238 146 222.882 144.821 221.35 144.114C221.173 143.76 220.996 143.348 220.761 143.171C221.703 141.462 222.646 139.753 223.413 138.044C225.711 134.036 224.355 128.968 220.407 126.67C218.698 125.314 216.4 125.138 214.691 126.08C216.046 124.725 218.109 121.896 219.052 116.592C221.703 101.034 221.114 70.8609 215.044 55.8921C211.803 47.9362 211.803 44.5181 207.854 36.9159C204.849 30.669 195.361 17.9396 188.525 15.7002C180.922 13.2251 176.561 10.2195 169.018 8.27474C162.005 6.38891 134.719 14.6984 133.953 18.3522C133.953 18.7058 135.839 17.4093 139.257 16.0538C140.613 15.4645 141.909 15.2877 143.441 15.1109C145.504 14.9341 147.626 15.7002 149.335 16.9967C170.786 46.5808 166.779 68.7982 168.664 90.78C169.607 103.097 164.48 122.662 158.41 126.257C152.694 129.499 143.618 130.029 137.725 130.265C134.896 130.265 132.009 129.675 129.357 128.556C129.003 128.379 128.767 128.202 128.414 127.966C127.294 127.2 126.351 126.257 125.585 125.668C124.996 124.902 124.465 124.136 123.876 123.37C123.287 122.603 122.344 122.427 121.577 122.427C116.097 122.25 107.375 122.603 102.778 125.668C99.36 127.966 94.999 134.567 94.999 134.567C89.8719 133.447 87.9861 147.826 85.1573 155.606C84.2144 157.904 83.4483 160.32 82.859 162.265C82.2696 164.328 81.5035 166.626 80.9731 169.101C79.4409 174.817 78.9105 180.888 79.0873 186.722C79.8534 199.215 103.367 200.158 112.679 200.748C125.408 201.514 137.902 200.924 150.395 199.215C164.244 197.33 178.447 194.501 191.53 189.374C197.954 191.083 204.26 193.145 210.86 194.678C218.993 196.387 227.95 196.976 235.729 194.088C239.914 192.556 243.685 189.727 245.217 185.72C246.927 179.886 242.919 173.639 237.438 170.81Z" fill="white"/>
<path d="M157.939 68.1499C157.762 67.9731 157.586 67.9731 157.35 67.9731H156.643L157.409 68.3267C157.762 68.5035 157.998 68.9161 157.998 69.2696C157.998 69.6232 157.644 70.6251 157.055 70.8019L156.466 70.9787L157.055 71.1555H157.232C157.409 71.1555 158.352 70.9787 158.587 69.4465C158.352 68.9161 158.175 68.3857 157.939 68.1499Z" fill="#3D1A12"/>
<path d="M163.301 62.0799C163.301 62.0799 156.111 61.137 156.111 66.7945C156.111 66.7945 155.935 67.5606 156.701 67.7374C156.701 67.7374 156.347 64.4961 158.41 63.3764C159.883 62.6692 161.592 62.3157 163.301 62.0799Z" fill="#3D1A12"/>
<path d="M158.175 40.5109C157.585 39.568 155.699 35.5606 154.756 34.0873C153.047 31.2585 151.162 28.3708 149.04 25.9546" fill="#803416"/>
<path d="M149.63 34.4407C151.162 35.7961 152.282 37.4462 153.048 39.391C154.934 43.3984 156.466 47.5236 157.763 51.7078" fill="#803416"/>
<path d="M123.994 79.7595C124.348 80.7024 124.76 81.8221 124.937 82.7651C125.173 81.6453 124.76 80.5256 123.994 79.7595Z" fill="#9C4425"/>
<path d="M213.159 127.377C213.159 127.377 198.367 151.245 159.884 157.138C159.648 157.138 203.317 158.081 213.159 127.377Z" fill="#E2DDC9"/>
<path d="M186.58 188.018C186.58 188.018 159.471 173.815 109.202 172.283C109.202 172.283 166.484 182.537 186.58 188.018Z" fill="#E2DDC9"/>
<path d="M95.1761 138.162C95.1761 138.162 86.6309 147.237 97.6512 158.434C94.0564 152.364 93.1134 144.998 95.1761 138.162Z" fill="#E2DDC9"/>
<path d="M87.3975 173.816C87.3975 173.816 97.4749 189.727 130.241 190.494C130.064 190.67 87.6332 193.735 87.3975 173.816Z" fill="#E2DDC9"/>
<path d="M228.305 157.138C228.305 157.138 226.242 180.652 184.105 172.284C184.164 172.284 232.312 185.367 228.305 157.138Z" fill="#E2DDC9"/>
<path d="M116.804 125.255C116.804 125.255 104.664 145.941 142.97 140.401C143.146 140.46 111.853 143.642 116.804 125.255Z" fill="#E2DDC9"/>
<path d="M178.801 130.029C178.801 130.029 198.543 114.471 192.65 76.754C192.65 76.695 205.733 113.528 178.801 130.029Z" fill="#E2DDC9"/>
<path d="M87.041 95.082C88.6358 95.082 89.9287 93.7891 89.9287 92.1943C89.9287 90.5995 88.6358 89.3066 87.041 89.3066C85.4462 89.3066 84.1533 90.5995 84.1533 92.1943C84.1533 93.7891 85.4462 95.082 87.041 95.082Z" fill="white"/>
<path d="M103.012 83.6492C103.012 83.6492 107.314 84.9457 109.848 84.5332C109.848 84.5332 105.546 85.2993 104.073 85.1814H103.306L103.778 84.5921L103.012 83.6492Z" fill="white"/>
</g>
<defs>
<clipPath id="clip0_569_7538">
<rect width="300" height="300" fill="white" transform="matrix(-1 0 0 1 300 0)"/>
</clipPath>
</defs>
</svg>
