<svg width="100" height="100" viewBox="0 0 100 100" fill="none" xmlns="http://www.w3.org/2000/svg">
<path d="M91.8468 36.7649C91.8006 36.8073 91.7081 36.8497 91.6618 36.8497C90.5984 37.0192 89.535 37.0616 88.4716 36.8921C87.4544 36.7226 86.4373 36.7226 85.4201 36.7226C85.4201 35.7902 85.4201 35.1968 85.3739 35.1544C85.1427 34.8154 84.8653 34.5187 84.5416 34.2644C83.432 33.3744 82.3223 32.3572 81.1665 31.5944L75.2946 27.6953C74.9247 27.441 74.5548 27.2291 74.0925 27.0595C74.0925 27.0595 74.0462 27.0595 74 27.0595C74.9247 26.7205 75.8032 26.3814 76.6816 26C80.1955 28.7124 83.8943 31.001 87.6394 33.4592C89.0727 34.3916 90.4597 35.1121 91.9393 36.2564C92.0317 36.3835 92.0317 36.6378 91.8468 36.7649Z" fill="#696A6D"/>
<path d="M86 37.5739C86 36.5536 86 35.9043 85.9549 35.858C85.7292 35.487 85.4585 35.1623 85.1426 34.8841C84.0595 33.9101 82.9765 32.7971 81.8483 31.9623L76.1171 27.6957C75.7561 27.4174 75.395 27.1855 74.9438 27C74.9438 27 74.8986 27 74.8535 27C73.5448 27.5565 72.2361 28.0667 70.8371 28.5768C65.2413 30.6638 59.104 32.658 53.3277 35.3478C52.6056 35.6725 51.8385 35.9507 51.0713 36.1826C50.3492 36.4145 47.0098 36.5072 46.2878 36.6C36.2243 38.1768 36.7659 37.1565 30.6736 37.8058C26.9281 38.1768 22.0994 39.058 17.3159 39.3826C17.361 47.4986 17.3159 62.4319 17 70.3623C17 70.8725 17.361 71.2899 17.8123 71.3362C20.0235 71.5681 26.1609 72.2174 32.8398 72.913C32.7946 72.4957 32.6141 69.342 32.6141 68.5536C32.6593 64.1015 32.569 59.9739 32.7044 55.7536C32.7044 55.5681 32.5239 54.8725 32.93 54.6406C33.3362 54.4087 36.4951 54.4551 37.9843 54.5478C39.2027 54.5014 38.7515 56.9594 38.7966 58.3043C38.932 60.8551 38.8869 63.4522 38.8869 66.0029C38.8869 67.4406 38.9771 73.0522 38.932 73.5159C45.9719 74.2116 52.4702 74.8609 54.3656 75C54.4559 75 54.5912 75 54.6815 74.9536C64.7901 72.0783 75.2596 69.7594 85.3682 66.9304C85.5939 66.9304 86 44.113 86 37.5739Z" fill="#F16B56"/>
<path d="M46.9802 56.3878C46.9802 56.9592 46.9802 57.5306 46.891 58.102C46.891 58.3061 46.8018 58.4694 46.7126 58.5918C46.4896 58.7959 46.1775 58.9184 45.8653 58.9184C45.1963 58.9592 44.572 59 43.9031 59C43.7693 59 43.5909 59 43.4571 58.9184C43.2341 58.7959 43.1003 58.551 43.1449 58.3061C43.1003 57.9796 43.0111 57.6531 43.0111 57.3673C43.0111 55.6939 42.9666 54.1429 43.0557 52.551C43.0557 52.5102 43.0557 52.4286 43.1003 52.3469C43.1449 52.3061 43.1895 52.2653 43.2341 52.2245C43.4571 52.1429 43.7693 52.0612 44.0369 52.0612C44.8396 51.9796 45.6423 51.9796 46.445 52.0612C47.0694 51.9388 46.9356 52.9592 46.9802 53.4898C47.0248 54.4694 46.9802 55.449 46.9802 56.3878Z" fill="#914520"/>
<path d="M38.9865 73C38.2928 73 37.5991 72.9538 36.955 72.8615C35.7162 72.8154 32.4955 72.5846 32.2477 72.4C32.2477 72.4 32.2477 72.4 32.2477 72.3538C32.1982 71.9384 32 68.7997 32 68.015C32.0495 63.584 31.9505 59.476 32.0991 55.2757C32.0991 55.0911 31.9009 54.3987 32.3468 54.1679C32.7928 53.9372 36.2613 53.9833 37.8964 54.0756C39.2342 54.0295 38.7387 56.4758 38.7883 57.8143C38.9369 60.353 38.8874 62.9378 38.8874 65.4764C38.9369 66.9996 39.036 72.5846 38.9865 73Z" fill="#914520"/>
<path d="M24 55.7471C24 56.2529 24 56.7126 23.8845 57.2184C23.8845 57.4023 23.8267 57.5402 23.7112 57.6782C23.4801 57.8621 23.1913 57.954 22.8448 57.954C22.2094 58 21.5162 58 20.8809 58C20.7076 58 20.5921 58 20.4188 57.954C20.1877 57.8161 20.0722 57.6322 20.13 57.4483C20.13 57.1724 20.0144 56.8966 20.0144 56.6207C20.0144 55.1494 19.9567 53.8161 20.0722 52.4368C20.0722 52.3908 20.0722 52.3448 20.13 52.2989C20.13 52.2529 20.1877 52.2069 20.2455 52.2069C20.4765 52.1149 20.7653 52.069 20.9964 52.069C21.8051 51.977 22.6137 51.977 23.4224 52.069C24.0578 51.977 23.8845 52.8506 23.9422 53.3103C24 54.092 24 54.9195 24 55.7471Z" fill="#914520"/>
<path d="M77 25C77 25.27 77 25.54 76.9548 25.7651C76.0963 26.1251 75.2377 26.4851 74.334 26.8901C73.0236 27.4302 71.7132 27.9252 70.3124 28.4202C64.7092 30.4454 58.5638 32.3805 52.78 34.9907C52.057 35.3057 51.2888 35.5757 50.5206 35.8007C49.7976 36.0257 46.4538 36.1157 45.7308 36.2058C35.6542 37.7359 36.1965 36.7458 30.0963 37.3758C26.3458 37.7359 21.5108 38.5909 16.721 38.9059C14.9587 38.9959 13.1965 39.0409 11.5246 38.9509C10.3045 38.9059 8.99411 39.131 8 38.3659C14.8684 36.1608 22.279 33.5956 29.3281 30.9404C30.0059 30.6704 31.5874 30.0853 31.6326 30.0403C31.9037 29.7703 31.7682 29.6803 31.8585 29.2753C47.222 28.0602 61.8625 26.8451 77 25Z" fill="#BBBDBF"/>
</svg>
