<svg width="300" height="300" viewBox="0 0 300 300" fill="none" xmlns="http://www.w3.org/2000/svg">
<path d="M232.319 179.686C227.217 185.129 218.957 194.668 213.551 203.107C211.668 206.104 207.842 206.837 204.866 205.003C204.38 204.697 203.955 204.391 203.651 204.086C200.553 201.884 200.067 197.359 202.74 194.546C208.024 188.92 217.499 178.586 222.783 171.553C224.969 168.557 229.282 168.129 232.076 170.636C234.505 173.143 234.687 177.057 232.319 179.686Z" fill="white"/>
<path d="M278.659 136.552C271.077 121.073 248.088 109.524 233.105 115.692C220.853 120.771 218.548 139.515 213.271 153.543C211.087 150.762 207.994 148.283 205.203 148.887C199.623 150.278 187.37 162.19 179.788 171.32C172.934 179.664 181.972 185.046 186.46 187.223C178.878 193.874 170.811 199.437 163.957 202.037C148.732 208.204 146.73 225.195 158.983 237.591C171.236 249.926 202.11 266.494 217.759 234.326C220.731 228.279 223.825 222.595 227.04 217.335C230.922 221.688 240.991 230.94 248.876 221.205C257.55 210.865 267.619 194.6 267.498 188.311C267.316 184.623 262.099 181.66 257.55 179.967C261.25 176.278 265.011 173.013 268.226 169.929C268.408 170.111 287.515 154.632 278.659 136.552ZM256.64 164.85C248.088 172.59 219.579 204.093 210.299 223.442C204.233 235.777 194.467 236.14 186.4 232.874C181.911 231 177.847 228.098 175.239 225.437C167.96 218 169.052 207.963 178.332 204.274C187.492 200.586 207.508 178.455 213.817 171.199C227.768 155.115 226.676 136.129 235.532 132.38C239.535 130.687 244.509 131.171 249.301 133.166C255.003 135.464 260.158 139.817 262.645 144.897C268.104 155.539 256.64 164.85 256.64 164.85Z" fill="white"/>
<path d="M190.401 47H28.5382C23.815 47 20 50.8298 20 55.5714V91.1945C20 93.3222 20.7872 95.3283 22.18 96.9088L79.162 163.17C81.342 165.602 84.3698 167 87.6397 167H131.421C134.63 167 137.719 165.602 139.899 163.17L196.82 96.9088C198.213 95.3283 199 93.3222 199 91.1945V55.5106C198.939 50.8298 195.124 47 190.401 47ZM193.247 61.2857V67V90.9514C163.515 92.9574 130.694 121.772 130.997 159.644H87.7608C87.0342 121.59 55.4246 92.8967 25.6922 90.8906V66.9392V61.2249V55.5106C25.6922 53.9301 26.9638 52.6535 28.5382 52.6535H190.401C191.976 52.6535 193.247 53.9301 193.247 55.5106V61.2857Z" fill="white"/>
<path d="M126 134.75C126 142.599 119.487 149 111.5 149C103.513 149 97 142.599 97 134.75C97 132.153 97.6759 129.738 98.9047 127.685C99.0275 127.443 99.1504 127.262 99.3347 127.021C99.3347 127.021 111.5 111.744 111.5 108C111.93 112.106 123.665 127.021 123.665 127.021C125.14 129.255 126 131.912 126 134.75Z" fill="#E53112"/>
<path d="M231 197.826C231 204.522 225.6 210 219 210C212.4 210 207 204.522 207 197.826C207 195.635 207.6 193.565 208.62 191.8C208.74 191.617 208.86 191.435 208.98 191.252C208.98 191.252 219.06 178.165 219.06 175C219.42 178.53 229.14 191.252 229.14 191.252C230.28 193.139 231 195.391 231 197.826Z" fill="#E53112"/>
</svg>
