<svg width="116" height="403" viewBox="0 0 116 403" fill="none" xmlns="http://www.w3.org/2000/svg">
<path fill-rule="evenodd" clip-rule="evenodd" d="M100.331 85.4645L101.316 87.6758L107.264 127.773L86.521 81.2579L100.331 85.4645ZM70.6351 18.8755L77.466 34.1936C77.4353 34.6808 77.397 35.0978 77.3817 35.2102C77.3377 35.4352 77.3146 35.8378 77.2869 36.323C77.2428 37.1073 77.1854 38.1067 77.0081 38.9197C76.8932 39.4675 76.6155 40.1593 76.2419 40.5822C76.0532 40.7936 76.0734 40.9935 76.0982 41.2327C76.1078 41.3212 76.1174 41.4134 76.1174 41.5143C76.1174 41.5739 76.0963 41.6498 76.0638 41.7363C76.5724 41.9372 76.944 42.458 77.1806 43.2825C77.3501 43.8476 77.1231 44.4972 76.8674 45.2304C76.6748 45.783 76.4651 46.3826 76.3951 47.0303C76.3205 47.7184 76.3233 48.3536 76.3252 48.9369C76.3291 50.0737 76.3329 51.0117 75.7631 51.7488C75.2085 52.4936 74.5974 52.9193 73.9337 53.0308L57.2385 15.5909C57.4128 15.6101 57.5823 15.6341 57.7375 15.6639C58.4941 15.5198 59.5764 15.5005 60.0937 15.539C60.177 15.5428 60.3426 15.5669 60.5266 15.5947C60.8283 15.6389 61.1827 15.6918 61.3197 15.6735C61.607 15.635 64.4037 15.5966 64.8442 16.0579C64.8634 16.0772 64.8816 16.0973 64.9008 16.1165C64.9564 16.1761 65.0118 16.2357 65.0837 16.279C65.1747 16.3433 65.2916 16.3722 65.4017 16.4L65.419 16.4038C66.9227 16.7306 68.5509 17.2399 68.9819 17.6147C69.1735 17.7877 70.1217 18.5564 70.3228 18.7006C70.3755 18.7362 70.4875 18.7967 70.6351 18.8755ZM42.0499 21.0809C41.4992 21.7642 40.9935 22.4724 40.9284 22.5926C40.7943 22.8712 40.5261 23.1884 40.2579 23.3517C39.7886 23.6304 39.3289 25.4563 39.2426 26.0521C38.8787 26.4173 38.4956 27.6474 38.4764 27.9452C38.4563 28.2595 38.394 28.5709 38.3318 28.8831C38.2437 29.3262 38.1556 29.7682 38.1891 30.2132C38.2562 30.9916 38.1795 31.5778 37.9879 32.337C37.8634 32.8078 38.0454 34.9316 38.0933 35.2102C38.1431 35.439 38.1661 35.8618 38.1949 36.3712C38.2389 37.1457 38.2935 38.1202 38.4669 38.9197C38.5818 39.4578 38.8595 40.1593 39.2331 40.5822C39.4256 40.7897 39.4007 40.9963 39.371 41.2423V41.2434C39.3614 41.3279 39.3509 41.4182 39.348 41.5143C39.348 41.5863 39.3777 41.6825 39.4199 41.7882C39.4016 41.7978 39.3834 41.8074 39.3653 41.818L103.894 186.525C103.742 185.025 103.598 183.378 103.493 181.586C103.602 175.901 104.093 168.699 105.058 162.376L42.0499 21.0809ZM102.735 223.474L37.6958 77.6242C36.4018 78.3517 35.0351 79.0205 33.5534 79.6507C33.4183 79.6808 33.2795 79.7212 33.1416 79.771C32.9203 79.8526 32.7182 79.9539 32.5401 80.0687C32.0104 80.2873 31.5047 80.5192 31.0191 80.7631L27.8469 81.7282C27.7588 81.695 27.6621 81.6681 27.5586 81.6499L93.324 229.129L93.35 228.746C93.6522 228.689 93.9655 228.503 94.2007 228.06C94.2007 228.06 94.218 228.041 94.2496 228.007C94.5163 228.211 94.9093 228.233 94.9093 228.233C94.9093 228.233 95.2636 228.29 96.2311 227.781C97.0368 227.353 97.0959 227.291 97.3469 227.026C97.4905 226.876 97.6965 226.66 98.1368 226.273C98.1368 226.273 98.3956 225.91 98.7499 225.416C99.1611 225.205 99.266 225.137 99.3007 225.115C99.311 225.108 99.3149 225.105 99.3189 225.104C99.3355 225.101 99.356 225.121 99.8421 224.975C99.8421 224.975 101.484 224.671 102.735 223.474ZM92.6075 267.07L13.9964 90.7866L10.7495 110.263L90.5708 289.262C90.5952 288.694 90.6268 288.119 90.6662 287.516C90.6725 287.184 90.5897 285.655 90.5321 284.622C90.5092 284.191 90.4903 283.846 90.4839 283.71C90.4421 282.794 90.3482 282.051 90.2646 281.394C90.0113 279.384 89.859 278.172 91.5761 275.225C91.6755 275.073 91.7347 274.069 91.7955 273.053C91.857 272.009 91.9201 270.955 92.0259 270.804C92.2366 270.502 92.1269 270.221 92.0196 269.947C91.9115 269.67 91.8057 269.401 92.0259 269.122C92.1774 268.945 92.3328 268.267 92.4812 267.613V267.612C92.523 267.426 92.5656 267.24 92.6075 267.07ZM90.6118 328.903L10.692 149.686C10.465 152.305 10.0685 155.092 10.0685 155.092C10.0685 155.092 10.0206 157.476 10.6815 161.618C11.6402 167.591 12.1632 174.455 12.3308 180.119L56.4512 279.057C56.7299 277.918 57.0575 276.785 57.4243 275.666C57.9856 277.123 58.3802 278.673 58.4654 280.357C58.4941 280.703 58.5133 281.058 58.5133 281.414C58.521 282.121 58.4923 282.832 58.4616 283.566L91.0213 356.579C91.3512 354.426 91.5911 352.043 91.7268 350.708C91.7592 350.38 91.786 350.114 91.8057 349.931C91.8633 349.413 91.8823 348.893 91.8728 348.375C91.5934 347.483 91.292 346.59 90.989 345.694V345.692C90.8872 345.393 90.7862 345.092 90.6852 344.791C90.585 344.516 90.4934 344.235 90.4027 343.955V343.954L90.4019 343.951C90.3624 343.831 90.323 343.711 90.2827 343.59C90.2677 342.62 90.4248 336.239 90.6118 328.903ZM100.697 378.277L100.99 378.934C101.06 378.947 101.131 378.959 101.202 378.973C101.202 378.973 100.988 378.677 100.697 378.277ZM101.776 380.697L108.277 395.275C109.273 394.969 110.106 394.664 110.718 394.44C110.95 394.354 111.152 394.281 111.316 394.224C112.378 393.856 112.516 392.13 112.334 390.296C113.77 388.682 111.771 385.148 111.226 384.255C111.203 384.186 111.179 384.117 111.153 384.046C110.849 383.214 108.124 382.468 105.057 381.628C103.975 381.333 102.851 381.025 101.776 380.697ZM88.7479 391.031L63.5177 334.453C63.671 335.262 63.8481 336.085 64.0282 336.925C64.6259 339.714 65.2629 342.682 65.2274 345.934C65.1699 346.703 65.0933 347.462 65.0071 348.231C64.8807 349.358 64.7006 351.943 64.5186 354.558C64.3289 357.273 64.1384 360.02 64.0015 361.204L63.9928 361.3C63.967 361.57 63.9411 361.839 63.9171 362.107L75.2238 387.462C79.3369 387.76 84.5964 388.532 88.7479 391.031ZM50.5024 332.024C50.4602 321.901 50.5885 311.779 51.464 307.423L22.4373 242.331C22.4335 242.383 22.4287 242.433 22.4239 242.484C22.3569 243.32 22.2898 244.166 22.2707 245.041C22.2295 245.264 22.1912 245.49 22.1519 245.716C22.1194 245.91 22.0858 246.106 22.0504 246.3C21.9163 247.04 21.7822 247.798 21.6577 248.558C21.5907 248.933 21.5332 249.317 21.4853 249.691C21.446 252.352 21.7775 255.118 22.1251 258.012C22.3655 260.013 22.6127 262.074 22.7496 264.203C22.8933 264.597 23.0656 265 23.2477 265.385C23.4564 265.843 23.6518 268.268 23.8137 270.286C23.8922 271.252 23.9621 272.125 24.0225 272.644L50.5024 332.024ZM25.9026 316.409L48.1836 366.374C48.1309 366.428 48.0802 366.478 48.0323 366.526C47.7593 366.799 47.5649 366.993 47.5275 367.124C47.3551 367.681 47.1827 368.2 47.0008 368.661C46.4864 368.788 45.9338 368.908 45.3486 369.021C46.4155 372.26 47.2124 376.646 46.4931 379.271C46.4012 379.607 46.2594 379.912 46.0765 380.187C46.0391 380.934 45.9232 381.617 45.7077 382.192C45.6991 382.216 45.6896 382.24 45.6799 382.264C45.6752 382.275 45.6694 382.288 45.6646 382.301C46.2603 383.131 46.4299 384.445 44.8553 386.42C44.838 386.442 44.816 386.464 44.7901 386.483L25.0502 342.218C25.3892 333.382 25.7532 323.36 25.9026 316.409ZM20.3024 371.12C20.0371 371.433 19.7728 371.745 19.5113 372.055C19.4644 372.04 19.4175 372.027 19.3686 372.015L17.3285 372.746C17.3285 372.746 17.998 372.71 18.7939 372.905L18.769 372.935C18.6665 372.994 18.5631 373.056 18.4587 373.12C17.4147 373.754 16.4761 375.283 16.4761 375.283C16.5278 375.277 16.5805 375.271 16.6322 375.265C16.409 375.431 16.1868 375.596 15.9666 375.758C15.0538 375.915 14.0721 376.316 13.0281 377.031C12.622 377.561 12.2015 378.115 11.9898 378.394C11.646 378.567 10.9995 378.868 10.24 379.217C9.37027 379.544 8.48339 379.859 7.62231 380.164H7.62137C6.291 380.636 5.0248 381.084 3.9856 381.522C3.5613 381.382 3.10253 381.362 2.5882 381.51C1.05765 382.05 -0.604113 384.655 0.217668 386.98C-0.0198635 387.888 -0.0639233 388.798 0.353671 389.472C0.356545 390.779 0.629524 391.847 1.43885 392.129C1.60359 392.186 1.80472 392.259 2.03842 392.345C5.02959 393.44 13.3901 396.503 19.995 391.997C20.7162 391.634 21.4288 391.218 22.127 390.745C23.8281 389.589 25.8337 388.793 27.9379 388.241L20.3024 371.12ZM14.4341 224.384L7.59646 209.051C7.43555 210.661 7.76407 211.789 7.86081 212.121L7.86559 212.136C7.94032 212.41 8.15488 213.467 8.40961 214.725V214.725C8.57816 215.555 8.76305 216.471 8.93831 217.306C9.13946 218.277 10.9784 220.065 10.9784 220.065C10.8155 221.382 13.0089 223.342 13.0089 223.342C13.4562 223.801 13.9638 224.139 14.4341 224.384ZM13.982 90.755L13.8901 90.5483V90.755H13.982Z" fill="white"/>
<path fill-rule="evenodd" clip-rule="evenodd" d="M100.47 75.1984L101.457 77.481L107.413 118.871L86.6411 70.8562L100.47 75.1984ZM70.7331 6.46194L77.5735 22.274C77.5427 22.7769 77.5044 23.2074 77.4891 23.3235C77.445 23.5556 77.4219 23.9712 77.3941 24.4721C77.35 25.2817 77.2925 26.3133 77.115 27.1525C76.9999 27.718 76.7218 28.4321 76.3477 28.8686C76.1588 29.0868 76.1789 29.2932 76.2038 29.5402C76.2134 29.6315 76.223 29.7267 76.223 29.8308C76.223 29.8924 76.2019 29.9707 76.1693 30.06C76.6786 30.2673 77.0507 30.8049 77.2876 31.656C77.4574 32.2393 77.2301 32.9099 76.974 33.6668C76.7812 34.2372 76.5712 34.8561 76.5011 35.5247C76.4264 36.235 76.4292 36.8907 76.4311 37.4928C76.435 38.6663 76.4388 39.6345 75.8682 40.3953C75.3128 41.1641 74.7009 41.6036 74.0363 41.7187L57.3179 3.07137C57.4925 3.09123 57.6622 3.11599 57.8176 3.1468C58.5753 2.99798 59.6591 2.97812 60.1771 3.01784C60.2605 3.02176 60.4264 3.0466 60.6106 3.07537C60.9127 3.12098 61.2676 3.17557 61.4047 3.15669C61.6925 3.11697 64.493 3.07734 64.9342 3.55348C64.9534 3.57334 64.9717 3.59418 64.9909 3.61396C65.0465 3.6755 65.102 3.73696 65.174 3.78167C65.2651 3.84811 65.3822 3.87786 65.4924 3.90663L65.5097 3.91055C67.0155 4.24785 68.646 4.7736 69.0776 5.1605C69.2695 5.339 70.219 6.13258 70.4204 6.28141C70.4731 6.3181 70.5853 6.38062 70.7331 6.46194ZM42.1083 8.73848C41.5568 9.4438 41.0503 10.1749 40.9851 10.2989C40.8509 10.5865 40.5823 10.9139 40.3138 11.0825C39.8438 11.3702 39.3835 13.2549 39.2971 13.87C38.9326 14.247 38.549 15.5167 38.5298 15.8242C38.5096 16.1485 38.4473 16.47 38.385 16.7923C38.2968 17.2497 38.2085 17.7059 38.2421 18.1653C38.3092 18.9687 38.2325 19.5738 38.0407 20.3575C37.916 20.8436 38.0982 23.0359 38.1461 23.3235C38.196 23.5596 38.2191 23.9961 38.2478 24.5218C38.2919 25.3213 38.3466 26.3272 38.5202 27.1525C38.6353 27.708 38.9134 28.4321 39.2875 28.8686C39.4803 29.0828 39.4554 29.2961 39.4257 29.5501V29.5511C39.416 29.6384 39.4055 29.7316 39.4026 29.8308C39.4026 29.9052 39.4324 30.0044 39.4746 30.1135C39.4563 30.1235 39.4381 30.1334 39.4199 30.1443L104.038 179.518C103.886 177.97 103.742 176.27 103.636 174.42C103.746 168.552 104.237 161.117 105.204 154.59L42.1083 8.73848ZM102.878 217.659L37.7481 67.1052C36.4523 67.8562 35.0837 68.5465 33.6 69.1971C33.4647 69.2281 33.3256 69.2698 33.1876 69.3213C32.966 69.4055 32.7636 69.5101 32.5852 69.6286C32.0548 69.8542 31.5484 70.0936 31.0621 70.3454L27.8856 71.3416C27.7973 71.3073 27.7004 71.2795 27.5968 71.2607L93.4535 223.496L93.4795 223.101C93.7822 223.042 94.0959 222.85 94.3314 222.392C94.3314 222.392 94.3488 222.373 94.3804 222.338C94.6475 222.549 95.041 222.571 95.041 222.571C95.041 222.571 95.3958 222.63 96.3646 222.105C97.1714 221.663 97.2307 221.599 97.482 221.325C97.6258 221.171 97.832 220.948 98.273 220.548C98.273 220.548 98.5321 220.173 98.8869 219.664C99.2986 219.445 99.4037 219.375 99.4385 219.352C99.4488 219.345 99.4527 219.342 99.4567 219.342C99.4733 219.338 99.4938 219.359 99.9806 219.208C99.9806 219.208 101.625 218.894 102.878 217.659ZM92.736 262.661L14.0158 80.6921L10.7644 100.796L90.6964 285.568C90.7209 284.982 90.7525 284.388 90.792 283.765C90.7984 283.423 90.7154 281.845 90.6577 280.778C90.6348 280.334 90.6158 279.977 90.6095 279.838C90.5676 278.891 90.4736 278.125 90.3898 277.446C90.1362 275.372 89.9836 274.121 91.7031 271.079C91.8027 270.922 91.862 269.886 91.9228 268.837C91.9845 267.759 92.0477 266.671 92.1536 266.515C92.3646 266.203 92.2547 265.914 92.1472 265.63C92.039 265.345 91.9331 265.067 92.1536 264.779C92.3053 264.596 92.461 263.896 92.6095 263.221V263.22C92.6514 263.028 92.6941 262.837 92.736 262.661ZM90.7375 326.487L10.7069 141.491C10.4795 144.194 10.0825 147.072 10.0825 147.072C10.0825 147.072 10.0345 149.532 10.6963 153.808C11.6564 159.973 12.1801 167.058 12.3479 172.905L56.5295 275.034C56.8086 273.858 57.1366 272.689 57.504 271.534C58.066 273.038 58.4612 274.638 58.5465 276.376C58.5753 276.733 58.5945 277.1 58.5945 277.467C58.6022 278.197 58.5734 278.931 58.5427 279.688L91.1476 355.056C91.4779 352.834 91.7182 350.374 91.8541 348.996C91.8865 348.657 91.9133 348.383 91.9331 348.194C91.9908 347.659 92.0097 347.123 92.0003 346.587C91.7205 345.667 91.4187 344.745 91.1152 343.82V343.819C91.0133 343.51 90.9121 343.199 90.811 342.888C90.7106 342.604 90.619 342.314 90.5281 342.025V342.024L90.5273 342.021C90.4878 341.897 90.4483 341.773 90.408 341.648C90.393 340.647 90.5502 334.06 90.7375 326.487ZM100.836 377.454L101.13 378.132C101.201 378.145 101.271 378.158 101.342 378.172C101.342 378.172 101.128 377.867 100.836 377.454ZM101.917 379.952L108.427 395C109.424 394.684 110.259 394.369 110.871 394.138C111.104 394.049 111.306 393.974 111.47 393.915C112.534 393.535 112.672 391.754 112.49 389.86C113.928 388.195 111.926 384.546 111.38 383.625C111.357 383.553 111.334 383.482 111.307 383.409C111.003 382.55 108.274 381.78 105.202 380.913C104.12 380.608 102.994 380.291 101.917 379.952ZM88.871 390.619L63.6059 332.216C63.7593 333.052 63.9367 333.901 64.1171 334.768C64.7156 337.647 65.3534 340.711 65.3179 344.068C65.2603 344.861 65.1836 345.645 65.0973 346.439C64.9707 347.603 64.7904 350.271 64.6082 352.97C64.4182 355.773 64.2274 358.608 64.0903 359.831L64.0816 359.93C64.0557 360.208 64.0298 360.486 64.0058 360.762L75.3282 386.935C79.447 387.242 84.7137 388.04 88.871 390.619ZM50.5724 329.709C50.5302 319.26 50.6587 308.811 51.5354 304.315L22.4685 237.124C22.4647 237.177 22.4598 237.229 22.455 237.282C22.3879 238.145 22.3208 239.018 22.3016 239.921C22.2604 240.151 22.222 240.384 22.1826 240.618C22.1501 240.818 22.1165 241.02 22.081 241.22C21.9467 241.984 21.8124 242.767 21.6877 243.551C21.6206 243.939 21.5631 244.335 21.5151 244.721C21.4758 247.468 21.8077 250.323 22.1558 253.31C22.3965 255.376 22.644 257.504 22.7811 259.701C22.925 260.108 23.0976 260.524 23.2799 260.921C23.4889 261.394 23.6847 263.897 23.8467 265.981C23.9254 266.978 23.9954 267.878 24.0558 268.414L50.5724 329.709ZM25.9386 313.591L48.2504 365.167C48.1977 365.222 48.1469 365.275 48.0989 365.324C47.8256 365.606 47.6309 365.806 47.5934 365.941C47.4208 366.516 47.2482 367.052 47.066 367.528C46.5509 367.659 45.9975 367.783 45.4115 367.9C46.4799 371.243 47.2779 375.77 46.5576 378.479C46.4656 378.827 46.3236 379.141 46.1404 379.426C46.1029 380.197 45.9869 380.902 45.7711 381.495C45.7625 381.52 45.753 381.544 45.7433 381.57C45.7386 381.581 45.7327 381.594 45.728 381.607C46.3245 382.465 46.4943 383.821 44.9175 385.86C44.9002 385.882 44.8782 385.904 44.8523 385.925L25.0849 340.232C25.4245 331.111 25.7889 320.766 25.9386 313.591ZM20.3306 370.066C20.0649 370.389 19.8002 370.711 19.5384 371.031C19.4914 371.016 19.4444 371.002 19.3955 370.99L17.3525 371.744C17.3525 371.744 18.023 371.707 18.82 371.909L18.7951 371.94C18.6924 372 18.5888 372.065 18.4843 372.131C17.4388 372.785 16.499 374.363 16.499 374.363C16.5507 374.357 16.6035 374.351 16.6553 374.345C16.4318 374.516 16.2093 374.686 15.9887 374.853C15.0747 375.016 14.0916 375.43 13.0461 376.168C12.6395 376.715 12.2184 377.286 12.0065 377.575C11.6622 377.753 11.0147 378.063 10.2542 378.425C9.38328 378.762 8.49516 379.087 7.63289 379.402H7.63194C6.29972 379.889 5.03178 380.352 3.99113 380.804C3.56624 380.659 3.10683 380.639 2.59179 380.791C1.05912 381.349 -0.604951 384.038 0.21797 386.437C-0.019891 387.375 -0.064012 388.314 0.354162 389.01C0.35704 390.359 0.630397 391.462 1.44085 391.752C1.60582 391.812 1.80723 391.887 2.04125 391.975C5.03656 393.106 13.4087 396.268 20.0227 391.616C20.7449 391.242 21.4586 390.812 22.1577 390.324C23.8611 389.13 25.8695 388.309 27.9767 387.739L20.3306 370.066ZM14.4541 218.598L7.607 202.77C7.44587 204.432 7.77484 205.597 7.87171 205.94L7.8765 205.955C7.95134 206.237 8.16619 207.328 8.42127 208.627V208.628C8.59006 209.484 8.77521 210.43 8.95071 211.292C9.15214 212.294 10.9936 214.14 10.9936 214.14C10.8305 215.499 13.0269 217.522 13.0269 217.522C13.4748 217.996 13.9832 218.345 14.4541 218.598ZM14.0014 80.6595L13.9094 80.4461V80.6595H14.0014Z" fill="#A1A1A1"/>
</svg>
