<svg width="100" height="100" viewBox="0 0 100 100" fill="none" xmlns="http://www.w3.org/2000/svg">
<path fill-rule="evenodd" clip-rule="evenodd" d="M91.0515 39.2045C90.3137 39.3662 89.5496 39.5279 88.7855 39.6896C88.0214 39.8513 87.2572 40.013 86.5195 40.1747L85.5709 35.9703C86.3087 35.8086 87.0728 35.6468 87.8369 35.4851C88.601 35.3234 89.3652 35.1617 90.1029 35L91.0515 39.2045ZM8 59.6877H13.3752V64H8V59.6877ZM86.5195 59.6877H92V64H86.5195V59.6877ZM8.94857 56.9926L13.3752 56.0223L12.6374 51.8178C11.0565 52.1413 9.58094 52.4647 8.10541 52.7881C8.3162 54.1896 8.63238 55.5911 8.94857 56.9926Z" fill="#F5CBA3"/>
<path fill-rule="evenodd" clip-rule="evenodd" d="M75.6414 42.534C79.2693 41.7473 82.8955 40.961 86.5194 40.1747L85.5709 35.9703C61.2246 41.2528 36.8783 46.5353 12.532 51.9257L13.3751 56.1301C34.0975 51.5421 54.8963 47.0322 75.6414 42.534ZM13.3752 59.6877H86.5195V64H13.3752V59.6877Z" fill="#EDEFF2"/>
</svg>
