<svg width="100" height="100" viewBox="0 0 100 100" fill="none" xmlns="http://www.w3.org/2000/svg">
<path d="M37.3772 36.4345C37.2814 36.53 37.2335 36.6256 37.1377 36.7211C36.4192 37.5331 35.7006 38.3451 35.0299 39.1572C34.9341 39.2527 34.8383 39.396 34.7425 39.4915C27.7964 33.1864 20.8982 26.8814 14 20.5763C14.479 20.0508 14.9102 19.5254 15.3892 19C22.7186 24.8274 30 30.5593 37.3772 36.4345C37.3293 36.4345 37.3293 36.3867 37.3772 36.4345Z" fill="#E6E6E6"/>
<path d="M28.5629 59.1233L24.1078 59.8398C23.2455 59.983 22.6707 59.6487 22.4312 58.6456L27.7485 57.8336C28.0838 57.7858 28.3713 57.4515 28.2755 57.0693L27.0779 49.3313L28.6108 49.0925L29.8084 57.2604C29.9521 58.5023 29.4731 58.98 28.5629 59.1233Z" fill="#C8B594"/>
<path d="M27.7485 57.8814L22.3832 58.7411L22 58.7889L21.9042 58.6934L20.4671 49.5223L26.2635 48.6148C26.6467 48.567 26.982 48.8059 27.0299 49.188L27.0778 49.3313L28.3234 57.1649C28.3234 57.547 28.0838 57.8336 27.7485 57.8814Z" fill="#F26C56"/>
<path d="M20.4671 49.4746L21.9042 58.6934L20.4671 49.4746Z" fill="#F26C56"/>
<path d="M26.982 43.1217L20.7545 44.077L20.6587 43.5516C20.6587 43.3606 20.7545 43.2173 20.9461 43.1695L26.503 42.3097C26.7425 42.3097 26.8862 42.4052 26.8862 42.5963L26.982 43.1217Z" fill="#373431"/>
<path d="M30.2874 57.6425V58.1202C30.1916 58.8367 29.6647 59.4099 28.9461 59.6009L23.9162 60.3652H23.4371C22.7186 60.2696 22.1437 59.7442 22 58.98L21.9521 58.7411L22.4311 58.6456C22.6707 59.6487 23.2455 59.983 24.1078 59.8398L28.5629 59.1233C29.4731 58.98 29.9521 58.5023 29.7605 57.2604L28.5629 49.1402L27.0778 49.4268L27.0299 49.2835C26.982 48.9014 26.6946 48.6148 26.3114 48.6626L20.515 49.5701L20.4671 49.379C20.4192 49.2835 20.4192 49.2357 20.4192 49.188V48.8536C20.515 48.2804 20.8982 47.755 21.4731 47.5639C21.7605 47.4206 21.9521 47.1341 21.9042 46.7997V46.7042L21.7605 45.7966L21.3772 45.8444C21.1856 45.8444 21.0419 45.7488 20.994 45.5578L20.8982 44.8891L20.7545 44.077L26.982 43.1217L27.2216 44.6502C27.2216 44.7458 27.1736 44.8891 27.1257 44.9368C27.0778 44.9846 27.0299 45.0324 26.9341 45.0324L26.5509 45.0801L26.6946 45.9877C26.7425 46.322 27.0299 46.6086 27.3653 46.6086C27.8922 46.6564 28.6587 46.8952 28.8503 48.0416L30.2874 57.6425Z" fill="#D4D4D4"/>
<path d="M32.3952 34.4761L32.0599 34.8105L16.9701 21.7227L16.2994 20.8629L32.3952 34.4761Z" fill="#9B9B8A"/>
<path d="M85.6168 75.3159L84.3712 76.6055L84.1796 76.8444C83.7485 76.4623 80.3473 73.5008 80.012 73.2142C79.6766 72.9276 78.9581 71.3513 78.3832 70.8737L75.509 68.4376L76.2275 67.5778L78.4311 64.6163L77.6168 63.9476L75.3653 66.2881L73.6407 64.8074L73.3054 65.1418L42.7904 39.2527L41.3533 40.5424L39.9162 39.3482L38.6707 38.2974L36.9461 36.9122L36.8982 36.8644L36.515 36.5778L34.8383 38.584L35.2216 38.9183L36.9461 40.4468L38.0958 41.4977L39.485 42.7396L38.479 44.3159L44.2754 49.188L46.8144 46.1787L46.9581 46.322L44.4192 49.3313L44.4671 49.379L45.2814 50.0478L46.479 48.6148L46.6707 48.7581L45.473 50.1911V50.2388L46.3353 50.9553L47.5329 49.5223L47.6766 49.6656L46.479 51.0986L46.5269 51.1464L47.3892 51.8629L48.5868 50.4299L48.7305 50.5732L47.5329 52.0062L48.4431 52.7704L49.6407 51.3374L49.8323 51.4807L48.6347 52.9137L48.6826 52.9615L49.5928 53.7257L52.1796 50.6687L52.3233 50.812L49.7365 53.869L50.5988 54.5855L51.7964 53.1525L51.9401 53.2958L50.7425 54.7288L51.7006 55.4931L52.8982 54.0601L53.0898 54.2034L51.8922 55.6364L51.9401 55.6841L52.8024 56.4006L54 54.9676L54.1437 55.1109L52.9461 56.5439L52.994 56.5917L54.1437 57.547L55.3413 56.1618L55.485 56.3051L54.2874 57.6903L54.9581 58.2635L57.497 55.2542L57.6886 55.3975L55.0539 58.359L55.1018 58.4068L55.9641 59.1233L57.1617 57.6903L57.3054 57.8336L56.1078 59.2666L56.1557 59.3143L57.018 60.0308L58.2156 58.5978L58.3593 58.7411L57.1617 60.1741L57.2096 60.2219L57.2575 60.2696L58.0719 60.9384L59.2695 59.5054L59.4132 59.6487L58.2156 61.0817L59.1736 61.8937L60.3713 60.4607L60.515 60.604L59.3174 62.037L59.3653 62.0847L60.2754 62.849L62.8144 59.8398L62.9581 59.9831L60.4192 62.9923L61.3293 63.7565L62.479 62.3236L62.6707 62.4669L61.473 63.8521L62.4311 64.6641L63.6287 63.2311L63.7724 63.3744L62.5269 64.7596L63.4371 65.5716L64.6347 64.1864L64.7784 64.3297L63.6287 65.7149L64.5868 66.527L64.6347 66.5747L65.7844 65.1418L65.976 65.2851L64.7784 66.6703L65.6886 67.4345L68.3233 64.3297L68.4671 64.473L65.8323 67.53L69.0419 70.2527L68.7066 70.6348L70.479 72.1156L68.5629 74.6949L69.3293 75.3636L71.8683 72.7365L72.6826 71.8767L75.509 74.2173C76.0838 74.6949 77.7126 75.1248 78.0958 75.4592C78.4311 75.7935 81.9281 78.6117 82.3593 78.9938L82.1677 79.2327L81.1617 80.6656L81.5449 81L82.7904 79.7103L83.6527 78.7072L83.8443 78.4684L84.0359 78.2296L84.8982 77.2265L86 75.7935L85.6168 75.3159ZM46.7186 43.886L45.2335 45.7011L43.7485 47.4684L43.5569 47.7072L40.0599 44.7458L40.7784 42.7396C40.9222 42.3097 41.2096 41.9753 41.5449 41.7365L43.4132 40.7334L46.9102 43.6949L46.7186 43.886Z" fill="#E6E6E6"/>
<path d="M37.1377 36.7211C36.4192 37.5331 35.7006 38.3451 35.0299 39.1572L34.503 38.6795L34.4072 37.6764L32.2515 35.8136L32.7784 35.1926L32.8263 35.0971L33.3533 34.4761L35.5569 36.339L36.5629 36.2435L37.0898 36.6733L37.1377 36.7211Z" fill="#DC7927"/>
<path d="M40.3473 38.8228L37.7126 41.9753L37.3772 41.7365L37.6168 41.4977L36.7545 40.7334C37.473 39.8736 38.1437 38.9661 38.8623 38.0585L39.8683 38.8228L40.0599 38.584L40.3473 38.8228Z" fill="#DC7927"/>
<path d="M31.9641 34.7627L32.2515 35.8136L33.4012 34.4761L32.2994 34.3806C32.1557 34.3806 32.012 34.4761 31.9641 34.6672C31.9641 34.7149 31.9641 34.7149 31.9641 34.7627Z" fill="white"/>
<path d="M46.9102 43.6949L46.7186 43.886L45.2335 45.7011L43.7485 47.4684L43.5569 47.7072L40.0599 44.7458L40.7784 42.7396C40.9222 42.3097 41.2096 41.9753 41.5449 41.7365L43.4132 40.7334L46.9102 43.6949Z" fill="#431B10"/>
<path d="M39.1976 37.6287C39.1018 37.772 38.9581 37.9153 38.8623 38.0586C38.1437 38.9661 37.4731 39.8737 36.7545 40.7334C36.6587 40.829 36.6108 40.9245 36.515 41.02C35.9401 40.5424 35.3174 40.017 34.7425 39.4915C34.8383 39.396 34.9341 39.2527 35.0299 39.1572C35.7485 38.3451 36.4671 37.4854 37.1377 36.7211C37.2335 36.6256 37.2814 36.53 37.3773 36.4345L37.3294 36.3868C37.3773 36.339 37.4252 36.2912 37.4252 36.2435C38 36.7211 38.6228 37.151 39.1976 37.6287Z" fill="#E6E6E6"/>
<path d="M37.3773 36.4345C37.2814 36.53 37.2335 36.6256 37.1377 36.7211C36.4192 37.5331 35.7006 38.3451 35.0299 39.1572C34.9341 39.2527 34.8383 39.396 34.7425 39.4915C34.8383 39.396 34.9341 39.2527 35.0299 39.1572C35.7485 38.2974 36.3713 37.4854 37.0898 36.6733C37.1856 36.5778 37.2335 36.4823 37.3294 36.3867C37.3294 36.3867 37.3294 36.4345 37.3773 36.4345Z" fill="#E6E6E6"/>
</svg>
