<svg width="100" height="100" viewBox="0 0 100 100" fill="none" xmlns="http://www.w3.org/2000/svg">
<path d="M52.0667 70C53 70.2308 53 70.9231 53 71.5C52.8833 73.2308 52.1833 74.8462 50.7833 76L50.9 75.4231C52.4167 80.7308 52.4167 88.4615 46.4667 91L46 89.9615C51.4833 87.5385 51.1333 80.3846 49.7333 75.5385C50.55 74.3846 51.3667 72.8846 51.7167 71.5C51.7167 71.0385 51.6 70.8077 52.0667 70Z" fill="#F2EDED"/>
<path fill-rule="evenodd" clip-rule="evenodd" d="M31.4158 15V17.4381H23.4625C22.705 17.4381 22.2 16.8576 22.2 16.2771C22.2 15.5805 22.8312 15.1161 23.4625 15.1161L31.4158 15ZM40.6317 15V17.4381H49.2163V20.4568H51.8674V17.4381H60.957V15H40.6317ZM51.7411 67.4783V21.85H49.09L49.2163 67.5944C48.3326 68.0588 47.7013 69.1037 47.9538 70.0325C48.0801 71.1935 49.2163 72.0062 50.3525 72.1223C51.7411 72.2384 53.0036 71.1935 53.1298 70.0325C53.3823 68.9876 52.7511 67.9427 51.7411 67.4783ZM50.7312 70.8452C49.9737 70.8452 49.3425 70.2647 49.3425 69.5681C49.3425 68.8715 50.1 68.4071 50.7312 68.4071C51.3624 68.4071 51.8674 68.8715 51.9936 69.452C52.1199 70.2647 51.4887 70.8452 50.7312 70.8452ZM76.7376 17.5543C77.3688 17.5543 78 16.9737 78 16.2771C78 15.5805 77.495 15 76.7376 15H70.1729V17.5543H76.7376Z" fill="#D6D6D6"/>
<path fill-rule="evenodd" clip-rule="evenodd" d="M40.6317 15H31.4158V17.4381H40.6317V15ZM70.1729 15H60.957V17.4381H70.1729V15ZM49.2163 20.5729H51.8674V21.9661H49.2163V20.5729ZM51.8674 22.5467H49.2163V23.9399H51.8674V22.5467ZM49.2163 24.6365H51.8674V26.0297H49.2163V24.6365ZM51.8674 26.6102H49.2163V28.0035H51.8674V26.6102ZM49.2163 28.584H51.8674V29.9772H49.2163V28.584ZM51.8674 30.6738H49.2163V32.067H51.8674V30.6738ZM49.2163 32.6475H51.8674V34.0408H49.2163V32.6475ZM51.8674 34.6213H49.2163V36.0145H51.8674V34.6213ZM49.2163 36.7111H51.8674V38.1044H49.2163V36.7111ZM51.8674 38.6849H49.2163V40.0781H51.8674V38.6849ZM49.2163 40.6586H51.8674V42.0518H49.2163V40.6586ZM51.8674 42.7485H49.2163V44.1417H51.8674V42.7485ZM49.2163 44.7222H51.8674V46.1154H49.2163V44.7222ZM51.8674 46.6959H49.2163V48.0892H51.8674V46.6959ZM49.2163 48.7858H51.8674V50.179H49.2163V48.7858ZM51.8674 50.7595H49.2163V52.1527H51.8674V50.7595ZM49.2163 52.8494H51.8674V54.2426H49.2163V52.8494ZM51.8674 54.8231H49.2163V56.2163H51.8674V54.8231ZM49.2163 56.7968H51.8674V58.1901H49.2163V56.7968ZM51.8674 58.8867H49.2163V60.2799H51.8674V58.8867ZM49.2163 60.8604H51.8674V62.2536H49.2163V60.8604ZM51.8674 62.8342H49.2163V64.2274H51.8674V62.8342ZM49.2163 64.924H51.8674V66.3172H49.2163V64.924Z" fill="#A44D23"/>
<path d="M50.6505 92L49.621 91.4307C50.7791 89.7228 51.9373 87.7871 52.3233 85.8515C52.9667 82.7772 51.4226 79.9307 50.3931 76.9703C49.3636 74.9208 48.2055 72.6436 49.7497 70.4802C50.1357 70.0248 50.5218 69.4554 51.0365 69.1139C51.1652 69.1139 51.1652 69 51.2939 69C51.6799 69.2277 51.9373 69.4554 52.066 69.797C51.9373 69.797 51.9373 69.9109 51.8086 69.9109C51.5512 70.1386 51.2939 70.3663 51.1652 70.5941C51.0365 70.7079 50.9078 70.8218 50.9078 70.9356C49.621 72.7574 50.9078 74.6931 51.8086 76.401C52.7094 78.4505 53.3528 80.3861 53.8675 82.5495C54.5109 85.9653 52.7094 89.2673 50.6505 92Z" fill="#F2EDED"/>
</svg>
