<svg width="300" height="300" viewBox="0 0 300 300" fill="none" xmlns="http://www.w3.org/2000/svg">
<path d="M7 33.2625C8.87528 31.198 10.6117 29.1334 12.5564 27C41.7274 50.0544 70.8984 72.9023 100 95.8879C96.5967 99.8794 92.9156 104.008 89.5123 108C61.8693 83.1563 34.4347 58.175 7 33.2625Z" fill="#E7E6E6"/>
<path d="M64.9873 186.103L47.5606 188.882C44.212 189.424 41.9568 188.137 41 184.206L61.8436 181.021C63.1421 180.817 64.3039 179.53 63.8938 178.039L59.1784 147.949L65.1923 147L69.9077 178.784C70.4544 183.731 68.5409 185.561 64.9873 186.103Z" fill="#C9B595"/>
<path d="M61.6578 181.352L40.5089 184.79L38.9933 185L38.6489 184.649L33 147.676L55.8711 144.028C57.3867 143.818 58.6955 144.8 58.9022 146.343L59.1089 146.905L64 178.475C63.9311 180.019 63.0356 181.141 61.6578 181.352Z" fill="#CF604D"/>
<path d="M33 148L39 185L33 148Z" fill="#ED6D58"/>
<path d="M58 123.188L33.3453 127L33 124.921C33 124.158 33.3453 123.604 34.105 123.396L56.0663 120C57.0332 120 57.5856 120.347 57.5856 121.109L58 123.188Z" fill="#373431"/>
<path d="M72 180.116V182C71.6555 184.86 69.5194 187.163 66.6943 187.93L46.8498 191H44.9894C42.1643 190.651 39.8905 188.488 39.3392 185.419L39.1325 184.442L40.9929 184.093C41.9576 188.14 44.2314 189.465 47.6078 188.907L65.1784 186.047C68.7615 185.488 70.6908 183.535 69.9329 178.581L65.1784 146.07L59.3215 147.186L59.1148 146.628C58.9081 145.093 57.8057 143.977 56.2898 144.116L33.4134 147.744L33.2067 146.977C33 146.628 33 146.419 33 146.209V144.884C33.3445 142.581 34.8604 140.488 37.1343 139.721C38.2367 139.163 38.9947 137.977 38.8569 136.651V136.302L38.3057 132.674L36.7898 132.884C36.0318 132.884 35.4806 132.535 35.2739 131.767L34.9293 129.116L34.3781 125.837L58.977 122L59.9417 128.14C59.9417 128.488 59.735 129.116 59.5972 129.256C59.3905 129.465 59.2526 129.605 58.8392 129.605L57.3233 129.814L57.8746 133.442C58.0813 134.767 59.1837 135.953 60.4929 135.953C62.5601 136.163 65.5919 137.07 66.3498 141.674L72 180.116Z" fill="#D5D5D4"/>
<path d="M79 88.6954L77.6117 90L17.6377 38.3645L15 35L79 88.6954Z" fill="#9C9C8B"/>
<path d="M261 208.503L252.368 220.269L249.559 223.661L134.12 123.993L122.268 138.044L238.46 236.95L235.24 240.618L225.306 251L222.292 248.37L229.828 238.126L222.84 232.243L224.21 230.72L104.25 127.8L108.224 121.502L90 105.029L96.5769 97L115.554 112.781L121.172 107.659L240.927 210.579L242.228 209.264L249.011 215.147L257.849 205.804L261 208.503Z" fill="#E7E6E6"/>
<path d="M292 252.167L287.645 257.861L284.257 261.889L283.497 262.861L282.736 263.833L279.349 267.861L274.44 273L272.919 271.681L276.929 265.986L277.689 265.014C275.961 263.486 262.134 252.236 260.821 250.917C259.3 249.597 252.87 247.861 250.589 245.986L239.182 236.472L122 137.097L133.96 123L250.451 223L261.858 232.722C264.139 234.597 266.974 240.917 268.287 242.028C269.601 243.139 283.082 255.014 284.81 256.542L285.571 255.569L290.479 250.431L292 252.167Z" fill="#E7E6E6"/>
<path d="M110.08 105.951L96.5668 95.2814L92.5129 95.7139L83.4806 88L81.347 90.5233L81.2047 90.9558L79 93.4791L87.819 101.193L88.1746 105.374L100.905 117.053L99.9095 118.063L101.261 119L112 105.951L110.862 105.014L110.08 105.951Z" fill="#DD7927"/>
<path d="M79 88.6098L80.1707 93L85 87.3659L80.3902 87C79.8049 87 79.2195 87.3659 79 88.1707C79 88.3902 79 88.3903 79 88.6098Z" fill="white"/>
<path d="M113.719 121.05L111 129.1L124.265 141L130.633 132.95L137 124.9L123.735 113L116.638 117.06C115.311 117.97 114.25 119.37 113.719 121.05Z" fill="#431C12"/>
<path d="M136 144.583L132.434 151L132 150.417L135.47 144L136 144.583Z" fill="#020203"/>
<path d="M142 148.583L136.585 155L136 154.417L141.415 148L142 148.583Z" fill="#020203"/>
<path d="M145 151.583L140.671 158L140 157.417L144.512 151L145 151.583Z" fill="#020203"/>
<path d="M150 156.562L144.578 162L144 161.5L149.205 156L150 156.562Z" fill="#020203"/>
<path d="M158 162.583L152.805 169L152 168.344L157.415 162L158 162.583Z" fill="#020203"/>
<path d="M163 166.583L157.585 173L157 172.417L162.195 166L163 166.583Z" fill="#020203"/>
<path d="M166 170.583L161.542 177L161 176.417L165.458 170L166 170.583Z" fill="#020203"/>
<path d="M170.685 174.586L165.654 180.468L166.232 180.962L171.263 175.08L170.685 174.586Z" fill="#020203"/>
<path d="M179 180.656L173.578 187L173 186.417L178.349 180L179 180.656Z" fill="#020203"/>
<path d="M184 185.563L178.805 191L178 190.5L183.415 185L184 185.563Z" fill="#020203"/>
<path d="M187.089 187.626L182.092 193.536L182.672 194.026L187.67 188.117L187.089 187.626Z" fill="#020203"/>
<path d="M192 191.583L187.488 198L187 197.344L191.512 191L192 191.583Z" fill="#020203"/>
<path d="M137.741 134.867L127.342 147.16L127.922 147.651L138.322 135.358L137.741 134.867Z" fill="#020203"/>
<path d="M158.983 152.639L148.584 164.931L149.164 165.422L159.564 153.13L158.983 152.639Z" fill="#020203"/>
<path d="M180 171.559L170.503 184L170 183.441L179.308 171L180 171.559Z" fill="#020203"/>
<path d="M201 188.556L191.688 201L191 200.444L200.438 188L201 188.556Z" fill="#020203"/>
<path d="M200 199.602L195.482 206L195 205.548L199.337 199L200 199.602Z" fill="#020203"/>
<path d="M205 202.516L199.585 208L199 207.677L204.415 202L205 202.516Z" fill="#020203"/>
<path d="M209 206.602L203.805 213L203 212.624L208.415 206L209 206.602Z" fill="#020203"/>
<path d="M214 209.602L208.585 216L208 215.624L213.195 209L214 209.602Z" fill="#020203"/>
<path d="M222 207.481L212.562 218L212 217.699L221.438 207L222 207.481Z" fill="#020203"/>
<path d="M90 108.6C93.4531 104.018 96.7734 99.6545 100.227 95C102.418 96.9636 104.809 98.7818 107 100.818C103.547 105.618 100.227 110.418 96.7734 115C94.582 112.964 92.1914 110.782 90 108.6Z" fill="#E7E6E6"/>
</svg>
