<svg width="300" height="300" viewBox="0 0 300 300" fill="none" xmlns="http://www.w3.org/2000/svg">
<g clip-path="url(#clip0_569_7417)">
<path d="M149.158 46.6294C148.946 46.9484 148.733 47.2674 148.627 47.5863C149.584 51.3606 148.627 54.9223 146.447 57.5803C146.341 57.8992 146.128 58.3245 145.916 58.6435C144.427 61.8862 142.354 65.0226 139.643 67.3616C140.493 67.9995 141.131 68.8501 141.45 69.7538C141.769 70.7107 141.875 71.5612 141.663 72.3586C141.982 72.4649 142.407 72.5713 142.726 72.7839C143.895 73.4218 144.64 74.485 145.118 75.9203C145.437 77.3025 145.331 78.6314 144.587 80.0136C144.268 80.6515 143.842 81.1831 143.311 81.6084C144.48 82.3526 145.224 83.3095 145.703 84.5321C146.234 85.808 146.128 87.137 145.49 88.2001C144.852 89.3697 143.895 90.0076 142.46 90.3797C141.078 90.5923 139.749 90.3797 138.367 89.6355C138.154 89.5291 137.942 89.4228 137.835 89.3165C137.091 90.2734 136.134 90.9113 134.805 91.2302C133.21 91.6555 131.669 91.4429 130.18 90.6986C128.905 90.0607 128.001 89.1039 127.469 87.7749H127.363C126.406 88.0938 125.449 87.9875 124.439 87.4559C123.482 86.9243 122.951 86.1801 122.738 85.1701C122.525 84.3195 122.525 83.469 122.951 82.5652C122.1 82.6716 121.25 82.4589 120.346 81.9273C119.389 81.3957 118.645 80.6515 118.166 79.5352C117.741 80.5983 116.997 81.3426 115.987 81.9273C115.136 82.3526 114.286 82.5652 113.382 82.5652C113.701 83.4158 113.807 84.2663 113.595 85.1701C113.382 86.1269 112.744 86.9775 111.893 87.4559C111.043 87.9344 110.086 88.0938 108.97 87.7749C108.438 89.0507 107.588 90.0607 106.259 90.6986C104.876 91.5492 103.228 91.6555 101.634 91.2302C100.358 90.9113 99.3478 90.2734 98.6036 89.3165C98.391 89.4228 98.1783 89.5291 97.9657 89.6355C96.6899 90.3797 95.2546 90.5923 93.9787 90.3797C92.5966 90.0607 91.5866 89.4228 90.9486 88.2001C90.3107 87.0306 90.3107 85.808 90.736 84.5321C91.1613 83.3626 91.9055 82.3526 93.1282 81.6084C92.5966 81.1831 92.1713 80.6515 91.8523 80.0136C91.1081 78.7378 91.0018 77.3025 91.3208 75.9203C91.6397 74.5382 92.3839 73.4218 93.7129 72.7839C94.0319 72.5713 94.4572 72.4649 94.7761 72.3586C94.5635 71.5081 94.5635 70.6575 94.9888 69.7538C95.414 68.5843 96.2646 67.5743 97.6999 66.83C97.9125 66.7237 98.0188 66.6174 98.2315 66.6174C95.733 64.7037 93.6066 62.4178 91.8523 59.813C91.6397 59.494 91.4271 59.0688 91.2144 58.6435C88.5033 55.2944 85.9516 51.7327 88.078 47.6395C88.078 47.4268 88.078 47.4268 87.9717 47.3205C85.4732 44.3967 84.9416 39.7719 89.0349 37.4328C89.1412 37.3265 89.2475 37.2202 89.3539 36.9012C87.068 33.0206 87.5464 27.8641 92.3839 26.2162C92.1713 26.0036 91.9587 25.5783 91.8523 25.153C90.8955 21.166 93.7661 17.0728 97.9657 18.0296C97.9657 17.498 97.9657 16.9664 98.1783 16.4348C98.2846 16.1159 98.391 15.7969 98.6036 15.3717C100.092 12.5542 103.441 11.491 107.215 12.0226C107.428 11.7037 107.641 11.3847 107.853 11.0657C110.352 8.03565 114.126 6.86614 117.316 10.3215C117.528 10.4278 117.847 10.4278 118.166 10.3215C121.303 6.12191 126.459 8.30145 129.17 11.491C129.596 11.2784 130.021 11.1721 130.446 11.0657C134.433 10.3215 137.782 12.7668 138.207 16.8601C138.633 16.9664 139.058 17.1791 139.483 17.3917C142.832 18.9865 145.384 21.485 145.384 25.153C145.384 25.5783 145.278 26.0036 145.278 26.4288C149.265 28.9273 151.869 33.5522 147.882 37.5392C147.882 37.6455 147.989 37.6455 148.095 37.7518C149.265 38.1771 149.265 39.6655 150.115 40.3566C150.221 40.5693 150.328 40.8882 150.434 41.2072C151.391 43.1741 150.115 44.8752 149.158 46.6294Z" fill="#512415"/>
<path d="M104.77 86.0203C103.175 84.7445 101.953 82.6713 101.315 79.907C100.464 76.6643 100.783 73.9 102.165 71.5078C101.528 74.5379 101.421 77.0896 101.846 79.3754C102.272 81.6081 103.229 83.894 104.77 86.0203Z" fill="#9A4F2E"/>
<path d="M100.996 86.1267C99.7201 85.0635 98.7101 83.3092 98.0722 81.0765C97.4342 78.3654 97.6469 76.1327 98.8164 74.1658C98.2848 76.6643 98.1785 78.7906 98.4974 80.6512C98.8164 82.4586 99.7201 84.3192 100.996 86.1267Z" fill="#9A4F2E"/>
<path d="M107.323 83.2563C106.154 82.2995 105.303 80.7578 104.718 78.6315C104.187 76.2393 104.399 74.2192 105.356 72.3586C104.931 74.6445 104.825 76.5582 105.144 78.153C105.516 79.9073 106.26 81.6084 107.323 83.2563Z" fill="#9A4F2E"/>
<path d="M131.883 86.0203C133.478 84.7445 134.7 82.6713 135.338 79.907C136.189 76.6643 135.87 73.9 134.488 71.5078C135.126 74.5379 135.232 77.0896 134.807 79.3754C134.488 81.6081 133.531 83.894 131.883 86.0203Z" fill="#9A4F2E"/>
<path d="M135.764 86.1267C137.039 85.0635 138.05 83.3092 138.687 81.0765C139.325 78.3654 139.113 76.1327 137.943 74.1658C138.475 76.6643 138.581 78.7906 138.262 80.6512C137.837 82.4586 137.093 84.3192 135.764 86.1267Z" fill="#9A4F2E"/>
<path d="M129.332 83.2563C130.502 82.2995 131.352 80.7578 131.937 78.6315C132.468 76.2393 132.256 74.2192 131.299 72.3586C131.724 74.6445 131.831 76.5582 131.512 78.153C131.246 79.9073 130.502 81.6084 129.332 83.2563Z" fill="#9A4F2E"/>
<path d="M159.791 124.615C159.791 139.393 142.461 148.43 119.709 148.43H116.945C94.1923 148.43 76.0117 139.393 76.0117 124.615C76.0117 117.916 80.8492 115.152 87.122 110.527C87.8663 109.996 88.7168 109.464 89.6205 108.933C94.6707 105.902 99.5082 105.583 103.283 100.852C106.525 97.2906 105.462 83.5223 105.303 76.6116C105.09 74.2194 104.984 72.6246 104.984 72.6246C107.004 71.2425 111.363 70.6045 116.945 70.8172H118.008C118.008 70.8172 118.114 70.8172 118.22 70.8172C118.22 70.8172 118.327 70.8172 118.433 70.8172H119.496C125.078 70.7109 129.384 71.2425 131.457 72.6246C131.457 72.6246 131.351 74.2194 131.138 76.6116C131.351 82.8844 130.075 97.1843 133.318 100.746C137.198 105.477 143.205 106.859 148.202 109.889C149.053 110.315 149.903 110.953 150.701 111.484C156.867 116.109 159.685 117.81 159.791 124.615Z" fill="#97492D"/>
<path d="M143.417 56.836C143.098 59.9724 143.204 61.7798 141.928 63.4277C140.759 65.0225 140.015 65.7136 138.473 65.3415L137.941 65.2352L138.473 61.5671C139.536 54.7627 139.749 50.7758 140.28 49.4999L140.493 49.0747C140.918 48.5431 142.407 48.2241 143.311 48.2241C143.417 48.2241 143.629 48.2241 143.629 48.2241C144.48 48.4368 145.118 49.2873 145.437 50.6163C146.128 52.2111 143.629 54.6033 143.417 56.836Z" fill="#9A4E2D"/>
<path d="M141.078 59.8663C141.397 59.76 141.61 59.3347 141.61 58.9095C141.61 58.4842 141.716 58.0589 141.397 57.8463C141.397 57.8463 140.653 56.2515 140.653 56.1452C140.653 55.7199 140.653 55.1883 140.76 54.763C140.866 54.0188 141.078 53.1683 141.61 52.5835C142.142 51.8393 143.099 51.6266 143.896 51.7329C144.109 51.7329 144.215 51.8393 144.428 51.8393C144.428 51.8393 143.364 51.8393 141.823 53.2214C141.397 53.6467 141.078 54.3909 140.972 55.1352C140.866 55.5604 141.716 57.5273 141.716 57.6336C141.929 58.0589 141.929 58.4842 141.929 58.4842C141.823 59.9727 141.291 60.079 141.078 60.079H140.972L140.547 59.9727L141.078 59.8663Z" fill="#512517"/>
<path d="M98.4974 65.2353L97.9658 65.3417C96.4773 65.6606 95.68 65.129 94.5104 63.4279C93.2346 61.7268 93.3409 59.8662 93.022 56.8361C92.8093 54.5503 90.3108 52.1049 90.7361 50.5633C91.1614 49.1812 91.693 48.3838 92.5435 48.1711C92.6499 48.1711 92.7562 48.1711 92.8625 48.1711C93.6067 48.1711 95.2547 48.4901 95.68 49.0217L95.8926 49.447C96.6368 50.7228 96.8495 54.7098 97.9127 61.5142L98.4974 65.2353Z" fill="#9A4E2D"/>
<path d="M95.5209 59.8663C95.202 59.76 94.9893 59.3347 94.9893 58.9095C94.9893 58.4842 94.883 58.0589 95.202 57.8463C95.202 57.8463 95.9462 56.2515 95.9462 56.1452C95.9462 55.7199 95.9462 55.1883 95.8399 54.763C95.7336 54.0188 95.5209 53.1683 94.9893 52.5835C94.4577 51.8393 93.5009 51.6266 92.7035 51.7329C92.4908 51.7329 92.3845 51.8393 92.1719 51.8393C92.1719 51.8393 93.2351 51.8393 94.7767 53.2214C95.202 53.6467 95.5209 54.3909 95.6272 55.1352C95.7336 55.5604 94.883 57.5273 94.883 57.6336C94.6704 58.0589 94.6704 58.4842 94.6704 58.4842C94.7767 59.9727 95.3083 60.079 95.5209 60.079H95.6272L96.0525 59.9727L95.5209 59.8663Z" fill="#512517"/>
<path d="M141.292 50.0318C140.654 48.6497 140.229 47.1081 139.91 45.6196C139.804 44.8754 139.697 44.1311 139.591 43.3337C140.867 30.5223 129.012 20.8473 116.626 22.8673C115.457 22.8673 114.128 22.8673 112.958 22.9737C104.665 24.0368 96.585 31.0539 97.1166 39.8784C97.0103 41.2605 97.0103 42.8021 96.7977 44.1843C96.585 45.5664 96.2661 47.0017 95.5218 48.2776C94.4586 50.4571 94.9902 53.1151 95.3092 55.082C95.4155 55.9325 95.5218 56.6768 95.6282 57.4742C95.8408 58.6437 96.1598 59.8663 96.4787 60.9295C96.7977 61.9927 97.1166 63.1091 97.5419 64.1722C99.9341 73.6346 105.303 84.5323 116.041 85.4892C116.786 85.4892 117.53 85.5955 118.327 85.4892C119.071 85.4892 119.816 85.4892 120.613 85.4892C131.192 84.5323 136.561 73.103 139.113 64.1722C139.432 63.1091 139.857 61.9927 140.176 60.9295C140.495 59.8663 140.814 58.6437 141.026 57.4742C141.133 56.7299 141.239 55.8794 141.345 55.082C141.452 54.3377 141.452 53.4872 141.452 52.5835C141.505 51.8924 141.398 51.0419 141.292 50.0318Z" fill="#9A4E2D"/>
<path d="M122.525 63.5341C122.525 63.5341 123.695 64.172 124.333 63.3214C125.183 62.0456 124.333 59.5471 123.695 58.9092C125.768 63.9593 122.525 63.5341 122.525 63.5341Z" fill="#512415"/>
<path d="M114.232 63.5341C114.232 63.5341 113.062 64.172 112.424 63.3214C111.574 62.0456 112.424 59.5471 113.062 58.9092C110.989 63.9593 114.232 63.5341 114.232 63.5341Z" fill="#512415"/>
<path d="M120.93 62.2051C121.249 62.0988 121.568 62.0988 121.674 61.9924C121.887 61.9924 122.206 61.9924 122.525 62.0987C122.631 62.0987 122.738 62.2051 122.844 62.3114C122.95 62.4177 122.95 62.524 122.844 62.6303C122.844 62.7367 122.738 62.7367 122.631 62.7367C122.312 62.843 121.993 62.6303 121.674 62.6303C120.93 62.524 119.654 63.0556 119.654 63.0556C119.654 63.0556 120.186 62.5772 120.93 62.2051Z" fill="#512415"/>
<path d="M116.094 62.2051C115.882 62.0988 115.563 62.0988 115.35 61.9924C115.137 61.9924 114.818 61.9924 114.606 62.0987C114.499 62.0987 114.393 62.2051 114.287 62.3114C114.18 62.4177 114.18 62.524 114.287 62.6303C114.287 62.7367 114.393 62.7367 114.393 62.7367C114.712 62.843 114.925 62.6303 115.244 62.6303C115.882 62.524 117.051 63.0556 117.051 63.0556C117.051 63.0556 116.732 62.5772 116.094 62.2051Z" fill="#512415"/>
<path d="M111.735 42.6427C109.556 42.1111 108.599 42.1111 106.26 41.8984C105.941 41.8984 105.622 41.8984 105.409 41.8984C105.09 41.8984 104.771 41.8984 104.559 41.8984C100.891 42.43 98.0731 45.2475 97.9668 45.6728C97.9668 45.6728 100.359 44.2906 100.997 44.078C101.528 43.8653 103.017 43.5464 103.602 43.5464C104.346 43.4401 105.09 43.4401 105.781 43.4401C106.1 43.4401 106.525 43.4401 106.844 43.5464C109.981 43.8653 110.938 45.1412 113.33 43.8653C113.596 43.4932 112.001 42.749 111.735 42.6427Z" fill="#512415"/>
<path d="M110.989 49.9251C109.926 49.4998 108.703 48.9682 107.108 48.8619C104.716 48.6493 102.59 50.2441 100.836 51.892C100.517 52.1046 100.304 52.1046 99.9851 52.1046C99.7724 52.1046 99.6661 52.1046 99.4535 52.1046L98.9219 52.211L99.3471 52.5299C99.7724 52.8489 100.198 53.0615 100.623 53.0615C101.367 53.0615 102.005 52.5299 102.643 51.892C103.068 51.4667 103.494 51.0414 104.025 50.7225C103.919 50.9351 103.919 51.2541 103.919 51.573C103.919 52.3173 104.131 52.8489 104.663 53.3805C105.195 53.9121 105.726 54.1247 106.471 54.1247C107.215 54.1247 107.746 53.9121 108.278 53.3805C108.81 52.8489 109.022 52.3173 109.022 51.573C109.022 51.0415 108.81 50.5099 108.597 50.0846C109.447 50.1909 109.873 50.2972 110.511 50.4035C110.83 50.5098 111.361 50.6162 111.999 50.8288L112.105 50.2972C111.893 50.4035 111.414 50.1909 110.989 49.9251Z" fill="#512415"/>
<path d="M124.386 42.5364C126.566 42.0048 127.629 42.1111 129.968 41.8984C130.287 41.8984 130.606 41.8984 130.819 41.8984C131.137 41.8984 131.456 41.8984 131.669 41.8984C135.337 42.43 138.155 45.2475 138.261 45.6728C138.261 45.6728 135.869 44.2906 135.231 44.078C134.699 43.8653 133.211 43.5464 132.626 43.5464C131.882 43.4401 131.137 43.4401 130.446 43.4401C130.127 43.4401 129.702 43.4401 129.383 43.5464C126.247 43.8653 125.29 45.1412 122.898 43.8653C122.526 43.4932 124.12 42.6427 124.386 42.5364Z" fill="#512415"/>
<path d="M136.295 52.2113C136.082 52.2113 135.976 52.2113 135.763 52.2113C135.444 52.2113 135.232 52.2113 134.913 51.9987C133.211 50.4039 131.032 48.8623 128.64 48.9686C127.045 49.0749 125.822 49.5002 124.759 50.0318C124.334 50.2444 123.909 50.3507 123.377 50.5634L123.483 51.095C124.227 50.8823 124.653 50.776 124.972 50.6697C125.61 50.457 125.929 50.3507 126.885 50.3507C126.567 50.776 126.46 51.3076 126.46 51.8392C126.46 52.5834 126.673 53.115 127.204 53.6466C127.736 54.1782 128.268 54.3908 129.012 54.3908C129.756 54.3908 130.288 54.1782 130.819 53.6466C131.351 53.115 131.564 52.5834 131.564 51.8392C131.564 51.5202 131.457 51.2013 131.457 50.9886C131.989 51.3076 132.414 51.7329 132.839 52.1581C133.477 52.7961 134.115 53.3277 134.859 53.3277C135.285 53.3277 135.71 53.2213 136.135 52.7961L136.56 52.4771L136.295 52.2113Z" fill="#512415"/>
<path d="M88.1836 177.455C88.7152 183.728 91.2137 189.628 90.0973 195.316C89.7784 197.018 89.3531 198.772 88.9278 200.473H147.722C147.297 198.772 146.872 197.018 146.553 195.316C145.49 189.628 148.254 183.674 148.945 177.455C149.37 172.83 150.433 166.663 152.188 159.274C155.218 145.931 156.812 138.914 157.025 138.17L127.522 137.319V136.788L118.697 137L109.873 136.788V137.319L80.3691 138.17C80.4755 138.914 82.0702 145.931 85.2067 159.274C86.642 166.717 87.7583 172.83 88.1836 177.455Z" fill="#ED6E84"/>
<path d="M181.429 285.635C182.599 282.392 183.024 279.043 182.492 275.641C182.067 272.61 181.429 270.165 180.578 268.305L179.834 266.497C178.133 263.042 176.804 258.948 175.954 254.324C175.103 249.592 174.359 244.649 173.561 239.439C172.924 234.282 172.179 229.232 171.276 224.235C169.681 212.274 167.608 204.194 165.003 199.995C165.109 198.612 165.109 197.177 165.109 195.901C165.109 193.881 165.109 191.808 164.896 189.894C164.79 187.874 164.79 185.801 164.79 183.781C164.79 181.495 164.896 179.262 164.896 176.977C164.896 174.797 165.003 172.671 165.003 170.597C165.109 168.312 165.109 165.973 165.003 163.687C165.003 161.401 164.896 159.274 164.896 157.095C164.79 154.809 164.684 152.683 164.471 150.503C164.259 148.324 164.152 146.197 163.94 144.124C163.727 141.838 163.302 139.712 162.557 137.532C161.919 135.512 160.856 133.758 159.315 132.269C157.826 130.887 156.072 129.984 154.052 129.558C151.66 129.239 149.64 129.984 147.779 131.738C146.397 133.333 145.281 135.087 144.749 137.107C144.217 139.712 143.898 142.37 143.898 144.975C143.898 147.26 143.898 149.493 144.111 151.779C144.217 154.809 144.43 157.68 144.536 160.71C144.749 163.315 144.962 165.76 145.068 168.258C145.387 171.395 145.706 174.531 146.131 177.614C146.45 180.113 146.769 182.665 147.194 185.163C147.62 188.087 148.045 191.064 148.683 193.988C149.214 196.911 149.746 199.888 150.49 202.706C150.809 204.088 151.234 205.523 151.553 206.905C151.341 207.437 151.341 207.756 151.341 207.862C150.809 211.955 151.234 218.069 152.829 226.149C154.318 231.199 156.178 236.728 158.305 242.735C159.58 246.19 161.654 251.666 164.312 259.108C164.737 260.277 165.162 261.5 165.481 262.67L165.056 262.882C162.876 267.082 162.557 271.494 164.205 276.225C165.906 281.169 164.737 285.262 160.75 288.611C159.368 289.568 158.464 290.791 157.933 292.173C157.826 292.386 157.826 292.705 157.826 292.917L158.251 293.343C159.208 293.555 160.272 293.449 161.388 293.024C161.601 292.917 161.919 292.705 162.238 292.598L160.325 294.991L159.793 296.798C160.325 296.904 161.069 297.011 161.813 297.011C162.345 296.904 162.876 296.798 163.514 296.692V296.798C164.896 297.011 166.438 297.011 167.82 296.692C168.245 296.585 168.671 296.479 169.096 296.266L169.309 296.16C173.721 294.884 176.964 292.492 179.09 288.93C179.834 289.356 180.366 289.462 180.685 289.143C181.216 288.824 181.323 288.08 180.897 286.751C181.535 286.485 181.535 286.06 181.429 285.635ZM173.455 278.724C173.774 279.787 174.199 280.903 174.625 282.073C174.252 281.01 173.827 279.787 173.455 278.724ZM181.535 280.106C181.323 281.488 181.323 282.817 181.323 283.987C181.216 282.817 181.323 281.541 181.535 280.106Z" fill="#9A4F2E"/>
<path d="M173.346 268.145C173.028 268.677 172.709 269.421 172.496 270.431C171.964 272.823 171.964 274.949 172.496 277.023C173.027 278.936 173.772 281.222 174.994 283.721C176.164 286.219 177.599 287.92 179.407 288.877C180.151 289.196 180.682 289.302 181.001 289.196C181.001 289.302 181.214 289.196 181.639 288.984C180.895 289.834 179.832 289.94 178.503 289.302C177.014 288.452 175.579 286.804 174.516 284.359C173.346 281.86 172.602 279.627 172.017 277.661C171.486 275.641 171.592 273.461 172.124 271.069C172.496 269.793 172.921 268.836 173.346 268.145Z" fill="#8D4328"/>
<path d="M63.9446 276.81C63.413 278.83 62.5625 281.116 61.4461 283.614C60.3829 286.113 58.8413 287.814 57.0339 288.664C56.3959 287.708 55.9707 286.751 55.5454 285.528C55.5454 285.422 55.5454 285.422 55.4391 285.315C55.758 283.136 55.6517 280.584 55.0138 277.66C54.4822 274.099 55.0138 271.281 56.6086 269.155C58.3097 266.975 59.8513 266.125 61.1271 266.444C61.8714 266.55 62.5093 267.082 63.0409 268.039C63.3598 268.676 63.5725 269.421 63.7851 270.324C64.3699 272.717 64.4762 274.843 63.9446 276.81Z" fill="#9A4F2E"/>
<path d="M92.0657 136.522C91.4278 134.502 90.4709 132.748 89.0356 131.153C87.2282 129.452 85.1549 128.761 82.7628 128.973C80.7427 129.292 78.9884 130.249 77.5 131.685C77.3937 131.791 77.2873 131.897 77.181 132.003C75.9052 133.386 74.8952 135.14 74.2573 136.947C73.513 139.127 73.0877 141.253 72.8751 143.539C72.6625 145.559 72.4498 147.739 72.3435 149.918C72.2372 152.098 72.0246 154.224 71.9182 156.51C71.9182 158.69 71.8119 160.816 71.7056 163.102C71.7056 165.388 71.7056 167.727 71.7056 170.012C71.7056 172.192 71.8119 174.318 71.8119 176.498C71.8119 178.784 71.9182 181.017 71.9182 183.302C71.9182 185.322 71.9182 187.396 71.8119 189.416C71.7056 191.329 71.5993 193.403 71.5993 195.423C71.5993 196.805 71.7056 198.134 71.7056 199.516C69.1008 203.716 66.9744 211.796 65.4328 223.757C65.1138 225.777 64.6885 227.85 64.3696 230.03C63.9443 232.953 63.519 235.93 63.0938 238.96C62.3495 244.01 61.6053 248.954 60.7016 253.845C59.851 258.47 58.522 262.457 56.8209 266.019L56.0767 267.826C55.3325 269.633 54.6946 272.132 54.163 275.162C53.7377 278.617 54.163 281.966 55.2262 285.156C55.2262 285.581 55.1198 285.9 55.0135 286.325C54.5882 287.601 54.6946 288.505 55.2262 288.718C55.5451 288.93 56.0767 288.824 56.8209 288.505C56.8209 288.611 56.9273 288.611 56.9273 288.718C57.0336 288.93 57.1399 289.143 57.3525 289.249C59.5321 292.279 62.6153 294.406 66.6023 295.628L66.8149 295.735C67.2402 295.841 67.6655 295.947 68.0908 296.16C69.5792 296.479 71.0145 296.479 72.503 296.266V296.16C73.1409 296.266 73.6725 296.373 74.2041 296.479C74.9483 296.479 75.5862 296.479 76.2242 296.266L75.6926 294.459L73.7788 292.067C73.9915 292.173 74.3104 292.386 74.6294 292.492C75.6926 293.024 76.6494 293.13 77.7658 292.811L78.1911 292.386C78.2974 292.173 78.1911 291.854 78.0847 291.641C77.6595 290.259 76.7026 289.037 75.2673 288.08C71.2803 284.731 70.1108 280.637 71.8119 275.694C73.4067 270.962 73.0877 266.444 70.9614 262.35L70.5361 262.138C70.9614 260.968 71.3866 259.746 71.7056 258.576C74.4167 251.134 76.4368 245.658 77.7126 242.203C79.8922 236.196 81.6996 230.667 83.188 225.617C84.6765 217.537 85.2081 211.424 84.6765 207.33C84.6765 207.224 84.6765 206.905 84.4639 206.374C84.8891 204.991 85.2081 203.556 85.5271 202.174C86.2713 199.25 86.9092 196.38 87.3345 193.456C87.8661 190.532 88.3977 187.555 88.823 184.631C89.2482 182.133 89.6735 179.581 89.8861 177.083C90.3114 173.946 90.6304 170.81 90.9493 167.727C91.162 165.334 91.3746 162.783 91.4809 160.178C91.6936 157.254 91.7999 154.277 91.9062 151.247C92.1188 148.961 92.2252 146.729 92.1188 144.443C92.9162 141.838 92.5973 139.127 92.0657 136.522ZM63.2001 268.039C63.519 268.676 63.7317 269.421 63.9443 270.324C63.7317 269.474 63.519 268.73 63.2001 268.039C63.0938 267.826 62.8811 267.613 62.7748 267.401C62.8811 267.507 62.9874 267.72 63.2001 268.039ZM60.9142 266.337C61.0205 266.337 61.1269 266.337 61.1269 266.337C61.3395 266.337 61.5521 266.444 61.6585 266.444C61.4458 266.337 61.3395 266.337 61.1269 266.337C61.0205 266.337 60.8079 266.337 60.7016 266.231C60.8079 266.337 60.9142 266.337 60.9142 266.337ZM60.5953 266.337C60.4889 266.337 60.3826 266.337 60.17 266.337C60.3826 266.337 60.4889 266.337 60.5953 266.337ZM60.0637 266.444C59.9574 266.444 59.851 266.55 59.7447 266.55C59.851 266.444 59.9574 266.444 60.0637 266.444ZM59.5321 266.55C59.4258 266.55 59.3194 266.656 59.2131 266.763C59.3194 266.656 59.4258 266.656 59.5321 266.55ZM59.0005 266.869C58.8942 266.975 58.7878 266.975 58.6815 267.082C58.7878 266.975 58.8942 266.975 59.0005 266.869ZM58.4689 267.294C58.3626 267.401 58.2562 267.507 58.1499 267.613C58.2031 267.507 58.3626 267.401 58.4689 267.294ZM57.8841 267.826C57.7778 267.932 57.6715 268.039 57.5652 268.145C57.6715 268.039 57.7778 267.932 57.8841 267.826ZM54.8009 275.056C54.8009 273.142 55.2262 271.388 56.0767 269.899C55.2262 271.388 54.8009 273.142 54.8009 275.056ZM56.7146 269.155C56.9273 268.942 57.1399 268.623 57.3525 268.411C57.1399 268.623 56.9273 268.836 56.7146 269.155Z" fill="#9A4F2E"/>
<path d="M64.4765 270.537C65.0081 272.929 65.0081 275.056 64.5828 277.129C64.0512 279.043 63.307 281.329 62.0843 283.827C61.0211 286.326 59.5858 288.027 58.0974 288.771C56.8215 289.409 55.7052 289.303 54.9609 288.452C55.3862 288.665 55.5989 288.771 55.5989 288.665C55.9178 288.771 56.4494 288.665 57.1936 288.346C59.0011 287.389 60.4364 285.635 61.6059 283.189C62.7754 280.691 63.5196 278.458 64.1044 276.491C64.636 274.471 64.636 272.292 64.1044 269.899C63.8917 268.943 63.5728 268.305 63.2538 267.614C63.8386 268.358 64.2639 269.368 64.4765 270.537Z" fill="#8D4328"/>
<path d="M167.766 353.36C167.766 369.839 167.447 386.106 166.809 402.054C166.597 406.36 166.49 410.666 166.171 414.972C165.534 427.145 164.896 436.607 164.258 443.518C163.939 446.442 163.726 448.887 163.407 450.854C160.802 452.874 157.4 454.522 152.935 456.011C151.446 456.542 149.798 456.968 147.991 457.393C147.034 457.605 146.077 457.818 145.067 458.031C143.047 458.456 140.868 458.881 138.688 459.2C135.126 459.732 131.246 460.157 127.259 460.37V460.582C124.335 460.689 121.464 460.689 118.434 460.689C115.404 460.689 112.534 460.689 109.61 460.582V460.37C103.124 459.944 97.2236 459.2 91.8545 457.978C90.7913 457.765 89.8344 457.552 88.8244 457.34C86.3259 456.808 84.1995 456.064 82.1263 455.426C78.5646 454.15 75.6409 452.608 73.5145 450.907C73.1955 448.994 72.9829 446.495 72.6639 443.571C72.026 436.661 71.3881 427.198 70.7502 415.025C70.5375 410.719 70.3249 406.413 70.2186 402.107C69.5807 386.053 69.2617 369.892 69.2617 353.413C69.2617 346.396 69.2617 339.645 69.368 333.053C69.5807 318.062 70.1123 304.293 70.8565 291.695C72.5576 263.999 75.8003 242.044 80.3189 225.564C80.7442 224.607 81.1694 223.651 81.4884 222.747C84.4122 215.836 86.3259 209.191 87.3891 202.812C88.4523 196.433 88.7712 189.682 88.1333 182.665C87.8144 178.571 87.0701 173.521 85.9538 167.461C85.6348 165.76 85.3159 164.006 84.8906 162.198C81.8605 147.207 80.2657 139.233 80.0531 138.383L109.557 137.426V136.894L118.381 137.213L127.206 136.894V137.426L139.166 137.851L156.709 138.383C156.603 139.233 155.008 147.101 151.872 162.198C151.553 164.006 151.127 165.76 150.915 167.461C149.851 173.468 149.107 178.571 148.735 182.665C148.204 189.682 148.416 196.433 149.479 202.812C150.543 209.191 152.509 215.73 155.274 222.747C155.699 223.704 156.018 224.661 156.443 225.564C160.962 242.044 164.098 264.105 165.906 291.695C166.756 304.293 167.181 318.062 167.394 333.159C167.766 339.591 167.766 346.343 167.766 353.36Z" fill="#EA5930"/>
<path d="M153.463 279.042H139.27V265.274H125.076V251.506H139.27V237.738H153.463V223.969H155.377C155.802 224.926 156.121 225.883 156.547 226.787C161.065 243.266 164.202 265.327 166.009 292.917H153.41V279.042H153.463Z" fill="#EE715A"/>
<path d="M139.217 305.41V319.178H125.023V332.999H110.723V346.874H82.283V332.999H69.3652C69.5779 318.008 70.1095 304.24 70.8537 291.641H82.283V277.873H110.723V291.641H124.917V305.41H139.217Z" fill="#EE715A"/>
<path d="M156.762 138.277C156.655 139.127 155.06 146.995 151.924 162.092C151.605 163.899 151.18 165.654 150.967 167.355H139.219V153.586H125.025V139.818H139.219V137.798L156.762 138.277Z" fill="#EE715A"/>
<path d="M125.023 181.123H110.723V167.354H85.4194C86.4826 173.149 87.2268 178.252 87.5989 182.239C88.1305 189.256 87.9179 196.007 86.8547 202.387C85.7915 208.872 83.7183 215.517 80.8477 222.64H82.3361V236.409H110.776V222.64H124.917V208.872H139.11V195.104H125.023V181.123Z" fill="#EE715A"/>
<path d="M158.727 140.881C146.341 140.031 133.105 140.137 118.858 141.306C104.664 142.476 92.4907 141.838 82.1246 139.393C79.0946 138.648 76.5429 137.798 74.257 136.788C74.257 136.894 74.1507 137 74.1507 137.107C73.4065 139.286 72.9812 141.413 72.7686 143.699C72.5559 145.719 72.3433 147.898 72.237 150.078C72.1307 152.257 71.918 154.384 71.8117 156.669C71.8117 158.849 71.7054 160.975 71.5991 163.261C71.5991 165.547 71.5991 167.886 71.5991 170.172C71.5991 172.352 71.5991 174.478 71.7054 176.551C71.7054 178.837 71.8117 181.07 71.8117 183.356C71.8117 185.376 71.8117 187.449 71.7054 189.469C71.5991 191.383 71.4927 193.456 71.4927 195.476C71.4927 196.858 71.5991 198.293 71.5991 199.675C68.9942 203.875 66.8679 211.955 65.3262 223.916C65.0073 225.936 64.582 228.116 64.2631 230.189C63.6251 228.807 63.1999 227.265 62.9872 225.458C60.4887 230.189 59.0003 227.637 58.3624 217.697C57.7244 207.756 59.0003 193.562 62.243 174.956C65.0605 159.221 67.7184 145.878 70.5359 134.874C67.6121 132.96 66.1236 130.674 65.8047 128.07C65.6984 127.113 67.1868 125.89 70.3232 124.614C68.4095 120.84 71.0675 116.64 78.2972 112.015C85.5268 107.391 92.0655 104.892 98.0193 104.679C103.92 104.361 108.917 104.254 112.798 104.148C114.392 104.148 115.509 104.148 115.828 103.935C116.147 103.723 119.708 103.297 126.3 102.659C132.998 102.022 141.61 104.254 151.179 106.646C154.74 107.497 156.335 108.666 155.804 110.208C163.246 112.122 165.904 115.046 163.99 119.033C173.24 135.353 171.114 141.732 158.727 140.881Z" fill="#F6AF1C"/>
<path d="M163.673 118.554C163.779 118.554 164.311 117.916 164.311 117.916C152.988 116.322 141.558 118.98 130.182 119.724C128.162 120.149 126.195 120.681 124.494 121.425C126.302 121.319 128.162 121.212 129.97 121.106C141.186 121.106 152.562 117.863 163.673 118.82C163.673 118.767 163.673 118.661 163.673 118.554Z" fill="#CC872B"/>
<path d="M71.279 124.295C70.96 124.827 69.8968 124.827 69.3652 125.359C72.608 126.422 76.3823 126.953 80.0503 126.847C81.7514 126.847 83.3993 126.741 85.1004 126.634C90.0443 126.316 95.0944 125.89 100.198 126.953C96.955 125.04 93.287 124.136 89.5127 123.817C87.5989 123.604 85.632 123.604 83.7183 123.711C81.8046 123.817 79.7313 124.03 77.8176 124.242C75.6912 124.295 73.5117 124.295 71.279 124.295Z" fill="#CC872B"/>
<path d="M110.885 70.4978C110.885 70.4978 111.31 71.4547 112.161 72.3052C113.011 73.1558 114.872 74.8037 117.317 74.91C119.709 75.0163 120.666 74.6974 121.304 74.3784C121.942 74.0595 124.44 72.6773 125.078 71.6673C125.716 70.6041 125.61 70.3915 125.61 70.3915C125.61 70.3915 117.104 70.2852 115.616 70.2852C114.234 70.3915 110.885 70.4978 110.885 70.4978Z" fill="#6C3421"/>
<path d="M109.609 70.4981C109.609 70.4981 111.098 70.0728 112.214 69.8602C113.277 69.6475 115.351 68.9033 116.095 69.0096C116.839 69.1159 117.69 69.4349 118.274 69.4349C118.859 69.4349 119.231 68.797 120.188 68.9033C121.145 69.0096 123.75 69.9665 124.494 70.0728C125.238 70.0728 127.311 70.2855 127.311 70.2855C127.311 70.2855 126.78 70.8171 125.026 71.0297C123.325 71.2423 120.826 71.5613 119.869 71.3486C119.869 71.3486 119.125 71.5613 118.381 71.6676C117.636 71.7739 116.68 71.455 116.573 71.455C116.467 71.455 114.181 71.6676 112.799 71.455C111.31 71.1892 110.247 71.1892 109.609 70.4981Z" fill="#502416"/>
<path d="M215.5 242C232.345 242 246 228.345 246 211.5C246 194.655 232.345 181 215.5 181C198.655 181 185 194.655 185 211.5C185 228.345 198.655 242 215.5 242Z" fill="#77251F"/>
<path d="M224.325 203.397L213.268 203.45L202.211 203.503C201.838 203.503 201.52 203.822 201.52 204.194C201.52 204.566 201.838 204.885 202.211 204.885L212.577 204.832L212.683 228.488C212.683 228.86 213.002 229.179 213.374 229.179C213.746 229.179 214.065 228.86 214.065 228.488L213.959 204.832L224.325 204.779C224.697 204.779 225.016 204.46 225.016 204.088C225.016 203.716 224.697 203.397 224.325 203.397Z" fill="#5F727F"/>
<path d="M213.373 229.338C212.948 229.338 212.576 228.966 212.576 228.541L212.469 204.991L202.21 205.045C201.784 205.045 201.412 204.672 201.412 204.247C201.412 203.822 201.784 203.45 202.21 203.45L224.324 203.29C224.749 203.29 225.121 203.662 225.121 204.088C225.121 204.3 225.015 204.513 224.909 204.672C224.802 204.832 224.536 204.885 224.324 204.885L214.064 204.938L214.17 228.488C214.17 228.701 214.064 228.913 213.958 229.073C213.798 229.232 213.586 229.338 213.373 229.338ZM212.629 204.779V204.885L212.735 228.541C212.735 228.701 212.788 228.86 212.895 228.966C213.001 229.073 213.16 229.126 213.32 229.126C213.479 229.126 213.639 229.073 213.745 228.966C213.851 228.86 213.905 228.701 213.905 228.541L213.798 204.779L224.271 204.726C224.43 204.726 224.59 204.672 224.696 204.566C224.802 204.46 224.855 204.3 224.855 204.141C224.855 203.822 224.59 203.503 224.218 203.503L202.103 203.609C201.784 203.609 201.465 203.875 201.465 204.247C201.465 204.407 201.518 204.566 201.625 204.672C201.731 204.779 201.891 204.832 202.05 204.832L212.629 204.779Z" fill="#5F727F"/>
<path d="M213.374 232.422C213.374 232.422 213.002 231.997 212.417 230.668C212.204 230.189 212.204 229.817 212.364 229.605C212.576 229.232 213.108 229.232 213.108 229.232V229.392C213.108 229.392 212.683 229.392 212.523 229.658C212.417 229.87 212.417 230.189 212.629 230.561C213.214 231.837 213.586 232.263 213.586 232.263L213.374 232.422Z" fill="#5F727F"/>
<path d="M213.585 230.243H213.319C212.841 230.243 212.469 229.87 212.469 229.392V229.179C212.469 228.701 212.841 228.329 213.319 228.329H213.585C214.064 228.329 214.436 228.701 214.436 229.179V229.392C214.382 229.817 214.01 230.243 213.585 230.243Z" fill="#5F727F"/>
<path d="M213.267 230.296C213.001 230.296 212.789 230.189 212.629 230.03C212.47 229.87 212.363 229.605 212.363 229.392V229.179C212.363 228.648 212.789 228.222 213.267 228.222H213.533C213.799 228.222 214.011 228.329 214.171 228.488C214.33 228.648 214.436 228.913 214.436 229.126V229.339C214.436 229.87 214.011 230.296 213.533 230.296V230.189V230.296H213.267ZM213.586 228.435C213.533 228.435 213.533 228.435 213.586 228.435H213.32C212.895 228.435 212.576 228.754 212.576 229.179V229.392C212.576 229.605 212.629 229.764 212.789 229.924C212.948 230.083 213.108 230.136 213.32 230.136H213.586C214.011 230.136 214.33 229.817 214.33 229.392V229.179C214.33 228.967 214.224 228.807 214.118 228.648C213.958 228.488 213.745 228.435 213.586 228.435Z" fill="#5F727F"/>
<path d="M208.852 203.231L204.865 203.25L204.875 205.164L208.862 205.144L208.852 203.231Z" fill="#E7ECEE"/>
<path d="M204.814 205.257V203.131H208.961V205.257H204.814ZM204.974 203.344V205.098H208.748V203.344H204.974Z" fill="#5F727F"/>
<path d="M214.232 206.107L212.318 206.116L212.412 224.669L214.326 224.659L214.232 206.107Z" fill="#E7ECEE"/>
<path d="M212.309 224.767V224.661L212.203 206.055H214.33V206.161L214.436 224.767H212.309ZM212.416 206.214L212.522 224.554H214.276L214.17 206.214H212.416Z" fill="#5F727F"/>
<path d="M221.079 203.124L217.092 203.145L217.101 205.058L221.088 205.038L221.079 203.124Z" fill="#E7ECEE"/>
<path d="M217.043 205.204V203.078H221.189V205.204H217.043ZM217.202 203.237V204.992H220.977V203.237H217.202Z" fill="#5F727F"/>
<path d="M214.17 229.286C214.17 229.498 214.011 229.711 213.798 229.711C213.585 229.711 213.426 229.498 213.426 229.286C213.426 229.073 213.585 228.86 213.798 228.86C214.011 228.86 214.17 229.02 214.17 229.286Z" fill="#5F727F"/>
<path d="M213.797 229.764C213.531 229.764 213.318 229.551 213.318 229.232C213.318 229.073 213.372 228.966 213.478 228.86C213.584 228.754 213.69 228.7 213.797 228.7C214.063 228.7 214.275 228.913 214.275 229.232C214.275 229.551 214.063 229.764 213.797 229.764ZM213.797 228.913C213.744 228.913 213.637 228.966 213.584 229.019C213.531 229.073 213.478 229.179 213.478 229.285C213.478 229.445 213.584 229.604 213.744 229.604C213.903 229.604 214.009 229.445 214.009 229.285C214.063 229.073 213.956 228.913 213.797 228.913Z" fill="white"/>
<path d="M220.711 240.183C220.711 240.183 219.648 238.216 217.096 236.994C214.491 235.771 213.375 232.422 213.375 232.369V232.316C213.375 232.316 213.375 231.837 213.96 230.508C214.119 230.083 214.172 229.817 214.013 229.604C213.853 229.339 213.428 229.339 213.428 229.339V229.179C213.481 229.179 213.96 229.179 214.172 229.551C214.332 229.817 214.332 230.189 214.119 230.615C213.588 231.784 213.534 232.209 213.534 232.316C213.641 232.581 214.757 235.611 217.149 236.781C219.754 238.057 220.87 240.024 220.87 240.024L220.711 240.183Z" fill="#5F727F"/>
<path d="M218.953 241.034C218.953 241.034 218.262 238.907 215.976 237.206C213.69 235.505 213.158 232.05 213.158 231.997H213.318C213.318 232.05 213.796 235.452 216.029 237.1C218.368 238.854 219.059 240.981 219.059 240.981L218.953 241.034Z" fill="#5F727F"/>
<path d="M213.318 232.422C213.265 232.422 213.211 232.422 213.211 232.369C213.158 232.315 213.158 232.315 213.158 232.262V232.103C213.158 231.997 213.265 231.943 213.318 231.943C213.424 231.943 213.477 232.05 213.477 232.103V232.262C213.53 232.369 213.424 232.422 213.318 232.422ZM213.318 232.103V232.262V232.103Z" fill="#5F727F"/>
<path d="M185.868 223.329L131.123 233.364L131.411 234.933L186.156 224.897L185.868 223.329Z" fill="#821A1B"/>
<path d="M121.834 235.877C125.98 233.432 130.977 229.551 133.848 225.936L132.519 233.91L136.612 240.874C132.625 238.535 126.565 236.728 121.834 235.877Z" fill="#821A1B"/>
</g>
<defs>
<clipPath id="clip0_569_7417">
<rect width="300" height="300" fill="white" transform="matrix(-1 0 0 1 300 0)"/>
</clipPath>
</defs>
</svg>
