<svg width="300" height="300" viewBox="0 0 300 300" fill="none" xmlns="http://www.w3.org/2000/svg">
<g clip-path="url(#clip0_569_7740)">
<path d="M108 164.001L83.5751 158C81.5239 171.314 81.4363 197.138 80.0712 202.733C78.7062 208.329 76.363 216.352 76.0199 225.289C75.6768 234.225 79.8668 272.95 81.6626 287.098C83.4583 301.246 82.5969 305.276 81.8889 310.117C81.1808 314.959 78.7865 316.336 81.3633 322.351C81.3633 322.351 82.7502 327.693 83.6189 329.346C83.6189 329.346 83.1517 335.144 88.7287 334.984C88.7287 334.984 96.1817 337.673 99.9922 336.84C99.9922 336.84 101.956 334.615 96.7949 333.02C91.634 331.426 93.2545 327.693 93.2545 327.693C93.2545 327.693 93.6195 329.679 96.6854 322.569C96.6854 322.569 98.8096 318.945 100.824 314.596C100.824 314.596 102.284 299.332 96.0211 296.477C89.758 293.621 97.9337 253.584 98.1162 225.745C98.1162 225.745 102.715 190.231 105.248 179.99C107.781 169.749 108 164.001 108 164.001Z" fill="#9F4A25"/>
<path d="M186 160.807L206.648 154C209.194 165.711 210.793 188.612 212.301 193.552C213.809 198.491 216.285 205.435 217.112 213.353C217.94 221.271 216.628 255.955 215.927 268.646C215.225 281.338 216.193 284.857 217.091 289.118C217.989 293.38 220.121 294.462 218.262 299.935C218.262 299.935 217.393 304.766 216.747 306.287C216.747 306.287 217.491 311.443 212.673 311.609C212.673 311.609 206.43 314.45 203.113 313.938C203.113 313.938 201.297 312.078 205.631 310.333C209.965 308.588 208.352 305.379 208.352 305.379C208.352 305.379 208.156 307.167 205.112 301.052C205.112 301.052 203.071 297.937 201.086 294.224C201.086 294.224 198.919 280.746 204.13 277.848C209.341 274.949 199.922 239.832 198.154 215.113C198.154 215.113 192.109 183.839 189.324 174.868C186.54 165.898 186 160.807 186 160.807Z" fill="#9F4A25"/>
<path d="M209 304C208.386 302.221 207.934 300.4 207.648 298.555C207.648 298.555 204.056 295.433 203 292C203 292 203.403 294.791 206.873 298.893C208.005 300.237 207.641 302.215 209 304Z" fill="#683113"/>
<path d="M214 311C214.347 310.545 214.601 309.889 214.722 309.137C214.844 308.385 214.825 307.58 214.67 306.85C214.146 304.151 214.169 299 214.169 299C214.169 299 214.457 304.804 214.934 307.467C214.934 307.467 215.371 310.369 214 311Z" fill="#88411E"/>
<path d="M216.982 304C216.982 304 215.862 299.713 216.014 299C216.014 299 217.155 302.999 216.982 304Z" fill="#88411E"/>
<path d="M180.998 170.491C181.004 170.553 180.996 170.616 180.974 170.675C180.952 170.734 180.917 170.789 180.871 170.836C180.825 170.884 180.769 170.922 180.707 170.95C180.644 170.979 180.575 170.995 180.505 171C180.364 170.991 180.233 170.933 180.139 170.84C180.045 170.747 179.995 170.625 180.001 170.5C179.992 170.376 180.039 170.254 180.132 170.161C180.224 170.067 180.354 170.009 180.495 170C180.635 170.007 180.766 170.062 180.86 170.154C180.954 170.246 181.004 170.367 180.998 170.491V170.491Z" fill="#BDBDBF"/>
<path d="M183.925 197.766C183.896 197.819 183.854 197.866 183.803 197.904C183.751 197.942 183.691 197.97 183.626 197.986C183.561 198.001 183.493 198.004 183.426 197.994C183.36 197.985 183.297 197.962 183.241 197.929C183.124 197.85 183.044 197.737 183.013 197.611C182.983 197.484 183.005 197.353 183.075 197.239C183.104 197.184 183.146 197.136 183.198 197.097C183.25 197.058 183.312 197.03 183.378 197.014C183.445 196.998 183.514 196.996 183.582 197.006C183.649 197.017 183.713 197.041 183.769 197.076C183.882 197.157 183.96 197.27 183.988 197.396C184.016 197.522 183.994 197.653 183.925 197.766V197.766Z" fill="#BDBDBF"/>
<path d="M184.924 198.772C184.894 198.825 184.852 198.871 184.8 198.908C184.748 198.946 184.687 198.972 184.623 198.987C184.558 199.002 184.49 199.004 184.424 198.994C184.358 198.983 184.296 198.96 184.241 198.927C184.124 198.847 184.044 198.734 184.013 198.608C183.983 198.481 184.005 198.349 184.075 198.235C184.104 198.181 184.145 198.134 184.197 198.096C184.248 198.058 184.309 198.03 184.374 198.014C184.439 197.999 184.507 197.996 184.573 198.006C184.639 198.015 184.703 198.038 184.758 198.071C184.876 198.152 184.956 198.267 184.987 198.395C185.017 198.523 184.995 198.657 184.924 198.772Z" fill="#BDBDBF"/>
<path d="M183.925 199.766C183.896 199.819 183.854 199.866 183.803 199.904C183.751 199.942 183.69 199.97 183.625 199.986C183.56 200.001 183.492 200.004 183.426 199.994C183.359 199.985 183.296 199.962 183.24 199.929C183.122 199.851 183.04 199.738 183.011 199.61C182.983 199.483 183.009 199.351 183.084 199.239C183.112 199.184 183.153 199.136 183.204 199.097C183.256 199.058 183.317 199.03 183.382 199.014C183.448 198.998 183.517 198.996 183.584 199.006C183.65 199.017 183.714 199.041 183.769 199.075C183.882 199.157 183.96 199.27 183.988 199.396C184.016 199.522 183.994 199.653 183.925 199.766Z" fill="#BDBDBF"/>
<path d="M185.968 229.327C186.014 229.448 186.01 229.579 185.957 229.697C185.904 229.815 185.805 229.913 185.678 229.973C185.614 229.994 185.545 230.003 185.477 229.999C185.408 229.995 185.342 229.978 185.281 229.95C185.221 229.921 185.168 229.882 185.126 229.834C185.084 229.787 185.053 229.732 185.037 229.673C184.986 229.553 184.988 229.42 185.041 229.301C185.095 229.181 185.196 229.084 185.327 229.027C185.391 229.006 185.46 228.997 185.528 229.001C185.596 229.005 185.663 229.022 185.724 229.05C185.784 229.079 185.837 229.118 185.879 229.166C185.921 229.213 185.951 229.268 185.968 229.327V229.327Z" fill="#BDBDBF"/>
<path d="M184.967 231.321C185.015 231.443 185.011 231.577 184.956 231.697C184.901 231.817 184.799 231.915 184.669 231.972C184.606 231.994 184.539 232.003 184.471 231.999C184.404 231.996 184.338 231.98 184.278 231.952C184.218 231.924 184.165 231.886 184.123 231.839C184.081 231.792 184.05 231.737 184.033 231.679C183.985 231.557 183.989 231.423 184.044 231.303C184.099 231.183 184.201 231.085 184.331 231.028C184.394 231.006 184.461 230.997 184.529 231.001C184.596 231.004 184.662 231.02 184.722 231.048C184.782 231.076 184.835 231.114 184.877 231.161C184.919 231.208 184.95 231.263 184.967 231.321V231.321Z" fill="#BDBDBF"/>
<path d="M185.998 265.528C185.998 265.653 185.945 265.773 185.852 265.862C185.758 265.95 185.632 266 185.5 266C185.368 266 185.241 265.95 185.147 265.862C185.054 265.773 185.002 265.653 185.002 265.528C184.996 265.464 185.004 265.399 185.025 265.338C185.046 265.276 185.08 265.219 185.125 265.17C185.169 265.121 185.223 265.081 185.284 265.052C185.345 265.022 185.412 265.005 185.48 265C185.552 264.998 185.623 265.011 185.689 265.038C185.756 265.064 185.815 265.104 185.864 265.154C185.913 265.204 185.95 265.263 185.973 265.327C185.996 265.392 186.005 265.461 185.998 265.528V265.528Z" fill="#BDBDBF"/>
<path d="M186.998 265.528C186.998 265.653 186.946 265.773 186.852 265.862C186.759 265.95 186.632 266 186.5 266C186.367 266 186.241 265.95 186.147 265.862C186.054 265.773 186.001 265.653 186.001 265.528C185.993 265.399 186.038 265.271 186.127 265.172C186.217 265.074 186.343 265.012 186.48 265C186.551 265 186.622 265.014 186.688 265.041C186.754 265.068 186.813 265.107 186.861 265.157C186.91 265.206 186.947 265.265 186.971 265.329C186.995 265.393 187.004 265.461 186.998 265.528V265.528Z" fill="#BDBDBF"/>
<path d="M185.998 266.528C185.998 266.653 185.946 266.773 185.852 266.862C185.759 266.95 185.632 267 185.5 267C185.367 267 185.241 266.95 185.147 266.862C185.054 266.773 185.001 266.653 185.001 266.528C184.993 266.399 185.038 266.271 185.127 266.172C185.217 266.074 185.343 266.012 185.48 266C185.551 266 185.622 266.014 185.688 266.041C185.754 266.068 185.813 266.107 185.861 266.157C185.91 266.206 185.947 266.265 185.971 266.329C185.995 266.393 186.004 266.461 185.998 266.528V266.528Z" fill="#BDBDBF"/>
<path d="M186.998 266.528C186.998 266.653 186.945 266.773 186.852 266.862C186.758 266.95 186.632 267 186.5 267C186.368 267 186.241 266.95 186.147 266.862C186.054 266.773 186.002 266.653 186.002 266.528C185.996 266.464 186.004 266.399 186.025 266.338C186.047 266.276 186.08 266.219 186.125 266.17C186.169 266.121 186.223 266.081 186.284 266.052C186.345 266.022 186.412 266.005 186.48 266C186.552 265.998 186.623 266.011 186.689 266.038C186.756 266.064 186.815 266.104 186.864 266.154C186.913 266.204 186.95 266.263 186.973 266.327C186.996 266.392 187.005 266.461 186.998 266.528V266.528Z" fill="#BDBDBF"/>
<path d="M168.862 91.2014C168.203 88.1835 167.587 83.089 168.561 80.1646C168.774 79.2528 169.315 78.452 170.08 77.9155C171.09 77.3551 173.068 77.7359 174.214 77.6353C179.329 77.1826 181.744 78.0952 185.82 77.6353C187.153 77.4772 188.965 76.9168 189.711 75.7671C190.749 74.2079 190.606 73.827 190.499 72.4546C190.377 70.9457 189.195 69.099 190.262 68.0571C190.535 67.8085 190.83 67.5848 191.143 67.3889C192.29 66.5698 192.834 63.8752 191.516 63.3938C192.949 62.6753 192.684 61.9136 192.741 61.2382C192.757 61.0172 192.699 60.7973 192.576 60.6131C191.924 59.6502 191.1 57.7389 191.573 57.0203C191.86 56.5677 192.29 56.8263 193.565 56C194.998 55.0444 195.37 52.4648 194.625 51.8325C192.913 50.3954 192.139 48.6565 191.566 47.8805C189.123 44.5968 188.557 43.4399 188.127 40.9969C187.561 37.8137 187.776 33.1288 186.902 30.0247C184.961 23.1627 180.934 20.2526 175.196 16.2287C166.978 10.4804 156.382 8.82058 146.624 10.7966C141.416 11.8528 126.457 16.6311 126.084 34.336C125.948 40.8029 129.294 46.7165 132.962 51.9546C136.63 57.1928 139.567 59.4346 140.943 65.7291C141.706 69.6987 141.625 73.7852 140.707 77.7215C138.65 87.5727 136.566 96.0228 130.784 104.149C128.341 107.584 122.488 111.335 121.048 115.308C119.608 119.282 119.479 124.046 121.764 127.588C125.239 132.941 146.123 146.759 155.164 142.678C159.542 140.702 174.916 170.191 179.136 167.87C182.303 166.131 188.45 131.476 188.722 127.797C188.872 125.95 172.473 98.4514 168.862 91.2014Z" fill="#9F4A25"/>
<path d="M186.007 63.8157C186.409 63.2649 186.873 62.7651 187.388 62.3266C187.982 61.6955 188.677 61.1742 189.442 60.7854C190.411 60.428 191.25 59.8398 192.175 60.0408C192.255 60.2344 194.106 61.9766 191.987 63.2051C191.835 63.3109 191.676 63.4055 191.51 63.4881C191.943 63.7388 192.287 64.1241 192.493 64.5886C192.7 65.0531 192.759 65.5731 192.661 66.074C192.563 66.5749 192.313 67.031 191.948 67.377C191.583 67.7229 191.121 67.941 190.628 68C189.613 67.4791 188.668 66.826 187.815 66.0567C187.147 65.4505 186.55 64.7658 186.036 64.0167V63.9497L186 63.8976L186.007 63.8157Z" fill="#572713"/>
<path d="M191 68C191 68 186.146 66.4145 184 63.8275C184 63.8275 185.227 65.0097 187.613 63" fill="#572713"/>
<path d="M188.706 55.5731C188.901 55.3249 189.125 55.1541 189.363 55.0731C189.724 54.9756 190.093 54.9756 190.454 55.0731C190.608 55.1105 190.753 55.2156 190.875 55.378C190.933 55.4492 190.974 55.5534 190.991 55.6719C191.008 55.7904 191 55.9154 190.968 56.0244C190.916 56.1416 190.844 56.2271 190.761 56.2683C190.354 56.5 189.912 56.0975 189.477 56.1097C188.949 56.1911 188.441 56.4971 188 57C188 57 187.972 56.378 188.706 55.5731Z" fill="#572713"/>
<path d="M184.791 33C184.726 33 184.395 33.3685 184.23 33.3608C183.928 33.3608 183.698 32.9846 183.173 33.0384C181.181 33.215 177.946 33.7063 176.501 34.0211C175.848 34.138 175.217 34.3661 174.631 34.6967C172.395 36.048 169.943 40.1401 170.001 41C170.84 40.3558 171.639 39.6557 172.395 38.904C172.884 38.382 173.912 38.1363 174.509 37.7754C177.385 36.1171 180.851 36.1785 184.144 36.1939C184.798 36.1939 185.301 33.1843 184.791 33Z" fill="#572713"/>
<path d="M188 57.8202C188 57.8202 186.866 58.3397 186.34 57.6125C185.533 56.5175 186.34 54.5195 186.924 54C184.978 58.2358 188 57.8202 188 57.8202Z" fill="#572713" stroke="#572713" stroke-width="0.28" stroke-miterlimit="10"/>
<path d="M177.813 43C177.313 43.7383 177.033 44.5849 177 45.4548C177 46.4557 177.549 47.7946 178.647 47.984C179.745 48.1733 181.173 46.6721 180.983 44.0752C180.039 43.48 178.949 43.1105 177.813 43V43Z" fill="#572713"/>
<path d="M178.104 42.6727C174.235 43.1042 174.415 47.2941 171 45.5977C171.415 45.4441 172.888 45.7658 173.256 45.3198C174.54 43.7842 176.052 42.3217 178.01 42.1243C179.969 41.9269 181.872 42.5192 183 42C182.052 43.2577 180.956 42.351 178.104 42.6727Z" fill="#492214" stroke="#492214" stroke-width="1.14" stroke-miterlimit="10"/>
<path d="M157.97 8.02577C161.621 8.14669 165.205 9.04606 168.486 10.6645C171.766 12.2829 174.668 14.5836 177 17.4146C169.668 20.6017 167.174 21.5442 162.965 27.6163C158.978 33.3719 160.228 34.8755 158.235 41.588C157.691 43.4154 156.748 45.5377 154.869 45.768C153.74 45.9118 152.682 45.2859 151.66 44.7823C149.516 43.6959 146.279 43.3434 145.157 45.5018C144.357 47.0558 145.2 48.9551 146.251 50.3436C147.301 51.7322 148.623 53.0632 148.909 54.7898C149.088 55.8834 148.809 57.0129 148.909 58.1137C149.009 59.2144 149.817 60.4087 150.91 60.3583L150.645 60.9411C150.365 64.5303 149.625 68.0681 148.445 71.4666C147.351 74.6106 143.921 78.2654 140.627 77.9848C140.734 72.4235 139.991 66.8262 136.632 62.4375C129.951 53.7178 124.234 44.0988 125.084 32.7028C125.799 23.4651 130.701 14.4576 139.691 11.1698C145.453 8.99745 151.567 7.92398 157.72 8.00418L157.97 8.02577Z" fill="#572713"/>
<path d="M131.764 66.5371C133.319 67.0825 135 67.1475 136.592 66.7238C139.55 65.8055 140.851 62.2446 139.882 59.445C139.38 58.2333 138.427 57.2685 137.228 56.7575C138.235 56.3785 139.118 55.7263 139.781 54.8727C140.443 54.0191 140.86 52.9973 140.984 51.92C141.07 50.8385 140.806 49.7581 140.233 48.8404C139.66 47.9227 138.808 47.2169 137.805 46.8286C136.392 46.4739 134.914 46.4739 133.501 46.8286L127.409 45.9626C126.154 44.8837 124.61 44.2056 122.972 44.0142C119.889 43.7753 117.39 46.5897 117.271 49.5759C117.299 50.8853 117.829 52.1328 118.75 53.0547C117.676 53.0368 116.617 53.3187 115.691 53.8693C114.764 54.4199 114.006 55.2178 113.5 56.1752C113.032 57.1509 112.887 58.2531 113.088 59.3183C113.289 60.3835 113.826 61.3547 114.617 62.0878C115.806 62.9396 117.181 63.4901 118.625 63.6928" fill="#572713"/>
<path d="M133.919 65.415C134.109 66.7658 133.965 68.1422 133.5 69.4256C133.045 70.3259 132.31 71.0559 131.402 71.5067C130.495 71.9574 129.465 72.1046 128.467 71.9262C127.476 71.7124 126.564 71.2312 125.831 70.5357C125.098 69.8403 124.573 68.9576 124.313 67.9848C123.727 69.055 122.742 69.8554 121.57 70.2153C118.854 70.8664 115.685 69.3287 115.098 66.4886C114.853 64.9644 115.069 63.4021 115.72 62" fill="#572713"/>
<path d="M125 50.4213C124.69 50.1485 124.332 50.0025 123.966 50C123.6 49.9975 123.241 50.1386 122.929 50.4072C122.618 50.6758 122.366 51.0612 122.204 51.5195C122.041 51.9778 121.974 52.4908 122.009 53C122.009 53 122.589 51.0465 123.407 50.6362C123.924 50.4313 124.464 50.3585 125 50.4213V50.4213Z" fill="#964216"/>
<path d="M127 66.1969C127.218 66.5346 127.498 66.78 127.81 66.9055C128.121 67.0309 128.451 67.0315 128.763 66.9072C129.074 66.7829 129.355 66.5385 129.574 66.2016C129.792 65.8647 129.94 65.4486 130 65C130 65 129.163 66.5027 128.419 66.5726C127.934 66.5699 127.453 66.4426 127 66.1969Z" fill="#964216"/>
<path d="M133.852 61C133.979 60.6411 134.025 60.2436 133.987 59.8522C133.948 59.4608 133.826 59.0911 133.634 58.7846C133.441 58.4781 133.186 58.2471 132.898 58.1175C132.609 57.988 132.298 57.965 132 58.0512C132 58.0512 133.232 58.4736 133.548 59.2805C133.731 59.8244 133.834 60.4075 133.852 61V61Z" fill="#964216"/>
<path d="M119.046 62C118.978 62.4357 118.985 62.8945 119.066 63.3238C119.147 63.7532 119.297 64.1358 119.501 64.4277C119.705 64.7196 119.954 64.9092 120.219 64.9746C120.484 65.04 120.755 64.9786 121 64.7975C121 64.7975 119.888 64.661 119.518 63.8593C119.294 63.2937 119.134 62.6633 119.046 62V62Z" fill="#964216"/>
<path d="M125 56C124.714 56.1712 124.469 56.4434 124.293 56.7864C124.117 57.1293 124.016 57.5299 124.002 57.9437C123.987 58.3575 124.06 58.7685 124.211 59.1314C124.363 59.4943 124.588 59.7949 124.86 60C124.86 60 124.126 58.536 124.315 57.6C124.465 57.0145 124.697 56.4716 125 56V56Z" fill="#964216"/>
<path d="M147 19C146.258 19.6479 142.914 22.1603 141.627 23.2618C139.285 25.3572 137.072 27.6079 135 30" fill="#964216"/>
<path d="M148 33C147.376 33.4722 144.568 35.2994 143.542 36.1001C141.584 37.6235 139.733 39.2601 138 41" fill="#964216"/>
<path d="M147 16C146.383 16.4736 143.6 18.2732 142.55 19.0674C140.6 20.5889 138.746 22.2365 137 24" fill="#964216"/>
<path d="M143 27C142.383 27.4718 139.568 29.2974 138.542 30.0974C136.584 31.6219 134.733 33.2594 133 35" fill="#964216"/>
<path d="M139 35C139.88 33.5507 141.066 32.2971 142.48 31.3208C145.497 29.001 148.678 26.8888 152 25" fill="#964216"/>
<path d="M140.636 78C138.891 89.2967 131.301 96.5868 119.961 101.437C115.182 101.495 117.837 106.937 116.194 111.216C114.551 115.496 114.406 120.585 117.019 124.384C120.972 130.118 148.093 125.265 158.345 120.893C163.319 118.743 168.481 117.123 173.31 114.635C176.93 112.772 181.701 102.45 181.998 98.5218C182.157 96.5005 171.862 101.081 168.278 86.3363" fill="#9F4A25"/>
<path d="M133.369 92C155.217 107.183 163.936 110.296 174.334 96.4074C181.805 104.185 182.98 147.383 177.94 176C149.342 123.056 122.805 97.963 133.369 92Z" fill="#F7B101"/>
<path d="M80.2318 146.883C81.6817 131.481 84.3721 124.001 91.9837 115C111.61 119.409 116.086 129.044 115.999 155.111C114.984 181.522 113.365 195.447 109.101 219.134C110.249 244.441 105.779 284.7 104.502 287.786C103.225 290.871 87.4784 290.602 75.1221 287.786C74.9062 276.9 74.8767 270.733 75.8886 258.988C74.8783 238.101 74.8654 228.038 76.655 215.535C76.0258 198.834 75.2179 189.529 77.4216 173.367C78.8935 163.064 79.6017 157.276 80.2318 146.883Z" fill="url(#paint0_linear_569_7740)"/>
<path d="M101.251 107.665C112.801 101.164 119.633 97.9794 132.346 93C131.483 103.124 135.572 112.981 145.966 133.393L179.374 171.214C181.843 223.327 183.111 252.57 184 305H109.218C111.22 279.414 111.908 267.594 111.274 257.403C109.225 243.209 109.259 234.226 109.218 218.296C109.93 213.151 110.037 210.21 109.989 204.917C111.545 195.511 112.147 192.194 112.045 186.393C113.763 177.834 114.679 171.168 116.156 154.748C113.778 127.882 107.633 120.449 92 114.612C95.8757 111.17 97.9427 109.526 101.251 107.665Z" fill="url(#paint1_linear_569_7740)"/>
<g filter="url(#filter0_d_569_7740)">
<path fill-rule="evenodd" clip-rule="evenodd" d="M146.693 122.977L134.344 101.6L133.715 92.4715C135.771 90.1586 137.827 87.8457 138.855 84.2478C136.75 85.323 135.543 86.0312 133.3 87.5887C129.795 90.1685 128.089 93.0827 126.718 104.243C126.578 104.775 126.567 105.064 126.694 105.565L131.325 126.449C131.556 128.177 132.085 128.258 133.3 127.807L141.441 125.089L135.387 134.129C134.971 134.64 135.013 134.95 135.648 135.55L178.43 170.596L146.693 122.977Z" fill="#F1F2F3"/>
</g>
<path d="M211.983 140.419C210.738 133.578 210.311 126.566 208.617 125C193.048 181.145 193.008 213.654 202.402 272.762C212.168 275.965 217.443 272.233 227 269.678C225.676 256.89 225.434 249.134 222.857 237.813C219.44 221.312 217.787 210.629 215.866 186.161C215.339 167.886 214.556 163.951 213.018 155.066C213.018 149.505 212.643 146.108 211.983 140.419Z" fill="#E3E5E4"/>
<g filter="url(#filter1_d_569_7740)">
<path d="M200.365 113.764C191.026 105.424 185.814 100.851 177 95C186.905 121.989 183.603 143.808 178.524 171.083C179.649 207.521 179.721 222.544 178.651 238.042C178.884 269.717 179.165 284.89 180.048 305H205.19L198.333 197.815L209 125.073C208.159 121.149 206.19 118.658 200.365 113.764Z" fill="#E4E6E5"/>
</g>
<g filter="url(#filter2_d_569_7740)">
<ellipse cx="182.232" cy="174.913" rx="2.5699" ry="2.5699" transform="rotate(-4.77694 182.232 174.913)" fill="#D7D7D7"/>
</g>
<g filter="url(#filter3_d_569_7740)">
<ellipse cx="182.746" cy="203.182" rx="2.56989" ry="2.5699" transform="rotate(-4.77693 182.746 203.182)" fill="#D7D7D7"/>
</g>
<g filter="url(#filter4_d_569_7740)">
<ellipse cx="182.232" cy="239.161" rx="2.5699" ry="2.5699" transform="rotate(-4.77694 182.232 239.161)" fill="#D7D7D7"/>
</g>
<g filter="url(#filter5_d_569_7740)">
<ellipse cx="182.746" cy="273.083" rx="2.56989" ry="2.5699" transform="rotate(-4.77693 182.746 273.083)" fill="#D7D7D7"/>
</g>
<path fill-rule="evenodd" clip-rule="evenodd" d="M182.191 174.401C182.756 174.354 183.205 174.201 183.194 174.059C183.182 173.918 182.714 173.841 182.148 173.889C181.582 173.936 181.133 174.089 181.145 174.23C181.157 174.372 181.625 174.448 182.191 174.401ZM182.319 175.938C182.884 175.89 183.333 175.737 183.322 175.596C183.31 175.454 182.842 175.378 182.276 175.425C181.71 175.473 181.261 175.626 181.273 175.767C181.285 175.908 181.753 175.985 182.319 175.938Z" fill="#C3C7C6"/>
<path fill-rule="evenodd" clip-rule="evenodd" d="M182.704 202.67C183.27 202.623 183.719 202.47 183.707 202.328C183.695 202.187 183.227 202.11 182.662 202.158C182.096 202.205 181.647 202.358 181.659 202.499C181.67 202.641 182.139 202.717 182.704 202.67ZM182.832 204.207C183.398 204.159 183.847 204.006 183.835 203.865C183.823 203.723 183.355 203.647 182.79 203.694C182.224 203.742 181.775 203.895 181.787 204.036C181.798 204.177 182.267 204.254 182.832 204.207Z" fill="#C3C7C6"/>
<path fill-rule="evenodd" clip-rule="evenodd" d="M182.191 238.648C182.756 238.601 183.205 238.448 183.194 238.307C183.182 238.165 182.714 238.089 182.148 238.136C181.582 238.184 181.133 238.337 181.145 238.478C181.157 238.619 181.625 238.696 182.191 238.648ZM182.319 240.185C182.884 240.138 183.333 239.985 183.322 239.843C183.31 239.702 182.842 239.626 182.276 239.673C181.71 239.72 181.261 239.873 181.273 240.015C181.285 240.156 181.753 240.232 182.319 240.185Z" fill="#C3C7C6"/>
<path fill-rule="evenodd" clip-rule="evenodd" d="M182.704 272.571C183.27 272.524 183.719 272.371 183.707 272.229C183.695 272.088 183.227 272.012 182.662 272.059C182.096 272.106 181.647 272.259 181.659 272.401C181.67 272.542 182.139 272.618 182.704 272.571ZM182.832 274.108C183.398 274.06 183.847 273.907 183.835 273.766C183.823 273.625 183.355 273.548 182.79 273.595C182.224 273.643 181.775 273.796 181.787 273.937C181.798 274.079 182.267 274.155 182.832 274.108Z" fill="#C3C7C6"/>
<g filter="url(#filter6_d_569_7740)">
<path fill-rule="evenodd" clip-rule="evenodd" d="M168.408 87.8457C169.436 91.0174 170.977 95.1301 174.091 97.534L179.697 120.243L178.173 171.624L191.099 127.125C191.28 126.651 191.279 126.651 191.023 126.395L191.022 126.394L186.34 122.757L191.363 121.811C192.355 121.666 192.627 121.375 191.767 119.86L182.543 99.8469C182.498 99.7501 182.444 99.624 182.384 99.4817C182.154 98.9413 181.825 98.1664 181.515 97.8682C177.473 91.9068 174.594 89.7651 168.408 87.8457Z" fill="#E9EAEC"/>
</g>
<path d="M116.787 203.804C116.787 203.804 112.243 224.262 121.35 256.559C121.35 256.559 116.994 217.819 116.808 203.798" fill="url(#paint2_radial_569_7740)"/>
<path d="M117.953 259.038C117.953 259.038 113.409 279.496 122.516 311.793C122.516 311.793 118.16 273.053 117.974 259.032" fill="url(#paint3_radial_569_7740)"/>
</g>
<defs>
<filter id="filter0_d_569_7740" x="122.605" y="82.2478" width="59.8242" height="94.3486" filterUnits="userSpaceOnUse" color-interpolation-filters="sRGB">
<feFlood flood-opacity="0" result="BackgroundImageFix"/>
<feColorMatrix in="SourceAlpha" type="matrix" values="0 0 0 0 0 0 0 0 0 0 0 0 0 0 0 0 0 0 127 0" result="hardAlpha"/>
<feOffset dy="2"/>
<feGaussianBlur stdDeviation="2"/>
<feComposite in2="hardAlpha" operator="out"/>
<feColorMatrix type="matrix" values="0 0 0 0 0 0 0 0 0 0 0 0 0 0 0 0 0 0 0.25 0"/>
<feBlend mode="normal" in2="BackgroundImageFix" result="effect1_dropShadow_569_7740"/>
<feBlend mode="normal" in="SourceGraphic" in2="effect1_dropShadow_569_7740" result="shape"/>
</filter>
<filter id="filter1_d_569_7740" x="171" y="91" width="40" height="218" filterUnits="userSpaceOnUse" color-interpolation-filters="sRGB">
<feFlood flood-opacity="0" result="BackgroundImageFix"/>
<feColorMatrix in="SourceAlpha" type="matrix" values="0 0 0 0 0 0 0 0 0 0 0 0 0 0 0 0 0 0 127 0" result="hardAlpha"/>
<feOffset dx="-2"/>
<feGaussianBlur stdDeviation="2"/>
<feComposite in2="hardAlpha" operator="out"/>
<feColorMatrix type="matrix" values="0 0 0 0 0 0 0 0 0 0 0 0 0 0 0 0 0 0 0.25 0"/>
<feBlend mode="normal" in2="BackgroundImageFix" result="effect1_dropShadow_569_7740"/>
<feBlend mode="normal" in="SourceGraphic" in2="effect1_dropShadow_569_7740" result="shape"/>
</filter>
<filter id="filter2_d_569_7740" x="175.662" y="170.343" width="13.1406" height="13.1401" filterUnits="userSpaceOnUse" color-interpolation-filters="sRGB">
<feFlood flood-opacity="0" result="BackgroundImageFix"/>
<feColorMatrix in="SourceAlpha" type="matrix" values="0 0 0 0 0 0 0 0 0 0 0 0 0 0 0 0 0 0 127 0" result="hardAlpha"/>
<feOffset dy="2"/>
<feGaussianBlur stdDeviation="2"/>
<feComposite in2="hardAlpha" operator="out"/>
<feColorMatrix type="matrix" values="0 0 0 0 0 0 0 0 0 0 0 0 0 0 0 0 0 0 0.25 0"/>
<feBlend mode="normal" in2="BackgroundImageFix" result="effect1_dropShadow_569_7740"/>
<feBlend mode="normal" in="SourceGraphic" in2="effect1_dropShadow_569_7740" result="shape"/>
</filter>
<filter id="filter3_d_569_7740" x="176.176" y="198.612" width="13.1406" height="13.1401" filterUnits="userSpaceOnUse" color-interpolation-filters="sRGB">
<feFlood flood-opacity="0" result="BackgroundImageFix"/>
<feColorMatrix in="SourceAlpha" type="matrix" values="0 0 0 0 0 0 0 0 0 0 0 0 0 0 0 0 0 0 127 0" result="hardAlpha"/>
<feOffset dy="2"/>
<feGaussianBlur stdDeviation="2"/>
<feComposite in2="hardAlpha" operator="out"/>
<feColorMatrix type="matrix" values="0 0 0 0 0 0 0 0 0 0 0 0 0 0 0 0 0 0 0.25 0"/>
<feBlend mode="normal" in2="BackgroundImageFix" result="effect1_dropShadow_569_7740"/>
<feBlend mode="normal" in="SourceGraphic" in2="effect1_dropShadow_569_7740" result="shape"/>
</filter>
<filter id="filter4_d_569_7740" x="175.662" y="234.591" width="13.1406" height="13.1401" filterUnits="userSpaceOnUse" color-interpolation-filters="sRGB">
<feFlood flood-opacity="0" result="BackgroundImageFix"/>
<feColorMatrix in="SourceAlpha" type="matrix" values="0 0 0 0 0 0 0 0 0 0 0 0 0 0 0 0 0 0 127 0" result="hardAlpha"/>
<feOffset dy="2"/>
<feGaussianBlur stdDeviation="2"/>
<feComposite in2="hardAlpha" operator="out"/>
<feColorMatrix type="matrix" values="0 0 0 0 0 0 0 0 0 0 0 0 0 0 0 0 0 0 0.25 0"/>
<feBlend mode="normal" in2="BackgroundImageFix" result="effect1_dropShadow_569_7740"/>
<feBlend mode="normal" in="SourceGraphic" in2="effect1_dropShadow_569_7740" result="shape"/>
</filter>
<filter id="filter5_d_569_7740" x="176.176" y="268.513" width="13.1406" height="13.1401" filterUnits="userSpaceOnUse" color-interpolation-filters="sRGB">
<feFlood flood-opacity="0" result="BackgroundImageFix"/>
<feColorMatrix in="SourceAlpha" type="matrix" values="0 0 0 0 0 0 0 0 0 0 0 0 0 0 0 0 0 0 127 0" result="hardAlpha"/>
<feOffset dy="2"/>
<feGaussianBlur stdDeviation="2"/>
<feComposite in2="hardAlpha" operator="out"/>
<feColorMatrix type="matrix" values="0 0 0 0 0 0 0 0 0 0 0 0 0 0 0 0 0 0 0.25 0"/>
<feBlend mode="normal" in2="BackgroundImageFix" result="effect1_dropShadow_569_7740"/>
<feBlend mode="normal" in="SourceGraphic" in2="effect1_dropShadow_569_7740" result="shape"/>
</filter>
<filter id="filter6_d_569_7740" x="164.408" y="85.8457" width="31.873" height="91.7786" filterUnits="userSpaceOnUse" color-interpolation-filters="sRGB">
<feFlood flood-opacity="0" result="BackgroundImageFix"/>
<feColorMatrix in="SourceAlpha" type="matrix" values="0 0 0 0 0 0 0 0 0 0 0 0 0 0 0 0 0 0 127 0" result="hardAlpha"/>
<feOffset dy="2"/>
<feGaussianBlur stdDeviation="2"/>
<feComposite in2="hardAlpha" operator="out"/>
<feColorMatrix type="matrix" values="0 0 0 0 0 0 0 0 0 0 0 0 0 0 0 0 0 0 0.25 0"/>
<feBlend mode="normal" in2="BackgroundImageFix" result="effect1_dropShadow_569_7740"/>
<feBlend mode="normal" in="SourceGraphic" in2="effect1_dropShadow_569_7740" result="shape"/>
</filter>
<linearGradient id="paint0_linear_569_7740" x1="74.8668" y1="286.5" x2="145.983" y2="-17.7311" gradientUnits="userSpaceOnUse">
<stop stop-color="#E5E7E6"/>
<stop offset="1" stop-color="#D4D4D4"/>
</linearGradient>
<linearGradient id="paint1_linear_569_7740" x1="175.777" y1="226.529" x2="111.754" y2="261.457" gradientUnits="userSpaceOnUse">
<stop stop-color="#E4E8E9"/>
<stop offset="0.479167" stop-color="#E4E6E5"/>
<stop offset="1" stop-color="#D3D5D3"/>
</linearGradient>
<radialGradient id="paint2_radial_569_7740" cx="0" cy="0" r="1" gradientUnits="userSpaceOnUse" gradientTransform="translate(83.773 232.176) rotate(-5.26154) scale(41.0314 181.897)">
<stop stop-color="#C6C8C5"/>
<stop offset="1" stop-color="#C6C8C5" stop-opacity="0"/>
</radialGradient>
<radialGradient id="paint3_radial_569_7740" cx="0" cy="0" r="1" gradientUnits="userSpaceOnUse" gradientTransform="translate(84.939 287.41) rotate(-5.26154) scale(41.0314 181.897)">
<stop stop-color="#C6C8C5"/>
<stop offset="1" stop-color="#C6C8C5" stop-opacity="0"/>
</radialGradient>
<clipPath id="clip0_569_7740">
<rect width="300" height="300" fill="white"/>
</clipPath>
</defs>
</svg>
