<svg width="300" height="300" viewBox="0 0 300 300" fill="none" xmlns="http://www.w3.org/2000/svg">
<path d="M37.2409 292H262.759C270.603 292 277 285.679 277 277.806V127H23V277.862C23 285.679 29.3417 292 37.2409 292Z" fill="white"/>
<path d="M277 54.6286C277 46.5714 270.657 40 262.756 40H37.244C29.3987 40 23 46.5143 23 54.6286V100H277V54.6286Z" fill="#821B1C"/>
<path d="M277 100H23V110H277V100Z" fill="#821B1C"/>
<path d="M277 110H23V119H277V110Z" fill="#821B1C"/>
<path d="M217 47C208.692 47 202 53.525 202 61.5C202 69.5308 208.75 76 217 76C225.307 76 232 69.475 232 61.5C232.057 53.525 225.307 47 217 47Z" fill="#F5A999"/>
<path d="M82.4998 47C74.4692 47 68 53.525 68 61.5C68 69.5308 74.5249 76 82.4998 76C90.5305 76 96.9996 69.475 96.9996 61.5C97.0554 53.525 90.5305 47 82.4998 47Z" fill="#F5A999"/>
<path d="M217 47C209.282 47 203 52.609 203 59.5C203 66.391 209.282 72 217 72C224.718 72 231 66.391 231 59.5C231.059 52.609 224.777 47 217 47Z" fill="#752515"/>
<path d="M217.236 7.85303V70.7267C222.684 70.7267 227.076 66.335 227.076 60.8871V17.6371C227.076 12.2447 222.684 7.85303 217.236 7.85303Z" fill="black"/>
<path d="M217.234 7.85303C211.786 7.85303 207.395 12.2447 207.395 17.6927V60.9427C207.395 66.3906 211.786 70.7823 217.234 70.7823V7.85303Z" fill="black"/>
<path opacity="0.1" d="M217.234 7.85303C211.786 7.85303 207.395 12.2447 207.395 17.6927V60.9427C207.395 66.3906 211.786 70.7823 217.234 70.7823V7.85303Z" fill="black"/>
<path d="M82.6509 47.6562C75.4797 47.6562 69.6426 53.4933 69.6426 60.6646C69.6426 67.8359 75.4797 73.6729 82.6509 73.6729C89.8222 73.6729 95.6593 67.8359 95.6593 60.6646C95.6593 53.4933 89.8222 47.6562 82.6509 47.6562Z" fill="#752515"/>
<path d="M82.709 7.85303V70.7267C88.1569 70.7267 92.5486 66.335 92.5486 60.8871V17.6371C92.5486 12.2447 88.1569 7.85303 82.709 7.85303Z" fill="black"/>
<path d="M82.7068 7.85303C77.2589 7.85303 72.8672 12.2447 72.8672 17.6927V60.9427C72.8672 66.3906 77.2589 70.7823 82.7068 70.7823V7.85303Z" fill="black"/>
<path opacity="0.1" d="M82.7068 7.85303C77.2589 7.85303 72.8672 12.2447 72.8672 17.6927V60.9427C72.8672 66.3906 77.2589 70.7823 82.7068 70.7823V7.85303Z" fill="black"/>
<path d="M59 127V292" stroke="black" stroke-width="0.25" stroke-miterlimit="10"/>
<path d="M96 127V292" stroke="black" stroke-width="0.25" stroke-miterlimit="10"/>
<path d="M132 127V292" stroke="black" stroke-width="0.25" stroke-miterlimit="10"/>
<path d="M168 127V292" stroke="black" stroke-width="0.25" stroke-miterlimit="10"/>
<path d="M204 127V292" stroke="black" stroke-width="0.25" stroke-miterlimit="10"/>
<path d="M241 127V292" stroke="black" stroke-width="0.25" stroke-miterlimit="10"/>
<path d="M29 158H272" stroke="black" stroke-width="0.25" stroke-miterlimit="10"/>
<path d="M29 191H272" stroke="black" stroke-width="0.25" stroke-miterlimit="10"/>
<path d="M29 227H272" stroke="black" stroke-width="0.25" stroke-miterlimit="10"/>
<path d="M29 259H272" stroke="black" stroke-width="0.25" stroke-miterlimit="10"/>
<path d="M42.3482 132.266L41.6255 132.155C41.1252 132.044 40.7361 131.877 40.4025 131.599C40.069 131.321 39.9578 130.987 39.9578 130.487C39.9578 129.987 40.1802 129.598 40.5693 129.32C40.9584 129.042 41.4588 128.875 42.0147 128.875C42.7929 128.875 43.5156 129.153 44.0715 129.764L43.6268 130.209C43.1821 129.709 42.6262 129.431 41.9591 129.431C41.5699 129.431 41.2364 129.542 41.014 129.709C40.7361 129.876 40.6249 130.154 40.6249 130.432C40.6249 130.987 41.0696 131.321 41.9035 131.488L42.4594 131.599C43.0153 131.71 43.46 131.877 43.7936 132.155C44.1271 132.433 44.2383 132.822 44.2383 133.267C44.2383 133.767 44.0159 134.156 43.6268 134.434C43.2377 134.768 42.7373 134.879 42.0703 134.879C41.5699 134.879 41.1252 134.768 40.7361 134.601C40.3469 134.434 40.0134 134.156 39.791 133.823L40.2357 133.378C40.6805 133.989 41.3476 134.323 42.1258 134.323C42.515 134.323 42.9041 134.212 43.1821 134.045C43.46 133.878 43.5712 133.6 43.5712 133.267C43.5712 132.766 43.1821 132.433 42.3482 132.266Z" fill="black"/>
<path d="M79.0898 133.6H78.4783L76.755 130.432V134.934H76.0879V129.042H76.6994L78.7563 132.878L80.8131 129.042H81.4247V134.879H80.7576V130.432L79.0898 133.6Z" fill="black"/>
<path d="M111.781 129.598V128.986H116.173V129.598H114.283V134.879H113.616V129.598H111.781Z" fill="black"/>
<path d="M151.748 128.986L153.026 133.934L154.305 128.986H155.028L153.415 134.879H152.693L151.414 130.043L150.136 134.879H149.413L147.801 128.986H148.523L149.802 133.934L151.081 128.986H151.748Z" fill="black"/>
<path d="M183.994 129.598V128.986H188.386V129.598H186.496V134.879H185.829V129.598H183.994Z" fill="black"/>
<path d="M221.128 132.21V134.934H220.461V129.042H224.13V129.653H221.072V131.655H223.908V132.266H221.128V132.21Z" fill="black"/>
<path d="M258.985 132.266L258.262 132.155C257.762 132.044 257.373 131.877 257.039 131.599C256.706 131.321 256.595 130.987 256.595 130.487C256.595 129.987 256.817 129.598 257.206 129.32C257.595 129.042 258.095 128.875 258.651 128.875C259.43 128.875 260.152 129.153 260.708 129.764L260.264 130.209C259.819 129.709 259.263 129.431 258.596 129.431C258.207 129.431 257.873 129.542 257.651 129.709C257.373 129.876 257.262 130.154 257.262 130.432C257.262 130.987 257.706 131.321 258.54 131.488L259.096 131.599C259.652 131.71 260.097 131.877 260.43 132.155C260.764 132.433 260.875 132.822 260.875 133.267C260.875 133.767 260.653 134.156 260.264 134.434C259.874 134.768 259.374 134.879 258.707 134.879C258.207 134.879 257.762 134.768 257.373 134.601C256.984 134.434 256.65 134.156 256.428 133.823L256.872 133.378C257.317 133.989 257.984 134.323 258.763 134.323C259.152 134.323 259.541 134.212 259.819 134.045C260.097 133.878 260.208 133.6 260.208 133.267C260.208 132.766 259.819 132.433 258.985 132.266Z" fill="black"/>
<path d="M111.391 152.001V151.056H113.67V144.496C113.114 144.941 112.391 145.108 111.391 145.108V144.329C111.891 144.329 112.391 144.218 112.836 143.996C113.281 143.774 113.614 143.496 113.781 143.106H114.615V151.112H116.783V152.057H111.391V152.001Z" fill="black" stroke="black" stroke-width="0.5" stroke-miterlimit="10"/>
<path d="M148.081 151.112H152.75V152.057H147.024V151.779C147.024 150.834 147.247 150.055 147.636 149.444C148.025 148.832 148.803 148.221 149.859 147.721L150.082 147.609C150.638 147.331 151.027 147.053 151.305 146.775C151.583 146.442 151.75 146.053 151.75 145.552C151.75 145.052 151.583 144.663 151.194 144.385C150.86 144.107 150.36 143.94 149.859 143.94C149.304 143.94 148.859 144.107 148.525 144.441C148.136 144.774 147.858 145.163 147.636 145.664L146.969 144.997C147.247 144.385 147.58 143.94 148.081 143.607C148.581 143.273 149.137 143.106 149.804 143.106C150.582 143.106 151.305 143.329 151.861 143.774C152.417 144.218 152.695 144.885 152.695 145.719C152.695 146.331 152.528 146.831 152.139 147.276C151.805 147.721 151.249 148.11 150.527 148.499L149.804 148.832C148.748 149.333 148.136 150.111 148.081 151.112Z" fill="black" stroke="black" stroke-width="0.5" stroke-miterlimit="10"/>
<path d="M187.383 147.331C187.772 147.498 188.161 147.776 188.439 148.165C188.717 148.554 188.884 148.999 188.884 149.555C188.884 150.389 188.606 151.056 188.05 151.501C187.494 151.945 186.771 152.168 185.938 152.168C185.382 152.168 184.881 152.057 184.325 151.834C183.77 151.612 183.38 151.278 183.047 150.889L183.714 150.222C184.325 150.945 185.104 151.278 186.049 151.278C186.605 151.278 187.049 151.112 187.439 150.834C187.828 150.556 187.994 150.111 187.994 149.555C187.994 148.999 187.772 148.61 187.383 148.332C186.994 148.054 186.438 147.943 185.826 147.943H185.159V146.998H185.715C186.327 146.998 186.883 146.831 187.272 146.553C187.661 146.275 187.828 145.83 187.828 145.33C187.828 144.83 187.661 144.441 187.272 144.218C186.938 143.996 186.494 143.829 186.049 143.829C185.215 143.829 184.548 144.163 183.992 144.774L183.325 144.107C184.048 143.273 184.937 142.884 185.993 142.884C186.716 142.884 187.383 143.106 187.939 143.496C188.495 143.94 188.773 144.496 188.773 145.274C188.773 145.775 188.662 146.164 188.384 146.553C187.939 146.998 187.661 147.22 187.383 147.331Z" fill="black" stroke="black" stroke-width="0.5" stroke-miterlimit="10"/>
<path d="M225.35 148.832V149.777H224.127V152.057H223.182V149.777H219.068V148.944L223.238 143.106H224.127V148.832H225.35ZM223.127 144.607L220.013 148.888H223.127V144.607Z" fill="black" stroke="black" stroke-width="0.5" stroke-miterlimit="10"/>
<path d="M260.541 149.221C260.541 148.61 260.374 148.11 259.985 147.776C259.596 147.443 259.096 147.276 258.54 147.276C258.151 147.276 257.817 147.387 257.484 147.554C257.15 147.721 256.928 147.998 256.761 148.276H255.816L256.038 143.106H260.819V144.052H256.928L256.761 147.053C256.928 146.831 257.206 146.72 257.484 146.553C257.817 146.442 258.151 146.386 258.54 146.386C259.318 146.386 259.985 146.664 260.541 147.165C261.097 147.665 261.375 148.388 261.375 149.277C261.375 150.111 261.097 150.778 260.541 151.334C259.985 151.89 259.207 152.168 258.262 152.168C257.15 152.168 256.261 151.723 255.482 150.778L256.15 150.111C256.761 150.889 257.484 151.223 258.318 151.223C258.929 151.223 259.429 151.056 259.819 150.667C260.319 150.333 260.541 149.833 260.541 149.221Z" fill="#E30613" stroke="#E30613" stroke-width="0.5" stroke-miterlimit="10"/>
<path d="M41.9557 180.352C40.955 180.352 40.1767 179.908 39.5652 179.074C38.9537 178.24 38.6758 177.073 38.6758 175.683C38.6758 174.293 38.9537 173.237 39.5652 172.403C40.1767 171.569 40.955 171.18 42.0113 171.18C43.0119 171.18 43.8458 171.569 44.4573 172.347L43.7902 173.07C43.3454 172.459 42.7339 172.125 42.0113 172.125C41.2886 172.125 40.6771 172.459 40.2323 173.181C39.7876 173.904 39.5652 174.793 39.6208 175.85C39.8432 175.405 40.1767 175.071 40.6215 174.849C41.0662 174.627 41.5109 174.515 41.9557 174.515C42.7339 174.515 43.4566 174.793 44.0125 175.349C44.5685 175.905 44.902 176.628 44.902 177.517C44.902 178.407 44.624 179.129 44.0125 179.685C43.401 180.075 42.7339 180.352 41.9557 180.352ZM41.9557 175.349C41.4553 175.349 40.955 175.516 40.6215 175.905C40.2323 176.294 40.0656 176.795 40.0656 177.351C40.0656 177.962 40.2323 178.407 40.6215 178.852C41.0106 179.241 41.4553 179.463 42.0113 179.463C42.5116 179.463 42.9563 179.296 43.3454 178.907C43.7346 178.574 43.9014 178.018 43.9014 177.351C43.9014 176.739 43.7346 176.239 43.3454 175.85C42.9563 175.516 42.5116 175.349 41.9557 175.349Z" fill="#E30613" stroke="#E30613" stroke-width="0.5" stroke-miterlimit="10"/>
<path d="M75.8699 174.015H74.9805V171.291H80.762V172.125C78.9275 174.349 77.8712 176.85 77.5933 179.686L77.5377 180.186H76.537L76.5926 179.686C76.7038 178.24 77.0373 176.85 77.5377 175.516C78.038 174.182 78.7051 173.07 79.5389 172.181H75.8143V174.015H75.8699Z" fill="black" stroke="black" stroke-width="0.5" stroke-miterlimit="10"/>
<path d="M115.95 179.685C115.394 180.13 114.727 180.408 113.893 180.408C113.059 180.408 112.392 180.186 111.836 179.685C111.28 179.241 111.002 178.574 111.002 177.851C111.002 177.295 111.169 176.85 111.502 176.406C111.836 176.016 112.169 175.738 112.559 175.627C112.225 175.516 111.947 175.238 111.669 174.905C111.391 174.571 111.224 174.126 111.224 173.626C111.224 172.903 111.502 172.292 112.003 171.847C112.559 171.402 113.17 171.18 113.893 171.18C114.615 171.18 115.227 171.402 115.783 171.847C116.339 172.292 116.561 172.903 116.561 173.626C116.561 174.126 116.394 174.571 116.116 174.905C115.838 175.238 115.505 175.46 115.227 175.627C115.56 175.738 115.95 175.961 116.283 176.406C116.617 176.795 116.783 177.295 116.783 177.851C116.783 178.574 116.505 179.185 115.95 179.685ZM113.893 176.128C113.337 176.128 112.892 176.294 112.503 176.572C112.169 176.85 111.947 177.295 111.947 177.795C111.947 178.296 112.114 178.74 112.503 179.018C112.892 179.296 113.337 179.463 113.837 179.463C114.337 179.463 114.838 179.296 115.171 179.018C115.56 178.74 115.727 178.296 115.727 177.795C115.727 177.295 115.56 176.906 115.171 176.572C114.893 176.294 114.449 176.128 113.893 176.128ZM115.06 172.459C114.727 172.181 114.337 172.069 113.893 172.069C113.448 172.069 113.059 172.181 112.725 172.459C112.392 172.736 112.225 173.126 112.225 173.626C112.225 174.126 112.392 174.515 112.725 174.793C113.059 175.071 113.448 175.183 113.948 175.183C114.449 175.183 114.838 175.071 115.171 174.793C115.505 174.515 115.672 174.126 115.672 173.626C115.616 173.126 115.394 172.736 115.06 172.459Z" fill="black" stroke="black" stroke-width="0.5" stroke-miterlimit="10"/>
<path d="M149.862 171.125C150.807 171.125 151.641 171.569 152.197 172.403C152.809 173.237 153.087 174.404 153.087 175.794C153.087 177.184 152.809 178.296 152.253 179.13C151.697 179.964 150.863 180.353 149.751 180.353C148.751 180.353 147.917 179.964 147.305 179.185L147.972 178.463C148.417 179.074 149.028 179.408 149.751 179.408C150.529 179.408 151.141 179.074 151.586 178.407C152.03 177.74 152.197 176.795 152.197 175.683C151.975 176.128 151.641 176.461 151.197 176.684C150.752 176.906 150.307 177.017 149.862 177.017C149.084 177.017 148.417 176.739 147.805 176.183C147.25 175.627 146.916 174.905 146.916 174.015C146.916 173.126 147.194 172.403 147.805 171.847C148.417 171.402 149.084 171.125 149.862 171.125ZM149.862 176.183C150.418 176.183 150.863 176.017 151.252 175.627C151.641 175.238 151.808 174.794 151.808 174.238C151.808 173.626 151.641 173.126 151.252 172.681C150.863 172.292 150.418 172.07 149.862 172.07C149.362 172.07 148.862 172.236 148.528 172.625C148.139 172.959 147.972 173.515 147.972 174.182C147.972 174.794 148.195 175.294 148.584 175.683C148.862 175.961 149.362 176.183 149.862 176.183Z" fill="black" stroke="black" stroke-width="0.5" stroke-miterlimit="10"/>
<path d="M179.711 180.241V179.296H181.99V172.737C181.434 173.181 180.712 173.348 179.711 173.348V172.459C180.211 172.459 180.712 172.347 181.156 172.125C181.601 171.903 181.935 171.625 182.101 171.236H182.935V179.241H185.103V180.186H179.711V180.241Z" fill="black" stroke="black" stroke-width="0.5" stroke-miterlimit="10"/>
<path d="M186.603 178.018C186.381 177.351 186.27 176.628 186.27 175.794C186.27 174.96 186.381 174.237 186.603 173.57C186.825 172.903 187.159 172.347 187.659 171.847C188.16 171.402 188.771 171.18 189.494 171.18C190.217 171.18 190.828 171.402 191.328 171.847C191.829 172.292 192.162 172.848 192.385 173.57C192.607 174.237 192.718 175.016 192.718 175.794C192.718 176.628 192.607 177.351 192.385 178.018C192.162 178.685 191.829 179.241 191.328 179.685C190.828 180.13 190.217 180.352 189.494 180.352C188.771 180.352 188.16 180.13 187.659 179.685C187.159 179.241 186.77 178.685 186.603 178.018ZM191.106 178.462C191.495 177.795 191.662 176.906 191.662 175.794C191.662 174.682 191.495 173.793 191.106 173.07C190.717 172.403 190.161 172.069 189.438 172.069C188.716 172.069 188.16 172.403 187.771 173.07C187.381 173.737 187.159 174.627 187.159 175.738C187.159 176.85 187.381 177.74 187.771 178.407C188.16 179.074 188.716 179.407 189.438 179.407C190.217 179.463 190.717 179.129 191.106 178.462Z" fill="black" stroke="black" stroke-width="0.5" stroke-miterlimit="10"/>
<path d="M216.346 180.241V179.296H218.625V172.737C218.069 173.181 217.346 173.348 216.346 173.348V172.459C216.846 172.459 217.346 172.347 217.791 172.125C218.236 171.903 218.569 171.625 218.736 171.236H219.57V179.241H221.738V180.186H216.346V180.241Z" fill="black" stroke="black" stroke-width="0.5" stroke-miterlimit="10"/>
<path d="M223.072 180.241V179.296H225.352V172.737C224.796 173.181 224.073 173.348 223.072 173.348V172.459C223.573 172.459 224.073 172.347 224.518 172.125C224.962 171.903 225.296 171.625 225.463 171.236H226.297V179.241H228.465V180.186H223.072V180.241Z" fill="black" stroke="black" stroke-width="0.5" stroke-miterlimit="10"/>
<path d="M252.148 180.241V179.296H254.428V172.737C253.872 173.181 253.149 173.348 252.148 173.348V172.459C252.649 172.459 253.149 172.347 253.594 172.125C254.039 171.903 254.372 171.625 254.539 171.236H255.373V179.241H257.541V180.186H252.148V180.241Z" fill="#E30613" stroke="#E30613" stroke-width="0.5" stroke-miterlimit="10"/>
<path d="M259.764 179.296H264.434V180.241H258.708V179.908C258.708 178.963 258.93 178.184 259.319 177.573C259.709 176.961 260.487 176.35 261.543 175.85L261.765 175.738C262.321 175.461 262.71 175.183 262.988 174.905C263.266 174.627 263.433 174.182 263.433 173.682C263.433 173.181 263.266 172.792 262.877 172.514C262.544 172.236 262.043 172.069 261.543 172.069C260.987 172.069 260.542 172.236 260.209 172.57C259.82 172.903 259.542 173.292 259.319 173.793L258.652 173.126C258.93 172.514 259.264 172.069 259.764 171.736C260.264 171.402 260.82 171.236 261.488 171.236C262.266 171.236 262.988 171.458 263.544 171.903C264.1 172.347 264.378 173.015 264.378 173.848C264.378 174.46 264.211 174.96 263.822 175.405C263.489 175.85 262.933 176.239 262.21 176.628L261.488 176.962C260.431 177.517 259.82 178.351 259.764 179.296Z" fill="#E30613" stroke="#E30613" stroke-width="0.5" stroke-miterlimit="10"/>
<path d="M35.5645 212.429V211.484H37.8437V204.924C37.2878 205.369 36.5651 205.536 35.5645 205.536V204.646C36.0648 204.646 36.5651 204.535 37.0098 204.313C37.4546 204.09 37.7881 203.812 37.9549 203.423H38.7887V211.428H40.9568V212.373H35.5645V212.429Z" fill="#E30613" stroke="#E30613" stroke-width="0.5" stroke-miterlimit="10"/>
<path d="M46.3498 207.759C46.7389 207.926 47.1281 208.204 47.406 208.593C47.684 208.982 47.8508 209.427 47.8508 209.983C47.8508 210.817 47.5728 211.484 47.0169 211.928C46.461 212.373 45.7383 212.596 44.9044 212.596C44.3485 212.596 43.8482 212.484 43.2923 212.262C42.7364 212.04 42.3472 211.706 42.0137 211.317L42.6808 210.65C43.2923 211.373 44.0705 211.706 45.0156 211.706C45.5715 211.706 46.0162 211.539 46.4054 211.261C46.7945 210.983 46.9613 210.539 46.9613 209.983C46.9613 209.427 46.7389 209.038 46.3498 208.76C45.9606 208.482 45.4047 208.371 44.7932 208.371H44.1261V207.426H44.682C45.2936 207.426 45.8495 207.259 46.2386 206.981C46.6277 206.703 46.7945 206.258 46.7945 205.758C46.7945 205.257 46.6277 204.868 46.2386 204.646C45.8495 204.424 45.4603 204.257 45.0156 204.257C44.1817 204.257 43.5146 204.59 42.9587 205.202L42.2916 204.535C43.0143 203.701 43.9038 203.312 44.96 203.312C45.6827 203.312 46.3498 203.534 46.9057 203.923C47.4616 204.368 47.7396 204.924 47.7396 205.702C47.7396 206.203 47.6284 206.592 47.3504 206.981C47.0725 207.37 46.6277 207.648 46.3498 207.759Z" fill="#E30613" stroke="#E30613" stroke-width="0.5" stroke-miterlimit="10"/>
<path d="M71.5879 212.429V211.484H73.8671V204.924C73.3112 205.369 72.5885 205.535 71.5879 205.535V204.646C72.0882 204.646 72.5885 204.535 73.0333 204.312C73.478 204.09 73.8115 203.812 73.9783 203.423H74.8122V211.428H76.9802V212.373H71.5879V212.429Z" fill="black" stroke="black" stroke-width="0.5" stroke-miterlimit="10"/>
<path d="M84.3189 209.26V210.205H83.0959V212.484H82.1509V210.205H78.0371V209.371L82.2065 203.534H83.0959V209.26H84.3189ZM82.0953 204.979L78.9822 209.26H82.0953V204.979Z" fill="black" stroke="black" stroke-width="0.5" stroke-miterlimit="10"/>
<path d="M107.889 212.429V211.484H110.168V204.924C109.612 205.369 108.889 205.535 107.889 205.535V204.646C108.389 204.646 108.889 204.535 109.334 204.312C109.779 204.09 110.112 203.812 110.279 203.423H111.113V211.428H113.281V212.373H107.889V212.429Z" fill="black" stroke="black" stroke-width="0.5" stroke-miterlimit="10"/>
<path d="M119.45 209.649C119.45 209.038 119.284 208.537 118.895 208.204C118.505 207.87 118.005 207.703 117.449 207.703C117.06 207.703 116.727 207.815 116.393 207.981C116.059 208.148 115.837 208.426 115.67 208.648H114.781L115.003 203.479H119.784V204.424H115.893L115.726 207.425C115.893 207.203 116.171 207.092 116.449 206.925C116.782 206.814 117.116 206.758 117.505 206.758C118.283 206.758 118.95 207.036 119.506 207.537C120.062 208.037 120.34 208.76 120.34 209.649C120.34 210.483 120.062 211.15 119.506 211.706C118.95 212.262 118.172 212.54 117.227 212.54C116.115 212.54 115.226 212.095 114.447 211.15L115.114 210.483C115.726 211.261 116.449 211.595 117.282 211.595C117.894 211.595 118.394 211.428 118.783 211.039C119.228 210.761 119.45 210.261 119.45 209.649Z" fill="black" stroke="black" stroke-width="0.5" stroke-miterlimit="10"/>
<path d="M143.578 212.429V211.484H145.857V204.924C145.301 205.369 144.579 205.535 143.578 205.535V204.646C144.078 204.646 144.579 204.535 145.024 204.312C145.468 204.09 145.802 203.812 145.969 203.423H146.802V211.428H148.97V212.373H143.578V212.429Z" fill="black" stroke="black" stroke-width="0.5" stroke-miterlimit="10"/>
<path d="M153.637 212.54C152.637 212.54 151.858 212.095 151.247 211.261C150.635 210.427 150.357 209.26 150.357 207.87C150.357 206.48 150.635 205.424 151.247 204.59C151.858 203.756 152.637 203.367 153.693 203.367C154.694 203.367 155.527 203.756 156.139 204.535L155.472 205.257C155.027 204.646 154.416 204.312 153.693 204.312C152.97 204.312 152.359 204.646 151.914 205.368C151.469 206.091 151.247 206.981 151.302 208.037C151.525 207.592 151.858 207.259 152.303 207.036C152.748 206.814 153.193 206.703 153.637 206.703C154.416 206.703 155.138 206.981 155.694 207.537C156.25 208.092 156.584 208.815 156.584 209.705C156.584 210.594 156.306 211.317 155.694 211.873C155.083 212.317 154.416 212.54 153.637 212.54ZM153.637 207.537C153.137 207.537 152.637 207.703 152.303 208.092C151.914 208.482 151.747 208.982 151.747 209.538C151.747 210.149 151.914 210.594 152.303 211.039C152.692 211.428 153.137 211.65 153.693 211.65C154.193 211.65 154.638 211.483 155.027 211.094C155.416 210.761 155.583 210.205 155.583 209.538C155.583 208.926 155.416 208.426 155.027 208.037C154.638 207.648 154.193 207.537 153.637 207.537Z" fill="black" stroke="black" stroke-width="0.5" stroke-miterlimit="10"/>
<path d="M180.436 212.429V211.484H182.715V204.924C182.159 205.369 181.436 205.535 180.436 205.535V204.646C180.936 204.646 181.436 204.535 181.881 204.312C182.326 204.09 182.659 203.812 182.826 203.423H183.66V211.428H185.828V212.373H180.436V212.429Z" fill="black" stroke="black" stroke-width="0.5" stroke-miterlimit="10"/>
<path d="M187.384 206.202H186.494V203.479H192.276V204.312C190.441 206.536 189.385 209.038 189.107 211.873L189.051 212.373H188.051L188.106 211.873C188.217 210.427 188.551 209.038 189.051 207.703C189.552 206.369 190.219 205.257 191.053 204.368H187.328V206.202H187.384Z" fill="black" stroke="black" stroke-width="0.5" stroke-miterlimit="10"/>
<path d="M216.18 212.429V211.484H218.459V204.924C217.903 205.369 217.18 205.535 216.18 205.535V204.646C216.68 204.646 217.18 204.535 217.625 204.312C218.07 204.09 218.403 203.812 218.57 203.423H219.404V211.428H221.572V212.373H216.18V212.429Z" fill="black" stroke="black" stroke-width="0.5" stroke-miterlimit="10"/>
<path d="M227.631 211.873C227.075 212.317 226.408 212.595 225.574 212.595C224.74 212.595 224.073 212.373 223.517 211.873C222.962 211.428 222.684 210.761 222.684 210.038C222.684 209.482 222.85 209.037 223.184 208.593C223.517 208.204 223.851 207.926 224.24 207.814C223.907 207.703 223.629 207.425 223.351 207.092C223.073 206.758 222.906 206.314 222.906 205.813C222.906 205.09 223.184 204.479 223.684 204.034C224.24 203.59 224.852 203.367 225.574 203.367C226.297 203.367 226.909 203.59 227.464 204.034C228.02 204.479 228.243 205.09 228.243 205.813C228.243 206.314 228.076 206.758 227.798 207.092C227.52 207.425 227.186 207.648 226.909 207.814C227.242 207.926 227.631 208.148 227.965 208.593C228.298 208.982 228.465 209.482 228.465 210.038C228.465 210.761 228.187 211.372 227.631 211.873ZM225.574 208.315C225.018 208.315 224.574 208.482 224.185 208.76C223.851 209.037 223.629 209.482 223.629 209.983C223.629 210.483 223.795 210.928 224.185 211.206C224.574 211.483 225.018 211.65 225.519 211.65C226.075 211.65 226.519 211.483 226.853 211.206C227.242 210.928 227.409 210.483 227.409 209.983C227.409 209.482 227.242 209.093 226.853 208.76C226.575 208.482 226.13 208.315 225.574 208.315ZM226.742 204.646C226.408 204.368 226.019 204.257 225.574 204.257C225.13 204.257 224.74 204.368 224.407 204.646C224.073 204.924 223.907 205.313 223.907 205.813C223.907 206.314 224.073 206.703 224.407 206.981C224.74 207.259 225.13 207.37 225.63 207.37C226.13 207.37 226.519 207.259 226.853 206.981C227.186 206.703 227.353 206.314 227.353 205.813C227.298 205.313 227.075 204.924 226.742 204.646Z" fill="black" stroke="black" stroke-width="0.5" stroke-miterlimit="10"/>
<path d="M252.201 212.429V211.484H254.48V204.924C253.925 205.369 253.202 205.535 252.201 205.535V204.646C252.701 204.646 253.202 204.535 253.647 204.312C254.091 204.09 254.425 203.812 254.592 203.423H255.425V211.428H257.594V212.373H252.201V212.429Z" fill="#E30613" stroke="#E30613" stroke-width="0.5" stroke-miterlimit="10"/>
<path d="M261.317 203.367C262.262 203.367 263.096 203.812 263.652 204.646C264.264 205.48 264.542 206.647 264.542 208.037C264.542 209.427 264.264 210.538 263.708 211.372C263.152 212.206 262.318 212.595 261.206 212.595C260.206 212.595 259.372 212.206 258.76 211.428L259.427 210.705C259.872 211.317 260.484 211.65 261.206 211.65C261.985 211.65 262.596 211.317 263.041 210.65C263.485 209.983 263.652 209.037 263.652 207.926C263.43 208.37 263.096 208.704 262.652 208.926C262.207 209.149 261.762 209.26 261.317 209.26C260.539 209.26 259.872 208.982 259.261 208.426C258.705 207.87 258.371 207.147 258.371 206.258C258.371 205.368 258.649 204.646 259.261 204.09C259.872 203.59 260.595 203.367 261.317 203.367ZM261.317 208.37C261.873 208.37 262.318 208.204 262.707 207.814C263.096 207.425 263.263 206.981 263.263 206.425C263.263 205.813 263.096 205.313 262.707 204.868C262.318 204.479 261.873 204.257 261.317 204.257C260.817 204.257 260.317 204.423 259.983 204.813C259.594 205.146 259.427 205.702 259.427 206.369C259.427 206.981 259.65 207.481 260.039 207.87C260.372 208.148 260.817 208.37 261.317 208.37Z" fill="#E30613" stroke="#E30613" stroke-width="0.5" stroke-miterlimit="10"/>
<path d="M35.8423 244.505H40.512V245.45H34.7861V245.172C34.7861 244.227 35.0084 243.448 35.3976 242.837C35.7867 242.225 36.565 241.614 37.6212 241.114L37.8436 241.002C38.3995 240.724 38.7886 240.447 39.0666 240.169C39.3445 239.835 39.5113 239.446 39.5113 238.946C39.5113 238.445 39.3445 238.056 38.9554 237.778C38.6219 237.5 38.1215 237.333 37.6212 237.333C37.0653 237.333 36.6206 237.5 36.287 237.834C35.8979 238.167 35.6199 238.556 35.3976 239.057L34.7305 238.39C35.0084 237.778 35.342 237.333 35.8423 237C36.3426 236.666 36.8985 236.5 37.5656 236.5C38.3439 236.5 39.0666 236.722 39.6225 237.167C40.1784 237.611 40.4564 238.278 40.4564 239.112C40.4564 239.724 40.2896 240.224 39.9005 240.669C39.5669 241.114 39.011 241.503 38.2883 241.892L37.5656 242.225C36.5094 242.726 35.8979 243.504 35.8423 244.505Z" fill="#E30613" stroke="#E30613" stroke-width="0.5" stroke-miterlimit="10"/>
<path d="M42.4585 243.17C42.2362 242.503 42.125 241.781 42.125 240.947C42.125 240.113 42.2362 239.39 42.4585 238.723C42.6809 238.056 43.0145 237.5 43.5148 237C44.0151 236.555 44.6266 236.333 45.3493 236.333C46.072 236.333 46.6835 236.555 47.1838 237C47.6841 237.445 48.0177 238 48.24 238.723C48.4624 239.39 48.5736 240.169 48.5736 240.947C48.5736 241.781 48.4624 242.503 48.24 243.17C48.0177 243.838 47.6841 244.393 47.1838 244.838C46.6835 245.283 46.072 245.505 45.3493 245.505C44.6266 245.505 44.0151 245.283 43.5148 244.838C43.0701 244.393 42.6809 243.838 42.4585 243.17ZM47.017 243.615C47.4062 242.948 47.5729 242.059 47.5729 240.947C47.5729 239.835 47.4062 238.946 47.017 238.223C46.6279 237.556 46.072 237.222 45.3493 237.222C44.6266 237.222 44.0707 237.556 43.6816 238.223C43.2924 238.89 43.0701 239.779 43.0701 240.891C43.0701 242.003 43.2924 242.893 43.6816 243.56C44.0707 244.227 44.6266 244.56 45.3493 244.56C46.072 244.56 46.6279 244.338 47.017 243.615Z" fill="#E30613" stroke="#E30613" stroke-width="0.5" stroke-miterlimit="10"/>
<path d="M72.5317 244.505H77.2014V245.45H71.4755V245.172C71.4755 244.227 71.6979 243.449 72.087 242.837C72.4762 242.226 73.2544 241.614 74.3107 241.114L74.533 241.003C75.0889 240.725 75.4781 240.447 75.756 240.169C76.034 239.835 76.2008 239.446 76.2008 238.946C76.2008 238.445 76.034 238.056 75.6449 237.778C75.3113 237.5 74.811 237.334 74.3107 237.334C73.7548 237.334 73.31 237.5 72.9765 237.834C72.5873 238.168 72.3094 238.557 72.087 239.057L71.4199 238.39C71.6979 237.778 72.0314 237.334 72.5317 237C73.0321 236.667 73.588 236.5 74.2551 236.5C75.0333 236.5 75.756 236.722 76.312 237.167C76.8679 237.612 77.1458 238.279 77.1458 239.113C77.1458 239.724 76.979 240.224 76.5899 240.669C76.2564 241.114 75.7004 241.503 74.9778 241.892L74.2551 242.226C73.1988 242.726 72.5873 243.504 72.5317 244.505Z" fill="black" stroke="black" stroke-width="0.5" stroke-miterlimit="10"/>
<path d="M78.9785 245.394V244.449H81.2578V237.89C80.7018 238.334 79.9792 238.501 78.9785 238.501V237.723C79.4788 237.723 79.9792 237.612 80.4239 237.389C80.8686 237.167 81.2022 236.889 81.3689 236.5H82.2028V244.505H84.3709V245.45H78.9785V245.394Z" fill="black" stroke="black" stroke-width="0.5" stroke-miterlimit="10"/>
<path d="M108.334 244.505H113.004V245.45H107.278V245.172C107.278 244.227 107.501 243.449 107.89 242.837C108.279 242.226 109.057 241.614 110.113 241.114L110.336 241.003C110.892 240.725 111.281 240.447 111.559 240.169C111.837 239.835 112.004 239.446 112.004 238.946C112.004 238.445 111.837 238.056 111.448 237.778C111.114 237.5 110.614 237.334 110.113 237.334C109.557 237.334 109.113 237.5 108.779 237.834C108.39 238.168 108.112 238.557 107.89 239.057L107.223 238.39C107.501 237.778 107.834 237.334 108.334 237C108.835 236.667 109.391 236.5 110.058 236.5C110.836 236.5 111.559 236.722 112.115 237.167C112.671 237.612 112.949 238.279 112.949 239.113C112.949 239.724 112.782 240.224 112.393 240.669C112.059 241.114 111.503 241.503 110.781 241.892L110.058 242.226C109.002 242.726 108.334 243.504 108.334 244.505Z" fill="black" stroke="black" stroke-width="0.5" stroke-miterlimit="10"/>
<path d="M115.673 244.505H120.343V245.45H114.617V245.172C114.617 244.227 114.84 243.449 115.229 242.837C115.618 242.226 116.396 241.614 117.452 241.114L117.675 241.003C118.231 240.725 118.62 240.447 118.898 240.169C119.176 239.835 119.342 239.446 119.342 238.946C119.342 238.445 119.176 238.056 118.787 237.778C118.453 237.5 117.953 237.333 117.452 237.333C116.896 237.333 116.452 237.5 116.118 237.834C115.729 238.167 115.451 238.557 115.229 239.057L114.617 238.279C114.895 237.667 115.229 237.222 115.729 236.889C116.229 236.555 116.785 236.388 117.452 236.388C118.231 236.388 118.953 236.611 119.509 237.056C120.065 237.5 120.343 238.167 120.343 239.001C120.343 239.613 120.176 240.113 119.787 240.558C119.454 241.002 118.898 241.392 118.175 241.781L117.452 242.114C116.341 242.726 115.729 243.504 115.673 244.505Z" fill="black" stroke="black" stroke-width="0.5" stroke-miterlimit="10"/>
<path d="M144.465 244.505H149.135V245.45H143.409V245.172C143.409 244.227 143.631 243.449 144.021 242.837C144.41 242.226 145.188 241.614 146.244 241.114L146.467 241.003C147.023 240.725 147.412 240.447 147.69 240.169C147.968 239.835 148.134 239.446 148.134 238.946C148.134 238.445 147.968 238.056 147.578 237.778C147.245 237.5 146.745 237.334 146.244 237.334C145.688 237.334 145.244 237.5 144.91 237.834C144.521 238.168 144.243 238.557 144.021 239.057L143.354 238.39C143.631 237.778 143.965 237.334 144.465 237C144.966 236.667 145.522 236.5 146.189 236.5C146.967 236.5 147.69 236.722 148.246 237.167C148.801 237.612 149.079 238.279 149.079 239.113C149.079 239.724 148.913 240.224 148.523 240.669C148.19 241.114 147.634 241.503 146.911 241.892L146.189 242.226C145.132 242.726 144.521 243.504 144.465 244.505Z" fill="black" stroke="black" stroke-width="0.5" stroke-miterlimit="10"/>
<path d="M154.971 240.725C155.36 240.891 155.749 241.169 156.027 241.559C156.305 241.948 156.472 242.392 156.472 242.948C156.472 243.782 156.194 244.449 155.638 244.894C155.082 245.339 154.359 245.561 153.526 245.561C152.97 245.561 152.414 245.45 151.913 245.228C151.357 245.005 150.968 244.672 150.635 244.282L151.302 243.615C151.913 244.338 152.692 244.672 153.637 244.672C154.193 244.672 154.637 244.505 155.026 244.227C155.416 243.949 155.582 243.504 155.582 242.948C155.582 242.392 155.36 242.003 154.971 241.725C154.582 241.447 154.026 241.336 153.414 241.336H152.747V240.391H153.303C153.915 240.391 154.471 240.224 154.86 239.946C155.249 239.668 155.416 239.224 155.416 238.723C155.416 238.223 155.249 237.834 154.86 237.612C154.471 237.389 154.081 237.222 153.637 237.222C152.803 237.222 152.136 237.556 151.58 238.167L150.913 237.5C151.635 236.666 152.525 236.277 153.581 236.277C154.304 236.277 154.971 236.5 155.527 236.889C156.083 237.334 156.361 237.889 156.361 238.668C156.361 239.168 156.249 239.557 155.972 239.946C155.694 240.335 155.249 240.613 154.971 240.725Z" fill="black" stroke="black" stroke-width="0.5" stroke-miterlimit="10"/>
<path d="M180.659 244.505H185.329V245.45H179.658V245.172C179.658 244.227 179.881 243.449 180.27 242.837C180.659 242.226 181.437 241.614 182.493 241.114L182.716 241.003C183.272 240.725 183.661 240.447 183.939 240.169C184.217 239.891 184.383 239.446 184.383 238.946C184.383 238.445 184.217 238.056 183.828 237.778C183.494 237.5 182.994 237.333 182.493 237.333C181.937 237.333 181.493 237.5 181.159 237.834C180.77 238.167 180.492 238.557 180.27 239.057L179.658 238.279C179.936 237.667 180.27 237.222 180.77 236.889C181.27 236.555 181.826 236.388 182.493 236.388C183.272 236.388 183.994 236.611 184.55 237.056C185.106 237.5 185.384 238.167 185.384 239.001C185.384 239.613 185.217 240.113 184.828 240.558C184.495 241.002 183.939 241.392 183.216 241.781L182.493 242.114C181.326 242.726 180.714 243.504 180.659 244.505Z" fill="black" stroke="black" stroke-width="0.5" stroke-miterlimit="10"/>
<path d="M192.719 242.226V243.171H191.496V245.45H190.551V243.171H186.438V242.337L190.607 236.5H191.496V242.226H192.719ZM190.551 238.001L187.438 242.281H190.551V238.001Z" fill="black" stroke="black" stroke-width="0.5" stroke-miterlimit="10"/>
<path d="M216.793 244.505H221.463V245.45H215.737V245.172C215.737 244.227 215.96 243.449 216.349 242.837C216.738 242.226 217.516 241.614 218.572 241.114L218.795 241.003C219.351 240.725 219.74 240.447 220.018 240.169C220.296 239.891 220.462 239.446 220.462 238.946C220.462 238.445 220.296 238.056 219.907 237.778C219.573 237.5 219.073 237.334 218.572 237.334C218.016 237.334 217.572 237.5 217.238 237.834C216.849 238.168 216.571 238.557 216.349 239.057L215.682 238.39C215.96 237.778 216.293 237.334 216.793 237C217.294 236.667 217.85 236.5 218.517 236.5C219.295 236.5 220.018 236.722 220.574 237.167C221.13 237.612 221.408 238.279 221.408 239.113C221.408 239.724 221.241 240.224 220.852 240.669C220.518 241.114 219.962 241.503 219.239 241.892L218.517 242.226C217.461 242.726 216.849 243.504 216.793 244.505Z" fill="black" stroke="black" stroke-width="0.5" stroke-miterlimit="10"/>
<path d="M228.079 242.615C228.079 242.003 227.913 241.503 227.523 241.169C227.134 240.836 226.634 240.669 226.078 240.669C225.689 240.669 225.355 240.78 225.022 240.947C224.688 241.114 224.466 241.392 224.299 241.614H223.41L223.632 236.444H228.413V237.389H224.522L224.355 240.391C224.522 240.169 224.8 240.058 225.077 239.891C225.411 239.78 225.745 239.724 226.134 239.724C226.912 239.724 227.579 240.002 228.135 240.502C228.691 241.003 228.969 241.725 228.969 242.615C228.969 243.449 228.691 244.116 228.135 244.672C227.579 245.227 226.801 245.505 225.856 245.505C224.744 245.505 223.854 245.061 223.076 244.116L223.743 243.449C224.355 244.227 225.077 244.56 225.911 244.56C226.523 244.56 227.023 244.394 227.412 244.004C227.857 243.727 228.079 243.226 228.079 242.615Z" fill="black" stroke="black" stroke-width="0.5" stroke-miterlimit="10"/>
<path d="M252.483 244.505H257.153V245.45H251.427V245.172C251.427 244.227 251.649 243.449 252.038 242.837C252.427 242.226 253.206 241.614 254.262 241.114L254.484 241.003C255.04 240.725 255.429 240.447 255.707 240.169C255.985 239.891 256.152 239.446 256.152 238.946C256.152 238.445 255.985 238.056 255.596 237.778C255.262 237.5 254.762 237.334 254.262 237.334C253.706 237.334 253.261 237.5 252.928 237.834C252.539 238.168 252.261 238.557 252.038 239.057L251.371 238.39C251.649 237.778 251.983 237.334 252.483 237C252.983 236.667 253.539 236.5 254.206 236.5C254.985 236.5 255.707 236.722 256.263 237.167C256.819 237.612 257.097 238.279 257.097 239.113C257.097 239.724 256.93 240.224 256.541 240.669C256.208 241.114 255.652 241.503 254.929 241.892L254.206 242.226C253.15 242.726 252.539 243.504 252.483 244.505Z" fill="#E30613" stroke="#E30613" stroke-width="0.5" stroke-miterlimit="10"/>
<path d="M262.268 245.561C261.268 245.561 260.489 245.116 259.878 244.282C259.266 243.449 258.988 242.281 258.988 240.891C258.988 239.502 259.266 238.445 259.878 237.611C260.489 236.778 261.268 236.388 262.324 236.388C263.324 236.388 264.158 236.778 264.77 237.556L264.103 238.279C263.658 237.667 263.046 237.333 262.324 237.333C261.601 237.333 260.99 237.667 260.545 238.39C260.1 239.112 259.878 240.002 259.933 241.058C260.156 240.613 260.489 240.28 260.934 240.057C261.379 239.835 261.823 239.724 262.268 239.724C263.046 239.724 263.769 240.002 264.325 240.558C264.881 241.114 265.214 241.836 265.214 242.726C265.214 243.615 264.937 244.338 264.325 244.894C263.714 245.283 263.046 245.561 262.268 245.561ZM262.268 240.558C261.768 240.558 261.268 240.725 260.934 241.114C260.545 241.503 260.378 242.003 260.378 242.559C260.378 243.171 260.545 243.615 260.934 244.06C261.323 244.449 261.768 244.672 262.324 244.672C262.824 244.672 263.269 244.505 263.658 244.116C264.047 243.782 264.214 243.226 264.214 242.559C264.214 241.948 264.047 241.447 263.658 241.058C263.269 240.669 262.824 240.558 262.268 240.558Z" fill="#E30613" stroke="#E30613" stroke-width="0.5" stroke-miterlimit="10"/>
<path d="M36.3453 278.304H41.015V279.249H35.3447V278.971C35.3447 278.026 35.567 277.248 35.9562 276.636C36.3453 276.025 37.1236 275.413 38.1798 274.913L38.4022 274.802C38.9581 274.524 39.3472 274.246 39.6252 273.968C39.9031 273.635 40.0699 273.245 40.0699 272.745C40.0699 272.245 39.9031 271.856 39.514 271.578C39.1804 271.3 38.6801 271.133 38.1798 271.133C37.6239 271.133 37.1792 271.3 36.8456 271.633C36.4565 271.967 36.1785 272.356 35.9562 272.856L35.2891 272.189C35.567 271.578 35.9006 271.133 36.4009 270.799C36.9012 270.466 37.4571 270.299 38.1242 270.299C38.9025 270.299 39.6252 270.521 40.1811 270.966C40.737 271.411 41.015 272.078 41.015 272.912C41.015 273.523 40.8482 274.024 40.459 274.468C40.1255 274.913 39.5696 275.302 38.8469 275.691L38.1242 276.025C37.0124 276.525 36.4009 277.304 36.3453 278.304Z" fill="#E30613" stroke="#E30613" stroke-width="0.5" stroke-miterlimit="10"/>
<path d="M43.4598 273.023H42.5703V270.299H48.3518V271.133C46.5173 273.357 45.4611 275.858 45.1831 278.693L45.1275 279.194H44.1269L44.1825 278.693C44.2936 277.248 44.6272 275.858 45.1275 274.524C45.6278 273.19 46.2949 272.078 47.1288 271.189H43.4598V273.023Z" fill="#E30613" stroke="#E30613" stroke-width="0.5" stroke-miterlimit="10"/>
<path d="M72.3677 278.304H77.0373V279.249H71.3115V278.971C71.3115 278.026 71.5338 277.248 71.923 276.636C72.3121 276.025 73.0904 275.413 74.1466 274.913L74.369 274.802C74.9249 274.524 75.314 274.246 75.592 273.968C75.8699 273.635 76.0367 273.245 76.0367 272.745C76.0367 272.245 75.8699 271.856 75.4808 271.578C75.1472 271.3 74.6469 271.133 74.1466 271.133C73.5907 271.133 73.146 271.3 72.8124 271.633C72.4233 271.967 72.1453 272.356 71.923 272.856L71.2559 272.189C71.5338 271.578 71.8674 271.133 72.3677 270.799C72.868 270.466 73.4239 270.299 74.091 270.299C74.8693 270.299 75.592 270.521 76.1479 270.966C76.7038 271.411 76.9818 272.078 76.9818 272.912C76.9818 273.523 76.815 274.024 76.4258 274.468C76.0923 274.913 75.5364 275.302 74.8137 275.691L74.091 276.025C73.0348 276.525 72.4233 277.304 72.3677 278.304Z" fill="black" stroke="black" stroke-width="0.5" stroke-miterlimit="10"/>
<path d="M83.5414 278.638C82.9855 279.083 82.3184 279.36 81.4845 279.36C80.6506 279.36 79.9835 279.138 79.4276 278.638C78.8717 278.193 78.5938 277.526 78.5938 276.803C78.5938 276.247 78.7605 275.803 79.0941 275.358C79.4276 274.969 79.7612 274.691 80.1503 274.58C79.8168 274.468 79.5388 274.19 79.2608 273.857C78.9829 273.523 78.8161 273.079 78.8161 272.578C78.8161 271.856 79.0941 271.244 79.5944 270.799C80.1503 270.355 80.7618 270.132 81.4845 270.132C82.2072 270.132 82.8187 270.355 83.3746 270.799C83.9305 271.244 84.1529 271.856 84.1529 272.578C84.1529 273.079 83.9861 273.523 83.7081 273.857C83.4302 274.19 83.0966 274.413 82.8187 274.58C83.1522 274.691 83.5414 274.913 83.8749 275.358C84.2085 275.747 84.3752 276.247 84.3752 276.803C84.3752 277.526 84.0973 278.137 83.5414 278.638ZM81.4845 275.08C80.9286 275.08 80.4839 275.247 80.0947 275.525C79.7612 275.803 79.5388 276.247 79.5388 276.748C79.5388 277.248 79.7056 277.693 80.0947 277.971C80.4839 278.249 80.9286 278.415 81.4289 278.415C81.9292 278.415 82.4295 278.249 82.7631 277.971C83.1522 277.693 83.319 277.248 83.319 276.748C83.319 276.247 83.1522 275.858 82.7631 275.525C82.4851 275.247 82.0404 275.08 81.4845 275.08ZM82.6519 271.411C82.3184 271.133 81.9292 271.022 81.4845 271.022C81.0398 271.022 80.6506 271.133 80.3171 271.411C79.9835 271.689 79.8168 272.078 79.8168 272.578C79.8168 273.079 79.9835 273.468 80.3171 273.746C80.6506 274.024 81.0398 274.135 81.5401 274.135C82.0404 274.135 82.4295 274.024 82.7631 273.746C83.0966 273.468 83.2634 273.079 83.2634 272.578C83.1522 272.078 82.9855 271.689 82.6519 271.411Z" fill="black" stroke="black" stroke-width="0.5" stroke-miterlimit="10"/>
<path d="M108.167 278.304H112.836V279.249H107.11V278.971C107.11 278.026 107.333 277.248 107.722 276.636C108.111 276.025 108.889 275.413 109.945 274.913L110.168 274.802C110.724 274.524 111.113 274.246 111.391 273.968C111.669 273.635 111.836 273.245 111.836 272.745C111.836 272.245 111.669 271.856 111.28 271.578C110.946 271.3 110.446 271.133 109.945 271.133C109.39 271.133 108.945 271.3 108.611 271.633C108.222 271.967 107.944 272.356 107.722 272.856L107.055 272.189C107.333 271.578 107.666 271.133 108.167 270.799C108.667 270.466 109.223 270.299 109.89 270.299C110.668 270.299 111.391 270.521 111.947 270.966C112.503 271.411 112.781 272.078 112.781 272.912C112.781 273.523 112.614 274.024 112.225 274.468C111.891 274.913 111.335 275.302 110.613 275.691L109.89 276.025C108.834 276.525 108.222 277.304 108.167 278.304Z" fill="black" stroke="black" stroke-width="0.5" stroke-miterlimit="10"/>
<path d="M117.396 270.132C118.341 270.132 119.174 270.577 119.73 271.411C120.342 272.245 120.62 273.412 120.62 274.802C120.62 276.192 120.342 277.304 119.786 278.137C119.23 278.971 118.396 279.36 117.284 279.36C116.284 279.36 115.45 278.971 114.838 278.193L115.505 277.47C115.95 278.082 116.562 278.415 117.284 278.415C118.063 278.415 118.674 278.082 119.119 277.415C119.564 276.748 119.73 275.803 119.73 274.691C119.508 275.136 119.174 275.469 118.73 275.691C118.285 275.914 117.84 276.025 117.396 276.025C116.617 276.025 115.95 275.747 115.339 275.191C114.783 274.635 114.449 273.913 114.449 273.023C114.449 272.134 114.727 271.411 115.339 270.855C116.006 270.41 116.673 270.132 117.396 270.132ZM117.396 275.136C117.951 275.136 118.396 274.969 118.785 274.58C119.174 274.19 119.341 273.746 119.341 273.19C119.341 272.578 119.174 272.078 118.785 271.633C118.396 271.244 117.951 271.022 117.396 271.022C116.895 271.022 116.395 271.189 116.061 271.578C115.672 271.911 115.505 272.467 115.505 273.134C115.505 273.746 115.728 274.246 116.117 274.635C116.451 274.969 116.895 275.136 117.396 275.136Z" fill="black" stroke="black" stroke-width="0.5" stroke-miterlimit="10"/>
<path d="M147.358 274.524C147.747 274.691 148.136 274.969 148.414 275.358C148.692 275.747 148.859 276.192 148.859 276.748C148.859 277.581 148.581 278.249 148.025 278.693C147.469 279.138 146.746 279.36 145.912 279.36C145.356 279.36 144.856 279.249 144.3 279.027C143.744 278.804 143.355 278.471 143.021 278.082L143.689 277.415C144.3 278.137 145.078 278.471 146.023 278.471C146.579 278.471 147.024 278.304 147.413 278.026C147.802 277.748 147.969 277.304 147.969 276.748C147.969 276.192 147.747 275.803 147.358 275.525C146.968 275.247 146.413 275.135 145.801 275.135H145.134V274.19H145.69C146.301 274.19 146.857 274.024 147.246 273.746C147.636 273.468 147.802 273.023 147.802 272.523C147.802 272.022 147.636 271.633 147.246 271.411C146.857 271.188 146.468 271.022 146.023 271.022C145.19 271.022 144.522 271.355 143.967 271.967L143.299 271.3C144.022 270.466 144.912 270.077 145.968 270.077C146.69 270.077 147.358 270.299 147.914 270.688C148.469 271.133 148.747 271.689 148.747 272.467C148.747 272.967 148.636 273.357 148.358 273.746C148.08 274.135 147.636 274.413 147.358 274.524Z" fill="black" stroke="black" stroke-width="0.5" stroke-miterlimit="10"/>
<path d="M150.75 276.97C150.527 276.303 150.416 275.58 150.416 274.746C150.416 273.913 150.527 273.19 150.75 272.523C150.972 271.856 151.305 271.3 151.806 270.799C152.306 270.355 152.918 270.132 153.64 270.132C154.363 270.132 154.975 270.355 155.475 270.799C155.975 271.244 156.309 271.8 156.531 272.523C156.753 273.245 156.865 273.968 156.865 274.746C156.865 275.58 156.753 276.303 156.531 276.97C156.309 277.637 155.975 278.193 155.475 278.638C154.975 279.083 154.363 279.305 153.64 279.305C152.918 279.305 152.306 279.083 151.806 278.638C151.305 278.193 150.972 277.637 150.75 276.97ZM155.308 277.415C155.697 276.748 155.864 275.858 155.864 274.746C155.864 273.635 155.697 272.745 155.308 272.022C154.919 271.355 154.363 271.022 153.64 271.022C152.918 271.022 152.362 271.355 151.973 272.022C151.583 272.69 151.361 273.579 151.361 274.691C151.361 275.803 151.583 276.692 151.973 277.359C152.362 278.026 152.918 278.36 153.64 278.36C154.363 278.415 154.919 278.082 155.308 277.415Z" fill="black" stroke="black" stroke-width="0.5" stroke-miterlimit="10"/>
<path d="M184.047 274.524C184.436 274.691 184.825 274.969 185.103 275.358C185.381 275.747 185.548 276.192 185.548 276.748C185.548 277.581 185.27 278.249 184.714 278.693C184.158 279.138 183.436 279.36 182.602 279.36C182.046 279.36 181.545 279.249 180.99 279.027C180.434 278.804 180.044 278.471 179.711 278.082L180.378 277.415C180.99 278.137 181.768 278.471 182.713 278.471C183.269 278.471 183.714 278.304 184.103 278.026C184.492 277.748 184.659 277.304 184.659 276.748C184.659 276.192 184.436 275.803 184.047 275.525C183.658 275.247 183.102 275.135 182.49 275.135H181.823V274.19H182.379C182.991 274.19 183.547 274.024 183.936 273.746C184.325 273.468 184.492 273.023 184.492 272.523C184.492 272.022 184.325 271.633 183.936 271.411C183.602 271.188 183.158 271.022 182.713 271.022C181.879 271.022 181.212 271.355 180.656 271.967L179.989 271.3C180.712 270.466 181.601 270.077 182.657 270.077C183.38 270.077 184.047 270.299 184.603 270.688C185.159 271.133 185.437 271.689 185.437 272.467C185.437 272.967 185.326 273.357 185.048 273.746C184.77 274.135 184.325 274.413 184.047 274.524Z" fill="black" stroke="black" stroke-width="0.5" stroke-miterlimit="10"/>
<path d="M187.27 279.194V278.304H189.549V271.744C188.993 272.189 188.27 272.356 187.27 272.356V271.466C187.77 271.466 188.27 271.355 188.715 271.133C189.16 270.91 189.493 270.633 189.66 270.243H190.494V278.304H192.662V279.249H187.27V279.194Z" fill="black" stroke="black" stroke-width="0.5" stroke-miterlimit="10"/>
<path d="M128.514 147.943C127.291 146.72 125.456 146.22 123.677 146.775C121.12 147.554 119.73 150.278 120.509 152.835C120.564 153.002 120.62 153.224 120.731 153.391C122.343 153.224 124.567 152.835 125.79 151.723C127.013 150.611 127.958 148.999 128.514 147.943Z" fill="#CCCCCC"/>
<path d="M129.736 149.944C129.514 149.166 129.069 148.499 128.513 147.943C127.957 149.055 127.012 150.612 125.789 151.668C124.566 152.724 122.343 153.169 120.73 153.335C121.731 155.559 124.177 156.727 126.568 156.004C129.069 155.17 130.515 152.502 129.736 149.944Z" fill="#292929"/>
<path d="M128.402 147.609C127.179 146.386 125.345 145.886 123.566 146.442C121.009 147.22 119.619 149.944 120.397 152.501C120.453 152.668 120.509 152.891 120.62 153.057C122.232 152.891 124.456 152.501 125.679 151.39C126.846 150.278 127.791 148.721 128.402 147.609Z" fill="#F7C1DA"/>
<path d="M129.572 149.666C129.35 148.888 128.905 148.221 128.349 147.665C127.793 148.777 126.848 150.333 125.625 151.39C124.402 152.446 122.179 152.891 120.566 153.057C121.567 155.281 124.013 156.448 126.403 155.726C128.961 154.892 130.406 152.168 129.572 149.666Z" fill="#E38EB4"/>
<path d="M164.422 147.943C163.199 146.72 161.364 146.22 159.586 146.775C157.028 147.554 155.639 150.278 156.417 152.835C156.472 153.002 156.528 153.224 156.639 153.391C158.251 153.224 160.475 152.835 161.698 151.723C162.921 150.611 163.866 148.999 164.422 147.943Z" fill="#CCCCCC"/>
<path d="M165.644 149.944C165.422 149.166 164.977 148.499 164.421 147.943C163.866 149.055 162.92 150.611 161.697 151.667C160.474 152.724 158.251 153.168 156.639 153.335C157.639 155.559 160.085 156.726 162.476 156.004C165.033 155.17 166.423 152.501 165.644 149.944Z" fill="#292929"/>
<path d="M164.311 147.609C163.088 146.386 161.253 145.886 159.474 146.442C156.917 147.22 155.527 149.944 156.306 152.501C156.361 152.668 156.417 152.891 156.528 153.057C158.14 152.891 160.364 152.501 161.587 151.39C162.81 150.278 163.755 148.721 164.311 147.609Z" fill="#F7C1DA"/>
<path d="M165.533 149.666C165.311 148.888 164.866 148.221 164.31 147.665C163.754 148.777 162.809 150.333 161.586 151.39C160.363 152.446 158.139 152.891 156.527 153.057C157.528 155.281 159.974 156.448 162.364 155.726C164.866 154.892 166.311 152.168 165.533 149.666Z" fill="#E38EB4"/>
<path d="M200.336 147.943C199.113 146.72 197.279 146.22 195.5 146.775C192.942 147.554 191.553 150.278 192.331 152.835C192.387 153.002 192.442 153.224 192.553 153.391C194.165 153.224 196.389 152.835 197.612 151.723C198.835 150.611 199.78 148.999 200.336 147.943Z" fill="#CCCCCC"/>
<path d="M201.559 149.944C201.336 149.166 200.891 148.499 200.336 147.943C199.78 149.055 198.835 150.612 197.612 151.668C196.389 152.724 194.165 153.169 192.553 153.335C193.553 155.559 195.999 156.727 198.39 156.004C200.947 155.17 202.392 152.502 201.559 149.944Z" fill="#292929"/>
<path d="M200.229 147.609C199.006 146.386 197.171 145.886 195.392 146.442C192.835 147.22 191.445 149.944 192.224 152.501C192.279 152.668 192.335 152.891 192.446 153.057C194.058 152.891 196.282 152.501 197.505 151.39C198.728 150.278 199.673 148.721 200.229 147.609Z" fill="#F7C1DA"/>
<path d="M201.451 149.666C201.229 148.888 200.784 148.221 200.228 147.665C199.672 148.777 198.727 150.333 197.504 151.39C196.281 152.446 194.057 152.891 192.445 153.057C193.446 155.281 195.892 156.448 198.282 155.726C200.84 154.892 202.229 152.168 201.451 149.666Z" fill="#E38EB4"/>
<path d="M236.303 147.943C235.08 146.72 233.245 146.22 231.466 146.775C228.909 147.554 227.519 150.278 228.298 152.835C228.353 153.002 228.409 153.224 228.52 153.391C230.132 153.224 232.356 152.835 233.579 151.723C234.802 150.611 235.747 148.999 236.303 147.943Z" fill="#CCCCCC"/>
<path d="M237.525 149.944C237.303 149.166 236.858 148.499 236.302 147.943C235.746 149.055 234.801 150.611 233.578 151.667C232.355 152.724 230.132 153.168 228.52 153.335C229.52 155.559 231.966 156.726 234.357 156.004C236.858 155.17 238.304 152.501 237.525 149.944Z" fill="#292929"/>
<path d="M236.195 147.609C234.972 146.386 233.138 145.886 231.359 146.442C228.802 147.22 227.412 149.944 228.19 152.501C228.246 152.668 228.302 152.891 228.413 153.057C230.025 152.891 232.248 152.501 233.471 151.39C234.694 150.278 235.64 148.721 236.195 147.609Z" fill="#F7C1DA"/>
<path d="M237.418 149.666C237.196 148.888 236.751 148.221 236.195 147.665C235.639 148.777 234.694 150.333 233.471 151.39C232.248 152.446 230.024 152.891 228.412 153.057C229.413 155.281 231.859 156.448 234.249 155.726C236.751 154.892 238.196 152.168 237.418 149.666Z" fill="#E38EB4"/>
<path d="M272.213 147.943C270.99 146.72 269.156 146.22 267.377 146.775C264.819 147.554 263.43 150.278 264.208 152.835C264.263 153.002 264.319 153.224 264.43 153.391C266.042 153.224 268.266 152.835 269.489 151.723C270.712 150.611 271.657 148.999 272.213 147.943Z" fill="#CCCCCC"/>
<path d="M273.435 149.944C273.213 149.166 272.768 148.499 272.212 147.943C271.657 149.055 270.711 150.612 269.488 151.668C268.265 152.724 266.042 153.169 264.43 153.335C265.43 155.559 267.876 156.727 270.267 156.004C272.824 155.17 274.214 152.502 273.435 149.944Z" fill="#292929"/>
<path d="M272.106 147.609C270.883 146.386 269.048 145.886 267.269 146.442C264.712 147.22 263.322 149.944 264.1 152.501C264.156 152.668 264.212 152.891 264.323 153.057C265.935 152.891 268.159 152.501 269.382 151.39C270.605 150.278 271.55 148.721 272.106 147.609Z" fill="#F7C1DA"/>
<path d="M273.328 149.666C273.106 148.888 272.661 148.221 272.105 147.665C271.549 148.777 270.604 150.333 269.381 151.39C268.158 152.446 265.934 152.891 264.322 153.057C265.323 155.281 267.769 156.448 270.159 155.726C272.717 154.892 274.106 152.168 273.328 149.666Z" fill="#E38EB4"/>
<path d="M128.514 181.242C127.291 180.019 125.456 179.518 123.677 180.074C121.12 180.853 119.73 183.577 120.509 186.134C120.564 186.301 120.62 186.523 120.731 186.69C122.343 186.523 124.567 186.134 125.79 185.022C127.013 183.91 127.958 182.354 128.514 181.242Z" fill="#CCCCCC"/>
<path d="M129.736 183.243C129.514 182.465 129.069 181.798 128.513 181.242C127.957 182.354 127.012 183.91 125.789 184.966C124.566 186.023 122.343 186.467 120.73 186.634C121.731 188.858 124.177 190.025 126.568 189.302C129.069 188.524 130.515 185.8 129.736 183.243Z" fill="#292929"/>
<path d="M128.402 180.964C127.179 179.741 125.345 179.241 123.566 179.796C121.009 180.575 119.619 183.299 120.397 185.856C120.453 186.023 120.509 186.245 120.62 186.412C122.232 186.245 124.456 185.856 125.679 184.744C126.846 183.632 127.791 182.076 128.402 180.964Z" fill="#F7C1DA"/>
<path d="M129.572 182.965C129.35 182.187 128.905 181.52 128.349 180.964C127.793 182.076 126.848 183.632 125.625 184.688C124.402 185.745 122.179 186.189 120.566 186.356C121.567 188.58 124.013 189.747 126.403 189.025C128.961 188.191 130.406 185.522 129.572 182.965Z" fill="#E38EB4"/>
<path d="M91.6544 180.964C90.4314 179.741 88.5969 179.241 86.818 179.797C84.2608 180.575 82.871 183.299 83.6493 185.856C83.7049 186.023 83.7605 186.245 83.8717 186.412C85.4838 186.245 87.7075 185.856 88.9305 184.744C90.1535 183.633 91.0985 182.076 91.6544 180.964Z" fill="#F7C1DA"/>
<path d="M91.7658 181.242C90.5428 180.019 88.7083 179.519 86.9293 180.075C84.3721 180.853 82.9824 183.577 83.7606 186.134C83.8162 186.301 83.8718 186.523 83.983 186.69C85.5951 186.523 87.8188 186.134 89.0418 185.022C90.2648 183.91 91.2099 182.354 91.7658 181.242Z" fill="#CCCCCC"/>
<path d="M92.9882 183.243C92.7658 182.465 92.3211 181.798 91.7652 181.242C91.2093 182.354 90.2642 183.91 89.0412 184.966C87.8182 186.023 85.5946 186.467 83.9824 186.634C84.9831 188.858 87.4291 190.025 89.8195 189.302C92.3767 188.524 93.7665 185.8 92.9882 183.243Z" fill="#292929"/>
<path d="M92.8769 182.965C92.6545 182.187 92.2098 181.52 91.6539 180.964C91.098 182.076 90.1529 183.632 88.9299 184.688C87.7069 185.745 85.4832 186.189 83.8711 186.356C84.8717 188.58 87.3178 189.747 89.7082 189.025C92.2654 188.191 93.6551 185.522 92.8769 182.965Z" fill="#E38EB4"/>
<path d="M55.0724 181.242C53.8494 180.019 52.0149 179.519 50.236 180.075C47.6788 180.853 46.289 183.577 47.0673 186.134C47.1229 186.301 47.1785 186.523 47.2896 186.69C48.9018 186.523 51.1254 186.134 52.3484 185.022C53.5715 183.91 54.5165 182.354 55.0724 181.242Z" fill="#CCCCCC"/>
<path d="M56.2948 183.243C56.0725 182.465 55.6277 181.798 55.0718 181.242C54.5159 182.354 53.5709 183.91 52.3479 184.966C51.1249 186.023 48.9012 186.467 47.2891 186.634C48.2897 188.858 50.7357 190.025 53.1261 189.302C55.6277 188.524 57.0731 185.8 56.2948 183.243Z" fill="#292929"/>
<path d="M54.9611 180.964C53.7381 179.741 51.9036 179.241 50.1246 179.797C47.5675 180.575 46.1777 183.299 46.9559 185.856C47.0115 186.023 47.0671 186.245 47.1783 186.412C48.7905 186.245 51.0141 185.856 52.2371 184.744C53.4601 183.633 54.3496 182.076 54.9611 180.964Z" fill="#F7C1DA"/>
<path d="M56.1835 182.965C55.9611 182.187 55.5164 181.52 54.9605 180.964C54.4046 182.076 53.4595 183.632 52.2365 184.688C51.0135 185.745 48.7899 186.189 47.1777 186.356C48.1784 188.58 50.6244 189.747 53.0148 189.025C55.5164 188.191 56.9618 185.522 56.1835 182.965Z" fill="#E38EB4"/>
<path d="M164.422 181.242C163.199 180.019 161.364 179.519 159.586 180.075C157.028 180.853 155.639 183.577 156.417 186.134C156.472 186.301 156.528 186.523 156.639 186.69C158.251 186.523 160.475 186.134 161.698 185.022C162.921 183.91 163.866 182.354 164.422 181.242Z" fill="#CCCCCC"/>
<path d="M165.644 183.243C165.422 182.465 164.977 181.798 164.421 181.242C163.866 182.354 162.92 183.91 161.697 184.966C160.474 186.023 158.251 186.467 156.639 186.634C157.639 188.858 160.085 190.025 162.476 189.302C165.033 188.524 166.423 185.8 165.644 183.243Z" fill="#292929"/>
<path d="M164.311 180.964C163.088 179.741 161.253 179.241 159.474 179.797C156.917 180.575 155.527 183.299 156.306 185.856C156.361 186.023 156.417 186.245 156.528 186.412C158.14 186.245 160.364 185.856 161.587 184.744C162.81 183.633 163.755 182.076 164.311 180.964Z" fill="#F7C1DA"/>
<path d="M165.533 182.965C165.311 182.187 164.866 181.52 164.31 180.964C163.754 182.076 162.809 183.632 161.586 184.688C160.363 185.745 158.139 186.189 156.527 186.356C157.528 188.58 159.974 189.747 162.364 189.025C164.866 188.191 166.311 185.522 165.533 182.965Z" fill="#E38EB4"/>
<path d="M200.336 181.242C199.113 180.019 197.279 179.519 195.5 180.075C192.942 180.853 191.553 183.577 192.331 186.134C192.387 186.301 192.442 186.523 192.553 186.69C194.165 186.523 196.389 186.134 197.612 185.022C198.835 183.91 199.78 182.354 200.336 181.242Z" fill="#CCCCCC"/>
<path d="M201.559 183.243C201.336 182.465 200.891 181.798 200.336 181.242C199.78 182.354 198.835 183.91 197.612 184.967C196.389 186.023 194.165 186.468 192.553 186.634C193.553 188.858 195.999 190.025 198.39 189.303C200.947 188.524 202.392 185.8 201.559 183.243Z" fill="#292929"/>
<path d="M200.229 180.964C199.006 179.741 197.171 179.241 195.392 179.797C192.835 180.575 191.445 183.299 192.224 185.856C192.279 186.023 192.335 186.245 192.446 186.412C194.058 186.245 196.282 185.856 197.505 184.744C198.728 183.633 199.673 182.076 200.229 180.964Z" fill="#F7C1DA"/>
<path d="M201.451 182.965C201.229 182.187 200.784 181.52 200.228 180.964C199.672 182.076 198.727 183.632 197.504 184.688C196.281 185.745 194.057 186.189 192.445 186.356C193.446 188.58 195.892 189.747 198.282 189.025C200.84 188.191 202.229 185.522 201.451 182.965Z" fill="#E38EB4"/>
<path d="M236.303 181.242C235.08 180.019 233.245 179.519 231.466 180.075C228.909 180.853 227.519 183.577 228.298 186.134C228.353 186.301 228.409 186.523 228.52 186.69C230.132 186.523 232.356 186.134 233.579 185.022C234.802 183.91 235.747 182.354 236.303 181.242Z" fill="#CCCCCC"/>
<path d="M237.525 183.243C237.303 182.465 236.858 181.798 236.302 181.242C235.746 182.354 234.801 183.91 233.578 184.966C232.355 186.023 230.132 186.467 228.52 186.634C229.52 188.858 231.966 190.025 234.357 189.302C236.858 188.524 238.304 185.8 237.525 183.243Z" fill="#292929"/>
<path d="M236.195 180.964C234.972 179.741 233.138 179.241 231.359 179.797C228.802 180.575 227.412 183.299 228.19 185.856C228.246 186.023 228.302 186.245 228.413 186.412C230.025 186.245 232.248 185.856 233.471 184.744C234.694 183.633 235.64 182.076 236.195 180.964Z" fill="#F7C1DA"/>
<path d="M237.418 182.965C237.196 182.187 236.751 181.52 236.195 180.964C235.639 182.076 234.694 183.632 233.471 184.688C232.248 185.745 230.024 186.189 228.412 186.356C229.413 188.58 231.859 189.747 234.249 189.025C236.751 188.191 238.196 185.522 237.418 182.965Z" fill="#E38EB4"/>
<path d="M272.213 181.242C270.99 180.019 269.156 179.519 267.377 180.075C264.819 180.853 263.43 183.577 264.208 186.134C264.263 186.301 264.319 186.523 264.43 186.69C266.042 186.523 268.266 186.134 269.489 185.022C270.712 183.91 271.657 182.354 272.213 181.242Z" fill="#CCCCCC"/>
<path d="M273.435 183.243C273.213 182.465 272.768 181.798 272.212 181.242C271.657 182.354 270.711 183.91 269.488 184.967C268.265 186.023 266.042 186.468 264.43 186.634C265.43 188.858 267.876 190.025 270.267 189.303C272.824 188.524 274.214 185.8 273.435 183.243Z" fill="#292929"/>
<path d="M272.106 180.964C270.883 179.741 269.048 179.241 267.269 179.797C264.712 180.575 263.322 183.299 264.1 185.856C264.156 186.023 264.212 186.245 264.323 186.412C265.935 186.245 268.159 185.856 269.382 184.744C270.605 183.633 271.55 182.076 272.106 180.964Z" fill="#F7C1DA"/>
<path d="M273.328 182.965C273.106 182.187 272.661 181.52 272.105 180.964C271.549 182.076 270.604 183.632 269.381 184.688C268.158 185.745 265.934 186.189 264.322 186.356C265.323 188.58 267.769 189.747 270.159 189.025C272.717 188.191 274.106 185.522 273.328 182.965Z" fill="#E38EB4"/>
<path d="M128.514 214.819C127.291 213.596 125.456 213.096 123.677 213.652C121.12 214.43 119.73 217.154 120.509 219.711C120.564 219.878 120.62 220.1 120.731 220.267C122.343 220.1 124.567 219.711 125.79 218.599C127.013 217.487 127.958 215.931 128.514 214.819Z" fill="#CCCCCC"/>
<path d="M129.736 216.876C129.514 216.098 129.069 215.431 128.513 214.875C127.957 215.987 127.012 217.543 125.789 218.599C124.566 219.656 122.343 220.1 120.73 220.267C121.731 222.491 124.177 223.658 126.568 222.935C129.069 222.102 130.515 219.378 129.736 216.876Z" fill="#292929"/>
<path d="M128.402 214.541C127.179 213.318 125.345 212.818 123.566 213.374C121.009 214.152 119.619 216.876 120.397 219.433C120.453 219.6 120.509 219.822 120.62 219.989C122.232 219.822 124.456 219.433 125.679 218.321C126.846 217.209 127.791 215.653 128.402 214.541Z" fill="#F7C1DA"/>
<path d="M129.572 216.542C129.35 215.764 128.905 215.097 128.349 214.541C127.793 215.653 126.848 217.209 125.625 218.266C124.402 219.322 122.179 219.767 120.566 219.933C121.567 222.157 124.013 223.324 126.403 222.602C128.961 221.823 130.406 219.1 129.572 216.542Z" fill="#E38EB4"/>
<path d="M91.7658 214.819C90.5428 213.596 88.7083 213.096 86.9293 213.652C84.3721 214.43 82.9824 217.154 83.7606 219.711C83.8162 219.878 83.8718 220.1 83.983 220.267C85.5951 220.1 87.8188 219.711 89.0418 218.599C90.2648 217.487 91.2099 215.931 91.7658 214.819Z" fill="#CCCCCC"/>
<path d="M92.9882 216.876C92.7658 216.098 92.3211 215.431 91.7652 214.875C91.2093 215.987 90.2642 217.543 89.0412 218.599C87.8182 219.656 85.5946 220.1 83.9824 220.267C84.9831 222.491 87.4291 223.658 89.8195 222.935C92.3767 222.102 93.7665 219.378 92.9882 216.876Z" fill="#292929"/>
<path d="M91.6544 214.541C90.4314 213.318 88.5969 212.818 86.818 213.374C84.2608 214.152 82.871 216.876 83.6493 219.433C83.7049 219.6 83.7605 219.822 83.8717 219.989C85.4838 219.822 87.7075 219.433 88.9305 218.321C90.1535 217.209 91.0985 215.653 91.6544 214.541Z" fill="#F7C1DA"/>
<path d="M92.8769 216.542C92.6545 215.764 92.2098 215.097 91.6539 214.541C91.098 215.653 90.1529 217.209 88.9299 218.266C87.7069 219.322 85.4832 219.767 83.8711 219.933C84.8717 222.157 87.3178 223.324 89.7082 222.602C92.2654 221.823 93.6551 219.1 92.8769 216.542Z" fill="#E38EB4"/>
<path d="M55.0724 214.819C53.8494 213.596 52.0149 213.096 50.236 213.652C47.6788 214.43 46.289 217.154 47.0673 219.711C47.1229 219.878 47.1785 220.1 47.2896 220.267C48.9018 220.1 51.1254 219.711 52.3484 218.599C53.5715 217.487 54.5165 215.931 55.0724 214.819Z" fill="#CCCCCC"/>
<path d="M56.2948 216.876C56.0725 216.098 55.6277 215.431 55.0718 214.875C54.5159 215.987 53.5709 217.543 52.3479 218.599C51.1249 219.656 48.9012 220.1 47.2891 220.267C48.2897 222.491 50.7357 223.658 53.1261 222.935C55.6277 222.102 57.0731 219.378 56.2948 216.876Z" fill="#292929"/>
<path d="M54.9611 214.541C53.7381 213.318 51.9036 212.818 50.1246 213.374C47.5675 214.152 46.1777 216.876 46.9559 219.433C47.0115 219.6 47.0671 219.822 47.1783 219.989C48.7905 219.822 51.0141 219.433 52.2371 218.321C53.4601 217.209 54.3496 215.653 54.9611 214.541Z" fill="#F7C1DA"/>
<path d="M56.1835 216.542C55.9611 215.764 55.5164 215.097 54.9605 214.541C54.4046 215.653 53.4595 217.209 52.2365 218.266C51.0135 219.322 48.7899 219.767 47.1777 219.933C48.1784 222.157 50.6244 223.324 53.0148 222.602C55.5164 221.823 56.9618 219.1 56.1835 216.542Z" fill="#E38EB4"/>
<path d="M164.422 214.819C163.199 213.596 161.364 213.096 159.586 213.652C157.028 214.43 155.639 217.154 156.417 219.711C156.472 219.878 156.528 220.1 156.639 220.267C158.251 220.1 160.475 219.711 161.698 218.599C162.921 217.487 163.866 215.931 164.422 214.819Z" fill="#CCCCCC"/>
<path d="M165.644 216.876C165.422 216.098 164.977 215.431 164.421 214.875C163.866 215.987 162.92 217.543 161.697 218.599C160.474 219.656 158.251 220.1 156.639 220.267C157.639 222.491 160.085 223.658 162.476 222.935C165.033 222.102 166.423 219.378 165.644 216.876Z" fill="#292929"/>
<path d="M164.311 214.541C163.088 213.318 161.253 212.818 159.474 213.374C156.917 214.152 155.527 216.876 156.306 219.433C156.361 219.6 156.417 219.822 156.528 219.989C158.14 219.822 160.364 219.433 161.587 218.321C162.81 217.209 163.755 215.653 164.311 214.541Z" fill="#F7C1DA"/>
<path d="M165.533 216.542C165.311 215.764 164.866 215.097 164.31 214.541C163.754 215.653 162.809 217.209 161.586 218.266C160.363 219.322 158.139 219.767 156.527 219.933C157.528 222.157 159.974 223.324 162.364 222.602C164.866 221.823 166.311 219.1 165.533 216.542Z" fill="#E38EB4"/>
<path d="M200.336 214.819C199.113 213.596 197.279 213.096 195.5 213.652C192.942 214.43 191.553 217.154 192.331 219.711C192.387 219.878 192.442 220.1 192.553 220.267C194.165 220.1 196.389 219.711 197.612 218.599C198.835 217.487 199.78 215.931 200.336 214.819Z" fill="#CCCCCC"/>
<path d="M201.559 216.876C201.336 216.098 200.891 215.431 200.336 214.875C199.78 215.987 198.835 217.543 197.612 218.599C196.389 219.656 194.165 220.1 192.553 220.267C193.553 222.491 195.999 223.658 198.39 222.935C200.947 222.102 202.392 219.378 201.559 216.876Z" fill="#292929"/>
<path d="M200.229 214.541C199.006 213.318 197.171 212.818 195.392 213.374C192.835 214.152 191.445 216.876 192.224 219.433C192.279 219.6 192.335 219.822 192.446 219.989C194.058 219.822 196.282 219.433 197.505 218.321C198.728 217.209 199.673 215.653 200.229 214.541Z" fill="#F7C1DA"/>
<path d="M201.451 216.542C201.229 215.764 200.784 215.097 200.228 214.541C199.672 215.653 198.727 217.209 197.504 218.266C196.281 219.322 194.057 219.767 192.445 219.933C193.446 222.157 195.892 223.324 198.282 222.602C200.84 221.823 202.229 219.1 201.451 216.542Z" fill="#E38EB4"/>
<path d="M236.303 214.819C235.08 213.596 233.245 213.096 231.466 213.652C228.909 214.43 227.519 217.154 228.298 219.711C228.353 219.878 228.409 220.1 228.52 220.267C230.132 220.1 232.356 219.711 233.579 218.599C234.802 217.487 235.747 215.931 236.303 214.819Z" fill="#CCCCCC"/>
<path d="M237.525 216.876C237.303 216.098 236.858 215.431 236.302 214.875C235.746 215.987 234.801 217.543 233.578 218.599C232.355 219.656 230.132 220.1 228.52 220.267C229.52 222.491 231.966 223.658 234.357 222.935C236.858 222.102 238.304 219.378 237.525 216.876Z" fill="#292929"/>
<path d="M236.195 214.541C234.972 213.318 233.138 212.818 231.359 213.374C228.802 214.152 227.412 216.876 228.19 219.433C228.246 219.6 228.302 219.822 228.413 219.989C230.025 219.822 232.248 219.433 233.471 218.321C234.694 217.209 235.64 215.653 236.195 214.541Z" fill="#F7C1DA"/>
<path d="M237.418 216.542C237.196 215.764 236.751 215.097 236.195 214.541C235.639 215.653 234.694 217.209 233.471 218.266C232.248 219.322 230.024 219.767 228.412 219.933C229.413 222.157 231.859 223.324 234.249 222.602C236.751 221.823 238.196 219.1 237.418 216.542Z" fill="#E38EB4"/>
<path d="M272.213 214.819C270.99 213.596 269.156 213.096 267.377 213.652C264.819 214.43 263.43 217.154 264.208 219.711C264.263 219.878 264.319 220.1 264.43 220.267C266.042 220.1 268.266 219.711 269.489 218.599C270.712 217.487 271.657 215.931 272.213 214.819Z" fill="#CCCCCC"/>
<path d="M273.435 216.876C273.213 216.098 272.768 215.431 272.212 214.875C271.657 215.987 270.711 217.543 269.488 218.599C268.265 219.656 266.042 220.1 264.43 220.267C265.43 222.491 267.876 223.658 270.267 222.935C272.824 222.102 274.214 219.378 273.435 216.876Z" fill="#292929"/>
<path d="M272.106 214.541C270.883 213.318 269.048 212.818 267.269 213.374C264.712 214.152 263.322 216.876 264.1 219.433C264.156 219.6 264.212 219.822 264.323 219.989C265.935 219.822 268.159 219.433 269.382 218.321C270.605 217.209 271.55 215.653 272.106 214.541Z" fill="#F7C1DA"/>
<path d="M273.328 216.542C273.106 215.764 272.661 215.097 272.105 214.541C271.549 215.653 270.604 217.209 269.381 218.266C268.158 219.322 265.934 219.767 264.322 219.933C265.323 222.157 267.769 223.324 270.159 222.602C272.717 221.823 274.106 219.1 273.328 216.542Z" fill="#E38EB4"/>
<path d="M128.514 248.452C127.291 247.229 125.456 246.729 123.677 247.285C121.12 248.063 119.73 250.787 120.509 253.344C120.564 253.511 120.62 253.733 120.731 253.9C122.343 253.733 124.567 253.344 125.79 252.232C127.013 251.12 127.958 249.508 128.514 248.452Z" fill="#CCCCCC"/>
<path d="M129.736 250.453C129.514 249.675 129.069 249.008 128.513 248.452C127.957 249.564 127.012 251.12 125.789 252.177C124.566 253.233 122.343 253.677 120.73 253.844C121.731 256.068 124.177 257.235 126.568 256.513C129.069 255.679 130.515 253.01 129.736 250.453Z" fill="#292929"/>
<path d="M128.402 248.118C127.179 246.895 125.345 246.395 123.566 246.951C121.009 247.729 119.619 250.453 120.397 253.01C120.453 253.177 120.509 253.4 120.62 253.566C122.232 253.4 124.456 253.01 125.679 251.899C126.846 250.787 127.791 249.23 128.402 248.118Z" fill="#F7C1DA"/>
<path d="M129.572 250.175C129.35 249.397 128.905 248.73 128.349 248.174C127.793 249.286 126.848 250.842 125.625 251.898C124.402 252.955 122.179 253.399 120.566 253.566C121.567 255.79 124.013 256.957 126.403 256.235C128.961 255.401 130.406 252.677 129.572 250.175Z" fill="#E38EB4"/>
<path d="M91.7658 248.452C90.5428 247.229 88.7083 246.729 86.9293 247.285C84.3721 248.063 82.9824 250.787 83.7606 253.344C83.8162 253.511 83.8718 253.733 83.983 253.9C85.5951 253.733 87.8188 253.344 89.0418 252.232C90.2648 251.12 91.2099 249.508 91.7658 248.452Z" fill="#CCCCCC"/>
<path d="M92.9882 250.453C92.7658 249.675 92.3211 249.008 91.7652 248.452C91.2093 249.564 90.2642 251.12 89.0412 252.177C87.8182 253.233 85.5946 253.677 83.9824 253.844C84.9831 256.068 87.4291 257.235 89.8195 256.513C92.3767 255.679 93.7665 253.01 92.9882 250.453Z" fill="#292929"/>
<path d="M91.6544 248.118C90.4314 246.895 88.5969 246.395 86.818 246.951C84.2608 247.729 82.871 250.453 83.6493 253.01C83.7049 253.177 83.7605 253.4 83.8717 253.566C85.4838 253.4 87.7075 253.01 88.9305 251.899C90.1535 250.787 91.0985 249.23 91.6544 248.118Z" fill="#F7C1DA"/>
<path d="M92.8769 250.175C92.6545 249.397 92.2098 248.73 91.6539 248.174C91.098 249.286 90.1529 250.842 88.9299 251.898C87.7069 252.955 85.4832 253.399 83.8711 253.566C84.8717 255.79 87.3178 256.957 89.7082 256.235C92.2654 255.401 93.6551 252.677 92.8769 250.175Z" fill="#E38EB4"/>
<path d="M55.0724 248.452C53.8494 247.229 52.0149 246.729 50.236 247.285C47.6788 248.063 46.289 250.787 47.0673 253.344C47.1229 253.511 47.1785 253.733 47.2896 253.9C48.9018 253.733 51.1254 253.344 52.3484 252.232C53.5715 251.12 54.5165 249.508 55.0724 248.452Z" fill="#CCCCCC"/>
<path d="M56.2948 250.453C56.0725 249.675 55.6277 249.008 55.0718 248.452C54.5159 249.564 53.5709 251.12 52.3479 252.177C51.1249 253.233 48.9012 253.677 47.2891 253.844C48.2897 256.068 50.7357 257.235 53.1261 256.513C55.6277 255.679 57.0731 253.01 56.2948 250.453Z" fill="#292929"/>
<path d="M54.9611 248.118C53.7381 246.895 51.9036 246.395 50.1246 246.951C47.5675 247.729 46.1777 250.453 46.9559 253.01C47.0115 253.177 47.0671 253.4 47.1783 253.566C48.7905 253.4 51.0141 253.01 52.2371 251.899C53.4601 250.787 54.3496 249.23 54.9611 248.118Z" fill="#F7C1DA"/>
<path d="M56.1835 250.175C55.9611 249.397 55.5164 248.73 54.9605 248.174C54.4046 249.286 53.4595 250.842 52.2365 251.898C51.0135 252.955 48.7899 253.399 47.1777 253.566C48.1784 255.79 50.6244 256.957 53.0148 256.235C55.5164 255.401 56.9618 252.677 56.1835 250.175Z" fill="#E38EB4"/>
<path d="M164.422 248.452C163.199 247.229 161.364 246.729 159.586 247.285C157.028 248.063 155.639 250.787 156.417 253.344C156.472 253.511 156.528 253.733 156.639 253.9C158.251 253.733 160.475 253.344 161.698 252.232C162.921 251.12 163.866 249.508 164.422 248.452Z" fill="#CCCCCC"/>
<path d="M165.644 250.453C165.422 249.675 164.977 249.008 164.421 248.452C163.866 249.564 162.92 251.121 161.697 252.177C160.474 253.233 158.251 253.678 156.639 253.845C157.639 256.068 160.085 257.236 162.476 256.513C165.033 255.679 166.423 253.011 165.644 250.453Z" fill="#292929"/>
<path d="M164.311 248.118C163.088 246.895 161.253 246.395 159.474 246.951C156.917 247.729 155.527 250.453 156.306 253.01C156.361 253.177 156.417 253.4 156.528 253.566C158.14 253.4 160.364 253.01 161.587 251.899C162.81 250.787 163.755 249.23 164.311 248.118Z" fill="#F7C1DA"/>
<path d="M165.533 250.175C165.311 249.397 164.866 248.73 164.31 248.174C163.754 249.286 162.809 250.842 161.586 251.898C160.363 252.955 158.139 253.399 156.527 253.566C157.528 255.79 159.974 256.957 162.364 256.235C164.866 255.401 166.311 252.677 165.533 250.175Z" fill="#E38EB4"/>
<path d="M200.336 248.452C199.113 247.229 197.279 246.729 195.5 247.285C192.942 248.063 191.553 250.787 192.331 253.344C192.387 253.511 192.442 253.733 192.553 253.9C194.165 253.733 196.389 253.344 197.612 252.232C198.835 251.12 199.78 249.508 200.336 248.452Z" fill="#CCCCCC"/>
<path d="M201.559 250.453C201.336 249.675 200.891 249.008 200.336 248.452C199.78 249.564 198.835 251.12 197.612 252.177C196.389 253.233 194.165 253.677 192.553 253.844C193.553 256.068 195.999 257.235 198.39 256.513C200.947 255.679 202.392 253.01 201.559 250.453Z" fill="#292929"/>
<path d="M200.229 248.118C199.006 246.895 197.171 246.395 195.392 246.951C192.835 247.729 191.445 250.453 192.224 253.01C192.279 253.177 192.335 253.4 192.446 253.566C194.058 253.4 196.282 253.01 197.505 251.899C198.728 250.787 199.673 249.23 200.229 248.118Z" fill="#F7C1DA"/>
<path d="M201.451 250.175C201.229 249.397 200.784 248.73 200.228 248.174C199.672 249.286 198.727 250.842 197.504 251.898C196.281 252.955 194.057 253.399 192.445 253.566C193.446 255.79 195.892 256.957 198.282 256.235C200.84 255.401 202.229 252.677 201.451 250.175Z" fill="#E38EB4"/>
<path d="M236.303 248.452C235.08 247.229 233.245 246.729 231.466 247.285C228.909 248.063 227.519 250.787 228.298 253.344C228.353 253.511 228.409 253.733 228.52 253.9C230.132 253.733 232.356 253.344 233.579 252.232C234.802 251.12 235.747 249.508 236.303 248.452Z" fill="#CCCCCC"/>
<path d="M237.525 250.453C237.303 249.675 236.858 249.008 236.302 248.452C235.746 249.564 234.801 251.12 233.578 252.177C232.355 253.233 230.132 253.677 228.52 253.844C229.52 256.068 231.966 257.235 234.357 256.513C236.858 255.679 238.304 253.01 237.525 250.453Z" fill="#292929"/>
<path d="M236.195 248.118C234.972 246.895 233.138 246.395 231.359 246.951C228.802 247.729 227.412 250.453 228.19 253.01C228.246 253.177 228.302 253.4 228.413 253.566C230.025 253.4 232.248 253.01 233.471 251.899C234.694 250.787 235.64 249.23 236.195 248.118Z" fill="#F7C1DA"/>
<path d="M237.418 250.175C237.196 249.397 236.751 248.73 236.195 248.174C235.639 249.286 234.694 250.842 233.471 251.898C232.248 252.955 230.024 253.399 228.412 253.566C229.413 255.79 231.859 256.957 234.249 256.235C236.751 255.401 238.196 252.677 237.418 250.175Z" fill="#E38EB4"/>
<path d="M272.213 248.452C270.99 247.229 269.156 246.729 267.377 247.285C264.819 248.063 263.43 250.787 264.208 253.344C264.263 253.511 264.319 253.733 264.43 253.9C266.042 253.733 268.266 253.344 269.489 252.232C270.712 251.12 271.657 249.508 272.213 248.452Z" fill="#CCCCCC"/>
<path d="M273.435 250.453C273.213 249.675 272.768 249.008 272.212 248.452C271.657 249.564 270.711 251.12 269.488 252.177C268.265 253.233 266.042 253.677 264.43 253.844C265.43 256.068 267.876 257.235 270.267 256.513C272.824 255.679 274.214 253.01 273.435 250.453Z" fill="#292929"/>
<path d="M272.106 248.118C270.883 246.895 269.048 246.395 267.269 246.951C264.712 247.729 263.322 250.453 264.1 253.01C264.156 253.177 264.212 253.4 264.323 253.566C265.935 253.4 268.159 253.01 269.382 251.899C270.605 250.787 271.55 249.23 272.106 248.118Z" fill="#F7C1DA"/>
<path d="M273.328 250.175C273.106 249.397 272.661 248.73 272.105 248.174C271.549 249.286 270.604 250.842 269.381 251.898C268.158 252.955 265.934 253.399 264.322 253.566C265.323 255.79 267.769 256.957 270.159 256.235C272.717 255.401 274.106 252.677 273.328 250.175Z" fill="#E38EB4"/>
<path d="M128.514 282.029C127.291 280.806 125.456 280.306 123.677 280.862C121.12 281.64 119.73 284.364 120.509 286.921C120.564 287.088 120.62 287.31 120.731 287.477C122.343 287.31 124.567 286.921 125.79 285.809C127.013 284.697 127.958 283.141 128.514 282.029Z" fill="#CCCCCC"/>
<path d="M129.736 284.03C129.514 283.252 129.069 282.585 128.513 282.029C127.957 283.141 127.012 284.697 125.789 285.754C124.566 286.81 122.343 287.255 120.73 287.421C121.731 289.645 124.177 290.812 126.568 290.09C129.069 289.256 130.515 286.588 129.736 284.03Z" fill="#292929"/>
<path d="M128.402 281.751C127.179 280.528 125.345 280.028 123.566 280.584C121.009 281.362 119.619 284.086 120.397 286.643C120.453 286.81 120.509 287.032 120.62 287.199C122.232 287.032 124.456 286.643 125.679 285.531C126.846 284.419 127.791 282.807 128.402 281.751Z" fill="#F7C1DA"/>
<path d="M129.572 283.752C129.35 282.974 128.905 282.307 128.349 281.751C127.793 282.863 126.848 284.419 125.625 285.476C124.402 286.532 122.179 286.977 120.566 287.143C121.567 289.367 124.013 290.534 126.403 289.812C128.961 288.978 130.406 286.309 129.572 283.752Z" fill="#E38EB4"/>
<path d="M91.7658 282.029C90.5428 280.806 88.7083 280.306 86.9293 280.862C84.3721 281.64 82.9824 284.364 83.7606 286.921C83.8162 287.088 83.8718 287.31 83.983 287.477C85.5951 287.31 87.8188 286.921 89.0418 285.809C90.2648 284.697 91.2099 283.141 91.7658 282.029Z" fill="#CCCCCC"/>
<path d="M92.9882 284.03C92.7658 283.252 92.3211 282.585 91.7652 282.029C91.2093 283.141 90.2642 284.697 89.0412 285.754C87.8182 286.81 85.5946 287.255 83.9824 287.421C84.9831 289.645 87.4291 290.812 89.8195 290.09C92.3767 289.256 93.7665 286.588 92.9882 284.03Z" fill="#292929"/>
<path d="M91.6544 281.751C90.4314 280.528 88.5969 280.028 86.818 280.584C84.2608 281.362 82.871 284.086 83.6493 286.643C83.7049 286.81 83.7605 287.032 83.8717 287.199C85.4838 287.032 87.7075 286.643 88.9305 285.531C90.1535 284.419 91.0985 282.807 91.6544 281.751Z" fill="#F7C1DA"/>
<path d="M92.8769 283.752C92.6545 282.974 92.2098 282.307 91.6539 281.751C91.098 282.863 90.1529 284.419 88.9299 285.476C87.7069 286.532 85.4832 286.977 83.8711 287.143C84.8717 289.367 87.3178 290.534 89.7082 289.812C92.2654 288.978 93.6551 286.309 92.8769 283.752Z" fill="#E38EB4"/>
<path d="M55.0724 282.029C53.8494 280.806 52.0149 280.306 50.236 280.862C47.6788 281.64 46.289 284.364 47.0673 286.921C47.1229 287.088 47.1785 287.31 47.2896 287.477C48.9018 287.31 51.1254 286.921 52.3484 285.809C53.5715 284.697 54.5165 283.141 55.0724 282.029Z" fill="#CCCCCC"/>
<path d="M56.2948 284.03C56.0725 283.252 55.6277 282.585 55.0718 282.029C54.5159 283.141 53.5709 284.697 52.3479 285.754C51.1249 286.81 48.9012 287.255 47.2891 287.421C48.2897 289.645 50.7357 290.812 53.1261 290.09C55.6277 289.256 57.0731 286.588 56.2948 284.03Z" fill="#292929"/>
<path d="M54.9611 281.751C53.7381 280.528 51.9036 280.028 50.1246 280.584C47.5675 281.362 46.1777 284.086 46.9559 286.643C47.0115 286.81 47.0671 287.032 47.1783 287.199C48.7905 287.032 51.0141 286.643 52.2371 285.531C53.4601 284.419 54.3496 282.807 54.9611 281.751Z" fill="#F7C1DA"/>
<path d="M56.1835 283.752C55.9611 282.974 55.5164 282.307 54.9605 281.751C54.4046 282.863 53.4595 284.419 52.2365 285.476C51.0135 286.532 48.7899 286.977 47.1777 287.143C48.1784 289.367 50.6244 290.534 53.0148 289.812C55.5164 288.978 56.9618 286.309 56.1835 283.752Z" fill="#E38EB4"/>
<path d="M164.422 282.029C163.199 280.806 161.364 280.306 159.586 280.862C157.028 281.64 155.639 284.364 156.417 286.921C156.472 287.088 156.528 287.31 156.639 287.477C158.251 287.31 160.475 286.921 161.698 285.809C162.921 284.697 163.866 283.141 164.422 282.029Z" fill="#CCCCCC"/>
<path d="M165.644 284.03C165.422 283.252 164.977 282.585 164.421 282.029C163.866 283.141 162.92 284.697 161.697 285.754C160.474 286.81 158.251 287.255 156.639 287.421C157.639 289.645 160.085 290.812 162.476 290.09C165.033 289.256 166.423 286.588 165.644 284.03Z" fill="#292929"/>
<path d="M164.311 281.751C163.088 280.528 161.253 280.028 159.474 280.584C156.917 281.362 155.527 284.086 156.306 286.643C156.361 286.81 156.417 287.032 156.528 287.199C158.14 287.032 160.364 286.643 161.587 285.531C162.81 284.419 163.755 282.807 164.311 281.751Z" fill="#F7C1DA"/>
<path d="M165.533 283.752C165.311 282.974 164.866 282.307 164.31 281.751C163.754 282.863 162.809 284.419 161.586 285.476C160.363 286.532 158.139 286.977 156.527 287.143C157.528 289.367 159.974 290.534 162.364 289.812C164.866 288.978 166.311 286.309 165.533 283.752Z" fill="#E38EB4"/>
<path d="M200.336 282.029C199.113 280.806 197.279 280.306 195.5 280.862C192.942 281.64 191.553 284.364 192.331 286.921C192.387 287.088 192.442 287.31 192.553 287.477C194.165 287.31 196.389 286.921 197.612 285.809C198.835 284.697 199.78 283.141 200.336 282.029Z" fill="#CCCCCC"/>
<path d="M201.559 284.03C201.336 283.252 200.891 282.585 200.336 282.029C199.78 283.141 198.835 284.697 197.612 285.754C196.389 286.81 194.165 287.255 192.553 287.421C193.553 289.645 195.999 290.812 198.39 290.09C200.947 289.256 202.392 286.588 201.559 284.03Z" fill="#292929"/>
<path d="M200.229 281.751C199.006 280.528 197.171 280.028 195.392 280.584C192.835 281.362 191.445 284.086 192.224 286.643C192.279 286.81 192.335 287.032 192.446 287.199C194.058 287.032 196.282 286.643 197.505 285.531C198.728 284.419 199.673 282.807 200.229 281.751Z" fill="#F7C1DA"/>
<path d="M201.451 283.752C201.229 282.974 200.784 282.307 200.228 281.751C199.672 282.863 198.727 284.419 197.504 285.476C196.281 286.532 194.057 286.977 192.445 287.143C193.446 289.367 195.892 290.534 198.282 289.812C200.84 288.978 202.229 286.309 201.451 283.752Z" fill="#E38EB4"/>
</svg>
