<svg width="200" height="200" viewBox="0 0 200 200" fill="none" xmlns="http://www.w3.org/2000/svg">
<path d="M119.66 165.735C118.971 168.725 113.233 174.014 112.468 174.014C111.703 174.014 111.856 175.087 110.096 174.934C110.096 174.934 109.331 176.084 107.877 175.087C107.877 175.087 106.347 175.164 106.194 174.551C106.194 174.551 104.741 174.704 104.358 173.937C104.358 173.937 102.445 174.551 101.527 173.554C101.527 173.554 101.527 172.634 101.604 171.561C101.68 170.488 101.451 168.648 103.669 167.958C103.669 167.958 107.495 163.895 107.801 163.435C108.107 162.899 107.954 161.749 109.025 159.679C110.096 157.609 104.588 144.348 103.593 143.428C102.522 142.508 99.0025 138.215 99.4615 134.459C99.4615 134.459 97.5489 126.87 97.7784 123.804C97.7784 123.804 97.1663 126.027 95.6362 126.64C95.6362 126.64 95.7127 128.326 94.7946 129.246C93.8765 130.243 95.6362 129.936 95.7127 133.616C95.7892 137.295 94.8711 141.665 96.0952 142.815C97.3193 143.964 97.9314 146.801 95.2536 148.487C92.5759 150.174 83.3949 151.017 82.6299 150.94C81.8648 150.864 78.9575 150.787 79.4165 149.484C79.4165 149.484 79.493 148.717 79.8756 148.564C79.8756 148.564 79.34 148.411 79.7991 147.414L80.1816 146.417C80.1816 146.417 80.0286 145.498 80.7937 145.191C81.6353 144.961 82.8594 144.654 83.854 144.118C84.8486 143.581 85.9962 144.731 86.8378 143.888C87.6794 142.968 88.1384 143.045 87.4498 141.588C86.8378 140.055 84.313 131.929 83.6245 130.09C82.9359 128.25 81.4057 126.64 81.9413 123.88C82.4003 121.121 81.7883 115.295 82.8594 111.845C83.5479 109.852 85.0016 107.859 86.1492 106.096C86.1492 106.096 86.1492 106.096 86.2257 106.019C86.4552 105.713 87.2203 104.793 87.8324 105.636C88.7505 107.016 89.2095 108.242 89.5921 108.779C89.9746 109.316 89.8216 111.692 90.3571 112.459C90.8927 113.225 88.827 115.908 91.9638 118.898C95.1006 121.887 96.9368 123.65 97.8549 123.804C98.773 123.957 97.7784 121.504 98.1609 120.278C98.5435 119.051 99.8441 115.065 103.44 113.072C107.036 111.155 111.32 109.316 113.003 110.082C114.534 110.772 116.217 113.685 116.37 114.068C116.446 115.678 116.599 117.365 116.599 117.365C116.599 117.365 115.375 124.417 115.222 126.027C115.069 127.56 115.069 133.463 114.916 135.379C114.763 137.295 113.921 138.445 114.763 139.518C115.605 140.592 118.741 143.581 118.435 149.637C118.129 155.693 117.517 158.146 118.129 159.679C118.588 161.059 120.348 162.669 119.66 165.735Z" fill="#994E2E"/>
<path d="M138.404 46.8403C138.175 48.1434 137.486 49.0633 136.185 50.1365C134.961 51.2097 134.196 52.2829 133.814 53.0495C133.431 53.816 132.13 56.4224 131.824 56.729C131.595 57.0356 132.36 61.865 132.207 63.6281C132.054 65.3912 132.054 73.8235 131.442 75.4333C130.83 77.0431 128.305 84.4788 120.578 81.1059C120.578 81.1059 117.9 79.726 117.518 79.2661C117.135 78.8062 116.905 88.1583 116.446 90.7646C115.987 93.4476 115.452 94.1375 115.758 95.824C115.987 97.1271 115.987 98.7369 115.758 99.8101C115.681 100.193 115.528 100.5 115.452 100.73C115.222 100.883 111.932 103.796 107.878 105.176C103.67 106.633 99.6147 109.622 96.1719 109.469C92.8821 109.316 87.297 105.866 87.603 103.183C87.603 103.106 87.603 103.106 87.603 103.03V102.953C87.603 102.723 87.603 102.34 87.5265 101.88V101.803C87.0675 98.9669 85.3843 93.141 86.3789 88.005C87.3735 82.639 87.3735 82.3324 87.3735 82.3324C87.3735 82.3324 83.7011 85.9352 79.2637 82.639C74.8262 79.3428 68.9352 72.7503 68.3996 70.9872C67.7875 69.2241 67.1755 69.7607 66.3339 68.9174C65.5688 68.0742 64.9568 66.3878 64.8037 65.4679C64.6507 64.548 64.4212 64.6247 64.0387 64.1647C63.6561 63.6281 62.8145 62.6316 62.5085 62.1716C62.2025 61.7117 61.3609 59.9486 62.3555 59.8719C63.3501 59.7953 64.4212 62.7849 65.3393 62.8615C66.2574 62.9382 66.7164 62.7849 66.7164 61.865C66.7164 60.9451 65.7983 59.4886 65.7983 58.8754C65.7983 58.8754 64.8803 57.5722 65.4158 56.8057C65.8748 56.0391 66.7929 57.4189 66.8694 57.8022C66.8694 58.2621 68.0936 59.182 68.0171 59.7953C68.0171 60.3319 68.1701 60.6385 68.2466 60.7152C68.2466 60.5618 67.9406 59.182 68.0171 58.8754C68.0171 58.5688 67.405 57.1889 67.252 56.959C67.099 56.729 65.4158 54.9659 66.7929 54.4293C66.7929 54.4293 67.558 53.9694 68.3996 56.0391C68.3996 56.0391 69.0117 55.7325 69.8532 56.3457C70.6948 56.959 71.0009 57.9555 71.2304 57.9555C71.3834 57.9555 72.4545 56.729 72.7605 58.4921C73.0666 60.2552 72.837 61.865 72.837 62.9382C72.837 64.0114 73.6786 64.6247 73.2196 66.771C73.2196 66.771 73.5256 66.3878 74.7497 68.6108C75.9739 70.7572 81.5589 73.1336 82.63 73.9001C82.63 73.9001 85.3843 71.9837 86.9145 68.3808C88.4446 64.778 92.8821 62.7082 94.2592 63.3215C94.1062 63.0149 93.8766 62.7849 93.4176 62.5549C92.27 62.095 90.9694 59.2587 90.8929 58.4921C90.7398 57.7255 89.8217 54.9659 89.8217 53.8927C89.8217 52.8195 89.2862 49.5999 89.7452 48.2201C90.1278 46.8403 90.2808 41.7809 90.2808 41.1677C90.3573 39.5579 92.1935 36.0317 98.6201 36.1083C105.047 36.1083 107.954 34.4985 109.79 36.6449C111.626 38.7913 113.463 37.7181 113.463 40.1711C113.463 42.6242 113.845 44.234 114.228 45.9204C114.61 47.6068 115.069 49.37 114.84 50.2132C114.687 51.0564 113.004 50.3665 112.851 52.5895C112.698 54.7359 112.085 58.0322 112.085 58.0322C112.085 58.0322 112.009 60.7918 109.867 63.0149C110.632 63.3215 112.621 64.0881 113.769 64.1647C115.146 64.2414 118.742 62.4783 122.567 67.3843C122.567 67.3843 123.485 64.3947 122.95 62.0183C122.414 59.642 123.409 58.5688 123.562 57.8789C123.715 57.1889 121.496 53.2794 121.266 51.4397C121.037 49.5999 120.042 49.2166 120.119 47.9135C120.195 46.6103 120.042 45.1538 121.572 45.8437C123.103 46.6103 123.485 50.2898 124.097 49.8299C124.097 49.8299 124.021 48.68 124.48 48.2968C124.48 48.2968 124.25 47.4535 124.862 45.9204C124.862 45.9204 124.403 44.3106 125.092 42.6242C125.092 42.6242 125.398 40.8611 125.78 40.1711C126.163 39.4812 125.168 36.7982 127.157 36.7216C127.157 36.7216 128.152 36.415 127.923 39.5579C127.693 42.7008 128.229 44.234 128.229 44.5406C128.229 44.8472 129.147 44.6939 129.529 43.3907C129.912 42.0876 130.218 40.6311 130.447 40.4778C130.677 40.3245 130.141 37.0282 132.13 37.1049C132.13 37.1049 133.355 36.7216 132.819 40.7844C132.283 44.8472 131.365 45.3071 131.748 45.8437C132.13 46.3803 132.36 45.4605 132.972 45.0772C133.584 44.6939 133.967 43.544 134.273 43.0074C134.579 42.4708 134.426 40.1711 135.956 40.7844C137.486 41.3977 134.732 47.4535 134.732 47.4535C134.732 47.4535 136.109 47.3769 136.032 46.8403C136.032 46.8403 136.721 46.5337 136.797 45.8437C136.874 45.1538 136.797 43.774 138.251 44.1573C138.251 44.0806 138.634 45.4605 138.404 46.8403Z" fill="#994E2E"/>
<path d="M88.2153 143.044C88.2153 143.044 89.1334 144.731 93.4178 144.654C93.3413 144.654 88.7509 145.421 88.2153 143.044Z" fill="#773A1E"/>
<path d="M80.7939 147.797C80.7939 147.797 81.3295 146.494 82.6301 146.954C82.6301 146.877 81.4825 146.647 80.7939 147.797Z" fill="#824123"/>
<path d="M87.7562 144.654C87.7562 144.654 88.6743 146.724 91.1225 147.491C91.046 147.491 87.6797 146.341 87.7562 144.654Z" fill="#824123"/>
<path d="M94.7183 127.023C94.7183 127.023 91.352 127.33 88.1387 124.954C88.1387 125.03 91.1225 128.327 94.7183 127.023Z" fill="#773A1E"/>
<path d="M99.9971 133.616C99.9971 133.616 101.145 131.853 103.134 131.853C103.134 131.853 100.609 131.546 99.9971 133.616Z" fill="#824123"/>
<path d="M109.331 160.369C109.331 160.369 112.085 163.435 116.293 162.285C116.293 162.285 112.927 163.129 109.331 160.369Z" fill="#773A1E"/>
<path d="M110.861 163.359C110.861 163.359 112.927 164.355 114.151 165.275C115.375 166.195 117.364 165.812 117.517 165.582C117.517 165.582 115.605 167.115 112.544 164.585L110.861 163.359Z" fill="#773A1E"/>
<path d="M105.047 168.418C105.047 168.418 105.812 168.725 104.741 169.874C103.67 171.101 104.205 172.864 104.205 172.864C104.205 172.864 103.899 171.101 104.588 170.258C105.276 169.491 105.735 168.648 105.047 168.418Z" fill="#824123"/>
<path d="M106.347 173.477C106.347 173.477 105.735 172.481 106.347 171.484C106.959 170.488 106.959 169.644 106.959 169.644C106.959 169.568 107.036 170.641 106.194 172.021C106.194 172.021 105.965 172.404 106.347 173.477Z" fill="#824123"/>
<path d="M108.184 172.174C108.184 172.174 108.413 170.871 108.796 170.411C108.796 170.411 108.184 171.024 108.184 172.174Z" fill="#824123"/>
<path d="M110.938 171.177C110.938 171.177 109.867 171.867 110.02 173.017C109.943 173.017 110.096 171.867 110.938 171.177Z" fill="#824123"/>
<path d="M114.84 76.5065C114.84 76.5065 111.32 73.0569 113.692 68.4575C113.692 68.5342 110.326 72.0604 114.84 76.5065Z" fill="#824123"/>
<path d="M122.261 68.3042C122.261 68.3042 120.578 70.5272 120.425 72.367C120.272 74.2068 120.272 75.5866 120.808 76.9664C120.808 76.9664 118.359 72.137 122.261 68.3042Z" fill="#824123"/>
<path d="M117.977 77.8862C117.977 77.8862 117.211 73.2868 119.813 71.1404C119.813 71.1404 117.594 73.5934 117.977 77.8862Z" fill="#824123"/>
<path d="M115.681 77.1964C115.681 77.1964 113.386 78.1929 112.315 73.9768C112.315 73.9768 113.463 79.1128 115.681 77.1964Z" fill="#824123"/>
<path d="M125.015 48.22C125.015 48.22 128.305 49.6764 126.622 53.8159C126.545 53.8926 128.994 50.213 125.015 48.22Z" fill="#824123"/>
<path d="M127.693 46.6104C127.693 46.6104 132.207 50.2899 132.513 51.593C132.513 51.593 132.513 49.6766 127.693 46.6104Z" fill="#824123"/>
<path d="M87.4498 69.9907C87.4498 69.9907 86.9142 71.5239 87.4498 73.8236C87.9088 76.1233 86.2257 77.7331 86.2257 78.3463C86.2257 79.0362 87.2968 82.3325 87.2968 82.3325C87.2968 82.3325 85.6136 78.7296 86.3022 77.5031C86.9908 76.2766 87.5263 75.0501 87.2203 74.1302C86.8377 73.2103 87.4498 69.9907 87.4498 69.9907Z" fill="#773A1E"/>
<path d="M82.4003 73.9001C82.4003 73.9001 80.3346 72.7502 80.7172 79.4193C80.6407 79.4193 80.6407 73.9767 82.4003 73.9001Z" fill="#773A1E"/>
<path d="M71.0773 58.4922C71.0773 58.4922 70.9243 59.7187 71.0008 60.0253C71.0008 60.2553 70.4652 61.4051 70.3887 61.9417C70.3122 62.4783 69.3176 62.2484 68.8585 64.1648C68.8585 64.1648 68.476 65.3913 68.5525 66.0812C68.5525 66.0812 67.9405 63.6282 70.0062 62.0951C70.0062 62.0951 71.0008 59.642 71.0773 58.4922Z" fill="#824123"/>
<path d="M65.875 65.5445C65.875 65.5445 67.2521 64.9313 67.3286 63.8581C67.4052 62.7849 68.0937 62.1716 68.0937 62.1716C68.0937 62.1716 67.3286 63.3215 67.4052 64.2414C67.4052 64.2414 67.0991 65.2379 65.875 65.5445Z" fill="#824123"/>
<path d="M68.0935 56.8823C68.0935 56.8823 67.9405 57.4189 69.0116 58.1855C69.0116 58.1855 69.3942 58.4155 69.3942 58.9521C69.3942 59.4887 69.3176 60.1019 69.4707 60.4085C69.4707 60.4085 69.1646 60.0252 69.3176 59.0287C69.3942 58.0322 68.7056 58.4921 68.323 57.7255C68.2465 57.6489 68.017 57.189 68.0935 56.8823Z" fill="#824123"/>
<path d="M102.369 79.4194C102.369 79.4194 103.058 78.0395 104.588 79.5727C106.118 81.1058 102.752 81.949 102.369 79.4194Z" fill="#773A1E"/>
<path d="M86.7614 77.043C86.7614 77.043 87.5265 78.5761 86.4554 79.6493C86.4554 79.6493 85.8433 78.1928 86.2259 77.5029L86.7614 77.043Z" fill="#773A1E"/>
<path d="M106.5 139.748C106.5 139.748 109.025 139.518 110.938 140.055C110.938 140.055 109.025 138.828 106.5 139.748Z" fill="#773A1E"/>
<path d="M115.758 99.8867C115.681 100.27 115.528 100.577 115.452 100.807L115.681 99.9634L115.758 99.8867Z" fill="white"/>
<path d="M91.199 104.639C91.199 104.639 92.2701 104.716 92.2701 104.333C92.2701 104.026 93.1117 104.486 93.2647 104.793L93.4177 105.099C93.4177 105.099 93.0352 105.176 92.5761 105.023C92.1171 104.946 91.1225 105.023 91.199 104.639Z" fill="#773A1E"/>
<path d="M98.0079 53.8927C98.0079 53.8927 97.0898 53.0495 98.0844 52.3596C98.0844 52.2829 97.3193 53.1262 98.0079 53.8927Z" fill="#421D13"/>
<path d="M103.823 53.9693C103.823 53.9693 104.817 53.2027 103.823 52.2062C103.823 52.1295 104.588 52.8961 103.823 53.9693Z" fill="#421D13"/>
<path d="M101.681 53.6626C101.681 53.6626 102.14 52.9727 103.058 53.2027C103.058 53.2027 103.287 53.4327 102.446 53.4327C102.446 53.4327 102.063 53.356 101.681 53.6626Z" fill="#421D13"/>
<path d="M99.9209 53.586C99.9209 53.586 99.2324 52.8961 98.6968 53.126C98.6968 53.126 98.3143 53.356 99.3089 53.4327C99.3089 53.4327 99.5384 53.2794 99.9209 53.586Z" fill="#421D13"/>
<path d="M103.976 45.537C103.976 45.537 104.129 44.6171 104.358 44.6937C104.588 44.6937 105.659 44.6937 106.118 44.8471C106.577 45.0004 108.566 44.8471 108.949 45.0004C109.331 45.1537 110.632 46.3802 110.555 46.6102C110.555 46.8401 109.79 46.2269 109.79 46.2269C109.79 46.2269 108.49 45.8436 107.954 45.6903C107.418 45.537 106.194 45.3837 105.659 45.537C105.047 45.537 103.976 45.537 103.976 45.537Z" fill="#421D13"/>
<path d="M96.8606 44.4639C96.8606 44.4639 96.1721 44.7705 95.407 44.6172C94.6419 44.4639 93.1883 44.6172 92.9587 44.7705C92.7292 44.9238 91.1991 45.6904 91.2756 46.8402C91.3521 47.9134 91.1226 48.3734 91.1226 48.3734C91.1226 48.3734 91.7346 46.227 92.2702 45.9203C92.8057 45.6137 93.4178 45.5371 93.7238 45.4604C94.0298 45.3071 96.1721 45.6137 96.5546 45.4604C96.9371 45.3071 97.0902 45.0005 97.0902 44.7705C97.0902 44.5405 96.8606 44.4639 96.8606 44.4639Z" fill="#421D13"/>
<path d="M93.4178 56.729C93.4178 56.729 93.8004 57.4189 93.7239 57.7255C93.7239 57.6489 93.3413 57.1123 93.4178 56.729Z" fill="#421D13"/>
<path d="M108.413 57.0356C108.413 57.0356 108.26 57.8022 108.107 58.0322C108.107 58.0322 108.183 57.3423 108.413 57.0356Z" fill="#421D13"/>
<path d="M108.566 48.7567C108.642 48.8333 108.642 48.91 108.642 48.91C108.642 48.91 108.642 48.8333 108.566 48.7567C108.566 48.5267 108.566 48.3734 108.795 48.0668C108.795 48.0668 107.954 47.8368 107.342 47.6068C107.342 47.6068 107.342 47.6068 107.265 47.6068C107.189 47.5302 107.036 47.5302 106.959 47.5302C106.883 47.5302 106.883 47.5302 106.806 47.5302C106.73 47.5302 106.73 47.5302 106.653 47.5302H106.73C104.511 47.0702 103.44 48.7567 103.44 48.7567C103.822 48.68 104.052 48.3734 104.435 48.2201C104.282 48.68 104.664 49.2933 104.664 49.2933C104.664 49.2933 106.271 49.6766 106.806 49.2933C107.189 48.9866 107.036 48.3734 106.959 48.1434C107.342 48.2201 107.648 48.2967 107.877 48.45C108.336 48.45 108.489 48.6034 108.566 48.7567Z" fill="#421D13"/>
<path d="M108.566 48.7566C108.566 48.8332 108.643 48.9099 108.643 48.9099L108.566 48.7566Z" fill="#421D13"/>
<path d="M98.2379 48.3733C98.2379 48.3733 97.0137 46.8401 94.8715 47.4534H94.948C94.948 47.4534 94.8715 47.4534 94.795 47.53C94.795 47.53 94.7185 47.53 94.642 47.53C94.489 47.6067 94.4125 47.6067 94.336 47.6834C93.7239 47.9133 92.8823 48.2966 92.8823 48.2966C93.1118 48.6032 93.1884 48.7566 93.1884 48.9099C93.1884 49.0632 93.1118 49.1398 93.1118 49.1398C93.1118 49.1398 93.1118 49.0632 93.1884 48.9865C93.2649 48.8332 93.4179 48.6032 93.8004 48.3733C93.9534 48.2966 94.183 48.1433 94.4125 48.0666C94.4125 48.3733 94.4125 48.7566 94.7185 48.9865C95.2541 49.3698 96.8607 48.8332 96.8607 48.8332C96.8607 48.8332 97.1667 48.2966 97.0137 47.8367C97.5493 47.99 97.7788 48.2966 98.2379 48.3733Z" fill="#421D13"/>
<path d="M105.047 57.5723C105.123 57.4957 105.2 57.4957 105.2 57.4957C103.593 58.0323 102.598 57.0357 101.527 57.0357C101.221 57.0357 100.915 57.3423 100.38 57.0357C99.7676 56.7291 98.773 57.3423 98.1609 57.649C97.7019 57.8789 97.2428 57.8789 96.7838 57.7256L96.4778 57.5723C96.4778 57.5723 96.5543 57.649 96.6308 57.649C96.3247 57.5723 96.0952 57.419 96.0952 57.419C96.0952 57.419 96.5543 57.649 97.0133 57.8789C97.6254 58.2622 98.62 58.8755 99.1555 59.4887C99.8441 60.102 102.216 60.332 103.057 59.5654C103.746 59.0288 104.894 57.9556 105.047 57.5723C105.123 57.5723 105.123 57.5723 105.047 57.5723Z" fill="#582817"/>
<path d="M98.5435 58.3389C98.5435 58.3389 100.992 58.7222 102.981 58.4155L98.5435 58.3389Z" fill="#3A180D"/>
<path d="M111.779 57.9555C111.779 57.9555 113.692 58.5687 115.146 55.7324C116.523 52.8961 117.288 50.5964 115.605 50.2132C113.922 49.9065 112.315 51.823 112.315 51.823L111.779 57.9555Z" fill="#994E2E"/>
<path d="M89.3625 52.4362C89.3625 52.4362 87.5263 51.0564 87.4498 52.2829C87.3733 53.5094 88.2914 54.8126 88.3679 55.5025C88.4444 56.1158 88.7505 58.3388 89.6686 58.4921C90.5867 58.5688 91.0457 57.7256 91.0457 57.7256L89.3625 52.4362Z" fill="#994E2E"/>
<path d="M115.375 52.053C115.375 52.053 114.457 51.0564 114.228 53.3561C113.998 55.6558 113.31 54.8126 113.386 55.4258C113.463 56.0391 114.381 55.8858 114.304 54.6593C114.228 53.3561 114.381 51.593 115.375 52.053Z" fill="#421D13"/>
<path d="M88.062 52.8962C88.062 52.8962 89.3626 53.4328 89.2096 55.1193C89.0566 56.8057 89.5922 56.8824 89.5922 56.8824C89.5922 56.8824 89.2096 57.4956 88.9801 56.8057C88.7506 55.5792 89.9747 54.2761 88.062 52.8962Z" fill="#421D13"/>
<path d="M94.4888 63.1682C94.4888 63.1682 97.7021 64.4714 99.1557 65.0846C100.762 65.7745 104.741 65.7745 105.582 65.008C105.582 65.008 102.675 66.6178 99.0027 65.1613C95.3304 63.8581 94.4888 63.1682 94.4888 63.1682Z" fill="#824123"/>
<path d="M109.255 63.2449C109.255 63.2449 107.418 65.6979 103.21 66.3878C103.21 66.3878 107.877 66.0045 109.255 63.2449Z" fill="#824123"/>
<path d="M89.5158 52.4361C89.5158 52.4361 89.9749 50.9796 89.6688 50.5963C89.3628 50.213 90.0514 49.2165 89.8219 48.7566C89.5923 48.2966 90.0514 46.1502 90.1279 45.537C90.2044 44.9237 90.2044 41.6275 90.6634 41.1675C91.046 40.7076 90.893 39.0978 91.4285 38.9445C92.0406 38.7912 93.1882 37.718 93.8003 37.5647C94.4123 37.4114 95.1009 37.1814 95.866 36.7981C96.631 36.3382 98.0082 36.6448 99.0793 36.5681C100.074 36.4148 102.522 36.4148 103.134 36.1848C103.746 35.9549 106.118 35.7249 106.348 35.9549C106.577 36.2615 106.577 36.2615 107.189 36.2615C107.801 36.2615 108.337 35.8782 108.796 36.6448C109.255 37.4114 109.714 38.1013 110.632 38.1013C111.55 38.1013 112.698 38.4845 112.698 39.0978C112.698 39.7111 112.086 39.7111 112.621 40.4776C113.157 41.2442 113.31 42.5474 113.233 42.7773C113.08 43.0073 112.774 43.6972 113.157 44.0805C113.539 44.4638 114.304 47.2234 114.304 48.1433C114.228 49.0632 114.075 50.7496 114.075 50.7496L113.998 51.3629C113.998 51.3629 114.916 49.8297 116.217 50.5963C116.217 50.5963 115.911 50.213 115.987 49.5998C116.064 49.0632 116.14 48.6799 116.14 48.1433C116.14 47.53 116.6 47.53 116.676 46.6102C116.753 45.6903 116.6 44.0805 116.6 44.0805C116.6 44.0805 117.212 40.6309 116.447 39.2511C115.681 37.8713 115.758 37.8713 115.452 36.9514C115.146 36.0315 114.457 35.8016 114.457 35.8016C114.457 35.8016 114.228 33.8085 111.933 32.6586C109.637 31.5088 109.637 30.7422 108.337 30.5889C106.807 30.3589 103.976 29.2857 102.905 29.1324C101.834 28.9791 99.3853 30.2056 97.5491 30.129C95.6364 30.0523 94.9479 30.5889 93.8003 31.2022C92.6526 31.8154 90.893 33.5785 90.3574 33.7318C89.8984 33.8851 89.8219 34.4217 89.2098 35.265C88.5977 36.1082 88.3682 37.1814 87.8327 38.0246C87.2971 38.8678 87.1441 39.7111 87.0676 40.7076C86.9911 41.7041 87.4501 45.1537 87.1441 45.2303C86.9146 45.307 86.532 45.537 86.685 47.2234C86.8381 48.9099 87.9857 50.8263 87.8327 51.6695C87.9092 51.7462 88.2917 51.6695 89.5158 52.4361Z" fill="#421D13"/>
</svg>
