<svg width="200" height="200" viewBox="0 0 200 200" fill="none" xmlns="http://www.w3.org/2000/svg">
<path fill-rule="evenodd" clip-rule="evenodd" d="M115.981 132.417C115.931 133.185 115.875 136.326 115.818 141.836C115.734 147.048 115.486 152.412 115.087 157.928C115.036 158.627 114.913 160.68 114.721 164.098C114.53 167.55 114.435 169.4 114.44 169.654C114.423 170.15 114.474 170.742 114.603 171.43C114.671 171.763 114.733 172.011 114.789 172.175C114.941 172.682 114.991 173.218 114.952 173.777C114.907 174.352 114.277 174.86 113.056 175.305C111.83 175.756 110.396 176.1 108.748 176.354C107.094 176.608 105.761 176.879 104.743 177.178C103.73 177.471 103.145 177.589 103.005 177.539C102.819 176.529 104.27 174.854 107.358 172.513C107.583 172.271 107.831 171.932 108.095 171.498C108.596 170.629 108.905 169.727 109.018 168.785C109.096 168.187 109.102 167.274 109.029 166.055C108.945 164.6 108.776 162.942 108.528 161.069C107.606 154.532 106.993 148.052 106.689 141.617C106.537 136.05 106.385 132.581 106.233 131.205L115.205 131.295L115.981 132.417Z" fill="#924520"/>
<path fill-rule="evenodd" clip-rule="evenodd" d="M100.231 127.184L100.99 128.295C100.923 129.056 100.822 132.198 100.681 137.714C100.512 142.919 100.186 148.283 99.691 153.799C99.6235 154.499 99.4717 156.557 99.2298 159.975C98.9823 163.427 98.8585 165.277 98.8585 165.536C98.8304 166.033 98.8642 166.569 98.9429 167.15C99.0273 167.73 99.1004 168.199 99.1735 168.554C99.2692 169.124 99.2748 169.552 99.1848 169.834C99.0273 170.319 97.9867 170.421 96.0685 170.15C94.0548 169.868 92.1929 169.609 90.4829 169.377C90.8598 169.062 91.2817 168.74 91.7317 168.402C91.9623 168.159 92.221 167.821 92.4854 167.386C93.0029 166.523 93.3292 165.615 93.4585 164.674C93.5485 164.076 93.571 163.168 93.5148 161.944C93.4529 160.494 93.3067 158.825 93.0873 156.958C92.2717 150.421 91.7598 143.935 91.5573 137.505C91.4898 131.938 91.3942 128.469 91.2648 127.093L100.231 127.184Z" fill="#924520"/>
<path fill-rule="evenodd" clip-rule="evenodd" d="M88.6492 118.283C88.6886 119.733 88.6492 121.521 88.5311 123.636C88.413 125.751 88.3005 127.15 88.1992 127.838C88.098 128.498 87.963 129.338 87.7942 130.359C87.6255 131.38 87.4905 132.073 87.3948 132.446C87.1642 132.367 87.0123 132.417 86.9392 132.598L87.0686 133.726L86.9336 134.775C88.503 135.514 90.6855 136.033 93.4867 136.326C96.4005 136.631 99.5842 136.631 103.027 136.326C103.083 135.277 103.207 134.595 103.404 134.262C103.285 133.997 103.111 133.878 102.869 133.918L103.443 129.795C103.674 128.317 103.887 127.155 104.09 126.315C104.304 125.497 104.534 123.98 104.782 121.769C105.04 119.535 105.485 114.256 106.104 105.909L89.178 105.277L88.6492 118.283Z" fill="#7E1621"/>
<path fill-rule="evenodd" clip-rule="evenodd" d="M119.519 119.761C119.575 121.284 119.632 122.739 119.688 124.126C119.8 126.907 120.172 130.472 120.796 134.831C121.381 134.894 121.668 135.068 121.668 135.345C121.505 135.802 121.454 136.191 121.516 136.512C121.561 136.896 121.662 137.195 121.825 137.409C118.332 138.351 115.104 138.881 112.122 139.005C109.175 139.129 106.829 138.847 105.097 138.159C104.922 137.178 104.799 136.574 104.725 136.343C104.579 135.999 104.647 135.807 104.922 135.773C104.905 135.644 104.815 135.023 104.641 133.901C104.675 132.446 104.433 129.879 103.927 126.202C103.494 123.128 102.847 116.614 101.992 106.653L118.687 105.542C119.154 112.745 119.39 116.535 119.407 116.913C119.429 117.285 119.463 118.238 119.519 119.761Z" fill="#7E1621"/>
<path fill-rule="evenodd" clip-rule="evenodd" d="M82.4114 170.906L82.3945 171.346C82.6533 172.31 83.4295 172.677 84.7177 172.434C85.3927 172.231 86.0733 172.006 86.7708 171.763C87.1533 171.786 87.6764 171.774 88.3233 171.724C88.9533 171.673 89.797 171.492 90.8377 171.188C92.6208 170.703 93.892 170.511 94.6514 170.613C95.4108 170.714 96.3108 170.849 97.3458 171.013C98.302 171.126 98.932 170.697 99.247 169.727C99.3258 169.513 99.2864 169.005 99.1289 168.199C98.9883 167.386 98.9095 166.535 98.8983 165.655C98.8983 164.764 98.3864 164.205 97.3683 163.974C96.3614 163.732 95.2983 163.935 94.1733 164.566C93.9145 164.736 93.6558 164.922 93.4027 165.142C92.4183 166.005 91.3158 166.608 90.0895 166.935C89.0208 167.206 87.9577 167.578 86.9114 168.063C86.512 168.232 86.0114 168.413 85.4208 168.622L84.9539 169.061H84.9764L85.4377 168.813L85.8427 168.83L85.9045 168.966L85.2633 168.949C85.2014 168.988 85.1114 169.028 84.9933 169.061L84.6052 169.197L84.2395 169.637L84.5714 169.468L85.2464 169.276L85.6402 169.349L85.2127 169.406L84.2452 169.637L83.8008 169.812L83.4689 170.483C84.2677 170.218 84.8752 170.043 85.2858 169.97C85.6964 169.908 85.9383 169.84 86.0058 169.778L85.7752 170.009C85.5277 170.122 85.1789 170.201 84.7233 170.24L83.3902 170.528L82.4114 170.906ZM97.402 167.008C97.5314 166.653 97.5652 166.287 97.4977 165.92C97.5595 166.151 97.6102 166.366 97.6495 166.569C97.7283 167.014 97.5764 167.364 97.1883 167.618L96.7045 167.544C97.0645 167.527 97.3008 167.347 97.402 167.008ZM83.0527 171.38L83.9808 170.878L84.0427 170.652C84.082 170.714 84.1045 170.782 84.1214 170.844C84.1327 170.866 84.1327 170.895 84.1214 170.917C84.1214 170.957 84.1158 170.996 84.0989 171.03L82.9795 171.566L82.6139 170.895L82.7489 170.872L83.0527 171.38Z" fill="#924520"/>
<path fill-rule="evenodd" clip-rule="evenodd" d="M83.3788 170.522L84.7119 170.235C85.1675 170.195 85.5163 170.122 85.7638 170.003L85.9944 169.772C85.9269 169.834 85.685 169.902 85.2744 169.964C84.8638 170.043 84.2563 170.212 83.4575 170.477L83.3788 170.522ZM85.2575 168.954L85.8988 168.971L85.8369 168.836L85.4319 168.819L84.9707 169.067H84.9875C85.1057 169.033 85.1957 168.994 85.2575 168.954ZM85.2013 169.411L85.6288 169.355L85.235 169.281L84.56 169.473L84.2282 169.642L85.2013 169.411ZM97.1882 167.618C97.5763 167.364 97.7338 167.014 97.6494 166.569C97.61 166.366 97.5594 166.151 97.4975 165.92C97.5594 166.292 97.5313 166.653 97.4019 167.008C97.3007 167.347 97.0644 167.527 96.7044 167.544L97.1882 167.618ZM82.6025 170.906L82.9682 171.577L84.0875 171.041C84.1044 171.002 84.11 170.968 84.11 170.928C84.1213 170.906 84.1213 170.878 84.11 170.855C84.0988 170.793 84.0707 170.725 84.0313 170.663L83.9694 170.889L83.0413 171.391L82.7319 170.889L82.6025 170.906Z" fill="#61453E"/>
<path fill-rule="evenodd" clip-rule="evenodd" d="M100.361 176.924L100.085 177.059L99.6239 177.003C99.3764 176.941 99.1908 176.749 99.0614 176.428C99.0502 176.377 99.0446 176.332 99.0446 176.298C98.9546 176.005 98.9546 175.677 99.0446 175.322V175.305C99.0558 175.283 99.0727 175.254 99.0839 175.232L99.1796 175.192C99.1796 175.181 99.1852 175.17 99.1964 175.153C99.1964 175.142 99.2021 175.136 99.2133 175.136H99.2527V175.113C99.2808 175.102 99.3146 175.091 99.3652 175.074C100.698 174.741 102.026 174.126 103.359 173.224C106.087 171.492 107.881 170.167 108.753 169.242C109.62 168.311 110.379 167.99 111.037 168.266C111.695 168.543 112.089 168.684 112.23 168.695C112.359 168.706 112.488 168.74 112.618 168.791C112.815 168.881 113.006 168.966 113.203 169.056C113.4 169.157 113.512 169.321 113.551 169.552C113.602 169.795 113.641 170.139 113.67 170.584C113.709 171.03 113.872 171.803 114.153 172.897H114.125C114.193 173.32 114.221 173.681 114.204 173.985C114.165 174.459 114.035 174.758 113.816 174.888L111.864 175.689C110.671 176.219 108.815 176.817 106.306 177.488C106.177 177.781 105.924 178.001 105.553 178.153C105.412 178.232 105.283 178.283 105.165 178.306C104.996 178.357 104.883 178.362 104.816 178.323L104.793 178.306L104.816 178.283C104.968 177.939 105.069 177.443 105.108 176.794V176.772C105.018 177.245 104.9 177.612 104.76 177.883C104.748 177.905 104.731 177.939 104.72 177.979L104.529 178.323C104.501 178.362 104.49 178.39 104.49 178.419C104.13 178.622 103.82 178.689 103.561 178.627L103.522 178.035C103.522 178.024 103.522 178.001 103.522 177.979C103.623 177.708 103.696 177.494 103.736 177.33C103.837 176.958 103.905 176.636 103.927 176.354C103.809 176.546 103.713 176.772 103.635 177.042C103.545 177.285 103.466 177.516 103.404 177.725C103.404 177.736 103.404 177.747 103.404 177.764C103.376 177.764 103.365 177.781 103.365 177.821L102.746 178.684C102.318 178.774 102.026 178.701 101.868 178.475C101.728 178.255 101.761 177.996 101.97 177.691V177.668C102.048 177.505 102.121 177.307 102.2 177.076C102.318 176.721 102.408 176.377 102.47 176.044C102.459 176.055 102.442 176.067 102.431 176.084C102.285 176.287 102.15 176.574 102.02 176.947C101.941 177.172 101.863 177.375 101.79 177.539H101.773L101.21 178.187C100.631 178.351 100.31 178.289 100.26 177.996L100.243 177.403C100.321 177.313 100.389 177.223 100.456 177.133C100.473 177.11 100.485 177.093 100.496 177.093C100.546 177.02 100.608 176.935 100.67 176.845L100.71 176.806C100.788 176.693 100.873 176.574 100.963 176.445C101.272 175.976 101.486 175.615 101.598 175.373C101.587 175.39 101.565 175.401 101.536 175.412C101.368 175.474 101.126 175.751 100.805 176.236C100.636 176.501 100.496 176.738 100.378 176.924H100.361ZM99.6577 175.909C99.6746 175.948 99.6914 175.999 99.7196 176.061C100.209 175.869 100.406 175.52 100.305 175.006C100.305 174.944 100.293 174.877 100.282 174.815C100.13 174.956 100.051 175.136 100.051 175.35C100.063 175.542 99.9839 175.672 99.8039 175.734C99.7252 175.491 99.6014 175.283 99.4327 175.102L99.2639 175.142L99.2021 175.294L99.1852 175.311C99.3821 175.469 99.5452 175.672 99.6577 175.909ZM111.515 172.164L111.999 172.237C112.387 171.983 112.545 171.633 112.466 171.188C112.426 170.985 112.376 170.771 112.308 170.539C112.376 170.912 112.342 171.273 112.213 171.628C112.106 171.972 111.875 172.152 111.515 172.164ZM103.73 178.182L103.747 178.317L104.349 178.3L104.366 178.131L104.31 178.018L104.231 178.244L103.865 178.283L103.826 178.035L103.73 178.069V178.182ZM101.964 177.894V178.029C102.133 178.193 102.341 178.249 102.583 178.182C102.611 178.17 102.645 178.165 102.678 178.165L102.695 177.95C102.234 178.232 102.015 178.176 102.037 177.781L101.964 177.894ZM101.21 177.516C100.839 177.871 100.665 177.826 100.687 177.381L100.591 177.573C100.681 177.702 100.805 177.793 100.963 177.843C101.064 177.866 101.148 177.849 101.21 177.787L101.25 177.578L101.21 177.516ZM105.007 178.125H105.024C105.052 178.125 105.069 178.125 105.08 178.125L105.333 178.165L105.373 178.108L105.35 178.035L105.125 178.108L105.007 178.012C105.007 178.035 105.007 178.058 105.007 178.069C105.007 178.086 105.007 178.103 105.007 178.125Z" fill="#924520"/>
<path fill-rule="evenodd" clip-rule="evenodd" d="M105.547 178.142C105.457 178.21 105.367 178.261 105.277 178.317V178.3H105.159C105.277 178.272 105.406 178.221 105.547 178.142ZM104.714 177.973C104.726 177.934 104.743 177.9 104.754 177.877C104.894 177.606 105.013 177.24 105.103 176.766V176.789C105.063 177.437 104.968 177.934 104.81 178.278C104.771 178.125 104.743 178.024 104.714 177.973ZM102.02 176.941C102.149 176.569 102.284 176.281 102.431 176.078C102.442 176.061 102.459 176.05 102.47 176.038C102.403 176.371 102.318 176.715 102.2 177.071C102.121 177.302 102.043 177.499 101.969 177.663C101.93 177.612 101.868 177.567 101.795 177.533C101.868 177.37 101.947 177.172 102.02 176.941ZM103.629 177.037C103.708 176.766 103.798 176.535 103.921 176.349C103.893 176.631 103.831 176.952 103.73 177.324C103.691 177.488 103.618 177.702 103.516 177.973C103.488 177.905 103.449 177.826 103.404 177.725C103.466 177.511 103.539 177.279 103.629 177.037ZM100.805 176.236C101.126 175.751 101.368 175.48 101.536 175.412C101.564 175.401 101.587 175.39 101.598 175.373C101.486 175.615 101.266 175.971 100.963 176.445C100.873 176.574 100.788 176.693 100.709 176.806L100.383 176.918C100.496 176.732 100.636 176.501 100.805 176.236ZM99.2526 175.147L99.4213 175.108C99.5901 175.288 99.7138 175.497 99.7926 175.74C99.9726 175.677 100.057 175.548 100.04 175.356C100.04 175.142 100.119 174.961 100.271 174.82C100.282 174.882 100.293 174.95 100.293 175.012C100.394 175.52 100.203 175.875 99.7082 176.067C99.6801 176.005 99.6632 175.954 99.6463 175.914C99.5338 175.672 99.3707 175.474 99.1626 175.322H99.1795V175.305L99.2526 175.147ZM112.303 170.539C112.37 170.771 112.421 170.985 112.46 171.188C112.539 171.633 112.381 171.983 111.993 172.237L111.509 172.164C111.869 172.152 112.1 171.972 112.207 171.628C112.336 171.273 112.37 170.912 112.303 170.539ZM102.701 177.95L102.684 178.165C102.644 178.165 102.616 178.17 102.588 178.182C102.346 178.244 102.138 178.193 101.969 178.029V177.894L102.048 177.781C102.02 178.176 102.234 178.232 102.701 177.95ZM103.826 178.029L103.865 178.278L104.231 178.238L104.309 178.012L104.366 178.125L104.349 178.294L103.747 178.311L103.73 178.176V178.058L103.826 178.029ZM101.21 177.781C101.148 177.843 101.064 177.86 100.963 177.838C100.811 177.787 100.681 177.697 100.591 177.567L100.687 177.375C100.659 177.821 100.839 177.866 101.21 177.511L101.249 177.567L101.21 177.781ZM105.007 178.012L105.125 178.108L105.356 178.035L105.378 178.108L105.339 178.165L105.086 178.125C105.074 178.125 105.058 178.125 105.029 178.125H105.013C105.013 178.103 105.013 178.08 105.013 178.063C105.007 178.058 105.007 178.035 105.007 178.012Z" fill="#61453E"/>
<path fill-rule="evenodd" clip-rule="evenodd" d="M74.902 117.595C74.8795 117.663 74.8064 117.765 74.6883 117.894C74.5926 117.951 74.4914 118.001 74.3901 118.058C74.1314 117.951 73.957 117.776 73.8726 117.522C73.8108 117.313 73.8333 117.02 73.9458 116.659C74.1258 116.315 74.2439 116.067 74.2889 115.926C74.722 114.894 75.2395 113.907 75.847 112.959L75.9258 112.92C75.9483 112.841 75.937 112.824 75.8808 112.846C75.5995 112.818 75.3689 112.762 75.1889 112.677C75.037 112.638 74.8908 112.564 74.7614 112.457C74.2664 112.181 74.0133 111.859 73.9964 111.51C74.1089 111.261 74.2439 111.098 74.3901 111.019C74.4914 111.087 74.7108 111.115 75.037 111.12C75.3914 111.171 75.757 111.12 76.1283 110.974C76.4545 110.855 76.6514 110.805 76.7301 110.821C76.7976 110.726 76.9608 110.602 77.2026 110.466C77.4501 110.331 77.7539 110.133 78.1195 109.868C78.4851 109.603 79.1208 109.406 80.0264 109.276C80.9489 109.073 81.8658 109.451 82.777 110.415C82.9626 110.618 83.0976 110.788 83.182 110.923C83.1708 111.662 82.9739 112.378 82.6026 113.072C82.5183 113.36 82.3889 113.585 82.2201 113.743C82.057 114.019 81.8601 114.245 81.6464 114.426C81.1401 115.006 80.752 115.559 80.4708 116.078C80.167 116.552 80.0095 116.947 79.9983 117.251C79.8576 117.454 79.8014 117.573 79.8295 117.624C79.7845 117.77 79.762 117.996 79.7508 118.306C79.7226 118.689 79.5989 118.972 79.3739 119.152C79.2951 119.135 79.222 119.113 79.1433 119.096C79.087 119.005 79.0251 118.949 78.9464 118.926C78.9914 118.904 78.9295 118.785 78.7439 118.582C78.6258 118.283 78.682 117.883 78.9126 117.392L78.8789 117.499C78.9914 117.257 79.1883 116.873 79.4639 116.354L79.3964 116.394C79.1826 116.693 79.0083 117.003 78.8676 117.319C78.6595 117.742 78.5695 118.188 78.592 118.661C78.5751 118.853 78.547 119.022 78.502 119.169C78.4514 119.191 78.4401 119.231 78.4683 119.276C78.3501 119.524 78.142 119.665 77.8439 119.71C77.7651 119.693 77.7145 119.716 77.6976 119.789L77.5008 119.626C77.2195 119.045 77.1408 118.419 77.2589 117.748C77.2533 117.646 77.242 117.578 77.2251 117.533L77.2083 117.499C77.557 116.879 77.7989 116.411 77.9339 116.089C77.602 116.518 77.3545 116.93 77.197 117.319C77.1745 117.392 77.1408 117.499 77.1014 117.646C76.9608 117.843 76.9045 118.024 76.9383 118.193C76.8876 118.216 76.8708 118.289 76.8708 118.407C76.747 118.966 76.5839 119.237 76.3814 119.225C76.3589 119.299 76.3308 119.316 76.3026 119.265C76.0776 119.327 75.9539 119.338 75.9258 119.287L75.7683 119.191C75.4533 118.453 75.3633 117.646 75.4983 116.777L75.5714 116.738C75.5939 116.665 75.6389 116.58 75.7064 116.479L75.7795 116.439C75.8189 116.174 75.9314 115.931 76.1226 115.7C75.8133 116.056 75.577 116.428 75.4195 116.823C75.2958 117.161 75.1158 117.409 74.902 117.595ZM77.197 112.576C76.7414 112.773 76.3645 112.858 76.072 112.829C76.8539 112.948 77.602 112.773 78.322 112.322C78.4233 112.265 78.5583 112.226 78.7326 112.186C78.2995 112.124 77.7876 112.254 77.197 112.576ZM81.1176 112.068L81.0389 111.933C80.6958 112.124 80.2795 112.198 79.7958 112.158C80.3301 112.288 80.7689 112.254 81.1176 112.068ZM79.7733 115.548C78.6089 115.576 77.7145 115.125 77.0901 114.194C77.0283 113.98 76.9551 113.805 76.8764 113.67L76.8033 113.715C77.3264 115.131 78.3108 115.74 79.7733 115.548Z" fill="#924520"/>
<path fill-rule="evenodd" clip-rule="evenodd" d="M78.8675 117.325C79.0025 117.009 79.1769 116.699 79.3963 116.4L79.4638 116.36C79.1882 116.879 78.9913 117.263 78.8788 117.505L78.9125 117.398L78.8675 117.325ZM75.4307 116.845C75.5882 116.45 75.8244 116.078 76.1338 115.723C75.9482 115.948 75.83 116.197 75.7907 116.462L75.7175 116.501L75.4307 116.845ZM77.9394 116.101C77.8044 116.422 77.5625 116.89 77.2138 117.511C77.2138 117.437 77.2025 117.381 77.2025 117.336C77.36 116.941 77.6019 116.529 77.9394 116.101ZM76.8707 113.67C76.955 113.811 77.0225 113.986 77.0844 114.194C77.7088 115.125 78.6088 115.576 79.7675 115.548C78.3107 115.74 77.3207 115.131 76.7919 113.709L76.8707 113.67ZM81.0332 111.927L81.1119 112.062C80.7688 112.248 80.33 112.282 79.79 112.153C80.2794 112.192 80.69 112.119 81.0332 111.927ZM78.3219 112.327C77.6019 112.779 76.8482 112.954 76.0719 112.835C76.3644 112.863 76.7413 112.779 77.1969 112.581C77.7875 112.26 78.2994 112.124 78.7325 112.192C78.5582 112.226 78.4232 112.271 78.3219 112.327Z" fill="#893D1E"/>
<path fill-rule="evenodd" clip-rule="evenodd" d="M87.26 70.2857C87.2431 72.9479 86.9956 75.7229 86.5231 78.6163C86.1406 80.4211 85.865 82.1808 85.6906 83.9067C85.4319 85.689 85.2125 86.9693 85.0213 87.7364C84.9256 88.4414 84.875 88.9321 84.8638 89.1972C84.92 89.5469 85.0156 89.7781 85.1619 89.8796C85.37 90.0657 85.6738 90.2914 86.0675 90.5508C86.495 90.8554 87.0294 91.0641 87.6594 91.1769C88.6213 91.4589 89.3469 91.4194 89.8194 91.0415C90.3425 89.8007 90.995 87.9902 91.7769 85.61C92.4463 83.1735 93.1156 80.5114 93.7906 77.618C94.6513 74.4143 95.09 71.8988 95.1125 70.077C95.0844 68.2778 94.7019 66.8791 93.9594 65.8695C93.29 64.8768 92.435 64.1323 91.3944 63.6473C90.2975 63.1904 89.3694 63.5006 88.5875 64.5835C87.8394 65.7736 87.395 67.68 87.26 70.2857Z" fill="#924520"/>
<path fill-rule="evenodd" clip-rule="evenodd" d="M80.8646 112.102C81.804 112.136 82.5465 111.848 83.0977 111.239C83.5027 110.827 83.874 110.077 84.2002 108.983C84.549 107.934 85.0552 106.535 85.7021 104.775C86.259 103.19 86.8721 101.538 87.5471 99.8232C88.0983 98.1255 88.5877 96.5406 89.0208 95.0798C89.409 93.6473 89.7183 92.0455 89.9602 90.2632C90.1065 88.5373 89.5102 87.5559 88.1827 87.3077C86.8102 87.0878 85.8315 87.2626 85.2521 87.821C84.729 88.4752 84.2002 89.5582 83.6658 91.0697C83.154 92.5136 82.6871 94.0815 82.2652 95.7736C81.8546 97.2795 81.5058 98.9321 81.219 100.743C80.8758 102.576 80.544 104.256 80.2121 105.779C79.9083 107.347 79.6383 108.532 79.4021 109.338C79.239 110.162 79.2221 110.838 79.3515 111.374C79.3908 111.786 79.8971 112.028 80.8646 112.102Z" fill="#924520"/>
<path fill-rule="evenodd" clip-rule="evenodd" d="M87.8451 61.0131C88.5876 59.9245 89.8476 59.541 91.6364 59.8681C93.4083 60.1953 94.4883 61.673 94.8651 64.3013C95.2251 69.3605 95.1689 74.4084 94.6908 79.4284C90.7476 80.5564 87.3108 80.4379 84.3745 79.0674C84.4026 73.8218 84.8133 69.7722 85.5895 66.9127C86.3545 64.0588 87.1083 62.0903 87.8451 61.0131Z" fill="#7E1621"/>
<path fill-rule="evenodd" clip-rule="evenodd" d="M111.718 59.0955C110.992 59.637 110.188 60.4322 109.293 61.4813C104.945 66.5969 101.143 68.8586 97.8689 68.272C96.3389 68.0182 95.152 67.5557 94.3083 66.8845C93.5826 66.3318 93.0201 65.4745 92.6095 64.3126C91.7489 62.1525 91.822 59.9697 92.8345 57.7701C94.477 57.0876 95.5514 56.4052 96.0633 55.7283C96.5751 55.0459 96.8733 54.2337 96.9633 53.2862C96.9914 52.5699 96.9801 51.893 96.9126 51.2557L96.9914 46.5293C97.672 46.4842 99.1851 46.3037 101.531 45.9878C102.386 45.8694 103.477 45.9089 104.793 46.1006C106.531 46.3432 107.611 46.4729 108.028 46.4842L107.122 50.6522C106.875 51.769 106.807 52.6037 106.925 53.1564C107.077 53.7938 107.381 54.3747 107.848 54.888C108.309 55.4012 109.49 56.6872 111.391 58.7515C111.51 58.8755 111.616 58.9883 111.718 59.0955ZM112.207 58.633C112.241 58.6556 112.275 58.6838 112.303 58.7063C112.291 58.712 112.275 58.7233 112.263 58.7289C112.246 58.6951 112.224 58.6669 112.207 58.633Z" fill="#924520"/>
<path fill-rule="evenodd" clip-rule="evenodd" d="M93.1718 57.46C91.5574 58.5767 89.8868 59.4453 88.1712 60.0713C88.1205 60.5733 88.008 61.6675 87.8393 63.3483C87.6649 65.029 87.6312 69.4171 87.7324 76.5124C89.1387 89.3268 88.3905 100.522 85.4824 110.099C94.6512 114.217 106.076 115.3 119.761 113.348C118.861 101.504 118.248 89.4734 117.905 77.2513C117.759 73.6246 117.714 70.4774 117.759 67.8265C117.804 65.17 117.657 63.0381 117.314 61.4363C116.364 60.5902 115.548 59.9134 114.873 59.4002C114.198 58.8869 113.574 58.4075 113.006 57.9563H112.966V57.9337C112.854 57.883 112.702 57.8435 112.522 57.8209C111.228 57.6461 110.013 57.8999 108.86 58.588C107.707 59.2704 105.952 60.8215 103.595 63.2411C101.232 65.6607 99.3705 67.0256 98.0093 67.3415C96.6424 67.6573 95.6187 67.6799 94.938 67.3979C94.1618 67.0651 93.5712 66.5067 93.1549 65.7171C92.3505 64.1604 92.0243 62.5756 92.1649 60.9568C92.283 59.5976 92.6149 58.4301 93.1718 57.46Z" fill="#FDC99D"/>
<path fill-rule="evenodd" clip-rule="evenodd" d="M93.1719 57.4601C92.615 58.4303 92.2832 59.5978 92.165 60.957C92.0244 62.5758 92.3507 64.1606 93.155 65.7173C93.5657 66.5069 94.1563 67.0653 94.9382 67.3981C95.6244 67.6801 96.6425 67.6575 98.0094 67.3417C99.3707 67.0258 101.238 65.6609 103.595 63.2413C105.952 60.8217 107.713 59.2706 108.86 58.5882C110.008 57.9001 111.228 57.6463 112.522 57.8211C112.702 57.8493 112.848 57.8832 112.966 57.9339L111.824 57.0541C111.673 56.9413 111.341 56.6536 110.84 56.1911C110.48 55.8583 110.244 55.7061 110.143 55.7343C108.944 55.9486 107.803 56.49 106.734 57.3586C105.868 58.0467 104.518 59.3383 102.678 61.239C100.839 63.1341 99.095 64.3355 97.4469 64.8318C95.7988 65.3281 94.8088 64.939 94.4769 63.6587C94.1394 62.3783 93.9482 61.3293 93.8919 60.5171C93.8413 59.8177 93.875 59.2142 93.9932 58.701C94.1957 57.7704 94.4488 57.1894 94.7469 56.9582C94.5444 56.7777 94.3644 56.7495 94.2238 56.8623C94.0775 56.9807 93.9425 57.071 93.8188 57.1274C93.6838 57.1951 93.47 57.3022 93.1719 57.4601Z" fill="#7E1621"/>
<path fill-rule="evenodd" clip-rule="evenodd" d="M98.6844 23.4162C100.743 23.2752 102.538 23.3485 104.062 23.6305C105.631 23.8956 107.499 24.516 109.659 25.4974C111.881 26.4675 113.399 27.9227 114.226 29.846C115.104 31.7242 115.436 34.0817 115.216 36.9244C114.851 40.9458 113.394 43.8279 110.863 45.5707C108.708 47.054 105.969 47.6181 102.644 47.2571C99.6969 46.93 96.9969 46.0106 94.55 44.4991C92.0975 42.9875 90.9275 41.3406 91.0344 39.5527C91.1357 37.7704 91.1132 35.5764 90.9613 32.965C90.815 30.3536 91.7038 28.2667 93.6388 26.6988C94.955 24.6458 96.6313 23.5516 98.6844 23.4162Z" fill="#4F2414"/>
<path fill-rule="evenodd" clip-rule="evenodd" d="M99.9726 27.6687C101.334 27.7138 102.971 27.9507 104.878 28.3681C106.779 28.7854 108.247 29.6935 109.288 31.0979C110.328 32.4967 110.66 34.1379 110.289 36.0217C109.918 37.9056 109.828 39.7273 110.03 41.4927C110.57 42.5361 110.964 43.055 111.217 43.055C111.47 43.055 111.273 43.6077 110.615 44.7132C109.957 45.8187 109.321 47.1892 108.703 48.8249C108.101 50.4549 106.97 51.8367 105.305 52.9647C103.646 54.0702 101.503 54.527 98.8757 54.3353C96.2545 54.1435 95.6076 53.8446 93.9651 52.8294C92.3338 51.8029 91.8163 50.7651 90.7757 48.4188C90.2976 46.5011 89.5945 44.1041 89.8926 41.2784C90.7645 38.6444 91.147 36.4391 91.0345 34.6568C90.922 32.8745 91.4113 31.1205 92.497 29.3889C93.5826 27.6574 94.7582 26.9242 96.0295 27.2006C97.2895 27.46 98.6113 27.6236 99.9726 27.6687Z" fill="#924520"/>
<path fill-rule="evenodd" clip-rule="evenodd" d="M110.621 42.2767C110.261 42.7392 109.799 44.1323 109.231 46.4674L108.933 47.7364L109.299 47.7815C110.412 47.9056 111.374 47.6856 112.19 47.1273C113.079 46.5407 113.591 45.7172 113.726 44.6512C113.827 43.8616 113.692 43.2074 113.315 42.6941C112.989 42.2147 112.505 41.9383 111.864 41.8594C111.504 41.8143 111.132 41.9045 110.767 42.1414L110.621 42.2767Z" fill="#924520"/>
<path fill-rule="evenodd" clip-rule="evenodd" d="M112.837 43.811C112.46 43.4331 112.066 43.2978 111.645 43.3993C111.335 43.467 112.837 43.811 112.837 43.811Z" fill="#4F2414" stroke="#4F2414" stroke-width="0.2263" stroke-miterlimit="10" stroke-linejoin="bevel"/>
<path fill-rule="evenodd" clip-rule="evenodd" d="M111.515 31.1995C111.532 30.5057 111.256 29.7556 110.694 28.9547C110.035 28.0354 109.242 27.4883 108.309 27.3247C109.248 27.8436 109.951 28.3907 110.424 28.9773C110.947 29.5751 111.312 30.3196 111.515 31.1995Z" fill="#924520"/>
<path fill-rule="evenodd" clip-rule="evenodd" d="M112.404 30.2407C112.41 29.6654 112.179 29.045 111.723 28.3795C111.178 27.635 110.531 27.1838 109.771 27.0371C110.548 27.4658 111.121 27.9113 111.504 28.3795C111.937 28.8814 112.235 29.5019 112.404 30.2407Z" fill="#924520"/>
<path fill-rule="evenodd" clip-rule="evenodd" d="M110.21 31.2447C110.21 30.7202 109.996 30.1618 109.58 29.5696C109.102 28.8815 108.517 28.4754 107.825 28.3569C108.523 28.7405 109.04 29.1466 109.389 29.5752C109.777 30.0208 110.053 30.5791 110.21 31.2447Z" fill="#924520"/>
<path fill-rule="evenodd" clip-rule="evenodd" d="M116.15 122.604C114.626 121.707 113.776 120.398 113.607 118.667C113.664 118.78 113.692 118.864 113.692 118.921C114.035 120.483 114.851 121.713 116.15 122.604H116.234C116.403 122.66 116.544 122.711 116.656 122.767C117.05 122.88 117.477 122.908 117.927 122.852C117.646 122.796 117.365 122.688 117.078 122.519C115.779 121.572 114.957 120.342 114.62 118.836C114.732 119.062 114.817 119.31 114.879 119.586C115.554 121.041 116.572 122.13 117.933 122.852H118.017C118.13 122.852 118.299 122.88 118.529 122.937C118.698 122.993 118.895 122.993 119.12 122.937L118.951 122.35C118.67 122.074 118.327 121.792 117.927 121.515C117.022 120.9 116.431 120.032 116.144 118.921C116.262 119.034 116.347 119.169 116.403 119.338C117.14 120.624 118.214 121.459 119.626 121.854L119.795 121.775C119.795 121.718 119.767 121.662 119.711 121.605C119.649 121.16 119.424 120.743 119.03 120.348C117.843 119.287 117.556 118.001 118.181 116.495C118.743 115.102 118.524 113.619 117.5 112.057C116.594 111.109 115.632 111.025 114.614 111.803L114.446 112.057L113.855 113.393C113.456 114.234 113.146 115.153 112.921 116.157C112.64 117.161 112.691 118.334 113.09 119.677C113.495 121.064 114.513 122.045 116.15 122.604Z" fill="#924520"/>
<path fill-rule="evenodd" clip-rule="evenodd" d="M117.933 121.515C117.027 120.9 116.437 120.032 116.15 118.921C116.268 119.034 116.352 119.169 116.409 119.338C117.146 120.624 118.22 121.459 119.632 121.854C119.294 121.966 118.957 121.91 118.614 121.684C118.557 121.628 118.501 121.6 118.445 121.6L118.957 122.35C118.676 122.074 118.332 121.797 117.933 121.515ZM117.084 122.519C115.784 121.572 114.963 120.342 114.626 118.836C114.738 119.062 114.822 119.31 114.884 119.586C115.559 121.041 116.577 122.13 117.939 122.852C117.652 122.801 117.371 122.688 117.084 122.519ZM113.607 118.667C113.664 118.78 113.692 118.864 113.692 118.921C114.035 120.483 114.851 121.713 116.15 122.609C114.626 121.713 113.776 120.399 113.607 118.667Z" fill="#924520"/>
<path fill-rule="evenodd" clip-rule="evenodd" d="M120.121 72.756C120.841 78.1199 121.28 82.1582 121.437 84.8711C121.595 87.584 121.387 91.3517 120.83 96.1796C120.273 101.008 119.3 107.37 117.916 115.271L113.928 114.352C114.147 110.336 114.254 106.665 114.249 103.326C114.237 99.9867 114.282 95.892 114.384 91.0302C114.485 86.174 114.074 79.8683 113.174 72.1243L119.547 71.8931L120.121 72.756Z" fill="#924520"/>
<path fill-rule="evenodd" clip-rule="evenodd" d="M118.586 62.2033C119.784 63.3539 120.796 65.4915 121.618 68.6162C122.439 71.7352 123.018 76.208 123.356 82.0286C120.206 84.3975 116.403 84.7133 111.948 82.9649C111.487 77.3868 111.268 71.8028 111.29 66.2247C111.358 63.4836 112.291 61.8424 114.091 61.2953C115.891 60.7482 117.388 61.0527 118.586 62.2033Z" fill="#7E1621"/>
<path fill-rule="evenodd" clip-rule="evenodd" d="M95.6243 38.182C95.6412 38.3117 95.6299 38.4527 95.6074 38.5993C95.5399 39.0393 95.3318 39.3889 94.9662 39.6597C94.6062 39.9304 94.2012 40.0263 93.7568 39.9699C93.3124 39.9135 92.9524 39.7104 92.6824 39.3607C92.4124 39.0111 92.3168 38.6219 92.3899 38.1707C92.4124 38.024 92.4574 37.883 92.5193 37.7533C92.6093 37.5164 92.7724 37.3134 92.9918 37.1498C93.2505 37.1272 93.5205 37.116 93.8018 37.1442C94.353 37.1837 94.8874 37.3134 95.3937 37.5446C95.5343 37.742 95.6074 37.9507 95.6243 38.182Z" fill="#4F2414" stroke="#4F2414" stroke-width="0.2263" stroke-miterlimit="10" stroke-linejoin="bevel"/>
<path fill-rule="evenodd" clip-rule="evenodd" d="M95.0563 46.4618C94.612 46.6141 94.3476 46.7833 94.252 46.975L95.0395 47.7816C95.6188 47.9733 96.2095 48.1031 96.8226 48.1707C96.9801 48.1933 97.2163 48.1369 97.5257 48.0128C97.8745 47.8605 98.1051 47.7816 98.2288 47.7703L98.3132 47.7534C98.2963 47.5108 98.0882 47.2119 97.6832 46.8566C97.2782 46.4956 96.8507 46.3038 96.3951 46.2813C95.9451 46.2531 95.5007 46.3151 95.0563 46.4618Z" fill="#4F2414" stroke="#4F2414" stroke-width="0.2263" stroke-miterlimit="10" stroke-linejoin="bevel"/>
<path fill-rule="evenodd" clip-rule="evenodd" d="M98.2285 47.7701C98.1217 47.7757 97.9135 47.7813 97.6154 47.7983C97.3173 47.8095 97.036 47.8095 96.7773 47.7926C96.5185 47.7757 96.2654 47.7306 96.001 47.6742C95.7479 47.6178 95.4554 47.5388 95.1404 47.4429L94.2517 46.9861L94.2235 47.0368C94.0267 47.2343 94.0435 47.5896 94.2629 48.0972C94.4823 48.6048 95.011 48.9037 95.8492 48.9883C96.6873 49.0729 97.2948 48.9319 97.6829 48.554C98.0598 48.1705 98.2454 47.9111 98.2285 47.7701Z" fill="#7A3319"/>
<path fill-rule="evenodd" clip-rule="evenodd" d="M95.973 35.2773L96.2543 34.9558C96.2655 34.9276 96.2712 34.9051 96.2543 34.8938C96.1755 34.7359 96.0687 34.6005 95.9337 34.4764C95.2924 34.3862 94.6399 34.3072 93.9818 34.2339C93.7005 34.279 93.4249 34.358 93.1549 34.4595C92.823 34.5215 92.4912 34.64 92.1705 34.8148C91.9174 34.9615 91.7037 35.1702 91.5293 35.4409C92.0412 35.1927 92.553 35.0404 93.0762 34.9897C93.4249 34.9276 93.7568 34.9163 94.083 34.9502C94.7355 35.0348 95.3712 35.1419 95.973 35.2773Z" fill="#4F2414"/>
<path fill-rule="evenodd" clip-rule="evenodd" d="M106.874 35.9092C106.768 35.8077 106.649 35.7061 106.514 35.6215C106.216 35.4129 105.901 35.2436 105.564 35.1026C105.17 34.9616 104.765 34.8488 104.354 34.7473C104.158 34.7699 103.966 34.7924 103.769 34.8206C103.269 34.8658 102.768 34.9447 102.268 35.0632C102.161 35.0744 102.065 35.1252 101.992 35.2042C101.947 35.2888 101.908 35.379 101.879 35.4805L102.076 35.7456C102.633 35.6892 103.196 35.6103 103.764 35.5087C104.596 35.4016 105.401 35.4693 106.183 35.7174C106.334 35.7625 106.481 35.8189 106.633 35.881C106.711 35.881 106.796 35.8923 106.874 35.9092Z" fill="#4F2414"/>
<path fill-rule="evenodd" clip-rule="evenodd" d="M93.8019 37.1386C93.515 37.1161 93.2507 37.1217 92.9919 37.1443C92.0807 37.2345 91.2875 37.618 90.6182 38.2779C90.6575 38.2554 90.6969 38.2385 90.7419 38.2103H90.7588L90.8882 38.1369C91.3663 37.917 91.9119 37.776 92.5194 37.7478C93.1213 37.7083 93.785 37.7534 94.5107 37.9C94.8988 37.9734 95.2757 38.0693 95.6244 38.1764C96.3219 38.3795 96.9294 38.6389 97.4582 38.966C96.8169 38.3061 96.125 37.8267 95.3938 37.5334C94.8932 37.3078 94.3588 37.1781 93.8019 37.1386Z" fill="#4F2414" stroke="#4F2414" stroke-width="0.2263" stroke-miterlimit="10" stroke-linejoin="bevel"/>
<path fill-rule="evenodd" clip-rule="evenodd" d="M108.151 40.3592C107.043 39.2424 105.823 38.6333 104.489 38.5317C103.224 38.4302 102.161 38.8081 101.306 39.6654C101.345 39.6372 101.379 39.6147 101.413 39.6034C101.463 39.5695 101.514 39.547 101.564 39.5357C101.953 39.3552 102.391 39.2537 102.858 39.1916C102.695 39.4003 102.583 39.6485 102.538 39.9305C102.47 40.3704 102.566 40.7652 102.836 41.1149C103.1 41.4646 103.454 41.6677 103.904 41.7241C104.354 41.7861 104.754 41.6789 105.119 41.4139C105.479 41.1488 105.693 40.7934 105.761 40.3535C105.817 40.0038 105.761 39.6823 105.603 39.3891C106.593 39.6203 107.448 39.9361 108.151 40.3592Z" fill="#4F2414" stroke="#4F2414" stroke-width="0.2263" stroke-miterlimit="10" stroke-linejoin="bevel"/>
<path d="M95.6017 44.2957C95.6017 44.2957 95.163 44.4142 95.0111 44.1322C94.7805 43.7092 95.1798 43.0548 95.4273 42.9082C94.488 44.2675 95.6017 44.2957 95.6017 44.2957Z" fill="#4F2414" stroke="#4F2414" stroke-width="0.2263" stroke-miterlimit="10" stroke-linejoin="bevel"/>
<path d="M96.2487 43.9348C96.3274 43.9179 96.4174 43.9179 96.4568 43.9235C96.5299 43.9292 96.5974 43.9461 96.6649 43.9799C96.693 43.9912 96.7212 44.0138 96.738 44.0363C96.7549 44.0645 96.7549 44.0984 96.7324 44.1266C96.7212 44.1435 96.7043 44.1491 96.6818 44.1491C96.5974 44.1604 96.5243 44.0927 96.4399 44.0702C96.243 44.0194 95.8887 44.1209 95.8887 44.1209C95.8887 44.1209 96.0293 43.9856 96.2487 43.9348Z" fill="#4F2414" stroke="#4F2414" stroke-width="0.2263" stroke-miterlimit="10" stroke-linejoin="bevel"/>
<path d="M98.4087 44.7131C98.4087 44.7131 98.7912 44.9557 99.0274 44.7301C99.3762 44.3917 99.1962 43.6528 98.9993 43.4385C99.4831 45.0234 98.4087 44.7131 98.4087 44.7131Z" fill="#4F2414" stroke="#4F2414" stroke-width="0.2263" stroke-miterlimit="10" stroke-linejoin="bevel"/>
<path d="M97.9023 44.183C97.8348 44.1436 97.7448 44.1154 97.7054 44.1041C97.6323 44.0872 97.5592 44.0872 97.4917 44.0984C97.4579 44.1041 97.4298 44.1097 97.4073 44.1323C97.3848 44.1492 97.3679 44.1887 97.3848 44.2169C97.396 44.2338 97.4073 44.2451 97.4242 44.2507C97.5029 44.2846 97.5929 44.2451 97.6829 44.2451C97.8854 44.2564 98.1948 44.4594 98.1948 44.4594C98.1948 44.4594 98.0935 44.3015 97.9023 44.183Z" fill="#4F2414" stroke="#4F2414" stroke-width="0.2263" stroke-miterlimit="10" stroke-linejoin="bevel"/>
<path opacity="0.33" d="M99.5283 55.5367C100.091 55.4634 100.648 55.3675 101.205 55.2659C101.761 55.1644 102.313 55.046 102.858 54.8993C103.41 54.7696 103.944 54.5891 104.461 54.3748C104.973 54.1548 105.491 53.8954 105.879 53.478C105.53 53.9349 105.024 54.2394 104.506 54.4876C103.989 54.7301 103.443 54.9106 102.892 55.0573C101.795 55.328 100.665 55.5028 99.5283 55.5367Z" fill="#4F2414"/>
<path opacity="0.54" d="M114.209 103.816H114.17V98.1141H108.725V92.6714H97.3288V98.3003H92.0132V103.636H86.9957C86.9901 103.698 86.9788 103.754 86.9507 103.805V109.958L92.5251 109.755V112.677C94.2857 113.207 96.1757 113.512 97.9869 113.816C100.186 114.07 102.386 114.296 104.596 114.403C105.89 114.465 107.133 114.425 108.421 114.313C109.619 114.205 112.376 114.149 113.602 113.969C113.602 113.969 113.647 113.929 114.024 113.01C114.069 112.057 114.046 111.814 114.086 111.03C114.209 108.661 114.238 106.191 114.209 103.816Z" fill="#F1572B"/>
<path opacity="0.54" d="M97.8913 75.8582V71.1711H93.4138V66.6985H87.5357C87.4907 70.6409 87.0744 74.606 87.6088 78.5316C87.89 80.5959 88.3232 82.5869 88.3963 84.6794C88.4357 85.7171 88.4525 86.7606 88.3794 87.7927C88.3288 88.4695 88.2669 89.1407 88.2107 89.8119H93.6219V85.2603H98.0825V80.7651H101.103V75.8582H97.8913Z" fill="#F1572B"/>
<path opacity="0.54" d="M111.386 73.1114C111.346 71.9213 111.262 70.7369 111.284 69.5468C111.301 68.7346 111.374 67.945 111.481 67.1385C111.582 66.3376 111.504 65.5254 111.627 64.7301C111.83 63.4273 112.595 62.3613 113.776 61.7408C114.378 61.425 115.008 61.2614 115.694 61.284C116.217 61.3009 116.752 61.4194 117.281 61.4363C116.476 60.0883 115.233 59.2084 113.821 58.4414C113.124 58.0635 112.387 57.6743 111.751 57.178V58.9095H107.375V63.2975H103.212V68.4977L107.797 68.3342V73.1114H111.386Z" fill="#F1572B"/>
</svg>
