<?xml version="1.0" encoding="utf-8"?>
<!-- Generator: Adobe Illustrator 23.1.0, SVG Export Plug-In . SVG Version: 6.00 Build 0)  -->
<svg version="1.1" id="Layer_1" xmlns="http://www.w3.org/2000/svg" xmlns:xlink="http://www.w3.org/1999/xlink" x="0px" y="0px"
	 viewBox="0 0 164.7 105.4" style="enable-background:new 0 0 164.7 105.4;" xml:space="preserve">
<style type="text/css">
	.st0{fill:#7D1520;}
	.st1{fill:#FCC89C;}
	.st2{fill:#4F2212;}
	.st3{fill:#FFFFFF;}
	.st4{fill:#E08E17;}
	.st5{fill:#F3AD1C;}
</style>
<path class="st0" d="M116.1,89.8c-1.5,0.5-3,0.7-4.5,0.7c-0.8,0.1-1.5-0.1-2.1-0.5c-0.3-0.2-0.6-0.4-0.8-0.8
	c-0.4-0.9-0.6-1.8-0.4-2.8c-0.7,0.1-1.1-0.1-1.2-0.7c-0.2-0.7-0.3-1.5-0.3-2.3c-0.1-2.2-0.3-4.3-0.5-6.4v-0.1
	c-0.1-0.6-0.2-1.1-0.3-1.7l0,0c-0.2-0.8-0.4-1.5-0.6-2.3c-0.1-0.4-0.2-0.8-0.4-1.1c-0.1-0.2-0.1-0.3-0.2-0.5c-0.1-0.3-0.2-0.7-0.4-1
	l0,0c-0.4-1.2-0.7-2.5-0.9-3.7c-0.3-1.7-0.7-3.5-1-5.2c-0.2-1.2-0.5-2.3-0.9-3.5c0-0.1-0.1-0.3-0.1-0.4c-0.1-0.4-0.3-0.8-0.5-1.2
	c-0.5-1.3-0.9-2.7-1.1-4c-0.1-0.4-0.1-0.7-0.1-1c0.7-0.2,1.3-0.4,1.7-0.4c0.4,0,1.2,0.1,2.6,0.3c0.6,0.1,1.4,0.2,2.2,0.4
	c1.5,0.3,2.7,0.5,3.6,0.7c-0.1,1.1-0.3,2.3-0.5,3.4c-0.1,0.4-0.1,0.8-0.2,1.2c-0.2,1.8-0.2,3.7,0,5.5c0.2,2.2,0.3,4.4,0.1,6.6
	c-0.1,1.5-0.1,3.1,0,4.6c0.1,1.1,0.3,2.2,0.6,3.2c0.2,0.8,0.4,1.6,0.7,2.3c0.3,0.9,0.7,1.9,1,2.8c0.4,1.1,0.9,2.2,1.5,3.2
	C114.1,86.7,115.1,88.2,116.1,89.8z"/>
<path class="st0" d="M27.1,54.7L27.1,54.7c-0.7,0.9-1.3,1.8-1.9,2.7c-1,1.6-2,3.2-3,4.9c-0.8,1.3-1.5,2.6-2.1,4
	c-1,1.9-1.4,3.9-1.4,6s0.2,4.3,0.5,6.4c0.3,1.9,0.9,3.6,2,5.2c0.9,1.4,1.9,2.8,2.8,4.2c-0.2,0.1-0.3,0.1-0.5,0.1
	c-1.7,0.3-3.4,0.6-5.1,0.7c-0.8,0.1-1.6,0-2.3-0.3c-0.8-0.3-1.1-0.9-1-1.8c0-0.4-0.1-0.7-0.3-0.9c-0.6-0.7-1.3-1.2-2.2-1.6
	c0.3-1.4,0.5-2.8,0.7-4.3c0.2-1.6,0.4-3.1,0.5-4.7C14,73.5,14,71.7,14,70c0-1.8-0.2-3.6-0.6-5.4c-0.4-1.7-0.7-3.4-0.8-5.1
	c-0.1-1.9,0.3-3.8,1.3-5.5c1-1.6,1.9-3.2,2.8-4.9c0.8-1.6,1.6-3.2,2.3-4.9c0.7-1.7,1.2-3.4,1.4-5.2c0.2-1.7,0.3-3.5,0.3-5.2
	c0-1.9,0-3.8-0.1-5.8c-0.1-1.8-0.4-3.5-0.8-5.3c-0.4-1.9-0.7-3.8-0.7-5.8c0-1.8,0.2-3.7,0.6-5.5l0.1-0.6L20,10
	c0.6,0.5,1.2,1,1.9,1.4c-1.1,1.2-1.7,2.6-2,4.1c0.1,1.7,0.3,3.4,0.7,5.1c0.2,0.9,0.4,1.8,0.5,2.7c2,5.1,3.4,10.3,4.4,15.5
	C26.6,44.2,27.1,49.4,27.1,54.7L27.1,54.7z"/>
<path class="st1" d="M137.6,33.1c0.1,0,0.3,0.1,0.5,0.3c-0.7,0.2-1.6,0.4-2.6,0.6c-1.2,0.2-2.2,1.1-3.3,2.8
	c-0.4,1.7-1.2,2.6-2.3,2.6c-1-0.3-2.5-0.3-4.3,0.1c-1.5-0.2-3,0.1-4.5,0.8s-2.9,1.6-4.2,2.7c-1.4,1-2.4,2.4-3.2,4
	c-0.9,1.7-1.4,3.6-1.5,5.6c-0.2,0-0.3,0-0.5,0c-0.3,0-0.9-0.1-1.8-0.2c-0.9-0.2-2.1-0.4-3.6-0.7c-0.8-0.1-1.6-0.3-2.2-0.4
	c-1.4-0.2-2.2-0.3-2.6-0.3s-0.9,0.2-1.7,0.4c-0.3,0.1-0.6,0.2-0.9,0.3c-1,0.4-1.8,0.6-2.4,0.7l0,0c-0.1,0-0.2,0-0.3,0
	c-0.4,0-1.5-0.3-3-0.9c0-0.3,0-0.5-0.1-0.8c-0.2-1.2-0.3-2.5-0.5-3.7c0.8-0.8,1.4-1.6,1.8-2.6c-0.2-0.8-0.5-1.6-0.7-2.4
	c-0.5-1.6-1-3.2-1.6-4.7c-0.4-0.9-0.8-1.7-1.4-2.5c-1.9-2.5-4.1-4.3-6.8-5.6c-1.1-0.7-2.3-1.3-3.5-1.8c-0.8,0.5-1.5,1-2,1.7
	c-1.9,2.3-3.7,4.8-5.4,7.4c-1.7,2.6-3.4,5.3-5,8c-1.9,0.9-3.4,2.2-4.4,4.1c-0.5,0.8-0.8,1.6-1,2.6c-0.4,1.6-0.3,3.2,0.2,4.6
	c-1.3,0-2.6,0.1-3.9,0.1c-1.6,0-3.2-0.2-4.8-0.6c-0.6-0.1-1.2-0.3-1.7-0.5l-4.1-4.3l-0.8-0.9c0.2-0.6-0.5-1.5-1.9-2.5
	c-1.4,1.5-2.6,3.2-3.8,4.9c-2.6,3.7-4,7.5-4.4,11.6c-0.3,2.7,0,5.6,0.7,8.5l-0.9,0.7L31.7,73c-1.7-2.7-3.3-5.4-4.9-8.1
	c-0.4-0.6-0.5-1.2-0.5-1.8c0.2-2.7,0.4-5.4,0.4-8.1l0,0l0,0c0-5.3-0.5-10.5-1.4-15.7c-0.5,0.2-1,0.4-1.6,0.6
	c-0.4-3.4-0.9-6.7-1.6-10c-0.4-2-0.9-4.1-1.2-6.1c-0.2-0.9-0.4-1.8-0.5-2.7c-0.4-1.7-0.6-3.4-0.7-5.1c0.3-1.5,1-2.9,2-4.1
	c-0.6-0.5-1.2-0.9-1.9-1.4l0.2,0.4c-0.4,0.7-0.8,1.3-1.1,2c-2,3.9-3,7.9-3.1,12.2c0,2.3,0.1,4.7,0.2,7.2c0.2,2.9-0.2,5.6-1.3,8.1
	c-0.4,1-0.9,2-1.3,3c-0.8,1.8-1.6,3.7-2.2,5.6c-0.7,2.3-1.3,4.6-1.8,6.8c-0.4,1.9-0.8,3.8-1.1,5.7l-0.5,0.6L7,59.4
	c-0.9,2.9-1.5,5.9-1.6,8.9l-1.8-5.6L3,64c-0.2-1.3-0.3-2.6-0.3-3.9c0-1.2,0.1-2.5,0.4-3.8c0.6-2.4,1.6-4.7,3.1-7
	C7,48.2,7.9,47.1,8.9,46s2-2.4,2.8-4s1.4-3.3,1.6-5.2c0.2-1.8,0.4-4.9,0.4-9.1c0-4.3,0.1-7.1,0.2-8.4c0.1-1.3,0.4-2.9,0.8-4.8
	c0.4-1.9,1.1-3.5,1.9-4.6c0.9-1.1,1.9-2.1,3.1-2.8c1.1-0.7,2.4-1.2,3.7-1.5C26,5.1,28.7,5,31.5,5.3c2.8,0,5.5-0.3,8.2-0.9
	c0.7,1,1.4,2,2.2,2.9c1.4,1.8,2.9,3.6,4.5,5.3c0.9,1.1,2,2.1,3.2,2.9c0.5,0.4,1,0.7,1.6,0.9c1.9,0.1,3.9,0.3,5.8,0.7
	c1.9,0.2,3.8,0.5,5.6,0.9c0.8-0.1,1.6-0.3,2.4-0.6c2.8-1,5.5-2.3,8.2-3.8c2.2-1.2,4.4-2.6,6.6-3.9c0.6-0.3,1.1-0.6,1.5-1
	c1.2-1.2,2.1-2.5,2.6-3.9c1.7,0,3.5,0.1,5.2,0.2c1.7,0,3.5,0,5.2,0.1c1.7,0,3.5,0,5.2,0.1h5.2c2.8,0.5,5.5,1.2,8.2,2
	c1.9,0.4,3.9,0.8,5.8,1.3c2.9,1,5.8,1.7,8.6,2.4c2.9,0.3,5.8,0.6,8.6,0.9c0.2,0,0.4,0.1,0.5,0.1l0,0c0.6,0.7,1.3,1.5,1.9,2.2
	c-0.3,1.3-0.7,2.6-1.3,3.7c-0.5,0.8-0.9,1.6-1.3,2.5c-0.2,0.5-0.5,1.1-0.7,1.6c-0.6,1.7-0.9,3.6-0.9,5.5c0,0.8,0.1,1.5,0.2,2.3
	c0.2,0.8,0.5,1.5,0.9,2.2c0.1,0.2,0.2,0.3,0.4,0.5C136.3,32.5,136.9,32.8,137.6,33.1z"/>
<path class="st1" d="M22.1,11.5c-1.1,1.2-1.7,2.6-2,4.1c-0.1-1.7-0.1-3.3,0.1-5c0,0.1-0.1,0.1-0.1,0.2l0.2-0.8
	C20.8,10.6,21.4,11.1,22.1,11.5z"/>
<path class="st1" d="M112.2,55.3c-0.2,0.1-1.2,0.6-2.8,1.5c-0.1,0-0.2,0.1-0.3,0.1c-1.6,0.8-4,1-7.1,0.7c-0.1,0-0.3,0-0.4-0.1
	c-0.1,0-0.2,0-0.2,0c-2.3-0.3-4.6-0.9-6.9-1.6l2.1-2.9c-0.1-0.2-0.1-0.5-0.2-0.7l0,0c0.6-0.1,1.4-0.3,2.4-0.7
	c0.3-0.1,0.6-0.2,0.9-0.3c0.7-0.2,1.3-0.4,1.7-0.4c0.4,0,1.2,0.1,2.6,0.3c0.6,0.1,1.4,0.2,2.2,0.4c1.5,0.3,2.7,0.5,3.6,0.7
	c0.9,0.1,1.5,0.2,1.8,0.2c0.1,0,0.3,0,0.5,0C112.1,53.4,112.1,54.3,112.2,55.3z"/>
<path class="st1" d="M145.8,26.5c-0.1,1.1-0.4,2.2-0.8,3.2c-0.3,0.7-0.8,1.3-1.4,1.7c-1.2,0.7-2.6,1.3-4,1.6
	c-0.4,0.2-0.9,0.3-1.5,0.5c-0.2-0.2-0.3-0.2-0.5-0.3c-0.7-0.4-1.3-0.7-1.8-0.9c-0.1-0.2-0.3-0.3-0.4-0.5c-0.4-0.7-0.7-1.5-0.9-2.2
	s-0.2-1.5-0.2-2.3c0-2,0.3-3.8,0.9-5.5c0.2-0.6,0.5-1.1,0.7-1.6c0.4-0.9,0.8-1.7,1.3-2.5c0.6-1.1,1-2.4,1.3-3.7
	c-0.6-0.7-1.2-1.5-1.9-2.2c1,0.2,1.9,0.5,2.9,0.9c2.8,1.1,4.6,3,5.5,5.7c0.2,0.8,0.4,1.6,0.6,2.4c0.1,0.7,0.2,1.4,0.3,2
	C145.9,24,145.9,25.3,145.8,26.5z"/>
<path class="st2" d="M25.6,39c-0.5,0.2-1,0.4-1.6,0.6c0.2,1.3,0.3,2.6,0.4,3.9c0.1,1.4,0.2,2.8,0.2,4.2c0.1,2.1,0.6,4.1,1.7,5.9
	c0.2,0.3,0.4,0.7,0.7,1C27.1,49.4,26.6,44.2,25.6,39z M48.5,50.2l-0.8-0.9c0.2-0.6-0.5-1.5-1.9-2.5c-1.4,1.5-2.6,3.2-3.8,4.9
	c-2.6,3.7-4,7.5-4.4,11.6c0.1,0.2,0.2,0.4,0.4,0.7l1-0.1l0.6-3.5l2,0.2c0,0.5,0.2,1,0.3,1.5c0.2,0.4,0.4,0.8,0.6,1.2
	c0.2,0.3,0.5,0.6,0.8,0.9c0.1-0.2,0.2-0.3,0.2-0.5c0.2-1,0.2-1.9,0.2-2.9l1.7-0.8c0,0.5,0.1,1.1,0.2,1.7c0.1,0.4,0.3,0.9,0.5,1.3
	c0,0,0.1,0.1,0.2,0.2h0.3c0.1,0.1,0.3,0.1,0.5,0.2c0-0.1,0.1-0.2,0.2-0.3c0.1-0.2,0.1-0.3,0.1-0.4c0.1-0.7,0.2-1.4,0.2-2
	c0.1-0.5,0.1-1,0.2-1.5l4.5-4.5h0.1L48.5,50.2z M78.8,4.8c-1.7,0-3.5,0-5.2,0.1c-1.7,0-3.2,0.1-4.4,0.2c-1.2,0.1-2.9,0.2-4.9,0.4
	c-2,0.1-4.2,0.3-6.4,0.6s-4.6,0.4-7,0.3S46.3,6,44.4,5.5S41,4.7,40,4.5c0.7,1,1.4,2,2.2,2.9c1.4,1.8,2.9,3.6,4.5,5.3
	c0.9,1.1,2,2.1,3.2,2.9c0.5,0.4,1,0.7,1.6,0.9c1.9,0.1,3.9,0.3,5.8,0.7c1.9,0.2,3.8,0.5,5.6,0.9c0.8-0.1,1.6-0.3,2.4-0.6
	c2.8-1,5.5-2.3,8.2-3.8c2.2-1.2,4.4-2.6,6.6-3.9c0.6-0.3,1.1-0.6,1.5-1c1.2-1.2,2.1-2.5,2.6-3.9L78.8,4.8L78.8,4.8z M125.5,39.4
	c-1.5-0.2-3,0.1-4.5,0.8s-2.9,1.6-4.2,2.7c-1.4,1-2.4,2.4-3.2,4c-0.9,1.7-1.4,3.6-1.5,5.6c0,0.9,0,1.8,0.1,2.8
	c0.6,0.3,1.5,0,2.7-0.6c0.8-0.7,1.5-1.5,2-2.3c0.3-0.4,0.5-0.9,0.8-1.3c0.7-1.4,1.9-2.1,3.6-2.2c1.8-0.1,2.8-0.9,3.1-2.3
	c0.3-1.4,0.7-2.4,1.1-3c1.9-1.3,2.8-2.2,3-2.9c0.1-0.7,0.6-1.1,1.4-1.3C128.8,39,127.4,39,125.5,39.4z M96.5,52.3
	c-0.1,0-0.2,0-0.3,0c-0.4,0-1.5-0.3-3-0.9c0-0.3,0-0.5-0.1-0.8c-0.2-1.2-0.3-2.5-0.5-3.7c0.8-0.8,1.4-1.6,1.8-2.6
	c-0.2-0.8-0.5-1.6-0.7-2.4c-0.5-1.6-1-3.2-1.6-4.7c-0.4-0.9-0.8-1.7-1.4-2.5c-1.9-2.5-4.1-4.3-6.8-5.6c-1.1-0.7-2.3-1.3-3.5-1.8
	c-0.8,0.5-1.5,1-2,1.7c-1.9,2.3-3.7,4.8-5.4,7.4c-1.7,2.6-3.4,5.3-5,8c-1.9,0.9-3.4,2.2-4.4,4.1c-0.5,0.8-0.8,1.6-1,2.6
	c-0.4,1.6-0.3,3.2,0.2,4.6c2-0.3,4.1-0.5,6.1-0.8c1.4-0.3,2.8-0.6,4.2-0.9l0,0c1.3-0.3,2.7-0.5,4-0.8c1.9-0.2,3.8-0.3,5.8-0.2l0,0
	c0.5,0,1.1,0.1,1.7,0.1c0.7,0.1,1.4,0.2,2.2,0.4c1.8,0.4,3.5,0.9,5.2,1.5c0.3,0.1,0.6,0.2,0.9,0.4c0.5,0.2,1,0.4,1.4,0.6l2.1-2.9
	C96.6,52.7,96.5,52.5,96.5,52.3z"/>
<path class="st3" d="M99.9,93.5c0,0.1,0,0.1,0,0.2c-0.8,0.1-1.6,0.1-2.4,0c0-0.3,0-0.7,0-1.2c0-2.2,0.2-3.8,0.5-4.9
	c0.1-0.2,0.1-0.5,0.2-0.7c0.4,0.8,0.8,1.6,1.1,2.4c0.2,0.4,0.3,0.7,0.5,1l0,0c0,0.3,0,0.6,0,0.8C99.9,92.1,99.9,92.9,99.9,93.5z"/>
<path class="st1" d="M99.9,90.4c0.3,0.6,0.8,1.2,1.2,1.7c0,0.1-0.1,0.1-0.1,0.2s-0.1,0.1-0.2,0.2c0,0-0.1,0.1-0.2,0.1s-0.2,0-0.2,0
	h-0.3l0.4,1c-0.2,0-0.4,0.1-0.5,0.2c0,0,0,0-0.1,0c0-0.1,0-0.1,0-0.2c0-0.6,0-1.4,0-2.3C99.9,90.9,99.9,90.7,99.9,90.4z"/>
<path class="st2" d="M101.4,50.8c-0.4,0-1,0.2-1.7,0.4c-0.3,0.1-0.6,0.2-0.9,0.3c-1,0.4-1.8,0.6-2.4,0.7c-0.1,0-0.2,0-0.3,0
	c-0.4,0-1.4-0.3-3-0.9c0.1,0.5,0.1,1.1,0.1,1.6L93,55.2l-0.8,8.2v0.4c0,1.9,0,3.9,0.1,5.8c0,0.7,0,1.3,0,1.9c0,0.9,0,1.8-0.1,2.8
	c0,0,0.1,0.1,0.1,0.1c-0.1,0.6-0.1,1.2-0.2,1.8c-0.3,2.9-0.7,5.8-1.2,8.7c-0.2,0.9-0.5,1.6-1.2,2.1c1,0.4,1.7,1,1.9,2
	c0.2,0.7,0.1,1.3-0.1,1.9c-0.3,0.9,0,1.5,0.9,1.8c0.2,0.1,0.5,0.2,0.8,0.3c0,0,0-0.1,0.1-0.1c1.4,0.4,2.8,0.6,4.1,0.7
	c0-0.4,0-0.8,0-1.2c0-2.2,0.2-3.8,0.5-4.9c0.1-0.3,0.1-0.5,0.2-0.7c-0.5-0.9-0.9-1.7-1.3-2.6c0.1-0.6,0.1-1.3,0-2
	c-0.2-1.6-0.3-3.2-0.2-4.8c0-0.4,0-0.9,0.1-1.3c0.1-0.2,0.1-0.3,0.1-0.5c0.2-1.8,0.6-3.6,1.1-5.4c0.5-1.6,0.9-3.3,1.4-4.9
	c0.1-0.3,0.2-0.7,0.3-1c0.3-1.2,0.7-2.5,1-3.7c0.3-0.9,0.5-1.8,0.8-2.7c0-0.2,0.1-0.3,0.1-0.4c0.1-0.2,0.2-0.5,0.2-0.7
	c0.4-1.6,0.9-3.2,1.7-4.6c0.2-0.3,0.4-0.7,0.6-1C102.7,51,101.8,50.8,101.4,50.8z M94.6,86c0,0.8,0,1.5-0.1,2.1
	C94.6,87.4,94.6,86.8,94.6,86z"/>
<path class="st1" d="M21.2,23.5c-0.1-0.2-0.2-0.5-0.3-0.7c-1-2.7-1.4-5-0.9-7.2c0.1,1.7,0.3,3.4,0.7,5.1
	C20.9,21.7,21,22.6,21.2,23.5z"/>
<path class="st1" d="M27.1,54.7L27.1,54.7L27.1,54.7L27.1,54.7z"/>
<path class="st2" d="M47.4,91.2l0.1,1.4l-7.6-0.8c-0.3-0.5-0.4-1-0.5-1.5c-0.3-0.9-0.8-1.5-1.7-2c-0.2-0.1-0.3-0.2-0.6-0.2
	C37,88,36.9,88,36.8,87.9c-0.1-0.2-0.1-0.4-0.1-0.5c0.8-5.3-0.7-10.2-4.6-14.8l5.5-0.2l0.9-0.7c2.6,6.7,5.9,13.2,9.9,19.4L47.4,91.2
	L47.4,91.2z"/>
<path class="st1" d="M162.1,34.4c-0.1-0.4-0.2-0.8-0.4-1.1c-0.6-1.3-1.2-2.5-1.8-3.6c-0.5-0.8-1.1-1.5-1.6-2.3
	c-0.4-0.7-0.8-1.3-1-1.9c-0.4-0.7-0.7-1.5-0.9-2.2c-0.2-0.6-0.3-1.2-0.5-1.8c0-0.8,0-1.5,0-2.3c-0.1-1-0.3-1.9-0.7-2.7
	c-0.2-0.4-0.4-0.7-0.5-1.1c0-0.5,0.3-1.2,0.9-2.1c0.4-0.6,0.7-1.3,1-2.1c0.3-1,0.3-2.1,0.2-3.3c-0.1-0.3-0.2-0.5-0.2-0.8l-1-1
	c-0.7,0.4-1.3,1-1.9,1.8c-0.2,0.2-0.4,0.4-0.7,0.6c-0.4,0.2-0.7,0.5-1.1,0.7l-0.6-1.3c-0.6,0.4-1,0.2-1.1-0.6
	c-0.1-0.2-0.1-0.3-0.2-0.4c-0.1-0.1-0.1-0.1-0.2-0.2c-0.6,0.2-0.9,0.1-1-0.5s-0.3-1.2-0.6-1.8c-0.1-0.1-0.1-0.1-0.2-0.2
	c-0.7-0.2-1.3-0.1-1.7,0.5c-0.2-0.1-0.5-0.2-0.8-0.3l-0.3,0.9c-0.1-0.2-0.2-0.4-0.4-0.5c-0.1-0.1-0.2-0.1-0.2-0.1l-1.8,1.2
	c-0.1-0.2-0.2-0.3-0.3-0.3c-0.2-0.2-0.3-0.3-0.5-0.3c-1,0.4-1.6,1.1-1.8,2.2c-0.4-0.1-0.8-0.1-1.2-0.2c-1.1-0.5-2.2-1-3-1.5
	c-0.5-0.3-0.9-0.4-1.4-0.2c-0.2,0.4-0.2,0.7-0.1,1.1c0,0,0,0,0.1,0c0,0.2,0.1,0.3,0.2,0.4c-0.1,0.1-0.2,0.3-0.3,0.5
	c-0.1,0.1-0.1,0.2-0.1,0.4c0.6,1.3,1.3,2.5,2.1,3.5c0.1,0.1,0.2,0.2,0.3,0.3l0,0c0.6,0.7,1.3,1.5,1.9,2.2c-0.3,1.3-0.7,2.6-1.3,3.7
	c-0.5,0.8-0.9,1.6-1.3,2.5c-0.2,0.5-0.5,1.1-0.7,1.6c-0.6,1.7-0.9,3.6-0.9,5.5c0,0.8,0.1,1.5,0.2,2.3c0.2,0.8,0.5,1.5,0.9,2.2
	c0.1,0.2,0.2,0.3,0.4,0.5c0.5,0.2,1.1,0.5,1.8,0.9c0.1,0,0.3,0.1,0.5,0.3l0.1,0.1c0.8,0.8,1.8,1.4,2.7,1.8c0.9,0.4,2,0.7,3.2,0.9
	c1.1,0.1,2.2,0.3,3.3,0.5c0.8,0.3,1.7,0.5,2.5,0.9c0.7,0.2,1.4,0.3,2,0.5c0.1,0.1,0.3,0.1,0.5,0.2l-0.9-1.8c0.3,0.2,0.5,0.6,0.8,0.9
	c0.2,0.5,0.5,1,0.7,1.5c0.4,0.7,0.8,1.2,1.5,1.4c0.2,0,0.4,0,0.6,0l5.6-0.7c0.6,0.2,1,0.2,1.3-0.2c0.2-0.2,0.3-0.3,0.5-0.4
	C162.5,37.4,162.4,35.9,162.1,34.4z M145,12c0,0.1,0.1,0.2,0.2,0.3c0,0.1-0.1,0.3-0.2,0.5C144.9,12.5,145,12.2,145,12z M141.6,8.7
	c0.2,0.1,0.4,0.2,0.6,0.4c0.1,0.1,0.2,0.1,0.3,0.2c0.1,0.1,0.2,0.2,0.3,0.2c-0.1,0-0.2-0.1-0.2-0.2c-0.6-0.5-1.3-0.9-2.1-1.2
	C140.9,8.2,141.3,8.4,141.6,8.7z M139.9,9.3c0.4,0.3,0.8,0.6,1.1,0.9c0.1,0.1,0.3,0.3,0.6,0.5c0.2,0.2,0.3,0.5,0.4,1
	c0.2,0.5,0.3,1,0.3,1.5c0,0.1,0,0.2-0.1,0.3c-0.2-0.4-0.4-0.8-0.6-1.2c-0.2-0.5-0.5-0.9-0.7-1.3c-0.3-0.4-0.7-0.7-1.1-1
	c-0.9-0.9-1.8-1.7-2.8-2.4L139.9,9.3z M148.7,22.7c0,0.1-0.1,0.2-0.2,0.4l-2.5-0.2l-0.6-0.6c-0.1-0.2-0.2-0.4-0.2-0.6
	c-0.1-0.3-0.1-0.7-0.1-1h1.6c0.6-0.1,1.1,0.1,1.6,0.7c0,0.1,0.1,0.2,0.2,0.3C148.7,22.1,148.7,22.4,148.7,22.7z M158.8,37.5
	c-0.4,0.1-0.7,0.2-0.9,0.2l0.2-0.3c-0.3-0.2-0.5-0.5-0.8-0.7s-0.6-0.5-0.9-0.7l0.8-0.7c0.3,0,0.6,0.2,0.9,0.3
	c0.3,0.2,0.5,0.5,0.8,0.9L158.8,37.5z"/>
<path d="M152.4,38.3l-0.9-1.8c0.3,0.3,0.5,0.6,0.8,0.9c0.2,0.5,0.5,1,0.7,1.5L152.4,38.3z M159,40.9c-0.7,0.1-1.5,0.1-2.2,0.2
	c-0.6-0.3-1.2-0.5-1.7-0.8l5.6-0.7L159,40.9z M142,11.6c0.2,0.4,0.3,0.9,0.3,1.5c0,0.1,0,0.2-0.1,0.3c-0.2-0.4-0.4-0.8-0.6-1.2
	c-0.2-0.5-0.5-0.9-0.7-1.3c-0.3-0.4-0.7-0.7-1.1-1C138.9,9,138,8.2,137,7.5l2.9,1.8c0.4,0.3,0.8,0.6,1.1,0.9
	c0.1,0.1,0.3,0.3,0.6,0.5C141.8,10.9,141.9,11.2,142,11.6z M142.5,9.3c-0.6-0.5-1.3-0.9-2.1-1.2c0.4,0.1,0.8,0.3,1.1,0.6
	c0.5,0.3,1,0.6,1.4,1C142.9,9.6,142.7,9.4,142.5,9.3z M144.9,12.8c0-0.3,0-0.5,0-0.7c0,0.1,0.1,0.2,0.2,0.3
	C145.1,12.4,145.1,12.6,144.9,12.8z M145.1,20.7c0.5,0,1,0,1.6,0c0.6-0.1,1.1,0.1,1.6,0.7c0,0.1,0.1,0.2,0.2,0.3
	c0.1,0.3,0.1,0.6,0.1,1c0,0.1-0.1,0.2-0.2,0.4l-2.5-0.2l-0.6-0.6c-0.1-0.2-0.2-0.4-0.2-0.6C145.2,21.4,145.1,21.1,145.1,20.7z
	 M158.9,36.4l-0.1,1c-0.4,0.1-0.7,0.2-0.9,0.2l0.2-0.3c-0.3-0.2-0.5-0.5-0.8-0.7s-0.6-0.5-0.9-0.7l0.8-0.7c0.3,0,0.6,0.2,0.9,0.3
	C158.4,35.8,158.6,36.1,158.9,36.4z"/>
<path class="st4" d="M133.6,82c-0.1,0.6-0.3,1.5-0.8,2.7c-0.8,2.1-1.3,3.6-1.6,4.5s-0.5,2.3-0.7,4.3s-0.3,2.9-0.5,2.6
	c-0.8,0.6-1.2,1.2-1.4,1.6s-0.2,0.9-0.4,1.4c-0.2,0.4-0.3,0.8-0.6,1.1c-0.4,0.4-0.9,0.7-1.4,0.9c-0.5,0.2-1,0.3-1.8,0.3h-1
	c-0.1,0-0.2-0.1-0.1-0.3c0.1-0.2,0.1-0.3,0.1-0.4c-0.3,0-0.5-0.1-0.6-0.3c0.2-0.5,0.4-1,0.6-1.3c0.3-0.6,0.5-1,0.7-1.2
	c0.5-0.6,0.8-1.1,0.9-1.5l0.1-0.5c0,0,0-0.1,0-0.2c0-0.2,0.2-0.5,0.5-1c0.2-0.4,0.5-0.8,0.9-1.3c0.2-0.4,0.4-0.9,0.6-1.4
	c0.1-0.5,0.3-1.1,0.4-1.6s0.1-1.4,0-2.6s-0.2-2.1-0.2-2.8c0-0.7-0.2-1.7-0.3-3.2c-0.2-1.4-0.5-2.8-1-4c-0.1-0.3-0.2-0.6-0.3-0.9
	c1.2-0.7,2.4-1.6,3.7-2.7c0.4,0.6,0.8,1.2,1.1,1.8c0.5,0.8,1,1.9,1.8,3.3C132.8,80.1,133.2,81,133.6,82z"/>
<path class="st4" d="M98.8,84.8L98.8,84.8c-0.1,0.6-0.3,1.4-0.5,2.2c-0.1,0.2-0.1,0.4-0.2,0.7c-0.3,1.1-0.5,2.7-0.5,4.9
	c0,0.4,0,0.8,0,1.2c0,1.4-0.1,1.9-0.2,1.8c-0.9,0.7-1.4,1.3-1.4,1.8s-0.1,1-0.2,1.5s-0.3,1-0.6,1.4s-0.9,0.7-1.7,0.7
	c-0.8,0.1-1.6,0.1-2.3,0c0-0.2-0.2-0.4-0.4-0.5c0.2-0.6,0.4-1.1,0.7-1.6s0.5-0.9,0.7-1.4c0.3-0.5,0.5-1,0.8-1.5l-0.2-0.6
	c0,0-0.1,0,0-0.2c0-0.2,0.2-0.6,0.4-1.2c0.1-0.2,0.2-0.5,0.4-0.8c0.1-0.2,0.3-0.5,0.5-0.7c0.1-0.4,0.3-0.8,0.4-1.4s0.2-1.4,0.4-2.3
	c0.1-1,0.2-2.2,0.1-3.7c-0.3-0.6-0.5-1.2-0.5-2s0.1-1.7,0.2-2.8c0-1.6-0.1-2.8-0.1-3.8c0.6,0.3,1.1,0.6,1.7,0.6
	c0.2,0.2,0.5,0.4,0.8,0.6c0.4,0.2,0.8,0.4,1.2,0.5c0,0.1,0,0.2,0.1,0.4c0.1,1,0.3,2.4,0.6,4.3C98.7,83.5,98.7,84.2,98.8,84.8z"/>
<path class="st5" d="M87,55l-1.8,2.3v0.3c0,0.6-0.1,1.2-0.1,1.8C85,60,84.7,60.6,84.3,61c-0.2,0.2-0.4,0.4-0.6,0.6
	c-0.8-0.2-1.5-0.3-2.4-0.3l1.8-8.4l0,0l0.7-3.3l0.4-2l0,0v-0.1l2,0.9l-0.1,0.1c0.2,0.1,0.3,0.2,0.5,0.4c0.1,0.8,0.2,1.5,0.2,2.2
	s0,1.3,0.1,2C87,53.7,87,54.3,87,55z"/>
<path class="st5" d="M139.9,91.9c-0.1,1-0.1,2.5,0.2,4.7c0.2,2.2,0.3,3.2,0.1,2.9c-0.7,0.7-1,1.3-1,1.8s-0.1,1-0.1,1.5
	s-0.2,0.9-0.4,1.2c-0.3,0.5-0.7,0.8-1.2,1c-0.4,0.2-1,0.3-1.7,0.3h-1c-0.1,0-0.2-0.1-0.2-0.3c0-0.2,0.1-0.4,0.1-0.4
	c-0.3,0-0.5-0.1-0.6-0.3c0.1-0.6,0.2-1.1,0.3-1.4c0.1-0.7,0.3-1.1,0.4-1.4c0.3-0.6,0.5-1.2,0.5-1.7v-0.5c0,0,0-0.1,0-0.2
	c0-0.2,0.1-0.6,0.2-1.2c0.1-0.4,0.3-0.9,0.6-1.4c0.1-0.4,0.2-0.9,0.3-1.5c0-0.6,0.1-1.2,0.1-1.8c0-0.6-0.2-1.6-0.6-2.9
	c-0.4-1.3-0.7-2.3-0.8-3.1c-0.2-0.7-0.5-1.9-1-3.5c-0.2-0.6-0.4-1.1-0.6-1.7c-0.4-1-0.8-1.9-1.2-2.8c-0.7-1.4-1.3-2.5-1.8-3.3
	c-0.4-0.6-0.7-1.2-1.1-1.8c-1.3,1.1-2.5,2-3.7,2.7c-2.4,1.4-4.5,2.1-6.2,1.9c-2.8-0.3-5.2-0.7-7.2-1.3c-1-0.3-1.8-0.5-2.4-0.6
	c-0.5-0.1-0.9-0.2-1.2-0.2c-0.7,0-1.5,0.1-2.5,0.3c-0.3,0.1-0.6,0.1-0.9,0.2c-0.1,0.6-0.3,1.2-0.4,2l-0.4,5.4c0,0.7-0.1,1.4-0.2,1.9
	c-0.2,0.5-0.4,0.8-0.5,1c0,0.8-0.2,1.8-0.3,2.8c-0.2,1.1-0.1,2.7,0.1,4.9c0.2,2.2,0.3,3.2,0.1,2.9c-0.7,0.7-1,1.3-1,1.8
	s-0.1,1-0.1,1.5s-0.2,0.9-0.4,1.2c-0.3,0.5-0.7,0.8-1.2,1c-0.4,0.2-1,0.3-1.7,0.4h-1c-0.1,0-0.2-0.1-0.2-0.3c0-0.2,0.1-0.4,0.1-0.4
	c-0.3,0-0.5-0.1-0.6-0.3c0.1-0.6,0.2-1.1,0.3-1.4c0.1-0.7,0.3-1.1,0.4-1.4c0.3-0.6,0.5-1.2,0.5-1.7v-0.5c0,0,0-0.1,0-0.2
	c0-0.2,0.1-0.6,0.3-1.2c0.1-0.4,0.3-0.9,0.6-1.4c0.1-0.4,0.2-0.8,0.2-1.3c0-0.1,0-0.1,0-0.2c0-0.6,0-1.4,0-2.3c0-0.2,0-0.5,0-0.8
	l0,0c0-0.8-0.2-1.8-0.3-2.8c-0.4-0.6-0.7-1.2-0.8-2c0-0.2,0-0.4-0.1-0.7c0-0.6-0.1-1.3-0.1-2.1c-0.3-1.9-0.5-3.3-0.6-4.3
	c0-0.1,0-0.2-0.1-0.4c-0.4-0.1-0.8-0.3-1.2-0.5c-0.3-0.2-0.5-0.4-0.8-0.6c-0.6-0.1-1.2-0.3-1.7-0.6c-0.7-0.4-1.4-1.1-2-1.9
	c-0.7-0.9-1.3-2.1-1.9-3.5c-0.4-2.2-0.9-3.5-1.5-4c-0.5-0.4-1.2-1.6-2.1-3.6c-0.9-0.8-2-1.3-3.1-1.6c0.2-0.2,0.4-0.4,0.6-0.6
	c0.4-0.5,0.6-1,0.8-1.6c0.1-0.6,0.1-1.2,0.1-1.8v-0.3L87,55c0-0.7,0-1.3-0.1-1.9c0-0.6-0.1-1.3-0.1-2s-0.1-1.4-0.2-2.2
	c-0.2-0.1-0.3-0.2-0.5-0.4c0,0,0.1,0,0.1-0.1l0,0l3.3,1.5c1.4,0.6,2.6,1.1,3.6,1.4c1.6,0.6,2.6,0.9,3,0.9c0.1,0,0.2,0,0.3,0l0,0
	c0.6-0.1,1.4-0.3,2.4-0.7c0.3-0.1,0.6-0.2,0.9-0.3c0.7-0.2,1.3-0.4,1.7-0.4c0.4,0,1.2,0.1,2.6,0.3c0.6,0.1,1.4,0.2,2.2,0.4
	c1.5,0.3,2.7,0.5,3.6,0.7c0.9,0.1,1.5,0.2,1.8,0.2c0.1,0,0.3,0,0.5,0c0.9,0,2.4-0.1,4.8-0.2c4.2-0.2,10.8-0.7,19.8-1.5
	c0.8,0.1,1.4,0.4,2,0.8c-0.1,0-0.1,0-0.2,0c-1.2-0.1-2.3,0-3.2,0.3l0.4,1.7c0.8-0.2,1.4-0.2,2-0.2c0,0,0.1,0,0.2,0
	c0.1,0,0.2,0,0.2,0c1,0.2,1.7,0.8,2,1.9l0,0c0.1,0.3,0.2,0.7,0.2,1c0.4,4,0.1,8.1-0.9,12.1s-1.2,7.7-0.6,11c0.7,1.9,1.2,3,1.6,3.3
	c0.4,0.3,0.5,1.7,0.2,4.1C140.2,89.3,140,90.9,139.9,91.9z"/>
<path class="st5" d="M140.1,55.3c-0.3-1.1-1-1.8-2-1.9c-0.1,0-0.1,0-0.2,0c0,0-0.1,0-0.2,0c-0.6,0-1.2,0-2,0.2l-0.4-1.7
	c0.9-0.3,2-0.4,3.2-0.3c0.1,0,0.1,0,0.2,0l0,0c0.7,0.5,1.1,1.1,1.3,2.1c0,0.2,0.1,0.5,0.1,0.8l0,0C140.1,54.7,140.1,55,140.1,55.3z"
	/>
<path class="st5" d="M147.5,84.7l0.2,0.4c-0.4-0.6-0.7-1.2-1-1.6c-0.4-0.8-0.7-1.4-0.8-1.8c-0.2-0.8-0.4-1.3-0.5-1.5h-0.1
	c0,0.2,0,0.4-0.1,0.8c0,0.1-0.1,0.2-0.1,0.3c-0.1-0.3-0.2-0.9-0.3-1.6c-0.2-0.9-0.3-1.5-0.4-1.8c-0.1,0.1-0.1,0.3-0.1,0.5
	s0,0.3,0,0.3s0,0.2-0.1,0.6c-0.1,0.3-0.1,0.3-0.2,0.1c-0.1-0.3-0.2-1.2-0.4-2.6c-0.2-1.5-0.3-2.4-0.3-2.6c0-0.6-0.1-1.1-0.3-1.7
	c-0.2-0.5-0.6-1.5-1.3-2.8c-0.7-1.4-1-3-1-4.8c0.1-2.5,0.2-4,0.2-4.5c0-0.2,0-0.3,0.1-0.4c0-0.1,0-0.2,0-0.4l-0.2-2
	c-0.1-0.8-0.2-1.5-0.5-2c-0.2-0.4-0.3-0.7-0.5-0.9l0,0c-0.1-0.1-0.2-0.2-0.3-0.3c-0.3-0.3-0.5-0.5-0.8-0.6c-0.2-0.1-0.5-0.1-0.9-0.2
	c-0.1,0-0.1,0-0.2,0c0,0-0.1,0-0.2,0c-0.6,0-1.2,0-2,0.2l-0.4-1.7c0.9-0.3,2-0.4,3.2-0.3c0.1,0,0.1,0,0.2,0l0,0
	c1.2,0.1,2.1,1.1,2.8,2.8c0.4,0.9,0.6,1.9,0.6,3c0.1,1,0,2.5-0.2,4.3c-0.4,3.6,0.1,6.2,1.4,7.9c1.3,1.7,2.3,3.4,3,5.3s1.1,3,1.1,3.5
	c0,0.4-0.2,0.4-0.6-0.1c0.5,1.5,0.8,2.6,0.7,3.3c0,0.5-0.1,0.8-0.2,1.1c0,0-0.1-0.2-0.3-0.6C147.8,84.3,147.9,85.2,147.5,84.7z"/>
<path class="st5" d="M138.1,53.4c-0.1,0-0.1,0-0.2,0H138.1L138.1,53.4C138,53.4,138,53.4,138.1,53.4z"/>
<path d="M74.2,63L74.2,63L74.2,63c0.2-0.4,0.4-0.8,0.4-1.1L74.3,62c0,0.1-0.1,0.2-0.1,0.3c-0.1,0.4-0.3,0.8-0.5,1.2L74.2,63z
	 M70.5,62.8c-0.6-0.4-1.1-0.6-1.8-0.6c0.4,0.5,0.9,0.9,1.5,1.3c0.5,0.2,1,0.3,1.5,0.1C71.3,63.3,70.9,63.1,70.5,62.8z M71.3,60.3
	h-0.7l-0.2,0.1c-0.1,0.3-0.2,0.6-0.4,0.8c0.2,0.1,0.3,0.3,0.4,0.4v-0.2c0.1-0.1,0.2-0.2,0.4-0.2c0.1,0,0.2-0.1,0.4-0.1
	c0.1,0,0.2-0.1,0.2-0.2c0,0,0.1-0.1,0.1-0.2c0,0,0-0.1-0.1-0.1c0,0,0-0.1-0.1-0.1C71.4,60.4,71.3,60.3,71.3,60.3z"/>
<path class="st5" d="M86.9,53.1c0-0.6-0.1-1.3-0.1-2s-0.1-1.4-0.2-2.2c-0.2-0.1-0.3-0.2-0.5-0.4c-0.5-0.3-1-0.6-1.6-0.8
	c-0.1,0-0.2-0.1-0.3-0.1l0,0c-0.3-0.1-0.7-0.2-1-0.3c-0.1,0-0.2-0.1-0.3-0.1c-0.2-0.1-0.3-0.1-0.5-0.2c-0.1,0-0.1-0.1-0.2-0.1
	s-0.1,0-0.2,0c-0.1-0.1-0.2-0.3-0.3-0.4c0,0,0-0.1-0.1-0.1c-0.4-0.1-0.7,0-0.9,0.2c-0.1-0.2-0.3-0.4-0.6-0.4
	c-0.2,0.1-0.5,0.2-0.7,0.3c-0.2-0.1-0.4-0.2-0.6-0.2c-0.5,0.3-1,0.7-1.3,1.2c-0.3,0.6-0.7,1.2-1.2,1.8c-0.1,0.2-0.3,0.3-0.4,0.5
	c-0.3,0.3-0.7,0.7-1,1s-0.6,0.7-0.9,1.1c-0.3,0.7-0.5,1.3-0.7,2s-0.6,1.2-1,1.7c-0.5,0.4-0.9,0.8-1.3,1.3c-0.3,0.3-0.7,0.6-1,0.8
	c0,0-0.1,0.1-0.1,0.2c-0.5,0.4-1,0.9-1.3,1.5c-0.2,0.3-0.3,0.7-0.3,1c-0.1,0.3-0.1,0.6,0,0.9c0.1,0.2,0.2,0.5,0.2,0.8
	c0,0.1,0,0.2,0.1,0.2s0.2,0,0.2-0.1c0.6,0,1.2,0.3,1.8,0.6c0.4,0.2,0.8,0.5,1.3,0.7c0.5,0.3,1.1,0.3,1.6,0.1
	c0.1-0.1,0.2-0.1,0.4-0.1c0.2-0.4,0.3-0.8,0.5-1.2c0-0.1,0-0.2,0.1-0.3l0.3-0.1c0,0.4-0.2,0.8-0.4,1.2c1.2,0,2-0.1,2.1,0
	c0.2,0,0.6,0,1.1,0s1.1,0,1.8,0c0.6,0,1.2-0.1,1.8-0.2c0.7-0.1,1.3-0.3,1.8-0.6c0.3-0.1,0.5-0.3,0.8-0.5c0.2-0.2,0.4-0.4,0.6-0.6
	c0.4-0.5,0.6-1,0.8-1.6c0.1-0.6,0.1-1.2,0.1-1.8v-0.3L87,55C87,54.3,87,53.7,86.9,53.1z M71.4,60.9c0,0.1-0.1,0.2-0.2,0.2
	s-0.3,0-0.3,0.1c-0.1,0-0.3,0.1-0.3,0.2v0.2c-0.1-0.1-0.2-0.2-0.4-0.3c0.1-0.3,0.2-0.6,0.4-0.9l0.2-0.1h0.7c0,0,0,0.1,0.1,0.2
	c0,0,0.1,0,0.1,0.1c0,0,0.1,0.1,0.1,0.2C71.5,60.8,71.4,60.9,71.4,60.9z"/>
<g>
	<path d="M77.8,54.6l0.7,0.3c0.3,0,0.5-0.1,0.7-0.3c0.2-0.1,0.4-0.3,0.6-0.7l-0.6-0.3c-0.4-0.1-0.6-0.1-0.8-0.1
		c-0.3,0-0.5,0.1-0.6,0.2c-0.2,0.1-0.4,0.5-0.7,1c0.1,0,0.3,0,0.4,0C77.6,54.6,77.7,54.6,77.8,54.6z"/>
</g>
<path class="st5" d="M89.5,44.2c-0.6-0.4-1.2-0.5-1.7-0.5c-0.6,0-1.1,0.1-1.5,0.2c-0.5,0.1-1,0.3-1.6,0.7s-1.1,0.8-1.6,1.3
	c-0.4,0.5-0.7,0.9-1,1.2l0,0c-0.3,0.2-0.6,0.6-0.7,0.9L81,49.9l0.5,0.5c0.4-0.2,0.8-0.4,1.3-0.4c0.3,0,0.6-0.1,0.9-0.3
	c0.2-0.1,0.5-0.2,0.8-0.3c0.6-0.3,1-0.5,1.5-0.7c0,0,0.1,0,0.1-0.1l0,0c0.1,0,0.2-0.1,0.2-0.1c0.6-0.3,1-0.6,1.4-0.8
	c0.4-0.3,0.7-0.7,1.1-1.1c0.4-0.5,0.5-1,0.5-1.4S89.6,44.4,89.5,44.2z M85.5,46c-0.5,0.2-0.9,0.4-1.4,0.7c-0.3,0.2-0.5,0.4-0.8,0.7
	c-0.2,0.1-0.3,0.3-0.5,0.5c-0.5,0.5-0.9,1-1.2,1.5c0.1-0.4,0.3-0.9,0.7-1.4l0.7-0.7c0.2-0.1,0.3-0.3,0.4-0.4
	c0.4-0.2,0.6-0.4,0.7-0.6c1.1-0.6,2-1,2.7-1.1C86.4,45.4,86,45.6,85.5,46z"/>
<path class="st2" d="M85.5,46c0.5-0.3,0.9-0.6,1.4-0.9c-0.7,0.1-1.7,0.5-2.7,1.1c-0.1,0.2-0.3,0.4-0.7,0.6c-0.3,0.3-0.7,0.7-1.1,1.1
	c-0.4,0.5-0.6,1-0.7,1.4c0.4-0.5,0.8-1,1.2-1.5c0.5-0.5,0.9-0.9,1.3-1.1C84.6,46.4,85,46.1,85.5,46z"/>
</svg>
