<?xml version="1.0" encoding="utf-8"?>
<!-- Generator: Adobe Illustrator 26.0.1, SVG Export Plug-In . SVG Version: 6.00 Build 0)  -->
<svg version="1.1" id="Layer_1" xmlns="http://www.w3.org/2000/svg" xmlns:xlink="http://www.w3.org/1999/xlink" x="0px" y="0px"
	 viewBox="0 0 196.6 139.4" style="enable-background:new 0 0 196.6 139.4;" xml:space="preserve">
<style type="text/css">
	.st0{fill:#DC7927;}
	.st1{fill:#502110;}
	.st2{fill:#924520;}
	.st3{fill:#F7B01A;}
</style>
<path class="st0" d="M41.7,89.9c4.9,1.1,42.8,14.3,59.8,22.4c46,22.1,48.3,25,50.9,23.6c2.7-1.5,4.3-6.6,1.5-7.9
	c-60.4-28.2-84.2-35.5-111-47.2C40.5,79.9,38.9,89.3,41.7,89.9"/>
<path class="st1" d="M53,86.4c-0.3,1.9-0.9,3.7-2,5.3c-0.3,0.5-0.8,0.9-1.3,1.2c-0.3,0.1-0.5,0.1-0.8,0c-2.4-0.7-5.3-1.7-7-1.1
	c-1.3,0.5-2.5,1.1-3.6,1.9c0.1-1.2,0.1-2.5,0.1-3.8c0-0.1,0.1-0.2,0.1-0.2c0.1-0.2,0.8-0.9,2.7-1.4c0.8-0.1,1.7-0.1,2.5,0
	c0.4-0.8,0.7-1.6,0.9-2.4c0.5-1.3,0.7-2.8,0.4-4.2l0,0c0-0.2,0.1-0.3,0.3-0.4l0,0c1.1,0.1,7.4,2.5,7.6,3.3
	C53.1,85.3,53.1,85.9,53,86.4z"/>
<path class="st2" d="M38.3,90c0,1.3,0,2.5-0.1,3.8c0,0.3,0,0.6,0,1c-0.2,2.3-1.2,4.4-2.9,5.9c-5.8,4.9-11.8,9.5-18.1,13.7
	c-0.2,0.2-0.5,0.3-0.7,0.3c-0.9,0-0.9-1.3-0.9-2.1c0-4.7-0.4-8.4,0-13.9c0-0.7,0.3-1.3,0.7-1.9c0.4-0.5,0.9-0.8,1.5-1.1
	c1.5-0.9,10.3-6.8,15.7-9.6c3.1-1.6,4.6-1.3,4.8,0.4C38.3,87.5,38.3,88.7,38.3,90z"/>
<path class="st0" d="M30.5,59.7c0.1,0.3,0.2,0.6,0.3,1l-0.4-0.6c0,0.2,0,0.4-0.1,0.6l-0.1-0.4c-0.1,0.1-0.1,0.3-0.2,0.4l0.1-0.7
	L30,59.6L3.2,23.5c9.6,9.6,19.8,19.7,25.6,32.1l-16.4-53c4.8,7.3,13.4,35.5,16.2,45c1,3.3,1.9,6.7,2,10.1l6.7-42.8
	C37.1,29.9,37.1,45.9,30.5,59.7z"/>
<path class="st0" d="M87.1,58.9c10.6-11.6,15.1-27.3,19.5-42L87.1,58.9z"/>
<path class="st0" d="M86.8,59.2c1.7-4.1,1.9-8.8,1.9-13.2c-0.1-10.3-0.9-20.6-2.5-30.8l0.5,42c-1.4-14.8-9-28.3-16.1-41.1L86.8,59.2
	l-0.1,0.3c0-0.1,0-0.1,0.1-0.2l0.1,0.2C86.8,59.5,86.8,59.4,86.8,59.2z"/>
<path class="st0" d="M58.2,60.8c6-6.6,8.6-15.5,11.1-23.8L58.2,60.8z"/>
<path class="st0" d="M58,61c0.8-2.4,1.2-4.9,1-7.5c0-5.8-0.5-11.7-1.4-17.4L58,59.9c-0.8-8.4-5.1-16.1-9.1-23.3L58,61v0.2v-0.1
	l0.1,0.1C58.1,61.2,58,61.1,58,61z"/>
<path class="st0" d="M18.2,15l-0.1-0.2c2.3-0.8,3.8-3,3.7-5.4H22C22.2,11.8,20.6,14.1,18.2,15z"/>
<path class="st0" d="M16.9,12.2V12c2.3-0.8,3.8-3,3.7-5.5h0.2C20.9,9,19.3,11.4,16.9,12.2z"/>
<path class="st0" d="M14.6,15.7c-1.7,0-3.3-0.8-4.5-2.2l0.2-0.2c1.5,1.9,4.1,2.6,6.3,1.7l0.1,0.2C16.1,15.5,15.3,15.7,14.6,15.7z"/>
<path class="st0" d="M13.7,12.7c-1.7,0-3.4-0.8-4.5-2.2l0.2-0.2c1.5,1.9,4.1,2.6,6.3,1.7l0.1,0.2C15.2,12.6,14.5,12.7,13.7,12.7z"/>
<path class="st0" d="M103.1,33.7c-0.6,0-1.3-0.1-1.9-0.3l0.1-0.2c2.3,0.8,4.8,0,6.3-1.9l0.2,0.1C106.6,32.8,104.8,33.7,103.1,33.7z"
	/>
<path class="st0" d="M103.8,30.7c-0.6,0-1.3-0.1-1.9-0.3l0.1-0.2c2.3,0.8,4.9,0,6.3-2l0.2,0.1C107.4,29.9,105.6,30.7,103.8,30.7z"/>
<path class="st0" d="M104.6,27.8c-0.6,0-1.3-0.1-1.9-0.3l0.1-0.2c2.3,0.8,4.8,0,6.3-1.9l0.2,0.1C108.2,26.9,106.4,27.8,104.6,27.8z"
	/>
<path class="st0" d="M105.4,24.8c-0.7,0-1.3-0.1-2-0.3l0.1-0.2c2.3,0.8,4.8,0.1,6.3-1.9l0.2,0.1C108.9,24,107.2,24.8,105.4,24.8z"/>
<path class="st0" d="M99.9,32.6c-2.4-0.8-4-3-4-5.5h0.2c0,2.4,1.5,4.6,3.9,5.3L99.9,32.6z"/>
<path class="st0" d="M101,29.8c-2.4-0.8-4-3-4-5.5h0.2c0,2.4,1.5,4.6,3.8,5.3V29.8z"/>
<path class="st0" d="M102.2,27c-2.4-0.7-4.1-3-4.1-5.5h0.2c0,2.4,1.6,4.6,3.9,5.3V27z"/>
<path class="st0" d="M103.4,24.1c-2.4-0.8-4-3-4-5.5h0.2c0,2.4,1.5,4.6,3.9,5.3L103.4,24.1z"/>
<path class="st2" d="M119.2,61c-0.2,1-0.4,2-0.5,3.2L10.1,62.5C46,58,80.2,56.8,119.2,61z"/>
<path class="st0" d="M14.8,6.7l-0.1-0.2c2.3-0.8,3.8-3,3.7-5.4h0.2C18.8,3.5,17.2,5.8,14.8,6.7z"/>
<path class="st0" d="M12.2,7.3c-1.7,0-3.4-0.8-4.5-2.2L7.9,5c1.5,1.9,4.1,2.6,6.3,1.7l0.1,0.2C13.6,7.2,12.9,7.3,12.2,7.3z"/>
<path class="st0" d="M15.8,9.3l-0.1-0.2c2.3-0.8,3.8-3,3.6-5.4h0.2C19.8,6.1,18.2,8.5,15.8,9.3z"/>
<path class="st0" d="M13,9.9c-1.7,0-3.4-0.8-4.5-2.2l0.2-0.2c1.5,1.9,4.1,2.6,6.3,1.7l0.1,0.2C14.4,9.8,13.7,9.9,13,9.9z"/>
<path class="st2" d="M194.7,80.5c-0.9-2.3-2.1-6.5-1.8-9.8c0.7-8.9-1.2-12.7-0.9-15.2h0.1c1.3-12.2,1.6-12.6-0.7-19.6
	c0.1-0.1,0.2-0.2,0.3-0.3c1.3-1.7,3.2-5.9,2.9-8c-0.8-6.7,0-7.8-10.4-10.6l-11.9-3.1c-3.8-1-7.7-2.1-11.7-1.8
	c-2.3,0.2-4.7,0.7-6.9,1.4l-26.9,7.2c-1.6,0.3-3.1,1-4.4,2c-1.1,1.3-1.9,2.9-2.2,4.5c-1,3.6-1.8,7.3-1.1,10.9l0,0
	c0.1,0.6,0.3,1.1,0.5,1.7c-0.8,3.1,1.1,6.7,1.1,13.3c0,2.4-0.9,4.7-1.6,8c-0.2,1-0.4,2-0.5,3.2s-0.2,2.4-0.2,3.8
	c0,4.2-1.8,9.2-2.7,13.2c-1.3,6-2.9,11.6-0.4,13.5c2.2,1.7,5.8-0.5,9.5,0.5c9.5,2.4,15.9,5.4,30.5,5.2c21.2-0.2,22.6-6.9,32.2-7.8
	C199.1,91.5,197.3,87.2,194.7,80.5z M174.3,34.1c-4.1,1.5-8.3,2.6-12.6,3.3c-2,0.5-4,0.7-6.1,0.6c-4.3-0.3-8.1-3-12.4-3.6
	c-2.8-0.4-5.6,0.2-8.4-0.1c-2.8-0.3-9.2-3.5-9.9-6.3c-0.6-2.4,4.2-3.2,6.3-4.6l0,0c2.1-1.4,4.6-1.9,7.1-2.3l18.2-3.4
	c2.3-0.5,4.7-0.8,7-0.7c4.9,0.4,9.3,3.5,14.2,3.7c1.4,0,2.8,0,4.1,0.2C190.9,22.6,183.2,30.7,174.3,34.1z"/>
<path class="st3" d="M160.8,12.2c-1.7-0.6-3.5-1-5.3-1.3c-2.1-0.1-4.3,0.1-6.4,0.6c-10,2.3-18,9.6-25.3,16.3
	c-1.1,0.9-1.6,2.4-1.5,3.8c0.2,0.9,0.7,1.7,1.4,2.3c3.6,3.6,8.9,4.9,13.9,5.9c8.9,1.8,18,3.1,27,2.1s18-4.4,24.3-10.9
	c5.5-5.7-2.6-8.9-7.1-10C179.3,20.4,167.9,14.5,160.8,12.2"/>
<path class="st1" d="M120.9,53.2c0.1,1.1,3.9,8.2,8.8,12.1c4.8,3.8,10.4,6.5,16.4,7.6C131.1,67.5,127.5,63.5,120.9,53.2z"/>
<path class="st1" d="M118.5,68.6c0.1,1.1,3.4,8.4,8,12.7c4.5,4.1,10,7.1,15.9,8.6C127.7,83.4,125,79.1,118.5,68.6z"/>
<path class="st1" d="M181.5,70.5c7.7-5.6,9.1-10.5,10.4-14.7c-5.6,12.3-13.6,17-26.6,21.7C166.6,77.5,174.9,75.4,181.5,70.5z"/>
<path class="st1" d="M163.7,91.2c1.3,0.1,9.7-1.4,16.7-5.8c8.1-5,9.9-9.8,11.4-13.8C185.4,83.5,177.1,87.7,163.7,91.2z"/>
<path class="st1" d="M156.1,61c-13,0.5-20-2.5-25.3-5.9c2.8,2.4,6.2,4.2,9.8,5.1l0,0c12.4,3.8,31.3,2.1,41.6-6.4
	C174.6,58,170,60.5,156.1,61z"/>
</svg>
