<svg width="100" height="289" viewBox="0 0 100 289" fill="none" xmlns="http://www.w3.org/2000/svg">
<g filter="url(#filter0_i_431_322)">
<path d="M92.5878 155.487C92.5878 155.487 97.588 162.187 97.888 166.087C98.088 169.987 97.888 172.487 96.8878 173.587C95.8878 174.687 93.5878 176.987 92.5878 176.987C91.5878 176.987 90.7878 175.387 92.5878 174.087C94.3878 172.787 92.9878 169.387 92.9878 169.387C92.9878 169.387 91.7878 177.187 90.8878 177.887C89.9878 178.587 88.1878 177.887 88.6878 174.987C89.1878 172.087 90.0878 167.487 87.0878 164.687C87.0878 164.687 86.4878 167.887 87.7878 169.987C87.7878 169.987 87.0878 174.087 84.8878 170.787C82.6878 167.387 83.5878 164.087 83.5878 161.787C83.5878 159.487 84.0878 154.887 83.3878 152.687C82.6878 150.487 74.3878 129.887 73.3878 128.187C72.3878 126.487 67.9878 108.587 67.9878 105.287C67.9878 101.987 81.2878 100.287 81.2878 100.287C81.2878 100.287 80.3878 107.587 82.9878 111.887C85.5878 116.287 90.6878 134.087 90.8878 139.087C91.2878 144.287 91.4878 153.887 92.5878 155.487Z" fill="#994E2E"/>
<path d="M43.0879 218.887C43.0879 218.887 44.7879 226.487 44.7879 229.287C44.7879 232.087 41.1879 242.387 41.1879 246.187C41.1879 249.987 42.6879 260.587 42.1879 264.187C41.6879 267.787 43.1879 269.687 39.0879 271.587C35.0879 273.487 33.7879 280.487 31.4879 280.587C30.7879 280.587 29.6879 282.287 26.6879 280.887C25.5879 280.387 24.5879 281.387 23.0879 280.087C22.2879 279.387 21.6879 281.087 20.0879 279.987C19.1879 279.387 18.2879 279.087 18.2879 279.087C18.0879 279.687 16.0879 279.487 15.9879 278.887C15.4879 275.787 15.4879 273.987 18.0879 272.287C20.6879 270.487 28.5879 261.487 28.5879 257.887C28.5879 254.287 30.1879 254.987 27.4879 246.887C24.6879 238.787 24.3879 217.687 24.3879 217.687L43.0879 218.887Z" fill="#994E2E"/>
<path d="M63.6882 225.387C63.6882 225.387 65.6882 229.787 65.8882 234.187C66.0882 238.587 71.4882 247.287 71.4882 252.387C71.4882 257.487 72.1882 264.187 71.4882 266.587C70.7882 268.987 71.3882 270.987 71.7882 275.487C72.1882 279.887 69.2882 282.787 70.1882 285.887C71.0882 288.987 74.8882 288.787 75.0882 288.087C75.0882 288.087 77.9882 288.687 78.1882 287.587C78.1882 287.587 80.5882 288.687 82.1882 287.987C82.1882 287.987 85.0882 287.187 84.9882 286.187C84.9882 286.187 86.8882 286.587 86.8882 284.787C86.8882 282.987 87.4882 277.887 87.4882 277.187C87.4882 276.487 87.2882 269.787 86.3882 266.387C85.4882 262.987 83.5882 257.887 84.3882 246.087C85.1882 234.287 82.4882 227.587 80.5882 220.187C78.5882 212.887 62.2882 221.287 63.6882 225.387Z" fill="#994E2E"/>
<path d="M39.9878 27.7868C39.9878 27.7868 52.5878 26.9868 59.9878 35.3869C60.7878 36.2869 59.6878 36.1869 60.2878 37.2869C60.2878 37.2869 61.6878 44.8869 63.3878 46.8869C65.0878 48.8869 64.2878 49.8869 65.2878 52.7869C66.2878 55.6869 67.1878 57.2869 67.6878 58.9869C68.0878 60.6869 68.0878 64.1869 67.1878 68.1869C66.2878 72.2869 65.5878 70.9869 64.3878 73.8869C63.1878 76.7869 62.5878 78.5869 54.9878 78.5869C54.9878 78.5869 47.9878 77.8869 45.7878 77.8869C43.5878 77.8869 37.6878 74.0869 37.1878 72.7869L35.8878 71.6869C35.8878 71.6869 34.0878 74.4869 30.3878 70.7869C27.3878 67.7869 22.9878 66.8869 21.6878 59.2869C20.3878 51.7869 18.6878 49.5869 20.8878 45.1869C23.0878 40.6869 25.7878 35.3869 27.9878 33.6869C30.0878 31.9869 32.8878 28.6868 39.9878 27.7868Z" fill="#994E2E"/>
<path d="M62.5878 42.4868C62.5878 41.4868 62.2878 40.7868 62.0878 40.4868C62.0878 40.0868 62.0878 39.5868 61.9878 38.9868C61.7878 37.5868 60.7878 37.8868 60.6878 36.3868C60.5878 34.8868 59.8878 34.2868 59.3878 34.0868C58.8878 33.8868 57.7878 31.5868 57.0878 30.8868C56.2878 30.0868 53.8878 29.8868 53.0878 28.5868C52.2878 27.2868 51.1878 25.6868 51.1878 26.4868C51.0878 27.2868 47.2878 26.0868 45.8878 26.1868L44.4878 26.2868C44.4878 26.2868 41.9878 26.8868 42.2878 25.9868C42.4878 25.0868 41.0878 26.8868 40.2878 26.9868C39.4878 26.9868 38.9878 27.0868 37.6878 27.0868C36.8878 27.0868 35.5878 26.8868 34.6878 26.8868C34.7878 26.4868 34.8878 25.9868 34.7878 25.4868C34.2878 23.7868 32.4878 22.4868 30.6878 22.9868C30.2878 23.0868 29.8878 23.2868 29.4878 23.5868C29.1878 23.0868 28.7878 22.6868 28.2878 22.3868C27.1878 21.6868 25.5878 21.9868 24.6878 22.8868C23.7878 23.7868 23.4878 25.2868 23.8878 26.4868C23.1878 26.1868 22.3878 25.9868 21.5878 26.2868C19.8878 26.8868 18.7878 28.8868 19.4878 30.5868C19.7878 31.3868 20.4878 32.0868 21.1878 32.5868C21.1878 32.6868 21.1878 32.7868 21.1878 32.7868C20.8878 33.9868 21.4878 35.4868 22.6878 36.0868C22.8878 36.1868 23.1878 36.2868 23.3878 36.3868C23.1878 36.4868 23.1878 36.6868 23.0878 36.7868C22.0878 38.1868 22.1878 38.0868 21.7878 38.6868C21.3878 39.2868 21.5878 44.0868 20.4878 44.1868C19.4878 44.2868 19.6878 44.4868 19.5878 46.1868C19.4878 47.8868 17.5878 46.6868 18.5878 49.6868C19.5878 52.5868 19.4878 53.2868 19.5878 55.1868C19.6878 56.9868 20.6878 58.5868 20.7878 60.3868C20.8878 62.0868 19.9878 60.7868 21.9878 63.7868C23.9878 66.7868 26.6878 69.4868 27.4878 70.0868C28.1878 70.7868 27.6878 71.5868 26.7878 71.5868C25.8878 71.5868 28.0878 73.5868 28.2878 72.6868C28.4878 71.7868 30.3878 70.8868 30.3878 70.8868L29.5878 70.0868C29.5878 70.0868 27.7878 67.9868 27.0878 65.7868C26.3878 63.5868 24.9878 62.5868 27.6878 60.6868C29.1878 59.6868 30.7878 61.8868 31.4878 61.6868C32.1878 61.4868 31.7878 60.7868 32.4878 61.5868C33.0878 62.3868 34.6878 61.4868 34.6878 61.4868C33.9878 61.4868 33.3878 60.5868 32.7878 59.1868C32.1878 57.6868 34.0878 55.5868 33.4878 55.2868C32.8878 54.9868 33.2878 51.8868 34.1878 52.1868C35.0878 52.4868 35.5878 54.2868 35.5878 54.2868C35.7878 52.7868 34.0878 50.7868 33.9878 48.7868C33.8878 46.8868 35.3878 44.6868 36.1878 45.6868C37.1878 47.0868 37.9878 43.4868 38.2878 41.5868C38.4878 39.7868 42.4878 39.3868 44.5878 38.3868C46.6878 37.2868 47.2878 35.7868 48.6878 35.3868C50.0878 34.9868 50.4878 35.5868 51.6878 35.1868C52.1878 35.0868 55.7878 38.2868 55.9878 36.6868C56.1878 35.0868 57.5878 35.3868 58.4878 35.6868C59.3878 35.9868 59.9878 36.4868 60.0878 37.0868C60.0878 37.4868 60.8878 40.8868 61.2878 41.7868C61.4878 42.2868 61.6878 43.1868 61.8878 43.6868C62.0878 44.1868 62.2878 44.3868 62.6878 43.8868C63.0878 43.5868 62.5878 43.7868 62.5878 42.4868Z" fill="#502313"/>
<path d="M30.1882 35.0869C29.9882 35.4869 29.5882 35.7869 29.0882 35.8869C28.5882 35.8869 28.1882 35.6869 27.8882 35.2869C27.8882 35.2869 28.6882 35.7869 29.1882 35.6869C29.7882 35.4869 30.1882 35.0869 30.1882 35.0869Z" fill="#924621"/>
<path d="M25.688 26.3869C25.788 25.8869 26.088 25.4869 26.488 25.3869C26.888 25.2869 27.488 25.3869 27.788 25.6869C27.788 25.6869 26.888 25.3869 26.388 25.6869C26.088 25.8869 25.688 26.3869 25.688 26.3869Z" fill="#924621"/>
<path d="M31.0882 26.4868C31.4882 26.6868 31.6882 27.1868 31.6882 27.6868C31.6882 28.1868 31.2882 28.5868 30.8882 28.7868C30.8882 28.7868 31.4882 28.0868 31.4882 27.4868C31.3882 26.9868 31.0882 26.4868 31.0882 26.4868Z" fill="#924621"/>
<path d="M22.8882 31.3868C22.4882 31.0868 22.3882 30.5868 22.4882 30.0868C22.5882 29.6868 22.9882 29.2868 23.4882 29.1868C23.4882 29.1868 22.6882 29.7868 22.6882 30.2868C22.6882 30.8868 22.8882 31.3868 22.8882 31.3868Z" fill="#924621"/>
<path d="M28.3881 32.3869C27.8881 32.4869 27.3881 32.2869 27.1881 31.8869C26.8881 31.4869 26.8881 30.9869 27.0881 30.5869C27.0881 30.5869 27.0881 31.5869 27.4881 31.8869C27.7881 32.1869 28.3881 32.3869 28.3881 32.3869Z" fill="#924621"/>
<path d="M59.9882 54.1868C59.9882 54.1868 58.6882 52.4868 60.7882 51.4868C62.8882 50.4868 63.2882 50.7867 63.8882 50.8867C64.4882 50.9867 65.0882 50.4868 65.0882 50.4868C65.0882 50.4868 64.7882 51.7868 63.8882 51.7868C63.8882 51.7868 63.1882 50.4867 60.8882 51.8867C60.8882 51.8867 59.5882 52.2868 59.9882 54.1868Z" fill="#421D13"/>
<path d="M45.9878 58.9868C45.9878 58.9868 47.1878 57.2868 49.9878 55.7868C49.9878 55.7868 51.7878 54.9868 51.8878 54.6868C51.8878 54.6868 52.2878 55.1868 52.0878 55.6868C52.0878 55.6868 52.3878 55.6868 52.8878 57.1868C52.8878 57.1868 52.2878 55.2868 50.7878 55.7868C50.7878 55.7868 50.0878 55.5868 45.9878 58.9868Z" fill="#421D13"/>
<path d="M55.4879 61.2869C55.4879 61.2869 54.8879 63.3869 57.3879 62.9869C57.3879 62.9869 55.3879 63.0869 55.4879 61.2869Z" fill="#502313"/>
<path d="M62.1881 61.3869C62.1881 61.3869 63.7881 60.187 62.7881 58.987C61.9881 57.987 60.7881 57.0869 60.7881 57.0869C60.7881 57.0869 62.6881 58.8869 62.8881 59.5869C63.1881 60.2869 62.1881 61.3869 62.1881 61.3869Z" fill="#502313"/>
<path d="M61.3882 61.1868C61.3882 61.1868 61.9882 60.0868 62.5882 59.9868C62.5882 59.9868 62.5882 60.0868 61.3882 61.1868Z" fill="#502313"/>
<path d="M59.7878 61.5869C59.7878 61.5869 58.6878 61.2869 58.5878 61.3869C58.3878 61.3869 57.5878 61.8869 57.6878 62.2869C57.6878 62.2869 58.4878 61.5869 58.7878 61.6869C58.6878 61.5869 58.9878 61.4869 59.7878 61.5869Z" fill="#502313"/>
<path d="M61.2879 51.6869C61.2879 51.6869 60.7879 54.0869 62.0879 53.6869C62.5879 53.4869 63.0879 53.3869 63.2879 53.0869C63.6879 52.4869 63.4879 51.5869 63.3879 51.3869C63.0879 50.9869 61.6879 50.8869 61.2879 51.6869Z" fill="#421D13"/>
<path d="M48.5881 56.8868C48.5881 56.8868 48.3881 58.7868 49.9881 58.8868C49.9881 58.8868 50.9881 58.4868 51.7881 57.9868C52.5881 57.4868 51.2881 55.7868 50.9881 55.8868C50.6881 55.7868 49.8881 55.5868 48.5881 56.8868Z" fill="#421D13"/>
<path d="M55.4878 68.7869C55.4878 68.7869 60.2878 71.7869 62.1878 70.4869C64.0878 69.1869 64.5878 67.9869 64.1878 66.6869C63.7878 65.3869 60.3878 67.1869 60.3878 67.1869C60.3878 67.1869 55.6878 68.7869 55.4878 68.7869Z" fill="#502313"/>
<path d="M54.8882 68.0869C54.8882 68.0869 56.5882 68.9869 57.6882 67.3869C58.5882 66.0869 59.7882 64.8869 61.8882 64.8869C61.8882 64.8869 62.2882 64.9869 62.6882 64.3869C63.0882 63.7869 64.5882 64.2869 64.5882 65.7869C64.5882 65.7869 64.4882 66.2869 63.8882 66.7869C63.8882 66.7869 63.8882 66.0869 63.5882 66.2869C63.2882 66.4869 61.8882 67.3869 60.7882 67.4869C60.0882 67.4869 56.1882 70.6869 54.8882 68.0869Z" fill="#502313"/>
<path d="M32.9878 68.4868C32.9878 68.4868 35.7878 68.8868 34.7878 67.4868C34.7878 67.4868 33.1878 66.8868 32.9878 65.4868C32.7878 64.0868 28.9878 59.9868 27.4878 62.9868C27.4878 62.9868 28.8878 61.1868 31.5878 63.8868C31.5878 63.8868 31.4878 65.4868 33.1878 66.9868C35.1878 68.5868 32.9878 68.4868 32.9878 68.4868Z" fill="#502313"/>
<path d="M58.9882 48.7868C58.9882 48.7868 58.7882 47.3868 59.6882 46.7868C60.5882 46.1868 62.5882 45.6868 62.5882 45.6868C62.5882 45.6868 63.1882 47.0868 63.7882 47.4868C63.7882 47.4868 62.3882 47.0868 61.2882 47.6868C60.1882 48.2868 59.7882 48.7868 59.7882 48.7868C59.7882 48.7868 59.3882 49.1868 58.9882 48.7868Z" fill="#502313"/>
<path d="M41.8882 57.9869C41.8882 57.9869 44.3882 55.8869 44.6882 54.9869C44.8882 54.0869 46.8882 52.4869 47.9882 52.3869C49.0882 52.2869 51.5882 50.7869 51.4882 50.4869C51.3882 50.1869 50.6882 49.2869 49.9882 49.6869C49.2882 50.0869 48.0882 50.4869 47.6882 50.6869C47.2882 50.7869 44.8882 52.1869 43.9882 52.9869C42.9882 53.6869 41.8882 57.9869 41.8882 57.9869Z" fill="#502313"/>
<path d="M50.2878 68.0869C50.2878 68.0869 50.3878 69.587 50.9878 70.187C50.9878 70.187 49.3878 68.8869 50.2878 68.0869Z" fill="#824123"/>
<path d="M76.5882 159.287C76.5882 156.787 74.9882 149.787 74.9882 145.787C74.9882 141.787 74.5882 138.787 73.7882 135.387C72.9882 131.887 72.4882 128.287 72.4882 126.487C72.4882 124.687 69.5882 111.387 69.5882 109.087C69.5882 109.087 82.2882 107.387 82.2882 106.587C82.2882 105.787 80.3882 89.5869 74.3882 85.3869C68.3882 81.1869 62.9882 80.1869 59.4882 79.1869C58.1882 78.7869 57.2882 78.4869 56.6882 78.1869C56.6882 78.1869 56.6882 78.0869 56.7882 78.0869C59.3882 74.4869 30.2882 67.3869 32.5882 72.0869C32.5882 72.0869 34.9882 72.5869 35.9882 74.3869C35.8882 74.2869 35.8882 74.2869 35.8882 74.2869C35.8882 74.2869 36.7882 85.4869 20.2882 88.0869C20.2882 88.0869 11.9882 88.0869 10.8882 106.387C10.8882 106.387 8.08819 119.787 6.58822 122.787C5.08822 125.787 2.58822 139.187 2.78822 143.187C2.98822 147.187 2.08822 151.087 1.48822 152.987C0.888219 154.887 0.788219 157.887 1.48822 158.787C2.18822 159.687 1.18822 163.787 7.48819 163.687C7.48819 163.687 8.38819 163.687 8.38819 162.787C8.38819 162.787 13.1882 163.487 12.6882 161.787C12.6882 161.787 15.8882 161.187 15.1882 159.187C15.1882 159.187 18.8882 158.687 17.1882 156.687L15.4882 156.387C15.4882 156.387 15.6882 150.687 14.4882 148.287C13.3882 145.887 11.9882 145.687 13.0882 143.687C14.0882 141.687 18.6882 131.487 18.8882 128.987C19.0882 126.487 22.1882 114.187 22.3882 113.987C22.5882 113.687 22.9882 116.287 22.9882 117.287C22.9882 118.287 22.2882 119.187 22.9882 120.887C23.6882 122.587 22.4882 123.087 23.2882 125.387C24.0882 127.687 22.2882 126.787 22.2882 129.187C22.2882 131.587 20.5882 132.587 21.4882 134.587C22.4882 136.587 22.4882 138.387 22.0882 139.187C21.6882 139.987 20.8882 143.287 21.0882 146.487C21.2882 149.687 20.9882 151.987 20.9882 154.487V159.687C20.9882 161.087 19.8882 161.087 19.9882 164.687C20.1882 168.187 19.6882 177.087 19.2882 180.087C18.8882 183.087 16.4882 203.487 17.1882 207.687C17.8882 211.887 13.7882 213.387 17.1882 216.987C20.5882 220.587 34.8882 205.087 34.8882 205.087C34.8882 205.087 82.5882 229.287 83.7882 223.687C84.9882 218.087 84.9882 212.087 84.9882 206.287C85.0882 200.687 76.5882 161.887 76.5882 159.287Z" fill="#994E2E"/>
<path d="M12.0881 152.487L11.2881 149.187C11.2881 149.187 12.8881 151.387 12.7881 153.687L12.0881 152.487Z" fill="#994E2E"/>
<path d="M55.888 78.487C55.888 78.487 43.388 77.4869 42.188 75.5869C42.188 75.5869 43.788 79.087 55.888 78.487Z" fill="#824123"/>
<path d="M43.0878 88.487C30.1878 88.887 34.2878 79.187 32.6878 81.987C31.2878 84.387 27.9878 86.887 20.3878 88.087C20.3878 88.087 9.88779 86.287 8.48779 115.087C8.48779 115.087 21.2878 120.287 21.4878 117.887C21.6878 115.487 22.2878 114.487 22.4878 114.187C22.6878 113.887 23.0878 116.487 23.0878 117.487C23.0878 118.487 22.3878 119.387 23.0878 121.087C23.7878 122.787 22.5878 123.287 23.3878 125.587C24.1878 127.887 22.3878 126.987 22.3878 129.387C22.3878 131.787 20.6878 132.787 21.5878 134.787C22.5878 136.787 22.5878 138.587 22.1878 139.387C21.7878 140.187 20.9878 143.487 21.1878 146.687C21.3878 149.887 21.0878 152.187 21.0878 154.687V159.887C21.0878 161.287 19.9878 161.287 20.0878 164.787C20.2878 168.287 19.7878 177.187 19.3878 180.187C18.9878 183.287 16.5878 203.587 17.2878 207.787C17.9878 211.987 13.8878 213.487 17.2878 217.087C20.6878 220.687 24.2878 221.087 24.2878 221.087C24.2878 221.087 82.6878 229.387 83.7878 223.787C84.8878 218.187 84.9878 212.187 84.9878 206.387C84.9878 200.587 76.4878 161.787 76.4878 159.287C76.4878 156.787 74.8878 149.787 74.8878 145.787C74.8878 141.787 74.4878 138.887 73.6878 135.387C72.8878 131.887 72.3878 128.287 72.3878 126.487C72.3878 124.687 69.4878 111.387 69.4878 109.087C69.4878 109.087 82.2878 107.387 82.2878 106.587C82.2878 105.787 80.3878 89.587 74.3878 85.387C68.3878 81.187 62.7878 80.587 59.4878 79.187C57.5878 78.387 57.9878 87.987 43.0878 88.487Z" fill="#F16C57"/>
<path d="M84.888 206.487C84.888 212.287 84.888 218.287 83.688 223.887C83.288 225.687 76.888 226.087 68.288 225.687C50.688 224.987 24.188 221.187 24.188 221.187C24.188 221.187 23.088 221.087 21.588 220.387C20.288 219.787 18.688 218.887 17.188 217.187C14.788 214.587 16.188 213.087 16.988 210.887C17.288 209.987 17.488 209.087 17.188 207.887C16.588 204.487 18.088 190.387 18.888 183.587C19.088 181.987 19.188 180.887 19.288 180.287C19.688 177.287 20.188 168.387 19.988 164.887C19.888 163.787 19.988 163.087 20.088 162.487C20.288 161.187 20.888 160.887 20.888 159.887V154.687C20.888 152.187 21.188 149.887 20.988 146.687C20.988 145.987 20.988 145.287 20.988 144.587C21.088 142.987 21.388 141.487 21.588 140.487C21.788 139.887 21.888 139.487 21.988 139.287C22.388 138.587 22.388 136.987 21.588 135.087C21.588 134.987 21.488 134.887 21.388 134.687C21.188 134.287 21.088 133.987 21.088 133.587V133.087C21.288 131.887 22.088 130.887 22.088 129.187C22.088 126.787 23.888 127.687 23.088 125.387C22.288 123.087 23.488 122.587 22.788 120.887C22.088 119.187 22.788 118.287 22.788 117.287C22.788 116.787 22.688 116.087 22.588 115.387C22.488 114.587 22.288 113.787 22.188 113.987C22.088 114.187 21.788 114.587 21.588 115.387C21.388 115.987 21.288 116.687 21.188 117.687C20.988 120.187 8.18799 114.887 8.18799 114.887C8.38799 109.387 9.08799 104.987 9.88799 101.487C10.588 98.2869 11.488 95.8869 12.488 93.9869C15.088 88.8869 18.088 87.9869 19.488 87.8869C19.988 87.8869 20.188 87.8869 20.188 87.8869C27.788 86.6869 31.088 84.0869 32.488 81.7869C34.088 78.9869 29.988 88.6869 42.888 88.2869C49.188 88.0869 52.788 86.1869 54.888 84.1869C57.888 81.4869 58.188 78.4869 59.388 78.9869C62.688 80.3869 68.288 80.8869 74.288 85.1869C80.288 89.3869 82.188 105.687 82.188 106.387C82.188 107.187 69.488 108.887 69.488 108.887C69.488 110.587 71.088 118.487 71.888 123.087C72.188 124.687 72.388 125.887 72.388 126.287C72.388 127.987 72.988 131.687 73.688 135.187C74.488 138.687 74.888 141.587 74.888 145.587C74.888 147.887 75.388 151.287 75.788 154.087C76.088 156.187 76.388 157.987 76.388 159.087C76.388 160.687 79.988 177.787 82.488 191.087C83.888 198.487 84.888 204.487 84.888 206.487Z" fill="#F16C57"/>
<path d="M19.5878 114.587C19.5878 115.087 19.9878 115.487 20.4878 115.487H29.4878V124.287C29.4878 124.787 29.8878 125.187 30.4878 125.187H49.8878C50.3878 125.187 50.7878 124.787 50.7878 124.287V115.487H59.5878C60.0878 115.487 60.4878 115.087 60.4878 114.587V105.787H69.2878C69.7878 105.787 70.2878 105.387 70.2878 104.787V95.0869C70.2878 94.5869 69.8878 94.1869 69.2878 94.1869H60.4878V85.3869C60.4878 84.8869 60.0878 84.4869 59.5878 84.4869H54.9878C52.7878 86.4869 49.2878 88.2869 42.9878 88.5869C30.0878 88.9869 34.1878 79.2869 32.5878 82.0869C31.1878 84.4869 27.8878 86.9869 20.2878 88.1869C20.2878 88.1869 20.0878 88.1869 19.5878 88.1869V94.2869H12.5878C11.5878 96.1869 10.7878 98.5869 9.98779 101.787V104.787C9.98779 105.287 10.3878 105.787 10.8878 105.787H19.4878L19.5878 114.587Z" fill="#F1572B"/>
<path d="M82.488 191.387H78.988C78.488 191.387 78.088 191.787 78.088 192.287V201.087H69.288C68.788 201.087 68.388 201.487 68.388 201.987V210.787H59.588C59.088 210.787 58.688 211.187 58.688 211.687V221.387C58.688 221.887 59.088 222.287 59.588 222.287H68.388V225.587C76.988 225.987 83.388 225.587 83.788 223.787C84.988 218.187 84.988 212.187 84.988 206.387C84.888 204.487 83.888 198.487 82.488 191.387Z" fill="#F1572B"/>
<path d="M68.388 124.287V133.087H59.588C59.088 133.087 58.688 133.487 58.688 133.987V143.687C58.688 144.187 59.088 144.587 59.588 144.587H68.388V153.387C68.388 153.887 68.788 154.287 69.288 154.287H75.788C75.388 151.387 74.888 148.087 74.888 145.787C74.888 141.687 74.488 138.887 73.688 135.387C72.888 131.887 72.388 128.287 72.388 126.487C72.388 126.087 72.188 124.887 71.888 123.287H69.288C68.788 123.387 68.388 123.787 68.388 124.287Z" fill="#F1572B"/>
<path d="M60.4881 192.287V183.487H69.2881C69.7881 183.487 70.2881 183.087 70.2881 182.587V172.887C70.2881 172.387 69.8881 171.987 69.2881 171.987H60.4881V163.187C60.4881 162.687 60.0881 162.287 59.5881 162.287H50.7881V153.487C50.7881 152.987 50.3881 152.587 49.8881 152.587H30.3881C29.8881 152.587 29.3881 152.987 29.3881 153.487V162.287H20.5881C20.4881 162.287 20.3881 162.287 20.2881 162.387C20.1881 162.387 20.0881 162.487 19.9881 162.587C19.8881 163.187 19.7881 163.887 19.8881 164.987C20.0881 168.487 19.5881 177.387 19.1881 180.387C19.0881 180.987 18.9881 182.087 18.7881 183.687H19.6881V192.487C19.6881 192.987 20.0881 193.487 20.5881 193.487H29.3881V202.287C29.3881 202.787 29.7881 203.187 30.3881 203.187H49.7881C50.2881 203.187 50.6881 202.787 50.6881 202.287V193.487H59.4881C60.0881 193.287 60.4881 192.887 60.4881 192.287Z" fill="#F1572B"/>
<path d="M20.688 210.887H16.888C16.188 213.087 14.688 214.587 17.088 217.187C18.688 218.787 20.288 219.787 21.488 220.387V211.787C21.588 211.287 21.188 210.887 20.688 210.887Z" fill="#F1572B"/>
</g>
<defs>
<filter id="filter0_i_431_322" x="1" y="22" width="96.9575" height="270.518" filterUnits="userSpaceOnUse" color-interpolation-filters="sRGB">
<feFlood flood-opacity="0" result="BackgroundImageFix"/>
<feBlend mode="normal" in="SourceGraphic" in2="BackgroundImageFix" result="shape"/>
<feColorMatrix in="SourceAlpha" type="matrix" values="0 0 0 0 0 0 0 0 0 0 0 0 0 0 0 0 0 0 127 0" result="hardAlpha"/>
<feOffset dy="4"/>
<feGaussianBlur stdDeviation="2"/>
<feComposite in2="hardAlpha" operator="arithmetic" k2="-1" k3="1"/>
<feColorMatrix type="matrix" values="0 0 0 0 0 0 0 0 0 0 0 0 0 0 0 0 0 0 0.25 0"/>
<feBlend mode="normal" in2="shape" result="effect1_innerShadow_431_322"/>
</filter>
</defs>
</svg>
