<?xml version="1.0" encoding="utf-8"?>
<!-- Generator: Adobe Illustrator 23.1.0, SVG Export Plug-In . SVG Version: 6.00 Build 0)  -->
<svg version="1.1" id="Layer_1" xmlns="http://www.w3.org/2000/svg" xmlns:xlink="http://www.w3.org/1999/xlink" x="0px" y="0px"
	 viewBox="0 0 185.7 107.8" style="enable-background:new 0 0 185.7 107.8;" xml:space="preserve">
<style type="text/css">
	.st0{fill:#696A6D;}
	.st1{fill:#F16B56;}
	.st2{fill:#914520;}
	.st3{fill:#BBBDBF;}
</style>
<path class="st0" d="M185.4,27.1c-0.1,0.1-0.3,0.2-0.4,0.2c-2.3,0.4-4.6,0.5-6.9,0.1c-2.2-0.4-4.4-0.4-6.6-0.4c0-2.2,0-3.6-0.1-3.7
	c-0.5-0.8-1.1-1.5-1.8-2.1c-2.4-2.1-4.8-4.5-7.3-6.3l-12.7-9.2c-0.8-0.6-1.6-1.1-2.6-1.5c0,0-0.1,0-0.2,0c2-0.8,3.9-1.6,5.8-2.5
	c7.6,6.4,15.6,11.8,23.7,17.6c3.1,2.2,6.1,3.9,9.3,6.6C185.8,26.2,185.8,26.8,185.4,27.1z"/>
<path class="st1" d="M171.5,27c0-2.2,0-3.6-0.1-3.7c-0.5-0.8-1.1-1.5-1.8-2.1c-2.4-2.1-4.8-4.5-7.3-6.3l-12.7-9.2
	c-0.8-0.6-1.6-1.1-2.6-1.5c0,0-0.1,0-0.2,0c-2.9,1.2-5.8,2.3-8.9,3.4c-12.4,4.5-26,8.8-38.8,14.6c-1.6,0.7-3.3,1.3-5,1.8
	c-1.6,0.5-9,0.7-10.6,0.9c-22.3,3.4-21.1,1.2-34.6,2.6c-8.3,0.8-19,2.7-29.6,3.4c0.1,17.5,0,49.7-0.7,66.8l0,0c0,1.1,0.8,2,1.8,2.1
	c4.9,0.5,18.5,1.9,33.3,3.4c-0.1-0.9-0.5-7.7-0.5-9.4c0.1-9.6-0.1-18.5,0.2-27.6c0-0.4-0.4-1.9,0.5-2.4s7.9-0.4,11.2-0.2l0,0
	c2.7-0.1,1.7,5.2,1.8,8.1c0.3,5.5,0.2,11.1,0.2,16.6c0,3.1,0.2,15.2,0.1,16.2c15.6,1.5,30,2.9,34.2,3.2c0.2,0,0.5,0,0.7-0.1
	c22.4-6.2,45.6-11.2,68-17.3C170.6,90.3,171.5,41.1,171.5,27z"/>
<path class="st2" d="M86.7,67.8c0,1.4,0,2.8-0.2,4.2c0,0.5-0.2,0.9-0.4,1.2c-0.5,0.5-1.2,0.8-1.9,0.8c-1.5,0.1-2.9,0.2-4.4,0.2
	c-0.3,0-0.7,0-1-0.2c-0.5-0.3-0.8-0.9-0.7-1.5c-0.1-0.8-0.3-1.6-0.3-2.3c0-4.1-0.1-7.9,0.1-11.8c0-0.1,0-0.3,0.1-0.5
	c0.1-0.1,0.2-0.2,0.3-0.3c0.5-0.2,1.2-0.4,1.8-0.4c1.8-0.2,3.6-0.2,5.4,0l0,0c1.4-0.3,1.1,2.2,1.2,3.5
	C86.8,63.1,86.7,65.5,86.7,67.8z"/>
<path class="st2" d="M67.3,104.6L67.3,104.6c-1.4,0-2.8-0.1-4.1-0.3c-2.5-0.1-9-0.6-9.5-1c0,0,0,0,0-0.1c-0.1-0.9-0.5-7.7-0.5-9.4
	c0.1-9.6-0.1-18.5,0.2-27.6c0-0.4-0.4-1.9,0.5-2.4s7.9-0.4,11.2-0.2l0,0c2.7-0.1,1.7,5.2,1.8,8.1c0.3,5.5,0.2,11.1,0.2,16.6
	C67.2,91.6,67.4,103.7,67.3,104.6z"/>
<path class="st2" d="M34.8,65.9c0,1.1,0,2.1-0.2,3.2c0,0.4-0.1,0.7-0.3,1c-0.4,0.4-0.9,0.6-1.5,0.6c-1.1,0.1-2.3,0.1-3.4,0.1
	c-0.3,0-0.5,0-0.8-0.1c-0.4-0.3-0.6-0.7-0.5-1.1c0-0.6-0.2-1.2-0.2-1.8c0-3.2-0.1-6.1,0.1-9.1c0-0.1,0-0.2,0.1-0.3
	c0-0.1,0.1-0.2,0.2-0.2c0.4-0.2,0.9-0.3,1.3-0.3c1.4-0.2,2.8-0.2,4.2,0l0,0c1.1-0.2,0.8,1.7,0.9,2.7C34.8,62.3,34.8,64.1,34.8,65.9z
	"/>
<path class="st3" d="M152.6,0c0,0.6,0,1.2-0.1,1.7l0,0c-1.9,0.8-3.8,1.6-5.8,2.5c-2.9,1.2-5.8,2.3-8.9,3.4
	c-12.4,4.5-26,8.8-38.8,14.6c-1.6,0.7-3.3,1.3-5,1.8c-1.6,0.5-9,0.7-10.6,0.9c-22.3,3.4-21.1,1.2-34.6,2.6c-8.3,0.8-19,2.7-29.6,3.4
	c-3.9,0.2-7.8,0.3-11.5,0.1c-2.7-0.1-5.6,0.4-7.8-1.3c15.2-4.9,31.6-10.6,47.2-16.5c1.5-0.6,5-1.9,5.1-2c0.6-0.6,0.3-0.8,0.5-1.7
	C86.7,6.8,119.1,4.1,152.6,0z"/>
</svg>
