<?xml version="1.0" encoding="utf-8"?>
<!-- Generator: Adobe Illustrator 26.0.1, SVG Export Plug-In . SVG Version: 6.00 Build 0)  -->
<svg version="1.1" id="Layer_1" xmlns="http://www.w3.org/2000/svg" xmlns:xlink="http://www.w3.org/1999/xlink" x="0px" y="0px"
	 viewBox="0 0 321 273.3" enable-background="new 0 0 321 273.3" xml:space="preserve">
<path fill="#E6E7E8" d="M140.7,158.2c-0.9,0.3-1.4,0.4-1.4,0.4C139.3,158.6,139.8,158.4,140.7,158.2z"/>
<path fill="#E6E7E8" d="M231.9,133.6c-3.6-12-5.5-25.2-6.1-38.5c0.9-1.1,1.8-2.3,2.5-3.5C228.9,105.7,230.7,119.5,231.9,133.6z"/>
<path fill="#E6E7E8" d="M289.4,174.1c-11.8,9.2-23.1,18.8-33.6,29.3c-10.6,10.5-20.2,21.8-30.2,32.8
	C240.3,211.5,265.1,189.2,289.4,174.1z"/>
<path fill="#E6E7E8" d="M321,167.9c-18.3,11.7-40.6,28.3-62.9,51.6c-18,18.7-31.6,37.2-41.7,53c-1.5-2.7-3-4.6-4.2-5.7
	c-2.7-2.6-3.9-2.5-6.5-5.3c-2.3-2.5-1.7-2.9-4.1-5.3c-2.5-2.4-3-1.9-5.2-4.3c-2.3-2.5-1.9-3.4-4-4.9c-0.3-0.2-2.3-1.7-3.3-2.6
	c-0.7-0.7-1.3-1.4-1.4-1.5c-0.1-0.1-0.2-0.2-0.3-0.3c-2.7-3.3-2.1-4.1-4.2-6.2c-2.3-2.3-3.2-1.5-5.5-3.8c-2.2-2.2-1.5-3.1-3.7-5.4
	c-2.3-2.5-3.2-1.7-5.7-4.2c-2.4-2.4-1.7-3.3-4.2-5.7c-2.1-2-2.7-1.4-4.9-3.5c-2.4-2.4-1.8-3.3-4.2-5.7c-2.5-2.5-3.3-1.8-5.8-4.3
	c-2.4-2.5-1.7-3.3-4.1-5.6c-2.6-2.5-3.5-1.8-5.9-4.2s-1.6-3.5-4-5.7c-2.1-2-2.9-1.4-5.6-3.6c-2.2-1.8-1.7-2.4-4.3-4.9
	c-2.6-2.6-3.2-2.1-5.6-4.6c-2.5-2.6-2-3.1-4.3-5.3c-2.4-2.3-3.3-2-5.2-3.7c-0.2-0.1-0.3-0.3-0.5-0.5c-0.5-0.5-0.9-1-1.2-1.4
	c0.3,0,0.7,0,1.1,0h1.4h0.1l0.1,0.1c0.8,0.8,1.3,1.1,1.9,1.4c0.1,0,0.2,0.1,0.3,0.2c0.9,0.5,1.9,1.1,3.4,2.5
	c0.2,0.2,0.3,0.3,0.4,0.4c1.1,1,1.6,1.8,2,2.5s0.8,1.3,1.9,2.4l0.1,0.1c1,1,1.6,1.4,2.3,1.9c0.8,0.5,1.8,1.2,3.2,2.6l0.1,0.1
	c1.3,1.3,1.9,2.1,2.4,2.8c0.3,0.4,0.6,0.8,1,1.2c0.2,0.2,0.4,0.4,0.7,0.6c1.1,1,1.8,1.3,2.5,1.6c0.9,0.4,1.9,0.9,3.2,2.1
	c0.1,0.1,0.2,0.2,0.3,0.3c1.3,1.2,1.8,2.2,2.2,3.1c0.3,0.8,0.6,1.4,1.6,2.4l0.1,0.1c0.9,0.9,1.5,1.2,2.3,1.6c0.9,0.5,2,1,3.5,2.5
	l0.1,0.1c1.3,1.3,1.8,2.3,2.3,3.1c0.4,0.7,0.7,1.4,1.7,2.4l0.1,0.1c1,0.9,1.6,1.3,2.4,1.7c0.8,0.5,1.8,1,3.2,2.4l0.1,0.1
	c1.4,1.3,1.9,2.3,2.4,3.2c0.4,0.7,0.8,1.3,1.6,2.1l0.2,0.2c0.8,0.9,1.4,1.2,2,1.5c0.8,0.4,1.6,0.9,2.9,2.1l0.2,0.2
	c1.3,1.3,1.8,2.3,2.3,3.2c0.4,0.8,0.7,1.4,1.7,2.4s1.6,1.3,2.4,1.7c0.8,0.4,1.8,0.9,3,2.1c0.1,0.2,0.2,0.3,0.3,0.4
	c1.3,1.4,1.8,2.5,2.2,3.3c0.3,0.8,0.6,1.3,1.5,2.2s1.4,1.2,2.2,1.5c0.9,0.4,1.9,0.9,3.3,2.2l0.2,0.2c1.2,1.2,1.6,2.2,2.1,3.1
	c0.4,0.9,0.8,1.7,2,3.2c0,0.1,0.1,0.2,0.2,0.3c0.1,0.1,0.3,0.4,0.7,0.8c0.1,0.2,0.3,0.3,0.5,0.5c0.4,0.4,1.2,1.1,3,2.4l0.1,0.1
	c0.4,0.3,0.8,0.6,1.1,0.9c0.7,0.7,1.1,1.3,1.5,1.9c0.4,0.7,0.8,1.3,1.7,2.3l0.5,0.5c0.7,0.7,1.1,1,1.7,1.4c0.8,0.5,1.6,1,3,2.4
	c1.4,1.3,1.9,2.2,2.4,3c0.5,0.7,0.8,1.3,1.8,2.3l0.4,0.4c1,1,1.7,1.5,2.6,2.1c1,0.6,2,1.3,3.4,2.7l0.1,0.1c1,0.9,2,2,2.8,3.2
	c11.8-18.1,25.4-35.1,40.3-50.7c18.2-19,38.6-35.8,60.6-50.2c-1.4-0.9-2.6-1.9-3.4-3.2c-0.7-0.6-1.3-1.4-1.9-2.1
	c-0.8-1-1.3-1.8-1.7-2.5c-0.5-0.9-1-1.6-2-2.6l-0.1-0.1c-1.1-1-1.8-1.4-2.6-1.9c-0.9-0.6-1.9-1.1-3.2-2.5l-0.1-0.1
	c-1.4-1.4-1.9-2.4-2.4-3.2c-0.4-0.7-0.8-1.4-1.8-2.4l-0.1-0.1c-1-1-1.6-1.4-2.4-1.8c-0.9-0.5-1.9-1-3.3-2.4l-0.2-0.2
	c-1.6-1.5-2.2-2.7-2.7-3.6c-0.3-0.6-0.6-1.1-1.2-1.7c-0.1-0.2-0.3-0.3-0.5-0.5c-1.1-0.9-1.9-1.2-2.8-1.5c-1-0.3-2.3-0.8-3.6-2.1
	c0,0-0.2-0.2-0.3-0.3c-1.4-1.5-1.7-2.8-2-3.8c-0.3-0.8-0.4-1.3-1.1-2.1c-0.1-0.1-0.1-0.1-0.2-0.2c-0.7-0.7-1.3-0.9-2.3-1.2
	c-1.2-0.4-2.6-0.8-4.2-2.4l-0.1-0.1c-1.5-1.5-1.9-2.8-2.2-3.8c-0.3-0.9-0.6-1.6-1.5-2.7c-0.2-0.1-0.3-0.3-0.4-0.4
	c-0.6-0.6-1-0.9-1.7-1.2c-0.9-0.5-2-1.1-3.5-2.6s-2.1-2.6-2.6-3.5c-0.4-0.7-0.6-1.1-1.2-1.7c-0.2-0.1-0.3-0.3-0.5-0.4
	c-1.1-0.9-1.7-1.1-2.6-1.4c-1.1-0.3-2.3-0.7-3.8-2.1c-0.1-0.1-0.2-0.2-0.3-0.3c-1.4-1.4-1.9-2.7-2.3-3.8c-0.3-0.9-0.7-1.8-1.5-2.9
	c-0.3-0.4-0.7-0.8-1-1.2c-0.8-0.8-1.6-1.3-2.7-2c-0.8-0.5-1.6-1-2.6-1.7c-0.7-0.6-1.5-1.2-2.2-1.8c-0.4-0.3-0.8-0.7-1.1-1.1
	c-0.3-0.2-0.5-0.5-0.7-0.7c-0.1,3.8-0.1,7.6,0,11.4c0.5,21.5,2.9,43.2,7.4,64.3l0,0c-4.5-21.1-7-42.7-7.6-64.2c0-3.8-0.1-7.6,0-11.4
	c0-1,0-2,0.1-3c0.7,0.8,1.3,1.6,2,2.2c1.1,1.1,2.2,2,3.2,2.7c2.9,2.2,4.8,2.6,6.8,5.4c2.1,3,1.5,4.6,3.8,6.7
	c2.3,2.2,3.6,1.2,6.3,3.5c2.4,2,1.6,3.1,4.3,5.7c2.6,2.6,3.7,1.8,5.7,4.2c2.4,2.8,1.3,4.1,3.5,6.4c2.5,2.6,4.4,1.4,6.8,4
	c2.1,2.3,1,3.6,3.1,5.9c2.2,2.4,3.7,1.4,6.6,3.8c2.6,2.1,1.8,3.2,4.7,6.1c2.6,2.4,3.3,1.8,5.8,4.3c2.4,2.5,1.7,3.2,4.1,5.6
	c2.4,2.4,3.4,2,5.9,4.5c2.1,2.1,2.2,3.1,4,5.4C314.7,163.4,317,165.8,321,167.9z"/>
<path fill="#939598" d="M289.4,174.1c-11.8,9.2-23.1,18.8-33.6,29.3c-10.6,10.5-20.2,21.8-30.2,32.8
	C240.3,211.5,265.1,189.2,289.4,174.1z"/>
<path fill="#E6E7E8" d="M140.7,158.2c-0.9,0.3-1.4,0.4-1.4,0.4C139.3,158.6,139.8,158.4,140.7,158.2z"/>
<path fill="#E6E7E8" d="M225.8,95.1c-0.8-17.2,0.6-34.7,3.5-50.6c-1.2,14.9-1.7,29.7-1.1,44.6c0,0.8,0.1,1.7,0.1,2.5
	c0.6,14,2.4,27.9,3.6,42C228.3,121.5,226.4,108.4,225.8,95.1z"/>
<path fill="#E6E7E8" d="M238.6,89.8c0-0.8,0-1.7,0-2.5c0.4-27,4-50.4,8.1-68.9c-4.3,1.3-7.7,1.3-10,1c-2.8-0.3-3.7-1-6.6-1
	c-3.5,0-3.9,1-7.4,1c-3.4,0-3.4-1-6.9-1s-3.6,1-7.1,1c-4.1,0-4.3-1.3-7.7-1c-3.8,0.3-4.1,2.1-7.3,2c-3.1-0.1-3.3-1.9-6.4-2
	c-3.5-0.2-4,2-7.6,2c-3.2,0-3.3-1.7-7-2c-3.1-0.2-3.3,1-7,1s-4-1.2-7.1-1c-3.5,0.3-3.7,1.9-6.9,2c-3.1,0.1-3.8-1.4-7.4-2
	c-3.4-0.5-5,0.5-8.6,1c-3,0.5-7.3,0.6-13-1c3.1,5.6,6.5,13.8,5,23c-1.5,8.8-6,10-8,19c-2.6,11.6,1.9,18.4,4,30
	c4.3,23.8-8.3,44.1-11.4,48.9c2.6-5,12.2-26.9,8.4-45.9c-1.2-6-3-11-3-11c-4.4-12.3-8.5-13.5-10-21c-1.7-9,2.9-11.2,3-21
	c0.1-5.4-1.7-12.9-10-22c-3-0.3-5.4-0.1-7,0.1c-2.7,0.4-3.6,0.8-6,0.9c-2.3,0-2.9-0.4-5.5-0.6c-1.6-0.1-3.9-0.2-6.9,0.2
	c0.8,9,2.3,22.6,5,39c4.2,25.7,7.5,34,9,48c1.6,14.2,1.4,34.8-7,61c1.4-0.7,3.7-1.5,6.5-1.5c3,0,3.7,1,7,1.1c3.3,0,3.4-1,7-1.1
	c3.2-0.1,3.2,0.7,6.7,0.7c0.2,0,0.5,0,0.7,0c1.3,0,2.1-0.2,2.9-0.3c0.9-0.2,1.9-0.3,3.7-0.3c3.6,0,3.7,0.7,6.5,0.4
	c3.5-0.3,3.6-1.3,6.5-1.4c3.3-0.1,3.5,1.2,6.9,1.2s3.5-1.2,7.1-1.2c3.3,0,3.4,1,6.9,1s3.7-1.1,7.1-1c3.4,0,3.6,1.1,7,1
	c3-0.1,3-0.9,6-1c3.4-0.1,3.6,1.1,7,1.1c3.5,0,3.6-1.2,7-1.1c3.2,0.1,3.4,1.2,6.4,1.2c3.2,0,3.3-1.2,6.6-1.2c3-0.1,3.1,1,7.4,1.4
	h0.4c0.1,0,1,0.1,2,0c1.4-0.1,3.8-0.4,4.1-0.5c2.5-0.4,2.9,0.5,6.3,0.6c3.2,0.1,3.2-0.6,6.7-0.6c3.4,0,3.3,0.7,6.7,0.8
	c3.8,0.1,4.6-0.8,8.3-0.8c1.6,0,4,0.1,7,1c-4-18.3-7.5-41-8-67C238.6,96.1,238.6,92.9,238.6,89.8z"/>
<path fill="#939598" d="M317.4,167.9c-22,14.4-42.4,31.2-60.6,50.2c-14.9,15.6-28.5,32.6-40.3,50.7c-0.8-1.2-1.8-2.3-2.8-3.2
	l-0.1-0.1c-1.4-1.4-2.4-2.1-3.4-2.7c-0.9-0.6-1.6-1.1-2.6-2.1l-0.4-0.4c-1-1-1.3-1.6-1.8-2.3c-0.5-0.8-1-1.7-2.4-3
	c-1.4-1.4-2.2-1.9-3-2.4c-0.6-0.4-1-0.7-1.7-1.4l-0.5-0.5c-0.9-1-1.3-1.6-1.7-2.3c-0.4-0.6-0.8-1.2-1.5-1.9
	c-0.3-0.3-0.7-0.6-1.1-0.9l-0.1-0.1c-1.8-1.3-2.6-2-3-2.4c-0.2-0.2-0.4-0.3-0.5-0.5c-0.4-0.4-0.6-0.7-0.7-0.8
	c-0.1-0.1-0.2-0.2-0.2-0.3c-1.2-1.5-1.6-2.3-2-3.2c-0.5-0.9-0.9-1.9-2.1-3.1l-0.2-0.2c-1.4-1.3-2.4-1.8-3.3-2.2
	c-0.8-0.3-1.3-0.6-2.2-1.5s-1.2-1.4-1.5-2.2c-0.4-0.8-0.9-1.9-2.2-3.3c-0.1-0.1-0.2-0.2-0.3-0.4c-1.2-1.2-2.2-1.7-3-2.1
	c-0.8-0.4-1.4-0.7-2.4-1.7s-1.3-1.6-1.7-2.4c-0.5-0.9-1-1.9-2.3-3.2l-0.2-0.2c-1.3-1.2-2.1-1.7-2.9-2.1c-0.6-0.3-1.2-0.6-2-1.5
	l-0.2-0.2c-0.8-0.8-1.2-1.4-1.6-2.1c-0.5-0.9-1-1.9-2.4-3.2l-0.1-0.1c-1.4-1.4-2.4-1.9-3.2-2.4c-0.8-0.4-1.4-0.8-2.4-1.7l-0.1-0.1
	c-1-1-1.3-1.7-1.7-2.4c-0.5-0.8-1-1.8-2.3-3.1l-0.1-0.1c-1.5-1.5-2.6-2-3.5-2.5c-0.8-0.4-1.4-0.7-2.3-1.6l-0.1-0.1
	c-1-1-1.3-1.6-1.6-2.4c-0.4-0.9-0.9-1.9-2.2-3.1c-0.1-0.1-0.2-0.2-0.3-0.3c-1.3-1.2-2.3-1.7-3.2-2.1c-0.7-0.3-1.4-0.6-2.5-1.6
	c-0.3-0.2-0.5-0.4-0.7-0.6c-0.4-0.4-0.7-0.8-1-1.2c-0.5-0.7-1.1-1.5-2.4-2.8l-0.1-0.1c-1.4-1.4-2.4-2.1-3.2-2.6
	c-0.7-0.5-1.3-0.9-2.3-1.9l-0.1-0.1c-1.1-1.1-1.5-1.7-1.9-2.4s-0.9-1.5-2-2.5c-0.1-0.1-0.2-0.2-0.4-0.4c-1.5-1.4-2.5-2-3.4-2.5
	c-0.1,0-0.2-0.1-0.3-0.2c0.9-0.2,1.9-0.3,3.7-0.3c3.6,0,3.7,0.7,6.5,0.4c3.5-0.3,3.6-1.3,6.5-1.4c3.3-0.1,3.5,1.2,6.9,1.2
	s3.5-1.2,7.1-1.2c3.3,0,3.4,1,6.9,1s3.7-1.1,7.1-1c3.4,0,3.6,1.1,7,1c3-0.1,3-0.9,6-1c3.4-0.1,3.6,1.1,7,1.1c3.5,0,3.6-1.2,7-1.1
	c3.2,0.1,3.4,1.2,6.4,1.2c3.2,0,3.3-1.2,6.6-1.2c3-0.1,3.1,1,7.4,1.4h0.4c0.1,0,1,0.1,2,0c1.4-0.1,3.8-0.4,4.1-0.5
	c2.5-0.4,2.9,0.5,6.3,0.6c3.2,0.1,3.2-0.6,6.7-0.6c3.4,0,3.3,0.7,6.7,0.8c3.8,0.1,4.6-0.8,8.3-0.8c1.6,0,4,0.1,7,1
	c-4-18.3-7.5-41-8-67c-0.1-3.3-0.1-6.5-0.1-9.6c0.7,0.6,1.5,1.3,2.2,1.8c1,0.7,1.8,1.2,2.6,1.7c1.1,0.7,1.9,1.2,2.7,2
	c0.3,0.4,0.7,0.8,1,1.2c0.8,1.1,1.2,2,1.5,2.9c0.4,1.1,0.9,2.4,2.3,3.8c0.1,0.1,0.2,0.2,0.3,0.3c1.5,1.4,2.7,1.8,3.8,2.1
	c0.9,0.3,1.5,0.5,2.6,1.4c0.2,0.1,0.3,0.3,0.5,0.4c0.6,0.6,0.8,1,1.2,1.7c0.5,0.9,1.1,2,2.6,3.5s2.6,2.1,3.5,2.6
	c0.7,0.3,1.1,0.6,1.7,1.2c0.1,0.1,0.2,0.3,0.4,0.4c0.9,1.1,1.2,1.8,1.5,2.7c0.3,1,0.7,2.3,2.2,3.8l0.1,0.1c1.6,1.6,3,2,4.2,2.4
	c1,0.3,1.6,0.5,2.3,1.2c0.1,0.1,0.1,0.1,0.2,0.2c0.7,0.8,0.8,1.3,1.1,2.1c0.3,1,0.6,2.3,2,3.8c0.1,0.1,0.3,0.3,0.3,0.3
	c1.3,1.3,2.6,1.8,3.6,2.1c0.9,0.3,1.7,0.6,2.8,1.5c0.2,0.2,0.4,0.3,0.5,0.5c0.6,0.6,0.9,1.1,1.2,1.7c0.5,0.9,1.1,2.1,2.7,3.6
	l0.2,0.2c1.4,1.4,2.4,1.9,3.3,2.4c0.8,0.4,1.4,0.8,2.4,1.8l0.1,0.1c1,1,1.4,1.7,1.8,2.4c0.5,0.8,1,1.8,2.4,3.2l0.1,0.1
	c1.3,1.4,2.3,1.9,3.2,2.5c0.8,0.5,1.5,0.9,2.6,1.9l0.1,0.1c1,1,1.5,1.7,2,2.6c0.4,0.7,0.9,1.5,1.7,2.5c0.6,0.7,1.2,1.5,1.9,2.1
	C314.8,166,316,167,317.4,167.9z"/>
<path fill="#939598" d="M111.2,164.9h-1.4c-0.4,0-0.8,0-1.1,0c-0.8-0.1-1.4-0.2-2-0.3c-0.8-0.2-1.7-0.4-3.2-0.4H103
	c-2.1,0-3.2,0.4-4.2,0.7c-0.8,0.2-1.4,0.4-2.7,0.4c-1.5,0-2.3-0.2-3.2-0.5c-1-0.3-2.1-0.6-3.8-0.6h-0.2c-1.1,0-2.2,0.1-3.3,0.3
	c6-20,8-39.5,5.9-58.1c-0.8-7.3-2.1-13-3.6-20.3c-1.5-6.8-3.3-15.3-5.4-27.8c-2-12.3-3.6-24.7-4.8-36.9c0.7,0,1.3-0.1,2-0.1
	c0.9,0,1.8,0,2.6,0.1c1,0.1,1.7,0.2,2.3,0.3c0.9,0.2,1.8,0.3,3.3,0.3H88c1.7,0,2.8-0.2,3.9-0.5c0.7-0.1,1.4-0.3,2.4-0.4
	c1.2-0.2,2.5-0.2,3.8-0.2c0.6,0,1.3,0,2,0.1c6,6.8,9,13.6,9,20c0,4.1-0.9,6.8-1.8,9.3c-1.1,3.3-2.2,6.6-1.2,12.1
	c0.8,4.1,2.3,6.5,4.1,9.3s3.8,6,6,12c0.8,2.3,1.5,4.8,2,6.9c0.5,2,0.8,3.6,0.8,3.8c0.7,4-0.3,24-9,49.6c3.9-4.2,10.3-12.2,14-24.1
	c1-3.1,5-16.4,2-29.3c-1.5-6.6-2.4-9.8-2.4-9.8c-1.8-6.6-3.3-11.8-1.6-19.4c0.9-4.1,2.3-6.4,3.8-8.8c1.7-2.7,3.4-5.4,4.2-10.3
	c1.1-6.5,0-13.4-3.3-20.4c1.8,0.3,3.5,0.4,5.2,0.4c1.5,0,3-0.1,4.4-0.3c1.2-0.2,2.2-0.4,3-0.6c1.2-0.3,2.2-0.5,3.4-0.5
	c0.5,0,1,0.1,1.6,0.1c1.4,0.2,2.2,0.6,3.1,1c1.1,0.5,2.4,1.1,4.3,1.1h0.4c2-0.1,3.2-0.7,4.1-1.2c0.8-0.4,1.5-0.7,2.8-0.8h0.6
	c0.8,0,1.3,0.1,2,0.4c1,0.3,2.2,0.7,4.3,0.7c2.2,0,3.3-0.4,4.3-0.7c0.7-0.2,1.2-0.4,2-0.4h0.6c1.4,0.1,2.1,0.4,2.9,0.9
	c1,0.5,2.1,1.1,4.2,1.1h0.1c2.2,0,3.6-0.7,4.6-1.2c0.9-0.5,1.5-0.8,2.5-0.8h0.3c1,0,1.5,0.3,2.2,0.7c0.9,0.5,2.1,1.2,4.1,1.3
	c0.2,0,0.4,0,0.4,0c1.9,0,3-0.6,4.1-1.1c0.9-0.4,1.6-0.8,3.1-0.9h0.8c0.8,0,1.3,0.2,2.1,0.4c1,0.3,2.3,0.7,4.5,0.7h0.2
	c2,0,3.1-0.3,4-0.6c0.8-0.2,1.5-0.4,2.9-0.4h0.1c1.5,0,2.1,0.2,2.9,0.4c0.9,0.3,2,0.6,3.9,0.6h0.1c1.9,0,3-0.3,4-0.5
	c0.9-0.2,1.7-0.4,3.2-0.5h0.2c1.4,0,2.2,0.2,3.3,0.4c0.8,0.2,1.7,0.4,2.9,0.5c1,0.1,1.9,0.2,2.9,0.2c1.5,0,3.1-0.1,4.8-0.5
	c-4.4,21-6.9,42.5-7.3,63.9c0,1,0,2-0.1,3c-0.1,3.8,0,7.6,0,11.4c0.6,21.5,3.1,43.1,7.6,64.2c-1.4-0.3-2.8-0.4-4.2-0.4h-0.2
	c-1.9,0.1-3.2,0.3-4.3,0.5s-2,0.4-3.4,0.4h-0.6c-1.4-0.1-2-0.2-2.8-0.4s-1.9-0.4-3.8-0.4c-1.9,0-2.9,0.2-3.8,0.4
	c-0.7,0.1-1.2,0.2-2.2,0.2h-0.7c-1.3-0.1-2.1-0.2-2.8-0.4c-0.7-0.1-1.4-0.3-2.4-0.3c-0.5,0-1,0-1.5,0.1h-0.1
	c-2.2,0.4-3.4,0.5-3.9,0.5h-2.1c-1.9-0.2-2.8-0.5-3.7-0.8c-1-0.3-2-0.6-3.7-0.6h-0.2c-1.9,0.1-3,0.5-3.9,0.8
	c-0.7,0.3-1.3,0.5-2.5,0.5c-1.3,0-1.8-0.2-2.6-0.5s-1.9-0.7-3.8-0.8h-0.5c-1.8,0-2.8,0.3-3.7,0.6c-0.8,0.3-1.5,0.5-2.9,0.5
	s-2.1-0.2-2.9-0.5c-1-0.3-2-0.6-3.9-0.6h-0.3c-1.7,0.1-2.7,0.4-3.5,0.6c-0.7,0.2-1.3,0.4-2.5,0.4h-0.4c-1.2,0-1.8-0.2-2.6-0.4
	c-1-0.3-2.1-0.6-4-0.6h-0.2c-2,0-3,0.3-4,0.6c-0.8,0.2-1.5,0.4-2.9,0.4h-0.1c-1.4-0.1-2.1-0.3-2.9-0.5c-0.9-0.3-1.9-0.6-3.8-0.6
	h-0.2c-2.1,0-3.2,0.4-4.2,0.7c-0.8,0.3-1.4,0.5-2.7,0.5h-0.1c-1.3,0-2-0.2-2.8-0.5c-0.9-0.3-1.9-0.7-3.7-0.7h-0.4
	c-1.8,0.1-2.8,0.5-3.7,0.8c-0.7,0.3-1.4,0.6-2.9,0.7h-0.9c-0.6,0-1-0.1-1.6-0.2c-0.8-0.1-1.8-0.3-3.6-0.3H117c-2,0-3.1,0.2-4.1,0.4
	c-0.6,0.1-1.1,0.3-1.8,0.3C111.2,164.8,111.2,164.9,111.2,164.9L111.2,164.9z"/>
<path fill="#939598" d="M139.3,158.6c0,0,0.5-0.2,1.4-0.4C139.8,158.5,139.3,158.6,139.3,158.6z"/>
<path fill="#939598" d="M225.8,95.1c-0.8-17.2,0.6-34.7,3.5-50.6c-1.2,14.9-1.7,29.7-1.1,44.6c0,0.8,0.1,1.7,0.1,2.5
	c0.6,14,2.4,27.9,3.6,42C228.3,121.5,226.4,108.4,225.8,95.1z"/>
<path fill="#939598" d="M140.7,158.2c-0.9,0.3-1.4,0.4-1.4,0.4C139.3,158.6,139.8,158.4,140.7,158.2z"/>
<path fill="#939598" d="M225.8,95.1c-0.8-17.2,0.6-34.7,3.5-50.6c-1.2,14.9-1.7,29.7-1.1,44.6c0,0.8,0.1,1.7,0.1,2.5
	c0.6,14,2.4,27.9,3.6,42C228.3,121.5,226.4,108.4,225.8,95.1z"/>
<path fill="#939598" d="M244.2,163.9c-1.4-0.2-2.8-0.4-4.2-0.4h-0.2c-2,0-3.2,0.2-4.3,0.5c-1,0.2-1.9,0.4-3.4,0.4h-0.6
	c-1.4,0-2.1-0.2-2.8-0.4c-0.9-0.2-1.9-0.4-3.8-0.4c-1.9,0-2.9,0.2-3.8,0.4c-0.7,0.1-1.2,0.2-2.2,0.2h-0.7c-1.3-0.1-2.1-0.2-2.8-0.4
	s-1.4-0.3-2.4-0.3c-0.5,0-0.9,0-1.5,0.1h-0.1c-2.2,0.3-3.3,0.4-3.9,0.5h-2.1c-1.9-0.2-2.8-0.5-3.7-0.8c-1-0.3-2-0.6-3.7-0.6h-0.2
	c-1.9,0-3,0.4-3.9,0.8c-0.8,0.3-1.3,0.5-2.5,0.5c-1.3,0-1.8-0.2-2.6-0.5c-0.9-0.3-2-0.7-3.8-0.8h-0.5c-1.7,0-2.8,0.3-3.7,0.6
	c-0.8,0.3-1.5,0.5-2.9,0.5s-2-0.2-2.9-0.5s-2-0.6-3.9-0.6h-0.3c-1.8,0-2.7,0.3-3.5,0.6c-0.7,0.2-1.2,0.4-2.5,0.4h-0.4
	c-1.2,0-1.8-0.2-2.6-0.4c-1-0.3-2-0.6-4-0.6h-0.2c-1.9,0-3,0.3-4,0.6c-0.8,0.2-1.5,0.4-2.9,0.4h-0.1c-1.4,0-2.1-0.2-2.9-0.5
	c-0.9-0.3-2-0.6-3.8-0.6h-0.2c-2.1,0-3.3,0.4-4.2,0.7c-0.8,0.3-1.4,0.5-2.7,0.5h-0.1c-1.4,0-2-0.2-2.8-0.5c-0.9-0.3-2-0.7-3.7-0.7
	h-0.4c-1.8,0.1-2.8,0.4-3.7,0.8c-0.8,0.3-1.5,0.5-2.9,0.7h-0.9c-0.6,0-1-0.1-1.6-0.2c-0.8-0.1-1.8-0.3-3.6-0.3h-0.2
	c-2,0-3.1,0.2-4.1,0.4c-0.6,0.1-1.1,0.2-1.7,0.3c0-0.1-0.1-0.1-0.1-0.2c0.7,0,1.2-0.2,1.8-0.3c1-0.2,2.1-0.4,4.1-0.4h0.2
	c1.8,0,2.8,0.2,3.6,0.3c0.6,0.1,1,0.2,1.6,0.2h0.9c1.5-0.1,2.2-0.4,2.9-0.7c0.9-0.3,1.9-0.7,3.7-0.8h0.4c1.8,0,2.8,0.4,3.7,0.7
	c0.8,0.3,1.5,0.5,2.8,0.5h0.1c1.3,0,1.9-0.2,2.7-0.5c1-0.3,2.1-0.7,4.2-0.7h0.2c1.9,0,2.9,0.3,3.8,0.6c0.8,0.2,1.5,0.4,2.9,0.5h0.1
	c1.4,0,2.1-0.2,2.9-0.4c1-0.3,2-0.6,4-0.6h0.2c1.9,0,3,0.3,4,0.6c0.8,0.2,1.4,0.4,2.6,0.4h0.4c1.2,0,1.8-0.2,2.5-0.4
	c0.8-0.2,1.8-0.5,3.5-0.6h0.3c1.9,0,2.9,0.3,3.9,0.6c0.8,0.3,1.5,0.5,2.9,0.5s2.1-0.2,2.9-0.5c0.9-0.3,1.9-0.6,3.7-0.6h0.5
	c1.9,0.1,3,0.5,3.8,0.8s1.3,0.5,2.6,0.5c1.2,0,1.8-0.2,2.5-0.5c0.9-0.3,2-0.7,3.9-0.8h0.2c1.7,0,2.7,0.3,3.7,0.6
	c0.9,0.3,1.8,0.6,3.7,0.8h2.1c0.5,0,1.7-0.1,3.9-0.5h0.1c0.5-0.1,1-0.1,1.5-0.1c1,0,1.7,0.2,2.4,0.3c0.7,0.2,1.5,0.3,2.8,0.4h0.7
	c1,0,1.5-0.1,2.2-0.2c0.9-0.2,1.9-0.4,3.8-0.4c1.9,0,3,0.2,3.8,0.4s1.4,0.3,2.8,0.4h0.6c1.4,0,2.3-0.2,3.4-0.4
	c1.1-0.2,2.4-0.4,4.3-0.5h0.2c1.4,0,2.8,0.1,4.2,0.4C244.2,163.8,244.2,163.8,244.2,163.9z"/>
<path fill="#EA9F22" d="M103.5,73.1c-5.1,23.9-30.7,38.6-57.2,33.1S2.4,76.5,7.5,52.6S38.2,14,64.7,19.5S108.6,49.2,103.5,73.1"/>
<path fill="#EA8422" d="M90.5,61.8v0.4c0,1.9-0.2,4-0.6,5.9c-3,14.6-16.9,24.4-32.6,24.6h-0.6c-2.7,0-5.1-0.2-7.8-0.8
	C39,90,30.5,84.1,25,75.6c-2.9-4.7-4.4-10.2-4.4-15.7v-0.2c0-2.3,0.4-4.5,0.8-6.8c1.5-7.8,6.3-13.4,10.8-19.5c2.1-3.4,4-7,5.7-10.8
	c1.5-3.8,4.5-6.8,8.1-8.7c1.5-0.5,3.2-0.9,4.9-0.9h0.2v-0.5c1.9,0.2,3.8,0.4,5.5,0.8c2.2,0.4,4.5,1.2,6.4,2.5
	c4.2,2.8,5.7,8.1,7.8,12.5c0.9,2.1,2.1,4.2,3.6,6.1c1.7,1.7,4,2.8,5.9,4.5c1.1,1.1,2.3,2.3,3.2,3.4C88,47.8,90.5,54.6,90.5,61.8z"/>
<path fill="#EA9F22" d="M59,85.9c-7.2-0.8-15.7-1.9-21.2-7c-1.5-1.3-2.7-2.8-3.6-4.5c-0.6-0.8-0.9-1.7-1.3-2.5
	c-0.4-0.9-0.8-1.7-1.1-2.7c-0.4,4,2.3,8,5.1,10.4c3,2.8,6.6,4.7,10.6,5.9C51,86.5,55.2,86.7,59,85.9"/>
<path fill="#E6E7E8" enable-background="new    " d="M289.4,174.1c-11.8,9.2-23.1,18.8-33.6,29.3c-10.6,10.5-20.2,21.8-30.2,32.8
	C240.3,211.5,265.1,189.2,289.4,174.1z"/>
<path fill="#E6E7E8" enable-background="new    " d="M231.9,133.6c-3.6-12-5.5-25.2-6.1-38.5c-0.8-17.2,0.6-34.7,3.5-50.6
	c-1.2,14.9-1.7,29.7-1.1,44.6c0,0.8,0.1,1.7,0.1,2.5C228.9,105.7,230.7,119.5,231.9,133.6z"/>
</svg>
