<?xml version="1.0" encoding="utf-8"?>
<!-- Generator: Adobe Illustrator 26.0.1, SVG Export Plug-In . SVG Version: 6.00 Build 0)  -->
<svg version="1.1" id="Layer_2" xmlns="http://www.w3.org/2000/svg" xmlns:xlink="http://www.w3.org/1999/xlink" x="0px" y="0px"
	 viewBox="0 0 47.3 71.1" enable-background="new 0 0 47.3 71.1" xml:space="preserve">
<path fill="#D6D6D6" d="M8.4,2.4v2.1H2.1c-0.6,0-1-0.5-1-1v0c0-0.6,0.5-1,1-1H8.4z"/>
<path fill="#F2EDED" d="M25,49.7c0.8,0.2,0.8,0.8,0.8,1.3c-0.1,1.5-0.7,2.9-1.9,3.9c0,0,0.1-0.5,0.1-0.5c1.3,4.6,1.3,11.3-3.8,13.5
	c0,0-0.4-0.9-0.4-0.9c4.7-2.1,4.4-8.3,3.2-12.5c0.7-1,1.4-2.3,1.7-3.5C24.7,50.6,24.6,50.4,25,49.7L25,49.7z"/>
<path fill="#D6D6D6" d="M15.7,2.4v2.1h6.8l0,2.6h2.1V4.5h7.2V2.4H15.7z M24.5,47.6V8.3h-2.1l0.1,39.4c-0.7,0.4-1.2,1.3-1,2.1
	c0.1,1,1,1.7,1.9,1.8c1.1,0.1,2.1-0.8,2.2-1.8C25.8,48.9,25.3,48,24.5,47.6z M23.7,50.5c-0.6,0-1.1-0.5-1.1-1.1c0-0.6,0.6-1,1.1-1
	c0.5,0,0.9,0.4,1,0.9C24.8,50,24.3,50.5,23.7,50.5z"/>
<path fill="#D6D6D6" d="M45.3,3.5c0,0.6-0.5,1.1-1,1.1h-5.2V2.4h5.2C44.9,2.4,45.3,2.9,45.3,3.5z"/>
<rect x="8.4" y="2.4" fill="#A44D23" width="7.3" height="2.1"/>
<rect x="31.8" y="2.4" fill="#A44D23" width="7.3" height="2.1"/>
<rect x="22.5" y="7.2" fill="#A44D23" width="2.1" height="1.2"/>
<rect x="22.5" y="8.9" fill="#A44D23" width="2.1" height="1.2"/>
<rect x="22.5" y="10.7" fill="#A44D23" width="2.1" height="1.2"/>
<rect x="22.5" y="12.4" fill="#A44D23" width="2.1" height="1.2"/>
<rect x="22.5" y="14.1" fill="#A44D23" width="2.1" height="1.2"/>
<rect x="22.5" y="15.9" fill="#A44D23" width="2.1" height="1.2"/>
<rect x="22.5" y="17.6" fill="#A44D23" width="2.1" height="1.2"/>
<rect x="22.5" y="19.3" fill="#A44D23" width="2.1" height="1.2"/>
<rect x="22.5" y="21.1" fill="#A44D23" width="2.1" height="1.2"/>
<rect x="22.5" y="22.8" fill="#A44D23" width="2.1" height="1.2"/>
<rect x="22.5" y="24.5" fill="#A44D23" width="2.1" height="1.2"/>
<rect x="22.5" y="26.3" fill="#A44D23" width="2.1" height="1.2"/>
<rect x="22.5" y="28" fill="#A44D23" width="2.1" height="1.2"/>
<rect x="22.5" y="29.7" fill="#A44D23" width="2.1" height="1.2"/>
<rect x="22.5" y="31.5" fill="#A44D23" width="2.1" height="1.2"/>
<rect x="22.5" y="33.2" fill="#A44D23" width="2.1" height="1.2"/>
<rect x="22.5" y="35" fill="#A44D23" width="2.1" height="1.2"/>
<rect x="22.5" y="36.7" fill="#A44D23" width="2.1" height="1.2"/>
<rect x="22.5" y="38.4" fill="#A44D23" width="2.1" height="1.2"/>
<rect x="22.5" y="40.2" fill="#A44D23" width="2.1" height="1.2"/>
<rect x="22.5" y="41.9" fill="#A44D23" width="2.1" height="1.2"/>
<rect x="22.5" y="43.6" fill="#A44D23" width="2.1" height="1.2"/>
<rect x="22.5" y="45.4" fill="#A44D23" width="2.1" height="1.2"/>
<path fill="#F2EDED" d="M23.6,68.9l-0.8-0.5c0.9-1.5,1.8-3.2,2.1-4.9c0.5-2.7-0.7-5.2-1.5-7.8c-0.8-1.8-1.7-3.8-0.5-5.7
	c0.3-0.4,0.6-0.9,1-1.2c0,0,0,0,0,0c0.1,0,0.1-0.1,0.2-0.1c0.3,0.2,0.5,0.4,0.6,0.7c-0.1,0-0.1,0.1-0.2,0.1
	c-0.2,0.2-0.4,0.4-0.5,0.6c-0.1,0.1-0.2,0.2-0.2,0.3c-1,1.6,0,3.3,0.7,4.8c0.7,1.8,1.2,3.5,1.6,5.4C26.6,63.6,25.2,66.5,23.6,68.9z"
	/>
</svg>
