<?xml version="1.0" encoding="utf-8"?>
<!-- Generator: Adobe Illustrator 26.0.1, SVG Export Plug-In . SVG Version: 6.00 Build 0)  -->
<svg version="1.1" id="Layer_1" xmlns="http://www.w3.org/2000/svg" xmlns:xlink="http://www.w3.org/1999/xlink" x="0px" y="0px"
	 viewBox="0 0 71.7 67.2" style="enable-background:new 0 0 71.7 67.2;" xml:space="preserve">
<style type="text/css">
	.st0{fill:#C6B054;}
	.st1{fill:#FFFFFF;}
	.st2{fill:#C6CDC9;}
	.st3{fill:#7C161E;}
</style>
<path class="st0" d="M64.4,44.7L45.5,63.6c-2.4,2.4-6.3,2.4-8.7,0l-33-33c-2.4-2.4-2.4-6.3,0-8.7L22.7,3c2.4-2.4,6.3-2.4,8.7,0
	l33,33C66.8,38.4,66.8,42.3,64.4,44.7z"/>
<circle class="st1" cx="6.7" cy="25.7" r="1.8"/>
<path class="st2" d="M8,27.1c-0.8,0.8-2,0.8-2.7,0c-0.8-0.8-0.8-2,0-2.7s2-0.8,2.7,0C8.8,25.1,8.8,26.3,8,27.1z M5.5,24.5
	c-0.7,0.7-0.7,1.7,0,2.4c0.7,0.7,1.7,0.7,2.4,0c0.7-0.7,0.7-1.7,0-2.4C7.2,23.9,6.1,23.9,5.5,24.5z"/>
<circle class="st1" cx="12.8" cy="19.6" r="1.8"/>
<path class="st2" d="M14.2,20.9c-0.8,0.8-2,0.8-2.7,0c-0.8-0.8-0.8-2,0-2.7c0.8-0.8,2-0.8,2.7,0C14.9,19,14.9,20.2,14.2,20.9z
	 M11.6,18.4c-0.7,0.7-0.7,1.7,0,2.4c0.7,0.7,1.7,0.7,2.4,0c0.7-0.7,0.7-1.7,0-2.4C13.3,17.7,12.3,17.7,11.6,18.4z"/>
<circle class="st1" cx="18.9" cy="13.4" r="1.8"/>
<path class="st2" d="M20.2,14.8c-0.8,0.8-2,0.8-2.7,0c-0.8-0.8-0.8-2,0-2.7c0.8-0.8,2-0.8,2.7,0C21,12.8,21,14,20.2,14.8z
	 M17.7,12.2c-0.7,0.7-0.7,1.7,0,2.4c0.7,0.7,1.7,0.7,2.4,0c0.7-0.7,0.7-1.7,0-2.4C19.4,11.6,18.3,11.6,17.7,12.2z"/>
<circle class="st3" cx="25.6" cy="6.7" r="1.8"/>
<path class="st2" d="M27,8.1c-0.8,0.8-2,0.8-2.7,0c-0.8-0.8-0.8-2,0-2.7c0.8-0.8,2-0.8,2.7,0C27.8,6.1,27.8,7.3,27,8.1z M24.4,5.5
	c-0.7,0.7-0.7,1.7,0,2.4c0.7,0.7,1.7,0.7,2.4,0c0.7-0.7,0.7-1.7,0-2.4C26.2,4.9,25.1,4.9,24.4,5.5z"/>
<circle class="st1" cx="12.2" cy="31.3" r="1.8"/>
<path class="st2" d="M13.6,32.6c-0.8,0.8-2,0.8-2.7,0c-0.8-0.8-0.8-2,0-2.7c0.8-0.8,2-0.8,2.7,0C14.4,30.7,14.4,31.9,13.6,32.6z
	 M11,30.1c-0.7,0.7-0.7,1.7,0,2.4c0.7,0.7,1.7,0.7,2.4,0c0.7-0.7,0.7-1.7,0-2.4C12.8,29.4,11.7,29.4,11,30.1z"/>
<circle class="st1" cx="18.4" cy="25.1" r="1.8"/>
<path class="st2" d="M19.7,26.5c-0.8,0.8-2,0.8-2.7,0s-0.8-2,0-2.7c0.8-0.8,2-0.8,2.7,0C20.5,24.5,20.5,25.8,19.7,26.5z M17.2,24
	c-0.7,0.7-0.7,1.7,0,2.4c0.7,0.7,1.7,0.7,2.4,0c0.7-0.7,0.7-1.7,0-2.4C18.9,23.3,17.8,23.3,17.2,24z"/>
<circle class="st1" cx="24.5" cy="19" r="1.8"/>
<path class="st2" d="M25.8,20.3c-0.8,0.8-2,0.8-2.7,0c-0.8-0.8-0.8-2,0-2.7c0.8-0.8,2-0.8,2.7,0S26.6,19.6,25.8,20.3z M23.3,17.8
	c-0.7,0.7-0.7,1.7,0,2.4c0.7,0.7,1.7,0.7,2.4,0c0.7-0.7,0.7-1.7,0-2.4C25,17.1,23.9,17.1,23.3,17.8z"/>
<circle class="st3" cx="31.2" cy="12.3" r="1.8"/>
<path class="st2" d="M32.6,13.7c-0.8,0.8-2,0.8-2.7,0c-0.8-0.8-0.8-2,0-2.7c0.8-0.8,2-0.8,2.7,0C33.3,11.7,33.3,12.9,32.6,13.7z
	 M30,11.1c-0.7,0.7-0.7,1.7,0,2.4c0.7,0.7,1.7,0.7,2.4,0c0.7-0.7,0.7-1.7,0-2.4C31.7,10.5,30.7,10.5,30,11.1z"/>
<circle class="st1" cx="17.8" cy="36.8" r="1.8"/>
<path class="st2" d="M19.2,38.2c-0.8,0.8-2,0.8-2.7,0c-0.8-0.8-0.8-2,0-2.7c0.8-0.8,2-0.8,2.7,0S19.9,37.5,19.2,38.2z M16.6,35.7
	c-0.7,0.7-0.7,1.7,0,2.4c0.7,0.7,1.7,0.7,2.4,0c0.7-0.7,0.7-1.7,0-2.4C18.3,35,17.3,35,16.6,35.7z"/>
<circle class="st1" cx="23.9" cy="30.7" r="1.8"/>
<path class="st2" d="M25.3,32.1c-0.8,0.8-2,0.8-2.7,0s-0.8-2,0-2.7c0.8-0.8,2-0.8,2.7,0C26.1,30.1,26.1,31.3,25.3,32.1z M22.7,29.5
	c-0.7,0.7-0.7,1.7,0,2.4c0.7,0.7,1.7,0.7,2.4,0c0.7-0.7,0.7-1.7,0-2.4C24.5,28.9,23.4,28.9,22.7,29.5z"/>
<circle class="st1" cx="30" cy="24.5" r="1.8"/>
<path class="st2" d="M31.4,25.9c-0.8,0.8-2,0.8-2.7,0c-0.8-0.8-0.8-2,0-2.7c0.8-0.8,2-0.8,2.7,0C32.1,23.9,32.1,25.2,31.4,25.9z
	 M28.8,23.4c-0.7,0.7-0.7,1.7,0,2.4c0.7,0.7,1.7,0.7,2.4,0c0.7-0.7,0.7-1.7,0-2.4C30.6,22.7,29.5,22.7,28.8,23.4z"/>
<circle class="st3" cx="36.8" cy="17.9" r="1.8"/>
<path class="st2" d="M38.1,19.2c-0.8,0.8-2,0.8-2.7,0s-0.8-2,0-2.7c0.8-0.8,2-0.8,2.7,0S38.9,18.5,38.1,19.2z M35.6,16.7
	c-0.7,0.7-0.7,1.7,0,2.4c0.7,0.7,1.7,0.7,2.4,0c0.7-0.7,0.7-1.7,0-2.4C37.3,16,36.2,16,35.6,16.7z"/>
<circle class="st1" cx="23.4" cy="42.4" r="1.8"/>
<path class="st2" d="M24.8,43.8c-0.8,0.8-2,0.8-2.7,0c-0.8-0.8-0.8-2,0-2.7c0.8-0.8,2-0.8,2.7,0C25.5,41.8,25.5,43,24.8,43.8z
	 M22.2,41.2c-0.7,0.7-0.7,1.7,0,2.4c0.7,0.7,1.7,0.7,2.4,0c0.7-0.7,0.7-1.7,0-2.4C23.9,40.6,22.8,40.6,22.2,41.2z"/>
<circle class="st1" cx="29.5" cy="36.3" r="1.8"/>
<path class="st2" d="M30.9,37.7c-0.8,0.8-2,0.8-2.7,0c-0.8-0.8-0.8-2,0-2.7c0.8-0.8,2-0.8,2.7,0S31.6,36.9,30.9,37.7z M28.3,35.1
	c-0.7,0.7-0.7,1.7,0,2.4c0.7,0.7,1.7,0.7,2.4,0c0.7-0.7,0.7-1.7,0-2.4C30,34.4,29,34.4,28.3,35.1z"/>
<circle class="st1" cx="35.6" cy="30.1" r="1.8"/>
<path class="st2" d="M37,31.5c-0.8,0.8-2,0.8-2.7,0c-0.8-0.8-0.8-2,0-2.7c0.8-0.8,2-0.8,2.7,0C37.7,29.5,37.7,30.7,37,31.5z
	 M34.4,28.9c-0.7,0.7-0.7,1.7,0,2.4c0.7,0.7,1.7,0.7,2.4,0c0.7-0.7,0.7-1.7,0-2.4C36.1,28.3,35.1,28.3,34.4,28.9z"/>
<circle class="st3" cx="42.4" cy="23.5" r="1.8"/>
<path class="st2" d="M43.7,24.8c-0.8,0.8-2,0.8-2.7,0s-0.8-2,0-2.7c0.8-0.8,2-0.8,2.7,0S44.5,24.1,43.7,24.8z M41.2,22.3
	c-0.7,0.7-0.7,1.7,0,2.4c0.7,0.7,1.7,0.7,2.4,0c0.7-0.7,0.7-1.7,0-2.4C42.9,21.6,41.8,21.6,41.2,22.3z"/>
<circle class="st1" cx="29" cy="48" r="1.8"/>
<path class="st2" d="M30.3,49.4c-0.8,0.8-2,0.8-2.7,0c-0.8-0.8-0.8-2,0-2.7c0.8-0.8,2-0.8,2.7,0C31.1,47.4,31.1,48.6,30.3,49.4z
	 M27.8,46.8c-0.7,0.7-0.7,1.7,0,2.4c0.7,0.7,1.7,0.7,2.4,0c0.7-0.7,0.7-1.7,0-2.4C29.5,46.1,28.4,46.1,27.8,46.8z"/>
<circle class="st1" cx="35.1" cy="41.9" r="1.8"/>
<path class="st2" d="M36.5,43.2c-0.8,0.8-2,0.8-2.7,0s-0.8-2,0-2.7s2-0.8,2.7,0S37.2,42.5,36.5,43.2z M33.9,40.7
	c-0.7,0.7-0.7,1.7,0,2.4c0.7,0.7,1.7,0.7,2.4,0c0.7-0.7,0.7-1.7,0-2.4C35.6,40,34.6,40,33.9,40.7z"/>
<circle class="st1" cx="41.2" cy="35.7" r="1.8"/>
<path class="st2" d="M42.5,37.1c-0.8,0.8-2,0.8-2.7,0s-0.8-2,0-2.7c0.8-0.8,2-0.8,2.7,0S43.3,36.3,42.5,37.1z M40,34.5
	c-0.7,0.7-0.7,1.7,0,2.4c0.7,0.7,1.7,0.7,2.4,0c0.7-0.7,0.7-1.7,0-2.4C41.7,33.8,40.6,33.8,40,34.5z"/>
<circle class="st3" cx="47.9" cy="29" r="1.8"/>
<path class="st2" d="M49.3,30.4c-0.8,0.8-2,0.8-2.7,0s-0.8-2,0-2.7c0.8-0.8,2-0.8,2.7,0C50,28.4,50,29.6,49.3,30.4z M46.7,27.8
	c-0.7,0.7-0.7,1.7,0,2.4c0.7,0.7,1.7,0.7,2.4,0c0.7-0.7,0.7-1.7,0-2.4C48.5,27.2,47.4,27.2,46.7,27.8z"/>
<circle class="st1" cx="34.5" cy="53.6" r="1.8"/>
<path class="st2" d="M35.9,54.9c-0.8,0.8-2,0.8-2.7,0c-0.8-0.8-0.8-2,0-2.7c0.8-0.8,2-0.8,2.7,0C36.7,53,36.7,54.2,35.9,54.9z
	 M33.3,52.4c-0.7,0.7-0.7,1.7,0,2.4c0.7,0.7,1.7,0.7,2.4,0c0.7-0.7,0.7-1.7,0-2.4C35.1,51.7,34,51.7,33.3,52.4z"/>
<circle class="st1" cx="40.7" cy="47.4" r="1.8"/>
<path class="st2" d="M42,48.8c-0.8,0.8-2,0.8-2.7,0s-0.8-2,0-2.7c0.8-0.8,2-0.8,2.7,0S42.8,48.1,42,48.8z M39.5,46.2
	c-0.7,0.7-0.7,1.7,0,2.4c0.7,0.7,1.7,0.7,2.4,0c0.7-0.7,0.7-1.7,0-2.4C41.2,45.6,40.1,45.6,39.5,46.2z"/>
<circle class="st1" cx="46.7" cy="41.3" r="1.8"/>
<path class="st2" d="M48.1,42.6c-0.8,0.8-2,0.8-2.7,0s-0.8-2,0-2.7c0.8-0.8,2-0.8,2.7,0C48.9,40.7,48.9,41.9,48.1,42.6z M45.6,40.1
	c-0.7,0.7-0.7,1.7,0,2.4c0.7,0.7,1.7,0.7,2.4,0c0.7-0.7,0.7-1.7,0-2.4C47.3,39.4,46.2,39.4,45.6,40.1z"/>
<circle class="st3" cx="53.5" cy="34.6" r="1.8"/>
<path class="st2" d="M54.9,36c-0.8,0.8-2,0.8-2.7,0s-0.8-2,0-2.7s2-0.8,2.7,0S55.6,35.2,54.9,36z M52.3,33.4c-0.7,0.7-0.7,1.7,0,2.4
	c0.7,0.7,1.7,0.7,2.4,0c0.7-0.7,0.7-1.7,0-2.4C54,32.8,53,32.8,52.3,33.4z"/>
<circle class="st1" cx="40.1" cy="59.1" r="1.8"/>
<path class="st2" d="M41.5,60.5c-0.8,0.8-2,0.8-2.7,0c-0.8-0.8-0.8-2,0-2.7c0.8-0.8,2-0.8,2.7,0C42.2,58.5,42.2,59.8,41.5,60.5z
	 M38.9,58c-0.7,0.7-0.7,1.7,0,2.4c0.7,0.7,1.7,0.7,2.4,0c0.7-0.7,0.7-1.7,0-2.4C40.6,57.3,39.6,57.3,38.9,58z"/>
<circle class="st1" cx="46.2" cy="53" r="1.8"/>
<path class="st2" d="M47.6,54.4c-0.8,0.8-2,0.8-2.7,0s-0.8-2,0-2.7c0.8-0.8,2-0.8,2.7,0S48.4,53.6,47.6,54.4z M45,51.8
	c-0.7,0.7-0.7,1.7,0,2.4c0.7,0.7,1.7,0.7,2.4,0c0.7-0.7,0.7-1.7,0-2.4C46.8,51.2,45.7,51.2,45,51.8z"/>
<circle class="st1" cx="52.3" cy="46.8" r="1.8"/>
<path class="st2" d="M53.7,48.2c-0.8,0.8-2,0.8-2.7,0c-0.8-0.8-0.8-2,0-2.7c0.8-0.8,2-0.8,2.7,0C54.4,46.2,54.4,47.5,53.7,48.2z
	 M51.1,45.6c-0.7,0.7-0.7,1.7,0,2.4c0.7,0.7,1.7,0.7,2.4,0c0.7-0.7,0.7-1.7,0-2.4C52.9,45,51.8,45,51.1,45.6z"/>
<circle class="st3" cx="59.1" cy="40.2" r="1.8"/>
<path class="st2" d="M60.4,41.5c-0.8,0.8-2,0.8-2.7,0s-0.8-2,0-2.7s2-0.8,2.7,0S61.2,40.8,60.4,41.5z M57.9,39
	c-0.7,0.7-0.7,1.7,0,2.4c0.7,0.7,1.7,0.7,2.4,0c0.7-0.7,0.7-1.7,0-2.4C59.6,38.3,58.5,38.3,57.9,39z"/>
</svg>
