<?xml version="1.0" encoding="utf-8"?>
<!-- Generator: Adobe Illustrator 26.0.1, SVG Export Plug-In . SVG Version: 6.00 Build 0)  -->
<svg version="1.1" id="Layer_1" xmlns="http://www.w3.org/2000/svg" xmlns:xlink="http://www.w3.org/1999/xlink" x="0px" y="0px"
	 viewBox="0 0 158.8 134.8" style="enable-background:new 0 0 158.8 134.8;" xml:space="preserve">
<style type="text/css">
	.st0{fill:#E6E6E6;}
	.st1{fill:#C8B594;}
	.st2{fill:#F26C56;}
	.st3{fill:#373431;}
	.st4{fill:#D4D4D4;}
	.st5{fill:#9B9B8A;enable-background:new    ;}
	.st6{fill:#DC7927;}
	.st7{fill:#FFFFFF;}
	.st8{fill:#431B10;}
</style>
<path class="st0" d="M5.3,6.9c1-1.1,1.9-2.2,2.9-3.3c15.3,12.2,30.6,24.3,45.9,36.5c-1.8,2.1-3.7,4.3-5.5,6.4
	C34.1,33.3,19.7,20.1,5.3,6.9z"/>
<path class="st1" d="M35.7,87.6l-9.3,1.5c-1.8,0.3-3-0.4-3.5-2.5L34,84.9c0.7-0.1,1.3-0.8,1.1-1.6l-2.5-16.2l3.2-0.5l2.5,17.1
	C38.6,86.3,37.6,87.3,35.7,87.6z"/>
<path class="st2" d="M34,85l-11.2,1.8L22,86.9l-0.2-0.2l-3-19.2l12.1-1.9c0.8-0.1,1.5,0.4,1.6,1.2l0.1,0.3l2.6,16.4
	C35.2,84.3,34.7,84.9,34,85z"/>
<path class="st2" d="M18.8,67.4l3,19.3L18.8,67.4z"/>
<path class="st2" d="M21.8,86.7L21.8,86.7L21.8,86.7z"/>
<path class="st3" d="M32.4,54.1l-13,2L19.2,55c0-0.4,0.2-0.7,0.6-0.8l11.6-1.8c0.5,0,0.8,0.2,0.8,0.6L32.4,54.1z"/>
<path class="st4" d="M39.3,84.5v1c-0.2,1.5-1.3,2.7-2.8,3.1L26,90.2h-1c-1.5-0.2-2.7-1.3-3-2.9l-0.1-0.5l1-0.2
	c0.5,2.1,1.7,2.8,3.5,2.5l9.3-1.5c1.9-0.3,2.9-1.3,2.5-3.9l-2.5-17l-3.1,0.6L32.5,67c-0.1-0.8-0.7-1.4-1.5-1.3l-12.1,1.9l-0.1-0.4
	c-0.1-0.2-0.1-0.3-0.1-0.4v-0.7c0.2-1.2,1-2.3,2.2-2.7c0.6-0.3,1-0.9,0.9-1.6v-0.2l-0.3-1.9l-0.8,0.1c-0.4,0-0.7-0.2-0.8-0.6
	l-0.2-1.4l-0.3-1.7l13-2l0.5,3.2c0,0.2-0.1,0.5-0.2,0.6c-0.1,0.1-0.2,0.2-0.4,0.2l-0.8,0.1l0.3,1.9l0,0c0.1,0.7,0.7,1.3,1.4,1.3
	c1.1,0.1,2.7,0.6,3.1,3L39.3,84.5z"/>
<polygon class="st5" points="43.7,36 43,36.7 11.5,9.3 10.1,7.5 "/>
<polygon class="st0" points="139.8,99.1 135.2,105.3 133.7,107.1 72.3,54.6 66,62 127.8,114.1 126.1,116 120.8,121.5 119.2,120.1 
	123.2,114.7 119.5,111.6 120.2,110.8 56.4,56.6 58.5,53.3 48.8,44.6 52.3,40.4 62.4,48.7 65.4,46 129.1,100.2 129.8,99.5 
	133.4,102.6 138.1,97.7 "/>
<path class="st0" d="M155.6,122.4l-2.3,3l-1.8,2.1l-0.4,0.5l-0.4,0.5l-1.8,2.1l-2.6,2.7l-0.8-0.7l2.1-3l0.4-0.5
	c-0.9-0.8-8.2-6.7-8.9-7.4c-0.8-0.7-4.2-1.6-5.4-2.6l-6-5L66,62l6.3-7.4l61.4,52.5l6,5.1c1.2,1,2.7,4.3,3.4,4.9s7.8,6.8,8.7,7.6
	l0.4-0.5l2.6-2.7L155.6,122.4z"/>
<polygon class="st6" points="59.3,45.1 52.4,39.7 50.3,39.9 45.7,36 44.6,37.3 44.5,37.5 43.4,38.8 47.9,42.7 48.1,44.8 54.6,50.7 
	54.1,51.2 54.8,51.7 60.3,45.1 59.7,44.6 "/>
<path class="st7" d="M42.8,36.6l0.6,2.2l2.4-2.8l-2.3-0.2c-0.3,0-0.6,0.2-0.7,0.6C42.8,36.5,42.8,36.5,42.8,36.6"/>
<path class="st8" d="M61.2,53.3l-1.5,4.2l7.3,6.2l3.5-4.2l3.5-4.2l-7.3-6.2l-3.9,2.1C62.1,51.7,61.5,52.4,61.2,53.3"/>
<polygon points="73.7,65.8 71,69 70.7,68.7 73.3,65.5 "/>
<polygon points="75.9,67.7 73.2,70.9 72.9,70.6 75.6,67.4 "/>
<polygon points="78.1,69.6 75.5,72.8 75.1,72.5 77.8,69.3 "/>
<polygon points="80.4,71.5 77.7,74.7 77.4,74.4 80,71.2 "/>
<polygon points="84.8,75.3 82.2,78.5 81.8,78.2 84.5,75 "/>
<polygon points="87.1,77.2 84.4,80.4 84.1,80.1 86.7,76.9 "/>
<polygon points="89.3,79.1 86.6,82.3 86.3,82 89,78.8 "/>
<rect x="88.2" y="82.9" transform="matrix(0.65 -0.76 0.76 0.65 -31.5412 97.6628)" width="4.1" height="0.4"/>
<polygon points="96,84.8 93.3,88 93,87.7 95.7,84.5 "/>
<polygon points="98.2,86.7 95.6,89.9 95.2,89.6 97.9,86.4 "/>
<rect x="96.9" y="89.8" transform="matrix(0.6457 -0.7636 0.7636 0.6457 -33.6698 107.4238)" width="4.1" height="0.4"/>
<polygon points="102.7,90.5 100,93.7 99.7,93.4 102.4,90.2 "/>
<rect x="67.2" y="63.6" transform="matrix(0.6459 -0.7635 0.7635 0.6459 -23.3907 77.1827)" width="8.5" height="0.4"/>
<rect x="78.4" y="73" transform="matrix(0.6459 -0.7635 0.7635 0.6459 -26.5978 89.0163)" width="8.5" height="0.4"/>
<polygon points="96.6,79.6 91.1,86.1 90.8,85.8 96.2,79.3 "/>
<polygon points="107.7,89.1 102.3,95.6 101.9,95.3 107.4,88.8 "/>
<polygon points="107.3,94.4 104.6,97.5 104.3,97.3 106.9,94.1 "/>
<polygon points="109.5,96.3 106.8,99.4 106.5,99.2 109.2,96 "/>
<polygon points="111.7,98.2 109.1,101.3 108.7,101.1 111.4,97.9 "/>
<polygon points="114,100.1 111.3,103.2 111,103 113.6,99.8 "/>
<polygon points="119,98.7 113.5,105.1 113.2,104.9 118.7,98.4 "/>
<path class="st0" d="M48.6,46.5c1.9-2.3,3.7-4.5,5.6-6.8c1.2,1,2.5,1.9,3.7,2.9c-1.9,2.4-3.7,4.8-5.6,7.1
	C51.1,48.7,49.8,47.6,48.6,46.5z"/>
</svg>
