<svg width="24" height="24" viewBox="0 0 24 24" fill="none" xmlns="http://www.w3.org/2000/svg">
<path className="pathcc" fill-rule="evenodd" clip-rule="evenodd" d="M22 12C22 17.52 17.52 22 12 22C6.48 22 2 17.52 2 12C2 6.48 6.48 2 12 2C17.52 2 22 6.48 22 12ZM9.93599 6H14.9893C15.5452 6 16 6.49091 16 7.09091V16.9091C16 17.5091 15.5452 18 14.9893 18H9.93599C9.38012 18 8.92532 17.5091 8.92532 16.9091V15.2727H9.93599V16.3636H14.9893V7.63636H9.93599V8.72727H8.92532V7.09091C8.92532 6.49091 9.38012 6 9.93599 6ZM7.64177 11.4109L8.93038 12.8018L11.9169 9.56727L12.5587 10.26L8.92532 14.1818L7 12.1036L7.64177 11.4109Z" fill="black"/>
</svg>
