<?xml version="1.0" encoding="utf-8"?>
<!-- Generator: Adobe Illustrator 26.0.1, SVG Export Plug-In . SVG Version: 6.00 Build 0)  -->
<svg version="1.1" id="Layer_1" xmlns="http://www.w3.org/2000/svg" xmlns:xlink="http://www.w3.org/1999/xlink" x="0px" y="0px"
	 viewBox="0 0 151.7 88" enable-background="new 0 0 151.7 88" xml:space="preserve">
<path fill="#EF6C56" d="M25.7,57c-0.2,0.3-0.3,0.6-0.4,0.9l-13.4-6h0c0.1-0.3,0.2-0.6,0.4-0.9L25.7,57z"/>
<path fill="#EF6C56" d="M47.4,66.8c-0.1,0.2-0.2,0.5-0.3,0.7c0,0.1-0.1,0.1-0.1,0.2l-13.5-6.1c0.2-0.3,0.3-0.6,0.4-0.9L47.4,66.8z"
	/>
<path fill="#EF6C56" d="M28.3,63.6l-6,13.3c-0.3-0.1-0.6-0.3-0.9-0.4l5.9-13.3C27.7,63.4,28,63.5,28.3,63.6z"/>
<path fill="#EF6C56" d="M25.6,61.4L12,66.6c-0.1-0.3-0.3-0.6-0.4-0.9l13.6-5.2C25.3,60.8,25.5,61.1,25.6,61.4z"/>
<path fill="#EF6C56" d="M48,52.9l-14,5.3c-0.1-0.3-0.2-0.6-0.3-1l14-5.3c0.1,0.3,0.2,0.5,0.3,0.8C47.9,52.8,47.9,52.9,48,52.9z"/>
<path fill="#EF6C56" d="M28.6,54.9c-0.3,0.1-0.7,0.2-1,0.3l-5.3-13.8c0.3-0.1,0.6-0.3,0.9-0.4h0L28.6,54.9z"/>
<path fill="#EF6C56" d="M37,76.9c-0.3,0.1-0.6,0.2-0.9,0.4l-5.2-13.7c0.3-0.1,0.6-0.2,0.9-0.4L37,76.9z"/>
<path fill="#4F2212" d="M11.9,51.9c-0.4,1-0.7,2.1-1,3.2C11.2,54,11.5,53,11.9,51.9c0.1-0.3,0.3-0.6,0.4-0.9
	C12.2,51.3,12,51.6,11.9,51.9z"/>
<path fill="#4F2212" d="M52.5,70c-4.1,8.8-13.1,14.4-22.8,14.4c-3.8,0-7.5-0.8-10.9-2.5c-6.1-2.9-10.7-8-12.9-14.4
	c-2.3-6.4-1.9-13.2,1-19.4c4.2-8.7,13.2-14.4,22.9-14.4c3,0,6,0.5,8.8,1.6l-1.1,2.2l-0.5,1l-0.7,1.4c-2.1-0.7-4.3-1.1-6.5-1.1
	c-2.4,0-4.7,0.4-6.8,1.2c-0.3,0.1-0.6,0.2-0.9,0.4c-4.5,1.9-8.4,5.4-10.5,10c0,0.1-0.1,0.2-0.1,0.3c-0.1,0.3-0.3,0.6-0.4,0.9
	c-1.8,4.6-1.9,9.6-0.3,14.3c0,0.1,0,0.1,0.1,0.2c0.1,0.3,0.2,0.6,0.4,0.9c1.9,4.6,5.3,8.2,9.8,10.4c0,0,0.1,0,0.1,0
	c0.3,0.2,0.6,0.3,0.9,0.4c2.4,1,5.1,1.6,7.7,1.6c2.3,0,4.6-0.4,6.7-1.1c0.3-0.1,0.6-0.2,0.9-0.4c4.5-1.8,8.3-5.3,10.5-9.7
	c0-0.1,0.1-0.2,0.1-0.3c0.1-0.2,0.2-0.4,0.3-0.7c2-4.6,2.2-9.8,0.6-14.6c0-0.1-0.1-0.2-0.1-0.3c-0.1-0.2-0.2-0.4-0.2-0.7
	c-1.6-4.1-4.4-7.5-8.1-9.8l0.7-1.4l0.5-1l1-2.2c5.2,3,9,7.8,11,13.4C55.8,57,55.5,63.9,52.5,70z"/>
<g>
	<g>
		<path fill="#EF6C56" d="M48.3,67.1c-0.1,0.2-0.2,0.4-0.3,0.7c0,0.1-0.1,0.2-0.1,0.3c-2.2,4.5-6,7.9-10.5,9.7
			c-0.3,0.1-0.6,0.2-0.9,0.4c-2.1,0.7-4.4,1.1-6.7,1.1c-2.6,0-5.3-0.5-7.7-1.6c-0.3-0.1-0.6-0.3-0.9-0.4c0,0-0.1,0-0.1,0
			c-4.5-2.1-7.9-5.8-9.8-10.4c-0.1-0.3-0.3-0.6-0.4-0.9c0-0.1-0.1-0.1-0.1-0.2C9,61.1,9.2,56.1,11,51.5c0.1-0.3,0.2-0.6,0.4-0.9
			c0-0.1,0.1-0.2,0.1-0.3c2.2-4.6,6-8.1,10.5-10c0.3-0.1,0.6-0.2,0.9-0.4c2.2-0.8,4.5-1.2,6.8-1.2c2.2,0,4.4,0.4,6.5,1.1l-0.4,0.9
			l0,0.1c-1.9-0.7-4-1-6.1-1c-2.2,0-4.4,0.4-6.5,1.1h0c-0.3,0.1-0.6,0.2-0.9,0.4c-3.3,1.4-6.3,3.7-8.4,6.7c-0.1,0.2-0.3,0.4-0.4,0.6
			v0c-0.3,0.5-0.6,1-0.9,1.5c-0.1,0.2-0.2,0.4-0.3,0.6c0,0.1-0.1,0.1-0.1,0.2c-0.1,0.3-0.3,0.6-0.4,0.9c-0.4,1-0.7,2.1-1,3.2v0
			c-0.1,0.4-0.2,0.8-0.2,1.3c0,0.2-0.1,0.4-0.1,0.7c-0.2,1.5-0.2,3,0,4.5c0,0.3,0.1,0.7,0.2,1c0.2,1,0.5,2,0.8,2.9
			c0,0.1,0,0.1,0.1,0.2c0.1,0.3,0.2,0.6,0.4,0.9c1.8,4.3,5.1,7.8,9.4,9.9c0,0,0,0,0.1,0c0.3,0.2,0.6,0.3,0.9,0.4
			c2.3,1,4.8,1.5,7.3,1.5c2.2,0,4.4-0.4,6.4-1.1c0.3-0.1,0.6-0.2,0.9-0.4c4.3-1.8,7.9-5,10-9.3c0-0.1,0.1-0.1,0.1-0.2
			c0.1-0.2,0.2-0.5,0.3-0.7c1.9-4.4,2.1-9.3,0.5-13.8c0,0,0-0.1,0-0.1c-0.1-0.3-0.2-0.5-0.3-0.8c-1.5-3.8-4.2-7-7.7-9.2l0.1-0.1
			l0.4-0.9c3.7,2.3,6.5,5.7,8.1,9.8c0.1,0.2,0.2,0.4,0.2,0.7c0,0.1,0.1,0.2,0.1,0.3C50.5,57.4,50.3,62.5,48.3,67.1z"/>
	</g>
	<g>
		<path fill="#EF6C56" d="M48.3,67.1c-0.1,0.2-0.2,0.4-0.3,0.7c0,0.1-0.1,0.2-0.1,0.3c-2.2,4.5-6,7.9-10.5,9.7
			c-0.3,0.1-0.6,0.2-0.9,0.4c-2.1,0.7-4.4,1.1-6.7,1.1c-2.6,0-5.3-0.5-7.7-1.6c-0.3-0.1-0.6-0.3-0.9-0.4c0,0-0.1,0-0.1,0
			c-4.5-2.1-7.9-5.8-9.8-10.4c-0.1-0.3-0.3-0.6-0.4-0.9c0-0.1-0.1-0.1-0.1-0.2C9,61.1,9.2,56.1,11,51.5c0.1-0.3,0.2-0.6,0.4-0.9
			c0-0.1,0.1-0.2,0.1-0.3c2.2-4.6,6-8.1,10.5-10c0.3-0.1,0.6-0.2,0.9-0.4c2.2-0.8,4.5-1.2,6.8-1.2c2.2,0,4.4,0.4,6.5,1.1l-0.4,0.9
			l0,0.1c-1.9-0.7-4-1-6.1-1c-2.2,0-4.4,0.4-6.5,1.1h0c-0.3,0.1-0.6,0.2-0.9,0.4c-3.3,1.4-6.3,3.7-8.4,6.7c-0.1,0.2-0.3,0.4-0.4,0.6
			v0c-0.3,0.5-0.6,1-0.9,1.5c-0.1,0.2-0.2,0.4-0.3,0.6c0,0.1-0.1,0.1-0.1,0.2c-0.1,0.3-0.3,0.6-0.4,0.9c-0.4,1-0.7,2.1-1,3.2v0
			c-0.1,0.4-0.2,0.8-0.2,1.3c0,0.2-0.1,0.4-0.1,0.7c-0.2,1.5-0.2,3,0,4.5c0,0.3,0.1,0.7,0.2,1c0.2,1,0.5,2,0.8,2.9
			c0,0.1,0,0.1,0.1,0.2c0.1,0.3,0.2,0.6,0.4,0.9c1.8,4.3,5.1,7.8,9.4,9.9c0,0,0,0,0.1,0c0.3,0.2,0.6,0.3,0.9,0.4
			c2.3,1,4.8,1.5,7.3,1.5c2.2,0,4.4-0.4,6.4-1.1c0.3-0.1,0.6-0.2,0.9-0.4c4.3-1.8,7.9-5,10-9.3c0-0.1,0.1-0.1,0.1-0.2
			c0.1-0.2,0.2-0.5,0.3-0.7c1.9-4.4,2.1-9.3,0.5-13.8c0,0,0-0.1,0-0.1c-0.1-0.3-0.2-0.5-0.3-0.8c-1.5-3.8-4.2-7-7.7-9.2l0.1-0.1
			l0.4-0.9c3.7,2.3,6.5,5.7,8.1,9.8c0.1,0.2,0.2,0.4,0.2,0.7c0,0.1,0.1,0.2,0.1,0.3C50.5,57.4,50.3,62.5,48.3,67.1z"/>
	</g>
</g>
<path fill="#4F2212" d="M43.7,34.8l-1.1,2.4l-1,2.2l-0.5,1l-0.7,1.4L40,42.7l-0.1,0.1l-6.6,13.9c-0.3-0.5-0.8-0.9-1.3-1.3
	c-0.3-0.2-0.6-0.3-0.9-0.4c-0.5-0.2-1-0.2-1.5-0.2c-0.1,0-0.3,0-0.4,0l6.7-13.9l0-0.1l0.4-0.9l0.7-1.4l0.5-1l1.1-2.2l1.1-2.3
	c0.9,0.3,1.8,0.7,2.7,1.1C42.8,34.3,43.3,34.6,43.7,34.8z"/>
<g>
	<path fill="#EF6C56" d="M34.1,59.3c0,0.5-0.1,1-0.2,1.4c-0.1,0.3-0.2,0.6-0.4,0.9c-0.4,0.7-1,1.2-1.7,1.6c-0.3,0.2-0.6,0.3-0.9,0.4
		c-0.4,0.1-0.8,0.2-1.3,0.2c-0.4,0-0.9-0.1-1.3-0.2c-0.3-0.1-0.6-0.2-0.9-0.4c-0.8-0.4-1.4-1-1.8-1.8c-0.2-0.3-0.3-0.6-0.4-0.9
		c-0.1-0.4-0.2-0.8-0.2-1.2c0-0.5,0.1-0.9,0.2-1.4c0.1-0.3,0.2-0.6,0.4-0.9c0.5-0.8,1.1-1.4,2-1.8c0.3-0.1,0.6-0.2,1-0.3
		c0.2,0,0.4-0.1,0.6-0.1c0.1,0,0.2,0,0.4,0c0.5,0,1,0.1,1.5,0.2c0.3,0.1,0.6,0.3,0.9,0.4c0.5,0.3,1,0.8,1.3,1.3
		c0.1,0.2,0.2,0.4,0.3,0.6c0.1,0.3,0.3,0.6,0.3,1C34.1,58.6,34.1,58.9,34.1,59.3z"/>
</g>
<g>
	<path fill="#4F2212" d="M83.2,25l-0.5-0.5l0.3,0C83,24.6,83.1,24.8,83.2,25z"/>
	<path fill="#4F2212" d="M97.5,39c0,0-0.1,0.1-0.1,0.1L83.2,25c0,0,0,0,0,0L97.5,39z"/>
	<path fill="#4F2212" d="M109.8,30l-0.2,0.2l-0.1,0.1l0-0.1h-0.1c0,0,0,0,0.1,0C109.6,30.1,109.7,30.1,109.8,30z"/>
</g>
<path fill="#7D1520" d="M142.6,16.5c0,3.9-3,7.4-11.5,10.4c-0.5,0.2-0.9,0.3-1.4,0.4l-0.3,0.1v1.8c-0.9-0.3-1.8-0.5-2.7-0.7
	c-2.3-0.5-4.7-0.7-7.1-0.6c-3.4,0.2-6.7,0.9-9.8,2c-0.1,0-0.2,0.1-0.3,0.1c0,0,0,0-0.1,0c-1.6,0.6-3.1,1.4-4.5,2.3
	c-2.8,1.7-5.3,3.9-7.4,6.5L83.2,25c-0.1-0.2-0.2-0.3-0.2-0.5c0,0-0.1-0.1-0.1-0.2l1.6-0.2c0,0,9.5,1,16.2,0
	c4.5-0.7,9.8-4.3,14.6-7.2h0c1.7-2.5,6.5-4.1,12.5-4.5c0,0,0.1,0,0.1,0c0,0,0,0,0,0c3.8-0.4,6.8-0.1,6.8-0.1l0,0
	c1.6,0,2.9,0.1,4,0.3c0,0,0.1,0,0.1,0C141.7,13.1,142.7,14,142.6,16.5z"/>
<g>
	<g>
		<path fill="#7D1520" d="M103.5,67.6l-0.1,0l-0.7,0.3c-0.1-0.3-0.3-0.6-0.4-0.9l0.7-0.3l0.1,0C103.2,66.9,103.3,67.3,103.5,67.6z"
			/>
		<path fill="#7D1520" d="M138.6,51.9L138.6,51.9c-0.1-0.3-0.3-0.6-0.4-0.9l0,0C138.3,51.2,138.4,51.6,138.6,51.9z"/>
	</g>
	<g>
		<path fill="#7D1520" d="M138.8,65.8c-0.1,0.3-0.2,0.6-0.4,0.9l0,0C138.6,66.4,138.7,66.1,138.8,65.8L138.8,65.8z"/>
	</g>
	<g>
		<path fill="#7D1520" d="M128,41.2L128,41.2c-0.3-0.1-0.6-0.2-0.9-0.3l0,0C127.4,41,127.7,41.1,128,41.2z"/>
	</g>
	<g>
		<path fill="#4F2212" d="M103.3,67.5c-0.1-0.3-0.2-0.5-0.3-0.8c-0.6-1.3-1-2.7-1.2-4.1H101c0.2,1.1,0.5,2.1,0.8,3.2
			c0.1,0.4,0.3,0.8,0.5,1.2c0.1,0.3,0.3,0.6,0.4,0.9l0.7-0.3C103.3,67.6,103.3,67.5,103.3,67.5z"/>
	</g>
</g>
<path fill="#EF6C56" d="M138.8,65.8c-0.1,0.3-0.2,0.6-0.4,0.9l0,0C138.6,66.4,138.7,66.1,138.8,65.8c0,0,0.1-0.1,0.1-0.2
	c0.1-0.4,0.2-0.8,0.3-1.1C139.1,64.9,139,65.3,138.8,65.8z M103,66.6c-0.2-0.4-0.3-0.8-0.5-1.1c-0.3-0.9-0.6-1.9-0.8-2.9H101
	c0.2,1.1,0.5,2.1,0.8,3.2c0.1,0.4,0.3,0.8,0.5,1.2c0.1,0.3,0.3,0.6,0.4,0.9l0.7-0.3l0.1,0C103.3,67.3,103.2,66.9,103,66.6z
	 M139.2,64.5c0.2-0.7,0.3-1.4,0.5-2.1C139.6,63.1,139.4,63.8,139.2,64.5z M138.6,51.9c-0.1-0.3-0.2-0.6-0.4-0.9c0,0,0-0.1-0.1-0.1
	c-2.1-4.4-5.8-7.8-10.1-9.6c-0.3-0.1-0.6-0.2-0.9-0.4l0,0c0.3,0.1,0.6,0.2,0.9,0.4c0.4,0.1,0.8,0.3,1.1,0.5c4,2,7.2,5.2,9,9.2
	C138.3,51.3,138.4,51.6,138.6,51.9c0.1,0.3,0.2,0.6,0.3,0.9C138.8,52.5,138.7,52.2,138.6,51.9z"/>
<path fill="#EF6C56" d="M102.9,52c-0.1,0.3-0.2,0.6-0.3,0.9c-0.2,0.7-0.4,1.4-0.6,2.1c-0.5,2.5-0.6,5-0.1,7.5H101
	c-0.5-2.5-0.4-5,0.1-7.5c0.1-0.8,0.4-1.6,0.6-2.4c0.1-0.3,0.2-0.6,0.3-0.9c0.2-0.5,0.4-1,0.6-1.4c1.6-3.4,4.1-6.2,7.1-8.1l0.5,1
	c-2.9,1.9-5.2,4.5-6.8,7.7C103.2,51.2,103,51.6,102.9,52z"/>
<path fill="#EF6C56" d="M139.8,66.1c-0.1,0.3-0.2,0.6-0.4,0.9c-0.1,0.2-0.2,0.5-0.3,0.7c-2.1,4.3-5.6,7.6-9.8,9.6
	c-0.3,0.1-0.6,0.3-0.9,0.4h0c-2.4,1-5,1.5-7.6,1.5c-2.3,0-4.7-0.4-6.9-1.2c-0.3-0.1-0.6-0.2-0.9-0.4c-0.3-0.1-0.6-0.3-0.9-0.4
	c-4.2-2-7.4-5.3-9.4-9.4l0.7-0.3l0.1,0c1.9,3.8,5,7,8.9,8.9c0.3,0.2,0.6,0.3,0.9,0.4c0.3,0.1,0.6,0.3,0.9,0.4
	c2.1,0.8,4.2,1.1,6.5,1.1c2.6,0,5-0.5,7.3-1.5c0.3-0.1,0.6-0.3,0.9-0.4c3.9-1.9,7.2-5,9.1-9c0.1-0.3,0.2-0.5,0.4-0.8l0,0
	c0.1-0.3,0.2-0.6,0.4-0.9c0-0.1,0-0.1,0.1-0.2c0.1-0.4,0.2-0.8,0.3-1.1c0.2-0.7,0.3-1.4,0.5-2.1c0.1-0.7,0.2-1.3,0.2-2
	c0-0.1,0-0.2,0-0.4c0-0.6,0-1.1,0-1.7c0-0.2,0-0.4,0-0.5c0,0,0,0,0-0.1c0-0.2,0-0.3,0-0.5c0-0.1,0-0.2,0-0.3c0-0.2,0-0.3-0.1-0.5
	c0-0.2,0-0.4-0.1-0.5c-0.1-0.3-0.1-0.7-0.2-1c-0.1-0.3-0.1-0.6-0.2-0.9c-0.1-0.3-0.1-0.5-0.2-0.8c0-0.2-0.1-0.3-0.1-0.5
	c-0.1-0.3-0.2-0.6-0.3-0.9c-0.1-0.3-0.2-0.6-0.4-0.9c0,0,0-0.1-0.1-0.1c-2.1-4.4-5.8-7.8-10.1-9.6c-0.3-0.1-0.6-0.2-0.9-0.4l0,0
	c-2-0.7-4.1-1-6.2-1c-2.1,0-4.1,0.3-6,1l-0.5-1c2.1-0.7,4.3-1.1,6.6-1.1c2.2,0,4.4,0.4,6.5,1.1c0.3,0.1,0.6,0.2,0.9,0.3
	c0.4,0.2,0.8,0.4,1.2,0.5c4.3,2,7.6,5.4,9.6,9.7c0.1,0.3,0.3,0.6,0.4,0.9c0.1,0.3,0.2,0.6,0.3,0.9C141.5,56.8,141.4,61.7,139.8,66.1
	z"/>
<path fill="#EF6C56" d="M123,63.2l6,13.3c-0.3,0.1-0.6,0.3-0.9,0.4l-6-13.3c-0.4,0.1-0.8,0.2-1.3,0.2c-0.5,0-0.9-0.1-1.3-0.2
	l-5.2,13.7c-0.3-0.1-0.6-0.2-0.9-0.4l5.2-13.7c-0.3-0.2-0.6-0.4-0.8-0.6c-0.3-0.3-0.6-0.7-0.8-1l-2.4,1l-11.1,5
	c-0.1-0.3-0.3-0.6-0.4-0.9l9-4l4.4-2c-0.1-0.4-0.2-0.9-0.2-1.3c0-0.4,0-0.7,0.1-1l-8.5-3.2l-5.4-2.1c0.1-0.3,0.2-0.6,0.3-0.9l7.9,3
	h0l6,2.3c0.1-0.2,0.1-0.3,0.2-0.4c0.4-0.6,0.9-1.1,1.5-1.4c0.3-0.2,0.6-0.3,0.9-0.4c0,0,0.1,0,0.1,0h0c0.4-0.1,0.9-0.2,1.4-0.2
	c0.3,0,0.6,0,0.9,0.1l5.3-14c0.3,0.1,0.6,0.2,0.9,0.4l-5.3,13.9c0.8,0.4,1.5,1,2,1.8l13.5-6c0.1,0.3,0.3,0.6,0.4,0.9l-13.5,6
	c0.1,0.5,0.2,0.9,0.2,1.4c0,0.4-0.1,0.8-0.2,1.2l13.7,5.2c-0.1,0.3-0.2,0.6-0.4,0.9l-13.7-5.2C124.3,62.2,123.7,62.8,123,63.2z"/>
<path fill="#4F2212" d="M109.5,30.2L109.5,30.2C109.5,30.2,109.5,30.2,109.5,30.2L109.5,30.2z"/>
<path fill="#4F2212" d="M121.7,54.9c-0.3-0.1-0.6-0.1-0.9-0.1c-0.5,0-0.9,0.1-1.4,0.2h-1.2l-2.2,0L111,44.7l-0.8-1.6l-0.5-1
	l-2.3-4.8l-0.5-1l-0.4-0.8c0.6-0.5,1.3-1,2.1-1.4c0.9-0.4,1.7-0.7,2.5-0.9l0.8,1.5l0.2,0.4l2.3,4.7l0.5,1l1,1.9L121.7,54.9z"/>
<polygon fill="#4F2212" points="107.3,37.4 107.3,37.4 106.8,36.4 "/>
<path fill="#F3AD1C" d="M145.3,40.7l-2.4,1.8c-5.4-7.3-14.1-11.5-23.2-11.1c-3,0.1-6,0.7-8.7,1.8l0,0c-0.8,0.2-1.6,0.5-2.5,0.9
	c-0.8,0.4-1.5,0.9-2.1,1.4l0,0c-2.6,1.6-4.9,3.7-6.9,6.1l1.4,1.4c-1.8,2.2-3.2,4.8-4.2,7.6c-1.4,3.9-1.7,8-1.1,12.1L78.8,67
	l-6.2-7.1h-5.7l-9.6-20.6l-9.2-9.2l-1.4,3c7.8,4.9,13,13.1,14,22.5l-3,0.3c-0.9-9-6.2-16.8-14-21.1c-0.5-0.3-0.9-0.5-1.4-0.7
	c-0.9-0.4-1.8-0.8-2.7-1.1c-7.6-2.7-16-1.9-23,2.2l-1.5-2.6c7.4-4.3,16.1-5.3,24.2-2.8l1.1-2.4v-17h8.1L51.1,5L58,8.3h1.1V7.9h8v3.5
	h-8v-0.5h-1.8l-5.7,11.9c2.8-3.2,8.5-5.4,15.1-5.4c7.6,0,14,2.9,16.2,6.9c0,0,0.1,0.1,0.1,0.2l-0.3,0l0.5,0.5c0,0,0,0,0,0l14.2,14.1
	c0,0,0.1-0.1,0.1-0.1c2.1-2.6,4.6-4.8,7.4-6.5c1.4-0.9,2.9-1.7,4.5-2.3h0.1l0,0.1l0.1-0.1l0.2-0.2c3.1-1.2,6.3-1.9,9.8-2
	c2.4-0.1,4.8,0.1,7.1,0.6c0.9,0.2,1.8,0.4,2.7,0.7C135.7,31.1,141.3,35,145.3,40.7z"/>
<path fill="#4F2212" d="M143.4,48.1c-4.2-8.8-13.2-14.4-22.9-14.4c-2.9,0-5.8,0.5-8.5,1.5l2.3,4.7c2.1-0.7,4.3-1.1,6.6-1.1
	c2.2,0,4.4,0.4,6.5,1.1c0.3,0.1,0.6,0.2,0.9,0.3c0.4,0.2,0.8,0.4,1.2,0.5c4.3,2,7.6,5.4,9.6,9.7c0.1,0.3,0.3,0.6,0.4,0.9
	c0.1,0.3,0.2,0.6,0.3,0.9c1.6,4.5,1.5,9.4-0.1,13.8c-0.1,0.3-0.2,0.6-0.4,0.9c-0.1,0.2-0.2,0.5-0.3,0.7c-2.1,4.3-5.6,7.6-9.8,9.6
	c-0.3,0.1-0.6,0.3-0.9,0.4h0c-2.4,1-5,1.5-7.6,1.5c-2.3,0-4.7-0.4-6.9-1.2c-0.3-0.1-0.6-0.2-0.9-0.4c-0.3-0.1-0.6-0.3-0.9-0.4
	c-4.2-2-7.4-5.3-9.4-9.4c-0.1-0.3-0.3-0.6-0.4-0.9c-0.2-0.4-0.3-0.8-0.5-1.2c-0.4-1.1-0.6-2.1-0.8-3.2c-0.5-2.5-0.4-5,0.1-7.5
	c0.1-0.8,0.4-1.6,0.6-2.4c0.1-0.3,0.2-0.6,0.3-0.9c0.2-0.5,0.4-1,0.6-1.4c1.6-3.4,4.1-6.2,7.1-8.1l-2.3-4.8h0
	c-2.5,1.5-4.6,3.4-6.4,5.6c-1.8,2.2-3.2,4.8-4.2,7.6c-1.4,3.9-1.7,8-1.1,12.1c0.4,2.5,1.1,5,2.2,7.3c4.2,8.8,13.2,14.4,22.9,14.4
	c3.8,0,7.5-0.8,10.9-2.5c6.1-2.9,10.7-8,12.9-14.4C146.7,61.1,146.3,54.2,143.4,48.1z"/>
<path fill="#4F2212" d="M119.4,55C119.4,55,119.4,55,119.4,55L119.4,55L119.4,55z"/>
<g>
	<path fill="#4F2212" d="M109.8,30l-0.2,0.2h-0.2c0,0,0,0,0.1,0C109.6,30.1,109.7,30.1,109.8,30z"/>
</g>
<g>
	<path fill="#7D1520" d="M83.2,25l-0.5-0.5l0.3,0C83,24.6,83.1,24.8,83.2,25z"/>
	<path fill="#7D1520" d="M109.8,30l-0.2,0.2l-0.1,0.1l0-0.1h-0.1c0,0,0,0,0.1,0C109.6,30.1,109.7,30.1,109.8,30z"/>
</g>
<path fill="#4F2212" d="M116.5,60.6l-4.4,2h-10.3c-0.5-2.5-0.4-5,0.1-7.5l6,0l8.5,3.2c-0.1,0.3-0.1,0.7-0.1,1
	C116.3,59.8,116.4,60.2,116.5,60.6z"/>
<path fill="#4F2212" d="M119.3,55c-0.3,0.1-0.6,0.2-0.9,0.4c-0.6,0.4-1.1,0.8-1.5,1.4c-0.1,0.1-0.2,0.3-0.2,0.4l-6-2.3l5.3,0l2.2,0
	L119.3,55L119.3,55z"/>
<path fill="#4F2212" d="M119.4,55C119.4,55,119.4,55,119.4,55L119.4,55L119.4,55z"/>
<path fill="#4F2212" d="M117.7,62.6h-3.2l2.4-1C117.1,61.9,117.4,62.3,117.7,62.6z"/>
<path fill="#4F2212" d="M83.2,25l-0.5-0.5l0.3,0C83,24.6,83.1,24.8,83.2,25z"/>
<path fill="#4F2212" d="M109.8,30l-0.2,0.2l-0.1,0.1l0-0.1h-0.1c0,0,0,0,0.1,0C109.6,30.1,109.7,30.1,109.8,30z"/>
<polygon fill="#EF6C56" points="40.4,13.8 40.4,25.5 36.4,25.5 36.4,26.9 32.1,26.9 32.1,12.2 36.4,12.2 36.4,13.8 "/>
<path fill="#F3AD1C" d="M108.5,34.4L108.5,34.4z"/>
</svg>
