<svg width="140" height="141" viewBox="0 0 140 141" fill="none" xmlns="http://www.w3.org/2000/svg">
<path d="M31.7245 60.7039L39.8482 58.7257L52.0338 55.7582L50.0556 47.6344L37.8699 50.602L34.9025 38.4165L26.7788 40.3948L29.7462 52.5802L31.7245 60.7039Z" fill="#333333"/>
<path fill-rule="evenodd" clip-rule="evenodd" d="M31.6299 53.4991L33.1858 59.8882L38.5992 58.5699C43.2975 45.7837 55.5796 36.6683 70.0001 36.6683C88.4782 36.6683 103.445 51.6348 103.445 70.1129C103.445 78.8895 100.068 86.8742 94.5421 92.8391C94.5421 92.8391 84.1004 86.8009 70.3776 86.8009C57.345 86.8009 47.4545 91.7676 45.7267 92.6921L45.7256 92.7117L38.1159 97.1436C45.7863 106.181 57.2274 111.918 70.0001 111.918C93.0767 111.918 111.805 93.1896 111.805 70.1129C111.805 47.0362 93.0767 28.3071 70.0001 28.3071C52.8263 28.3071 38.06 38.6803 31.6299 53.4991ZM70.0001 78.5409C79.2391 78.5409 86.7221 71.0574 86.7221 61.8184C86.7221 52.5793 79.2391 45.0962 70.0001 45.0962C60.761 45.0962 53.278 52.5793 53.278 61.8184C53.278 71.0574 60.761 78.5409 70.0001 78.5409Z" fill="#333333"/>
</svg>
