<?xml version="1.0" encoding="utf-8"?>
<!-- Generator: Adobe Illustrator 26.0.1, SVG Export Plug-In . SVG Version: 6.00 Build 0)  -->
<svg version="1.1" id="Layer_1" xmlns="http://www.w3.org/2000/svg" xmlns:xlink="http://www.w3.org/1999/xlink" x="0px" y="0px"
	 viewBox="0 0 194.8 105.9" enable-background="new 0 0 194.8 105.9" xml:space="preserve">
<path fill="#7C161E" d="M97.2,62.2c-0.1-0.1-0.2-0.1-0.3-0.2C96.9,62,97,62.1,97.2,62.2l-0.1-1.7C97.1,61.1,97.1,61.6,97.2,62.2z"/>
<path fill="#7C161E" d="M97.5,62c-0.1,0.1-0.2,0.1-0.3,0.2c0-0.6,0.1-1.1,0.1-1.7v1.6C97.3,62.1,97.4,62,97.5,62z"/>
<path fill="#7C161E" d="M19.6,63.4L6.7,71.9L19.6,63.4c0-0.1-0.1-0.1-0.1-0.1L35.6,20h0L19.6,63.4L19.6,63.4L19.6,63.4z"/>
<path fill="#7C161E" d="M174.8,63.3l12.9,8.6L174.8,63.3L174.8,63.3L174.8,63.3l-16-43.3h0L174.8,63.3
	C174.8,63.3,174.8,63.3,174.8,63.3z"/>
<path fill="#7C161E" d="M191.3,74.5c0,1.1-0.9,2-2,2L113.1,72c-1.9-0.2-2.3-0.4-1.9,1c0.3,0.7-0.2,1.6-1.4,1.5H84.7
	c-1.7,0.1-1.6-1.1-1.4-1.5c0.5-1.2,0-1.2-1.9-1L5.2,76.5c-0.2,0-0.5,0-0.7-0.1c-1-0.4-1.5-1.6-1.1-2.6l21.6-52
	c0.5-1,1.4-1.7,2.5-1.7l0.8,0L6.7,71.9c0,0.1,30,2.7,54.7-1.3C78,68,86.5,70.2,86.5,70.2c4.4-7.1,10.7-8,10.7-8s6.3,0.9,10.7,8
	c0,0,8.5-2.2,25.1,0.4c24.7,4,54.7,1.4,54.7,1.3l-21.6-51.8l0.9,0c1,0,2,0.7,2.4,1.7l21.6,52C191.1,74.1,191.2,74.3,191.3,74.5z"/>
<path fill="#FFFFFF" d="M96.7,19.1c-0.6,13.8-0.5,27.6,0.4,41.4v1.6c-0.1,0-0.1-0.1-0.2-0.1C87,55.1,67.4,59.1,56,61.6
	c-11.2,2.4-35.2,1.7-36.4,1.7l16-43.3l2.2-6c5.4,0.1,10.7-0.3,16-1.4c7.4-1.6,14.4-4.8,21.9-6.2s16-0.7,21.4,4.5v1.5
	C96.9,14.6,96.8,16.9,96.7,19.1z"/>
<path fill="#FFFFFF" d="M37.8,14l-2.2,6l-16,43.3l0,0c0,0,0,0,0,0c0,0,0,0-0.1,0L35.6,20L37.8,14z"/>
<path fill="#E9E9EA" d="M97.3,60.5c0,0.6-0.1,1.1-0.1,1.7c0-0.6-0.1-1.1-0.1-1.7c-0.8-13.8-1-27.6-0.4-41.4c0.1-2.2,0.2-4.5,0.4-6.7
	c0-0.6,0.1-1.1,0.1-1.7c0,0.6,0.1,1.1,0.1,1.7c0.1,2.2,0.2,4.5,0.3,6.7C98.2,32.9,98.1,46.8,97.3,60.5z"/>
<path fill="#E9E9EA" d="M35.6,20L19.5,63.3c0,0,0.1,0,0.1,0L6.7,71.9l21.6-51.8l0.1-0.3l9.4-5.8L35.6,20z"/>
<path fill="#E9E9EA" d="M37.8,14l-2.2,6l-16,43.3l0,0l0,0.1L6.7,71.9l12.9-8.6c0,0,0,0-0.1,0L35.6,20L37.8,14z"/>
<path fill="#E9E9EA" d="M97.2,62.2c0,0-6.3,0.9-10.7,8c0,0-8.5-2.2-25.1,0.4c-24.7,4-54.7,1.4-54.7,1.3l12.9-8.5l0-0.1l0,0
	c1.1,0,25.1,0.7,36.4-1.7c11.4-2.5,31-6.5,40.9,0.4C97,62.1,97.1,62.1,97.2,62.2z"/>
<path fill="#C9CACC" d="M19.6,63.3L19.6,63.3L19.6,63.3L6.7,71.9L19.6,63.3L19.6,63.3C19.6,63.3,19.6,63.3,19.6,63.3z"/>
<path fill="#FFFFFF" d="M174.7,63.3c-1.1,0-25.1,0.7-36.4-1.7c-11.4-2.5-31-6.5-40.9,0.4c-0.1,0-0.1,0.1-0.2,0.1v-1.6
	c0.8-13.8,0.9-27.6,0.3-41.4c-0.1-2.2-0.2-4.5-0.3-6.7v-1.5c5.4-5.2,13.9-5.9,21.4-4.5s14.5,4.6,21.9,6.2c5.3,1.1,10.6,1.5,16,1.4
	l2.2,6L174.7,63.3z"/>
<path fill="#FFFFFF" d="M174.9,63.3C174.8,63.3,174.8,63.3,174.9,63.3c-0.1,0-0.1,0-0.1,0l0,0l-16-43.3l-2.2-6l2.2,6L174.9,63.3z"/>
<path fill="#E9E9EA" d="M174.8,63.3C174.8,63.3,174.8,63.3,174.8,63.3l-16-43.3l-2.2-6l9.4,5.8l0.1,0.3l21.6,51.8L174.8,63.3z"/>
<path fill="#E9E9EA" d="M187.7,71.9l-12.9-8.5l0-0.1l0,0l-16-43.3l-2.2-6l2.2,6l16.1,43.3c0,0,0,0-0.1,0L187.7,71.9z"/>
<path fill="#E9E9EA" d="M187.7,71.9c0,0.1-30,2.7-54.7-1.3c-16.6-2.6-25.1-0.4-25.1-0.4c-4.4-7.1-10.7-8-10.7-8
	c0.1-0.1,0.2-0.1,0.3-0.2c9.9-6.9,29.5-2.9,40.9-0.4c11.2,2.4,35.2,1.7,36.4,1.7l0,0l0,0.1L187.7,71.9z"/>
<path fill="#C9CACC" d="M187.7,71.9l-12.9-8.5l0-0.1l0,0c0,0,0,0,0,0l0,0L187.7,71.9z"/>
<path fill="#F26C56" d="M56,80.3l-1.2,5.9l-3.4-0.6c-0.9-0.2-1.5-1-1.3-1.9c0,0,0,0,0-0.1l0.5-2.6c0.2-0.9,1-1.5,1.9-1.3L56,80.3z"
	/>
<polygon fill="#F8C35D" points="139.2,96.8 137.3,97.5 138.8,98.8 138.8,98.8 111.6,93.4 61.1,83.4 61.5,81.5 "/>
<polygon fill="#E79E1A" points="138.4,100.7 136.6,101.4 138.1,102.7 60.3,87.3 60.7,85.4 61.1,83.4 61.1,83.4 111.6,93.4 
	138.8,98.8 136.9,99.4 "/>
<polygon fill="#F7B01A" points="138.8,98.8 138.8,98.8 111.6,93.4 "/>
<polygon fill="#7B7C7F" points="61.5,81.5 61.1,83.4 61.1,83.4 60.7,85.4 60.3,87.3 54.8,86.2 56,80.3 59.2,81 59.3,81 "/>
<polygon fill="#FFFFFF" points="59,80.9 59.2,81 56,80.3 "/>
<polygon fill="#FFFFFF" points="61.1,83.4 61.1,83.5 60.7,85.4 61.1,83.4 "/>
<line fill="none" x1="59.3" y1="81" x2="59" y2="80.9"/>
<polygon fill="#DC7927" points="150.1,101.2 149.8,102.7 138.1,102.7 138.1,102.7 138.1,102.7 136.6,101.4 138.4,100.7 138.5,100.7 
	138.5,100.7 138.4,100.7 136.9,99.4 138.8,98.8 138.9,98.8 138.8,98.8 138.8,98.8 137.3,97.5 139.2,96.8 139.2,96.8 139.2,96.8 "/>
<polygon fill="#DC7927" points="153.8,102.7 149.8,102.7 150.1,101.2 "/>
<polygon fill="#414042" points="153.8,102.7 149.8,102.7 150.1,101.2 "/>
</svg>
