<svg width="24" height="24" viewBox="0 0 24 24" fill="none" xmlns="http://www.w3.org/2000/svg">
<path d="M20.7314 12.5638C20.7204 12.7312 20.7046 12.8993 20.6838 13.068C20.6412 13.4146 20.579 13.7534 20.4985 14.0836L20.4996 14.0838C20.0682 15.8494 19.101 17.4049 17.7801 18.5682C17.3934 18.9082 16.9773 19.214 16.5368 19.4816L16.5372 19.4823C16.1474 19.7192 15.7377 19.9265 15.311 20.101L15.3108 20.1006C15.1168 20.1801 14.9195 20.2528 14.7194 20.3184C13.8634 20.598 12.9494 20.7493 12 20.7493C11.8157 20.7493 11.6328 20.7436 11.4514 20.7323C11.279 20.7213 11.1059 20.7052 10.932 20.6838C10.5854 20.6412 10.2466 20.579 9.91644 20.4985L9.91618 20.4996C8.23853 20.0897 6.75057 19.1961 5.60851 17.9749L7.83369 15.7497H2.83412V20.7493L4.72412 18.8593C4.78102 18.9197 4.83868 18.9794 4.89709 19.0384C5.26537 19.4101 5.66288 19.7527 6.08542 20.0631L6.08477 20.064C6.69528 20.5127 7.36074 20.8947 8.07167 21.198C9.10201 21.6386 10.2214 21.9111 11.3953 21.9812C11.5826 21.9927 11.7692 21.9989 11.9549 22L11.955 21.9991C11.97 21.9991 11.985 21.9991 12 21.9991C12.5167 21.9991 13.0242 21.96 13.5197 21.8844L13.5199 21.8855C13.9381 21.8215 14.3489 21.7312 14.7503 21.6162C16.2026 21.2016 17.5199 20.4668 18.6209 19.4932C18.7637 19.3672 18.9029 19.237 19.0384 19.1029L19.0382 19.1026C19.4098 18.7343 19.7527 18.3371 20.0631 17.9146L20.064 17.9152C20.5192 17.2959 20.9058 16.62 21.2111 15.8975C21.6421 14.88 21.9095 13.7765 21.9802 12.6197C21.9924 12.4273 21.9989 12.2357 22 12.0451L21.999 12.045C21.9991 12.03 21.9991 12.015 21.9991 12H20.7492C20.7492 12.1894 20.7432 12.3774 20.7314 12.5638Z" fill="#333333" fill-opacity="0.87"/>
<path d="M2.07564 10.7794C2.02708 11.1743 2.00223 11.5666 2 11.9549L3.24987 11.9621C3.25183 11.6223 3.27357 11.2785 3.31619 10.932C3.35881 10.5854 3.42102 10.2466 3.50147 9.91644L2.28711 9.62055C2.19517 9.99786 2.12421 10.3845 2.07564 10.7794Z" fill="#333333" fill-opacity="0.87"/>
<path d="M2.77738 8.12996C3.08446 7.39709 3.47504 6.71194 3.93597 6.08477L4.94312 6.82496C4.53993 7.37357 4.19852 7.97255 3.93017 8.61299L2.77738 8.12996Z" fill="#333333" fill-opacity="0.87"/>
<path d="M4.96156 4.89709C5.52029 4.34417 6.14247 3.85827 6.8143 3.45017L7.4632 4.51842C6.87489 4.87578 6.33 5.30133 5.84073 5.7855L4.96156 4.89709Z" fill="#333333" fill-opacity="0.87"/>
<path d="M8.2151 2.74295C8.93527 2.44773 9.69465 2.23481 10.4801 2.11447L10.6694 3.34994C9.983 3.4551 9.31914 3.6412 8.68919 3.89944L8.2151 2.74295Z" fill="#333333" fill-opacity="0.87"/>
<path d="M12.0451 2C12.4334 2.00223 12.8257 2.02708 13.2206 2.07564C13.6155 2.12421 14.0021 2.19517 14.3795 2.28711L14.0836 3.50147C13.7534 3.42102 13.4146 3.35881 13.068 3.31619C12.7215 3.27357 12.3777 3.25183 12.0379 3.24987L12.0451 2Z" fill="#333333" fill-opacity="0.87"/>
<path d="M15.87 2.77738C16.6029 3.08446 17.2881 3.47504 17.9152 3.93597L17.175 4.94312C16.6264 4.53993 16.0275 4.19852 15.387 3.93017L15.87 2.77738Z" fill="#333333" fill-opacity="0.87"/>
<path d="M19.1029 4.96156C19.6558 5.52029 20.1417 6.14247 20.5498 6.8143L19.4816 7.4632C19.1242 6.87489 18.6987 6.33 18.2145 5.84073L19.1029 4.96156Z" fill="#333333" fill-opacity="0.87"/>
<path d="M21.2571 8.2151C21.5523 8.93527 21.7652 9.69465 21.8855 10.4801L20.6501 10.6694C20.5449 9.983 20.3588 9.31914 20.1006 8.68919L21.2571 8.2151Z" fill="#333333" fill-opacity="0.87"/>
</svg>
