<svg width="24" height="24" viewBox="0 0 24 24" fill="none" xmlns="http://www.w3.org/2000/svg">
<g clip-path="url(#clip0)">
<path d="M7.42699 11.3382C9.59366 11.3382 11.3501 9.69188 11.3501 7.66104C11.3501 5.63021 9.59366 3.98389 7.42699 3.98389C5.26033 3.98389 3.50391 5.63021 3.50391 7.66104C3.50391 9.69188 5.26033 11.3382 7.42699 11.3382Z" fill="white"/>
<path d="M16.5383 11.1873C18.7346 11.1873 20.515 9.5185 20.515 7.45988C20.515 5.40127 18.7346 3.73242 16.5383 3.73242C14.342 3.73242 12.5615 5.40127 12.5615 7.45988C12.5615 9.5185 14.342 11.1873 16.5383 11.1873Z" fill="white"/>
<path d="M7.34785 20.3426C9.54416 20.3426 11.3246 18.6738 11.3246 16.6152C11.3246 14.5565 9.54416 12.8877 7.34785 12.8877C5.15155 12.8877 3.37109 14.5565 3.37109 16.6152C3.37109 18.6738 5.15155 20.3426 7.34785 20.3426Z" fill="white"/>
<path d="M16.5638 20.6196C18.8017 20.6196 20.6159 18.9191 20.6159 16.8215C20.6159 14.7239 18.8017 13.0234 16.5638 13.0234C14.3259 13.0234 12.5117 14.7239 12.5117 16.8215C12.5117 18.9191 14.3259 20.6196 16.5638 20.6196Z" fill="white"/>
<path d="M6.4097 11.701C5.11339 11.4189 3.98274 10.5179 3.3827 9.28886C2.89429 8.01519 2.86058 6.62562 3.38469 5.54689C4.88666 2.46994 9.07349 2.13922 10.9818 4.9468C11.6678 5.95602 11.7541 6.44497 11.7541 9.32277V11.852L9.3926 11.8441C7.80302 11.8388 6.82796 11.792 6.40972 11.701H6.4097ZM10.1721 9.97353C10.3432 9.76168 10.362 9.56197 10.362 7.95669C10.362 5.79731 10.3521 5.77658 9.31797 5.77658C8.69486 5.77658 8.67166 5.76764 8.67166 5.52758C8.67166 5.32839 8.62195 5.27859 8.42308 5.27859C8.22422 5.27859 8.1745 5.32839 8.1745 5.52758C8.1745 5.76764 8.1513 5.77658 7.52819 5.77658C6.90042 5.77658 6.88188 5.76924 6.88188 5.52066C6.88188 5.31223 6.84037 5.27064 6.65816 5.29656C6.51438 5.31702 6.42308 5.40847 6.40266 5.55248C6.37369 5.75692 6.31767 5.77658 5.76419 5.77658C4.78795 5.77658 4.7938 5.7633 4.7938 7.97593L4.85595 9.57883C4.94236 9.9625 5.00792 10.0538 5.07101 10.1104C5.2499 10.2698 5.41288 10.2674 7.65632 10.2385C9.96409 10.2089 9.98366 10.2068 10.1721 9.97353V9.97353ZM5.19602 9.66924C5.13888 9.56229 5.0921 9.02364 5.0921 8.47225V7.46973H7.53135H9.97062L9.94258 8.64L9.91457 9.81027L7.60726 9.83699C5.40585 9.86249 5.29516 9.85479 5.19602 9.66924V9.66924ZM6.08642 8.11711V7.66893H5.68869H5.29097V8.11711V8.5653H5.68869H6.08642V8.11711ZM7.97564 8.1202V7.68316H7.08075H6.18586V8.11878V8.5544L7.08075 8.55582L7.97564 8.55725V8.1202ZM9.86485 8.11139V7.70778L8.96401 7.71443L8.95853 8.5653H9.41168H9.86485V8.11139Z" fill="#333333" fill-opacity="0.87"/>
<path d="M15.4941 20.9043C14.4133 20.6501 13.0699 19.534 12.5955 18.496C12.2168 17.6674 12.1514 17.083 12.1514 14.5276V12.1509H14.5666C17.1216 12.1509 17.6199 12.2144 18.5693 12.6615C19.969 13.3205 21.0031 15.0086 20.9997 16.6288C20.9954 18.6166 19.5308 20.4656 17.6088 20.9095C17.0816 21.0312 16.0228 21.0286 15.4941 20.9043V20.9043ZM15.1317 18.3751C15.5404 17.7455 15.9011 17.2303 15.9333 17.2303C15.9655 17.2303 16.0911 17.3648 16.2124 17.5291C16.3337 17.6935 16.4721 17.8279 16.52 17.8279C16.5679 17.8279 16.9804 17.2224 17.4368 16.4823C18.2397 15.1801 18.2718 15.1431 18.4316 15.3369C18.5223 15.4471 18.6158 15.5372 18.6393 15.5372C18.6966 15.5372 18.9457 13.8438 18.8957 13.7938C18.8742 13.7721 18.5243 13.9859 18.1182 14.2688C17.4746 14.7172 17.4088 14.79 17.6053 14.8365C17.7293 14.8658 17.8284 14.9346 17.8254 14.9894C17.8226 15.0442 17.5195 15.568 17.152 16.1534L16.4839 17.2179L16.2407 16.8755C16.1069 16.6872 15.9487 16.5342 15.8891 16.5355C15.7336 16.5388 14.012 19.2945 14.0882 19.418C14.2339 19.6542 14.4261 19.4621 15.1317 18.3751V18.3751Z" fill="#333333" fill-opacity="0.87"/>
<path d="M6.18817 20.8614C4.98962 20.5247 3.98914 19.6841 3.42409 18.5389C2.88847 17.2219 2.83952 15.8038 3.39603 14.7013C3.81687 13.8708 4.59878 13.0568 5.30588 12.713C6.28916 12.2349 6.75266 12.1711 9.34272 12.1573L11.7539 12.1445L11.7519 14.7619C11.7499 17.2588 11.7389 17.4102 11.5139 18.0487C11.0865 19.2616 10.3537 20.0521 9.12111 20.6299C8.30302 21.0134 7.07453 21.1103 6.18817 20.8614ZM6.38463 18.4251V17.7279H5.78804H5.19144V18.4251V19.1223H5.78804H6.38463V18.4251ZM7.87611 17.7777V16.4332H7.2298H6.58349V17.7777V19.1223H7.2298H7.87611V17.7777ZM9.26817 16.483V13.8436H8.67157H8.07498V16.483V19.1223H8.67157H9.26817V16.483Z" fill="#333333" fill-opacity="0.87"/>
<path d="M12.1514 9.46657C12.1514 8.09487 12.1985 6.85684 12.2622 6.55335C12.4268 5.76928 12.8009 5.04686 13.3586 4.43557C14.7387 2.92304 16.9174 2.56581 18.7312 3.55466C19.3076 3.8689 20.1994 4.78069 20.4917 5.35468C21.7623 7.84941 20.5053 10.8293 17.8334 11.6564C17.2756 11.8291 16.9053 11.852 14.6764 11.852H12.1514L12.1514 9.46657ZM18.9216 9.68576C18.2747 8.05101 18.3239 8.1233 16.8724 6.6714L15.4782 5.27694L14.836 5.92598L14.1938 6.57502L15.5628 7.92967C16.9034 9.25639 16.9526 9.29327 17.9471 9.71779C18.5056 9.95619 18.9954 10.153 19.0356 10.155C19.0758 10.1571 19.0245 9.94596 18.9216 9.68576ZM17.6429 9.33314C17.0822 9.0977 16.9998 8.89096 17.397 8.71597C17.5197 8.66189 17.6201 8.56263 17.6201 8.49538C17.6201 8.42813 17.7104 8.32473 17.8207 8.26561C18.0003 8.16931 18.0422 8.20718 18.2229 8.62944C18.6208 9.55932 18.5079 9.69634 17.6429 9.33314ZM14.9355 4.77959C14.6863 4.61996 14.0856 4.66472 13.9196 4.85529C13.5894 5.23452 13.5251 5.46889 13.6485 5.84346L13.7658 6.19939L14.4252 5.53727C14.9616 4.9987 15.0568 4.85731 14.9355 4.77959Z" fill="#333333" fill-opacity="0.87"/>
</g>
<defs>
<clipPath id="clip0">
<rect width="19.9086" height="19.9076" fill="white" transform="translate(3 3) scale(0.904133)"/>
</clipPath>
</defs>
</svg>
