<svg width="56" height="56" viewBox="0 0 56 56" fill="none" xmlns="http://www.w3.org/2000/svg">
<path d="M37.2775 11.9436C39.3824 9.85698 39.3973 6.45902 37.3106 4.35408C35.224 2.24914 31.826 2.23432 29.7211 4.32097C27.6161 6.40762 27.6013 9.80557 29.6879 11.9105C31.7746 14.0155 35.1726 14.0303 37.2775 11.9436Z" fill="black"/>
<path d="M18.7649 18.6109C20.8698 16.5243 20.8846 13.1263 18.798 11.0214C16.7113 8.91644 13.3134 8.90162 11.2084 10.9883C9.10349 13.0749 9.08866 16.4729 11.1753 18.5778C13.262 20.6827 16.6599 20.6976 18.7649 18.6109Z" fill="#F06D24"/>
<path d="M11.8623 37.3599C13.9672 35.2733 13.982 31.8753 11.8954 29.7704C9.80872 27.6654 6.41077 27.6506 4.30583 29.7373C2.2009 31.8239 2.18607 35.2219 4.27272 37.3268C6.35936 39.4317 9.75732 39.4466 11.8623 37.3599Z" fill="#00AA67"/>
<path fill-rule="evenodd" clip-rule="evenodd" d="M49.7471 17.3889C47.7641 14.415 45.1245 11.9363 42.0317 10.1443L39.6921 14.1821C42.1662 15.6157 44.278 17.5986 45.8643 19.9778C47.4507 22.357 48.4692 25.0688 48.8413 27.904C49.2135 30.7392 48.9293 33.622 48.0106 36.33C47.092 39.0379 45.5635 41.4986 43.5431 43.5222C41.5227 45.5458 39.0644 47.0781 36.3579 48.001C33.6514 48.9239 30.769 49.2126 27.9332 48.845C25.0974 48.4773 22.384 47.463 20.0023 45.8804C17.6207 44.2978 15.6345 42.1892 14.1969 39.7172L10.1628 42.0632C11.9597 45.1531 14.4425 47.7889 17.4196 49.7672C20.3967 51.7454 23.7884 53.0133 27.3332 53.4729C30.8779 53.9325 34.4808 53.5716 37.864 52.418C41.2471 51.2644 44.32 49.3489 46.8455 46.8195C49.371 44.29 51.2816 41.2141 52.4299 37.8292C53.5782 34.4442 53.9335 30.8407 53.4683 27.2967C53.0032 23.7527 51.73 20.3629 49.7471 17.3889Z" fill="black"/>
<path fill-rule="evenodd" clip-rule="evenodd" d="M30.3334 44.3334C38.0654 44.3334 44.3334 38.0654 44.3334 30.3334C44.3334 22.6014 38.0654 16.3334 30.3334 16.3334C22.6014 16.3334 16.3334 22.6014 16.3334 30.3334C16.3334 38.0654 22.6014 44.3334 30.3334 44.3334ZM30.3333 39.6667C35.488 39.6667 39.6667 35.488 39.6667 30.3333C39.6667 25.1787 35.488 21 30.3333 21C25.1787 21 21 25.1787 21 30.3333C21 35.488 25.1787 39.6667 30.3333 39.6667Z" fill="#F06D24"/>
</svg>
