<svg width="563" height="1000" viewBox="0 0 563 1000" fill="none" xmlns="http://www.w3.org/2000/svg">
<g clip-path="url(#clip0)">
<g opacity="0.08">
<path d="M516.258 293.319C544.336 265.485 544.534 220.158 516.699 192.08C488.865 164.002 443.539 163.804 415.46 191.638C387.382 219.473 387.184 264.799 415.019 292.877C442.853 320.956 488.179 321.153 516.258 293.319Z" fill="#00AA67"/>
<path d="M269.309 382.256C297.388 354.422 297.586 309.096 269.751 281.017C241.917 252.939 196.591 252.741 168.512 280.576C140.434 308.41 140.236 353.736 168.07 381.815C195.905 409.893 241.231 410.091 269.309 382.256Z" fill="#F06D24"/>
<path d="M177.234 632.355C205.313 604.52 205.51 559.194 177.676 531.116C149.842 503.037 104.515 502.839 76.4369 530.674C48.3586 558.508 48.1608 603.835 75.9952 631.913C103.83 659.991 149.156 660.189 177.234 632.355Z" fill="#020202"/>
<path fill-rule="evenodd" clip-rule="evenodd" d="M682.589 365.956C656.138 326.286 620.927 293.222 579.672 269.318L548.463 323.179L423.625 538.624L208.376 663.799L154.564 695.093C178.533 736.311 211.652 771.47 251.364 797.859C291.076 824.247 336.319 841.159 383.604 847.29C430.888 853.421 478.949 848.607 524.077 833.218C569.206 817.83 610.196 792.28 643.885 758.538C677.573 724.797 703.059 683.767 718.377 638.614C733.694 593.461 738.433 545.393 732.228 498.118C726.023 450.844 709.04 405.627 682.589 365.956ZM208.376 663.799L423.625 538.624L548.463 323.179C581.467 342.303 609.636 368.753 630.797 400.49C651.957 432.226 665.544 468.4 670.508 506.219C675.472 544.039 671.681 582.494 659.427 618.616C647.173 654.738 626.784 687.562 599.833 714.555C572.882 741.548 540.09 761.989 503.987 774.299C467.884 786.61 429.435 790.462 391.608 785.557C353.781 780.652 317.586 767.122 285.816 746.012C254.046 724.901 227.552 696.773 208.376 663.799Z" fill="#00AA67"/>
<path fill-rule="evenodd" clip-rule="evenodd" d="M423.625 725.375C526.764 725.375 610.375 641.764 610.375 538.625C610.375 435.486 526.764 351.875 423.625 351.875C320.486 351.875 236.875 435.486 236.875 538.625C236.875 641.764 320.486 725.375 423.625 725.375ZM423.625 663.125C492.384 663.125 548.125 607.384 548.125 538.625C548.125 469.865 492.384 414.125 423.625 414.125C354.865 414.125 299.125 469.865 299.125 538.625C299.125 607.384 354.865 663.125 423.625 663.125Z" fill="#F06D24"/>
</g>
</g>
<defs>
<clipPath id="clip0">
<rect width="563" height="1000" fill="white"/>
</clipPath>
</defs>
</svg>
