<svg width="56" height="56" viewBox="0 0 56 56" fill="none" xmlns="http://www.w3.org/2000/svg">
<g clip-path="url(#clip0)">
<circle cx="28" cy="28" r="28" transform="rotate(-180 28 28)" fill="white"/>
<path d="M46.666 28.0002C46.666 38.2902 38.2894 46.6668 27.9994 46.6668C17.7094 46.6668 9.33268 38.2902 9.33268 28.0002C9.33268 17.7102 17.7094 9.33349 27.9994 9.33349C38.2894 9.33349 46.666 17.7102 46.666 28.0002ZM51.3327 28.0002C51.3327 15.1202 40.8794 4.66683 27.9994 4.66683C15.1193 4.66683 4.66602 15.1202 4.66602 28.0002C4.66602 40.8802 15.1193 51.3335 27.9994 51.3335C40.8794 51.3335 51.3327 40.8802 51.3327 28.0002ZM27.9994 30.3335L37.3327 30.3335V25.6668L27.9994 25.6668L27.9994 18.6668L18.666 28.0002L27.9994 37.3335V30.3335Z" fill="#27AE60"/>
</g>
<defs>
<clipPath id="clip0">
<rect width="56" height="56" fill="white" transform="translate(56 56) rotate(-180)"/>
</clipPath>
</defs>
</svg>
