<svg width="56" height="56" viewBox="0 0 56 56" fill="none" xmlns="http://www.w3.org/2000/svg">
<path d="M28 0C12.536 0 0 12.536 0 28C0 43.464 12.536 56 28 56C43.464 56 56 43.464 56 28C56 12.536 43.464 0 28 0Z" fill="white"/>
<path d="M34.0427 18.6665L27.9994 24.7098L21.956 18.6665L18.666 21.9565L24.7094 27.9998L18.666 34.0432L21.956 37.3332L27.9994 31.2898L34.0427 37.3332L37.3327 34.0432L31.2894 27.9998L37.3327 21.9565L34.0427 18.6665ZM27.9994 4.6665C15.096 4.6665 4.66602 15.0965 4.66602 27.9998C4.66602 40.9032 15.096 51.3332 27.9994 51.3332C40.9027 51.3332 51.3327 40.9032 51.3327 27.9998C51.3327 15.0965 40.9027 4.6665 27.9994 4.6665ZM27.9994 46.6665C17.7094 46.6665 9.33268 38.2898 9.33268 27.9998C9.33268 17.7098 17.7094 9.33317 27.9994 9.33317C38.2894 9.33317 46.666 17.7098 46.666 27.9998C46.666 38.2898 38.2894 46.6665 27.9994 46.6665Z" fill="#333333" fill-opacity="0.38"/>
</svg>
