<svg width="56" height="56" viewBox="0 0 56 56" fill="none" xmlns="http://www.w3.org/2000/svg">
<g clip-path="url(#clip0)">
<circle cx="28" cy="28" r="28" transform="rotate(-180 28 28)" fill="white"/>
<path d="M25.666 41.9998H30.3327V37.3332H25.666V41.9998ZM27.9994 4.6665C15.1193 4.6665 4.66602 15.1198 4.66602 27.9998C4.66602 40.8798 15.1193 51.3332 27.9994 51.3332C40.8794 51.3332 51.3327 40.8798 51.3327 27.9998C51.3327 15.1198 40.8794 4.6665 27.9994 4.6665ZM27.9994 46.6665C17.7094 46.6665 9.33268 38.2898 9.33268 27.9998C9.33268 17.7098 17.7094 9.33317 27.9994 9.33317C38.2894 9.33317 46.666 17.7098 46.666 27.9998C46.666 38.2898 38.2894 46.6665 27.9994 46.6665ZM27.9994 13.9998C22.8427 13.9998 18.666 18.1765 18.666 23.3332H23.3327C23.3327 20.7665 25.4327 18.6665 27.9994 18.6665C30.566 18.6665 32.666 20.7665 32.666 23.3332C32.666 27.9998 25.666 27.4165 25.666 34.9998H30.3327C30.3327 29.7498 37.3327 29.1665 37.3327 23.3332C37.3327 18.1765 33.156 13.9998 27.9994 13.9998Z" fill="#FFA425"/>
</g>
<defs>
<clipPath id="clip0">
<rect width="56" height="56" fill="white" transform="translate(56 56) rotate(-180)"/>
</clipPath>
</defs>
</svg>
