<svg width="56" height="56" viewBox="0 0 56 56" fill="none" xmlns="http://www.w3.org/2000/svg">
<g clip-path="url(#clip0)">
<circle cx="28" cy="28" r="28" fill="white"/>
<path d="M9.33398 28.0001C9.33398 17.7101 17.7106 9.33342 28.0006 9.33342C38.2906 9.33342 46.6673 17.7101 46.6673 28.0001C46.6673 38.2901 38.2906 46.6668 28.0006 46.6668C17.7106 46.6668 9.33398 38.2901 9.33398 28.0001ZM4.66731 28.0001C4.66731 40.8801 15.1206 51.3334 28.0006 51.3334C40.8807 51.3334 51.334 40.8801 51.334 28.0001C51.334 15.1201 40.8807 4.66675 28.0006 4.66675C15.1206 4.66675 4.66731 15.1201 4.66731 28.0001ZM28.0006 25.6667L18.6673 25.6667V30.3334L28.0006 30.3334L28.0006 37.3334L37.334 28.0001L28.0006 18.6667V25.6667Z" fill="#2C98F0"/>
</g>
<defs>
<clipPath id="clip0">
<rect width="56" height="56" fill="white"/>
</clipPath>
</defs>
</svg>
