<svg width="24" height="24" viewBox="0 0 24 24" fill="none" xmlns="http://www.w3.org/2000/svg">
<path d="M16.6316 2.55556H7.36842C5.81815 2.55556 4.5614 3.79921 4.5614 5.33333V8.94444C4.5614 9.09786 4.43573 9.22222 4.2807 9.22222C4.12567 9.22222 4 9.09786 4 8.94444V5.33333C4 3.49238 5.50809 2 7.36842 2H16.6316C18.4919 2 20 3.49238 20 5.33333V18.6667C20 20.5076 18.4919 22 16.6316 22H7.36842C5.50809 22 4 20.5076 4 18.6667V10.0556C4 9.90214 4.12567 9.77778 4.2807 9.77778C4.43573 9.77778 4.5614 9.90214 4.5614 10.0556V18.6667C4.5614 20.2008 5.81815 21.4444 7.36842 21.4444H16.6316C18.1819 21.4444 19.4386 20.2008 19.4386 18.6667V5.33333C19.4386 3.79921 18.1819 2.55556 16.6316 2.55556Z" fill="#333333" fill-opacity="0.87"/>
<path d="M9.89474 3.66667C9.89474 3.78173 9.80048 3.875 9.68421 3.875C9.56794 3.875 9.47368 3.78173 9.47368 3.66667C9.47368 3.55161 9.56794 3.45833 9.68421 3.45833C9.80048 3.45833 9.89474 3.55161 9.89474 3.66667Z" fill="#333333" fill-opacity="0.87"/>
<path fill-rule="evenodd" clip-rule="evenodd" d="M8.21053 8.66667C9.37323 8.66667 10.3158 7.73393 10.3158 6.58333C10.3158 5.43274 9.37323 4.5 8.21053 4.5C7.04782 4.5 6.10526 5.43274 6.10526 6.58333C6.10526 7.73393 7.04782 8.66667 8.21053 8.66667ZM8.21053 8.11111C9.06318 8.11111 9.75439 7.4271 9.75439 6.58333C9.75439 6.20548 9.61577 5.85967 9.38613 5.59298L7.20974 7.74669C7.47925 7.97394 7.8287 8.11111 8.21053 8.11111ZM9.07154 5.31503L6.92887 7.43538C6.7633 7.19197 6.66667 6.89882 6.66667 6.58333C6.66667 5.73957 7.35788 5.05556 8.21053 5.05556C8.52933 5.05556 8.82557 5.15118 9.07154 5.31503Z" fill="#333333" fill-opacity="0.87"/>
<path fill-rule="evenodd" clip-rule="evenodd" d="M15.7895 8.66667C16.9522 8.66667 17.8947 7.73393 17.8947 6.58333C17.8947 5.43274 16.9522 4.5 15.7895 4.5C14.6268 4.5 13.6842 5.43274 13.6842 6.58333C13.6842 7.73393 14.6268 8.66667 15.7895 8.66667ZM15.7895 8.11111C16.6421 8.11111 17.3333 7.4271 17.3333 6.58333C17.3333 6.20548 17.1947 5.85967 16.9651 5.59298L14.7887 7.74669C15.0582 7.97394 15.4076 8.11111 15.7895 8.11111ZM16.6505 5.31503L14.5078 7.43538C14.3422 7.19197 14.2456 6.89882 14.2456 6.58333C14.2456 5.73957 14.9368 5.05556 15.7895 5.05556C16.1083 5.05556 16.4045 5.15118 16.6505 5.31503Z" fill="#333333" fill-opacity="0.87"/>
<path fill-rule="evenodd" clip-rule="evenodd" d="M10.3158 12C10.3158 13.1506 9.37323 14.0833 8.21053 14.0833C7.04782 14.0833 6.10526 13.1506 6.10526 12C6.10526 10.8494 7.04782 9.91667 8.21053 9.91667C9.37323 9.91667 10.3158 10.8494 10.3158 12ZM9.75439 12C9.75439 12.8438 9.06318 13.5278 8.21053 13.5278C7.8287 13.5278 7.47925 13.3906 7.20974 13.1634L9.38613 11.0096C9.61577 11.2763 9.75439 11.6222 9.75439 12ZM6.92887 12.852L9.07154 10.7317C8.82557 10.5678 8.52933 10.4722 8.21053 10.4722C7.35788 10.4722 6.66667 11.1562 6.66667 12C6.66667 12.3155 6.7633 12.6086 6.92887 12.852Z" fill="#333333" fill-opacity="0.87"/>
<path fill-rule="evenodd" clip-rule="evenodd" d="M15.7895 14.0833C16.9522 14.0833 17.8947 13.1506 17.8947 12C17.8947 10.8494 16.9522 9.91667 15.7895 9.91667C14.6268 9.91667 13.6842 10.8494 13.6842 12C13.6842 13.1506 14.6268 14.0833 15.7895 14.0833ZM15.7895 13.5278C16.6421 13.5278 17.3333 12.8438 17.3333 12C17.3333 11.6222 17.1947 11.2763 16.9651 11.0096L14.7887 13.1634C15.0582 13.3906 15.4076 13.5278 15.7895 13.5278ZM16.6505 10.7317L14.5078 12.852C14.3422 12.6086 14.2456 12.3155 14.2456 12C14.2456 11.1562 14.9368 10.4722 15.7895 10.4722C16.1083 10.4722 16.4045 10.5678 16.6505 10.7317Z" fill="#333333" fill-opacity="0.87"/>
<path fill-rule="evenodd" clip-rule="evenodd" d="M10.3158 17.4167C10.3158 18.5673 9.37323 19.5 8.21053 19.5C7.04782 19.5 6.10526 18.5673 6.10526 17.4167C6.10526 16.2661 7.04782 15.3333 8.21053 15.3333C9.37323 15.3333 10.3158 16.2661 10.3158 17.4167ZM9.75439 17.4167C9.75439 18.2604 9.06318 18.9444 8.21053 18.9444C7.8287 18.9444 7.47925 18.8073 7.20974 18.58L9.38613 16.4263C9.61577 16.693 9.75439 17.0388 9.75439 17.4167ZM6.92887 18.2687L9.07154 16.1484C8.82557 15.9845 8.52933 15.8889 8.21053 15.8889C7.35788 15.8889 6.66667 16.5729 6.66667 17.4167C6.66667 17.7322 6.7633 18.0253 6.92887 18.2687Z" fill="#333333" fill-opacity="0.87"/>
<path fill-rule="evenodd" clip-rule="evenodd" d="M15.7895 19.5C16.9522 19.5 17.8947 18.5673 17.8947 17.4167C17.8947 16.2661 16.9522 15.3333 15.7895 15.3333C14.6268 15.3333 13.6842 16.2661 13.6842 17.4167C13.6842 18.5673 14.6268 19.5 15.7895 19.5ZM15.7895 18.9444C16.6421 18.9444 17.3333 18.2604 17.3333 17.4167C17.3333 17.0388 17.1947 16.693 16.9651 16.4263L14.7887 18.58C15.0582 18.8073 15.4076 18.9444 15.7895 18.9444ZM16.6505 16.1484L14.5078 18.2687C14.3422 18.0253 14.2456 17.7322 14.2456 17.4167C14.2456 16.5729 14.9368 15.8889 15.7895 15.8889C16.1083 15.8889 16.4045 15.9845 16.6505 16.1484Z" fill="#333333" fill-opacity="0.87"/>
<path d="M14.3158 3.875C14.4321 3.875 14.5263 3.78173 14.5263 3.66667C14.5263 3.55161 14.4321 3.45833 14.3158 3.45833C14.1995 3.45833 14.1053 3.55161 14.1053 3.66667C14.1053 3.78173 14.1995 3.875 14.3158 3.875Z" fill="#333333" fill-opacity="0.87"/>
<path d="M11.1579 3.66667C11.1579 3.55161 11.2522 3.45833 11.3684 3.45833H12.6316C12.7478 3.45833 12.8421 3.55161 12.8421 3.66667C12.8421 3.78173 12.7478 3.875 12.6316 3.875H11.3684C11.2522 3.875 11.1579 3.78173 11.1579 3.66667Z" fill="#333333" fill-opacity="0.87"/>
</svg>
