<svg width="300" height="300" viewBox="0 0 300 300" fill="none" xmlns="http://www.w3.org/2000/svg">
<g clip-path="url(#clip0_569_7830)">
<path d="M127.446 239.149C127.659 238.935 127.872 238.723 128.297 238.723L167.872 223.83C170.425 234.679 171.063 250.425 171.276 263.829C171.489 264.255 171.489 264.894 171.489 265.318C171.489 265.318 175.531 287.447 175.318 293.616C175.318 298.084 172.339 304.256 172.127 307.447C171.701 312.127 171.701 322.978 171.701 322.978C171.701 327.446 171.276 331.914 170.425 336.381C168.51 349.361 165.318 366.169 163.403 379.573C163.829 398.297 168.935 407.871 168.084 412.766C167.233 417.66 169.361 427.234 171.489 433.616C172.978 437.447 173.19 441.489 172.127 445.532C171.701 446.595 170.85 451.914 169.999 456.169C169.148 458.297 167.872 460.213 166.382 461.702C166.595 464.466 162.552 468.51 162.552 468.51C161.063 470.211 159.148 471.277 157.02 471.915C155.318 472.554 156.808 471.701 155.105 472.766C154.467 473.829 154.042 474.467 154.042 474.467C151.914 476.595 152.978 476.169 150.637 477.446C148.935 478.511 148.297 478.296 148.297 478.296C148.297 478.296 147.446 478.297 147.021 477.66C147.021 477.66 147.02 477.872 146.808 477.872C146.808 478.084 146.595 478.296 146.382 478.511C145.531 479.361 144.254 479.574 143.403 478.723C139.786 477.66 142.765 471.064 143.191 469.361C143.616 467.659 143.616 464.681 144.254 462.126C143.19 461.276 142.552 459.786 142.552 458.297C142.552 455.745 145.318 450.424 145.318 448.084C145.318 440.638 139.573 427.659 144.254 415.318C145.744 410.85 146.595 406.17 146.382 401.488L143.191 401.914C143.191 401.914 132.127 324.894 134.893 307.871C135.318 303.191 135.318 298.511 134.893 293.829C134.893 289.787 134.254 285.744 132.765 282.126C128.722 270.424 126.808 251.276 126.595 244.256C126.382 242.979 126.169 241.489 125.956 239.574L127.446 239.149ZM152.978 464.042C153.829 462.553 153.616 458.509 154.042 457.234C154.254 456.808 154.042 456.808 153.616 457.447C153.616 457.447 153.403 458.509 153.403 459.148C153.191 461.702 152.552 464.254 151.276 466.594C151.701 465.744 152.339 464.893 152.978 464.042Z" fill="#883A20"/>
<path d="M112.764 138.722C109.998 132.978 111.275 126.808 112.552 122.765C112.552 122.765 127.02 126.169 134.892 121.914C136.807 120.212 137.658 117.659 137.02 115.318C135.318 110.212 136.594 108.084 136.594 108.084C139.36 107.446 139.573 103.19 138.084 102.34C140.211 101.701 139.573 98.5096 139.36 98.2968C138.296 96.5947 137.871 94.2543 138.509 92.3394C139.786 92.5522 141.062 91.9139 141.913 90.8502C143.403 88.7225 141.701 85.3182 139.786 83.1905C137.871 81.0629 134.467 74.2544 135.105 69.9991C135.743 65.7438 137.232 65.9564 135.318 60.8502C132.339 52.1266 132.552 40.6372 117.871 31.9139C104.892 24.467 92.7645 22.9777 80.8504 27.0202C67.2326 31.7011 58.2968 41.2756 57.6583 65.7438C57.4461 74.6799 60.4247 88.0842 64.6783 90.4246C69.7847 93.4034 71.4883 112.552 71.4883 114.893C70.8497 128.722 69.1483 140.85 52.764 147.659C47.8718 149.786 61.0633 170.425 61.2754 175.957C61.4875 181.488 50.2118 183.403 53.1904 188.297C57.6583 195.744 84.0411 189.361 95.3177 183.829C100.849 181.063 106.594 178.935 111.913 175.744C115.956 173.403 135.743 157.233 135.956 152.127C135.956 149.573 121.488 151.063 112.764 138.722Z" fill="#883A20"/>
<path d="M133.83 92.9777C133.83 92.9777 131.702 94.0414 130.851 92.5522C129.362 90.4245 130.851 86.5946 131.915 85.7437C128.511 93.8286 133.83 92.9777 133.83 92.9777Z" fill="#3D1911"/>
<path d="M136.382 90.6376C136.808 90.4248 137.021 90.4248 137.446 90.4248C137.872 90.4248 138.297 90.4248 138.51 90.6376C138.723 90.6376 138.723 90.8504 138.936 90.8504C138.936 91.0632 138.936 91.2759 138.936 91.2759L138.723 91.4887C138.297 91.7015 137.872 91.2759 137.446 91.2759C136.382 91.2759 135.531 91.4887 134.68 91.9143C134.893 91.2759 135.531 90.8504 136.382 90.6376Z" fill="#3D1911"/>
<path d="M55.5304 60.4255C55.9568 58.7235 56.169 57.234 55.9568 55.5319C55.9568 53.8298 56.169 51.915 56.5933 50.2127C56.8076 48.7234 57.4461 47.2341 58.0847 45.7446C58.2968 44.2553 59.1475 40 60.2104 39.3617C60.849 38.9361 61.2754 38.298 61.4875 37.6596C62.7647 35.3192 64.4661 33.1915 66.1697 31.2767C67.659 30 69.7847 28.9363 70.2111 28.5107C70.6375 28.0851 72.5511 26.383 72.9775 25.9575C75.3175 24.681 77.6575 23.617 80.424 23.1915C80.6361 23.1915 80.8504 22.9787 81.0626 22.9787C81.2747 22.7659 81.4868 22.7659 81.4868 22.5531C82.3397 21.4894 88.0836 21.4894 88.722 21.7022C89.5729 21.7022 90.4241 21.4894 91.2752 21.2766C93.1901 21.0638 95.1049 21.2766 96.807 21.7022C98.0837 22.1278 99.1474 22.3405 100.424 22.7659C102.126 23.1915 103.615 23.4043 105.105 23.4043C107.02 22.9787 110.424 24.8935 111.701 25.5319C111.913 25.5319 111.913 25.5319 112.126 25.7447C112.977 25.9575 113.828 25.9575 114.679 26.383C117.658 28.0851 120.85 27.6595 122.764 30.8511C122.977 31.0639 123.19 31.0639 123.403 31.2767C125.105 32.3404 127.445 35.9575 127.233 37.234C127.02 38.5108 126.807 39.7873 126.807 39.7873C125.743 38.5108 125.318 40 124.892 40.2128C124.892 40.2128 124.679 40.2128 124.679 40.4256C123.828 41.4893 122.339 41.9149 120.85 41.9149C118.722 42.5533 116.807 42.9788 114.679 43.1916C113.19 44.2553 111.275 44.4681 109.786 43.617C109.36 43.617 109.147 43.617 108.722 43.617C107.658 44.4681 106.381 45.3193 104.892 45.532C103.19 45.7446 101.488 45.7446 99.7858 45.532C99.3602 45.532 98.9346 45.3193 98.5093 45.532C98.2965 45.532 98.0837 45.7446 97.8709 45.9574C97.2325 46.5958 97.0198 47.4469 97.2326 48.085C97.2326 48.085 95.3177 48.7234 94.8921 49.5745C94.4665 50.4255 94.4665 52.9787 95.3177 53.8298C95.956 54.681 96.1688 55.5319 96.3814 56.5958C96.5942 58.0851 97.0198 59.5744 97.0198 61.0639C97.2326 62.3404 97.4453 63.6171 97.4453 64.6808C97.6581 66.5957 95.7433 70.2128 95.956 71.0638C95.956 71.2765 95.7433 71.4893 95.5305 71.7021C95.5305 72.3405 95.5305 72.9788 95.5305 73.8298V77.0213C95.5305 77.0213 95.5305 77.2341 95.7433 77.2341C95.7433 77.2341 95.7433 77.2341 95.5305 77.0213C95.5305 77.8723 95.5305 78.9362 95.5305 79.7873C95.3177 81.0638 92.9773 81.4894 92.7645 80.851C92.1261 79.5745 89.9985 79.7873 89.5729 79.149C89.1475 78.085 88.9348 76.8085 88.9348 75.5318C87.0197 74.8937 85.956 72.3405 84.0411 71.9149C81.2747 71.7021 78.7225 73.1914 77.2333 75.5318C76.8068 77.4469 77.2333 79.3618 78.2961 81.0638C79.5733 82.5531 80.424 84.2554 81.2747 85.9575C81.9133 87.8723 81.7011 90 82.1254 91.9148C82.3397 93.8299 83.829 95.532 85.7432 95.9575C73.4018 101.064 75.1054 108.723 72.7654 110C72.7654 110 72.9775 113.191 71.4883 112.766C71.0618 112.553 70.6375 111.277 69.999 109.575C68.5097 108.936 69.3604 107.021 69.1483 105.957V105.745C69.1483 105.532 69.1483 105.532 68.934 105.532C68.7218 105.319 68.2954 103.404 68.0833 101.489C68.0833 101.277 67.8711 101.064 67.8711 100.851C64.4661 95.7448 62.1261 91.702 60.4247 87.234C59.574 85.9575 59.1475 85.1063 59.1475 84.8935C59.3597 84.2554 58.509 82.9787 58.509 82.1278C58.509 81.2766 58.7211 80.6383 58.2968 80.0001C57.4461 78.9362 57.0197 77.4469 56.8076 76.1702C56.169 73.1916 56.3811 68.9361 55.9568 67.4468C55.5304 64.8936 55.5304 62.766 55.5304 60.4255Z" fill="#3D1911"/>
<path d="M84.8921 82.3402C85.1042 82.1274 85.3164 82.1274 85.5307 82.1274H86.1684L85.5307 82.553C85.1043 82.7656 84.8921 83.1912 85.1043 83.6167C85.1043 84.0423 85.5307 85.106 85.9556 85.3188L86.5938 85.5316L85.9556 85.7444H85.7428C85.5307 85.7444 84.68 85.5316 84.4657 83.8295C84.4657 83.1912 84.68 82.7656 84.8921 82.3402Z" fill="#3D1911"/>
<path d="M79.9983 75.9572C79.9983 75.9572 86.5949 74.8932 86.5949 81.0636C86.5949 81.0636 86.8076 81.9145 86.1693 82.1273C86.1693 82.1273 86.5949 78.7232 84.6804 77.6592C83.1911 76.5955 81.7019 76.1699 79.9983 75.9572Z" fill="#3D1911"/>
<path d="M130.638 101.276C131.064 101.064 131.489 100.851 131.915 100.638C132.553 100.213 133.191 99.9998 133.617 99.5742C134.255 99.1486 134.894 98.7231 135.532 98.5103C136.383 98.2975 137.234 98.0847 138.085 98.0847C138.511 98.0847 138.723 98.0847 139.149 98.0847C140 98.0847 140 99.1486 140 99.787C140 100.213 139.787 100.638 139.574 101.064C139.574 101.276 139.362 101.489 139.149 101.702C138.936 101.915 138.723 102.127 138.298 102.127C140 102.766 139.787 107.021 136.808 107.872H136.17C135.106 107.659 134.255 107.021 133.404 106.383C132.553 105.744 129.787 103.617 128.723 102.766C128.511 102.766 128.085 102.34 127.872 102.127C127.872 102.127 127.021 101.489 126.809 101.064C128.085 101.915 129.362 101.915 130.638 101.276Z" fill="#632212"/>
<path d="M120 96.5947C119.574 98.5098 119.362 100.212 119.362 102.127C118.936 100.212 119.149 98.0842 120 96.5947Z" fill="#632212"/>
<path d="M82.1257 36.8082C82.3378 35.9571 82.7643 35.3187 83.4028 34.8931C84.0414 34.4678 84.2536 34.4678 85.3164 34.4678C84.68 34.6806 84.0414 34.8931 83.4028 35.5315C82.9764 35.7443 82.5521 36.1699 82.1257 36.8082Z" fill="#6C2D14"/>
<path d="M84.0414 63.6164C84.0414 62.9783 84.4657 62.3399 84.8921 61.9143C85.3164 61.4888 85.5307 61.4888 86.5938 61.4888C85.9556 61.7016 85.3164 62.1271 84.8921 62.5527C84.6799 62.7655 84.4657 63.1908 84.0414 63.6164Z" fill="#6C2D14"/>
<path d="M72.9776 93.6171C72.9776 92.9787 73.4019 92.5532 73.8283 92.3404C74.2548 91.915 74.2548 91.915 75.1055 92.1278C74.679 92.3404 74.2548 92.5532 73.8283 92.766C73.6162 92.766 73.1897 93.1915 72.9776 93.6171Z" fill="#6C2D14"/>
<path d="M73.1911 93.6167C73.4033 93.1911 75.7433 91.2762 74.4683 92.3399C73.8297 92.5527 73.4033 92.9783 73.1911 93.6167C72.979 93.6167 73.1911 93.6167 73.1911 93.6167L75.1069 92.1272C75.1069 92.1272 75.319 92.1272 75.1069 92.1272C74.0419 91.9146 73.4033 92.34 73.1911 93.6167C72.979 93.6167 73.1911 93.6167 73.1911 93.6167Z" fill="#6C2D14"/>
<path d="M103.615 39.1489C104.254 38.7234 105.105 38.7234 105.743 38.9362C106.381 39.1489 106.594 39.3617 107.232 40.2127C106.807 39.7873 106.168 39.3617 105.318 39.1489C104.892 39.1489 104.254 39.1489 103.615 39.1489Z" fill="#6C2D14"/>
<path d="M88.5103 37.8724C89.1487 37.0215 89.9996 36.1704 90.8508 35.7448C91.4891 35.532 91.7019 35.532 92.7656 35.7448C92.1273 35.7448 91.2763 35.9576 90.638 36.1704C89.7868 36.5959 88.9359 37.2341 88.5103 37.8724Z" fill="#6C2D14"/>
<path d="M104.681 29.9997C105.107 29.7869 105.745 29.5741 106.171 29.7869C106.809 29.9997 106.809 29.9997 107.447 30.8508C107.022 30.4252 106.596 30.2124 105.958 29.9997C105.532 30.2124 105.107 30.2124 104.681 29.9997Z" fill="#6C2D14"/>
<path d="M72.7655 64.0424C72.9776 63.6168 73.4019 63.1912 73.8283 62.9784C74.2548 62.7657 74.4669 62.7657 75.1055 62.9784C74.679 62.9784 74.2548 62.9784 73.6162 63.1912C73.4019 63.6168 72.9776 63.8296 72.7655 64.0424Z" fill="#6C2D14"/>
<path d="M70.8505 100.426C70.6362 100 70.6362 99.3618 70.8505 98.9362C71.0626 98.2979 71.0626 98.2979 71.7012 97.8723C71.489 98.2979 71.0626 98.7235 71.0626 99.3618C71.0626 99.5746 71.0626 100 70.8505 100.426Z" fill="#6C2D14"/>
<path d="M71.0626 100.426C71.0626 100.426 71.489 96.8086 71.2748 98.5107C71.2748 99.149 70.8505 99.7872 71.0626 100.426C71.0626 99.5746 71.2747 98.7235 71.7012 97.8723H71.489C70.6362 98.5107 70.424 99.5746 71.0626 100.426Z" fill="#6C2D14"/>
<path d="M60.4262 64.2552C60.2119 63.8296 60.4262 63.1913 60.6383 62.7657C60.8504 62.3402 61.0647 62.1274 61.7012 61.9148C61.2769 62.3402 61.0647 62.7657 60.8505 63.1913C60.4262 63.4041 60.4262 63.8296 60.4262 64.2552Z" fill="#6C2D14"/>
<path d="M65.7431 86.5959C65.7431 86.1703 65.7431 85.532 66.1696 85.1064C66.5938 84.6808 66.5938 84.6808 67.2324 84.4683C66.806 84.6808 66.3817 85.1064 66.1696 85.532C65.9553 85.7448 65.9553 86.1703 65.7431 86.5959Z" fill="#6C2D14"/>
<path d="M71.9131 41.2758C71.9131 40.8502 71.9131 40.4247 72.3395 40.2119C72.5516 39.7865 72.7638 39.7865 73.4023 39.5737C72.9781 39.7865 72.7638 39.9993 72.3395 40.4247C71.9131 40.6374 71.9131 40.8502 71.9131 41.2758Z" fill="#6C2D14"/>
<path d="M60.4248 77.659C60.4248 77.2336 60.637 76.808 60.8491 76.5952C61.2755 76.1697 61.2755 76.1697 61.9141 76.1697C61.4876 76.3825 61.2755 76.5953 60.8491 77.0208C60.637 77.0208 60.6369 77.2336 60.4248 77.659Z" fill="#6C2D14"/>
<path d="M76.1682 30.8515C76.1682 30.4259 76.1682 30.0003 76.3825 29.7875C76.5946 29.362 76.8067 29.362 77.4453 29.1492C77.021 29.362 76.8068 29.7875 76.5946 30.0003C76.3825 30.2131 76.1682 30.4259 76.1682 30.8515Z" fill="#6C2D14"/>
<path d="M116.381 30.2129C117.02 29.7873 117.871 29.5745 118.509 29.7873C119.36 30.0001 119.36 30.0001 120.211 30.851C119.573 30.4255 118.934 30.2129 118.296 30.2129C117.658 30.0001 117.02 30.0001 116.381 30.2129Z" fill="#6C2D14"/>
<path d="M118.297 35.7441C118.935 35.5313 119.786 35.7441 120.211 36.1695C120.85 36.5951 121.063 36.8078 121.275 37.8718C120.85 37.2334 120.211 36.8078 119.573 36.3823C119.361 36.1695 118.722 35.9567 118.297 35.7441Z" fill="#6C2D14"/>
<path d="M70.0006 71.7007C70.0006 70.8496 70.2127 70.2112 70.8513 69.5731C71.2777 68.9347 71.4899 68.9347 72.5527 68.7219C71.9163 69.1475 71.2777 69.5731 70.8513 70.2112C70.4249 70.6368 70.2127 71.2751 70.0006 71.7007Z" fill="#6C2D14"/>
<path d="M60.6373 49.7867C60.6373 48.9358 60.8495 48.2974 61.488 47.659C61.9145 47.0207 62.1266 47.0207 63.1895 46.8081C62.5509 47.2335 61.9145 47.659 61.488 48.2974C61.2759 48.723 60.8495 49.3611 60.6373 49.7867Z" fill="#6C2D14"/>
<path d="M80.6367 50.2122C80.851 49.574 81.4896 48.9357 82.3403 48.9357C83.1911 48.7229 83.191 48.7229 84.2539 49.1485C83.6153 48.9357 82.9789 48.9357 82.3403 49.1485C81.7018 49.3612 81.0632 49.7868 80.6367 50.2122Z" fill="#6C2D14"/>
<path d="M87.4467 51.0627C87.6595 50.6371 88.085 50.2117 88.5104 49.9989C88.936 49.7862 89.1488 49.7862 89.7871 49.9989C89.3615 49.9989 88.7232 50.2117 88.2976 50.4245C88.085 50.4245 87.6595 50.6371 87.4467 51.0627Z" fill="#6C2D14"/>
<path d="M60.8507 44.0424C60.8507 43.404 61.2771 42.9787 61.7014 42.7659C62.1278 42.3403 62.1278 42.3403 62.9785 42.3403C62.5542 42.5531 62.1278 42.7659 61.7014 43.1915C61.4892 43.404 61.0649 43.6168 60.8507 44.0424Z" fill="#6C2D14"/>
<path d="M87.0195 171.914C74.4668 171.702 62.9768 164.042 58.0826 152.34C57.2318 150.212 56.169 147.659 54.0411 147.021C52.9761 146.808 51.9133 147.021 50.8504 147.446C40.6376 150.85 30.2104 154.468 22.1254 162.127C7.87114 175.744 4.67826 198.297 4.25397 218.936L39.1483 232.554C40.2111 253.191 39.5726 274.041 37.2326 294.681C35.1047 315.319 31.6997 335.957 27.8704 356.171C27.0197 361.277 25.9547 366.384 24.8919 371.49L23.4026 379.149C23.1904 380.638 22.3397 382.766 23.829 383.829C25.3183 384.894 27.8704 384.467 29.5718 384.467C31.914 384.467 34.254 384.467 36.8061 384.681C41.4883 384.681 46.3804 384.681 51.2747 384.681C70.4233 384.467 89.5727 383.616 108.722 381.915C111.913 381.703 115.317 381.276 118.509 381.064C127.871 380.426 137.232 378.722 146.169 375.958C148.935 375.319 151.275 373.616 152.551 371.064C152.977 369.574 152.977 367.873 152.764 366.169C148.722 321.703 148.083 276.808 151.062 232.127L169.786 225.744C170.849 225.531 171.7 224.893 172.339 224.042C172.764 223.191 172.977 222.126 172.764 221.064C172.339 210.638 170.849 200.212 168.509 190.212C166.168 180.638 162.977 171.276 156.807 164.042C148.083 153.829 134.892 150 122.551 146.595C116.381 159.574 104.679 169.787 91.275 171.489C89.7855 171.914 88.509 171.914 87.0195 171.914Z" fill="#681319"/>
<path d="M5.95536 283.191C6.16965 279.148 6.16966 274.256 6.16966 270.212C5.95538 265.956 5.74322 260.638 5.53108 256.382C5.10465 244.468 6.16966 237.234 6.80608 225.319C7.23251 218.509 5.10464 220.425 5.10464 212.765L37.4446 224.681C43.6161 244.468 42.5511 274.892 39.5725 287.233L37.0204 297.66C46.3825 307.02 73.6161 371.702 73.6161 371.702H73.4039C75.1054 373.404 77.0189 374.681 79.1468 375.744C83.4025 377.447 92.5519 381.915 96.3816 382.339C96.3816 382.339 97.8709 381.276 102.552 387.66C107.233 394.256 108.722 393.617 111.275 397.234C111.275 397.234 115.956 399.574 115.956 401.276C115.956 402.977 114.467 405.319 107.871 403.404C106.169 402.553 104.467 401.488 102.977 400.425C105.105 402.765 107.658 404.893 110.211 406.809C112.552 407.871 114.467 409.999 115.743 410.85C117.02 411.489 123.616 413.616 121.701 417.234C121.701 417.234 121.275 420 118.722 419.361C118.722 419.361 118.722 419.361 118.509 419.361C118.509 420 117.871 420.639 117.871 420.639C117.871 420.639 117.445 421.275 115.743 421.914C113.403 422.766 114.254 422.34 111.488 422.552C111.488 422.552 110.637 422.34 109.573 422.34C107.445 423.191 109.148 422.34 107.658 423.403C105.956 424.68 103.828 425.531 101.701 425.531C101.701 425.531 96.3816 425.957 94.6795 424.041C92.5519 424.256 90.4242 424.041 88.2966 423.191C84.8918 421.063 80.6361 418.084 79.7854 417.66C76.3825 415.744 73.8282 412.766 72.3389 409.149C69.7868 403.191 66.1696 393.829 62.1261 391.275C58.0846 388.723 56.5954 378.084 54.8918 376.809C35.7432 356.807 21.0625 338.724 12.5511 319.787C11.0618 316.17 9.14823 312.765 6.80608 309.786C5.3168 305.319 4.46607 300.851 4.04178 296.171C5.10464 291.276 5.95536 283.191 5.95536 283.191Z" fill="#883A20"/>
<path d="M131.275 65.5318C131.063 63.1914 129.786 63.6168 128.509 63.404C127.233 63.1914 125.744 63.404 124.467 63.1914C122.765 63.1914 121.275 63.1914 119.999 63.404C118.51 63.6168 117.233 64.2551 116.382 65.3191C115.318 66.3828 114.68 67.6595 114.467 68.936C114.68 69.1488 115.105 69.3615 115.318 69.3615C115.744 69.3615 115.744 69.3616 116.382 68.936C117.02 68.5104 117.446 68.0848 118.084 67.6595C119.573 66.8083 121.488 66.3828 123.403 66.5955C125.318 66.5955 127.02 67.0211 128.935 67.2339C129.361 67.2339 130.424 67.6595 130.85 67.4467C131.275 67.2339 131.275 65.9572 131.275 65.5318Z" fill="#3D1911"/>
<path d="M117.446 75.3191C117.446 73.8299 120.424 72.3404 120.637 72.3404C122.126 71.7022 123.616 71.2766 125.105 71.4894C126.169 71.4894 127.02 71.9148 127.871 72.3404C128.935 72.7659 130.212 72.9787 131.275 72.7659C130.637 73.4043 129.999 73.8299 129.361 74.2552C129.361 74.468 129.573 74.8936 129.361 75.3191C129.148 77.234 128.297 78.5107 126.595 78.9361H126.382C126.169 78.9361 126.169 78.9361 126.169 78.9361C123.19 78.5107 122.552 74.468 124.467 72.9787C123.403 72.9787 122.552 73.1915 121.488 73.6171C121.063 73.8299 120.424 74.0426 119.999 74.468C119.786 74.6808 119.148 75.1064 119.148 75.5319C119.148 75.9575 119.36 75.9575 119.573 76.1703C119.786 76.3831 120.212 76.5956 120.424 77.0212L121.275 77.4468L118.935 76.3831L118.51 76.1703C117.871 76.1703 117.446 75.9575 117.446 75.3191Z" fill="#331510"/>
<path d="M126.596 77.4469C126.17 77.2341 125.958 77.0214 125.745 76.5958C125.532 76.1704 125.532 75.5321 125.745 75.1065C125.958 74.6809 126.17 74.2554 126.596 73.83C126.17 73.4044 125.532 73.83 125.106 74.4681C124.894 75.1065 124.681 75.5321 124.894 76.1704C125.106 76.8086 125.532 77.2341 125.958 77.4469C126.17 77.4469 126.596 77.6597 126.596 77.4469Z" fill="#632212"/>
<path d="M267.445 216.169L273.19 217.022C274.466 217.234 275.743 217.658 276.807 218.511C281.488 221.276 288.722 229.575 287.871 253.618C286.594 288.298 281.7 303.191 283.615 317.021C285.53 330.851 292.764 351.488 282.339 403.618C282.339 403.618 279.998 431.702 285.317 447.446C286.594 450.426 287.232 453.617 287.658 456.808C287.658 460.213 286.381 460.425 285.956 466.17C285.53 470.426 285.956 475.106 283.403 479.788C282.339 481.701 280.849 487.022 278.509 488.936C276.594 490.639 274.679 488.723 273.19 489.786C268.509 492.553 265.956 491.702 264.679 489.786C262.977 487.234 269.785 485.745 271.275 484.256C271.275 484.256 264.892 487.446 263.615 484.894C262.339 482.128 270.211 478.511 271.275 476.809C273.615 472.341 274.679 467.659 274.679 462.765C274.254 459.148 273.615 455.533 272.551 452.128C272.551 452.128 270.636 458.723 271.275 461.914C271.913 465.107 272.126 477.021 266.807 476.383L265.53 476.171C265.317 474.043 265.317 472.127 265.53 469.999C265.743 465.958 264.679 455.745 264.892 452.978C265.105 450.212 266.807 434.468 269.573 428.511C272.339 422.552 271.275 385.744 265.956 371.276C260.637 356.809 264.253 331.277 263.828 327.872C263.402 324.467 261.7 310.425 261.7 305.106C261.7 301.701 259.573 274.894 259.998 251.276" fill="#883A20"/>
<path d="M134.466 748.511C134.679 750.212 135.318 751.489 136.381 752.766C137.871 754.256 139.998 755.319 141.913 755.531C159.786 760.637 178.083 765.319 196.807 766.594C202.339 767.021 207.658 767.021 213.19 766.809C229.998 765.958 246.169 760.852 262.339 755.531C262.339 755.531 262.339 755.531 262.551 755.531C262.977 755.319 263.615 755.107 264.041 755.107C268.935 753.403 273.615 751.914 278.509 750.424C282.126 749.362 286.381 747.66 287.658 743.829C288.296 742.127 288.296 740.211 288.083 738.298C287.445 731.276 284.679 724.68 282.977 717.872C282.551 715.956 282.126 714.043 281.913 712.127C280.849 702.765 280.849 692.979 280.424 683.616C280.211 681.276 280.211 677.447 279.998 672.553C279.786 664.68 279.573 653.829 279.573 641.488C279.36 633.403 279.36 624.679 279.147 615.744C278.934 605.319 278.934 594.682 278.722 584.469C278.296 557.021 278.083 532.766 277.871 524.893C277.871 523.404 277.871 521.914 277.658 520.425C277.445 509.362 277.02 498.298 276.807 487.447C276.807 483.617 276.594 479.786 276.594 475.957C276.381 462.765 276.169 449.786 276.169 436.594V432.553C276.169 411.276 276.169 389.361 272.126 368.509C271.275 364.256 270.424 360.212 269.36 356.171C265.956 343.83 261.7 332.128 259.786 319.575C258.722 312.765 259.573 306.169 260.849 299.361C261.913 293.829 263.19 288.298 263.615 282.553C264.466 273.403 260.637 261.276 267.658 255.958C273.403 251.702 284.892 243.617 290.424 239.362C290.211 237.872 289.998 236.595 289.998 235.106C288.296 222.979 285.743 212.128 281.062 202.766C277.232 194.894 261.488 192.766 253.828 189.787C253.828 189.787 252.552 192.766 249.998 197.021C245.317 204.681 236.381 215.531 223.19 217.02C219.786 217.447 216.381 217.02 213.19 215.957C196.807 211.277 182.764 192.979 182.764 192.979C172.339 194.468 160.424 197.447 156.807 204.043C150.637 215.107 146.807 242.552 146.807 242.552L173.19 254.254C173.828 259.575 174.466 266.171 175.105 273.191C176.807 293.616 177.445 318.51 174.892 334.256C172.764 345.744 168.934 356.807 166.807 368.297C166.381 370.637 165.956 372.979 165.53 375.319C162.764 391.701 161.7 408.51 160.637 425.319C160.211 433.404 159.573 441.489 158.934 449.361L152.551 527.447L151.913 536.383C150.849 549.999 150.211 563.829 149.785 577.447C148.935 601.914 148.509 626.595 146.169 651.064C145.317 660.639 144.466 670.213 143.615 679.575C143.19 685.532 142.764 691.277 142.339 697.234C141.7 708.084 142.126 720 139.36 730.425C138.934 731.702 138.722 732.979 138.083 734.254C137.658 735.532 137.02 736.809 136.594 738.084C135.318 741.064 134.041 745.106 134.466 748.511Z" fill="#681319"/>
<path d="M165.532 375.107H175.745C177.66 375.107 178.936 373.404 178.936 371.49V355.959H192.979C194.894 355.959 196.17 354.255 196.17 352.554V337.022H210.213C212.128 337.022 213.404 335.319 213.404 333.617V314.681C213.404 312.767 212.128 311.276 210.213 311.276H196.17V295.744C196.17 293.831 194.894 292.341 192.979 292.127H178.723V276.596C178.723 274.68 177.447 273.191 175.532 272.979H175.106C176.809 293.404 177.447 318.298 174.894 334.044C172.766 345.531 168.936 356.595 166.809 368.085C166.17 370.425 165.745 372.767 165.532 375.107Z" fill="#3D1911"/>
<path d="M189.786 238.296V257.659C189.786 259.361 191.062 260.85 192.977 261.064H207.02V276.596C207.02 278.297 208.083 279.574 209.573 279.999C209.785 279.999 209.998 280.213 210.424 280.213H224.466V295.744C224.466 297.446 225.743 298.935 227.658 299.149H244.679C244.892 299.149 244.892 299.149 245.105 299.149H260.849C261.913 293.616 263.19 288.084 263.615 282.341C264.466 273.191 260.637 261.064 267.658 255.744C273.403 251.488 284.892 243.403 290.424 239.149C290.211 237.66 289.998 236.383 289.998 234.894H282.977V219.148C282.977 217.446 281.488 215.957 279.786 215.745H265.317V200.212C265.317 198.297 264.041 196.808 262.126 196.808H227.445C225.53 196.808 224.254 198.51 224.254 200.212V215.745H210.211C208.296 215.745 207.02 217.446 207.02 219.148V234.681H192.977C191.062 235.106 189.786 236.595 189.786 238.296Z" fill="#3D1911"/>
<path d="M173.19 242.128C172.764 241.063 171.488 242.766 169.998 245.531L165.743 216.384L160.211 217.234C158.934 217.446 157.658 217.873 156.594 218.724C151.913 221.49 144.679 229.787 145.53 253.83C146.807 288.51 151.488 303.403 149.786 317.233C148.083 331.063 140.636 351.701 151.062 403.83C151.062 403.83 153.402 431.914 148.083 447.66C146.807 450.639 146.168 453.829 145.743 457.02C145.743 460.425 147.02 460.425 147.445 466.382C147.871 470.638 147.445 475.106 149.998 480C151.062 481.914 152.551 487.234 154.892 489.148C156.807 490.851 158.722 488.936 160.211 489.999C164.892 492.765 167.445 491.914 168.722 489.999C170.424 487.446 163.615 485.957 162.126 484.468C162.126 484.468 168.509 487.659 169.785 485.106C171.062 482.552 163.19 478.723 162.126 477.021C159.998 472.554 158.721 467.659 158.934 462.765C159.36 459.148 159.998 455.531 161.062 452.128C161.062 452.128 162.977 458.724 162.338 461.914C161.7 465.105 161.487 477.021 167.019 476.383L168.296 476.171C168.509 474.043 168.509 472.127 168.296 469.999C168.083 465.958 169.147 455.745 168.934 452.979C168.722 450.212 167.019 434.469 164.254 428.509C161.7 422.34 162.551 385.744 167.871 371.276C170.637 363.829 171.062 353.19 170.636 344.254V343.83C171.275 339.362 171.7 335.106 171.913 330.639C171.913 330.639 171.913 319.999 172.338 315.319C172.764 312.126 175.53 306.169 175.53 301.701C175.743 295.532 180.637 247.234 180.637 247.234C179.998 238.723 174.466 245.531 173.19 242.128Z" fill="#883A20"/>
<path d="M253.83 185.531C251.277 186.382 247.022 182.34 244.256 182.978C241.49 183.403 238.511 183.191 235.745 182.34C231.915 181.489 228.298 180.425 224.894 178.723C221.277 177.02 218.298 174.042 216.596 170.638C214.043 165.318 214.681 158.935 216.383 153.403C217.66 148.723 219.788 144.254 222.766 140.425C225.532 136.808 229.575 134.042 234.043 132.978C236.596 132.127 239.575 132.552 241.915 134.042C244.256 136.169 245.958 138.935 246.809 142.127C247.447 143.616 247.873 145.106 248.086 146.808C248.298 148.723 248.086 150.85 247.873 152.765C247.234 158.51 247.022 164.042 247.022 169.786C246.809 171.914 247.234 174.254 248.511 176.169C249.149 177.233 250.213 177.872 251.277 178.084L253.192 177.659" fill="white"/>
<path d="M240.637 173.616C239.786 169.574 239.573 159.573 240.637 155.531C240.85 154.254 241.488 153.191 242.552 152.552C243.829 151.914 245.531 152.127 246.808 152.765C251.701 154.467 256.807 154.893 261.914 154.254C263.616 154.041 265.318 153.616 266.807 152.765C268.297 151.701 269.148 149.999 269.148 148.084C268.935 145.956 267.446 143.403 268.935 142.127C269.361 141.701 269.573 141.488 269.999 141.276C271.276 140.212 271.488 138.297 270.424 137.02C270.212 136.808 269.999 136.595 269.786 136.382C271.063 135.531 271.914 134.254 272.127 132.765C272.127 132.552 272.127 132.127 271.914 131.914C271.063 130.637 269.573 127.659 270.212 126.595C270.637 125.957 271.276 125.957 271.914 125.531C272.765 124.68 273.19 123.191 272.552 121.914C272.127 120.637 271.276 119.573 270.637 118.51C268.51 114.68 267.233 110.424 267.02 105.956C266.807 101.488 266.382 97.233 265.318 92.765C262.978 83.4032 255.956 76.382 248.722 70.85C238.51 63.1905 225.318 60.6373 212.978 63.4033C206.382 65.1054 187.658 71.7011 187.233 95.9565C187.02 104.893 191.276 112.978 195.744 119.999C200.212 127.02 204.041 130.212 205.743 138.722C206.807 144.254 206.595 149.786 205.531 155.105C202.978 168.51 196.169 180.637 188.935 191.701C185.531 196.382 182.978 201.276 180.85 206.595C179.148 212.127 178.935 218.509 181.701 223.404C185.956 230.638 215.956 224.466 227.233 218.936C232.765 216.169 238.51 214.042 243.616 210.85C247.658 208.51 254.68 204.254 254.893 199.361C255.318 197.02 245.318 183.616 240.637 173.616Z" fill="#883A20"/>
<path d="M259.574 135.106C259.574 135.106 261.276 136.808 264.893 134.468C265.106 134.255 265.106 134.255 265.319 134.042C265.957 133.191 266.808 132.34 267.872 131.914C271.276 131.063 271.702 131.702 271.914 132.127C272.127 133.616 271.489 135.106 270.425 135.957C270.212 136.17 269.999 136.17 269.787 136.382C271.489 137.021 271.489 140.425 269.361 141.489C268.084 140.85 262.127 138.297 259.574 135.106Z" fill="#3D1911"/>
<path d="M265.744 125.106C265.957 124.893 266.169 124.68 266.595 124.68C267.02 124.68 267.446 124.68 267.871 124.68C268.084 124.68 268.297 124.893 268.297 124.893C268.51 125.106 268.51 125.319 268.51 125.319L268.297 125.531C267.871 125.744 267.233 125.319 266.595 125.319C265.957 125.319 265.318 125.531 264.68 125.957C264.893 126.382 264.893 125.744 265.744 125.106Z" fill="#3D1911"/>
<path d="M264.893 127.659C264.893 127.659 263.191 128.297 262.339 127.446C261.063 126.169 262.339 123.616 263.191 122.978C260.212 128.084 264.893 127.659 264.893 127.659Z" fill="#3D1911"/>
<path d="M179.999 78.0847C178.935 74.8933 190.637 83.1911 191.913 80.2123C193.19 77.2338 192.977 77.021 195.743 77.2338C194.041 75.9571 198.509 56.5955 201.275 57.872C201.275 54.4678 225.531 51.4891 226.594 58.9359L227.233 59.5741C236.807 59.9996 245.531 64.6805 251.062 72.3401C241.914 76.5954 238.722 78.0847 233.403 86.3827C228.509 94.2549 229.999 96.3826 227.445 105.531C226.807 108.085 225.531 110.851 223.19 111.276C221.701 111.276 220.424 110.851 219.148 110C216.382 108.51 212.339 108.085 211.062 111.063C210.424 113.404 210.85 115.957 212.552 117.872C214.041 119.574 215.318 121.702 215.956 124.042C216.169 125.532 215.743 127.021 215.956 128.51C216.169 130 217.02 131.702 218.509 131.489C216.807 137.447 213.616 162.766 208.722 165.957C199.786 171.702 199.999 193.404 197.233 191.702C196.594 191.276 195.956 190.851 195.318 190.638C194.467 190.425 193.403 190.425 192.552 190.638C189.999 190.638 187.871 189.149 186.594 187.021C186.169 185.957 185.531 185.106 184.892 184.255C184.254 183.829 183.403 183.829 182.552 183.829C177.658 183.404 173.616 146.808 174.041 141.489C174.254 140.638 174.254 139.574 174.041 138.723C173.616 137.872 172.977 137.234 172.339 136.595C166.594 131.489 165.956 122.553 171.275 116.595C171.701 115.957 172.339 115.532 172.977 114.893C171.063 111.702 169.786 107.872 169.573 104.042C169.573 100.212 171.488 95.9572 174.892 95.1061C175.743 94.8933 176.807 94.4677 176.807 93.6168C176.807 93.1912 176.594 92.7656 176.382 92.3401C174.041 87.6592 175.531 81.9146 179.999 79.1486" fill="#3D1911"/>
<path d="M144.467 230.426C145.105 229.999 145.744 229.575 146.169 228.724C146.595 227.659 146.595 226.596 146.382 225.743C145.744 220.425 148.084 213.83 152.978 213.191C152.978 209.788 153.829 206.596 155.744 204.043C156.808 202.766 158.084 201.49 159.574 200.639L160.212 200.213C160.212 200.213 160.212 200.213 160.212 200C159.361 197.873 158.51 196.596 157.659 194.894C155.531 190.639 156.808 185.319 160.638 182.554C160.85 182.341 161.063 182.128 161.276 181.915C162.765 180.851 164.467 180.851 165.957 181.702C164.68 180.213 162.765 177.022 161.914 171.49C159.574 154.468 159.999 121.702 165.531 105.319C168.51 96.596 168.723 92.9789 172.127 84.4683C175.105 77.6598 183.829 63.6172 190.425 61.064C197.446 58.298 201.489 55.1066 208.723 52.979C215.318 51.0641 241.063 60.0003 241.701 63.83C241.701 64.2556 239.786 62.7661 236.808 61.4896C235.531 61.064 234.255 60.6384 232.978 60.4256C230.85 60.2131 228.723 60.8512 227.233 62.3407C207.02 94.6811 210.85 118.936 209.148 142.979C208.084 156.383 212.978 177.873 218.722 181.702C224.042 185.319 232.552 185.958 238.084 185.958C240.85 185.958 243.403 185.319 245.744 184.043C247.659 182.341 249.148 180.638 250.212 179.788C250.425 179.362 250.85 178.724 251.063 178.298C251.488 177.66 252.34 177.234 253.191 177.234C258.297 177.022 266.595 177.447 270.85 180.638C274.042 182.979 278.084 190.426 278.084 190.426C282.765 189.149 284.68 204.894 287.446 213.404C288.297 215.957 288.935 218.297 289.574 220.639C290.212 222.979 290.85 225.531 291.276 228.086C292.765 234.467 293.403 240.851 293.191 247.446C292.552 261.064 270.425 262.127 261.701 262.553C249.786 263.404 237.871 262.766 226.169 260.85C213.191 258.724 199.786 255.743 187.446 250.001C181.276 251.914 175.318 254.254 169.148 255.743C161.488 257.659 153.191 258.298 145.957 255.107C141.701 253.618 138.51 250.213 137.02 245.957C135.531 240.426 139.361 233.616 144.467 230.426Z" fill="white"/>
<path d="M218.937 88.0841C219.362 87.0202 221.277 82.7649 222.128 81.0629C223.83 78.0841 225.532 75.1055 227.447 72.1267" fill="#803417"/>
<path d="M227.021 81.488C225.532 82.9775 224.468 84.8924 223.83 86.8073C222.128 91.2753 220.638 95.7434 219.362 100.424" fill="#803417"/>
<path d="M254.041 131.915C253.615 132.978 253.403 134.042 253.19 135.319C252.977 134.042 253.19 132.765 254.041 131.915Z" fill="#632212"/>
<path d="M167.445 182.979C167.445 182.979 181.488 209.149 217.445 215.533C217.445 215.533 176.382 216.596 167.445 182.979Z" fill="#E3DEC9"/>
<path d="M192.126 249.148C192.126 249.148 217.658 233.616 264.893 232.127C264.893 232.127 211.063 243.191 192.126 249.148Z" fill="#E3DEC9"/>
<path d="M278.085 194.893C278.085 194.893 286.171 204.681 275.745 217.02C279.362 210.212 280 202.34 278.085 194.893Z" fill="#E3DEC9"/>
<path d="M285.531 233.831C285.531 233.831 276.169 251.276 245.318 252.128C245.318 252.341 285.106 255.746 285.531 233.831Z" fill="#E3DEC9"/>
<path d="M152.977 215.533C152.977 215.533 154.892 241.277 194.467 232.127C194.467 232.127 149.36 246.383 152.977 215.533Z" fill="#E3DEC9"/>
<path d="M257.659 180.637C257.659 180.637 268.935 203.19 232.978 197.233C233.19 197.446 262.552 201.063 257.659 180.637Z" fill="#E3DEC9"/>
<path d="M199.574 185.957C199.574 185.957 181.064 168.936 186.596 127.872C186.596 127.872 174.255 167.872 199.574 185.957Z" fill="#E3DEC9"/>
<path d="M219.147 118.298C219.36 118.085 219.573 118.085 219.786 118.085H220.424L219.786 118.511C219.36 118.724 219.147 119.149 219.36 119.575C219.36 120 219.786 121.064 220.211 121.277H220.85L220.211 121.49C219.998 121.49 219.148 121.277 218.935 119.575C218.722 119.149 218.935 118.724 219.147 118.298Z" fill="#3D1911"/>
<path d="M214.042 111.914C214.042 111.914 220.851 110.85 220.851 117.02C220.851 117.02 221.064 117.871 220.425 118.084C220.425 118.084 220.851 114.467 218.723 113.403C217.447 112.552 215.744 111.914 214.042 111.914Z" fill="#3D1911"/>
<path d="M260.637 96.5947C257.446 96.5947 254.042 97.0203 250.85 97.4459C249.999 97.4459 249.361 97.6587 248.51 98.0842C245.956 99.5735 243.829 101.701 242.552 104.254C242.552 104.254 244.467 102.34 245.318 101.914C249.148 99.1479 254.68 99.3607 259.361 99.5735C260.212 99.3607 261.276 96.5947 260.637 96.5947Z" fill="#3D1911"/>
<path d="M246.382 113.404L247.233 112.766C247.658 112.553 247.871 112.127 248.084 111.915C249.148 109.787 251.276 108.085 253.616 107.234C254.467 107.021 255.531 106.808 256.595 106.595C257.446 106.595 258.509 106.383 259.361 105.744L261.488 104.255L260.212 107.021C259.786 108.085 258.935 108.298 258.297 108.51C258.509 109.149 258.722 110 258.722 110.212C258.935 111.489 259.148 112.766 257.871 113.617C256.807 114.468 255.318 114.681 254.041 114.468C252.552 113.617 251.914 111.915 252.552 110.425C251.701 111.064 250.85 111.915 250.212 112.978C249.786 113.617 249.361 114.255 248.722 114.468C249.786 114.893 250.85 115.319 252.127 115.957C252.765 116.17 251.488 116.383 251.276 116.383C249.573 115.532 247.871 114.893 246.169 114.255C245.531 113.829 245.956 113.617 246.382 113.404Z" fill="#331510"/>
<path d="M254.468 109.574C254.468 110 254.468 110.425 254.468 110.851C254.681 111.277 255.106 111.702 255.532 111.702C255.957 111.702 256.596 111.702 257.021 111.489C257.234 112.128 256.383 112.553 255.957 112.553C255.319 112.553 254.893 112.34 254.468 111.915C254.042 111.489 254.042 110.851 254.042 110.213C254.042 110 254.255 109.574 254.468 109.574Z" fill="#632212"/>
</g>
<defs>
<clipPath id="clip0_569_7830">
<rect width="300" height="300" fill="white" transform="matrix(-1 0 0 1 300 0)"/>
</clipPath>
</defs>
</svg>
