<svg width="100" height="290" viewBox="0 0 100 290" fill="none" xmlns="http://www.w3.org/2000/svg">
<g clip-path="url(#clip0_431_321)">
<g filter="url(#filter0_i_431_321)">
<path fill-rule="evenodd" clip-rule="evenodd" d="M80.9203 207.384C80.8303 208.744 80.7303 214.314 80.6303 224.084C80.4803 233.324 80.0403 242.834 79.3303 252.614C79.2403 253.854 79.0203 257.494 78.6803 263.554C78.3403 269.674 78.1703 272.954 78.1803 273.404C78.1503 274.284 78.2403 275.334 78.4703 276.554C78.5903 277.144 78.7003 277.584 78.8003 277.874C79.0703 278.774 79.1603 279.724 79.0903 280.714C79.0103 281.734 77.8903 282.634 75.7203 283.424C73.5403 284.224 70.9903 284.834 68.0603 285.284C65.1203 285.734 62.7503 286.214 60.9403 286.744C59.1403 287.264 58.1003 287.474 57.8503 287.384C57.5203 285.594 60.1003 282.624 65.5903 278.474C65.9903 278.044 66.4303 277.444 66.9003 276.674C67.7903 275.134 68.3403 273.534 68.5403 271.864C68.6803 270.804 68.6903 269.184 68.5603 267.024C68.4103 264.444 68.1103 261.504 67.6703 258.184C66.0303 246.594 64.9403 235.104 64.4003 223.694C64.1303 213.824 63.8603 207.674 63.5903 205.234L79.5403 205.394L80.9203 207.384Z" fill="#924520"/>
<path fill-rule="evenodd" clip-rule="evenodd" d="M52.9203 198.104L54.2703 200.074C54.1503 201.424 53.9703 206.994 53.7203 216.774C53.4203 226.004 52.8403 235.514 51.9603 245.294C51.8403 246.534 51.5703 250.184 51.1403 256.244C50.7003 262.364 50.4803 265.644 50.4803 266.104C50.4303 266.984 50.4903 267.934 50.6303 268.964C50.7803 269.994 50.9103 270.824 51.0403 271.454C51.2103 272.464 51.2203 273.224 51.0603 273.724C50.7803 274.584 48.9303 274.764 45.5203 274.284C41.9403 273.784 38.6303 273.324 35.5903 272.914C36.2603 272.354 37.0103 271.784 37.8103 271.184C38.2203 270.754 38.6803 270.154 39.1503 269.384C40.0703 267.854 40.6503 266.244 40.8803 264.574C41.0403 263.514 41.0803 261.904 40.9803 259.734C40.8703 257.164 40.6103 254.204 40.2203 250.894C38.7703 239.304 37.8603 227.804 37.5003 216.404C37.3803 206.534 37.2103 200.384 36.9803 197.944L52.9203 198.104Z" fill="#924520"/>
<path fill-rule="evenodd" clip-rule="evenodd" d="M32.3303 182.324C32.4003 184.894 32.3303 188.064 32.1203 191.814C31.9103 195.564 31.7103 198.044 31.5303 199.264C31.3503 200.434 31.1103 201.924 30.8103 203.734C30.5103 205.544 30.2703 206.774 30.1003 207.434C29.6903 207.294 29.4203 207.384 29.2903 207.704L29.5203 209.704L29.2803 211.564C32.0703 212.874 35.9503 213.794 40.9303 214.314C46.1103 214.854 51.7703 214.854 57.8903 214.314C57.9903 212.454 58.2103 211.244 58.5603 210.654C58.3503 210.184 58.0403 209.974 57.6103 210.044L58.6303 202.734C59.0403 200.114 59.4203 198.054 59.7803 196.564C60.1603 195.114 60.5703 192.424 61.0103 188.504C61.4703 184.544 62.2603 175.184 63.3603 160.384L33.2703 159.264L32.3303 182.324Z" fill="#7E1621"/>
<path fill-rule="evenodd" clip-rule="evenodd" d="M87.2103 184.944C87.3103 187.644 87.4103 190.224 87.5103 192.684C87.7103 197.614 88.3703 203.934 89.4803 211.664C90.5203 211.774 91.0303 212.084 91.0303 212.574C90.7403 213.384 90.6503 214.074 90.7603 214.644C90.8403 215.324 91.0203 215.854 91.3103 216.234C85.1003 217.904 79.3603 218.844 74.0603 219.064C68.8203 219.284 64.6503 218.784 61.5703 217.564C61.2603 215.824 61.0403 214.754 60.9103 214.344C60.6503 213.734 60.7703 213.394 61.2603 213.334C61.2303 213.104 61.0703 212.004 60.7603 210.014C60.8203 207.434 60.3903 202.884 59.4903 196.364C58.7203 190.914 57.5703 179.364 56.0503 161.704L85.7303 159.734C86.5603 172.504 86.9803 179.224 87.0103 179.894C87.0503 180.554 87.1103 182.244 87.2103 184.944Z" fill="#7E1621"/>
<path fill-rule="evenodd" clip-rule="evenodd" d="M21.24 275.624L21.21 276.404C21.67 278.114 23.05 278.764 25.34 278.334C26.54 277.974 27.75 277.574 28.99 277.144C29.67 277.184 30.6 277.164 31.75 277.074C32.87 276.984 34.37 276.664 36.22 276.124C39.39 275.264 41.65 274.924 43 275.104C44.35 275.284 45.95 275.524 47.79 275.814C49.49 276.014 50.61 275.254 51.17 273.534C51.31 273.154 51.24 272.254 50.96 270.824C50.71 269.384 50.57 267.874 50.55 266.314C50.55 264.734 49.64 263.744 47.83 263.334C46.04 262.904 44.15 263.264 42.15 264.384C41.69 264.684 41.23 265.014 40.78 265.404C39.03 266.934 37.07 268.004 34.89 268.584C32.99 269.064 31.1 269.724 29.24 270.584C28.53 270.884 27.64 271.204 26.59 271.574L25.76 272.354H25.8L26.62 271.914L27.34 271.944L27.45 272.184L26.31 272.154C26.2 272.224 26.04 272.294 25.83 272.354L25.14 272.594L24.49 273.374L25.08 273.074L26.28 272.734L26.98 272.864L26.22 272.964L24.5 273.374L23.71 273.684L23.12 274.874C24.54 274.404 25.62 274.094 26.35 273.964C27.08 273.854 27.51 273.734 27.63 273.624L27.22 274.034C26.78 274.234 26.16 274.374 25.35 274.444L22.98 274.954L21.24 275.624ZM47.89 268.714C48.12 268.084 48.18 267.434 48.06 266.784C48.17 267.194 48.26 267.574 48.33 267.934C48.47 268.724 48.2 269.344 47.51 269.794L46.65 269.664C47.29 269.634 47.71 269.314 47.89 268.714ZM22.38 276.464L24.03 275.574L24.14 275.174C24.21 275.284 24.25 275.404 24.28 275.514C24.3 275.554 24.3 275.604 24.28 275.644C24.28 275.714 24.27 275.784 24.24 275.844L22.25 276.794L21.6 275.604L21.84 275.564L22.38 276.464Z" fill="#924520"/>
<path fill-rule="evenodd" clip-rule="evenodd" d="M22.9601 274.944L25.3301 274.434C26.1401 274.364 26.7601 274.234 27.2001 274.024L27.6101 273.614C27.4901 273.724 27.0601 273.844 26.3301 273.954C25.6001 274.094 24.5201 274.394 23.1001 274.864L22.9601 274.944ZM26.3001 272.164L27.4401 272.194L27.3301 271.954L26.6101 271.924L25.7901 272.364H25.8201C26.0301 272.304 26.1901 272.234 26.3001 272.164ZM26.2001 272.974L26.9601 272.874L26.2601 272.744L25.0601 273.084L24.4701 273.384L26.2001 272.974ZM47.5101 269.794C48.2001 269.344 48.4801 268.724 48.3301 267.934C48.2601 267.574 48.1701 267.194 48.0601 266.784C48.1701 267.444 48.1201 268.084 47.8901 268.714C47.7101 269.314 47.2901 269.634 46.6501 269.664L47.5101 269.794ZM21.5801 275.624L22.2301 276.814L24.2201 275.864C24.2501 275.794 24.2601 275.734 24.2601 275.664C24.2801 275.624 24.2801 275.574 24.2601 275.534C24.2401 275.424 24.1901 275.304 24.1201 275.194L24.0101 275.594L22.3601 276.484L21.8101 275.594L21.5801 275.624Z" fill="#61453E"/>
<path fill-rule="evenodd" clip-rule="evenodd" d="M53.1499 286.294L52.6599 286.534L51.8399 286.434C51.3999 286.324 51.0699 285.984 50.8399 285.414C50.8199 285.324 50.8099 285.244 50.8099 285.184C50.6499 284.664 50.6499 284.084 50.8099 283.454V283.424C50.8299 283.384 50.8599 283.334 50.8799 283.294L51.0499 283.224C51.0499 283.204 51.0599 283.184 51.0799 283.154C51.0799 283.134 51.0899 283.124 51.1099 283.124H51.1799V283.084C51.2299 283.064 51.2899 283.044 51.3799 283.014C53.7499 282.424 56.1099 281.334 58.4799 279.734C63.3299 276.664 66.5199 274.314 68.0699 272.674C69.6099 271.024 70.9599 270.454 72.1299 270.944C73.2999 271.434 73.9999 271.684 74.2499 271.704C74.4799 271.724 74.7099 271.784 74.9399 271.874C75.2899 272.034 75.6299 272.184 75.9799 272.344C76.3299 272.524 76.5299 272.814 76.5999 273.224C76.6899 273.654 76.7599 274.264 76.8099 275.054C76.8799 275.844 77.1699 277.214 77.6699 279.154H77.6199C77.7399 279.904 77.7899 280.544 77.7599 281.084C77.6899 281.924 77.4599 282.454 77.0699 282.684L73.5999 284.104C71.4799 285.044 68.1799 286.104 63.7199 287.294C63.4899 287.814 63.0399 288.204 62.3799 288.474C62.1299 288.614 61.8999 288.704 61.6899 288.744C61.3899 288.834 61.1899 288.844 61.0699 288.774L61.0299 288.744L61.0699 288.704C61.3399 288.094 61.5199 287.214 61.5899 286.064V286.024C61.4299 286.864 61.2199 287.514 60.9699 287.994C60.9499 288.034 60.9199 288.094 60.8999 288.164L60.5599 288.774C60.5099 288.844 60.4899 288.894 60.4899 288.944C59.8499 289.304 59.2999 289.424 58.8399 289.314L58.7699 288.264C58.7699 288.244 58.7699 288.204 58.7699 288.164C58.9499 287.684 59.0799 287.304 59.1499 287.014C59.3299 286.354 59.4499 285.784 59.4899 285.284C59.2799 285.624 59.1099 286.024 58.9699 286.504C58.8099 286.934 58.6699 287.344 58.5599 287.714C58.5599 287.734 58.5599 287.754 58.5599 287.784C58.5099 287.784 58.4899 287.814 58.4899 287.884L57.3899 289.414C56.6299 289.574 56.1099 289.444 55.8299 289.044C55.5799 288.654 55.6399 288.194 56.0099 287.654V287.614C56.1499 287.324 56.2799 286.974 56.4199 286.564C56.6299 285.934 56.7899 285.324 56.8999 284.734C56.8799 284.754 56.8499 284.774 56.8299 284.804C56.5699 285.164 56.3299 285.674 56.0999 286.334C55.9599 286.734 55.8199 287.094 55.6899 287.384H55.6599L54.6599 288.534C53.6299 288.824 53.0599 288.714 52.9699 288.194L52.9399 287.144C53.0799 286.984 53.1999 286.824 53.3199 286.664C53.3499 286.624 53.3699 286.594 53.3899 286.594C53.4799 286.464 53.5899 286.314 53.6999 286.154L53.7699 286.084C53.9099 285.884 54.0599 285.674 54.2199 285.444C54.7699 284.614 55.1499 283.974 55.3499 283.544C55.3299 283.574 55.2899 283.594 55.2399 283.614C54.9399 283.724 54.5099 284.214 53.9399 285.074C53.6399 285.544 53.3899 285.964 53.1799 286.294H53.1499ZM51.8999 284.494C51.9299 284.564 51.9599 284.654 52.0099 284.764C52.8799 284.424 53.2299 283.804 53.0499 282.894C53.0499 282.784 53.0299 282.664 53.0099 282.554C52.7399 282.804 52.5999 283.124 52.5999 283.504C52.6199 283.844 52.4799 284.074 52.1599 284.184C52.0199 283.754 51.7999 283.384 51.4999 283.064L51.1999 283.134L51.0899 283.404L51.0599 283.434C51.4099 283.714 51.6999 284.074 51.8999 284.494ZM72.9799 277.854L73.8399 277.984C74.5299 277.534 74.8099 276.914 74.6699 276.124C74.5999 275.764 74.5099 275.384 74.3899 274.974C74.5099 275.634 74.4499 276.274 74.2199 276.904C74.0299 277.514 73.6199 277.834 72.9799 277.854ZM59.1399 288.524L59.1699 288.764L60.2399 288.734L60.2699 288.434L60.1699 288.234L60.0299 288.634L59.3799 288.704L59.3099 288.264L59.1399 288.324V288.524ZM55.9999 288.014V288.254C56.2999 288.544 56.6699 288.644 57.0999 288.524C57.1499 288.504 57.2099 288.494 57.2699 288.494L57.2999 288.114C56.4799 288.614 56.0899 288.514 56.1299 287.814L55.9999 288.014ZM54.6599 287.344C53.9999 287.974 53.6899 287.894 53.7299 287.104L53.5599 287.444C53.7199 287.674 53.9399 287.834 54.2199 287.924C54.3999 287.964 54.5499 287.934 54.6599 287.824L54.7299 287.454L54.6599 287.344ZM61.4099 288.424H61.4399C61.4899 288.424 61.5199 288.424 61.5399 288.424L61.9899 288.494L62.0599 288.394L62.0199 288.264L61.6199 288.394L61.4099 288.224C61.4099 288.264 61.4099 288.304 61.4099 288.324C61.4099 288.354 61.4099 288.384 61.4099 288.424Z" fill="#924520"/>
<path fill-rule="evenodd" clip-rule="evenodd" d="M62.37 288.454C62.21 288.574 62.05 288.664 61.89 288.764V288.734H61.68C61.89 288.684 62.12 288.594 62.37 288.454ZM60.89 288.154C60.91 288.084 60.94 288.024 60.96 287.984C61.21 287.504 61.42 286.854 61.58 286.014V286.054C61.51 287.204 61.34 288.084 61.06 288.694C60.99 288.424 60.94 288.244 60.89 288.154ZM56.1 286.324C56.33 285.664 56.57 285.154 56.83 284.794C56.85 284.764 56.88 284.744 56.9 284.724C56.78 285.314 56.63 285.924 56.42 286.554C56.28 286.964 56.14 287.314 56.01 287.604C55.94 287.514 55.83 287.434 55.7 287.374C55.83 287.084 55.97 286.734 56.1 286.324ZM58.96 286.494C59.1 286.014 59.26 285.604 59.48 285.274C59.43 285.774 59.32 286.344 59.14 287.004C59.07 287.294 58.94 287.674 58.76 288.154C58.71 288.034 58.64 287.894 58.56 287.714C58.67 287.334 58.8 286.924 58.96 286.494ZM53.94 285.074C54.51 284.214 54.94 283.734 55.24 283.614C55.29 283.594 55.33 283.574 55.35 283.544C55.15 283.974 54.76 284.604 54.22 285.444C54.06 285.674 53.91 285.884 53.77 286.084L53.19 286.284C53.39 285.954 53.64 285.544 53.94 285.074ZM51.18 283.144L51.48 283.074C51.78 283.394 52 283.764 52.14 284.194C52.46 284.084 52.61 283.854 52.58 283.514C52.58 283.134 52.72 282.814 52.99 282.564C53.01 282.674 53.03 282.794 53.03 282.904C53.21 283.804 52.87 284.434 51.99 284.774C51.94 284.664 51.91 284.574 51.88 284.504C51.68 284.074 51.39 283.724 51.02 283.454H51.05V283.424L51.18 283.144ZM74.38 274.974C74.5 275.384 74.59 275.764 74.66 276.124C74.8 276.914 74.52 277.534 73.83 277.984L72.97 277.854C73.61 277.834 74.02 277.514 74.21 276.904C74.44 276.274 74.5 275.634 74.38 274.974ZM57.31 288.114L57.28 288.494C57.21 288.494 57.16 288.504 57.11 288.524C56.68 288.634 56.31 288.544 56.01 288.254V288.014L56.15 287.814C56.1 288.514 56.48 288.614 57.31 288.114ZM59.31 288.254L59.38 288.694L60.03 288.624L60.17 288.224L60.27 288.424L60.24 288.724L59.17 288.754L59.14 288.514V288.304L59.31 288.254ZM54.66 287.814C54.55 287.924 54.4 287.954 54.22 287.914C53.95 287.824 53.72 287.664 53.56 287.434L53.73 287.094C53.68 287.884 54 287.964 54.66 287.334L54.73 287.434L54.66 287.814ZM61.41 288.224L61.62 288.394L62.03 288.264L62.07 288.394L62 288.494L61.55 288.424C61.53 288.424 61.5 288.424 61.45 288.424H61.42C61.42 288.384 61.42 288.344 61.42 288.314C61.41 288.304 61.41 288.264 61.41 288.224Z" fill="#61453E"/>
<path fill-rule="evenodd" clip-rule="evenodd" d="M7.89002 181.104C7.85002 181.224 7.72002 181.404 7.51002 181.634C7.34002 181.734 7.16002 181.824 6.98002 181.924C6.52002 181.734 6.21002 181.424 6.06002 180.974C5.95002 180.604 5.99002 180.084 6.19002 179.444C6.51002 178.834 6.72002 178.394 6.80002 178.144C7.57002 176.314 8.49002 174.564 9.57002 172.884L9.71002 172.814C9.75002 172.674 9.73002 172.644 9.63002 172.684C9.13002 172.634 8.72002 172.534 8.40002 172.384C8.13002 172.314 7.87002 172.184 7.64002 171.994C6.76002 171.504 6.31002 170.934 6.28002 170.314C6.48002 169.874 6.72002 169.584 6.98002 169.444C7.16002 169.564 7.55002 169.614 8.13002 169.624C8.76002 169.714 9.41002 169.624 10.07 169.364C10.65 169.154 11 169.064 11.14 169.094C11.26 168.924 11.55 168.704 11.98 168.464C12.42 168.224 12.96 167.874 13.61 167.404C14.26 166.934 15.39 166.584 17 166.354C18.64 165.994 20.27 166.664 21.89 168.374C22.22 168.734 22.46 169.034 22.61 169.274C22.59 170.584 22.24 171.854 21.58 173.084C21.43 173.594 21.2 173.994 20.9 174.274C20.61 174.764 20.26 175.164 19.88 175.484C18.98 176.514 18.29 177.494 17.79 178.414C17.25 179.254 16.97 179.954 16.95 180.494C16.7 180.854 16.6 181.064 16.65 181.154C16.57 181.414 16.53 181.814 16.51 182.364C16.46 183.044 16.24 183.544 15.84 183.864C15.7 183.834 15.57 183.794 15.43 183.764C15.33 183.604 15.22 183.504 15.08 183.464C15.16 183.424 15.05 183.214 14.72 182.854C14.51 182.324 14.61 181.614 15.02 180.744L14.96 180.934C15.16 180.504 15.51 179.824 16 178.904L15.88 178.974C15.5 179.504 15.19 180.054 14.94 180.614C14.57 181.364 14.41 182.154 14.45 182.994C14.42 183.334 14.37 183.634 14.29 183.894C14.2 183.934 14.18 184.004 14.23 184.084C14.02 184.524 13.65 184.774 13.12 184.854C12.98 184.824 12.89 184.864 12.86 184.994L12.51 184.704C12.01 183.674 11.87 182.564 12.08 181.374C12.07 181.194 12.05 181.074 12.02 180.994L11.99 180.934C12.61 179.834 13.04 179.004 13.28 178.434C12.69 179.194 12.25 179.924 11.97 180.614C11.93 180.744 11.87 180.934 11.8 181.194C11.55 181.544 11.45 181.864 11.51 182.164C11.42 182.204 11.39 182.334 11.39 182.544C11.17 183.534 10.88 184.014 10.52 183.994C10.48 184.124 10.43 184.154 10.38 184.064C9.98002 184.174 9.76002 184.194 9.71002 184.104L9.43002 183.934C8.87002 182.624 8.71002 181.194 8.95002 179.654L9.08002 179.584C9.12002 179.454 9.20002 179.304 9.32002 179.124L9.45002 179.054C9.52002 178.584 9.72002 178.154 10.06 177.744C9.51002 178.374 9.09002 179.034 8.81002 179.734C8.59002 180.334 8.27002 180.774 7.89002 181.104ZM11.97 172.204C11.16 172.554 10.49 172.704 9.97002 172.654C11.36 172.864 12.69 172.554 13.97 171.754C14.15 171.654 14.39 171.584 14.7 171.514C13.93 171.404 13.02 171.634 11.97 172.204ZM18.94 171.304L18.8 171.064C18.19 171.404 17.45 171.534 16.59 171.464C17.54 171.694 18.32 171.634 18.94 171.304ZM16.55 177.474C14.48 177.524 12.89 176.724 11.78 175.074C11.67 174.694 11.54 174.384 11.4 174.144L11.27 174.224C12.2 176.734 13.95 177.814 16.55 177.474Z" fill="#924520"/>
<path fill-rule="evenodd" clip-rule="evenodd" d="M14.9401 180.624C15.1801 180.064 15.4901 179.514 15.8801 178.984L16.0001 178.914C15.5101 179.834 15.1601 180.514 14.9601 180.944L15.0201 180.754L14.9401 180.624ZM8.83008 179.774C9.11008 179.074 9.53008 178.414 10.0801 177.784C9.75008 178.184 9.54008 178.624 9.47008 179.094L9.34008 179.164L8.83008 179.774ZM13.2901 178.454C13.0501 179.024 12.6201 179.854 12.0001 180.954C12.0001 180.824 11.9801 180.724 11.9801 180.644C12.2601 179.944 12.6901 179.214 13.2901 178.454ZM11.3901 174.144C11.5401 174.394 11.6601 174.704 11.7701 175.074C12.8801 176.724 14.4801 177.524 16.5401 177.474C13.9501 177.814 12.1901 176.734 11.2501 174.214L11.3901 174.144ZM18.7901 171.054L18.9301 171.294C18.3201 171.624 17.5401 171.684 16.5801 171.454C17.4501 171.524 18.1801 171.394 18.7901 171.054ZM13.9701 171.764C12.6901 172.564 11.3501 172.874 9.97008 172.664C10.4901 172.714 11.1601 172.564 11.9701 172.214C13.0201 171.644 13.9301 171.404 14.7001 171.524C14.3901 171.584 14.1501 171.664 13.9701 171.764Z" fill="#893D1E"/>
<path fill-rule="evenodd" clip-rule="evenodd" d="M29.8601 97.2238C29.8301 101.944 29.3901 106.864 28.5501 111.994C27.8701 115.194 27.3801 118.314 27.0701 121.374C26.6101 124.534 26.2201 126.804 25.8801 128.164C25.7101 129.414 25.6201 130.284 25.6001 130.754C25.7001 131.374 25.8701 131.784 26.1301 131.964C26.5001 132.294 27.0401 132.694 27.7401 133.154C28.5001 133.694 29.4501 134.064 30.5701 134.264C32.2801 134.764 33.5701 134.694 34.4101 134.024C35.3401 131.824 36.5001 128.614 37.8901 124.394C39.0801 120.074 40.2701 115.354 41.4701 110.224C43.0001 104.544 43.7801 100.084 43.8201 96.8538C43.7701 93.6638 43.0901 91.1838 41.7701 89.3938C40.5801 87.6338 39.0601 86.3138 37.2101 85.4538C35.2601 84.6438 33.6101 85.1938 32.2201 87.1138C30.8901 89.2238 30.1001 92.6038 29.8601 97.2238Z" fill="#924520"/>
<path fill-rule="evenodd" clip-rule="evenodd" d="M18.4901 171.364C20.1601 171.424 21.4801 170.914 22.4601 169.834C23.1801 169.104 23.8401 167.774 24.4201 165.834C25.0401 163.974 25.9401 161.494 27.0901 158.374C28.0801 155.564 29.1701 152.634 30.3701 149.594C31.3501 146.584 32.2201 143.774 32.9901 141.184C33.6801 138.644 34.2301 135.804 34.6601 132.644C34.9201 129.584 33.8601 127.844 31.5001 127.404C29.0601 127.014 27.3201 127.324 26.2901 128.314C25.3601 129.474 24.4201 131.394 23.4701 134.074C22.5601 136.634 21.7301 139.414 20.9801 142.414C20.2501 145.084 19.6301 148.014 19.1201 151.224C18.5101 154.474 17.9201 157.454 17.3301 160.154C16.7901 162.934 16.3101 165.034 15.8901 166.464C15.6001 167.924 15.5701 169.124 15.8001 170.074C15.8701 170.804 16.7701 171.234 18.4901 171.364Z" fill="#924520"/>
<path fill-rule="evenodd" clip-rule="evenodd" d="M30.9 80.7836C32.22 78.8536 34.46 78.1736 37.64 78.7536C40.79 79.3336 42.71 81.9536 43.38 86.6136C44.02 95.5836 43.92 104.534 43.07 113.434C36.06 115.434 29.95 115.224 24.73 112.794C24.78 103.494 25.51 96.3136 26.89 91.2436C28.25 86.1836 29.59 82.6936 30.9 80.7836Z" fill="#7E1621"/>
<path fill-rule="evenodd" clip-rule="evenodd" d="M73.3401 77.3836C72.0501 78.3436 70.6201 79.7536 69.0301 81.6136C61.3001 90.6836 54.5401 94.6936 48.7201 93.6536C46.0001 93.2036 43.8901 92.3836 42.3901 91.1936C41.1001 90.2136 40.1001 88.6936 39.3701 86.6336C37.8401 82.8036 37.9701 78.9336 39.7701 75.0336C42.6901 73.8236 44.6001 72.6136 45.5101 71.4136C46.4201 70.2036 46.9501 68.7636 47.1101 67.0836C47.1601 65.8136 47.1401 64.6136 47.0201 63.4836L47.1601 55.1036C48.3701 55.0236 51.0601 54.7036 55.2301 54.1436C56.7501 53.9336 58.6901 54.0036 61.0301 54.3436C64.1201 54.7736 66.0401 55.0036 66.7801 55.0236L65.1701 62.4136C64.7301 64.3936 64.6101 65.8736 64.8201 66.8536C65.0901 67.9836 65.6301 69.0136 66.4601 69.9236C67.2801 70.8336 69.3801 73.1136 72.7601 76.7736C72.9701 76.9936 73.1601 77.1936 73.3401 77.3836ZM74.2101 76.5636C74.2701 76.6036 74.3301 76.6536 74.3801 76.6936C74.3601 76.7036 74.3301 76.7236 74.3101 76.7336C74.2801 76.6736 74.2401 76.6236 74.2101 76.5636Z" fill="#924520"/>
<path fill-rule="evenodd" clip-rule="evenodd" d="M40.3702 74.4839C37.5002 76.4639 34.5302 78.0039 31.4802 79.1139C31.3902 80.0039 31.1902 81.9439 30.8902 84.9239C30.5802 87.9039 30.5202 95.6839 30.7002 108.264C33.2002 130.984 31.8702 150.834 26.7002 167.814C43.0002 175.114 63.3102 177.034 87.6402 173.574C86.0402 152.574 84.9502 131.244 84.3402 109.574C84.0802 103.144 84.0002 97.5639 84.0802 92.8639C84.1602 88.1539 83.9002 84.3739 83.2902 81.5339C81.6002 80.0339 80.1502 78.8339 78.9502 77.9239C77.7502 77.0139 76.6402 76.1639 75.6302 75.3639H75.5602V75.3239C75.3602 75.2339 75.0902 75.1639 74.7702 75.1239C72.4702 74.8139 70.3102 75.2639 68.2602 76.4839C66.2102 77.6939 63.0902 80.4439 58.9002 84.7339C54.7002 89.0239 51.3902 91.4439 48.9702 92.0039C46.5402 92.5639 44.7202 92.6039 43.5102 92.1039C42.1302 91.5139 41.0802 90.5239 40.3402 89.1239C38.9102 86.3639 38.3302 83.5539 38.5802 80.6839C38.7902 78.2739 39.3802 76.2039 40.3702 74.4839Z" fill="#FDC99D"/>
<path fill-rule="evenodd" clip-rule="evenodd" d="M40.3703 74.4838C39.3803 76.2038 38.7903 78.2738 38.5803 80.6838C38.3303 83.5538 38.9103 86.3638 40.3403 89.1238C41.0703 90.5238 42.1203 91.5138 43.5103 92.1038C44.7303 92.6038 46.5403 92.5638 48.9703 92.0038C51.3903 91.4438 54.7103 89.0238 58.9003 84.7338C63.0903 80.4438 66.2203 77.6938 68.2603 76.4838C70.3003 75.2638 72.4703 74.8138 74.7703 75.1238C75.0903 75.1738 75.3503 75.2338 75.5603 75.3238L73.5303 73.7638C73.2603 73.5638 72.6703 73.0538 71.7803 72.2338C71.1403 71.6438 70.7203 71.3738 70.5403 71.4238C68.4103 71.8038 66.3803 72.7638 64.4803 74.3038C62.9403 75.5238 60.5403 77.8138 57.2703 81.1838C54.0003 84.5438 50.9003 86.6738 47.9703 87.5538C45.0403 88.4338 43.2803 87.7438 42.6903 85.4738C42.0903 83.2038 41.7503 81.3438 41.6503 79.9038C41.5603 78.6638 41.6203 77.5938 41.8303 76.6838C42.1903 75.0338 42.6403 74.0038 43.1703 73.5938C42.8103 73.2738 42.4903 73.2238 42.2403 73.4238C41.9803 73.6338 41.7403 73.7938 41.5203 73.8938C41.2803 74.0138 40.9003 74.2038 40.3703 74.4838Z" fill="#7E1621"/>
<path fill-rule="evenodd" clip-rule="evenodd" d="M50.1701 14.1237C53.8301 13.8737 57.0201 14.0037 59.7301 14.5037C62.5201 14.9737 65.8401 16.0737 69.6801 17.8137C73.6301 19.5337 76.3301 22.1137 77.8001 25.5237C79.3601 28.8537 79.9501 33.0337 79.5601 38.0737C78.9101 45.2037 76.3201 50.3137 71.8201 53.4037C67.9901 56.0337 63.1201 57.0337 57.2101 56.3937C51.9701 55.8137 47.1701 54.1837 42.8201 51.5037C38.4601 48.8237 36.3801 45.9037 36.5701 42.7337C36.7501 39.5737 36.7101 35.6837 36.4401 31.0537C36.1801 26.4237 37.7601 22.7237 41.2001 19.9437C43.5401 16.3037 46.5201 14.3637 50.1701 14.1237Z" fill="#4F2414"/>
<path fill-rule="evenodd" clip-rule="evenodd" d="M52.4603 21.6636C54.8803 21.7436 57.7903 22.1636 61.1803 22.9036C64.5603 23.6436 67.1703 25.2536 69.0203 27.7436C70.8703 30.2236 71.4603 33.1336 70.8003 36.4736C70.1403 39.8136 69.9803 43.0436 70.3403 46.1736C71.3003 48.0236 72.0003 48.9436 72.4503 48.9436C72.9003 48.9436 72.5503 49.9236 71.3803 51.8836C70.2103 53.8436 69.0803 56.2736 67.9803 59.1736C66.9103 62.0636 64.9003 64.5136 61.9403 66.5136C58.9903 68.4736 55.1803 69.2836 50.5103 68.9436C45.8503 68.6036 44.7003 68.0736 41.7803 66.2736C38.8803 64.4536 37.9603 62.6136 36.1103 58.4536C35.2603 55.0536 34.0103 50.8036 34.5403 45.7936C36.0903 41.1236 36.7703 37.2136 36.5703 34.0536C36.3703 30.8936 37.2403 27.7836 39.1703 24.7136C41.1003 21.6436 43.1903 20.3436 45.4503 20.8336C47.6903 21.2936 50.0403 21.5836 52.4603 21.6636Z" fill="#924520"/>
<path fill-rule="evenodd" clip-rule="evenodd" d="M71.3901 47.5636C70.7501 48.3836 69.9301 50.8536 68.9201 54.9936L68.3901 57.2436L69.0401 57.3236C71.0201 57.5436 72.7301 57.1536 74.1801 56.1636C75.7601 55.1236 76.6701 53.6636 76.9101 51.7736C77.0901 50.3736 76.8501 49.2136 76.1801 48.3036C75.6001 47.4536 74.7401 46.9636 73.6001 46.8236C72.9601 46.7436 72.3001 46.9036 71.6501 47.3236L71.3901 47.5636Z" fill="#924520"/>
<path fill-rule="evenodd" clip-rule="evenodd" d="M75.3299 50.2839C74.6599 49.6139 73.9599 49.3739 73.2099 49.5539C72.6599 49.6739 75.3299 50.2839 75.3299 50.2839Z" fill="#4F2414" stroke="#4F2414" stroke-width="0.2263" stroke-miterlimit="10" stroke-linejoin="bevel"/>
<path fill-rule="evenodd" clip-rule="evenodd" d="M72.9803 27.9237C73.0103 26.6937 72.5203 25.3637 71.5203 23.9437C70.3503 22.3137 68.9403 21.3437 67.2803 21.0537C68.9503 21.9737 70.2003 22.9437 71.0403 23.9837C71.9703 25.0437 72.6203 26.3637 72.9803 27.9237Z" fill="#924520"/>
<path fill-rule="evenodd" clip-rule="evenodd" d="M74.5599 26.2239C74.5699 25.2039 74.1599 24.1039 73.3499 22.9239C72.3799 21.6039 71.2299 20.8039 69.8799 20.5439C71.2599 21.3039 72.2799 22.0939 72.9599 22.9239C73.7299 23.8139 74.2599 24.9139 74.5599 26.2239Z" fill="#924520"/>
<path fill-rule="evenodd" clip-rule="evenodd" d="M70.6599 28.0038C70.6599 27.0738 70.2799 26.0838 69.5399 25.0338C68.6899 23.8138 67.6499 23.0938 66.4199 22.8838C67.6599 23.5638 68.5799 24.2838 69.1999 25.0438C69.8899 25.8338 70.3799 26.8238 70.6599 28.0038Z" fill="#924520"/>
<path fill-rule="evenodd" clip-rule="evenodd" d="M81.2201 189.984C78.5101 188.394 77.0001 186.074 76.7001 183.004C76.8001 183.204 76.8501 183.354 76.8501 183.454C77.4601 186.224 78.9101 188.404 81.2201 189.984H81.3701C81.6701 190.084 81.9201 190.174 82.1201 190.274C82.8201 190.474 83.5801 190.524 84.3801 190.424C83.8801 190.324 83.3801 190.134 82.8701 189.834C80.5601 188.154 79.1001 185.974 78.5001 183.304C78.7001 183.704 78.8501 184.144 78.9601 184.634C80.1601 187.214 81.9701 189.144 84.3901 190.424H84.5401C84.7401 190.424 85.0401 190.474 85.4501 190.574C85.7501 190.674 86.1001 190.674 86.5001 190.574L86.2001 189.534C85.7001 189.044 85.0901 188.544 84.3801 188.054C82.7701 186.964 81.7201 185.424 81.2101 183.454C81.4201 183.654 81.5701 183.894 81.6701 184.194C82.9801 186.474 84.8901 187.954 87.4001 188.654L87.7001 188.514C87.7001 188.414 87.6501 188.314 87.5501 188.214C87.4401 187.424 87.0401 186.684 86.3401 185.984C84.2301 184.104 83.7201 181.824 84.8301 179.154C85.8301 176.684 85.4401 174.054 83.6201 171.284C82.0101 169.604 80.3001 169.454 78.4901 170.834L78.1901 171.284L77.1401 173.654C76.4301 175.144 75.8801 176.774 75.4801 178.554C74.9801 180.334 75.0701 182.414 75.7801 184.794C76.5001 187.254 78.3101 188.994 81.2201 189.984Z" fill="#924520"/>
<path fill-rule="evenodd" clip-rule="evenodd" d="M84.3902 188.054C82.7802 186.964 81.7302 185.424 81.2202 183.454C81.4302 183.654 81.5802 183.894 81.6802 184.194C82.9902 186.474 84.9002 187.954 87.4102 188.654C86.8102 188.854 86.2102 188.754 85.6002 188.354C85.5002 188.254 85.4002 188.204 85.3002 188.204L86.2102 189.534C85.7102 189.044 85.1002 188.554 84.3902 188.054ZM82.8802 189.834C80.5702 188.154 79.1102 185.974 78.5102 183.304C78.7102 183.704 78.8602 184.144 78.9702 184.634C80.1702 187.214 81.9802 189.144 84.4002 190.424C83.8902 190.334 83.3902 190.134 82.8802 189.834ZM76.7002 183.004C76.8002 183.204 76.8502 183.354 76.8502 183.454C77.4602 186.224 78.9102 188.404 81.2202 189.994C78.5102 188.404 77.0002 186.074 76.7002 183.004Z" fill="#924520"/>
<path fill-rule="evenodd" clip-rule="evenodd" d="M88.2802 101.604C89.5602 111.114 90.3402 118.274 90.6202 123.084C90.9002 127.894 90.5302 134.574 89.5402 143.134C88.5502 151.694 86.8202 162.974 84.3602 176.984L77.2702 175.354C77.6602 168.234 77.8502 161.724 77.8402 155.804C77.8202 149.884 77.9002 142.624 78.0802 134.004C78.2602 125.394 77.5302 114.214 75.9302 100.484L87.2602 100.074L88.2802 101.604Z" fill="#924520"/>
<path fill-rule="evenodd" clip-rule="evenodd" d="M85.5499 82.8936C87.6799 84.9336 89.4799 88.7236 90.9399 94.2636C92.3999 99.7936 93.4299 107.724 94.0299 118.044C88.4299 122.244 81.6699 122.804 73.7499 119.704C72.9299 109.814 72.5399 99.9136 72.5799 90.0236C72.6999 85.1636 74.3599 82.2536 77.5599 81.2836C80.7599 80.3136 83.4199 80.8536 85.5499 82.8936Z" fill="#7E1621"/>
<path fill-rule="evenodd" clip-rule="evenodd" d="M44.7301 40.3037C44.7601 40.5337 44.7401 40.7837 44.7001 41.0437C44.5801 41.8237 44.2101 42.4437 43.5601 42.9237C42.9201 43.4037 42.2001 43.5737 41.4101 43.4737C40.6201 43.3737 39.9801 43.0137 39.5001 42.3937C39.0201 41.7737 38.8501 41.0837 38.9801 40.2837C39.0201 40.0237 39.1001 39.7737 39.2101 39.5437C39.3701 39.1237 39.6601 38.7637 40.0501 38.4737C40.5101 38.4337 40.9901 38.4137 41.4901 38.4637C42.4701 38.5337 43.4201 38.7637 44.3201 39.1737C44.5701 39.5237 44.7001 39.8937 44.7301 40.3037Z" fill="#4F2414" stroke="#4F2414" stroke-width="0.2263" stroke-miterlimit="10" stroke-linejoin="bevel"/>
<path fill-rule="evenodd" clip-rule="evenodd" d="M43.72 54.9836C42.93 55.2536 42.46 55.5536 42.29 55.8936L43.69 57.3236C44.72 57.6636 45.77 57.8936 46.86 58.0136C47.14 58.0536 47.56 57.9536 48.11 57.7336C48.73 57.4636 49.14 57.3236 49.36 57.3036L49.51 57.2736C49.48 56.8436 49.11 56.3136 48.39 55.6836C47.67 55.0436 46.91 54.7036 46.1 54.6636C45.3 54.6136 44.51 54.7236 43.72 54.9836Z" fill="#4F2414" stroke="#4F2414" stroke-width="0.2263" stroke-miterlimit="10" stroke-linejoin="bevel"/>
<path fill-rule="evenodd" clip-rule="evenodd" d="M49.3603 57.3036C49.1703 57.3136 48.8003 57.3236 48.2703 57.3536C47.7403 57.3736 47.2403 57.3736 46.7803 57.3436C46.3203 57.3136 45.8703 57.2336 45.4003 57.1336C44.9503 57.0336 44.4303 56.8936 43.8703 56.7236L42.2903 55.9136L42.2403 56.0036C41.8903 56.3536 41.9203 56.9836 42.3103 57.8836C42.7003 58.7836 43.6403 59.3136 45.1303 59.4636C46.6203 59.6136 47.7003 59.3636 48.3903 58.6936C49.0603 58.0136 49.3903 57.5536 49.3603 57.3036Z" fill="#7A3319"/>
<path fill-rule="evenodd" clip-rule="evenodd" d="M45.3502 35.1537L45.8502 34.5837C45.8702 34.5337 45.8802 34.4937 45.8502 34.4737C45.7102 34.1937 45.5202 33.9537 45.2802 33.7337C44.1402 33.5737 42.9802 33.4337 41.8102 33.3037C41.3102 33.3837 40.8202 33.5237 40.3402 33.7037C39.7502 33.8137 39.1602 34.0237 38.5902 34.3337C38.1402 34.5937 37.7602 34.9637 37.4502 35.4437C38.3602 35.0037 39.2702 34.7337 40.2002 34.6437C40.8202 34.5337 41.4102 34.5137 41.9902 34.5737C43.1502 34.7237 44.2802 34.9137 45.3502 35.1537Z" fill="#4F2414"/>
<path fill-rule="evenodd" clip-rule="evenodd" d="M64.7301 36.2739C64.5401 36.0939 64.3301 35.9139 64.0901 35.7639C63.5601 35.3939 63.0001 35.0939 62.4001 34.8439C61.7001 34.5939 60.9801 34.3939 60.2501 34.2139C59.9001 34.2539 59.5601 34.2939 59.2101 34.3439C58.3201 34.4239 57.4301 34.5639 56.5401 34.7739C56.3501 34.7939 56.1801 34.8839 56.0501 35.0239C55.9701 35.1739 55.9001 35.3339 55.8501 35.5139L56.2001 35.9839C57.1901 35.8839 58.1901 35.7439 59.2001 35.5639C60.6801 35.3739 62.1101 35.4939 63.5001 35.9339C63.7701 36.0139 64.0301 36.1139 64.3001 36.2239C64.4401 36.2239 64.5901 36.2439 64.7301 36.2739Z" fill="#4F2414"/>
<path fill-rule="evenodd" clip-rule="evenodd" d="M41.4901 38.4537C40.9801 38.4137 40.5101 38.4237 40.0501 38.4637C38.4301 38.6237 37.0201 39.3037 35.8301 40.4737C35.9001 40.4337 35.9701 40.4037 36.0501 40.3537H36.0801L36.3101 40.2237C37.1601 39.8337 38.1301 39.5837 39.2101 39.5337C40.2801 39.4637 41.4601 39.5437 42.7501 39.8037C43.4401 39.9337 44.1101 40.1037 44.7301 40.2937C45.9701 40.6537 47.0501 41.1137 47.9901 41.6937C46.8501 40.5237 45.6201 39.6737 44.3201 39.1537C43.4301 38.7537 42.4801 38.5237 41.4901 38.4537Z" fill="#4F2414" stroke="#4F2414" stroke-width="0.2263" stroke-miterlimit="10" stroke-linejoin="bevel"/>
<path fill-rule="evenodd" clip-rule="evenodd" d="M67.0001 44.1636C65.0301 42.1836 62.8601 41.1036 60.4901 40.9236C58.2401 40.7436 56.3501 41.4136 54.8301 42.9336C54.9001 42.8836 54.9601 42.8436 55.0201 42.8236C55.1101 42.7636 55.2001 42.7236 55.2901 42.7036C55.9801 42.3836 56.7601 42.2036 57.5901 42.0936C57.3001 42.4636 57.1001 42.9036 57.0201 43.4036C56.9001 44.1836 57.0701 44.8836 57.5501 45.5036C58.0201 46.1236 58.6501 46.4836 59.4501 46.5836C60.2501 46.6936 60.9601 46.5036 61.6101 46.0336C62.2501 45.5636 62.6301 44.9336 62.7501 44.1536C62.8501 43.5336 62.7501 42.9636 62.4701 42.4436C64.2301 42.8536 65.7501 43.4136 67.0001 44.1636Z" fill="#4F2414" stroke="#4F2414" stroke-width="0.2263" stroke-miterlimit="10" stroke-linejoin="bevel"/>
<path d="M44.6901 51.1437C44.6901 51.1437 43.9101 51.3537 43.6401 50.8537C43.2301 50.1037 43.9401 48.9436 44.3801 48.6836C42.7101 51.0936 44.6901 51.1437 44.6901 51.1437Z" fill="#4F2414" stroke="#4F2414" stroke-width="0.2263" stroke-miterlimit="10" stroke-linejoin="bevel"/>
<path d="M45.8402 50.5035C45.9802 50.4735 46.1402 50.4735 46.2102 50.4835C46.3402 50.4935 46.4602 50.5235 46.5802 50.5835C46.6302 50.6035 46.6802 50.6435 46.7102 50.6835C46.7402 50.7335 46.7402 50.7935 46.7002 50.8435C46.6802 50.8735 46.6502 50.8835 46.6102 50.8835C46.4602 50.9035 46.3302 50.7835 46.1802 50.7435C45.8302 50.6535 45.2002 50.8335 45.2002 50.8335C45.2002 50.8335 45.4502 50.5935 45.8402 50.5035Z" fill="#4F2414" stroke="#4F2414" stroke-width="0.2263" stroke-miterlimit="10" stroke-linejoin="bevel"/>
<path d="M49.6802 51.8835C49.6802 51.8835 50.3602 52.3135 50.7802 51.9135C51.4002 51.3135 51.0802 50.0035 50.7302 49.6235C51.5902 52.4335 49.6802 51.8835 49.6802 51.8835Z" fill="#4F2414" stroke="#4F2414" stroke-width="0.2263" stroke-miterlimit="10" stroke-linejoin="bevel"/>
<path d="M48.7803 50.9437C48.6603 50.8737 48.5003 50.8237 48.4303 50.8037C48.3003 50.7737 48.1703 50.7737 48.0503 50.7937C47.9903 50.8037 47.9403 50.8137 47.9003 50.8537C47.8603 50.8837 47.8303 50.9537 47.8603 51.0037C47.8803 51.0337 47.9003 51.0537 47.9303 51.0637C48.0703 51.1237 48.2303 51.0537 48.3903 51.0537C48.7503 51.0737 49.3003 51.4337 49.3003 51.4337C49.3003 51.4337 49.1203 51.1537 48.7803 50.9437Z" fill="#4F2414" stroke="#4F2414" stroke-width="0.2263" stroke-miterlimit="10" stroke-linejoin="bevel"/>
<path opacity="0.33" d="M51.6699 71.0738C52.6699 70.9438 53.6599 70.7738 54.6499 70.5938C55.6399 70.4138 56.6199 70.2038 57.5899 69.9438C58.5699 69.7138 59.5199 69.3938 60.4399 69.0138C61.3499 68.6238 62.2699 68.1638 62.9599 67.4238C62.3399 68.2338 61.4399 68.7738 60.5199 69.2138C59.5999 69.6438 58.6299 69.9638 57.6499 70.2238C55.6999 70.7038 53.6899 71.0138 51.6699 71.0738Z" fill="#4F2414"/>
<path opacity="0.54" d="M77.7701 156.674H77.7001V146.564H68.0201V136.914H47.7601V146.894H38.3101V156.354H29.3901C29.3801 156.464 29.3601 156.564 29.3101 156.654V167.564L39.2201 167.204V172.384C42.3501 173.324 45.7101 173.864 48.9301 174.404C52.8401 174.854 56.7501 175.254 60.6801 175.444C62.9801 175.554 65.1901 175.484 67.4801 175.284C69.6101 175.094 74.5101 174.994 76.6901 174.674C76.6901 174.674 76.7701 174.604 77.4401 172.974C77.5201 171.284 77.4801 170.854 77.5501 169.464C77.7701 165.264 77.8201 160.884 77.7701 156.674Z" fill="#F1572B"/>
<path opacity="0.54" d="M48.7604 107.104V98.7938H40.8004V90.8638H30.3504C30.2704 97.8538 29.5304 104.884 30.4804 111.844C30.9804 115.504 31.7504 119.034 31.8804 122.744C31.9504 124.584 31.9804 126.434 31.8504 128.264C31.7604 129.464 31.6504 130.654 31.5504 131.844H41.1704V123.774H49.1004V115.804H54.4704V107.104H48.7604Z" fill="#F1572B"/>
<path opacity="0.54" d="M72.7502 102.234C72.6802 100.124 72.5302 98.0239 72.5702 95.9139C72.6002 94.4739 72.7302 93.0739 72.9202 91.6439C73.1002 90.2239 72.9602 88.7839 73.1802 87.3739C73.5402 85.0639 74.9002 83.1739 77.0002 82.0739C78.0702 81.5139 79.1902 81.2239 80.4102 81.2639C81.3402 81.2939 82.2902 81.5039 83.2302 81.5339C81.8002 79.1439 79.5902 77.5839 77.0802 76.2239C75.8402 75.5539 74.5302 74.8639 73.4002 73.9839V77.0539H65.6202V84.8339H58.2202V94.0539L66.3702 93.7639V102.234H72.7502Z" fill="#F1572B"/>
</g>
</g>
<defs>
<filter id="filter0_i_431_321" x="6" y="14" width="88.0298" height="279.481" filterUnits="userSpaceOnUse" color-interpolation-filters="sRGB">
<feFlood flood-opacity="0" result="BackgroundImageFix"/>
<feBlend mode="normal" in="SourceGraphic" in2="BackgroundImageFix" result="shape"/>
<feColorMatrix in="SourceAlpha" type="matrix" values="0 0 0 0 0 0 0 0 0 0 0 0 0 0 0 0 0 0 127 0" result="hardAlpha"/>
<feOffset dy="4"/>
<feGaussianBlur stdDeviation="2"/>
<feComposite in2="hardAlpha" operator="arithmetic" k2="-1" k3="1"/>
<feColorMatrix type="matrix" values="0 0 0 0 0 0 0 0 0 0 0 0 0 0 0 0 0 0 0.25 0"/>
<feBlend mode="normal" in2="shape" result="effect1_innerShadow_431_321"/>
</filter>
<clipPath id="clip0_431_321">
<rect width="100" height="289.481" fill="white"/>
</clipPath>
</defs>
</svg>
