<svg width="300" height="300" viewBox="0 0 300 300" fill="none" xmlns="http://www.w3.org/2000/svg">
<path d="M198 144C194.571 136.286 192.429 127.745 192 119.204C192.857 118.378 193.714 117.827 194.571 117C195 126.092 196.714 134.908 198 144Z" fill="#E6E7E8"/>
<path d="M237 174C228.486 180.125 220.581 186.833 213.284 193.833C205.682 200.833 198.993 208.708 192 216C202.338 199.667 219.973 184.5 237 174Z" fill="#E6E7E8"/>
<path d="M237 174C228.486 180.125 220.581 186.833 213.284 193.833C205.682 200.833 198.993 208.708 192 216C202.338 199.667 219.973 184.5 237 174Z" fill="#939598"/>
<path d="M192.268 116.74C191.386 104.625 192.709 92.2067 195.795 81C194.473 91.601 194.032 101.899 194.473 112.5C194.473 113.106 194.473 113.712 194.473 114.317C194.914 124.312 197.118 134.005 198 144C194.914 135.519 192.709 126.13 192.268 116.74Z" fill="#E6E7E8"/>
<path fill-rule="evenodd" clip-rule="evenodd" d="M202.085 113.133V112.545C202.393 93.5198 204.856 77.2129 207.936 63.9258C204.856 64.8317 202.393 64.8317 200.853 64.5297C200.096 64.4237 199.529 64.3178 199.032 64.2248C198.113 64.053 197.432 63.9258 196.233 63.9258C195.001 63.9258 194.308 64.0768 193.615 64.2278C192.923 64.3788 192.23 64.5297 190.998 64.5297C189.766 64.5297 189.15 64.3788 188.534 64.2278C187.918 64.0768 187.302 63.9258 186.07 63.9258C184.838 63.9258 184.068 64.1523 183.298 64.3788C182.528 64.6052 181.759 64.8317 180.527 64.8317C179.044 64.8317 178.275 64.6216 177.601 64.4375C176.876 64.2393 176.26 64.0712 174.983 64.2278C173.597 64.3788 172.827 64.7562 172.134 65.096C171.442 65.4357 170.826 65.7377 169.748 65.7377C168.592 65.7377 167.967 65.3903 167.304 65.0216C166.73 64.7027 166.128 64.3678 165.128 64.2278C163.933 64.2278 163.245 64.5833 162.536 64.9494C161.785 65.3376 161.011 65.7377 159.585 65.7377C158.47 65.7377 157.85 65.4149 157.17 65.0614C156.534 64.731 155.847 64.3736 154.657 64.2278C153.615 64.2278 153.005 64.3688 152.374 64.5146C151.7 64.6705 151.003 64.8317 149.73 64.8317C148.61 64.8317 147.936 64.6447 147.302 64.4689C146.541 64.2578 145.838 64.063 144.494 64.2278C143.205 64.3858 142.506 64.7092 141.824 65.0249C141.202 65.3125 140.594 65.5937 139.567 65.7377C138.297 65.7377 137.561 65.4234 136.668 65.0417C136.044 64.7753 135.344 64.476 134.331 64.2278C132.657 64.0226 131.552 64.2356 130.242 64.488C129.625 64.6071 128.961 64.7349 128.172 64.8317C126.016 65.1337 122.936 65.1337 118.932 64.2278C121.088 68.1535 123.552 73.8911 122.628 80.5347C122.142 83.8686 120.976 85.6168 119.755 87.4465C118.653 89.0971 117.507 90.8142 116.777 93.8218C115.476 99.559 116.616 103.652 117.942 108.414C118.501 110.42 119.092 112.544 119.548 114.96C122.628 131.569 113.697 146.064 111.233 149.386C113.081 145.762 119.856 130.361 117.393 117.074C116.469 112.847 115.237 109.223 115.237 109.223C113.692 104.829 112.147 102.488 110.874 100.559C109.61 98.6433 108.614 97.1344 108.153 94.4258C107.483 90.9742 108.181 88.9539 108.956 86.7096C109.606 84.8303 110.309 82.794 110.309 79.6287C110.309 75.703 109.077 70.5693 103.226 64.2278C101.662 64.0087 100.261 64.1074 99.256 64.1782C98.8756 64.205 98.5522 64.2278 98.2984 64.2278C97.7185 64.3225 97.2598 64.4173 96.8464 64.5028C95.9426 64.6896 95.2547 64.8317 93.9868 64.8317C93.252 64.8317 92.7275 64.7629 92.1792 64.691C91.5785 64.6123 90.9492 64.5297 89.9832 64.5297H85.0557C85.064 64.616 85.0725 64.7029 85.081 64.7903C85.697 71.1345 86.6248 80.6908 88.7513 92.0099C90.2613 100.894 91.5492 106.801 92.615 111.689C93.7229 116.771 94.5908 120.752 95.2187 125.832C96.4506 135.797 96.1426 150.292 90.2912 168.713C91.2151 168.109 93.0629 167.807 94.9107 167.807C96.1722 167.807 96.9064 168.014 97.7304 168.246C98.3146 168.41 98.9439 168.588 99.8383 168.713C101.222 168.713 101.828 168.522 102.531 168.302C103.079 168.13 103.686 167.939 104.766 167.807C105.776 167.807 106.313 167.94 106.883 168.081C107.372 168.201 107.885 168.328 108.741 168.383L109.077 168.713L109.385 169.015C110.035 169.652 110.514 169.953 111.092 170.317C111.61 170.643 112.208 171.019 113.081 171.733C113.816 172.453 114.13 172.899 114.458 173.364C114.818 173.875 115.195 174.409 116.161 175.356C117.085 176.262 117.624 176.64 118.163 177.017C118.702 177.395 119.241 177.772 120.164 178.678C121.118 179.458 121.498 179.996 121.853 180.5C122.187 180.973 122.499 181.416 123.244 182C124.135 182.728 124.74 182.965 125.3 183.184C125.901 183.419 126.45 183.634 127.248 184.416C127.983 185.136 128.227 185.651 128.482 186.188C128.761 186.777 129.054 187.394 130.02 188.342C130.943 189.248 131.559 189.55 132.175 189.852C132.791 190.153 133.407 190.455 134.331 191.361C135.295 192.149 135.589 192.69 135.911 193.285C136.207 193.83 136.527 194.42 137.411 195.287C138.335 196.193 138.951 196.495 139.567 196.797C140.183 197.099 140.799 197.401 141.722 198.307C142.686 199.095 142.98 199.636 143.302 200.23C143.598 200.776 143.918 201.366 144.802 202.233C145.572 202.988 146.034 203.214 146.496 203.441C146.958 203.667 147.42 203.894 148.19 204.649C149.154 205.436 149.447 205.977 149.77 206.572C150.065 207.117 150.386 207.708 151.27 208.574C152.153 209.441 152.755 209.755 153.312 210.045C153.918 210.361 154.47 210.649 155.273 211.594C156.239 212.541 156.532 213.158 156.811 213.747C157.066 214.285 157.31 214.799 158.045 215.52C159.011 216.467 159.64 216.754 160.241 217.028C160.789 217.278 161.314 217.517 162.049 218.238C162.927 218.927 163.204 219.419 163.623 220.163C163.938 220.724 164.334 221.427 165.128 222.465L165.436 222.767L166.36 223.673C166.765 223.938 167.229 224.319 167.649 224.663C168.187 225.104 168.651 225.485 168.824 225.485C169.744 226.027 170.004 226.46 170.393 227.108C170.655 227.544 170.976 228.078 171.596 228.807C172.411 229.766 172.88 230.048 173.416 230.37C173.893 230.656 174.421 230.974 175.291 231.827C176.433 232.76 176.752 233.232 177.192 233.884C177.464 234.287 177.783 234.758 178.371 235.451C179.295 236.356 179.988 236.809 180.681 237.262C181.374 237.715 182.067 238.168 182.991 239.074C183.914 239.678 185.146 241.188 186.07 243C193.154 231.827 203.009 218.842 215.943 205.554C231.958 189.248 247.972 177.47 261.215 169.317C259.045 168.135 257.441 166.767 255.96 165.505C255.55 165.155 255.149 164.813 254.748 164.485C254.324 163.862 254.046 163.381 253.801 162.958C253.334 162.15 252.986 161.55 251.976 160.559C251.16 159.893 250.584 159.579 250.037 159.281C249.344 158.904 248.696 158.551 247.664 157.54C246.741 156.634 246.433 156.105 246.125 155.577C245.817 155.048 245.509 154.52 244.585 153.614C243.661 152.708 243.045 152.406 242.429 152.104C241.813 151.802 241.197 151.5 240.273 150.594C239.206 149.548 238.818 148.871 238.474 148.272C238.123 147.66 237.819 147.129 236.885 146.366C235.979 145.477 235.22 145.243 234.501 145.02C233.754 144.789 233.05 144.571 232.266 143.649C231.508 142.757 231.347 142.085 231.195 141.452C231.039 140.799 230.892 140.188 230.11 139.421C229.186 138.515 228.416 138.288 227.646 138.062C226.876 137.835 226.106 137.609 225.183 136.703C224.435 135.97 224.268 135.379 224.083 134.724C223.887 134.029 223.67 133.261 222.719 132.173C222.059 131.203 221.488 130.926 220.816 130.599C220.233 130.316 219.574 129.995 218.715 129.153C217.831 128.287 217.511 127.696 217.215 127.151C216.893 126.557 216.599 126.015 215.635 125.228C214.617 124.514 213.874 124.273 213.21 124.057C212.469 123.817 211.828 123.609 211.016 122.812C209.978 121.964 209.718 121.211 209.416 120.34C209.18 119.66 208.919 118.907 208.244 117.98C207.139 116.463 206.193 115.879 204.949 115.112C204.46 114.811 203.925 114.481 203.317 114.054C202.931 113.865 202.546 113.558 202.085 113.133ZM110.64 168.41C110.877 168.612 111.055 168.713 111.233 168.713H111.541C111.922 168.9 112.303 169.202 112.829 169.619C113.154 169.877 113.535 170.179 114.005 170.525L114.313 170.827C115.237 171.431 115.545 172.035 115.853 172.639C116.043 173.012 116.234 173.27 116.497 173.626C116.659 173.847 116.849 174.104 117.085 174.451C117.446 174.804 117.806 175.054 118.105 175.262C118.317 175.408 118.497 175.533 118.625 175.658C119.241 175.96 119.856 176.564 120.78 177.47L120.78 177.47C121.289 177.969 121.611 178.376 121.9 178.742C122.137 179.041 122.351 179.313 122.628 179.584C122.782 179.735 122.859 179.886 122.936 180.037C123.013 180.188 123.09 180.339 123.244 180.49C123.244 180.49 123.552 180.792 123.86 180.792C124.213 181.023 124.476 181.209 124.701 181.369C125.064 181.627 125.327 181.813 125.708 182C126.324 182.302 126.94 182.604 127.864 183.51L128.172 183.812C129.096 184.718 129.404 185.322 129.712 185.926C129.776 186.052 129.827 186.165 129.875 186.273C130.06 186.682 130.212 187.021 130.943 187.738C131.559 188.342 131.867 188.644 132.483 188.946C132.566 188.986 132.655 189.027 132.749 189.07C133.349 189.346 134.148 189.713 134.947 190.757C135.871 191.663 136.179 192.267 136.487 192.871C136.677 193.245 136.868 193.503 137.131 193.859C137.293 194.079 137.484 194.337 137.719 194.683C138.335 195.287 138.951 195.589 139.567 195.891C140.183 196.193 140.799 196.495 141.722 197.703C142.231 198.202 142.553 198.609 142.842 198.975C143.079 199.274 143.293 199.545 143.57 199.817C143.878 200.421 144.186 200.723 144.802 201.327L144.802 201.327C145.418 201.931 145.726 202.233 146.342 202.233C146.958 202.535 147.574 202.837 148.498 203.743C149.422 204.649 149.73 205.253 150.038 205.856C150.228 206.23 150.418 206.488 150.681 206.844C150.844 207.064 151.034 207.322 151.27 207.668C151.885 208.272 152.501 208.574 153.117 208.876C153.733 209.178 154.349 209.48 155.273 210.386C155.273 210.386 155.273 210.688 155.581 210.688C156.333 211.425 156.677 212.163 156.945 212.737C157.006 212.869 157.064 212.992 157.121 213.104C157.203 213.266 157.264 213.406 157.32 213.536C157.473 213.891 157.594 214.172 158.045 214.614C158.661 215.218 158.969 215.52 159.585 215.52C160.201 215.822 160.817 216.124 162.049 217.03C162.972 217.936 163.28 218.54 163.588 219.144C163.896 219.748 164.204 220.352 165.128 221.257V221.559L165.744 222.163L166.052 222.465L166.052 222.465C166.36 222.768 166.976 223.371 168.208 224.277C168.362 224.428 168.516 224.504 168.67 224.579C168.824 224.655 168.978 224.73 169.132 224.881C169.748 225.485 170.056 225.787 170.056 226.089C170.364 226.693 170.672 226.995 171.288 227.599L171.288 227.599L171.596 227.901C171.956 228.255 172.212 228.401 172.423 228.523C172.572 228.609 172.7 228.682 172.827 228.807C173.443 229.109 174.059 229.411 174.983 230.619C175.492 231.118 175.814 231.525 176.103 231.891C176.34 232.19 176.554 232.461 176.831 232.733C177.139 233.337 177.447 233.639 178.063 234.243L178.371 234.545C178.679 234.847 178.987 235.073 179.295 235.3C179.603 235.526 179.911 235.753 180.219 236.054C180.835 236.356 181.759 236.96 182.683 237.866L184.838 239.98C193.462 227.297 203.009 215.218 213.788 204.347C226.722 191.059 241.505 179.282 257.212 169.015C256.288 168.411 255.364 167.807 254.748 166.901C254.132 166.599 253.824 165.995 253.516 165.391C252.9 164.787 252.592 164.183 252.284 163.579L252.284 163.579C251.976 162.975 251.668 162.371 250.744 161.767C250.391 161.537 250.128 161.35 249.904 161.191C249.54 160.933 249.277 160.746 248.896 160.559C248.28 160.257 247.664 159.653 246.741 158.748C246.32 158.335 246.027 157.923 245.774 157.567C245.472 157.142 245.228 156.798 244.893 156.634C244.702 156.26 244.512 156.003 244.249 155.646C244.086 155.426 243.896 155.168 243.661 154.822C243.045 154.218 242.429 153.916 241.813 153.614C241.197 153.312 240.581 153.01 239.349 151.802C238.284 151.018 237.909 150.235 237.628 149.647C237.585 149.555 237.543 149.468 237.501 149.386C237.387 149.274 237.315 149.119 237.238 148.955C237.108 148.676 236.964 148.368 236.577 148.178L236.27 147.876C236.146 147.795 236.033 147.72 235.928 147.65C235.252 147.197 234.914 146.97 234.114 146.97C233.999 146.914 233.874 146.858 233.74 146.798C233.154 146.535 232.402 146.198 231.65 145.46L231.342 145.158C230.649 144.479 230.303 143.63 230.043 142.993C229.956 142.78 229.879 142.592 229.802 142.441C229.72 142.279 229.659 142.139 229.603 142.009C229.45 141.653 229.329 141.373 228.878 140.931C228.427 140.489 228.141 140.37 227.779 140.22C227.646 140.165 227.503 140.106 227.338 140.025C226.414 139.723 225.491 139.421 224.259 138.213C223.566 137.533 223.219 136.684 222.959 136.047C222.873 135.835 222.796 135.646 222.719 135.495C222.616 135.294 222.548 135.092 222.479 134.891C222.342 134.488 222.206 134.086 221.795 133.683L221.487 133.381C221.179 133.079 220.871 132.777 220.255 132.475C219.639 132.173 218.715 131.569 217.791 130.663C216.867 129.757 216.251 128.852 215.943 128.248C215.876 128.115 215.823 127.997 215.776 127.891C215.606 127.511 215.5 127.275 215.02 127.04L214.712 126.738C214.542 126.627 214.393 126.526 214.259 126.436C213.664 126.033 213.367 125.832 212.864 125.832C211.94 125.53 211.324 125.228 210.092 124.322L209.784 124.02C208.86 123.114 208.552 122.208 208.244 121.302C207.936 120.698 207.628 120.094 207.32 119.188C207.012 118.886 206.704 118.584 206.704 118.282C206.396 117.98 206.088 117.754 205.78 117.527C205.472 117.301 205.164 117.074 204.856 116.772C204.241 116.47 203.625 116.168 203.009 115.564C202.701 115.413 202.47 115.187 202.239 114.96C202.188 114.91 202.137 114.86 202.085 114.811C202.088 116.813 202.128 119.058 202.701 121.302C203.317 139.421 205.78 155.426 208.552 168.411C206.396 167.807 204.856 167.807 203.624 167.807C202.429 167.807 201.668 167.949 200.886 168.096C200.055 168.251 199.2 168.411 197.773 168.411C196.541 168.411 195.925 168.26 195.309 168.109C194.693 167.958 194.077 167.807 192.846 167.807C191.373 167.807 190.682 167.892 190.036 167.972C189.465 168.043 188.928 168.109 187.918 168.109C186.791 168.109 186.115 167.982 185.536 167.874C184.85 167.746 184.301 167.643 183.298 167.807C183.186 167.807 182.867 167.847 182.462 167.899C181.762 167.988 180.804 168.109 180.219 168.109H178.679H178.371C176.854 167.96 176.084 167.738 175.436 167.551C174.768 167.358 174.229 167.203 173.135 167.203C172.057 167.203 171.442 167.429 170.826 167.656C170.21 167.882 169.594 168.109 168.516 168.109C167.438 168.109 166.822 167.882 166.206 167.656C165.59 167.429 164.974 167.203 163.896 167.203C162.664 167.203 162.048 167.429 161.432 167.656C160.817 167.882 160.201 168.109 158.969 168.109C157.737 168.109 157.121 167.882 156.505 167.656C155.889 167.429 155.273 167.203 154.041 167.203C152.963 167.203 152.424 167.354 151.885 167.505C151.346 167.656 150.807 167.807 149.73 167.807C148.396 167.97 147.784 167.78 147.113 167.571C146.544 167.394 145.932 167.203 144.802 167.203C143.458 167.038 142.755 167.233 141.994 167.444C141.36 167.62 140.686 167.807 139.567 167.807C138.335 167.807 137.719 167.656 137.103 167.505C136.487 167.354 135.871 167.203 134.639 167.203C133.212 167.203 132.52 167.443 131.848 167.676C131.215 167.896 130.599 168.109 129.403 168.109C128.172 168.109 127.556 167.882 126.94 167.656C126.324 167.429 125.708 167.203 124.476 167.203C123.309 167.203 122.774 167.38 122.138 167.59C121.599 167.768 120.987 167.97 119.856 168.109C118.854 168.273 118.305 168.17 117.619 168.042C117.04 167.933 116.364 167.807 115.237 167.807C114.294 167.807 113.697 167.92 113.235 168.008C112.942 168.064 112.704 168.109 112.465 168.109C111.926 168.373 111.386 168.406 110.64 168.41Z" fill="#E6E7E8"/>
<path fill-rule="evenodd" clip-rule="evenodd" d="M109.693 167.203H110.617C110.72 167.203 110.822 167.169 110.925 167.136C111.13 167.069 111.336 167.002 111.541 167.203C112.465 166.901 113.081 166.901 114.621 166.901H114.621C115.342 166.901 115.853 167.005 116.275 167.09C116.574 167.151 116.829 167.203 117.084 167.203H118.316H118.932C119.293 167.114 119.575 167.052 119.808 167C120.371 166.875 120.653 166.812 121.088 166.599C121.704 166.297 122.628 165.995 123.86 165.995H124.168C125.708 165.995 126.324 165.995 126.94 166.599C127.556 166.901 128.171 166.901 129.095 166.901C130.019 166.901 130.327 166.901 130.943 166.599C131.078 166.555 131.206 166.511 131.332 166.468C132.067 166.215 132.708 165.995 134.023 165.995C135.563 165.995 136.179 165.995 137.103 166.297C137.379 166.297 137.656 166.358 137.961 166.425C138.334 166.507 138.75 166.599 139.258 166.599C139.98 166.599 140.385 166.495 140.72 166.41C140.957 166.349 141.159 166.297 141.414 166.297C141.653 166.297 141.891 166.252 142.184 166.196C142.646 166.108 143.243 165.995 144.186 165.995C145.418 165.995 146.342 165.995 146.958 166.297C147.574 166.599 147.882 166.599 148.806 166.599H149.113C149.622 166.599 149.944 166.507 150.233 166.425C150.47 166.358 150.684 166.297 150.961 166.297C151.216 166.297 151.472 166.245 151.77 166.184C152.193 166.099 152.703 165.995 153.425 165.995H153.733C154.965 165.995 155.581 165.995 156.197 166.297C156.813 166.599 157.429 166.599 158.353 166.599C159.584 166.599 159.892 166.599 160.508 166.297C160.764 166.297 161.072 166.245 161.432 166.184C161.943 166.099 162.559 165.995 163.28 165.995H163.588C165.128 165.995 165.744 166.297 166.36 166.599C166.976 166.901 167.284 166.901 168.208 166.901C169.132 166.901 169.44 166.901 170.056 166.599C170.671 166.297 171.595 165.995 172.827 165.995C174.059 165.995 174.983 165.995 174.983 166.297C175.599 166.599 176.523 166.901 177.755 166.901H179.295C179.603 166.901 180.527 166.901 182.066 166.599H182.99C183.499 166.599 183.821 166.69 184.11 166.773C184.347 166.84 184.561 166.901 184.838 166.901C185.454 167.203 186.07 167.203 186.994 167.203H186.994H187.61H189.15C189.766 166.901 190.382 166.901 191.921 166.901H191.921C192.865 166.901 193.461 167.014 193.924 167.102C194.216 167.158 194.455 167.203 194.693 167.203C195.309 167.505 195.925 167.505 196.849 167.505H197.157C197.619 167.505 198.004 167.429 198.389 167.354C198.774 167.278 199.159 167.203 199.621 167.203C200.05 167.203 200.478 167.138 200.938 167.068C201.469 166.988 202.04 166.901 202.7 166.901H202.701C203.624 166.901 204.856 166.901 205.78 167.203C202.392 152.104 200.545 137.005 200.237 121.906V113.752V111.639C200.545 96.5396 202.392 81.4405 205.472 66.6435C204.24 66.9455 203.008 66.9455 202.085 66.9455H199.929C199.42 66.9455 199.005 66.854 198.631 66.7717C198.327 66.7045 198.05 66.6435 197.773 66.6435C196.849 66.3415 196.233 66.3415 195.309 66.3415C194.801 66.3415 194.385 66.433 194.012 66.5153C193.707 66.5825 193.43 66.6435 193.153 66.6435C192.898 66.6435 192.59 66.6953 192.229 66.756C191.719 66.8419 191.103 66.9455 190.382 66.9455C189.15 66.9455 188.226 66.9455 187.61 66.6435C186.994 66.3415 186.378 66.3415 185.454 66.3415C184.732 66.3415 184.328 66.4452 183.993 66.531C183.756 66.5917 183.553 66.6435 183.298 66.6435C183.06 66.6435 182.821 66.6888 182.529 66.7444C182.066 66.8322 181.47 66.9455 180.527 66.9455C178.987 66.9455 178.063 66.6435 177.447 66.3415C176.831 66.0396 176.523 66.0396 175.907 66.0396H175.291C174.367 66.0396 173.751 66.3415 173.135 66.6435C172.211 67.2475 171.287 67.5495 170.056 67.5495H169.748C168.412 67.5495 167.54 67.0952 166.93 66.7777C166.837 66.729 166.75 66.6836 166.668 66.6435C166.503 66.5626 166.36 66.4817 166.227 66.4066C165.865 66.2014 165.579 66.0396 165.128 66.0396C164.397 66.0396 164.051 66.2286 163.634 66.4572C163.524 66.5175 163.409 66.5805 163.28 66.6435C163.04 66.7221 162.799 66.8213 162.548 66.9248C161.833 67.2191 161.031 67.5495 159.892 67.5495C158.557 67.5495 157.685 67.0952 157.075 66.7777C156.982 66.729 156.895 66.6836 156.813 66.6435C156.197 66.3415 155.581 66.0396 154.657 66.0396H154.349C154.041 66.0396 153.81 66.115 153.579 66.1905C153.348 66.266 153.117 66.3415 152.809 66.3415C152.193 66.6435 151.269 66.9455 149.729 66.9455C148.19 66.9455 147.266 66.6435 146.65 66.3415C146.034 66.0396 145.726 66.0396 145.11 66.0396H144.802C144.071 66.0396 143.725 66.2286 143.308 66.4572C143.198 66.5175 143.083 66.5805 142.954 66.6435C142.676 66.7343 142.426 66.8525 142.171 66.9733C141.576 67.2541 140.951 67.5495 139.874 67.5495H139.566C138.694 67.5495 137.975 67.2463 137.302 66.9621C137.025 66.8452 136.756 66.7315 136.487 66.6435C135.871 66.3415 135.255 66.0396 134.331 66.0396H133.099C132.175 66.0396 131.559 66.0396 130.635 66.3415C130.327 66.3415 129.403 66.3415 129.403 67.5495C128.479 67.8514 127.248 67.8514 126.324 67.8514C125.092 67.8514 123.86 67.8514 122.628 67.5495C125.092 72.6831 126.016 77.5148 125.092 82.0445C124.476 85.3663 123.244 87.4801 122.012 89.292C120.78 91.1039 119.856 92.6138 119.24 95.6336C118.077 100.48 119.11 104.25 120.266 108.468C120.334 108.718 120.403 108.97 120.472 109.223C120.472 109.223 121.396 111.639 122.32 116.168C124.358 124.734 121.716 133.57 120.902 136.294C120.855 136.451 120.814 136.588 120.78 136.703C118.008 145.158 113.389 150.594 110.617 153.614C116.777 135.495 117.7 121.302 117.084 118.584C117.084 118.433 117.007 118.131 116.892 117.678C116.777 117.225 116.623 116.621 116.469 115.866C116.161 115.111 115.93 114.281 115.699 113.45C115.468 112.62 115.237 111.79 114.929 111.035C113.685 107.621 112.442 105.586 111.361 103.816C111.103 103.393 110.854 102.986 110.617 102.579C109.077 100.465 108.153 98.9554 107.537 95.9356C106.921 92.0098 107.537 89.896 108.461 87.4801C109.077 85.6683 109.693 83.8564 109.693 80.8366C109.693 76.3069 107.537 71.4752 103.226 66.6435H101.686H98.9142C98.4056 66.6435 98.0836 66.735 97.7942 66.8173C97.5579 66.8845 97.3432 66.9455 97.0664 66.9455C96.4504 67.2475 95.5265 67.2475 94.2946 67.2475C93.573 67.2475 93.0627 67.1438 92.64 67.058C92.3411 66.9973 92.086 66.9455 91.8309 66.9455C91.5229 66.6435 90.9069 66.6435 90.291 66.6435H90.291H88.4432H86.9033C86.9502 67.0727 86.9971 67.5027 87.0441 67.9334C87.9226 75.988 88.8293 84.3009 90.291 92.6138C91.2574 98.1098 92.2238 102.535 93.0379 106.264C93.521 108.476 93.9505 110.443 94.2946 112.243C94.5732 113.791 94.8518 115.229 95.122 116.623C95.7477 119.854 96.3282 122.85 96.7584 126.436C98.2982 139.421 96.7584 153.01 92.4468 167.203C93.3707 166.901 93.9866 166.901 94.9105 166.901H94.9106H94.9107C96.1425 166.901 97.0664 166.901 97.6823 167.203C98.2983 167.505 98.9142 167.505 99.8381 167.505C100.347 167.505 100.669 167.413 100.958 167.331C101.194 167.264 101.409 167.203 101.686 167.203C101.821 167.159 101.949 167.115 102.074 167.072C102.809 166.819 103.45 166.599 104.766 166.599H105.074C105.582 166.599 105.998 166.69 106.371 166.773C106.676 166.84 106.953 166.901 107.229 166.901C107.845 167.203 108.153 167.203 108.769 167.203H109.693ZM215.019 204.648C227.954 191.361 242.737 179.584 258.443 169.317C257.519 168.713 256.595 168.109 255.979 168.109C255.825 167.807 255.594 167.58 255.363 167.354C255.133 167.127 254.902 166.901 254.748 166.599C254.512 166.253 254.322 165.995 254.159 165.775C253.896 165.418 253.706 165.16 253.516 164.787C253.208 164.485 252.977 164.183 252.746 163.881C252.515 163.579 252.284 163.277 251.976 162.975C251.623 162.744 251.36 162.558 251.135 162.398C250.772 162.141 250.509 161.954 250.128 161.767C249.851 161.496 249.574 161.285 249.269 161.054C248.896 160.77 248.481 160.454 247.972 159.955C246.74 159.049 246.432 158.445 246.124 157.842C245.816 157.238 245.508 156.634 244.892 156.03C244.54 155.799 244.277 155.612 244.052 155.453C243.688 155.195 243.425 155.008 243.045 154.822C242.768 154.55 242.429 154.34 242.055 154.108C241.598 153.824 241.089 153.509 240.581 153.01C239.657 152.104 239.041 151.198 238.733 150.594C238.579 150.443 238.425 150.217 238.271 149.99C238.117 149.764 237.963 149.537 237.809 149.386L237.501 149.084C236.921 148.705 236.463 148.564 236.049 148.437C235.804 148.361 235.575 148.291 235.345 148.178C235.231 148.122 235.105 148.066 234.971 148.006C234.385 147.743 233.634 147.406 232.882 146.668L232.574 146.366C231.668 145.478 231.428 144.754 231.242 144.192C231.175 143.99 231.115 143.808 231.034 143.648C230.951 143.487 230.891 143.346 230.835 143.216C230.682 142.861 230.561 142.581 230.11 142.139C229.894 141.715 229.526 141.588 229.113 141.446C228.938 141.386 228.754 141.323 228.57 141.233C227.646 140.931 226.722 140.629 225.49 139.421C224.774 138.484 224.428 137.729 224.165 137.156C224.089 136.99 224.02 136.839 223.95 136.703C223.95 136.21 223.745 135.918 223.334 135.334C223.242 135.203 223.14 135.057 223.027 134.891C222.719 134.891 222.719 134.589 222.719 134.589C222.478 134.118 222.238 134.014 221.851 133.848C221.742 133.801 221.622 133.749 221.487 133.683C220.871 133.381 219.947 132.777 219.023 131.871C218.099 130.965 217.483 130.059 217.175 129.455C216.867 128.851 216.559 128.549 216.251 128.247L215.943 127.945C215.327 127.543 214.985 127.409 214.643 127.274C214.472 127.207 214.301 127.14 214.095 127.04C213.171 126.738 212.248 126.436 211.324 125.53L211.016 125.228C210.092 124.322 209.784 123.416 209.476 122.51C209.476 121.906 209.168 121.302 208.552 120.396C208.552 120.094 208.244 119.792 207.936 119.49C207.32 118.886 207.012 118.584 206.088 117.98C205.472 117.678 204.856 117.376 204.24 116.772C203.932 116.621 203.701 116.395 203.47 116.168C203.239 115.942 203.008 115.715 202.7 115.564V122.208C203.316 140.327 205.78 156.332 208.552 169.317C206.396 168.713 204.856 168.713 203.624 168.713C202.429 168.713 201.668 168.855 200.885 169.001C200.055 169.157 199.2 169.317 197.773 169.317C196.541 169.317 195.925 169.166 195.309 169.015C194.693 168.864 194.077 168.713 192.845 168.713C191.373 168.713 190.682 168.798 190.035 168.878C189.465 168.948 188.928 169.015 187.918 169.015C186.79 169.015 186.114 168.888 185.536 168.78C184.85 168.652 184.301 168.549 183.298 168.713C183.186 168.713 182.867 168.753 182.462 168.805C181.761 168.893 180.804 169.015 180.219 169.015H178.679H178.371C176.853 168.866 176.084 168.644 175.435 168.457C174.768 168.264 174.229 168.109 173.135 168.109C172.057 168.109 171.441 168.335 170.825 168.562C170.209 168.788 169.594 169.015 168.516 169.015C167.438 169.015 166.822 168.788 166.206 168.562C165.59 168.335 164.974 168.109 163.896 168.109C162.664 168.109 162.048 168.335 161.432 168.562C160.816 168.788 160.2 169.015 158.969 169.015C157.737 169.015 157.121 168.788 156.505 168.562C155.889 168.335 155.273 168.109 154.041 168.109C152.963 168.109 152.424 168.26 151.885 168.411C151.346 168.562 150.807 168.713 149.729 168.713C148.396 168.876 147.784 168.686 147.112 168.477C146.544 168.299 145.932 168.109 144.802 168.109C143.458 167.944 142.755 168.139 141.994 168.35C141.36 168.526 140.686 168.713 139.566 168.713C138.334 168.713 137.719 168.562 137.103 168.411C136.487 168.26 135.871 168.109 134.639 168.109C133.212 168.109 132.52 168.349 131.848 168.582C131.214 168.801 130.599 169.015 129.403 169.015C128.171 169.015 127.555 168.788 126.94 168.562C126.324 168.335 125.708 168.109 124.476 168.109C123.309 168.109 122.774 168.286 122.138 168.496C121.598 168.674 120.987 168.876 119.856 169.015C118.854 169.179 118.305 169.076 117.619 168.948C117.04 168.839 116.364 168.713 115.237 168.713C114.293 168.713 113.697 168.826 113.235 168.914C112.942 168.969 112.704 169.015 112.465 169.015H112.773C113.389 169.317 114.313 169.921 115.237 170.827L115.545 171.129C116.469 172.035 116.776 172.337 117.084 172.941C117.149 173.067 117.2 173.179 117.248 173.287C117.433 173.697 117.585 174.036 118.316 174.752L118.316 174.752C118.932 175.356 119.24 175.658 119.856 175.96C119.969 176.071 120.164 176.222 120.412 176.413C120.841 176.745 121.426 177.198 122.012 177.772C122.474 178.376 122.859 178.754 123.167 179.056C123.475 179.358 123.706 179.584 123.86 179.886C123.86 180.188 124.168 180.49 124.476 180.792C124.63 180.792 124.707 180.868 124.784 180.943C124.861 181.019 124.938 181.094 125.092 181.094C125.823 181.811 126.168 181.96 126.586 182.141C126.696 182.189 126.811 182.239 126.94 182.302C127.555 182.604 128.171 182.906 129.095 183.812L129.403 184.114C130.327 185.02 130.635 185.624 130.943 186.228C131.251 186.832 131.559 187.436 132.175 188.04C132.791 188.644 133.099 188.945 133.715 189.247C134.331 189.549 135.255 190.153 136.179 191.059C137.103 191.965 137.411 192.569 137.719 193.173C138.026 193.777 138.334 194.381 138.95 194.985C139.303 195.216 139.566 195.402 139.791 195.562C140.155 195.82 140.418 196.006 140.798 196.193C140.966 196.522 141.317 196.761 141.75 197.058C142.113 197.305 142.533 197.592 142.954 198.005C144.186 198.911 144.494 199.515 144.802 200.119C145.11 200.723 145.418 201.025 146.034 201.629C146.395 201.982 146.755 202.129 147.054 202.25C147.266 202.336 147.446 202.41 147.574 202.535C148.19 202.837 148.805 203.139 149.729 204.045C150.653 204.95 150.961 205.554 151.269 206.158C151.577 206.762 151.885 207.366 152.501 207.97C152.854 208.201 153.117 208.388 153.342 208.547C153.705 208.805 153.968 208.992 154.349 209.178C154.965 209.48 155.581 209.782 156.505 210.688L156.813 210.99C157.737 212.198 158.045 212.802 158.353 213.406C158.353 214.01 158.661 214.312 159.276 214.916C159.727 215.358 160.013 215.476 160.376 215.627C160.508 215.682 160.651 215.741 160.816 215.822C160.931 215.878 161.056 215.934 161.19 215.994C161.776 216.257 162.528 216.594 163.28 217.332C164.204 218.238 164.512 218.842 164.82 219.445C165.128 220.049 165.436 220.653 166.36 221.559V221.861C166.55 221.861 166.623 221.977 166.723 222.136C166.785 222.235 166.858 222.35 166.976 222.465L167.284 222.767C167.592 223.069 168.208 223.673 169.44 224.579C169.594 224.73 169.748 224.806 169.901 224.881C170.055 224.957 170.209 225.032 170.363 225.183C170.517 225.334 170.671 225.561 170.825 225.787C170.979 226.014 171.133 226.24 171.287 226.391C171.415 226.516 171.543 226.693 171.692 226.9C171.903 227.193 172.158 227.547 172.519 227.901L172.827 228.203C173.443 228.505 173.751 228.807 174.059 229.109C174.336 229.38 174.613 229.591 174.918 229.823C175.291 230.106 175.706 230.422 176.215 230.921C177.447 231.827 177.755 232.431 178.063 233.035C178.19 233.16 178.318 233.337 178.467 233.544C178.679 233.837 178.934 234.191 179.295 234.545L179.603 234.846C180.219 235.45 180.834 236.054 181.45 236.356C182.066 236.658 182.99 237.262 183.914 238.168C184.838 238.772 185.454 239.376 186.07 240.282C194.693 227.599 204.24 215.52 215.019 204.648Z" fill="#939598"/>
<path d="M192.268 116.74C191.386 104.625 192.709 92.2067 195.795 81C194.473 91.601 194.032 101.899 194.473 112.5C194.473 113.106 194.473 113.712 194.473 114.317C194.914 124.312 197.118 134.005 198 144C194.914 135.519 192.709 126.13 192.268 116.74Z" fill="#939598"/>
<path d="M192.268 116.74C191.386 104.625 192.709 92.2067 195.795 81C194.473 91.601 194.032 101.899 194.473 112.5C194.473 113.106 194.473 113.712 194.473 114.317C194.914 124.312 197.118 134.005 198 144C194.914 135.519 192.709 126.13 192.268 116.74Z" fill="#939598"/>
<path d="M207 167.4C206.077 167.4 204.846 166.8 203.923 166.8C202.385 166.8 201.769 166.8 200.846 167.4C200.231 167.4 199.615 168 198.385 168H198.077C197.154 168 196.538 168 195.923 167.4C195.308 167.4 194.692 166.8 193.154 166.8C191.615 166.8 191 166.8 190.385 167.4C189.769 167.4 189.462 167.4 188.846 167.4H188.231C187.308 167.4 186.692 167.4 186.077 166.8C185.462 166.8 185.154 166.2 184.231 166.2C183.923 166.2 183.615 166.2 183.308 166.2C181.769 166.8 180.846 166.8 180.538 166.8H179C177.769 166.8 176.846 166.2 176.231 165.6C175.615 165 174.692 165 173.462 165C172.231 165 171.308 165.6 170.692 166.2C170.077 166.8 169.769 166.8 168.846 166.8C167.923 166.8 167.615 166.8 167 166.2C166.385 165.6 165.462 165 164.231 165H163.923C162.692 165 161.769 165.6 161.154 165.6C160.538 166.2 160.231 166.2 159 166.2C157.769 166.2 157.462 166.2 156.846 165.6C156.231 165 155.308 165 154.077 165H153.769C152.538 165 151.923 165.6 151.308 165.6C150.692 165.6 150.385 166.2 149.462 166.2H149.154C148.231 166.2 147.923 166.2 147.308 165.6C146.692 165 145.769 165 144.538 165C143.308 165 142.385 165.6 141.769 165.6C141.154 165.6 140.846 166.2 139.615 166.2C138.692 166.2 138.077 166.2 137.462 165.6C136.846 165 135.923 165 134.692 165C133.154 165 132.231 165.6 131.615 166.2C131 166.8 130.692 166.8 129.769 166.8C128.846 166.8 128.231 166.8 127.615 166.2C127 165.6 126.077 165 124.846 165H124.538C123.308 165 122.385 165.6 121.769 166.2C121.154 166.8 120.846 166.8 119.615 167.4H119C118.692 167.4 118.385 167.4 117.769 167.4C117.154 167.4 116.538 166.8 115.308 166.8C113.769 166.8 113.154 166.8 112.231 167.4C111.923 167.4 111.308 167.4 111 168C111.615 168 111.923 168 112.231 167.4C112.846 167.4 113.769 166.8 115.308 166.8C116.538 166.8 117.462 166.8 117.769 167.4C118.077 167.4 118.385 167.4 119 167.4H119.615C120.538 167.4 121.154 166.8 121.769 166.2C122.385 165.6 123 165 124.538 165H124.846C126.077 165 127 165.6 127.615 166.2C128.231 166.8 128.538 166.8 129.769 166.8C130.692 166.8 131 166.8 131.615 166.2C132.231 165.6 133.154 165 134.692 165C135.923 165 136.846 165.6 137.462 165.6C138.077 165.6 138.385 166.2 139.615 166.2C140.538 166.2 141.154 166.2 141.769 165.6C142.385 165 143.308 165 144.538 165C145.769 165 146.692 165.6 147.308 165.6C147.923 165.6 148.231 166.2 149.154 166.2H149.462C150.385 166.2 150.692 166.2 151.308 165.6C151.923 165.6 152.538 165 153.769 165H154.077C155.308 165 156.231 165.6 156.846 165.6C157.462 166.2 157.769 166.2 159 166.2C160.231 166.2 160.538 166.2 161.154 165.6C161.769 165 162.385 165 163.923 165H164.231C165.462 165 166.385 165.6 167 166.2C167.615 166.8 167.923 166.8 168.846 166.8C169.769 166.8 170.077 166.8 170.692 166.2C171.308 165.6 172.231 165 173.462 165C174.692 165 175.308 165.6 176.231 165.6C176.846 166.2 177.462 166.2 179 166.8H180.538C180.846 166.8 181.769 166.8 183.308 166.2C183.615 166.2 183.923 166.2 184.231 166.2C184.846 166.2 185.462 166.2 186.077 166.8C186.692 166.8 187 167.4 188.231 167.4H188.846C189.462 167.4 189.769 167.4 190.385 167.4C191 167.4 191.615 166.8 193.154 166.8C194.692 166.8 195.308 166.8 195.923 167.4C196.538 167.4 196.846 168 198.077 168H198.385C199.308 168 199.923 168 200.846 167.4C201.769 167.4 202.692 166.8 203.923 166.8C204.846 166.2 206.077 166.2 207 167.4C207 166.8 207 166.8 207 167.4Z" fill="#939598"/>
<path d="M104.366 101.786C100.722 118.785 82.5009 129.106 63.9765 125.16C45.1485 121.214 33.0013 104.214 36.6455 87.2144C40.2896 70.2148 58.5103 59.8936 77.0347 63.8399C95.5591 67.7863 108.01 84.7859 104.366 101.786Z" fill="#EA9F22"/>
<path d="M96 95.0535C96 96.5775 96 98.1016 95.6852 99.6257C93.4815 109.989 83.4074 117 71.7593 117H71.4444C69.5556 117 67.6667 117 65.7778 116.39C58.537 115.171 52.2407 110.904 48.1481 104.807C45.9444 101.455 45 97.492 45 93.5294C45 92.0053 45.3148 90.4813 45.6296 88.6524C46.5741 83.1658 50.3519 79.2032 53.5 74.9358C54.7593 72.4973 56.0185 69.754 57.2778 67.0107C58.2222 64.2674 60.4259 62.1337 63.2593 60.9144C64.2037 60.6096 65.463 60.3048 66.7222 60.3048V60C67.9815 60 69.5556 60.3048 70.8148 60.6096C72.3889 60.9144 73.963 61.5241 75.537 62.4385C78.6852 64.5722 79.6296 68.2299 81.2037 71.2781C81.8333 72.8021 82.7778 74.3262 83.7222 75.5455C84.9815 76.7647 86.5556 77.6791 88.1296 78.5936C89.0741 79.508 89.7037 80.1176 90.3333 81.0321C94.1111 84.9946 96 89.8717 96 95.0535Z" fill="#EA8422"/>
<path d="M72 110.665C67.1513 110.051 61.4469 109.437 58.0243 105.754C57.1686 104.833 56.313 103.605 55.7425 102.684C55.4573 102.07 55.1721 101.456 54.8869 100.842C54.6017 100.228 54.3164 99.614 54.0312 99C53.746 101.456 55.4573 104.526 57.4538 106.061C59.4504 108.209 61.7321 109.437 64.5843 110.358C66.8661 110.972 69.433 111.279 72 110.665Z" fill="#EA9F22"/>
<path fill-rule="evenodd" clip-rule="evenodd" d="M192.846 117.98C193.154 127.341 194.693 136.703 197.157 145.158C196.839 141.73 196.485 138.338 196.132 134.957C195.459 128.509 194.789 122.102 194.385 115.564V113.752C194.077 103.183 194.385 92.9157 195.309 82.3464C193.153 93.5197 192.23 105.901 192.846 117.98ZM214.403 194.079C221.795 186.832 229.802 179.886 238.425 173.544C221.179 184.416 203.317 200.119 192.845 217.03C195.174 214.548 197.469 212.001 199.775 209.442C204.483 204.218 209.235 198.944 214.403 194.079Z" fill="#E6E7E8"/>
</svg>
