<svg width="300" height="300" viewBox="0 0 300 300" fill="none" xmlns="http://www.w3.org/2000/svg">
<path d="M268.935 194.748L194.748 268.935C185.327 278.355 170.019 278.355 160.598 268.935L31.0654 139.402C21.6449 129.981 21.6449 114.673 31.0654 105.252L105.252 31.0654C114.673 21.6449 129.981 21.6449 139.402 31.0654L268.935 160.598C278.355 170.019 278.355 185.327 268.935 194.748Z" fill="#C6B054"/>
<path fill-rule="evenodd" clip-rule="evenodd" d="M97.4016 71.8879C97.4016 75.7901 94.2383 78.9533 90.3362 78.9533C86.434 78.9533 83.2708 75.7901 83.2708 71.8879C83.2708 67.9858 86.434 64.8225 90.3362 64.8225C94.2383 64.8225 97.4016 67.9858 97.4016 71.8879ZM66.3922 103.29C70.2943 103.29 73.4576 100.127 73.4576 96.2244C73.4576 92.3223 70.2943 89.159 66.3922 89.159C62.4901 89.159 59.3268 92.3223 59.3268 96.2244C59.3268 100.127 62.4901 103.29 66.3922 103.29ZM42.4482 127.234C46.3504 127.234 49.5137 124.07 49.5137 120.168C49.5137 116.266 46.3504 113.103 42.4482 113.103C38.5461 113.103 35.3828 116.266 35.3828 120.168C35.3828 124.07 38.5461 127.234 42.4482 127.234ZM64.0371 149.215C67.9392 149.215 71.1025 146.052 71.1025 142.15C71.1025 138.247 67.9392 135.084 64.0371 135.084C60.135 135.084 56.9717 138.247 56.9717 142.15C56.9717 146.052 60.135 149.215 64.0371 149.215ZM95.4389 117.813C95.4389 121.715 92.2756 124.879 88.3735 124.879C84.4713 124.879 81.308 121.715 81.308 117.813C81.308 113.911 84.4713 110.748 88.3735 110.748C92.2756 110.748 95.4389 113.911 95.4389 117.813ZM112.317 100.935C116.22 100.935 119.383 97.7714 119.383 93.8692C119.383 89.9671 116.22 86.8038 112.317 86.8038C108.415 86.8038 105.252 89.9671 105.252 93.8692C105.252 97.7714 108.415 100.935 112.317 100.935ZM93.0838 163.738C93.0838 167.641 89.9205 170.804 86.0184 170.804C82.1162 170.804 78.9529 167.641 78.9529 163.738C78.9529 159.836 82.1162 156.673 86.0184 156.673C89.9205 156.673 93.0838 159.836 93.0838 163.738ZM109.962 146.86C113.864 146.86 117.028 143.697 117.028 139.794C117.028 135.892 113.864 132.729 109.962 132.729C106.06 132.729 102.897 135.892 102.897 139.794C102.897 143.697 106.06 146.86 109.962 146.86ZM140.972 115.458C140.972 119.36 137.808 122.523 133.906 122.523C130.004 122.523 126.841 119.36 126.841 115.458C126.841 111.556 130.004 108.393 133.906 108.393C137.808 108.393 140.972 111.556 140.972 115.458ZM108 192.785C111.902 192.785 115.065 189.622 115.065 185.72C115.065 181.818 111.902 178.654 108 178.654C104.097 178.654 100.934 181.818 100.934 185.72C100.934 189.622 104.097 192.785 108 192.785ZM139.009 161.776C139.009 165.678 135.846 168.841 131.944 168.841C128.041 168.841 124.878 165.678 124.878 161.776C124.878 157.874 128.041 154.71 131.944 154.71C135.846 154.71 139.009 157.874 139.009 161.776ZM155.888 144.505C159.79 144.505 162.953 141.341 162.953 137.439C162.953 133.537 159.79 130.374 155.888 130.374C151.985 130.374 148.822 133.537 148.822 137.439C148.822 141.341 151.985 144.505 155.888 144.505ZM137.046 207.701C137.046 211.603 133.883 214.766 129.981 214.766C126.079 214.766 122.916 211.603 122.916 207.701C122.916 203.799 126.079 200.636 129.981 200.636C133.883 200.636 137.046 203.799 137.046 207.701ZM153.925 190.823C157.827 190.823 160.99 187.659 160.99 183.757C160.99 179.855 157.827 176.692 153.925 176.692C150.023 176.692 146.859 179.855 146.859 183.757C146.859 187.659 150.023 190.823 153.925 190.823ZM184.934 159.421C184.934 163.323 181.771 166.486 177.869 166.486C173.967 166.486 170.803 163.323 170.803 159.421C170.803 155.519 173.967 152.355 177.869 152.355C181.771 152.355 184.934 155.519 184.934 159.421ZM151.57 236.748C155.472 236.748 158.635 233.584 158.635 229.682C158.635 225.78 155.472 222.617 151.57 222.617C147.668 222.617 144.504 225.78 144.504 229.682C144.504 233.584 147.668 236.748 151.57 236.748ZM182.972 205.346C182.972 209.248 179.808 212.411 175.906 212.411C172.004 212.411 168.841 209.248 168.841 205.346C168.841 201.444 172.004 198.28 175.906 198.28C179.808 198.28 182.972 201.444 182.972 205.346ZM199.458 188.467C203.36 188.467 206.523 185.304 206.523 181.402C206.523 177.5 203.36 174.337 199.458 174.337C195.556 174.337 192.392 177.5 192.392 181.402C192.392 185.304 195.556 188.467 199.458 188.467ZM180.616 251.271C180.616 255.173 177.453 258.337 173.551 258.337C169.649 258.337 166.486 255.173 166.486 251.271C166.486 247.369 169.649 244.206 173.551 244.206C177.453 244.206 180.616 247.369 180.616 251.271ZM197.495 234.393C201.397 234.393 204.56 231.229 204.56 227.327C204.56 223.425 201.397 220.262 197.495 220.262C193.593 220.262 190.43 223.425 190.43 227.327C190.43 231.229 193.593 234.393 197.495 234.393ZM228.504 202.991C228.504 206.893 225.341 210.056 221.439 210.056C217.537 210.056 214.374 206.893 214.374 202.991C214.374 199.089 217.537 195.925 221.439 195.925C225.341 195.925 228.504 199.089 228.504 202.991Z" fill="white"/>
<path fill-rule="evenodd" clip-rule="evenodd" d="M116.636 52.6543C120.538 52.6543 123.701 49.491 123.701 45.5889C123.701 41.6867 120.538 38.5234 116.636 38.5234C112.734 38.5234 109.57 41.6867 109.57 45.5889C109.57 49.491 112.734 52.6543 116.636 52.6543ZM138.617 74.6356C142.519 74.6356 145.682 71.4723 145.682 67.5702C145.682 63.668 142.519 60.5047 138.617 60.5047C134.715 60.5047 131.552 63.668 131.552 67.5702C131.552 71.4723 134.715 74.6356 138.617 74.6356ZM167.664 89.5515C167.664 93.4536 164.5 96.6169 160.598 96.6169C156.696 96.6169 153.533 93.4536 153.533 89.5515C153.533 85.6494 156.696 82.4861 160.598 82.4861C164.5 82.4861 167.664 85.6494 167.664 89.5515ZM182.58 118.598C186.482 118.598 189.645 115.435 189.645 111.533C189.645 107.631 186.482 104.467 182.58 104.467C178.678 104.467 175.514 107.631 175.514 111.533C175.514 115.435 178.678 118.598 182.58 118.598ZM211.234 133.122C211.234 137.024 208.071 140.187 204.168 140.187C200.266 140.187 197.103 137.024 197.103 133.122C197.103 129.219 200.266 126.056 204.168 126.056C208.071 126.056 211.234 129.219 211.234 133.122ZM226.15 162.168C230.052 162.168 233.215 159.005 233.215 155.103C233.215 151.201 230.052 148.037 226.15 148.037C222.248 148.037 219.084 151.201 219.084 155.103C219.084 159.005 222.248 162.168 226.15 162.168ZM255.196 177.084C255.196 180.986 252.033 184.15 248.131 184.15C244.229 184.15 241.066 180.986 241.066 177.084C241.066 173.182 244.229 170.019 248.131 170.019C252.033 170.019 255.196 173.182 255.196 177.084Z" fill="#7C161E"/>
<path fill-rule="evenodd" clip-rule="evenodd" d="M111.532 51.0841C114.28 54.2243 118.99 54.2243 122.13 51.0841C125.271 47.9439 125.271 43.2337 122.13 40.486C119.383 37.3458 114.672 37.3458 111.532 40.486C108.392 43.2337 108.392 47.9439 111.532 51.0841ZM111.925 50.2991C109.177 47.5514 109.177 43.6262 111.925 40.8785C114.672 38.5234 118.99 38.5234 121.345 40.8785C124.093 43.6262 124.093 47.5514 121.345 50.2991C118.598 53.0467 114.672 53.0467 111.925 50.2991ZM95.4387 77.3832C92.2985 80.5234 87.5882 80.5234 84.8406 77.3832C81.7004 74.243 81.7004 69.5327 84.8406 66.7851C87.9807 63.6449 92.691 63.6449 95.4387 66.7851C98.5789 69.5327 98.5789 74.243 95.4387 77.3832ZM85.6256 67.1776C82.8779 69.9253 82.8779 73.8505 85.6256 76.5982C88.3733 79.3458 92.2985 79.3458 95.0462 76.5982C97.7938 73.8505 97.7938 69.9253 95.0462 67.1776C92.2985 64.8225 87.9807 64.8225 85.6256 67.1776ZM61.2892 101.327C64.0368 104.467 68.7471 104.467 71.8873 101.327C74.635 98.5795 74.635 93.8692 71.8873 90.729C69.1396 87.5888 64.4293 87.5888 61.2892 90.729C58.149 93.4767 58.149 98.187 61.2892 101.327ZM61.6817 100.935C58.934 98.187 58.934 94.2617 61.6817 91.5141C64.4294 88.7664 68.3546 88.7664 71.1022 91.5141C73.8499 94.2617 73.8499 98.187 71.1022 100.935C68.3546 103.682 64.4294 103.682 61.6817 100.935ZM36.9528 125.664C39.7005 128.804 44.4107 128.804 47.5509 125.664C50.6911 122.523 50.6911 117.813 47.5509 115.065C44.8033 111.925 40.093 112.318 36.9528 115.065C33.8126 117.813 33.8126 122.523 36.9528 125.664ZM37.7378 124.879C34.9902 122.131 34.9902 118.206 37.7378 115.458C40.093 113.103 44.4107 113.103 47.1584 115.458C49.9061 118.206 49.9061 122.131 47.1584 124.879C44.4107 127.626 40.4855 127.626 37.7378 124.879ZM69.5322 147.252C66.392 150.393 61.6817 150.393 58.9341 147.252C55.7939 144.112 55.7939 139.402 58.9341 136.654C62.0742 133.514 66.7845 133.514 69.5322 136.654C72.6724 139.794 72.6724 144.505 69.5322 147.252ZM59.3266 137.439C56.5789 140.187 56.5789 144.112 59.3266 146.86C62.0742 149.608 65.9995 149.608 68.7471 146.86C71.4948 144.112 71.4948 140.187 68.7471 137.439C66.392 134.692 62.0742 134.692 59.3266 137.439ZM82.8779 123.308C85.6256 126.449 90.3359 126.449 93.4761 123.308C96.6163 120.561 96.6163 115.458 93.4761 112.71C90.7284 109.57 86.0181 109.57 82.8779 112.71C79.7377 115.458 80.1303 120.168 82.8779 123.308ZM83.663 122.916C80.9153 120.168 80.9153 116.243 83.663 113.495C86.0181 110.748 90.3359 110.748 93.0835 113.495C95.8312 116.243 95.8312 120.168 93.0835 122.916C90.3359 125.664 86.4106 125.664 83.663 122.916ZM117.42 98.972C114.28 102.112 109.57 102.112 106.822 98.972C103.682 95.8318 103.682 91.1215 106.822 88.3739C109.962 85.2337 114.672 85.2337 117.42 88.3739C120.168 91.514 120.56 96.2243 117.42 98.972ZM107.607 89.1589C104.859 91.9066 104.859 95.8318 107.607 98.5795C110.355 101.327 114.28 101.327 117.028 98.5795C119.775 95.8318 119.775 91.9066 117.028 89.1589C114.28 86.4112 109.962 86.4112 107.607 89.1589ZM133.513 73.0654C136.261 76.2056 140.971 76.2056 144.112 73.0654C146.859 69.9253 146.859 65.215 144.112 62.4673C141.364 59.3271 136.654 59.3271 133.513 62.4673C130.373 65.215 130.373 69.9253 133.513 73.0654ZM133.906 72.2804C131.158 69.5327 131.158 65.6075 133.906 62.8598C136.654 60.5047 140.579 60.5047 143.327 62.8598C146.074 65.6075 146.074 69.5327 143.327 72.2804C140.579 75.0281 136.654 75.0281 133.906 72.2804ZM91.5135 169.234C88.3733 172.374 83.663 172.374 80.9153 169.234C77.7751 166.094 77.7751 161.383 80.9153 158.636C84.0555 155.495 88.7658 155.495 91.5135 158.636C94.2611 161.776 94.2611 166.486 91.5135 169.234ZM81.3078 159.421C78.5602 162.168 78.5602 166.094 81.3078 168.841C84.0555 171.589 87.9807 171.589 90.7284 168.841C93.4761 166.094 93.4761 162.168 90.7284 159.421C87.9807 156.673 84.0555 156.673 81.3078 159.421ZM104.859 145.29C107.607 148.43 112.317 148.43 115.458 145.29C118.598 142.15 118.598 137.439 115.458 134.692C112.71 131.551 108 131.551 104.859 134.692C101.719 137.439 102.112 142.15 104.859 145.29ZM105.252 144.505C102.504 141.757 102.504 137.832 105.252 135.084C108 132.729 112.317 132.729 114.672 135.084C117.42 137.832 117.42 141.757 114.672 144.505C111.925 147.252 108 147.252 105.252 144.505ZM139.401 120.953C136.261 124.093 131.551 124.093 128.803 120.953C125.663 117.813 125.663 113.103 128.803 110.355C131.943 107.215 136.654 107.215 139.401 110.355C142.149 113.103 142.149 118.206 139.401 120.953ZM129.196 111.14C126.448 113.888 126.448 117.813 129.196 120.561C131.943 123.308 135.869 123.308 138.616 120.561C141.364 117.813 141.364 113.888 138.616 111.14C136.261 108.393 131.943 108.393 129.196 111.14ZM155.102 94.6542C157.85 97.7944 162.56 97.7944 165.7 94.6542C168.841 91.9066 168.448 87.1963 165.7 84.0561C162.953 80.9159 158.242 80.9159 155.102 84.0561C151.962 86.8037 152.355 91.514 155.102 94.6542ZM155.887 94.2617C153.14 91.514 153.14 87.5888 155.887 84.8411C158.242 82.0935 162.56 82.0935 165.308 84.8411C168.056 87.5888 168.056 91.514 165.308 94.2617C162.56 97.0094 158.635 97.0094 155.887 94.2617ZM113.495 191.215C110.355 194.355 105.644 194.355 102.897 191.215C99.7566 188.075 99.7566 183.365 102.897 180.617C106.037 177.477 110.747 177.477 113.495 180.617C116.243 183.365 116.243 188.075 113.495 191.215ZM103.289 181.009C100.542 183.757 100.542 187.682 103.289 190.43C106.037 193.178 109.962 193.178 112.71 190.43C115.458 187.682 115.458 183.757 112.71 181.009C109.962 178.654 105.644 178.654 103.289 181.009ZM126.841 167.271C129.588 170.411 134.299 170.411 137.439 167.271C140.186 164.131 140.186 159.813 137.439 156.673C134.691 153.533 129.981 153.533 126.841 156.673C123.7 159.421 123.7 164.131 126.841 167.271ZM127.233 166.486C124.485 163.738 124.485 159.813 127.233 157.065C129.981 154.318 133.906 154.318 136.654 157.065C139.401 159.813 139.401 163.738 136.654 166.486C133.906 169.234 129.981 169.234 127.233 166.486ZM161.383 142.935C158.242 146.075 153.532 146.075 150.785 142.935C147.644 139.794 147.644 135.084 150.785 132.336C153.925 129.196 158.635 129.196 161.383 132.336C164.13 135.084 164.13 139.794 161.383 142.935ZM151.177 132.729C148.429 135.477 148.429 139.402 151.177 142.15C153.925 144.897 157.85 144.897 160.598 142.15C163.345 139.402 163.345 135.477 160.598 132.729C157.85 130.374 153.925 130.374 151.177 132.729ZM177.084 116.636C179.831 119.776 184.542 119.776 187.682 116.636C190.822 113.888 190.429 109.178 187.682 106.037C184.934 102.897 180.224 102.897 177.084 106.037C173.944 108.785 174.336 113.495 177.084 116.636ZM177.869 116.243C175.121 113.495 175.121 109.57 177.869 106.822C180.224 104.075 184.542 104.075 187.289 106.822C190.037 109.57 190.037 113.495 187.289 116.243C184.542 118.991 180.616 118.991 177.869 116.243ZM135.084 213.196C131.943 216.336 127.233 216.336 124.485 213.196C121.345 210.056 121.345 205.346 124.485 202.598C127.626 199.458 132.336 199.458 135.084 202.598C138.224 205.346 138.224 210.056 135.084 213.196ZM125.271 202.991C122.523 205.738 122.523 209.664 125.271 212.411C128.018 215.159 131.943 215.159 134.691 212.411C137.439 209.664 137.439 205.738 134.691 202.991C131.943 200.243 127.626 200.243 125.271 202.991ZM148.822 188.86C151.57 192 156.28 192 159.42 188.86C162.168 186.112 162.168 181.402 159.42 178.262C156.672 175.122 151.962 175.514 148.822 178.262C145.682 181.009 146.074 185.72 148.822 188.86ZM149.214 188.467C146.467 185.72 146.467 181.794 149.214 179.047C151.962 176.299 155.887 176.299 158.635 179.047C161.383 181.794 161.383 185.72 158.635 188.467C155.887 191.215 151.962 191.215 149.214 188.467ZM182.971 164.916C179.831 168.056 175.121 168.056 172.373 164.916C169.626 161.776 169.233 157.065 172.373 154.318C175.513 151.178 180.224 151.178 182.971 154.318C185.719 157.458 186.112 161.776 182.971 164.916ZM173.158 154.71C170.411 157.458 170.411 161.383 173.158 164.131C175.906 166.879 179.831 166.879 182.579 164.131C185.327 161.383 185.327 157.458 182.579 154.71C179.831 151.963 175.513 151.963 173.158 154.71ZM199.065 138.617C201.813 141.757 206.523 141.757 209.663 138.617C212.411 135.477 212.411 130.766 209.663 128.019C206.915 124.879 202.205 124.879 199.065 128.019C195.925 130.766 196.317 135.477 199.065 138.617ZM199.457 137.832C196.71 135.084 196.71 131.159 199.457 128.411C202.205 126.056 206.523 126.056 208.878 128.411C211.626 131.159 211.626 135.084 208.878 137.832C206.13 140.579 202.205 140.579 199.457 137.832ZM157.065 234.785C153.925 237.925 149.214 237.925 146.467 234.785C143.327 231.645 143.327 226.935 146.467 224.187C149.607 221.047 154.317 221.047 157.065 224.187C160.205 227.327 160.205 232.037 157.065 234.785ZM146.859 224.972C144.112 227.72 144.112 231.645 146.859 234.393C149.607 237.14 153.532 237.14 156.28 234.393C159.027 231.645 159.027 227.72 156.28 224.972C153.925 222.224 149.607 222.224 146.859 224.972ZM170.411 210.841C173.158 213.981 177.869 213.981 181.009 210.841C184.149 208.093 183.757 203.383 181.009 200.243C178.261 197.103 173.551 197.103 170.411 200.243C167.271 202.991 167.663 207.701 170.411 210.841ZM171.196 210.056C168.448 207.308 168.448 203.383 171.196 200.636C173.551 198.28 177.869 198.28 180.616 200.636C183.364 203.383 183.364 207.308 180.616 210.056C177.869 212.804 173.943 212.804 171.196 210.056ZM204.953 186.505C201.813 189.645 197.102 189.645 194.355 186.505C191.607 183.365 191.215 178.654 194.355 175.907C197.495 172.766 202.205 172.766 204.953 175.907C208.093 179.047 208.093 183.757 204.953 186.505ZM195.14 176.692C192.392 179.439 192.392 183.365 195.14 186.112C197.887 188.86 201.813 188.86 204.56 186.112C207.308 183.365 207.308 179.439 204.56 176.692C201.813 173.944 197.495 173.944 195.14 176.692ZM221.046 160.598C223.794 163.738 228.504 163.738 231.644 160.598C234.392 157.458 234.392 153.14 231.644 150C228.897 146.86 224.186 147.252 221.046 150C217.906 152.748 218.299 157.458 221.046 160.598ZM221.439 159.813C218.691 157.065 218.691 153.14 221.439 150.393C224.186 148.037 228.112 148.037 230.859 150.393C233.607 153.14 233.607 157.065 230.859 159.813C228.112 162.561 224.186 162.561 221.439 159.813ZM179.046 256.766C175.906 259.907 171.196 259.907 168.448 256.766C165.308 253.626 165.308 248.916 168.448 246.168C171.588 243.028 176.299 243.028 179.046 246.168C181.794 248.916 181.794 254.019 179.046 256.766ZM168.841 246.953C166.093 249.701 166.093 253.626 168.841 256.374C171.588 259.122 175.514 259.122 178.261 256.374C181.009 253.626 181.009 249.701 178.261 246.953C175.514 244.206 171.588 244.206 168.841 246.953ZM192.392 232.822C195.14 235.963 199.85 235.963 202.99 232.822C206.13 229.682 205.738 225.365 202.99 222.224C200.242 219.084 195.532 219.084 192.392 222.224C189.252 224.972 189.644 229.682 192.392 232.822ZM192.785 232.037C190.037 229.29 190.037 225.365 192.785 222.617C195.532 220.262 199.85 220.262 202.205 222.617C204.953 225.365 204.953 229.29 202.205 232.037C199.457 234.785 195.532 234.785 192.785 232.037ZM226.934 208.486C223.794 211.626 219.084 211.626 216.336 208.486C213.196 205.346 213.196 200.636 216.336 197.888C219.476 194.748 224.186 194.748 226.934 197.888C229.682 200.636 229.682 205.738 226.934 208.486ZM216.729 198.28C213.981 201.028 213.981 204.953 216.729 207.701C219.476 210.449 223.401 210.449 226.149 207.701C228.897 204.953 228.897 201.028 226.149 198.28C223.794 195.925 219.476 195.925 216.729 198.28ZM242.635 182.187C245.383 185.327 250.093 185.327 253.233 182.187C256.373 179.439 255.981 174.729 253.233 171.589C250.486 168.449 245.775 168.841 242.635 171.589C239.495 174.336 239.887 179.047 242.635 182.187ZM243.42 181.794C240.672 179.047 240.672 175.122 243.42 172.374C245.775 169.626 250.093 169.626 252.841 172.374C255.588 175.122 255.588 179.047 252.841 181.794C250.093 184.542 246.168 184.542 243.42 181.794Z" fill="#C6CDC9"/>
</svg>
