<svg width="300" height="300" viewBox="0 0 300 300" fill="none" xmlns="http://www.w3.org/2000/svg">
<path d="M62.4882 263H245.433C251.807 263 257 257.819 257 251.46V129H51V251.539C51 257.819 56.1146 263 62.4882 263Z" fill="white"/>
<path d="M257 48.5748C257 42.1969 251.809 37 245.438 37H62.5624C56.1913 37 51 42.1969 51 48.5748V107H257V48.5748Z" fill="#821B1C"/>
<path d="M258 107H51V115H258V107Z" fill="#821B1C"/>
<path d="M258 115H51V123H258V115Z" fill="#821B1C"/>
<path d="M209 42C202.396 42 197 47.396 197 54C197 60.6846 202.396 66 209 66C215.604 66 221 60.604 221 54C221 47.396 215.604 42 209 42Z" fill="#F5A999"/>
<path d="M99.5 42C93.1711 42 88 47.396 88 54C88 60.6846 93.1711 66 99.5 66C105.906 66 111 60.604 111 54C111 47.396 105.906 42 99.5 42Z" fill="#F5A999"/>
<path d="M209 42C202.925 42 198 46.7015 198 52.5C198 58.2985 202.925 63 209 63C215.075 63 220 58.2985 220 52.5C220 46.7798 215.075 42 209 42Z" fill="#752515"/>
<path d="M209.125 10V61.1206C213.536 61.1206 217.081 57.576 217.081 53.165V18.0344C217.081 13.6233 213.536 10 209.125 10Z" fill="black"/>
<path d="M209.125 10C204.714 10 201.17 13.5446 201.17 17.9556V53.0862C201.17 57.4972 204.714 61.0418 209.125 61.0418V10Z" fill="black"/>
<path opacity="0.1" d="M209.125 10C204.714 10 201.17 13.5446 201.17 17.9556V53.0862C201.17 57.4972 204.714 61.0418 209.125 61.0418V10Z" fill="black"/>
<path d="M99.717 42.3735C93.8882 42.3735 89.1621 47.0996 89.1621 52.9285C89.1621 58.7573 93.8882 63.4834 99.717 63.4834C105.546 63.4834 110.272 58.7573 110.272 52.9285C110.272 47.1784 105.546 42.3735 99.717 42.3735Z" fill="#752515"/>
<path d="M99.7959 10V61.1206C104.207 61.1206 107.751 57.576 107.751 53.165V18.0344C107.751 13.6233 104.207 10 99.7959 10Z" fill="black"/>
<path d="M99.7964 10C95.3854 10 91.8408 13.5446 91.8408 17.9556V53.0862C91.8408 57.4972 95.3854 61.0418 99.7964 61.0418V10Z" fill="black"/>
<path opacity="0.1" d="M99.7964 10C95.3854 10 91.8408 13.5446 91.8408 17.9556V53.0862C91.8408 57.4972 95.3854 61.0418 99.7964 61.0418V10Z" fill="black"/>
<path d="M118.701 191.246C122.088 192.663 124.924 194.869 127.208 197.862C129.492 200.934 130.674 204.557 130.674 208.968C130.674 215.821 128.389 221.099 123.821 224.801C119.252 228.503 113.581 230.315 106.807 230.315C102.396 230.315 97.9848 229.369 93.6526 227.479C89.3203 225.589 85.7758 223.068 83.0977 219.838L88.4539 214.482C93.4163 220.154 99.7177 222.989 107.279 222.989C111.691 222.989 115.393 221.808 118.386 219.445C121.379 217.082 122.876 213.616 122.876 209.126C122.876 204.715 121.221 201.407 117.834 199.28C114.447 197.153 110.194 196.05 105.074 196.05H99.5602V188.489H103.892C109.091 188.489 113.266 187.307 116.338 184.944C119.489 182.581 121.064 179.194 121.064 174.941C121.064 170.845 119.567 167.851 116.653 165.804C113.738 163.834 110.43 162.81 106.886 162.81C100.269 162.81 94.6766 165.41 90.108 170.687L84.8306 165.331C90.8169 158.793 98.0636 155.485 106.492 155.485C112.478 155.485 117.756 157.218 122.245 160.605C126.735 163.992 128.941 168.875 128.941 175.019C128.941 178.958 127.838 182.424 125.554 185.338C123.348 188.331 121.064 190.3 118.701 191.246Z" fill="#821B1C"/>
<path d="M106.807 232.284C102.16 232.284 97.4335 231.26 92.865 229.291C88.2176 227.321 84.4368 224.565 81.5223 221.099L80.3408 219.681L88.4539 211.568L89.8718 213.143C94.5191 218.421 100.19 220.941 107.28 220.941C111.297 220.941 114.526 219.917 117.126 217.869C119.646 215.9 120.828 212.986 120.828 209.047C120.828 205.345 119.489 202.667 116.732 200.855C113.739 198.965 109.8 197.941 104.995 197.941H97.5123V186.441H103.814C108.54 186.441 112.321 185.338 115.078 183.29C117.756 181.321 119.016 178.564 119.016 174.862C119.016 171.475 117.834 169.033 115.471 167.379C112.872 165.567 110.036 164.701 106.807 164.701C100.742 164.701 95.7006 167.064 91.5259 171.869L90.1081 173.444L81.9949 165.173L83.2552 163.834C89.6355 156.903 97.4335 153.358 106.334 153.358C112.715 153.358 118.465 155.249 123.269 158.872C128.232 162.653 130.752 168.088 130.752 174.862C130.752 179.194 129.492 183.133 126.972 186.441C125.554 188.331 124.057 189.828 122.561 191.009C124.845 192.427 126.893 194.318 128.626 196.602C131.225 199.989 132.485 204.085 132.485 208.89C132.485 216.294 129.886 222.123 124.845 226.219C120.198 230.236 114.054 232.284 106.807 232.284ZM85.8546 219.917C88.1389 222.28 91.0533 224.25 94.5191 225.667C98.615 227.4 102.79 228.267 106.886 228.267C113.187 228.267 118.465 226.534 122.718 223.147C126.893 219.839 128.862 215.191 128.862 208.89C128.862 204.951 127.838 201.722 125.79 198.965C123.742 196.208 121.143 194.239 118.071 192.979L113.66 191.167L118.071 189.355C120.04 188.568 122.088 186.756 124.136 184.078C126.105 181.4 127.129 178.406 127.129 174.941C127.129 169.348 125.16 165.095 121.143 162.023C117.047 158.872 112.163 157.297 106.571 157.297C99.2452 157.297 93.0225 159.896 87.6663 165.173L90.1868 167.694C94.8342 163.047 100.505 160.684 106.964 160.684C110.903 160.684 114.605 161.786 117.834 163.992C121.3 166.355 123.112 169.978 123.112 174.704C123.112 179.588 121.3 183.526 117.598 186.283C114.132 188.883 109.485 190.222 103.893 190.222H101.529V193.845H105.074C110.588 193.845 115.235 195.027 118.937 197.39C122.876 199.91 124.845 203.77 124.845 208.89C124.845 214.088 123.112 218.027 119.646 220.784C116.338 223.383 112.163 224.722 107.358 224.722C99.9541 224.722 93.5739 222.123 88.4539 217.082L85.8546 219.917Z" fill="#821B1C"/>
<path d="M166.67 205.503H140.991V198.492H166.67V205.503Z" fill="#821B1C"/>
<path d="M168.639 207.472H139.022V196.523H168.639V207.472ZM142.961 203.534H164.701V200.462H142.961V203.534Z" fill="#821B1C"/>
<path d="M216.059 206.527C216.059 201.486 214.484 197.547 211.412 194.712C208.34 191.876 204.402 190.458 199.597 190.458C196.525 190.458 193.689 191.246 191.011 192.821C188.333 194.396 186.364 196.287 185.182 198.492H178.014L179.747 156.667H218.501V164.149H186.915L185.812 188.568C187.23 186.992 189.2 185.653 191.878 184.629C194.556 183.605 197.47 183.054 200.621 183.054C207.08 183.054 212.515 185.102 217.083 189.277C221.652 193.451 223.936 199.201 223.936 206.606C223.936 213.143 221.573 218.736 216.926 223.383C212.279 228.03 206.056 230.315 198.258 230.315C189.357 230.315 181.795 226.613 175.651 219.208L181.244 213.695C186.049 219.839 191.878 222.911 198.652 222.911C203.535 222.911 207.71 221.414 211.018 218.421C214.405 215.428 216.059 211.489 216.059 206.527Z" fill="#821B1C"/>
<path d="M198.257 232.284C188.805 232.284 180.692 228.346 174.154 220.469L172.973 219.051L181.401 210.78L182.74 212.513C187.23 218.184 192.428 220.941 198.572 220.941C202.983 220.941 206.607 219.602 209.6 216.924C212.514 214.325 213.932 210.859 213.932 206.527C213.932 202.037 212.593 198.65 209.915 196.208C207.158 193.688 203.692 192.506 199.439 192.506C196.761 192.506 194.24 193.215 191.798 194.554C189.435 195.893 187.781 197.547 186.757 199.438L186.206 200.462H175.808L177.699 154.697H220.312V166.119H188.648L187.781 184.314C188.726 183.763 189.829 183.211 190.932 182.818C193.767 181.715 196.997 181.163 200.384 181.163C207.316 181.163 213.302 183.448 218.186 187.859C223.148 192.348 225.669 198.65 225.669 206.606C225.669 213.695 223.148 219.76 218.107 224.801C213.302 229.685 206.607 232.284 198.257 232.284ZM178.408 219.287C183.921 225.352 190.459 228.267 198.257 228.267C205.583 228.267 211.254 226.219 215.586 221.887C219.919 217.633 221.966 212.592 221.966 206.527C221.966 199.674 219.919 194.475 215.744 190.694C211.49 186.835 206.607 185.023 200.62 185.023C197.706 185.023 195.028 185.496 192.586 186.441C190.223 187.386 188.49 188.489 187.308 189.828L183.606 194.081L185.103 162.101H216.61V158.557H181.716L180.141 196.444H184.079C185.418 194.396 187.466 192.585 189.987 191.088C192.98 189.355 196.209 188.489 199.596 188.489C204.874 188.489 209.285 190.064 212.751 193.215C216.295 196.444 218.028 200.855 218.028 206.448C218.028 211.883 216.138 216.373 212.357 219.76C208.655 223.068 204.007 224.801 198.651 224.801C191.956 224.801 186.048 222.044 181.086 216.53L178.408 219.287Z" fill="#821B1C"/>
<path d="M123.663 86.0112H125.475L129.334 93.2579L133.194 86.0112H135.006L130.201 94.8333V100.82H128.625V94.8333L123.663 86.0112Z" fill="white"/>
<path d="M146.82 100.82H137.132V86.0112H146.82V87.5078H138.707V92.4702H146.584V93.9668H138.707V99.2443H146.82V100.82Z" fill="white"/>
<path d="M154.619 86.0112H156.431L162.181 100.82H160.448L159.109 97.4326H151.862L150.523 100.82H148.79L154.619 86.0112ZM158.557 95.8573L155.564 88.0592L152.571 95.8573H158.557Z" fill="white"/>
<path d="M175.492 100.82H173.602L169.742 95.3846H166.197V100.82H164.622V86.0112H169.821C171.475 86.0112 172.814 86.4051 173.759 87.2715C174.704 88.138 175.256 89.2407 175.256 90.6585C175.256 91.8401 174.941 92.7853 174.311 93.573C173.68 94.3607 172.814 94.912 171.632 95.1483L175.492 100.82ZM169.9 87.5866H166.119V93.888H169.9C171.002 93.888 171.869 93.6517 172.499 93.1004C173.129 92.549 173.444 91.7613 173.444 90.7373C173.444 89.7133 173.129 88.9257 172.499 88.3743C171.869 87.8229 171.002 87.5866 169.9 87.5866Z" fill="white"/>
<path d="M183.921 94.2819L182.03 93.9668C180.849 93.7305 179.825 93.3367 179.037 92.6277C178.25 91.9188 177.856 91.0524 177.856 89.8709C177.856 88.6106 178.328 87.5866 179.352 86.8777C180.376 86.1688 181.558 85.7749 182.976 85.7749C185.024 85.7749 186.678 86.5626 188.096 88.0592L186.993 89.2407C185.89 87.9804 184.551 87.2715 182.818 87.2715C181.873 87.2715 181.006 87.5078 180.376 87.9804C179.746 88.453 179.431 89.0832 179.431 89.7921C179.431 91.2099 180.455 92.0764 182.582 92.3914L184.078 92.6277C185.496 92.864 186.599 93.3366 187.387 94.0456C188.174 94.7545 188.568 95.6997 188.568 96.8024C188.568 97.984 188.096 99.008 187.072 99.7957C186.048 100.583 184.787 100.977 183.133 100.977C181.952 100.977 180.849 100.741 179.825 100.189C178.801 99.7169 178.013 99.008 177.462 98.2203L178.565 97.0388C179.746 98.6141 181.322 99.4018 183.291 99.4018C184.315 99.4018 185.181 99.1655 185.89 98.6929C186.599 98.2203 186.914 97.5902 186.914 96.7237C186.993 95.5422 185.969 94.597 183.921 94.2819Z" fill="white"/>
<path d="M42.0587 116.101C42.295 116.258 42.4525 116.416 42.6888 116.573C42.2162 116.337 41.5861 116.022 40.8772 115.549C47.4937 120.433 57.0246 125.553 63.4836 128.389C65.6104 129.728 67.6583 130.594 68.0522 130.437C68.446 130.279 66.9494 129.098 64.8227 127.758C64.3501 127.443 63.7987 127.05 63.4836 126.813C60.648 124.529 57.0246 121.93 53.0075 119.251C53.7951 119.803 54.5828 120.433 55.2917 120.984C54.1102 120.197 53.0075 119.409 51.5896 118.621C51.6684 118.779 51.8259 118.936 51.9835 119.094C48.0451 116.258 42.295 112.95 39.0655 111.769C35.836 110.587 36.3874 111.926 40.3258 114.84L42.0587 116.101Z" fill="#E41413"/>
<path d="M48.8326 122.402C46.4696 120.748 44.1853 119.094 41.901 117.44L41.5072 117.046L41.4284 117.598H41.5072C43.949 118.543 47.7299 120.591 51.1957 122.56L52.456 123.19C53.0861 123.505 53.4799 123.663 53.7162 123.584C54.1101 123.505 53.1649 122.717 51.5895 121.693L49.7778 120.591C45.4456 117.676 38.4352 113.502 35.5208 112.714C34.8906 112.556 35.2057 113.029 35.2057 113.344C34.8907 113.502 36.3872 114.762 38.5928 116.18C40.7983 117.519 42.8462 118.464 43.1613 118.228C43.5552 118.464 43.8702 118.7 44.2641 118.937C43.949 118.779 43.6339 118.622 43.3189 118.543C44.1065 118.7 46.1545 119.803 47.7299 120.591L50.0141 121.851L49.1477 120.433L47.8874 119.803C47.9662 119.882 48.1237 120.039 48.1237 120.039C45.7607 118.858 43.5551 117.834 41.0346 116.495L37.8051 114.919C36.8599 114.526 36.8599 114.762 37.7263 115.471L38.9866 116.416L38.4352 115.943C41.5072 117.991 44.7367 120.118 47.8086 122.087C48.2812 122.402 48.9114 122.717 49.2265 122.796C49.4628 122.954 49.3052 122.717 48.8326 122.402Z" fill="#E41413"/>
<path d="M37.6479 115.865C37.1753 115.471 36.7027 115.156 35.9938 114.762C35.8362 114.683 35.6787 114.683 35.6787 114.604C35.915 114.762 36.3089 115.077 36.6239 115.313C37.1753 115.786 37.5691 115.943 37.6479 115.865Z" fill="#E41413"/>
<path d="M35.5989 114.604C35.3626 114.447 35.2051 114.289 35.2051 114.289C35.2838 114.368 35.3626 114.447 35.4414 114.525C35.5202 114.525 35.5202 114.525 35.5989 114.604C35.5202 114.525 35.5202 114.525 35.5989 114.604Z" fill="#E41413"/>
<path d="M174.94 194.869C184.707 200.698 194.553 206.527 204.399 212.356C204.714 212.513 205.029 212.671 205.029 212.671C205.029 212.671 204.793 212.434 204.557 212.277C194.711 206.527 184.865 200.698 175.098 194.869C174.783 194.711 174.467 194.554 174.389 194.554C174.389 194.554 174.625 194.711 174.94 194.869Z" fill="#E41413"/>
<path d="M246.462 241.657C246.226 241.579 246.226 241.579 246.383 241.815C246.541 241.973 246.935 242.209 247.171 242.288C247.407 242.366 247.407 242.288 247.25 242.13C247.092 241.973 246.698 241.815 246.462 241.657Z" fill="#E41413"/>
<path d="M242.445 243.863C241.027 243.154 239.688 242.445 238.427 241.894C238.191 241.815 237.955 241.657 237.797 241.5C237.876 241.579 237.561 241.5 237.01 241.264C226.849 236.222 216.057 230.393 205.502 224.643C205.424 224.643 205.266 224.643 204.951 224.565C204.163 224.328 202.667 223.541 201.17 222.674L200.067 221.965C195.578 219.208 191.009 216.53 186.519 213.773C185.574 213.301 184.471 212.749 183.211 212.119C179.115 210.071 175.098 208.023 170.923 205.818C171.159 205.975 171.238 206.133 171.238 206.212C171.081 206.29 170.057 205.897 168.954 205.266C168.403 204.951 167.851 204.636 167.3 204.321C168.875 205.266 170.45 206.212 171.947 207.157C172.183 207.314 172.341 207.393 172.577 207.551C174.31 208.575 176.043 209.52 177.855 210.544C193.451 219.366 208.417 227.243 223.304 234.883C223.54 234.962 223.934 235.198 224.092 235.356C224.249 235.435 224.17 235.513 223.855 235.356C214.246 230.866 205.817 227.322 195.184 221.887C182.581 215.428 170.135 208.89 157.296 201.958C144.142 194.318 131.775 187.622 118.227 179.982C99.953 169.742 82.8603 159.738 65.2162 149.341C58.5209 145.56 52.8496 141.307 52.5345 139.968C52.377 139.18 54.1099 139.495 57.0243 140.834C56.4729 140.519 55.9215 140.204 55.4489 139.889L52.9284 138.235C50.5653 136.659 48.6749 135.242 47.4934 134.218L45.918 132.8C43.9488 130.673 40.483 127.837 38.9864 125.947H39.6165L39.2227 125.632C37.8049 124.529 36.9384 123.663 36.7809 123.19L37.0959 122.954C37.6473 122.796 38.5925 122.875 40.0104 123.269C40.0891 123.111 40.2467 123.032 40.6405 123.111C39.7741 122.166 39.5378 121.536 40.5618 121.615C40.0104 121.142 40.1679 121.063 40.9556 121.457C41.1919 121.615 41.5857 121.772 41.9008 121.93C41.5857 121.615 41.507 121.536 41.1131 121.142C40.483 120.748 40.1679 120.512 40.1679 120.512C38.5925 119.488 38.5925 119.488 37.1747 118.543C35.9932 117.676 35.363 117.046 35.363 117.046C34.3391 115.628 34.3391 115.628 34.7329 115.549C34.8117 115.549 34.9692 115.628 35.048 115.628C34.024 114.919 33.9452 114.841 33.6301 114.604C33.3151 114.368 33.1575 114.21 33.1575 114.21C33.1575 114.053 33.1575 114.053 33 113.895C33 113.817 33 113.738 33 113.738C33.7089 113.974 33.7089 113.974 33.7089 113.895C33.8665 113.974 34.1028 114.053 34.1028 114.053C34.8117 114.447 35.1267 114.604 35.2843 114.683C36.6233 115.943 36.6233 115.943 36.6233 115.943C37.0172 116.022 37.0172 116.022 37.0172 116.022C37.2535 116.416 37.2535 116.416 37.2535 116.416C37.1747 116.18 37.1747 116.18 37.1747 116.18C37.8836 116.731 37.8836 116.731 37.8836 116.731C37.0959 116.101 37.0959 116.101 37.0959 116.101C38.9076 117.282 38.9076 117.282 39.6165 117.676C40.4042 118.149 41.0344 118.464 41.1131 118.543C41.1131 118.464 41.1131 118.385 41.1131 118.385C43.0036 119.645 43.0036 119.645 44.894 120.827C45.0515 120.984 45.2091 121.063 45.2878 121.221C45.5241 121.3 45.8392 121.457 46.2331 121.693C46.5481 121.93 46.8632 122.087 47.257 122.324C47.3358 122.324 47.4146 122.402 47.4934 122.402C47.8872 122.56 48.1235 122.717 48.3598 122.875C48.5173 122.954 48.5173 122.954 48.5173 122.954C49.1475 123.269 50.0139 123.663 52.377 124.844C52.9284 125.238 53.4797 125.553 54.0311 125.868C53.8736 125.711 53.716 125.632 53.5585 125.474C53.2434 125.238 53.6373 125.317 53.4797 125.159C49.4626 122.402 44.9728 119.567 40.5618 116.731C39.7741 116.258 39.0652 115.707 38.9864 115.549C38.9076 115.392 39.6165 115.628 40.4042 116.101C49.9352 120.827 61.0415 127.601 70.0998 133.666C72.5416 135.163 74.9835 136.738 77.4253 138.235L77.1102 137.92L79.0006 139.18L79.2369 139.337C78.7643 138.944 78.3705 138.629 77.8979 138.235C77.5828 137.998 77.2677 137.762 76.9527 137.526C71.2813 133.981 66.2402 130.515 60.8052 126.971C57.8907 125.08 55.4489 123.269 52.7708 121.457C52.0619 120.984 51.5893 120.591 51.7468 120.591C51.9044 120.512 52.6133 120.906 53.3222 121.3C62.8531 126.735 73.5656 133.272 80.576 138.629C82.3089 139.653 83.8843 140.677 85.2233 141.701L85.3021 141.779C84.987 141.464 84.6719 141.228 84.3569 140.913C85.6171 141.701 86.1685 142.331 87.35 143.04C87.2713 142.882 87.1925 142.646 87.1137 142.488C93.3364 146.427 100.347 150.365 105.939 154.303C106.176 154.461 106.412 154.618 106.569 154.697C109.248 156.036 111.926 157.297 114.919 159.03C113.895 158.399 112.95 157.769 111.926 157.139C114.21 158.321 116.416 159.502 118.7 160.92C125.001 164.701 131.854 169.269 134.847 171.948C147.214 179.037 159.58 186.205 171.947 193.136C172.577 193.53 173.129 193.845 173.207 194.003C173.207 194.16 172.735 193.924 172.105 193.609C163.125 188.804 154.067 183.763 145.087 178.643C152.491 183.133 159.974 187.701 167.615 192.191C168.639 192.742 169.584 193.294 170.608 193.845C171.553 194.396 172.577 194.948 173.522 195.578C183.368 201.249 192.663 206.684 202.745 212.277C211.41 217.003 219.05 221.178 227.715 225.746C239.924 232.284 251.03 238.113 262.924 244.887C264.5 245.753 265.918 246.777 265.996 247.092C266.075 247.407 264.815 246.935 263.239 246.068C238.112 232.678 213.379 219.523 187.622 204.558C184.865 202.903 182.108 201.328 179.43 199.753C179.43 199.831 179.43 199.831 179.43 199.91C179.351 199.989 179.036 199.989 178.564 199.831C181.636 201.643 184.708 203.534 187.78 205.345C196.602 210.15 205.424 214.876 214.639 220.39C220.941 224.171 226.612 227.715 232.362 231.26C239.924 235.356 247.486 239.531 255.126 243.705C255.441 243.863 255.756 244.099 255.835 244.178C255.914 244.257 255.756 244.257 255.441 244.099C250.085 241.421 244.65 238.585 239.215 235.671C240.003 236.301 240.397 236.774 240.239 236.852C240.082 237.01 239.294 236.774 238.27 236.38L241.893 238.507C242.681 238.979 243.154 239.373 243.154 239.452C243.075 239.531 242.445 239.294 241.736 238.9C236.773 236.065 231.811 233.229 226.849 230.315C220.862 227.006 214.876 223.698 208.889 220.39C209.677 221.02 210.15 221.493 210.386 221.808C211.331 222.359 212.198 222.832 213.143 223.383C230.314 232.52 247.722 242.051 265.051 252.055C265.366 252.212 265.681 252.449 265.602 252.527C265.602 252.606 265.287 252.449 264.972 252.291C259.774 249.298 254.496 246.305 249.219 243.39C249.376 243.548 249.455 243.627 249.14 243.548C248.904 243.469 248.51 243.233 248.352 243.075C248.116 242.918 248.195 242.839 248.352 242.918C238.585 237.483 228.818 232.126 219.129 226.928C228.03 231.969 236.852 237.01 245.674 242.13C246.698 242.603 247.643 243.154 248.667 243.627C248.904 243.784 249.297 244.02 249.376 244.099C249.455 244.178 249.219 244.099 248.904 243.942C248.589 243.784 248.352 243.627 248.037 243.548C249.691 244.493 250.873 245.438 250.715 245.675C250.479 245.832 248.982 245.202 247.249 244.178C242.602 241.579 237.955 238.9 233.229 236.301L231.732 235.513C231.181 235.277 230.708 235.041 230.157 234.726C237.325 238.979 244.493 243.154 251.582 247.329C252.212 247.644 252.684 248.038 252.684 248.116C252.684 248.195 252.133 247.959 251.503 247.644C238.664 240.791 225.746 233.702 212.907 226.534C208.496 224.486 204.085 222.359 199.595 220.311C200.146 220.626 200.697 220.941 201.249 221.256C215.191 229.291 227.557 235.041 241.184 242.524C241.499 242.681 241.814 242.918 241.814 242.996C241.814 243.075 241.578 242.996 241.263 242.76C234.568 239.137 228.345 236.065 221.729 232.52C216.215 229.606 210.937 226.849 205.739 224.25C216.057 230.078 226.218 235.277 236.458 240.87C236.931 241.106 237.325 241.342 237.64 241.579C237.64 241.579 237.797 241.579 237.955 241.657C239.294 242.288 240.712 242.996 242.208 243.705C242.523 243.863 242.838 244.02 242.917 244.178C242.917 244.02 242.76 244.02 242.445 243.863ZM67.0279 135.399C66.9491 135.32 66.8703 135.242 66.7916 135.163C67.0279 135.32 67.3429 135.557 67.658 135.793C67.658 135.793 67.658 135.793 68.682 136.896C68.682 136.817 67.8155 136.108 67.0279 135.399ZM50.7228 127.286C50.4078 126.971 50.0927 126.656 50.0927 126.656C50.329 126.971 50.4865 127.128 50.7228 127.286ZM152.176 183.211C146.82 180.061 141.543 176.91 136.344 173.602C137.683 174.311 138.943 175.098 140.282 175.807C144.221 178.249 148.238 180.77 152.176 183.211ZM57.2606 127.916C58.5997 128.94 59.5449 129.807 60.4113 130.594C61.3566 131.146 62.3018 131.697 63.3258 132.248C65.9251 133.824 68.5245 135.399 70.9663 136.974C70.73 136.659 71.2813 137.053 71.5964 137.211C71.9115 137.368 72.2266 137.605 72.5416 137.762C69.8635 136.108 67.2642 134.375 64.5073 132.642C62.223 131.067 59.5449 129.413 57.2606 127.916ZM38.1987 117.125C38.1199 117.046 38.0412 117.046 37.9624 116.967C37.9624 116.967 37.9624 116.967 38.5925 117.125C38.5925 117.046 38.435 117.125 38.1987 117.125ZM37.2535 116.967C37.411 117.046 37.4898 117.125 37.6473 117.204C37.411 117.204 37.3323 117.046 37.2535 116.967ZM40.6405 119.252C40.483 119.094 40.3254 119.015 40.1679 118.858C40.6405 119.252 40.6405 119.252 40.6405 119.252ZM40.0891 125.868L41.9796 125.789L40.0104 125.711L40.0891 125.868Z" fill="#E41413"/>
<path d="M251.031 128.625C250.795 128.782 250.558 128.861 250.322 129.019C250.716 128.625 251.267 128.231 251.976 127.68C244.966 132.012 236.774 139.101 231.733 143.985C229.764 145.481 228.109 147.057 228.109 147.45C228.109 147.844 229.764 146.978 231.811 145.403C232.284 145.087 232.835 144.694 233.151 144.536C236.301 142.724 240.003 140.283 244.021 137.526C243.233 137.998 242.366 138.55 241.579 139.022C242.76 138.235 243.863 137.447 245.123 136.502C244.966 136.58 244.729 136.659 244.572 136.659C248.668 134.06 253.867 129.885 256.072 127.286C258.356 124.686 256.86 124.765 252.764 127.365L251.031 128.625Z" fill="#E41413"/>
<path d="M242.682 132.563C245.124 130.988 247.487 129.491 249.85 127.916L250.322 127.68L249.85 127.365V127.443C248.038 129.413 244.73 132.169 241.658 134.69L240.555 135.635C240.082 136.108 239.767 136.423 239.689 136.659C239.61 137.053 240.713 136.502 242.209 135.399L243.942 134.139C248.195 131.224 254.654 126.183 256.466 123.741C256.86 123.19 256.23 123.347 255.994 123.19C255.915 122.796 254.182 123.741 252.134 125.317C250.086 126.892 248.432 128.467 248.511 128.861C248.117 129.097 247.802 129.334 247.408 129.649C247.644 129.413 247.88 129.176 248.117 128.94C247.723 129.649 245.911 131.145 244.572 132.327L242.524 133.981L244.178 133.666L245.202 132.721C245.124 132.721 244.887 132.878 244.887 132.8C246.856 131.067 248.668 129.334 250.795 127.522L253.473 125.08C254.182 124.371 253.946 124.214 253 124.765L251.661 125.632C251.898 125.474 252.055 125.395 252.291 125.238C249.298 127.365 246.148 129.57 243.154 131.697C242.682 132.012 242.13 132.485 241.973 132.721C241.973 133.036 242.209 132.957 242.682 132.563Z" fill="#E41413"/>
<path d="M252.922 124.529C253.394 124.214 253.946 123.899 254.576 123.348C254.733 123.19 254.812 123.111 254.812 123.111C254.576 123.269 254.182 123.505 253.788 123.741C253.079 124.135 252.843 124.45 252.922 124.529Z" fill="#E41413"/>
<path d="M254.812 123.111C255.049 122.954 255.206 122.875 255.206 122.875C255.128 122.954 254.97 122.954 254.891 123.033C254.891 123.033 254.891 123.111 254.812 123.111C254.891 123.111 254.891 123.111 254.812 123.111Z" fill="#E41413"/>
<path d="M129.177 223.541C120.119 230.472 111.139 237.561 102.16 244.651C101.845 244.887 101.608 245.123 101.608 245.202C101.608 245.281 101.845 245.123 102.16 244.887C111.139 237.798 120.119 230.787 129.177 223.856C129.492 223.619 129.729 223.383 129.729 223.304C129.729 223.147 129.492 223.304 129.177 223.541Z" fill="#E41413"/>
<path d="M59.4673 273.007C59.6248 272.771 59.6248 272.771 59.3885 272.928C59.1522 273.086 58.8372 273.322 58.6796 273.558C58.5221 273.716 58.6008 273.795 58.7584 273.637C58.9947 273.48 59.3098 273.164 59.4673 273.007Z" fill="#E41413"/>
<path d="M58.9157 268.439C60.0972 267.415 61.2788 266.391 62.224 265.445C62.3815 265.288 62.6178 265.13 62.7754 264.973C62.6178 264.973 62.8541 264.736 63.248 264.343C71.6762 256.702 81.0496 248.825 90.1867 241.027C90.1867 240.948 90.2655 240.791 90.5018 240.555C91.0531 239.846 92.2347 238.743 93.6525 237.719L94.6765 236.931C98.8512 233.702 103.026 230.551 107.279 227.322C108.067 226.613 109.012 225.746 110.036 224.88C113.423 221.887 116.889 218.815 120.355 215.821C120.119 215.979 119.882 216.058 119.882 215.979C119.882 215.821 120.591 215.034 121.615 214.246L123.112 213.064C121.694 214.167 120.197 215.27 118.78 216.373C118.543 216.53 118.386 216.688 118.228 216.767C116.653 218.027 115.077 219.287 113.502 220.547C99.5601 231.811 86.7997 242.918 74.2755 253.945C74.0392 254.103 73.7241 254.418 73.4878 254.497C73.3303 254.575 73.3303 254.497 73.5666 254.26C81.2071 247.014 87.6661 240.397 96.6457 232.52C107.279 223.147 117.913 213.931 129.019 204.558C140.913 195.105 151.705 186.047 163.756 176.201C179.982 162.889 195.5 150.68 211.647 137.998C217.634 133.194 223.62 129.413 225.038 129.57C225.904 129.728 224.88 131.224 222.596 133.509C223.069 133.115 223.62 132.721 224.093 132.406L226.534 130.673C228.819 129.019 230.867 127.759 232.285 127.128L234.175 126.183C236.853 125.159 240.791 122.954 243.155 122.245L242.918 122.796L243.391 122.56C244.966 121.693 246.069 121.142 246.62 121.221L246.699 121.615C246.699 122.166 246.226 123.032 245.36 124.214C245.518 124.293 245.439 124.529 245.281 124.923C246.463 124.529 247.172 124.45 246.699 125.395C247.329 125.002 247.329 125.238 246.699 125.868C246.463 126.104 246.226 126.341 245.911 126.577C246.305 126.419 246.384 126.341 246.857 126.104C247.487 125.711 247.802 125.474 247.802 125.474C249.377 124.372 249.377 124.371 250.716 123.348C251.898 122.56 252.764 122.166 252.764 122.166C254.418 121.772 254.418 121.772 254.418 122.087C254.34 122.166 254.261 122.245 254.261 122.324C255.364 121.615 255.364 121.615 255.679 121.378C255.994 121.221 256.23 121.063 256.23 121.063C256.388 121.142 256.388 121.142 256.545 121.063C256.624 121.063 256.624 121.142 256.624 121.142C256.151 121.693 256.151 121.693 256.151 121.772C256.073 121.93 255.915 122.087 255.915 122.087C255.285 122.639 255.049 122.875 254.97 122.954C253.316 123.741 253.316 123.741 253.316 123.741C253.079 124.056 253.079 124.056 253.079 124.056C252.607 124.135 252.607 124.135 252.607 124.135C252.922 124.135 252.922 124.135 252.922 124.135C252.134 124.608 252.134 124.608 252.134 124.608C253.079 124.135 253.079 124.135 253.079 124.135C251.346 125.395 251.346 125.395 250.716 125.947C250.007 126.498 249.456 126.971 249.377 127.05C249.456 127.05 249.535 127.05 249.535 127.05C247.723 128.389 247.723 128.389 245.911 129.728C245.754 129.807 245.596 129.885 245.439 129.964C245.281 130.122 244.966 130.437 244.651 130.673C244.336 130.909 244.021 131.146 243.706 131.382C243.627 131.461 243.548 131.461 243.548 131.539C243.233 131.776 243.076 132.012 242.839 132.17C242.682 132.327 242.682 132.327 242.682 132.327C242.209 132.8 241.422 133.43 239.531 135.242C238.98 135.635 238.428 136.029 237.956 136.344C238.113 136.265 238.271 136.187 238.428 136.029C238.743 135.872 238.586 136.187 238.743 136.029C242.761 133.272 247.093 130.122 251.268 127.128C251.977 126.577 252.764 126.104 252.922 126.104C253.079 126.104 252.607 126.656 251.898 127.207C244.021 134.375 233.702 142.252 224.723 148.396C222.438 150.129 220.075 151.783 217.791 153.516L218.185 153.358L216.373 154.618L216.216 154.776C216.688 154.54 217.24 154.225 217.712 153.988C218.027 153.752 218.343 153.516 218.658 153.358C224.014 149.341 229.055 145.954 234.332 142.173C237.168 140.125 239.689 138.55 242.446 136.659C243.155 136.187 243.627 135.872 243.627 136.029C243.627 136.187 243.076 136.738 242.367 137.211C233.781 144.064 223.856 151.625 216.295 156.273C214.719 157.533 213.144 158.636 211.805 159.502L211.726 159.581C212.12 159.423 212.435 159.187 212.829 159.029C211.647 159.896 210.86 160.211 209.757 160.999C209.914 160.999 210.151 160.92 210.387 160.92C204.401 165.331 198.178 170.293 192.507 174.153C192.27 174.311 192.113 174.468 191.876 174.626C189.671 176.595 187.465 178.643 184.787 180.848C185.732 180.139 186.678 179.43 187.623 178.722C185.733 180.376 183.763 182.03 181.637 183.684C175.808 188.174 169.034 192.9 165.489 194.633C154.383 203.534 143.198 212.434 132.249 221.493C131.698 221.965 131.146 222.28 130.989 222.359C130.91 222.359 131.225 221.965 131.776 221.493C139.574 214.876 147.53 208.338 155.564 201.801C148.633 207.078 141.78 212.356 134.769 217.791C133.903 218.499 133.037 219.208 132.091 219.917C131.225 220.626 130.358 221.335 129.413 221.965C120.512 229.054 112.084 235.671 103.183 243.075C95.6217 249.377 89.0052 254.969 81.5222 261.349C71.046 270.329 61.4363 278.521 50.8814 287.185C49.4635 288.367 48.0457 289.233 47.7306 289.233C47.4156 289.155 48.282 288.209 49.6998 287.028C71.3611 268.517 92.6285 250.322 115.944 231.811C118.464 229.842 120.985 227.873 123.427 225.904C123.348 225.904 123.348 225.904 123.269 225.904C123.191 225.825 123.348 225.51 123.663 225.116C120.828 227.322 117.992 229.527 115.156 231.733C107.516 238.192 99.7964 244.729 91.3682 251.267C85.5394 255.757 80.1831 259.695 74.7481 263.791C68.1316 269.305 61.5151 274.819 54.8985 280.411C54.6622 280.648 54.3472 280.884 54.1896 280.884C54.0321 280.963 54.1896 280.805 54.4259 280.569C58.9157 276.552 63.563 272.534 68.2104 268.517C67.3439 268.99 66.7925 269.226 66.7138 268.99C66.635 268.754 67.1076 268.123 67.8953 267.336L64.587 269.935C63.8781 270.486 63.3267 270.802 63.248 270.723C63.1692 270.644 63.6418 270.093 64.3507 269.62C68.8405 266.075 73.2515 262.452 77.7413 258.908C83.0188 254.497 88.2963 250.164 93.5737 245.832C92.7073 246.305 92.0771 246.62 91.6833 246.698C90.8168 247.407 90.0292 248.038 89.2415 248.668C74.5118 261.271 59.2308 274.031 43.5559 286.555C43.2409 286.792 43.0045 286.949 42.9258 286.949C42.9258 286.949 43.0833 286.713 43.3984 286.476C48.1245 282.696 52.7718 278.915 57.4191 275.134C57.1828 275.291 57.1041 275.213 57.3404 275.055C57.4979 274.897 57.8917 274.582 58.0493 274.425C58.2856 274.267 58.2856 274.346 58.128 274.504C66.7925 267.415 75.2995 260.247 83.6489 253.157C75.6933 259.616 67.8165 265.997 59.7822 272.298C58.9945 273.007 58.128 273.795 57.2616 274.582C57.0253 274.819 56.7102 274.976 56.5527 275.055C56.4739 275.055 56.6314 274.897 56.8677 274.661C57.1041 274.425 57.3404 274.267 57.5767 274.031C56.0801 275.213 54.741 276 54.6622 275.764C54.5835 275.449 55.765 274.267 57.2616 273.007C61.4363 269.62 65.5323 266.233 69.707 262.846L71.046 261.743C71.4399 261.349 71.9125 260.956 72.3063 260.562C65.7686 265.682 59.2308 270.802 52.693 275.843C52.1417 276.315 51.5903 276.63 51.5903 276.552C51.5115 276.473 51.9053 276.079 52.4567 275.606C63.563 266.154 74.8269 256.781 86.2483 247.407C89.7929 244.099 93.3374 240.712 96.9608 237.325C96.4881 237.719 95.9368 238.113 95.4642 238.507C82.94 248.51 73.0152 257.962 61.0425 267.887C60.7274 268.123 60.4911 268.281 60.4123 268.281C60.3335 268.281 60.4911 268.045 60.8062 267.808C66.635 262.925 71.7549 258.277 77.4262 253.315C82.1523 249.219 86.6421 245.359 90.9744 241.5C81.7585 248.983 73.2515 256.466 64.272 264.027C63.8781 264.343 63.4843 264.658 63.1692 264.815C63.1692 264.815 63.0904 264.973 63.0117 265.051C61.9877 266.075 60.7274 267.178 59.5459 268.202C59.3096 268.439 58.9945 268.675 58.837 268.675C58.6006 268.832 58.6794 268.675 58.9157 268.439ZM224.014 144.772C224.093 144.694 224.171 144.694 224.25 144.615C224.014 144.772 223.699 145.009 223.384 145.166C223.384 145.166 223.384 145.166 222.045 145.718C222.045 145.796 222.99 145.245 224.014 144.772ZM237.483 132.563C237.956 132.406 238.271 132.248 238.271 132.248C237.956 132.327 237.719 132.406 237.483 132.563ZM148.318 206.605C153.201 202.746 158.085 198.965 163.047 195.342C161.866 196.287 160.684 197.232 159.581 198.177C155.879 201.013 152.098 203.77 148.318 206.605ZM234.49 138.471C233.072 139.337 231.891 139.889 230.788 140.44C230 141.149 229.055 141.858 228.189 142.567C225.747 144.457 223.384 146.19 221.021 148.002C221.414 147.844 220.863 148.317 220.548 148.553C220.233 148.79 219.997 149.026 219.682 149.262C222.202 147.451 224.802 145.56 227.322 143.67C229.764 141.858 232.285 139.968 234.49 138.471ZM251.504 124.608C251.583 124.529 251.661 124.529 251.74 124.45C251.74 124.45 251.74 124.45 251.425 125.002C251.425 125.002 251.425 124.844 251.504 124.608ZM252.055 123.741C251.898 123.82 251.819 123.899 251.661 123.978C251.74 123.899 251.898 123.82 252.055 123.741ZM248.59 126.104C248.826 126.026 248.983 125.947 249.141 125.868C248.59 126.104 248.59 126.104 248.59 126.104ZM242.682 123.19L242.052 125.002L242.839 123.19H242.682Z" fill="#E41413"/>
</svg>
