<svg width="113" height="401" viewBox="0 0 113 401" fill="none" xmlns="http://www.w3.org/2000/svg">
<g clip-path="url(#clip0_332_42)">
<g filter="url(#filter0_d_332_42)">
<path fill-rule="evenodd" clip-rule="evenodd" d="M84.7138 80.5259C84.0511 80.1799 81.4494 79.632 80.699 79.334C76.4601 77.5654 74.1019 73.7497 70.8667 70.9431C68.0895 68.8381 68.3526 62.3694 68.2064 58.7073C68.3623 57.3136 68.4695 56.3909 68.4695 56.3909C66.7057 55.5835 63.032 55.2279 58.3058 55.3336C58.1499 55.3336 58.0036 55.3432 57.8575 55.3432C57.7016 55.3432 57.5554 55.3336 57.3995 55.3336C57.3995 55.3336 57.3996 55.3336 57.3898 55.3336V55.324C57.3119 55.324 57.2338 55.324 57.1558 55.324C57.0779 55.324 57 55.324 56.9221 55.324V55.3336C56.9221 55.3336 56.922 55.3336 56.9122 55.3336C56.7563 55.3336 56.6102 55.3432 56.4542 55.3432C56.2983 55.3432 56.1523 55.3336 56.0061 55.3336C51.2702 55.2375 47.6062 55.5835 45.8424 56.3909C45.8424 56.3909 45.9496 57.3136 46.1055 58.7073C46.1932 62.7346 46.2614 68.9246 43.4939 71.0199C40.2587 73.8266 40.1028 77.5655 35.8639 79.3245C35.1233 79.6224 32.2972 79.6705 31.6346 80.0069C26.3627 82.7462 21.1592 82.9481 21.1592 86.8408C21.1592 95.4818 36.6336 100.816 55.967 100.816C56.3665 100.816 56.7661 100.806 57.1558 100.806C57.5554 100.816 57.9452 100.816 58.3447 100.816C77.6781 100.816 92.451 95.4818 92.451 86.8408C92.4608 82.9481 89.9856 83.2557 84.7138 80.5259Z" fill="#924520"/>
<path d="M11.7583 128.891C11.7682 121.474 12.0763 110.252 13.9249 103.169L34.4777 110.321C33.7422 113.234 34.4777 110.321 34.4777 110.321C33.8218 115.049 33.1062 115.137 31.8042 119.699C31.3471 121.308 20.6135 120.121 20.1464 121.729C19.719 123.24 27.6996 128.273 27.5108 129.842" fill="#994E2E"/>
<path d="M29.0829 136.663C29.1595 136.183 28.8342 134.752 30.2882 130.854C32.6031 124.653 33.6648 114.269 33.6935 111.526C33.7414 106.177 30.1447 112.574 26.902 114.778L21.5071 115.14C19.9479 118.559 18.8287 115.963 17.193 118.981C14.352 124.212 19.5366 113.534 17.193 118.981C16.3704 120.901 15.4903 115.787 14.6677 117.707C13.8929 119.51 12.6016 119.108 12.152 123.242C12.152 123.242 12.1233 133.479 12.1807 136.555C12.2189 138.818 11.5207 142.511 11.6833 144.088C11.9224 146.4 10.9754 153.453 10.9754 153.453C10.9754 153.453 10.9276 155.883 11.5685 160.085C13.2137 170.891 13.5198 184.566 12.9459 189.131L22.6645 190.248C22.6645 190.248 30.4317 152.092 29.0351 143.657C29.0447 143.657 28.7195 139.17 29.0829 136.663Z" fill="#994E2E"/>
<path d="M19.2687 212.214C19.2687 212.214 19.2886 212.861 19.3086 213.795C19.7476 218.842 18.9993 220.956 21.9425 224.765C18.1912 222.908 16.8343 218.909 19.1988 213.204C19.2288 212.604 19.2687 212.214 19.2687 212.214Z" fill="#854324"/>
<path d="M23.0456 187.698C22.641 190.419 22.6602 193.578 23.8645 196.562C26.2731 202.578 23.1805 208.964 23.1805 212.619C23.1805 213.824 24.5389 216.448 24.5871 217.692C24.4426 219.053 23.6622 219.51 23.6622 219.51C23.7007 220.278 23.5466 219.15 23.6622 219.51C24.0861 220.832 24.0283 222.299 24.2595 223.106C24.4908 223.903 26.0708 227.198 24.0958 227.694C24.0958 227.694 22.9107 228.413 22.2941 227.188C22.2941 227.188 21.0321 225.769 20.9453 225.273C20.8586 224.778 20.1842 222.163 19.9145 221.629C19.6447 221.094 18.8162 219.393 18.8451 217.964C18.8451 217.702 18.7873 217.167 18.7873 217.167C18.4693 216.808 18.4597 216.798 18.5271 217.012C18.7295 217.624 18.5849 219.646 19.0185 220.365C19.6062 221.347 20.7045 222.231 21.2922 224.097C21.7161 225.458 22.4194 226.08 22.4868 226.518C22.6024 227.305 21.6197 227.363 21.6197 227.363C21.6197 227.363 21.2729 227.421 20.3384 226.906C19.1148 226.226 19.664 226.459 18.4886 225.38C18.4886 225.38 16.7544 222.834 16.1667 222.085C15.579 221.327 15.107 220.316 14.9046 219.072C14.7023 217.828 14.0472 215.126 14.9143 216.769C15.3478 217.605 14.5289 219.043 15.5694 219.733C16.0222 220.035 17.9972 224.564 17.9972 224.564C16.8219 223.942 17.8431 224.379 16.8508 224.068C16.8508 224.068 15.1455 223.738 13.9123 222.416C13.9123 222.416 11.7831 220.443 11.9469 219.111C11.9469 219.111 11.2629 217.002 11.0991 215.107C11.0124 214.125 12.13 217.906 11.9469 219.111C11.9469 219.111 10.1645 217.303 9.96222 216.331C9.53831 214.203 9.04695 211.569 8.92171 211.112C8.79646 210.645 8.13169 208.332 9.32635 205.29C10.521 202.238 12.7273 197.631 12.2263 195.201C11.7253 192.771 13.1416 186.852 13.4306 177.696L24.6642 178.892C24.6449 178.882 23.6526 183.586 23.0456 187.698Z" fill="#994E2E"/>
<path d="M14.1913 210.645C14.1913 210.645 14.4997 216.387 14.5511 217.785C14.6025 219.173 15.0136 220.312 15.5996 221.17C16.1855 222.029 18.0255 224.766 18.0255 224.766C18.0255 224.766 16.0005 221.81 15.5173 221.46C14.3969 220.651 14.3146 217.525 14.2221 216.497C13.9857 214.12 14.1913 210.645 14.1913 210.645Z" fill="#854324"/>
<path d="M10.9748 216.921C10.9748 216.921 10.6092 215.121 10.6963 213.023C10.792 210.925 11.088 210.12 10.1914 209.076C10.1914 209.076 10.7485 210.955 10.5831 212.068C10.4177 213.172 10.705 216.364 10.9748 216.921Z" fill="#854324"/>
<path d="M27.6097 191.032L10.8159 189.007L8.62451 176.305L9.2043 132.324L15.4639 84.3416L25.2415 85.5182L31.3439 105.357L27.6097 191.032Z" fill="#7E1620"/>
<path d="M18.0147 103.169C20.2576 108.383 22.7365 112.279 25.4811 114.749C27.4386 115.598 29.3962 116.448 31.344 117.297L30.8324 194.955H11.7583L13.9028 105.337C15.2997 105.015 16.6769 104.282 18.0147 103.169Z" fill="url(#paint0_linear_332_42)"/>
<path d="M24.7132 198.877L10.1914 198.339L10.8834 186.325L25.8599 188.403L24.7132 198.877Z" fill="#7E1620"/>
<path d="M24.7132 198.877L10.1914 198.339L10.8834 186.325L25.8599 188.403L24.7132 198.877Z" fill="url(#paint1_linear_332_42)"/>
<path d="M81.7221 27.6265C81.7318 27.1481 81.7611 26.7283 81.81 26.2987C81.8588 25.8594 81.937 25.4298 82.0738 24.9319C82.3376 23.9849 82.1422 22.9402 82.2594 21.9639C82.3083 21.5832 82.1031 19.9137 81.7123 19.367C81.7416 18.586 81.5462 16.1355 80.9795 15.6669C80.6571 15.4033 80.3737 14.9346 80.2467 14.5441C80.1588 14.2415 78.5661 11.3418 77.6868 10.5413C76.827 9.73096 75.4493 8.92063 75.205 8.70585C74.9412 8.4813 73.7297 7.32926 73.4756 7.08519C72.9285 6.53847 70.691 5.6403 68.5806 5.05452C68.4145 5.0057 68.2386 4.95687 68.1018 4.85924C67.9748 4.77137 67.8868 4.66399 67.7794 4.5566C67.1931 3.90248 63.1676 3.74627 62.7475 3.80484C62.4348 3.82437 61.3014 3.59983 60.9888 3.5803C60.2364 3.52172 58.6829 3.51197 57.5886 3.70723C56.5041 3.51197 54.9408 3.51196 54.1884 3.5803C53.866 3.60959 52.7424 3.83413 52.4297 3.80484C52.0096 3.75603 47.9841 3.90248 47.3978 4.5566C47.2904 4.66399 47.2024 4.78114 47.0754 4.85924C46.9386 4.95687 46.7725 5.0057 46.5966 5.05452C44.4764 5.6403 42.2487 6.53847 41.7015 7.08519C41.4573 7.32926 40.236 8.47154 39.9721 8.70585C39.7181 8.91087 38.3502 9.73096 37.4904 10.5413C36.611 11.3418 35.0184 14.2415 34.9305 14.5441C34.8035 14.9249 34.5201 15.3935 34.1977 15.6669C33.6408 16.1257 33.4356 18.5762 33.4649 19.367C33.0741 19.9137 32.8689 21.593 32.9178 21.9639C32.9764 22.4521 32.9568 22.9598 32.9568 23.4577C32.9568 23.9556 32.9764 24.4535 33.1034 24.9319C34.7058 29.4716 36.6599 34.3531 37.1191 39.1467C37.1777 39.4982 37.8031 40.2206 37.764 40.5721C37.7444 40.8259 38.0669 41.2458 38.5652 41.7534C39.0635 42.2611 39.7181 42.8566 40.3727 43.4522C40.9492 43.7841 41.5354 44.1453 42.024 44.653C43.0108 45.6 43.8999 46.5666 44.7988 47.3964C44.9747 47.5624 45.1604 47.7283 45.3362 47.8748C47.8961 50.4132 52.117 50.0812 55.527 50.6084C55.8201 50.501 56.1132 50.3741 56.4063 50.2472C57.8719 49.5931 59.3864 48.8023 60.9399 48.7535C61.2819 48.7925 61.6141 48.8511 61.9365 48.9292C62.2687 49.0073 62.5912 49.1147 62.9136 49.2514C67.5156 49.349 68.9225 44.0965 72.694 43.7548C72.9871 43.6377 73.2998 43.5596 73.6124 43.501C73.9153 43.2472 74.2182 42.9933 74.5113 42.7297C74.8142 42.4661 75.1073 42.1928 75.4102 41.8999C79.6507 39.2248 77.6966 33.3671 80.6473 29.5595C80.872 29.1299 81.1456 28.7101 81.4973 28.3294C81.6341 28.0365 81.7123 27.7729 81.7221 27.6265Z" fill="#502313"/>
<path fill-rule="evenodd" clip-rule="evenodd" d="M74.2253 40.9062C74.1471 40.4667 74.0591 40.0272 73.9808 39.5877C73.7657 39.2654 73.5701 38.943 73.3746 38.6012C71.8589 36.6088 72.0057 34.4405 72.2012 32.2918C72.211 32.2136 72.2109 32.1355 72.2207 32.0574C72.1327 31.5299 72.1327 31.53 72.338 30.4556C72.338 30.3775 72.3478 30.2993 72.3478 30.2309C72.3478 30.1528 72.3478 30.0844 72.3478 30.0063C72.3478 29.9282 72.3478 29.85 72.338 29.7817C72.1327 29.5961 72.1327 28.6194 72.2207 28.3948C72.2109 28.3166 72.1915 28.2483 72.1719 28.1701C72.123 27.9455 72.0643 27.7208 71.9861 27.4962C71.9568 27.4181 71.9371 27.3497 71.9078 27.2716C73.1203 26.666 70.1868 26.666 71.1354 25.953C71.106 25.8847 71.0766 25.8261 71.0179 25.7577C70.9006 25.621 70.7833 25.4745 70.6464 25.3377C70.314 25.0154 66.5589 24.3903 66.1873 24.1462C64.2316 23.1695 63.2929 24.5954 60.5549 24.3122C59.9682 24.2438 59.3912 24.195 58.8044 24.1559C58.3644 24.1266 57.9341 24.1169 57.4941 24.1071C57.0639 24.1071 56.6238 24.1071 56.1936 24.1266C55.5579 23.9996 54.9419 23.9215 54.3356 23.8824C53.7293 23.8434 53.1426 23.8531 52.5657 23.8922C50.6002 23.7945 50.522 22.5639 48.8694 23.5015C48.4587 23.7359 46.0238 25.0349 45.6522 25.328C45.2611 25.5233 44.9286 25.7479 44.645 25.9921C44.5961 26.0409 44.5668 26.08 44.5374 26.1288C45.7109 26.666 42.7774 26.666 43.7553 27.1837C43.7259 27.2227 43.6965 27.252 43.6671 27.3106C43.5302 27.6134 43.4422 27.9357 43.3738 28.2678C43.364 28.3362 43.3738 28.385 43.3738 28.4534C43.7454 29.5863 43.7454 29.5863 43.2467 29.8305C43.2467 29.9086 43.2467 29.9868 43.2467 30.0649C43.2565 30.4458 43.2858 30.8365 43.3151 31.2272C43.3249 31.3053 43.3249 31.3834 43.3347 31.4616C43.7356 31.53 43.7356 32.5066 43.4618 32.6727C43.452 32.7508 43.4422 32.8192 43.452 32.8973C43.5694 34.8214 43.4911 36.7357 42.1124 38.2594C41.8581 38.7184 41.5648 39.1579 41.2128 39.5877C41.115 40.0272 41.0367 40.4667 40.9487 40.9062C40.274 44.4516 41.4083 47.6161 42.4253 50.3899C43.4129 53.1539 43.6476 54.2771 45.085 57.6565C46.5029 61.0261 48.5662 62.3446 51.2749 63.5752C53.1817 64.4543 55.2841 64.8254 57.5723 64.7082C59.8605 64.8254 61.9629 64.4543 63.8698 63.5752C66.5882 62.3446 68.6516 61.0261 70.0597 57.6565C71.4972 54.2674 71.7221 53.1539 72.7195 50.3899C73.7658 47.6161 74.9098 44.4516 74.2253 40.9062Z" fill="#924520"/>
<path fill-rule="evenodd" clip-rule="evenodd" d="M40.848 40.165C40.4752 39.7385 40.1231 39.5623 39.771 39.6458C39.16 39.7941 38.7251 40.3133 38.4558 41.1848C38.1452 42.1397 39.1082 43.3357 39.2739 44.7913C39.5017 46.7475 39.0254 48.2588 39.9263 49.3435C40.7548 50.3726 41.6971 50.7713 42.7534 50.5488L43.0951 50.4653L42.7016 48.129C41.9456 43.8364 41.3864 41.2682 40.9929 40.4246L40.848 40.165Z" fill="#924520"/>
<path fill-rule="evenodd" clip-rule="evenodd" d="M66.5981 40.0179C66.5981 40.5658 66.4493 41.026 66.1429 41.4094C65.8365 41.7929 65.469 41.9791 65.0313 41.9791C64.5936 41.9791 64.2259 41.7929 63.9195 41.4094C63.6132 41.026 63.4644 40.5658 63.4644 40.0179C63.4644 39.4701 63.6132 39.0099 63.9195 38.6264C64.2259 38.2429 64.5936 38.0566 65.0313 38.0566C65.469 38.0566 65.8365 38.2429 66.1429 38.6264C66.4405 39.0099 66.5981 39.481 66.5981 40.0179Z" fill="#502313"/>
<path fill-rule="evenodd" clip-rule="evenodd" d="M67.881 36.4986L68.948 39.2803C65.9393 38.2155 63.3247 38.3306 61.1138 39.6256L62.3826 36.3163C64.1802 35.4434 66.0162 35.501 67.881 36.4986Z" fill="#924520"/>
<path fill-rule="evenodd" clip-rule="evenodd" d="M61.2469 39.5427C61.1994 39.5653 61.1518 39.5955 61.1138 39.6256C62.0164 38.6529 63.2612 38.1326 64.8479 38.0647C66.5201 37.9893 68.1543 38.4418 69.7315 39.4145C68.6483 39.0375 67.3561 38.8112 65.8644 38.7434C64.0022 38.6453 62.52 38.8791 61.4178 39.4597C61.3513 39.4824 61.2944 39.5125 61.2469 39.5427Z" fill="#502313"/>
<path d="M61.1187 35.7085C61.0462 34.6288 61.7819 34.6828 62.414 34.5425C62.5694 34.5101 62.7352 34.4777 62.901 34.4453C63.0668 34.4129 63.2326 34.3913 63.4087 34.3589C65.6987 34.0134 67.4293 33.8946 69.2322 35.2982C69.3773 35.4602 69.512 35.6329 69.6467 35.8381C69.7089 35.9676 69.7399 36.0648 69.7295 36.108C69.6673 36.2807 69.4706 36.3455 69.2944 36.3887C69.1079 36.4319 69.0663 36.4211 68.7348 36.2376C68.6208 36.1728 68.4653 36.0972 68.2996 36.0216C66.6831 35.7733 65.8232 35.8273 64.2378 35.8057C64.0927 35.8489 63.9475 35.8921 63.8025 35.9352C63.3776 36.0648 62.9425 36.1944 62.4659 36.2915C62.2379 36.3347 61.7923 36.5399 61.5747 36.4751C61.3467 36.4211 61.1395 35.946 61.1187 35.7085Z" fill="#502110"/>
<path fill-rule="evenodd" clip-rule="evenodd" d="M47.7959 40.0179C47.7959 40.5657 47.9819 41.0259 48.3649 41.4093C48.7478 41.7928 49.2074 41.9791 49.7545 41.9791C50.3016 41.9791 50.7611 41.7928 51.1441 41.4093C51.527 41.0259 51.713 40.5657 51.713 40.0179C51.713 39.47 51.527 39.0099 51.1441 38.6264C50.7611 38.2429 50.3016 38.0566 49.7545 38.0566C49.2074 38.0566 48.7478 38.2429 48.3649 38.6264C47.9928 38.9989 47.7959 39.47 47.7959 40.0179Z" fill="#502313"/>
<path fill-rule="evenodd" clip-rule="evenodd" d="M46.5123 35.8731L45.4453 39.2111C48.4541 37.9335 51.0687 38.0716 53.2796 39.6255L52.0107 35.6544C50.2132 34.6069 48.3772 34.676 46.5123 35.8731Z" fill="#924520"/>
<path fill-rule="evenodd" clip-rule="evenodd" d="M53.9181 39.5427C53.97 39.5653 54.0218 39.5955 54.0632 39.6256C53.0786 38.6529 51.7208 38.1326 49.9899 38.0647C48.1656 37.9893 46.3827 38.4417 44.6621 39.4145C45.8437 39.0375 47.2534 38.8112 48.8807 38.7434C50.9123 38.6453 52.5292 38.8791 53.7316 39.4597C53.7937 39.4824 53.8559 39.5125 53.9181 39.5427Z" fill="#502313"/>
<path d="M53.2751 35.7085C53.341 34.6288 52.6722 34.6828 52.0976 34.5425C51.9563 34.5101 51.8056 34.4777 51.6548 34.4453C51.5041 34.4129 51.3534 34.3913 51.1933 34.3589C49.1115 34.0134 47.5383 33.8946 45.8993 35.2982C45.7674 35.4602 45.6449 35.6329 45.5225 35.8381C45.4659 35.9676 45.4377 36.0648 45.4471 36.108C45.5036 36.2807 45.6826 36.3455 45.8427 36.3887C46.0123 36.4319 46.05 36.4211 46.3608 36.2376C46.4645 36.1728 46.6058 36.0972 46.7565 36.0216C48.226 35.7733 49.0078 35.8273 50.4491 35.8057C50.581 35.8489 50.7128 35.8921 50.8353 35.9352C51.2215 36.0648 51.6172 36.1944 52.0505 36.2915C52.2577 36.3347 52.6628 36.5399 52.8606 36.4751C53.0678 36.4211 53.2656 35.9568 53.2751 35.7085Z" fill="#502110"/>
<path d="M60.3306 49.6487C60.3306 49.6487 61.2115 50.1538 61.632 49.449C62.2627 48.38 61.632 46.4066 61.1615 45.9015C62.6932 50.0598 60.3306 49.6487 60.3306 49.6487Z" fill="#502110" stroke="#502110" stroke-width="0.1417" stroke-miterlimit="10" stroke-linejoin="bevel"/>
<path d="M58.9494 48.3862C58.8087 48.3046 58.6416 48.2696 58.5624 48.2579C58.4305 48.2463 58.2898 48.2696 58.1667 48.3279C58.114 48.3512 58.0524 48.3862 58.0172 48.4562C57.9821 48.5262 57.9645 48.6312 57.9996 48.7012C58.0172 48.7479 58.0524 48.7712 58.0788 48.7829C58.2283 48.8529 58.3866 48.6895 58.5448 48.6662C58.9142 48.6079 59.5473 49.0395 59.5473 49.0395C59.5473 49.0395 59.3451 48.6312 58.9494 48.3862Z" fill="#502110" stroke="#502110" stroke-width="0.1417" stroke-miterlimit="10" stroke-linejoin="bevel"/>
<path d="M54.0632 49.6487C54.0632 49.6487 53.6227 50.1538 53.4125 49.449C53.0972 48.38 53.4125 46.4066 53.6478 45.9015C52.8819 50.0598 54.0632 49.6487 54.0632 49.6487Z" fill="#502110" stroke="#502110" stroke-width="0.1417" stroke-miterlimit="10" stroke-linejoin="bevel"/>
<path d="M55.4446 48.3862C55.5853 48.3046 55.7524 48.2696 55.8315 48.2579C55.9635 48.2463 56.1042 48.2696 56.2274 48.3279C56.2801 48.3512 56.3416 48.3862 56.3768 48.4562C56.412 48.5262 56.4295 48.6312 56.3944 48.7012C56.3768 48.7479 56.3416 48.7712 56.3152 48.7829C56.1657 48.8529 56.0074 48.6895 55.8491 48.6662C55.4798 48.6079 54.8467 49.0395 54.8467 49.0395C54.8467 49.0395 55.0577 48.6312 55.4446 48.3862Z" fill="#502110" stroke="#502110" stroke-width="0.1417" stroke-miterlimit="10" stroke-linejoin="bevel"/>
<path d="M62.9196 53.5666C62.4908 53.674 60.3369 53.5236 59.9666 53.3088C59.4501 53.0187 59.0602 51.3002 58.3195 51.3969C58.2221 51.4076 57.9394 51.4185 57.5886 51.4185C57.2377 51.4185 56.9551 51.4076 56.8576 51.3969C56.1072 51.3109 55.7174 53.0187 55.2106 53.3088C54.8402 53.5236 52.6864 53.674 52.2576 53.5666C51.1563 53.2874 52.0334 53.9425 52.2283 54.0391C52.2283 54.0391 52.2283 54.0391 52.2381 54.0391C52.2478 54.0499 52.2576 54.05 52.2673 54.0607C52.8716 54.4904 54.4114 55.7793 54.8597 56.08C55.3178 56.3915 55.7369 56.6493 56.4678 56.8748C56.536 56.8963 56.653 56.8748 56.7992 56.8748C57.1305 56.7889 57.3839 56.6171 57.5886 56.4022C57.803 56.6171 58.0564 56.7889 58.378 56.8748C58.5242 56.8748 58.6412 56.8963 58.7094 56.8748C59.4403 56.6493 59.8594 56.3915 60.3175 56.08C60.756 55.7685 62.3056 54.4904 62.9099 54.0607C62.9196 54.05 62.9294 54.0499 62.9391 54.0391C62.9391 54.0391 62.9391 54.0391 62.9489 54.0391C63.1438 53.9425 64.0209 53.2766 62.9196 53.5666Z" fill="#773017"/>
<path fill-rule="evenodd" clip-rule="evenodd" d="M74.3399 40.165C74.7111 39.7385 75.0616 39.5623 75.4122 39.6458C76.0205 39.7941 76.4535 40.3133 76.7216 41.1848C77.0309 42.1397 76.072 43.3357 75.9071 44.7913C75.6803 46.7475 76.1442 48.2588 75.2472 49.3435C74.4224 50.3726 73.4842 50.7713 72.4223 50.5488L72.082 50.4653L72.4738 48.129C73.2264 43.8364 73.7935 41.2682 74.175 40.4246L74.3399 40.165Z" fill="#924520"/>
<path d="M61.8175 53.0245C61.2524 52.8647 59.0697 51.3068 58.3194 51.3967C58.222 51.4067 57.9394 51.4167 57.5886 51.4167C57.2378 51.4167 56.9552 51.4067 56.8578 51.3967C56.1075 51.3168 53.9248 52.8647 53.3596 53.0245C52.5801 53.2442 51.7129 53.5437 51.7129 53.5437C52.8042 53.8533 54.2756 53.5038 55.0064 53.7035C55.0746 53.7235 56.965 53.8533 57.5886 53.5338C58.2122 53.8533 60.1027 53.7235 60.1709 53.7035C60.9017 53.4938 62.3827 53.8533 63.4643 53.5437C63.4643 53.5437 62.5873 53.2541 61.8175 53.0245Z" fill="#6A2910"/>
<path d="M65.8145 52.1774C65.8145 52.1774 66.4255 53.9465 66.1963 54.5308C66.2154 54.5308 67.3039 53.0339 65.8145 52.1774Z" fill="#6E3423"/>
<path d="M69.9825 18.5286C69.5936 18.3167 69.1171 18.1337 68.5726 17.97C61.8732 16.4096 49.0479 16.4096 44.4876 18.6731C44.157 18.8754 43.8848 19.0873 43.6708 19.3088C42.8055 20.1949 42.893 21.4182 44.0889 22.4103C44.1765 22.6511 44.3515 22.8823 44.5848 23.1038C45.3238 23.807 46.7143 24.4041 48.3089 24.7991C48.4256 24.828 48.5423 24.8568 48.659 24.8761C50.2633 24.6353 51.2357 24.6353 52.1886 25.194C52.3247 25.2036 52.4511 25.2036 52.5873 25.2036C52.7234 25.2036 52.8595 25.2132 52.9956 25.2132C54.1527 25.6081 56.0974 25.6081 56.9239 25.1747C57.0892 25.1843 57.2545 25.194 57.4198 25.2036C57.7699 25.2229 58.1102 25.2325 58.4408 25.2421C58.6061 25.2421 58.7714 25.2518 58.9367 25.2518C59.9771 25.5985 60.9494 25.5985 62.2329 25.1458C62.3885 25.1362 62.5344 25.1265 62.6899 25.1169C62.8261 25.1073 62.9622 25.0976 63.0983 25.088C63.8665 24.6546 65.8112 24.6546 66.8807 24.7413C66.9877 24.7124 67.0849 24.6835 67.1822 24.6449C67.4836 24.5486 67.7656 24.4427 68.0378 24.3367C69.1171 23.884 69.9728 23.2965 70.5076 22.6319C70.7118 22.3814 70.8674 22.1214 70.9743 21.8517C71.0521 21.3508 71.266 20.8499 71.2952 20.3587C71.3049 20.1949 71.2952 20.0312 71.2466 19.8771C71.1299 19.6459 71.1299 19.251 70.5173 18.9524C70.3812 18.7887 70.2062 18.6635 69.9825 18.5286Z" fill="#502110"/>
<path d="M43.0951 41.8005C42.471 40.236 42.3348 37.9094 41.7221 36.8833C41.0298 35.715 41.1887 37.5945 40.5873 36.7005C39.9972 38.0009 39.3731 39.5959 41.0072 40.7135C41.7221 42.0342 41.8015 43.548 42.3235 43.548C42.3235 43.4972 43.0951 43.0502 43.0951 41.8005Z" fill="#502110"/>
<path d="M72.082 41.8005C72.5686 40.236 72.6749 37.9094 73.1527 36.8833C73.6924 35.715 73.5685 37.5945 74.0374 36.7005C74.2232 37.6859 74.984 39.5959 73.71 40.7135C73.1526 42.0342 73.0907 43.548 72.6838 43.548C72.6926 43.4972 72.082 43.0502 72.082 41.8005Z" fill="#502110"/>
<path d="M51.7129 16.0908C51.9379 15.6646 52.1066 15.5415 52.436 15.3995C52.7655 15.2574 52.8298 15.2764 53.2797 15.4658C53.2797 15.4658 52.8217 15.4089 52.3637 15.6552C52.0423 15.8256 51.7129 16.0908 51.7129 16.0908Z" fill="#803D1B"/>
<path d="M51.77 16.0692C51.8554 15.9151 51.9485 15.7609 52.0727 15.6521C52.1814 15.5523 52.3056 15.4888 52.4298 15.4344C52.5462 15.38 52.6704 15.3346 52.7946 15.3437C52.9498 15.3618 53.0973 15.4344 53.237 15.4979C53.2448 15.4888 53.2525 15.4707 53.2603 15.4616C52.7014 15.3891 52.1658 15.7065 51.7234 16.0602C51.6924 16.0874 51.7389 16.0964 51.7545 16.0874C52.1891 15.7427 52.7014 15.4344 53.2448 15.4979C53.2603 15.4979 53.2991 15.4707 53.268 15.4616C53.1206 15.3981 52.9576 15.3165 52.7946 15.3074C52.6626 15.2984 52.5384 15.3437 52.422 15.3981C52.2823 15.4616 52.1426 15.5251 52.0261 15.6339C51.9019 15.7518 51.801 15.906 51.7157 16.0692C51.7001 16.0874 51.7545 16.0874 51.77 16.0692Z" fill="#914620"/>
<path d="M64.248 17.8253C64.6298 17.6155 64.8287 17.626 65.1627 17.7414C65.4968 17.8568 65.5445 17.9302 65.8149 18.4443C65.8149 18.4443 65.4729 18.0456 64.9798 17.9197C64.6378 17.8253 64.248 17.8253 64.248 17.8253Z" fill="#803D1B"/>
<path d="M64.2881 17.8334C64.4569 17.7422 64.6411 17.6611 64.8253 17.6814C64.971 17.6915 65.1168 17.7422 65.2549 17.803C65.4927 17.9043 65.6154 18.1679 65.7535 18.4314C65.7689 18.4212 65.7843 18.4212 65.8073 18.4111C65.393 17.9246 64.8175 17.8233 64.2881 17.8131C64.2805 17.8131 64.2267 17.8435 64.2574 17.8435C64.7868 17.8537 65.3546 17.955 65.7613 18.4415C65.7689 18.4517 65.8149 18.4314 65.8149 18.4212C65.7305 18.2591 65.6462 18.0868 65.5388 17.955C65.4544 17.8537 65.3469 17.803 65.2395 17.7624C65.086 17.7016 64.9327 17.651 64.7715 17.6611C64.5951 17.6712 64.4262 17.7422 64.2651 17.8334C64.2267 17.8435 64.2728 17.8435 64.2881 17.8334Z" fill="#914620"/>
<path d="M54.8467 17.6599C55.1915 17.2394 55.8902 16.9357 56.2895 16.889C56.6888 16.8423 56.7523 16.9007 57.197 17.2978C57.197 17.2978 56.7161 17.0525 56.1444 17.1693C55.7451 17.2511 54.8467 17.6599 54.8467 17.6599Z" fill="#803D1B"/>
<path d="M54.8976 17.6459C55.2162 17.2821 55.6675 17.0726 56.0835 16.9734C56.2516 16.9293 56.4462 16.8962 56.6232 16.9403C56.8179 16.9954 56.986 17.1718 57.1453 17.3151C57.163 17.3041 57.1808 17.2931 57.1897 17.2821C56.4197 16.9072 55.5966 17.3041 54.8621 17.6238C54.8267 17.6459 54.8621 17.6679 54.8886 17.6569C55.5966 17.3482 56.402 16.9513 57.1453 17.3151C57.163 17.3262 57.2162 17.3041 57.1897 17.2821C57.0215 17.1387 56.8444 16.9513 56.6321 16.8962C56.4639 16.8521 56.2692 16.8852 56.1011 16.9293C55.6586 17.0395 55.1895 17.26 54.8532 17.6349C54.8267 17.6569 54.8887 17.6569 54.8976 17.6459Z" fill="#914620"/>
<path d="M38.3945 17.6598C38.5139 17.1642 38.9094 16.5596 39.1854 16.3118C39.454 16.064 39.5212 16.064 39.9614 16.1235C39.9614 16.1235 39.5361 16.2028 39.1705 16.5993C38.9094 16.8669 38.3945 17.6598 38.3945 17.6598Z" fill="#803D1B"/>
<path d="M38.4461 17.6367C38.5622 17.1742 38.8236 16.7501 39.0995 16.4417C39.2011 16.3261 39.3246 16.2008 39.4553 16.1526C39.6077 16.0948 39.7747 16.143 39.9272 16.1623C39.9344 16.1526 39.9344 16.1334 39.9417 16.1237C39.6803 16.1719 39.419 16.3357 39.2084 16.5381C38.9688 16.7694 38.7728 17.0778 38.5767 17.3669C38.5187 17.4536 38.4606 17.5404 38.4025 17.6367C38.3807 17.6656 38.4315 17.6656 38.4388 17.6464C38.8454 17.0296 39.2883 16.2876 39.9344 16.1623C39.949 16.1623 39.978 16.1237 39.949 16.1237C39.7892 16.1045 39.6222 16.0659 39.4625 16.1141C39.3318 16.1526 39.2084 16.2683 39.0995 16.3839C38.947 16.5478 38.8091 16.7405 38.6929 16.9429C38.5695 17.1549 38.4533 17.3862 38.3952 17.6464C38.388 17.6656 38.4388 17.656 38.4461 17.6367Z" fill="#914620"/>
<path d="M71.2988 12.176C71.8444 12.1168 72.6523 12.4125 73.0406 12.6964C73.4288 12.9685 73.4603 13.0631 73.6491 13.7373C73.6491 13.7373 73.3343 13.1577 72.7573 12.8029C72.3586 12.5545 71.2988 12.176 71.2988 12.176Z" fill="#803D1B"/>
<path d="M71.3327 12.2321C71.8587 12.175 72.4454 12.3805 72.9006 12.6774C73.0523 12.7802 73.2243 12.8943 73.3254 13.0542C73.4468 13.2483 73.5075 13.4995 73.5682 13.7279C73.5884 13.7165 73.6087 13.7049 73.639 13.7049C73.1535 12.803 72.1925 12.4947 71.3529 12.1864C71.3327 12.175 71.272 12.2207 71.3124 12.2321C72.1419 12.529 73.0928 12.8372 73.5783 13.7279C73.5884 13.7507 73.6491 13.7278 73.6491 13.7049C73.5783 13.4652 73.5277 13.2026 73.3962 12.9971C73.285 12.8258 73.1029 12.7116 72.941 12.6089C72.4757 12.3234 71.8789 12.1293 71.3428 12.175C71.3023 12.1864 71.2821 12.2321 71.3327 12.2321Z" fill="#914620"/>
<path d="M55.6304 6.67695C55.9462 6.32156 56.6244 6.01058 57.0238 5.93061C57.4233 5.85065 57.4976 5.8862 57.9807 6.13497C57.9807 6.13497 57.4697 6.00169 56.9031 6.15273C56.5129 6.26824 55.6304 6.67695 55.6304 6.67695Z" fill="#803D1B"/>
<path d="M55.6816 6.66288C55.9703 6.34893 56.4124 6.1368 56.8274 6.00953C56.9898 5.95862 57.1793 5.9162 57.3507 5.93317C57.5492 5.95014 57.7477 6.06893 57.9191 6.16227C57.9371 6.15378 57.9461 6.14529 57.9642 6.12832C57.1522 5.92468 56.3583 6.32347 55.6456 6.6459C55.6095 6.66287 55.6456 6.68832 55.6726 6.67135C56.3673 6.34893 57.1342 5.96711 57.9281 6.16227C57.9461 6.16227 58.0003 6.14529 57.9732 6.12832C57.7928 6.03498 57.6033 5.92468 57.4048 5.89923C57.2244 5.87377 57.0259 5.92469 56.8545 5.9756C56.4124 6.10287 55.9433 6.32348 55.6456 6.65439C55.6095 6.67984 55.6726 6.67984 55.6816 6.66288Z" fill="#914620"/>
<path d="M51.7129 22.5466C52.0428 22.3182 52.2283 22.3316 52.5582 22.4526C52.8983 22.5735 52.9396 22.6407 53.2797 23.1513C53.2797 23.1513 52.8983 22.7482 52.4139 22.6273C52.0737 22.5466 51.7129 22.5466 51.7129 22.5466Z" fill="#803D1B"/>
<path d="M51.7735 22.5732C51.9297 22.471 52.0955 22.3943 52.2712 22.4199C52.4078 22.4454 52.5444 22.4837 52.681 22.5476C52.9055 22.6498 53.0518 22.918 53.208 23.1479C53.2275 23.1351 53.2568 23.1224 53.2763 23.1096C52.8469 22.6626 52.3005 22.5348 51.7735 22.5348C51.7442 22.5348 51.6955 22.5859 51.7442 22.5859C52.2614 22.5859 52.7981 22.7264 53.208 23.1479C53.2275 23.1607 53.2958 23.1351 53.2763 23.1096C53.1787 22.9563 53.0714 22.7903 52.9543 22.6626C52.8664 22.5732 52.7689 22.5221 52.6615 22.471C52.5151 22.4071 52.3493 22.356 52.1931 22.3688C52.0272 22.3688 51.8711 22.4582 51.7247 22.5476C51.6857 22.5859 51.754 22.5987 51.7735 22.5732Z" fill="#914620"/>
<path d="M41.5288 27.0737C41.7543 26.6507 41.9205 26.5238 42.2529 26.3828C42.5852 26.2418 42.6446 26.2559 43.0957 26.4533C43.0957 26.4533 42.6446 26.3828 42.1817 26.6366C41.8493 26.8058 41.5288 27.0737 41.5288 27.0737Z" fill="#803D1B"/>
<path d="M41.6125 27.0424C41.6921 26.8974 41.783 26.7393 41.908 26.6339C42.0103 26.5416 42.1353 26.4757 42.2603 26.423C42.3739 26.3703 42.4876 26.3308 42.6126 26.3439C42.7603 26.3571 42.9081 26.4362 43.0444 26.5021C43.0558 26.4889 43.0672 26.4625 43.0785 26.4494C42.5217 26.3703 41.9875 26.6866 41.5443 27.0292C41.4989 27.0687 41.5671 27.0819 41.5898 27.0687C42.0103 26.7393 42.5217 26.4362 43.0444 26.5021C43.0672 26.5021 43.124 26.4625 43.0785 26.4494C42.9308 26.3835 42.7717 26.3044 42.6126 26.2912C42.4876 26.2781 42.3626 26.3308 42.2376 26.3835C42.1012 26.4362 41.9534 26.5153 41.8398 26.6207C41.7148 26.7393 41.6124 26.8842 41.5328 27.0556C41.5101 27.0819 41.5898 27.0687 41.6125 27.0424Z" fill="#914620"/>
<path d="M45.4453 16.8753C45.478 16.5911 45.5513 16.466 45.7146 16.2955C45.8778 16.1249 45.9186 16.1136 46.2287 16.0908C46.2287 16.0908 45.9432 16.1818 45.731 16.4546C45.5759 16.6479 45.4453 16.8753 45.4453 16.8753Z" fill="#803D1B"/>
<path d="M45.4964 16.8427C45.5115 16.7245 45.5343 16.6064 45.5873 16.5097C45.6404 16.413 45.7086 16.3379 45.7768 16.2734C45.8222 16.2304 45.8753 16.1875 45.9283 16.166C46.0117 16.1445 46.1026 16.1338 46.1935 16.1338C46.1935 16.123 46.1935 16.1016 46.1935 16.0908C45.8904 16.1982 45.6404 16.499 45.4509 16.8427C45.4282 16.8749 45.4812 16.8856 45.4964 16.8641C45.6782 16.5312 45.9132 16.2412 46.2087 16.1445C46.2315 16.1338 46.2391 16.1016 46.2087 16.1016C46.1178 16.1123 46.0193 16.1123 45.9283 16.1445C45.8601 16.166 45.8071 16.209 45.754 16.2627C45.6782 16.3379 45.61 16.413 45.5494 16.5097C45.4964 16.6171 45.4661 16.7353 45.4509 16.8641C45.4433 16.8749 45.4964 16.8641 45.4964 16.8427Z" fill="#914620"/>
<path d="M44.6621 21.5823C44.9771 21.1707 45.2315 21.0426 45.7282 20.8962C46.2249 20.7499 46.3218 20.7682 47.0124 20.942C47.0124 20.942 46.3218 20.8962 45.6313 21.1524C45.1467 21.3171 44.6621 21.5823 44.6621 21.5823Z" fill="#803D1B"/>
<path d="M44.7412 21.5658C44.8587 21.4175 44.9878 21.2691 45.164 21.1557C45.3284 21.0509 45.5163 20.9811 45.7159 20.9288C45.892 20.8764 46.0682 20.824 46.2678 20.8328C46.5027 20.8415 46.7258 20.9113 46.9372 20.9637C46.9607 20.9549 46.9724 20.9462 46.9959 20.9375C46.1387 20.8851 45.3401 21.1993 44.6708 21.5658C44.6355 21.592 44.7177 21.5833 44.7412 21.5658C45.3753 21.2255 46.1269 20.92 46.9489 20.9637C46.9607 20.9637 47.0311 20.9462 47.0076 20.9375C46.7728 20.8764 46.5262 20.8066 46.2796 20.7979C46.0799 20.7979 45.9038 20.8415 45.7276 20.8938C45.5163 20.9549 45.3049 21.0248 45.1287 21.1382C44.9409 21.2604 44.7999 21.4087 44.6708 21.5658C44.6473 21.592 44.7295 21.5833 44.7412 21.5658Z" fill="#914620"/>
<path d="M39.9614 30.9962C39.9952 30.4595 40.1192 30.2324 40.4461 29.8917C40.773 29.5511 40.8632 29.5305 41.5283 29.4272C41.5283 29.4272 40.9308 29.6543 40.5138 30.1808C40.2094 30.5524 39.9614 30.9962 39.9614 30.9962Z" fill="#803D1B"/>
<path d="M40.0305 30.9683C40.0413 30.7595 40.0737 30.5408 40.1708 30.3419C40.2571 30.163 40.3974 30.0138 40.5268 29.8647C40.6347 29.7553 40.7426 29.6559 40.8829 29.5963C41.0663 29.5267 41.2821 29.5068 41.4872 29.467C41.4872 29.4571 41.4764 29.4372 41.4764 29.4272C40.7534 29.7056 40.3003 30.332 39.9658 30.9583C39.9442 30.9981 40.0089 30.9981 40.0305 30.9683C40.3542 30.3718 40.8074 29.7454 41.5087 29.477C41.5411 29.467 41.5303 29.4272 41.4979 29.4372C41.2174 29.477 40.8937 29.5068 40.6563 29.6857C40.5376 29.7752 40.4405 29.8846 40.3434 29.9939C40.2355 30.1133 40.1492 30.2425 40.0845 30.3817C39.9981 30.5706 39.9766 30.7694 39.9658 30.9782C39.955 31.008 40.0305 30.9981 40.0305 30.9683Z" fill="#914620"/>
<path d="M70.5151 20.7979C70.9924 21.1842 71.1205 21.4418 71.2369 21.9336C71.3533 22.4254 71.3184 22.519 71.0157 23.1513C71.0157 23.1513 71.167 22.5073 70.9342 21.7931C70.7829 21.3013 70.5151 20.7979 70.5151 20.7979Z" fill="#803D1B"/>
<path d="M70.5189 20.8346C70.687 20.984 70.8445 21.1449 70.9601 21.3403C71.0651 21.5242 71.1177 21.731 71.1702 21.9379C71.2122 22.1218 71.2542 22.3057 71.2227 22.4895C71.1807 22.7194 71.0757 22.9377 70.9811 23.1331C71.0021 23.1331 71.0231 23.1331 71.0546 23.1331C71.2227 22.3286 70.9391 21.5127 70.6029 20.8117C70.5714 20.7887 70.5084 20.8117 70.5189 20.8346C70.855 21.5242 71.1387 22.3401 70.9706 23.1331C70.9601 23.1676 71.0336 23.1446 71.0441 23.1331C71.1387 22.9263 71.2437 22.7194 71.2858 22.4895C71.3173 22.3057 71.2858 22.1218 71.2437 21.9379C71.2017 21.731 71.1387 21.5127 71.0441 21.3288C70.9286 21.122 70.7605 20.9496 70.5924 20.8002C70.5714 20.7887 70.4979 20.8232 70.5189 20.8346Z" fill="#914620"/>
<path d="M61.8975 22.0005C62.2448 21.6815 62.4995 21.4097 62.7696 21.7169C63.0938 22.095 63.1556 21.8469 63.4643 22.3668C63.4643 22.3668 63.1015 21.9887 62.6076 21.9532C62.2757 21.9296 61.8975 22.0005 61.8975 22.0005Z" fill="#803D1B"/>
<path d="M61.9403 21.9991C62.0971 21.8623 62.2614 21.6687 62.4406 21.6231C62.6198 21.5775 62.7318 21.7598 62.8736 21.8737C62.9558 21.9421 63.0379 21.9763 63.12 22.0219C63.2395 22.0902 63.3291 22.2269 63.4187 22.3637C63.4336 22.3523 63.4485 22.3523 63.4635 22.3409C63.0155 21.8851 62.448 21.8851 61.9329 21.9877C61.9179 21.9877 61.8806 22.022 61.9105 22.0106C62.4182 21.908 62.9782 21.9193 63.4187 22.3637C63.4261 22.3751 63.4709 22.3523 63.4635 22.3409C63.3664 22.1814 63.2619 22.0446 63.1275 21.9763C62.9931 21.9079 62.8886 21.8168 62.7691 21.6914C62.4854 21.3952 62.1494 21.7712 61.903 21.9991C61.8806 22.0219 61.9329 22.0105 61.9403 21.9991Z" fill="#914620"/>
<path d="M41.2773 47.2534C41.0572 47.1495 40.9656 46.9133 40.9564 46.6395C40.938 46.3278 40.9014 46.0918 41.0756 45.9691C41.0756 45.9691 41.5248 44.9492 41.5248 44.8264C41.534 44.5242 41.5248 44.222 41.479 43.9198C41.4056 43.4193 41.2406 42.9094 40.9472 42.5411C40.5897 42.0878 40.012 41.9273 39.517 41.9934C39.4069 42.0123 39.2878 42.0689 39.1777 42.0689C39.1777 42.0689 39.8287 42.0406 40.7822 42.9755C41.0847 43.2682 41.2314 43.7499 41.3139 44.1937C41.3598 44.4676 40.8647 45.7047 40.8097 45.7896C40.6355 46.0446 40.6538 46.3562 40.6538 46.3846C40.7272 47.395 41.0847 47.4706 41.2039 47.4706C41.2314 47.4706 41.2498 47.4611 41.2498 47.4611L41.5248 47.3856L41.2773 47.2534Z" fill="#502313"/>
<path d="M73.2 47.2534C73.4934 47.1495 73.6157 46.9133 73.6279 46.6395C73.6523 46.3278 73.7012 46.0918 73.469 45.9691C73.469 45.9691 72.87 44.9492 72.87 44.8264C72.8578 44.5242 72.87 44.222 72.9311 43.9198C73.0289 43.4193 73.2489 42.9094 73.6401 42.5411C74.1169 42.0878 74.887 41.9273 75.5471 41.9934C75.6938 42.0123 75.8527 42.0689 75.9994 42.0689C75.9994 42.0689 75.1315 42.0406 73.8602 42.9755C73.4568 43.2682 73.2612 43.7499 73.1511 44.1937C73.09 44.4676 73.7501 45.7047 73.8235 45.7896C74.0558 46.0446 74.0313 46.3562 74.0313 46.3846C73.9335 47.395 73.4568 47.4706 73.2978 47.4706C73.2612 47.4706 73.2367 47.4611 73.2367 47.4611L72.87 47.3856L73.2 47.2534Z" fill="#502313"/>
<path d="M103.419 128.891C103.409 121.474 103.101 110.252 101.252 103.169L80.6997 110.321C81.4352 113.234 80.6997 110.321 80.6997 110.321C81.3557 115.049 82.0712 115.137 83.3732 119.699C83.8304 121.308 94.5641 120.121 95.0312 121.729C95.4586 123.24 87.4779 128.273 87.6668 129.842" fill="#994E2E"/>
<path d="M86.094 136.663C86.0175 136.183 86.3428 134.752 84.8888 130.854C82.574 124.653 81.5121 114.269 81.4834 111.526C81.4356 106.177 85.0322 112.574 88.275 114.778L93.67 115.14C95.2292 118.559 96.3483 115.963 97.984 118.981C100.825 124.212 95.6405 113.534 97.984 118.981C98.8065 120.901 99.6865 115.787 100.509 117.707C101.284 119.51 102.575 119.108 103.025 123.242C103.025 123.242 103.054 133.479 102.996 136.555C102.958 138.818 103.656 142.511 103.494 144.088C103.254 146.4 104.201 153.453 104.201 153.453C104.201 153.453 104.249 155.883 103.608 160.085C101.963 170.891 101.657 184.566 102.231 189.131L92.5125 190.248C92.5125 190.248 84.7453 152.092 86.1419 143.657C86.1419 143.657 86.4671 139.17 86.094 136.663Z" fill="#994E2E"/>
<path d="M95.9088 212.214C95.9088 212.214 95.8888 212.861 95.8689 213.795C95.4299 218.842 96.1781 220.956 93.2349 224.765C96.9863 222.908 98.343 218.909 95.9786 213.204C95.9387 212.604 95.9088 212.214 95.9088 212.214Z" fill="#854324"/>
<path d="M92.1327 187.698C92.5375 190.419 92.5086 193.578 91.3133 196.562C88.9032 202.578 91.9977 208.964 91.9977 212.619C91.9977 213.824 90.6385 216.448 90.5903 217.692C90.7349 219.053 91.5157 219.51 91.5157 219.51C91.4771 220.278 91.6314 219.15 91.5157 219.51C91.0915 220.832 91.1494 222.299 90.918 223.106C90.6867 223.903 89.1057 227.198 91.0819 227.694C91.0819 227.694 92.2676 228.413 92.8846 227.188C92.8846 227.188 94.1474 225.769 94.2342 225.273C94.321 224.778 94.9958 222.163 95.2657 221.629C95.5356 221.094 96.3647 219.393 96.3357 217.964C96.3357 217.702 96.3936 217.167 96.3936 217.167C96.7117 216.808 96.7213 216.798 96.6539 217.012C96.4514 217.624 96.596 219.646 96.1622 220.365C95.5742 221.347 94.4752 222.231 93.8872 224.097C93.463 225.458 92.7593 226.08 92.6918 226.518C92.5761 227.305 93.5498 227.363 93.5498 227.363C93.5498 227.363 93.8968 227.421 94.8319 226.906C96.0562 226.226 95.5067 226.459 96.6828 225.38C96.6828 225.38 98.4178 222.834 99.0058 222.085C99.5939 221.327 100.066 220.316 100.269 219.072C100.471 217.828 101.127 215.126 100.259 216.769C99.8253 217.605 100.645 219.043 99.6035 219.733C99.1504 220.035 97.1744 224.564 97.1744 224.564C98.3503 223.942 97.3287 224.379 98.3214 224.068C98.3214 224.068 100.028 223.738 101.262 222.416C101.262 222.416 103.392 220.443 103.228 219.111C103.228 219.111 103.913 217.002 104.077 215.107C104.163 214.125 103.045 217.906 103.228 219.111C103.228 219.111 105.012 217.303 105.214 216.331C105.638 214.203 106.13 211.569 106.255 211.112C106.381 210.645 107.046 208.332 105.85 205.29C104.655 202.238 102.447 197.631 102.949 195.201C103.45 192.771 102.033 186.852 101.744 177.696L90.5035 178.892C90.5324 178.882 91.5157 183.586 92.1327 187.698Z" fill="#994E2E"/>
<path d="M100.981 210.645C100.981 210.645 100.673 216.387 100.622 217.785C100.57 219.173 100.16 220.312 99.5744 221.17C98.9892 222.029 97.1514 224.766 97.1514 224.766C97.1514 224.766 99.174 221.81 99.6566 221.46C100.776 220.651 100.858 217.525 100.95 216.497C101.197 214.12 100.981 210.645 100.981 210.645Z" fill="#854324"/>
<path d="M104.202 216.921C104.202 216.921 104.568 215.121 104.481 213.023C104.385 210.925 104.089 210.12 104.986 209.076C104.986 209.076 104.428 210.955 104.594 212.068C104.759 213.172 104.463 216.364 104.202 216.921Z" fill="#854324"/>
<path fill-rule="evenodd" clip-rule="evenodd" d="M67.2936 346.496C67.4963 347.765 68.037 351.496 68.925 357.698C69.813 363.948 69.34 367.337 69.3883 367.806C69.4752 368.704 69.4268 369.779 69.2531 371.029C69.1565 371.634 69.0504 372.093 68.9442 372.406C68.7704 373.109 68.7125 373.841 68.7608 374.603L90.8843 373.92C90.1314 373.441 89.3206 372.943 88.4519 372.435C87.9403 372.015 87.3805 371.41 86.782 370.638C85.6044 369.095 84.8226 367.474 84.4365 365.784C84.1952 364.7 83.1719 355.178 83.4615 351.75C84.5039 339.816 84.8997 327.998 84.6584 316.298C84.224 306.18 80.7298 308.153 80.8264 305.663L71.9752 300.506L67.921 300.077C68.1334 301.454 62.6509 307.333 63.5679 317.353C64.4462 326.778 65.6817 336.505 67.2936 346.496Z" fill="#994E2E"/>
<path d="M109.557 384.77C109.557 384.77 112.454 389.281 110.677 391.058C106.389 395.35 97.166 396.965 89.7489 391.632C82.3414 386.299 68.6951 388.21 67.7487 386.949C64.6582 382.839 68.7724 381.664 68.7724 381.664L109.557 384.77Z" fill="#502313"/>
<path d="M86.1039 369.682C86.1039 369.682 92.5259 376.048 95.0601 378.811C97.6039 381.573 108.672 382.979 109.286 384.791C111.379 390.87 104.918 393.889 98.1316 392.167C91.3452 390.434 82.7922 385.335 80.1811 385.266C77.5701 385.197 68.1916 386.543 66.9244 382.692C65.6477 378.85 68.4411 370.395 69.737 370.207C71.033 370.009 77.8773 376.078 79.9891 373.92C82.1106 371.742 82.0722 365.633 86.1039 369.682Z" fill="#994E2E"/>
<path fill-rule="evenodd" clip-rule="evenodd" d="M45.6826 346.541C45.4564 347.801 44.8271 351.532 43.8242 357.705C42.8114 363.937 43.2243 367.336 43.1653 367.805C43.067 368.704 43.0867 369.778 43.244 371.028C43.3325 371.634 43.4308 372.093 43.539 372.406C43.6963 373.109 43.7455 373.841 43.6865 374.603L21.1592 373.519C21.936 373.05 22.7718 372.572 23.6666 372.073C24.1976 371.663 24.7679 371.067 25.3972 370.305C26.6263 368.782 27.4523 367.17 27.8653 365.49C28.1307 364.416 29.3402 354.912 29.114 351.474C28.2684 339.528 28.0718 327.699 28.5339 315.998C29.1632 305.888 32.6834 307.93 32.6244 305.429L41.7297 300.428L45.8694 300.077C45.6334 301.444 51.1005 307.432 49.9993 317.434C48.9471 326.879 47.5017 336.578 45.6826 346.541Z" fill="#994E2E"/>
<path d="M2.59477 384.009C2.59477 384.009 -0.426345 388.389 1.34905 390.162C5.62567 394.449 14.9637 396.193 22.5851 391.081C30.2065 385.979 44.0271 388.089 45.0079 386.87C48.2252 382.892 44.0663 381.664 44.0663 381.664L2.59477 384.009Z" fill="#502313"/>
<path d="M26.6213 369.609C26.6213 369.609 19.9919 375.743 17.3596 378.407C14.7273 381.071 3.46699 382.257 2.80404 384.016C0.571487 389.947 7.07418 393.028 13.9961 391.453C20.918 389.879 29.6923 385.018 32.3441 384.998C34.9958 384.979 44.4915 386.466 45.8564 382.714C47.2116 378.961 44.5305 370.61 43.2144 370.406C41.8983 370.192 34.8399 376.016 32.7438 373.867C30.638 371.719 30.7842 365.721 26.6213 369.609Z" fill="#994E2E"/>
<path d="M89.8264 191.032C92.8266 198.102 91.8557 205.86 93.215 212.415C93.2344 212.803 93.2344 213.2 93.2344 213.598C93.2052 215.576 92.9916 217.584 92.545 219.843C92.5159 220.425 92.4868 221.007 92.4576 221.598C92.2634 225.118 92.0013 228.706 91.778 232.372C91.9625 232.934 92.1469 233.507 92.3217 234.069C92.5062 234.631 92.6809 235.204 92.8557 235.776C93.4188 240.518 92.9528 245.56 92.8072 250.448C92.7878 251.262 92.7683 252.067 92.7683 252.872C92.8169 260.174 93.7878 269.871 88.904 276.737C88.4865 277.523 88.137 278.318 87.8263 279.113C85.9718 283.903 85.8068 288.936 85.1368 293.814C85.0592 294.503 84.9912 295.21 84.9426 295.928C84.7776 298.789 85.0397 301.785 86.836 304.53C86.8457 304.743 86.8651 306.983 86.8748 309.563C86.8748 310.416 86.8845 311.318 86.8845 312.19C84.0882 320.288 86.0301 329.015 86.3699 336.919C86.2243 337.743 86.0981 338.567 85.9913 339.401C85.4475 343.561 85.3602 347.809 85.7 351.998C85.7679 352.832 85.8553 353.666 85.9524 354.5C86.0301 359.077 87.9719 366.835 83.1853 368.706C82.6027 368.871 81.991 368.91 81.3502 368.784C80.7677 368.861 80.1657 368.929 79.554 368.978C74.0683 369.424 68.1747 368.697 64.4269 367.669C64.2619 367.203 64.0968 366.68 63.9415 366.107C63.9026 365.962 63.689 365.138 63.4463 363.916C60.786 356.168 61.7569 347.44 61.8637 339.401C61.9122 338.654 61.9608 337.956 61.9996 337.345C62.0482 336.734 62.087 336.211 62.1259 335.823C62.2035 335.047 62.2812 328.463 62.3492 327.696C62.4074 321.461 60.0286 324.632 60.116 319.745C60.1257 319.415 60.1354 319.056 60.1646 318.659C62.8929 315.303 59.7082 300.515 58.6888 297.295C58.5625 296.888 58.4655 296.491 58.4266 296.083C58.2907 295.298 58.1839 294.473 58.0965 293.63C58.048 293.203 58.0091 292.776 57.98 292.34C57.8635 290.226 58.0674 288.422 58.048 286.648C58.048 286.289 58.0285 285.94 58.0091 285.581C57.8926 283.302 57.2421 281.266 56.378 279.384C56.2032 279.006 56.0284 278.638 55.8342 278.269C53.8633 274.71 53.8633 267.922 51.4262 263.82C51.3291 263.384 51.2418 262.948 51.1641 262.492C50.9505 259.185 48.0377 253.367 48.8727 249.226C48.7465 248.033 48.63 246.802 48.5134 245.57C46.7172 225.807 46.9794 205.316 45.4453 194.834" fill="#7E1620"/>
<path d="M25.6874 190.248C23.2153 196.897 23.2153 203.692 22.7384 210.894C22.7092 211.768 22.6898 212.641 22.6898 213.515C22.6119 213.942 22.5438 214.379 22.4854 214.806C22.427 215.233 22.3686 215.67 22.3297 216.107C22.1837 219.757 22.1447 223.29 22.2713 226.765C22.2907 227.202 22.3102 227.629 22.3199 228.066C22.7092 229.958 22.9039 232.123 23.0207 234.239C23.0596 234.948 23.0888 235.647 23.1083 236.326C23.2251 245.441 21.2785 254.177 22.1837 262.534C22.2907 263.427 22.427 264.32 22.5924 265.204C24.1886 273.581 29.0548 281.346 28.2178 290.723C28.2373 291.47 28.2568 292.208 28.2762 292.946C28.4028 298.119 28.4611 303.06 27.0694 308.438C27.0499 309.282 27.0597 310.156 27.0694 311.039C27.1667 316.32 27.6923 321.891 27.0597 323.891C26.9331 324.299 26.7482 324.706 26.5049 325.104C26.5438 325.502 26.5828 326.007 26.6217 326.59C26.6606 327.172 26.6898 327.842 26.719 328.579C26.758 329.395 26.7969 330.191 26.8261 330.977C26.8553 331.763 26.8845 332.54 26.9039 333.307C27.1181 339.606 27.1181 345.43 26.9526 350.779C26.9429 351.536 26.9331 352.225 26.9331 352.827C26.9234 353.429 26.9234 353.953 26.9137 354.38C26.8553 354.72 26.7774 355.05 26.6801 355.38C26.5828 355.71 26.466 356.04 26.32 356.36C26.3687 356.719 26.4368 357.088 26.5244 357.467C26.7872 358.593 27.157 365.562 27.7117 366.737C27.994 367.086 28.3054 367.407 28.6363 367.678C29.629 368.494 30.8164 368.901 32.1011 368.688C32.6753 368.775 33.2787 368.853 33.8919 368.911C39.381 369.455 45.2984 368.824 49.0843 367.863C49.2595 367.397 49.4347 366.882 49.6002 366.31C49.6586 366.096 50.1257 364.349 50.661 362.029C50.8362 361.252 51.0309 360.418 51.2158 359.554C51.4494 355.127 53.3959 349.303 52.4421 344.091C52.3837 343.285 52.3058 342.421 52.2085 341.499C51.5369 335.083 50.1841 326.357 52.043 322.649C52.1501 322.144 52.2669 321.649 52.3934 321.144C53.1136 318.145 53.9214 303.478 53.5808 300.362C53.6976 299.876 53.8241 299.391 53.9701 298.925C54.0869 298.576 54.2037 298.226 54.3399 297.887C54.4762 297.547 54.6124 297.217 54.7681 296.896C54.9141 296.411 55.0212 295.926 55.1088 295.44C55.1964 294.955 55.2548 294.47 55.2937 293.984C54.6805 291.111 55.1088 288.578 55.8387 286.277C55.9458 285.947 56.0528 285.627 56.1599 285.307C56.773 282.346 57.7171 279.415 58.8461 276.638C59.031 276.172 59.2256 275.716 59.4203 275.27C60.0918 273.581 61.0651 269.698 61.6588 268.242C61.7658 267.863 61.8631 267.495 61.9507 267.145C62.0189 266.699 62.1162 266.252 62.233 265.806C62.5639 264.485 63.0602 263.204 63.5761 261.913C63.7513 261.476 63.9264 261.04 64.0919 260.593C65.9313 256.099 65.9313 248.333 66.7781 243.742C66.8073 243.422 66.8462 242.14 66.8754 241.82C68.7148 223.164 68.89 205.109 70.5153 195.198" fill="#7E1620"/>
<path d="M92.7841 235.586C92.6098 235.023 92.4355 234.45 92.2515 233.878C92.0675 233.315 91.8931 232.742 91.7091 232.179C91.9319 228.51 92.1934 224.919 92.3871 221.395C92.4161 220.813 92.4452 220.221 92.4742 219.638C92.9197 217.377 93.1328 215.368 93.1618 213.388C93.1618 212.99 93.1618 212.601 93.1424 212.204C91.7866 205.642 92.7551 197.877 89.7625 190.801L56.3022 193.684L25.4858 190.248C23.0259 196.897 23.0259 203.691 22.5513 210.893C22.5223 211.767 22.5029 212.64 22.5029 213.514C22.4254 213.941 22.3577 214.378 22.2995 214.805C22.2414 215.232 22.1833 215.669 22.1446 216.105C21.9993 219.755 21.9606 223.288 22.0865 226.763C22.1059 227.2 22.1252 227.627 22.1349 228.064C22.5223 229.956 22.716 232.121 22.8322 234.237C22.8709 234.945 22.9 235.644 22.9194 236.324C23.0356 245.438 21.0987 253.203 22.3867 262.074C22.4739 262.967 22.5707 263.87 22.7063 264.763C23.0356 273.596 26.9094 281.361 27.8876 289.611C27.8682 290.475 27.8101 291.358 27.6939 292.261C27.6551 293.183 27.6164 294.105 27.5777 295.037C27.3646 299.657 27.1419 304.267 27.5292 308.47C27.568 309.218 27.597 309.955 27.6164 310.712C27.7326 314.459 27.6745 318.312 27.4033 322.253C27.3452 323.156 27.2678 324.059 27.1806 324.971C27.2678 325.825 27.3549 326.689 27.4421 327.543C27.4808 328.358 27.5196 329.164 27.5583 329.96C27.597 330.756 27.6164 331.532 27.6358 332.309C28.827 337.667 26.8901 344.461 26.8223 350.304C26.7642 351.149 26.7254 351.993 26.706 352.828C26.6964 353.43 26.6964 353.954 26.6867 354.381C26.6286 354.721 26.5511 355.051 26.4542 355.381C26.3574 355.711 26.2412 356.041 26.0959 356.361C26.1443 356.72 26.2121 357.089 26.2993 357.467C26.5608 358.593 26.9288 365.562 27.4808 366.737C27.7617 367.086 28.0716 367.407 28.4009 367.678C29.3887 368.494 30.5702 368.901 31.8486 368.688C32.42 368.775 33.0204 368.853 33.6305 368.911C39.0927 369.455 44.9809 368.824 48.7482 367.863C48.9225 367.397 49.0969 366.883 49.2615 366.31C49.3196 366.096 49.7845 364.349 50.3171 362.029C50.4914 361.253 50.6851 360.418 50.8691 359.554C51.1016 355.128 53.0385 349.304 52.0894 344.092C52.0313 343.287 51.9538 342.423 51.857 341.501C51.1887 335.085 49.8426 326.359 51.6923 322.651C51.7989 322.146 51.9151 321.651 52.041 321.147C52.7576 318.147 53.5615 303.481 53.2225 300.366C53.3387 299.88 53.4646 299.395 53.6099 298.929C53.7261 298.58 53.8423 298.23 53.9779 297.89C54.1135 297.551 54.2491 297.221 54.404 296.9C54.5493 296.415 54.6558 295.93 54.743 295.444C54.8301 294.959 54.8882 294.474 54.927 293.988C54.3169 291.115 54.743 288.582 55.4693 286.282C55.5759 285.952 55.6824 285.631 55.7889 285.311C56.1085 283.758 56.5249 282.215 57.0092 280.691C57.5612 282.166 57.9486 283.739 58.0261 285.437C58.0551 285.796 58.0648 286.146 58.0648 286.505C58.0842 288.281 57.8711 290.087 57.997 292.203C58.0357 292.639 58.0745 293.066 58.1132 293.493C58.2004 294.338 58.3069 295.163 58.4425 295.949C58.4909 296.357 58.5781 296.755 58.704 297.162C59.7209 300.385 62.8974 315.187 60.176 318.545C60.147 318.943 60.1276 319.312 60.1276 319.632C60.0405 324.515 62.4132 321.35 62.3551 327.592C62.297 328.358 62.2195 334.949 62.1323 335.725C62.0936 336.114 62.0452 336.628 62.0064 337.249C61.958 337.861 61.9193 338.56 61.8708 339.307C61.7643 347.344 60.7959 356.079 63.4494 363.844C63.6916 365.067 63.9046 365.893 63.9434 366.038C64.0983 366.611 64.2533 367.135 64.4276 367.601C68.1755 368.63 74.0444 369.367 79.5162 368.911C80.1263 368.863 80.7268 368.795 81.3079 368.717C81.947 368.843 82.5669 368.804 83.1382 368.639C87.9128 366.756 85.9758 358.991 85.8984 354.42C85.7918 353.585 85.7144 352.75 85.6466 351.915C85.3076 347.722 85.4044 343.471 85.9371 339.307C86.0436 338.472 86.1695 337.647 86.3148 336.822C85.9758 328.912 84.0389 320.176 86.8281 312.071C86.8281 311.198 86.8184 310.305 86.8184 309.441C86.8087 306.869 86.799 304.627 86.7797 304.403C84.9977 301.647 84.7265 298.657 84.8912 295.794C84.9299 295.076 84.9977 294.377 85.0849 293.678C85.7531 288.796 85.9177 283.758 87.7675 278.963C88.0774 278.167 88.4357 277.371 88.8425 276.585C93.7138 269.703 93.7138 260.968 92.697 253.125C92.697 252.407 92.7066 251.689 92.726 250.97C92.8616 246.68 93.3168 242.419 92.7066 237.886C92.7454 237.119 92.7744 236.353 92.7841 235.586Z" fill="#502110"/>
<path d="M12.1553 393.238C10.1031 394.307 3.21493 390.676 1.8183 388.951C-0.452415 386.279 1.49527 382.446 3.26243 381.771C5.58065 381.044 6.72075 384.181 8.73494 386.329C9.01046 386.672 11.9463 389.456 12.4688 390.605C12.6778 391.715 12.3928 392.985 12.1553 393.238Z" fill="#FDC99D"/>
<path d="M12.5987 378.961C11.9928 379.308 6.2712 381.857 5.75467 382.195C4.17529 383.189 4.52295 383.527 5.86394 385.602C6.90693 387.455 8.81411 387.436 11.0789 386.654C11.6451 386.461 16.8998 384.579 17.6746 384.212C23.6544 380.708 28.5118 379.212 32.1275 373.942C31.6904 372.745 29.515 370.496 28.5813 370.119C24.8762 368.614 25.5318 368.797 23.6445 370.66C23.416 370.921 15.8966 377.108 12.5987 378.961Z" fill="#FDC99D"/>
<path d="M6.27441 381.817C11.1119 380.792 13.3161 383.899 14.1841 386.997C14.7303 388.71 14.9838 390.652 14.4864 392.595C15.5007 392.605 17.4513 392.943 18.5924 391.748C19.3239 389.756 17.978 385.373 17.8805 385.035C16.7491 381.001 13.1113 375.901 7.50329 380.094C6.91811 380.931 6.27441 381.817 6.27441 381.817Z" fill="#FDC99D"/>
<path d="M12.542 379.118C17.2492 378.266 19.7749 381.988 20.7183 384.887C21.3079 386.484 21.3276 389.285 20.8952 391.077C21.8877 391.107 23.7942 389.706 24.885 388.619C25.5435 386.787 24.2954 383.761 24.2954 383.447C24.2266 383.163 24.0988 382.674 24.0006 382.36C22.782 378.589 19.0771 373.761 13.7114 377.551C13.1415 378.305 12.542 379.118 12.542 379.118Z" fill="#FDC99D"/>
<path d="M17.2422 375.794C22.1034 375.168 25.787 378.379 26.9081 381.471C27.5958 383.191 28.4719 386.074 28.1045 387.933C29.1408 388.013 31.0439 387.356 32.1273 386.283C32.1179 384.185 30.8555 380.218 30.1395 378.687C28.2176 374.551 24.534 369.918 19.1264 373.577C18.1372 374.213 17.2422 375.794 17.2422 375.794Z" fill="#FDC99D"/>
<path d="M22.7261 370.725C27.961 370.293 31.7332 373.673 33.4076 376.822C34.2159 378.54 36.3522 384.387 36.0251 386.192C37.151 386.317 37.1702 386.71 38.3057 385.683C38.8927 383.84 36.4292 378.684 35.1205 375.785C33.2825 371.705 28.5865 367.173 24.6892 368.594C23.6403 369.199 22.7261 370.725 22.7261 370.725Z" fill="#FDC99D"/>
<path d="M41.8062 372.768C39.246 373.913 36.6858 375.324 33.9745 376.172C34.1358 375.59 32.8153 374.07 32.9161 373.488C34.5591 372.896 36.8975 372.807 38.8328 371.84C39.1553 371.663 40.1632 370.992 40.4656 370.814C41.6852 370.104 42.4412 369.433 43.56 368.327C44.4268 368.475 45.1626 370.775 44.2252 371.525C43.9128 371.761 42.1892 372.571 41.8062 372.768Z" fill="#FDC99D"/>
<path d="M87.5693 191.032L104.37 189.007L106.553 176.305L105.983 132.324L99.7203 84.3416L89.9386 85.5182L83.8335 105.357L87.5693 191.032Z" fill="#7E1620"/>
<path d="M97.163 103.169C94.9201 108.383 92.4411 112.279 89.6965 114.749C87.7389 115.598 85.7813 116.448 83.8335 117.297L84.345 194.955H103.419L101.275 105.337C99.8876 105.015 98.5104 104.282 97.163 103.169Z" fill="url(#paint2_linear_332_42)"/>
<path d="M90.4542 198.877L104.986 198.339L104.294 186.325L89.3174 188.403L90.4542 198.877Z" fill="#7E1620"/>
<path d="M90.4542 198.877L104.986 198.339L104.294 186.325L89.3174 188.403L90.4542 198.877Z" fill="url(#paint3_linear_332_42)"/>
<path d="M75.9988 75.5334C75.9988 75.5334 69.9983 87.525 56.6473 87.4793C43.2865 87.4427 39.1777 75.4145 39.1777 75.4145L41.9563 74.1431C43.5919 76.3932 46.9617 84.1681 56.6473 84.2047C66.323 84.2321 71.6339 76.4938 73.2399 74.2528" fill="#7E1620"/>
<path d="M75.0578 147.798C74.9704 139.601 78.876 131.404 84.9482 125.846C85.9004 121.143 87.3383 116.766 89.4854 112.005C89.5728 110.191 89.6797 108.377 89.8352 106.563C90.3404 100.737 90.3987 95.0452 90.8844 89.3054C90.0489 88.9502 89.1356 88.5183 88.0961 87.9712C86.1044 86.9345 83.2869 84.5253 82.2376 83.6135C82.2279 83.6039 82.2182 83.5943 82.2084 83.5847C80.0516 82.596 78.8371 81.6554 75.6893 79.0542C75.3298 78.7566 74.9801 78.4303 74.6303 78.0656C72.2791 81.6074 66.3721 88.6527 56.5108 88.6239H56.4136C46.9798 88.5951 42.2192 82.1065 40.2858 78.4303L39.4017 79.5437C38.4301 80.3404 37.5655 81.2426 36.6813 82.1257C34.9811 83.8054 33.106 85.1972 31.1823 86.6178C31.0658 86.8194 30.9589 87.0113 30.8423 87.2033C30.9297 90.006 31.1532 92.7992 31.2115 95.6116C31.4349 106.554 32.0179 117.525 30.6286 128.419C30.6091 128.592 30.58 128.774 30.5605 128.947C30.5703 129.398 30.5897 129.83 30.5994 130.281C32.7174 131.366 34.6702 132.767 36.3704 134.456C40.3538 138.42 42.7439 143.748 43.0839 149.305C47.6502 149.42 52.2165 149.564 56.7828 149.843C61.6795 150.15 66.5761 150.553 71.463 151.023C71.9585 150.61 72.4443 150.198 72.9398 149.785C73.649 149.18 74.368 148.566 75.0869 147.961C75.0675 147.913 75.0675 147.856 75.0578 147.798Z" fill="#7E1620"/>
<path d="M70.9257 71.7897L71.3637 80.941L56.8126 121.422L56.4136 196.798L60.8324 206.722L93.1369 203.069C93.1369 203.069 92.9909 199.098 92.7573 192.768C92.6989 191.183 92.6405 189.453 92.5723 187.608C92.3777 186.042 92.1927 184.477 92.0273 182.901C91.8521 181.326 91.6964 179.741 91.5406 178.157C87.7252 162.328 90.6452 145.899 90.4992 130.438C90.3921 128.988 90.285 127.539 90.1877 126.089C89.594 117.43 89.3409 108.975 92.2025 101.273C92.5723 100.413 92.9519 99.4952 93.351 98.5578C96.1444 91.9576 99.5021 84.0431 99.5021 84.0431L77.0187 77.0176L70.9257 71.7897Z" fill="#7E1620"/>
<path d="M74.4326 75.1388L65.4745 85.9105L62.0487 83.2077L56.92 84.9105L55.6304 85.3461L62.4425 80.2573L70.4359 69.4362L71.7944 73.624L74.4326 75.1388Z" fill="#FDC99D"/>
<path d="M40.7451 75.1388L49.3394 85.9105L52.613 83.2077L57.5281 84.9105L58.7639 85.3461L52.2357 80.2573L44.5753 69.4362L43.2734 73.624L40.7451 75.1388Z" fill="#FDC99D"/>
<path d="M78.3492 76.8442L75.4069 96.6007L69.8459 97.9599L73.514 105.608L67.2076 111.341L52.4961 126.704L70.5226 80.1178L70.8463 71.0052L78.3492 76.8442Z" fill="#502313"/>
<path d="M81.9556 181.699L76.6603 182.823L68.1489 183.187L67.3813 179.847L75.2611 179.453L82.2665 177.696L81.9556 181.699Z" fill="#502313"/>
<path d="M43.9698 71.7897L42.5729 78.0424L60.1642 129.968C60.1642 129.968 60.6266 132.133 60.01 149.355C59.9619 150.582 59.9233 151.829 59.8752 153.066C59.615 155.569 59.615 157.502 59.6054 160.556C59.5572 161.803 59.5187 163.04 59.4705 164.267C58.8636 181.489 58.3241 196.797 58.3241 196.797L53.9505 206.722L21.9758 203.069C21.9758 203.069 22.024 201.677 22.1107 199.242C22.1588 198.024 22.207 196.536 22.2841 194.835C22.3515 193.424 22.4286 192.013 22.5057 190.612C22.5827 189.21 22.6598 187.809 22.7465 186.417C23.3534 178.725 24.3842 170.771 24.9815 162.827C25.1068 161.242 25.2031 159.647 25.2802 158.062C25.338 156.555 25.3765 155.037 25.3862 153.501C24.9237 137.207 23.9604 121.744 24.7118 105.585C24.259 104.513 23.6232 102.995 22.9006 101.275C20.0105 94.3848 15.6753 84.044 15.6753 84.044L37.9294 77.018L43.9698 71.7897Z" fill="#7E1620"/>
<path d="M36.8276 77.2522L39.6853 98.4071L45.0809 99.8554L41.5161 108.043L47.6285 114.184L61.8973 130.627L44.4222 80.7572L44.1025 71.0052L36.8276 77.2522Z" fill="#502313"/>
<path d="M81.9558 125.209L76.6542 126.34L68.1581 126.704L67.3813 123.369L75.2657 122.976L82.2665 121.213L81.9558 125.209Z" fill="#502313"/>
<path d="M33.9955 125.209L39.3005 126.34L47.8022 126.704L48.5794 123.369L40.6899 122.976L33.6943 121.213L33.9955 125.209Z" fill="#502313"/>
<path d="M54.8467 140.433C54.8467 141.518 55.7218 142.394 56.8052 142.394C57.8887 142.394 58.7638 141.518 58.7638 140.433C58.7638 139.348 57.8887 138.471 56.8052 138.471C55.7218 138.471 54.8467 139.348 54.8467 140.433Z" fill="#502313"/>
<path d="M54.8467 154.554C54.8467 155.638 55.7218 156.515 56.8052 156.515C57.8887 156.515 58.7638 155.638 58.7638 154.554C58.7638 153.469 57.8887 152.592 56.8052 152.592C55.7218 152.592 54.8467 153.469 54.8467 154.554Z" fill="#502313"/>
<path d="M54.063 167.89C54.063 168.975 54.9381 169.851 56.0216 169.851C57.105 169.851 57.9801 168.975 57.9801 167.89C57.9801 166.805 57.105 165.929 56.0216 165.929C54.9381 165.929 54.063 166.805 54.063 167.89Z" fill="#502313"/>
<path d="M99.8524 393.23C101.87 394.277 108.762 390.975 110.186 389.367C112.486 386.883 110.61 383.238 108.866 382.563C106.584 381.83 105.396 384.77 103.36 386.769C103.077 387.083 100.126 389.662 99.5884 390.737C99.3621 391.784 99.6261 392.982 99.8524 393.23Z" fill="#FDC99D"/>
<path d="M99.7041 379.025C100.287 379.376 105.832 381.987 106.337 382.32C107.861 383.326 107.512 383.649 106.162 385.671C105.113 387.475 103.249 387.428 101.044 386.621C100.491 386.421 95.3927 384.475 94.6449 384.105C88.8571 380.554 84.1472 378.997 80.6997 373.755C81.1464 372.588 83.3217 370.413 84.2346 370.053C87.8859 368.638 87.2353 368.799 89.0416 370.67C89.2746 370.936 96.5191 377.145 99.7041 379.025Z" fill="#FDC99D"/>
<path d="M105.77 382.518C101.01 381.458 98.7837 384.383 97.8683 387.309C97.2904 388.928 97.0206 390.774 97.4735 392.62C96.4714 392.61 94.5345 392.904 93.4263 391.749C92.7325 389.846 94.1394 385.699 94.2454 385.387C95.4306 381.571 99.1209 376.79 104.575 380.871C105.153 381.666 105.77 382.518 105.77 382.518Z" fill="#FDC99D"/>
<path d="M99.5021 379.218C94.8652 378.274 92.2987 381.974 91.3169 384.867C90.7044 386.462 90.6363 389.277 91.0349 391.078C90.0531 391.087 88.1962 389.651 87.1366 388.538C86.5144 386.688 87.8074 383.667 87.8074 383.362C87.8851 383.076 88.0115 382.584 88.1185 382.269C89.392 378.5 93.1445 373.727 98.3841 377.624C98.9286 378.402 99.5021 379.218 99.5021 379.218Z" fill="#FDC99D"/>
<path d="M95.585 375.936C90.5386 375.216 86.6582 378.376 85.4333 381.466C84.6886 383.176 83.7283 386.066 84.0713 387.936C82.9934 387.996 81.0238 387.306 79.9165 386.196C79.9655 384.096 81.3472 380.116 82.1115 378.586C84.1791 374.466 88.0888 369.876 93.6547 373.656C94.6835 374.336 95.585 375.936 95.585 375.936Z" fill="#FDC99D"/>
<path d="M89.3175 370.812C84.1733 370.278 80.4028 373.627 78.6975 376.782C77.8733 378.5 75.666 384.374 75.9596 386.209C74.8512 386.315 74.8228 386.713 73.7239 385.655C73.1839 383.782 75.6944 378.617 77.0302 375.705C78.9154 371.618 83.6143 367.113 87.4227 368.627C88.4554 369.249 89.3175 370.812 89.3175 370.812Z" fill="#FDC99D"/>
<path d="M70.7942 372.712C73.1781 373.869 75.5525 375.295 78.0878 376.172C77.9459 375.594 79.2136 374.139 79.1284 373.561C77.5959 372.953 75.4105 372.828 73.6131 371.845C73.3199 371.672 72.3833 370.987 72.0995 370.814C70.9738 370.101 70.2738 369.436 69.2332 368.327C68.4196 368.453 67.6912 370.689 68.552 371.44C68.8358 371.691 70.4441 372.51 70.7942 372.712Z" fill="#FDC99D"/>
</g>
</g>
<defs>
<filter id="filter0_d_332_42" x="-3.20996" y="3.53894" width="118.463" height="399.461" filterUnits="userSpaceOnUse" color-interpolation-filters="sRGB">
<feFlood flood-opacity="0" result="BackgroundImageFix"/>
<feColorMatrix in="SourceAlpha" type="matrix" values="0 0 0 0 0 0 0 0 0 0 0 0 0 0 0 0 0 0 127 0" result="hardAlpha"/>
<feOffset dy="4"/>
<feGaussianBlur stdDeviation="2"/>
<feComposite in2="hardAlpha" operator="out"/>
<feColorMatrix type="matrix" values="0 0 0 0 0 0 0 0 0 0 0 0 0 0 0 0 0 0 0.25 0"/>
<feBlend mode="normal" in2="BackgroundImageFix" result="effect1_dropShadow_332_42"/>
<feBlend mode="normal" in="SourceGraphic" in2="effect1_dropShadow_332_42" result="shape"/>
</filter>
<linearGradient id="paint0_linear_332_42" x1="47.3416" y1="146.654" x2="-17.2813" y2="153.562" gradientUnits="userSpaceOnUse">
<stop stop-color="#7E1620"/>
<stop offset="0.5411" stop-color="#7E1620" stop-opacity="0"/>
</linearGradient>
<linearGradient id="paint1_linear_332_42" x1="25.8564" y1="192.601" x2="10.1887" y2="192.601" gradientUnits="userSpaceOnUse">
<stop stop-color="#7E1620"/>
<stop offset="0.5672" stop-color="#7E1620" stop-opacity="0"/>
</linearGradient>
<linearGradient id="paint2_linear_332_42" x1="67.8417" y1="146.654" x2="132.466" y2="153.562" gradientUnits="userSpaceOnUse">
<stop stop-color="#7E1620"/>
<stop offset="0.5411" stop-color="#7E1620" stop-opacity="0"/>
</linearGradient>
<linearGradient id="paint3_linear_332_42" x1="89.3171" y1="192.601" x2="104.985" y2="192.601" gradientUnits="userSpaceOnUse">
<stop stop-color="#7E1620"/>
<stop offset="0.5672" stop-color="#7E1620" stop-opacity="0"/>
</linearGradient>
<clipPath id="clip0_332_42">
<rect width="113" height="401" fill="white"/>
</clipPath>
</defs>
</svg>
