<svg width="100" height="100" viewBox="0 0 100 100" fill="none" xmlns="http://www.w3.org/2000/svg">
<path fill-rule="evenodd" clip-rule="evenodd" d="M8.87683 56.9278L22.1169 81.327C24.0459 84.7376 28.3424 86.0494 31.762 84.1255L88.0543 53.692C91.4739 51.7681 92.7015 47.4829 90.8601 44.0722L77.62 19.673C75.691 16.2624 71.3946 15.038 67.975 16.8745L11.6827 47.308C8.26305 49.2319 7.03549 53.5171 8.87683 56.9278ZM43.4238 48.27C42.1963 51.7681 44.0376 55.7034 47.6326 56.9278C51.2276 58.2395 55.1733 56.3156 56.4009 52.73C57.6284 49.2319 55.7871 45.2966 52.1921 44.0722C48.5971 42.8479 44.6514 44.6844 43.4238 48.27ZM58.5052 53.4297C56.8393 58.1521 51.666 60.6882 46.9311 59.0266C42.1963 57.4525 39.6535 52.2928 41.3194 47.5703C42.9854 42.8479 48.1587 40.3118 52.8935 41.9734C57.6284 43.5475 60.1712 48.7072 58.5052 53.4297Z" fill="#9FA4AF"/>
<path fill-rule="evenodd" clip-rule="evenodd" d="M16.1545 52.5551L16.5929 53.3422C16.7683 53.692 17.2944 53.8669 17.6451 53.692L70.0793 25.27C70.5178 25.0951 70.6054 24.5703 70.4301 24.2205L69.9917 23.4335C69.8163 22.9962 69.2902 22.9087 68.9395 23.0836L16.5052 51.5057C16.0668 51.6806 15.9791 52.2053 16.1545 52.5551ZM29.3946 76.7795L29.833 77.5665C30.0083 78.0038 30.5344 78.0913 30.8852 77.9164L83.2317 49.4943C83.6701 49.3194 83.7578 48.7947 83.5825 48.4449L83.144 47.6578C82.9687 47.2205 82.4426 47.1331 82.0919 47.308L29.7453 75.73C29.3069 75.9049 29.2192 76.4297 29.3946 76.7795Z" fill="#6B727B"/>
</svg>
