<svg width="100" height="100" viewBox="0 0 100 100" fill="none" xmlns="http://www.w3.org/2000/svg">
<path d="M66 48C64.8571 45.4286 64.1429 42.5816 64 39.7347C64.2857 39.4592 64.5714 39.2755 64.8571 39C65 42.0306 65.5714 44.9694 66 48Z" fill="#E6E7E8"/>
<path d="M79 58C76.1622 60.0417 73.527 62.2778 71.0946 64.6111C68.5608 66.9444 66.3311 69.5694 64 72C67.4459 66.5556 73.3243 61.5 79 58Z" fill="#E6E7E8"/>
<path d="M79 58C76.1622 60.0417 73.527 62.2778 71.0946 64.6111C68.5608 66.9444 66.3311 69.5694 64 72C67.4459 66.5556 73.3243 61.5 79 58Z" fill="#939598"/>
<path d="M64.0894 38.9135C63.7955 34.875 64.2364 30.7356 65.2652 27C64.8242 30.5337 64.6773 33.9663 64.8242 37.5C64.8242 37.7019 64.8242 37.9038 64.8242 38.1058C64.9712 41.4375 65.7061 44.6683 66 48C64.9712 45.1731 64.2364 42.0433 64.0894 38.9135Z" fill="#E6E7E8"/>
<path fill-rule="evenodd" clip-rule="evenodd" d="M67.3615 37.7109V37.5149C67.4641 31.1733 68.2854 25.7376 69.3119 21.3086C68.2854 21.6106 67.4641 21.6106 66.9508 21.5099C66.6986 21.4746 66.5096 21.4392 66.3439 21.4083C66.0375 21.351 65.8107 21.3086 65.411 21.3086C65.0004 21.3086 64.7694 21.3589 64.5384 21.4092C64.3074 21.4596 64.0764 21.5099 63.6658 21.5099C63.2552 21.5099 63.0499 21.4596 62.8446 21.4092C62.6392 21.3589 62.4339 21.3086 62.0233 21.3086C61.6127 21.3086 61.356 21.3841 61.0994 21.4596C60.8427 21.5351 60.5861 21.6106 60.1755 21.6106C59.6811 21.6106 59.4248 21.5405 59.2002 21.4792C58.9584 21.4131 58.7534 21.3571 58.3276 21.4092C57.8657 21.4596 57.609 21.5854 57.3781 21.6986C57.1471 21.8119 56.9418 21.9125 56.5825 21.9125C56.1971 21.9125 55.9889 21.7968 55.7679 21.6739C55.5767 21.5676 55.3759 21.4559 55.0426 21.4092C54.6441 21.4092 54.4148 21.5278 54.1787 21.6498C53.9283 21.7792 53.6704 21.9125 53.1948 21.9125C52.8234 21.9125 52.6165 21.805 52.3899 21.6871C52.1781 21.577 51.949 21.4579 51.5523 21.4092C51.205 21.4092 51.0015 21.4563 50.7913 21.5049C50.5666 21.5568 50.3341 21.6106 49.9098 21.6106C49.5366 21.6106 49.3118 21.5482 49.1005 21.4896C48.8469 21.4193 48.6127 21.3543 48.1646 21.4092C47.7349 21.4619 47.5019 21.5697 47.2744 21.675C47.0673 21.7708 46.8647 21.8646 46.5221 21.9125C46.0989 21.9125 45.8537 21.8078 45.5559 21.6806C45.348 21.5918 45.1145 21.492 44.7769 21.4092C44.2189 21.3409 43.8505 21.4119 43.414 21.496C43.2081 21.5357 42.987 21.5783 42.7238 21.6106C42.0052 21.7112 40.9786 21.7112 39.6441 21.4092C40.3627 22.7178 41.1839 24.6304 40.876 26.8449C40.7141 27.9562 40.3252 28.5389 39.9181 29.1488C39.5509 29.699 39.1689 30.2714 38.9255 31.2739C38.4921 33.1863 38.8719 34.5505 39.3139 36.138C39.5001 36.8065 39.6973 37.5147 39.8494 38.3201C40.876 43.8564 37.8989 48.6881 37.0777 49.7954C37.6936 48.5875 39.952 43.4538 39.1308 39.0248C38.8228 37.6155 38.4122 36.4076 38.4122 36.4076C37.8972 34.9431 37.3821 34.1626 36.9579 33.5197C36.5364 32.8811 36.2045 32.3781 36.0511 31.4753C35.8276 30.3247 36.0603 29.6513 36.3187 28.9032C36.5352 28.2768 36.7697 27.598 36.7697 26.5429C36.7697 25.2343 36.3591 23.5231 34.4086 21.4092C33.8873 21.3362 33.4201 21.3691 33.0853 21.3927C32.9585 21.4017 32.8506 21.4092 32.7661 21.4092C32.5727 21.4408 32.4199 21.4724 32.2821 21.5009C31.9808 21.5632 31.7515 21.6106 31.3289 21.6106C31.0839 21.6106 30.9091 21.5876 30.7263 21.5637C30.5261 21.5374 30.3163 21.5099 29.9943 21.5099H28.3518C28.3546 21.5387 28.3574 21.5676 28.3602 21.5968C28.5656 23.7115 28.8749 26.8969 29.5837 30.67C30.087 33.6312 30.5163 35.6003 30.8716 37.2298C31.2409 38.9238 31.5302 40.2508 31.7395 41.9439C32.1501 45.2657 32.0475 50.0974 30.097 56.2376C30.4049 56.0363 31.0209 55.9356 31.6368 55.9356C32.0573 55.9356 32.3021 56.0046 32.5767 56.0819C32.7714 56.1368 32.9812 56.1959 33.2793 56.2376C33.7405 56.2376 33.9427 56.1741 34.1768 56.1006C34.3596 56.0433 34.5618 55.9798 34.9219 55.9356C35.2586 55.9356 35.4376 55.9799 35.6277 56.0268C35.7905 56.0671 35.9616 56.1093 36.2469 56.1276L36.3591 56.2376L36.4617 56.3383C36.6784 56.5507 36.8378 56.651 37.0306 56.7723C37.2032 56.881 37.4026 57.0064 37.6936 57.2442C37.9386 57.4844 38.0432 57.6329 38.1527 57.7882C38.2726 57.9582 38.3982 58.1364 38.7202 58.4522C39.0282 58.7541 39.2078 58.88 39.3875 59.0058C39.5671 59.1316 39.7468 59.2574 40.0547 59.5594C40.3727 59.8192 40.4991 59.9985 40.6177 60.1666C40.7288 60.3242 40.833 60.4719 41.0813 60.6667C41.3783 60.9094 41.5798 60.9882 41.7665 61.0612C41.9669 61.1397 42.1501 61.2113 42.4158 61.472C42.6608 61.7121 42.7421 61.8836 42.8271 62.0628C42.9202 62.2591 43.0178 62.4648 43.3398 62.7805C43.6477 63.0825 43.853 63.1832 44.0584 63.2838C44.2637 63.3845 44.469 63.4852 44.777 63.7871C45.0983 64.0497 45.1961 64.2301 45.3036 64.4283C45.4022 64.61 45.5089 64.8068 45.8035 65.0957C46.1115 65.3977 46.3168 65.4984 46.5221 65.599C46.7274 65.6997 46.9328 65.8003 47.2407 66.1023C47.562 66.3649 47.6599 66.5452 47.7674 66.7435C47.8659 66.9252 47.9727 67.122 48.2673 67.4109C48.5239 67.6625 48.6779 67.738 48.8319 67.8135C48.9859 67.889 49.1399 67.9645 49.3965 68.2162C49.7178 68.4787 49.8157 68.6591 49.9232 68.8573C50.0217 69.0391 50.1285 69.2359 50.4231 69.5248C50.7177 69.8137 50.9184 69.9183 51.1038 70.015C51.3059 70.1204 51.4899 70.2163 51.7576 70.5314C52.0796 70.8471 52.1772 71.0528 52.2703 71.2491C52.3553 71.4283 52.4366 71.5997 52.6815 71.8399C53.0035 72.1557 53.2133 72.2513 53.4135 72.3426C53.5963 72.426 53.7711 72.5057 54.0161 72.7459C54.3088 72.9755 54.4012 73.1397 54.5408 73.3877C54.646 73.5746 54.778 73.8091 55.0427 74.1551L55.1453 74.2558L55.4533 74.5578C55.5883 74.646 55.7431 74.773 55.883 74.8878C56.0621 75.0347 56.2169 75.1617 56.2745 75.1617C56.5812 75.3422 56.668 75.4867 56.7977 75.7026C56.8851 75.8481 56.9919 76.0259 57.1984 76.269C57.4701 76.5886 57.6267 76.6827 57.8053 76.79C57.9641 76.8854 58.1404 76.9912 58.4303 77.2756C58.811 77.5866 58.9172 77.7439 59.064 77.9612C59.1547 78.0955 59.2608 78.2528 59.4569 78.4835C59.7649 78.7855 59.9959 78.9365 60.2268 79.0875C60.4578 79.2385 60.6888 79.3894 60.9968 79.6914C61.3047 79.8927 61.7154 80.396 62.0233 81C64.3844 77.2756 67.6695 72.9472 71.9811 68.5182C77.3192 63.0825 82.6574 59.1568 87.0716 56.4389C86.3482 56.0449 85.8136 55.5891 85.3199 55.1682C85.1831 55.0516 85.0495 54.9376 84.9158 54.8284C84.7745 54.6205 84.6819 54.4604 84.6001 54.3192C84.4444 54.0501 84.3286 53.8499 83.9919 53.5198C83.7199 53.2976 83.528 53.1931 83.3455 53.0937C83.1146 52.968 82.8987 52.8505 82.5547 52.5132C82.2468 52.2112 82.1441 52.0351 82.0415 51.8589C81.9388 51.6828 81.8361 51.5066 81.5282 51.2046C81.2202 50.9026 81.0149 50.802 80.8096 50.7013C80.6043 50.6007 80.3989 50.5 80.091 50.198C79.7353 49.8492 79.6059 49.6238 79.4913 49.4239C79.3744 49.2201 79.2728 49.0429 78.9617 48.7888C78.6595 48.4924 78.4066 48.4142 78.1669 48.34C77.918 48.263 77.6833 48.1904 77.4219 47.8828C77.1693 47.5857 77.1156 47.3616 77.065 47.1507C77.0128 46.9329 76.964 46.7292 76.7033 46.4736C76.3953 46.1716 76.1387 46.0961 75.882 46.0206C75.6254 45.9451 75.3687 45.8696 75.0608 45.5677C74.8116 45.3233 74.756 45.1264 74.6942 44.9079C74.6288 44.6763 74.5564 44.4203 74.2395 44.0578C74.0197 43.7344 73.8293 43.6419 73.6053 43.533C73.4109 43.4386 73.1912 43.3318 72.905 43.0512C72.6103 42.7623 72.5036 42.5655 72.405 42.3837C72.2975 42.1855 72.1997 42.0051 71.8784 41.7426C71.5389 41.5048 71.2911 41.4243 71.07 41.3525C70.823 41.2722 70.6094 41.2028 70.3386 40.9373C69.9927 40.6547 69.9058 40.4038 69.8051 40.1133C69.7266 39.8866 69.6397 39.6357 69.4146 39.3267C69.0463 38.821 68.7308 38.6264 68.3163 38.3708C68.1533 38.2702 67.975 38.1602 67.7721 38.0182C67.6436 37.9552 67.5151 37.8527 67.3615 37.7109ZM36.8799 56.1368C36.959 56.204 37.0184 56.2376 37.0777 56.2376H37.1803C37.3072 56.2998 37.4341 56.4005 37.6095 56.5396C37.7179 56.6256 37.8447 56.7262 38.0016 56.8416L38.1042 56.9422C38.4122 57.1436 38.5149 57.3449 38.6175 57.5462C38.681 57.6706 38.7444 57.7566 38.8321 57.8754C38.8863 57.9489 38.9497 58.0348 39.0282 58.1502C39.1484 58.2681 39.2687 58.3515 39.3683 58.4206C39.4388 58.4694 39.4989 58.5111 39.5414 58.5528C39.7468 58.6535 39.9521 58.8548 40.26 59.1567L40.26 59.1568C40.4296 59.323 40.5369 59.4587 40.6334 59.5808C40.7122 59.6804 40.7837 59.7709 40.876 59.8614C40.9273 59.9117 40.953 59.962 40.9786 60.0124C41.0043 60.0627 41.03 60.113 41.0813 60.1634C41.0813 60.1634 41.184 60.264 41.2866 60.264C41.4043 60.3409 41.4919 60.4031 41.5668 60.4563C41.688 60.5423 41.7757 60.6045 41.9026 60.6667C42.1079 60.7673 42.3132 60.868 42.6212 61.17L42.7238 61.2706C43.0318 61.5726 43.1344 61.7739 43.2371 61.9753C43.2585 62.0173 43.2755 62.0549 43.2917 62.0909C43.3532 62.2274 43.404 62.3403 43.6477 62.5792C43.853 62.7805 43.9557 62.8812 44.161 62.9819C44.1887 62.9954 44.2183 63.009 44.2496 63.0234C44.4495 63.1152 44.7159 63.2376 44.9823 63.5858C45.2902 63.8878 45.3929 64.0891 45.4956 64.2904C45.559 64.4149 45.6224 64.5008 45.7101 64.6196C45.7643 64.6931 45.8278 64.7791 45.9062 64.8944C46.1115 65.0957 46.3168 65.1964 46.5221 65.297C46.7274 65.3977 46.9328 65.4984 47.2407 65.901C47.4103 66.0672 47.5176 66.203 47.6141 66.325C47.6928 66.4246 47.7644 66.5151 47.8567 66.6056C47.9593 66.8069 48.062 66.9076 48.2673 67.1089C48.4726 67.3102 48.5753 67.4109 48.7806 67.4109C48.9859 67.5116 49.1912 67.6122 49.4992 67.9142C49.8071 68.2162 49.9098 68.4175 50.0125 68.6188C50.0759 68.7432 50.1394 68.8292 50.227 68.948C50.2812 69.0215 50.3447 69.1074 50.4231 69.2228C50.6284 69.4241 50.8337 69.5248 51.039 69.6254C51.2443 69.7261 51.4497 69.8267 51.7576 70.1287C51.7576 70.1287 51.7576 70.2294 51.8603 70.2294C52.1109 70.4752 52.2256 70.7209 52.3149 70.9124C52.3354 70.9562 52.3545 70.9972 52.3736 71.0347C52.4011 71.0886 52.4212 71.1353 52.4399 71.1787C52.491 71.2971 52.5312 71.3906 52.6815 71.538C52.8869 71.7393 52.9895 71.8399 53.1948 71.8399L53.1949 71.8399C53.4002 71.9406 53.6055 72.0413 54.0161 72.3432C54.3241 72.6452 54.4267 72.8465 54.5294 73.0479C54.632 73.2492 54.7347 73.4505 55.0427 73.7525V73.8531L55.248 74.0545L55.3506 74.1551C55.4533 74.2558 55.6586 74.4571 56.0692 74.7591C56.1206 74.8094 56.1719 74.8346 56.2232 74.8597C56.2745 74.8849 56.3259 74.9101 56.3772 74.9604C56.5825 75.1617 56.6852 75.2624 56.6852 75.363C56.7878 75.5644 56.8905 75.665 57.0958 75.8663L57.0958 75.8663L57.1984 75.967C57.3187 76.0849 57.4038 76.1338 57.4742 76.1742C57.524 76.2029 57.5666 76.2273 57.6091 76.269C57.8144 76.3696 58.0197 76.4703 58.3277 76.8729C58.4972 77.0392 58.6045 77.1749 58.701 77.2969C58.7798 77.3966 58.8513 77.4871 58.9436 77.5776C59.0463 77.7789 59.1489 77.8795 59.3542 78.0809L59.4569 78.1815C59.5596 78.2822 59.6622 78.3577 59.7649 78.4332C59.8675 78.5087 59.9702 78.5842 60.0728 78.6848C60.2782 78.7855 60.5861 78.9868 60.8941 79.2888L61.6127 79.9934C64.4871 75.7657 67.6695 71.7393 71.2625 68.1155C75.5741 63.6865 80.5016 59.7607 85.7371 56.3383C85.4291 56.137 85.1212 55.9356 84.9158 55.6337C84.7105 55.533 84.6079 55.3317 84.5052 55.1304C84.2999 54.929 84.1972 54.7277 84.0946 54.5264C83.9919 54.3251 83.8893 54.1238 83.5813 53.9224C83.4637 53.8456 83.376 53.7833 83.3011 53.7302C83.1799 53.6442 83.0923 53.582 82.9654 53.5198C82.76 53.4191 82.5547 53.2178 82.2468 52.9158C82.1065 52.7784 82.0089 52.6409 81.9247 52.5224C81.824 52.3806 81.7427 52.2661 81.6308 52.2112C81.5674 52.0868 81.5039 52.0008 81.4162 51.882C81.3621 51.8086 81.2986 51.7226 81.2202 51.6073C81.0149 51.4059 80.8096 51.3053 80.6043 51.2046C80.3989 51.104 80.1936 51.0033 79.783 50.6007C79.4278 50.3395 79.3031 50.0783 79.2094 49.8822C79.1948 49.8516 79.1809 49.8226 79.1671 49.7954C79.1288 49.7579 79.1048 49.7065 79.0792 49.6515C79.0359 49.5588 78.988 49.4559 78.8591 49.3927L78.7564 49.2921C78.7152 49.2651 78.6776 49.2399 78.6427 49.2166C78.4173 49.0656 78.3045 48.9901 78.0378 48.9901C77.9996 48.9714 77.9578 48.9526 77.9132 48.9326C77.7179 48.845 77.4672 48.7326 77.2166 48.4868L77.1139 48.3861C76.8829 48.1597 76.7674 47.8766 76.6808 47.6642C76.652 47.5934 76.6263 47.5305 76.6006 47.4802C76.5731 47.4263 76.553 47.3795 76.5343 47.3362C76.4832 47.2177 76.443 47.1243 76.2927 46.9769C76.1424 46.8295 76.0471 46.79 75.9263 46.74C75.882 46.7216 75.8344 46.7019 75.7794 46.6749C75.4714 46.5743 75.1634 46.4736 74.7528 46.071C74.5218 45.8445 74.4063 45.5614 74.3197 45.349C74.2908 45.2783 74.2652 45.2154 74.2395 45.165C74.2053 45.0979 74.1825 45.0308 74.1597 44.9637C74.114 44.8295 74.0684 44.6953 73.9315 44.5611L73.8289 44.4604C73.7262 44.3597 73.6236 44.2591 73.4183 44.1584C73.2129 44.0578 72.905 43.8564 72.597 43.5545C72.289 43.2525 72.0837 42.9505 71.9811 42.7492C71.9586 42.705 71.941 42.6657 71.9251 42.6302C71.8685 42.5037 71.8334 42.4251 71.6731 42.3465L71.5704 42.2459C71.5139 42.2089 71.4643 42.1754 71.4197 42.1452C71.2213 42.011 71.1221 41.9439 70.9545 41.9439C70.6465 41.8432 70.4412 41.7426 70.0306 41.4406L69.9279 41.3399C69.6199 41.038 69.5173 40.736 69.4146 40.434C69.312 40.2327 69.2093 40.0314 69.1067 39.7294C69.004 39.6287 68.9014 39.5281 68.9014 39.4274C68.7987 39.3267 68.696 39.2512 68.5934 39.1757C68.4907 39.1003 68.3881 39.0248 68.2854 38.9241C68.0801 38.8234 67.8748 38.7228 67.6695 38.5215C67.5668 38.4711 67.4898 38.3956 67.4128 38.3201C67.3958 38.3035 67.3788 38.2868 67.3615 38.2704C67.3625 38.9378 67.376 39.6859 67.5668 40.434C67.7721 46.4736 68.5933 51.8086 69.5173 56.137C68.7987 55.9356 68.2854 55.9356 67.8747 55.9356C67.4762 55.9356 67.2227 55.9831 66.9618 56.0319C66.685 56.0836 66.3998 56.137 65.9243 56.137C65.5136 56.137 65.3083 56.0866 65.103 56.0363C64.8977 55.986 64.6924 55.9356 64.2817 55.9356C63.7908 55.9356 63.5607 55.9641 63.3451 55.9907C63.1549 56.0142 62.976 56.0363 62.6392 56.0363C62.2635 56.0363 62.0381 55.9942 61.8452 55.9581C61.6166 55.9153 61.4335 55.881 61.0994 55.9356C61.0618 55.9356 60.9555 55.9491 60.8206 55.9662C60.5871 55.9958 60.2681 56.0363 60.0728 56.0363H59.5595H59.4569C58.9511 55.9867 58.6945 55.9127 58.4784 55.8503C58.2559 55.7861 58.0763 55.7343 57.7117 55.7343C57.3524 55.7343 57.1471 55.8098 56.9418 55.8853C56.7365 55.9608 56.5311 56.0363 56.1718 56.0363C55.8125 56.0363 55.6072 55.9608 55.4019 55.8853C55.1966 55.8098 54.9913 55.7343 54.632 55.7343C54.2214 55.7343 54.0161 55.8098 53.8107 55.8853C53.6054 55.9608 53.4001 56.0363 52.9895 56.0363C52.5789 56.0363 52.3735 55.9608 52.1682 55.8853C51.9629 55.8098 51.7576 55.7343 51.347 55.7343C50.9877 55.7343 50.808 55.7847 50.6284 55.835C50.4487 55.8853 50.2691 55.9356 49.9098 55.9356C49.4652 55.9901 49.2613 55.9266 49.0374 55.8569C48.8478 55.7978 48.6439 55.7343 48.2673 55.7343C47.8192 55.6794 47.585 55.7443 47.3313 55.8147C47.1201 55.8733 46.8953 55.9356 46.5221 55.9356C46.1115 55.9356 45.9062 55.8853 45.7008 55.835C45.4955 55.7847 45.2902 55.7343 44.8796 55.7343C44.404 55.7343 44.1732 55.8143 43.9493 55.892C43.7381 55.9652 43.533 56.0363 43.1344 56.0363C42.7238 56.0363 42.5185 55.9608 42.3132 55.8853C42.1078 55.8098 41.9025 55.7343 41.4919 55.7343C41.103 55.7343 40.9246 55.7933 40.7126 55.8633C40.5328 55.9227 40.3289 55.9901 39.952 56.0363C39.6179 56.0909 39.4349 56.0567 39.2062 56.0139C39.0133 55.9778 38.788 55.9356 38.4122 55.9356C38.0978 55.9356 37.8989 55.9734 37.7448 56.0027C37.6474 56.0212 37.5678 56.0363 37.4883 56.0363C37.3085 56.1245 37.1287 56.1354 36.8799 56.1368Z" fill="#E6E7E8"/>
<path fill-rule="evenodd" clip-rule="evenodd" d="M36.5644 55.7343H36.8724C36.9066 55.7343 36.9408 55.7231 36.975 55.7119C37.0435 55.6896 37.1119 55.6672 37.1803 55.7343C37.4883 55.6337 37.6936 55.6337 38.2069 55.6337C38.4474 55.6337 38.6175 55.6682 38.7584 55.6968C38.8581 55.717 38.9431 55.7343 39.0282 55.7343H39.4388H39.6441C39.7644 55.7048 39.8582 55.684 39.936 55.6667C40.1237 55.625 40.2175 55.6042 40.3627 55.533C40.568 55.4323 40.876 55.3317 41.2866 55.3317H41.3893C41.9026 55.3317 42.1079 55.3317 42.3132 55.533C42.5185 55.6337 42.7238 55.6337 43.0318 55.6337C43.3398 55.6337 43.4424 55.6337 43.6477 55.533C43.6927 55.5183 43.7354 55.5036 43.7773 55.4893C44.0222 55.4051 44.2359 55.3317 44.6743 55.3317C45.1876 55.3317 45.3929 55.3317 45.7009 55.4323C45.7932 55.4323 45.8854 55.4527 45.9871 55.4751C46.1115 55.5025 46.2499 55.533 46.4195 55.533C46.66 55.533 46.7949 55.4985 46.9066 55.4698C46.9856 55.4496 47.053 55.4323 47.1381 55.4323C47.2176 55.4323 47.2972 55.4172 47.3946 55.3987C47.5487 55.3694 47.7476 55.3317 48.062 55.3317C48.4726 55.3317 48.7806 55.3317 48.9859 55.4323C49.1912 55.533 49.2939 55.533 49.6018 55.533H49.6018H49.7045C49.874 55.533 49.9813 55.5025 50.0778 55.4751C50.1566 55.4527 50.2281 55.4323 50.3204 55.4323C50.4055 55.4323 50.4905 55.4151 50.5902 55.3948C50.7311 55.3662 50.9011 55.3317 51.1417 55.3317H51.2443C51.655 55.3317 51.8603 55.3317 52.0656 55.4323C52.2709 55.533 52.4762 55.533 52.7842 55.533H52.7842H52.7842C53.1948 55.533 53.2975 55.533 53.5028 55.4323C53.5878 55.4323 53.6905 55.4151 53.8108 55.3948C53.9809 55.3662 54.1862 55.3317 54.4267 55.3317H54.5294C55.0427 55.3317 55.248 55.4323 55.4533 55.533C55.6586 55.6337 55.7613 55.6337 56.0692 55.6337C56.3772 55.6337 56.4799 55.6337 56.6852 55.533C56.8905 55.4323 57.1985 55.3317 57.6091 55.3317C58.0197 55.3317 58.3277 55.3317 58.3277 55.4323C58.533 55.533 58.841 55.6337 59.2516 55.6337H59.7649C59.8675 55.6337 60.1755 55.6337 60.6888 55.533H60.9968C61.1663 55.533 61.2736 55.5635 61.3701 55.5909C61.4489 55.6133 61.5204 55.6337 61.6127 55.6337C61.818 55.7343 62.0233 55.7343 62.3313 55.7343H62.3313H62.5366H63.0499C63.2552 55.6337 63.4605 55.6337 63.9738 55.6337C64.2882 55.6337 64.4871 55.6714 64.6412 55.7007C64.7386 55.7192 64.8182 55.7343 64.8977 55.7343C65.103 55.835 65.3084 55.835 65.6163 55.835H65.719C65.873 55.835 66.0013 55.8098 66.1296 55.7846C66.2579 55.7595 66.3863 55.7343 66.5402 55.7343C66.6832 55.7343 66.8261 55.7126 66.9793 55.6894C67.1562 55.6626 67.3468 55.6337 67.5668 55.6337C67.8748 55.6337 68.2854 55.6337 68.5934 55.7343C67.4642 50.7013 66.8482 45.6683 66.7456 40.6353V37.9175V37.2129C66.8482 32.1799 67.4642 27.1469 68.4907 22.2145C68.0801 22.3152 67.6695 22.3152 67.3615 22.3152H66.6429C66.4734 22.3152 66.3349 22.2847 66.2105 22.2572C66.1089 22.2349 66.0166 22.2145 65.9243 22.2145C65.6163 22.1139 65.411 22.1139 65.103 22.1139C64.9335 22.1139 64.7951 22.1444 64.6706 22.1718C64.569 22.1942 64.4767 22.2145 64.3844 22.2145C64.2994 22.2145 64.1967 22.2318 64.0765 22.252C63.9064 22.2806 63.7011 22.3152 63.4605 22.3152C63.0499 22.3152 62.7419 22.3152 62.5366 22.2145C62.3313 22.1139 62.126 22.1139 61.818 22.1139C61.5775 22.1139 61.4426 22.1484 61.3309 22.177C61.2519 22.1972 61.1845 22.2145 61.0994 22.2145C61.0199 22.2145 60.9403 22.2296 60.8429 22.2481C60.6888 22.2774 60.4899 22.3152 60.1755 22.3152C59.6622 22.3152 59.3543 22.2145 59.1489 22.1139C58.9436 22.0132 58.841 22.0132 58.6357 22.0132H58.4303C58.1224 22.0132 57.9171 22.1139 57.7117 22.2145C57.4038 22.4158 57.0958 22.5165 56.6852 22.5165H56.5825C56.1374 22.5165 55.8467 22.3651 55.6434 22.2592C55.6123 22.243 55.5832 22.2279 55.5559 22.2145C55.5009 22.1875 55.4533 22.1606 55.4091 22.1355C55.2882 22.0671 55.193 22.0132 55.0427 22.0132C54.799 22.0132 54.6838 22.0762 54.5447 22.1524C54.5079 22.1725 54.4696 22.1935 54.4267 22.2145C54.3465 22.2407 54.2663 22.2738 54.1825 22.3083C53.9444 22.4064 53.6771 22.5165 53.2975 22.5165C52.8524 22.5165 52.5616 22.3651 52.3584 22.2592C52.3272 22.243 52.2982 22.2279 52.2709 22.2145C52.0656 22.1139 51.8603 22.0132 51.5523 22.0132H51.4497C51.347 22.0132 51.27 22.0384 51.193 22.0635C51.116 22.0887 51.039 22.1139 50.9364 22.1139C50.7311 22.2145 50.4231 22.3152 49.9098 22.3152C49.3965 22.3152 49.0885 22.2145 48.8832 22.1139C48.6779 22.0132 48.5753 22.0132 48.3699 22.0132H48.2673C48.0236 22.0132 47.9085 22.0762 47.7693 22.1524C47.7326 22.1725 47.6942 22.1935 47.6514 22.2145C47.5587 22.2448 47.4754 22.2842 47.3902 22.3244C47.192 22.4181 46.9837 22.5165 46.6248 22.5165H46.5221C46.2312 22.5165 45.9918 22.4154 45.7674 22.3207C45.6751 22.2818 45.5853 22.2439 45.4956 22.2145C45.2902 22.1139 45.0849 22.0132 44.777 22.0132H44.3663C44.0584 22.0132 43.853 22.0132 43.5451 22.1139C43.4424 22.1139 43.1344 22.1139 43.1344 22.5165C42.8265 22.6172 42.4158 22.6172 42.1079 22.6172C41.6972 22.6172 41.2866 22.6172 40.876 22.5165C41.6972 24.2277 42.0052 25.8383 41.6972 27.3482C41.4919 28.4554 41.0813 29.1601 40.6707 29.764C40.26 30.368 39.9521 30.8713 39.7468 31.8779C39.3591 33.4934 39.7034 34.7501 40.0887 36.1561C40.1115 36.2394 40.1344 36.3232 40.1574 36.4076C40.1574 36.4076 40.4654 37.2129 40.7733 38.7228C41.4528 41.578 40.5721 44.5232 40.3005 45.4313C40.2849 45.4837 40.2712 45.5293 40.26 45.5677C39.3361 48.3861 37.7963 50.198 36.8724 51.2046C38.9255 45.165 39.2335 40.434 39.0282 39.528C39.0282 39.4777 39.0025 39.3771 38.964 39.2261C38.9255 39.0751 38.8742 38.8738 38.8228 38.6221C38.7202 38.3705 38.6432 38.0936 38.5662 37.8168C38.4892 37.54 38.4122 37.2632 38.3096 37.0115C37.8951 35.8737 37.4807 35.1952 37.1203 34.6052C37.0343 34.4645 36.9514 34.3288 36.8724 34.1931C36.3591 33.4884 36.0511 32.9851 35.8458 31.9785C35.6405 30.67 35.8458 29.9653 36.1538 29.1601C36.3591 28.5561 36.5644 27.9521 36.5644 26.9455C36.5644 25.4356 35.8458 23.8251 34.4086 22.2145H33.8953H32.9714C32.8019 22.2145 32.6945 22.245 32.5981 22.2724C32.5193 22.2948 32.4477 22.3152 32.3555 22.3152C32.1501 22.4158 31.8422 22.4158 31.4315 22.4158C31.191 22.4158 31.0209 22.3813 30.88 22.3527C30.7804 22.3324 30.6953 22.3152 30.6103 22.3152C30.5076 22.2145 30.3023 22.2145 30.097 22.2145H29.4811H28.9678C28.9834 22.3576 28.999 22.5009 29.0147 22.6445C29.3075 25.3293 29.6098 28.1003 30.097 30.8713C30.4191 32.7033 30.7413 34.1785 31.0126 35.4213C31.1737 36.1588 31.3168 36.8144 31.4315 37.4142C31.5244 37.9302 31.6173 38.4096 31.7073 38.8745C31.9159 39.9512 32.1094 40.95 32.2528 42.1452C32.7661 46.4736 32.2528 51.0033 30.8156 55.7343C31.1236 55.6337 31.3289 55.6337 31.6369 55.6337C32.0475 55.6337 32.3555 55.6337 32.5608 55.7343C32.7661 55.835 32.9714 55.835 33.2794 55.835C33.4489 55.835 33.5562 55.8045 33.6527 55.777C33.7315 55.7547 33.803 55.7343 33.8953 55.7343C33.9402 55.7196 33.983 55.7049 34.0248 55.6906C34.2698 55.6064 34.4835 55.533 34.9219 55.533H35.0245C35.1941 55.533 35.3325 55.5635 35.457 55.5909C35.5586 55.6133 35.6509 55.6337 35.7431 55.6337C35.9485 55.7343 36.0511 55.7343 36.2564 55.7343H36.5644ZM71.6731 68.2162C75.9847 63.7871 80.9122 59.8614 86.1477 56.4389C85.8398 56.2376 85.5318 56.0363 85.3265 56.0363C85.2751 55.9356 85.1982 55.8601 85.1212 55.7847C85.0442 55.7092 84.9672 55.6337 84.9158 55.533C84.8374 55.4177 84.774 55.3317 84.7198 55.2582C84.6321 55.1394 84.5687 55.0535 84.5052 54.929C84.4026 54.8284 84.3256 54.7277 84.2486 54.6271C84.1716 54.5264 84.0946 54.4257 83.9919 54.3251C83.8743 54.2482 83.7866 54.186 83.7117 54.1328C83.5906 54.0469 83.5029 53.9847 83.376 53.9224C83.2837 53.8319 83.1914 53.7618 83.0898 53.6845C82.9654 53.5899 82.8269 53.4847 82.6574 53.3185C82.2468 53.0165 82.1441 52.8152 82.0415 52.6139C81.9388 52.4125 81.8361 52.2112 81.6308 52.0099C81.5132 51.933 81.4255 51.8708 81.3506 51.8177C81.2295 51.7317 81.1418 51.6695 81.0149 51.6073C80.9226 51.5168 80.8096 51.4466 80.6851 51.3694C80.5327 51.2748 80.3632 51.1695 80.1936 51.0033C79.8856 50.7013 79.6803 50.3993 79.5777 50.198C79.5264 50.1477 79.475 50.0722 79.4237 49.9967C79.3724 49.9212 79.321 49.8457 79.2697 49.7954L79.1671 49.6947C78.9737 49.5683 78.8209 49.5213 78.6831 49.4789C78.6013 49.4537 78.5249 49.4302 78.4485 49.3927C78.4102 49.374 78.3685 49.3553 78.3238 49.3352C78.1285 49.2476 77.8778 49.1352 77.6272 48.8894L77.5245 48.7888C77.2227 48.4928 77.1427 48.2512 77.0808 48.064C77.0584 47.9966 77.0385 47.9362 77.0113 47.8828C76.9837 47.8289 76.9636 47.7822 76.9449 47.7388C76.8939 47.6203 76.8536 47.5269 76.7033 47.3795C76.6313 47.2383 76.5087 47.1961 76.3711 47.1488C76.3125 47.1287 76.2513 47.1076 76.19 47.0776C75.882 46.9769 75.5741 46.8762 75.1634 46.4736C74.9247 46.1614 74.8093 45.9098 74.7217 45.7186C74.6963 45.6632 74.6732 45.6129 74.6501 45.5677C74.6501 45.4033 74.5817 45.306 74.4448 45.1115C74.4141 45.0677 74.3798 45.0191 74.3422 44.9637C74.2395 44.9637 74.2395 44.863 74.2395 44.863C74.1594 44.7058 74.0792 44.6714 73.9502 44.6159C73.914 44.6003 73.8739 44.5831 73.8289 44.5611C73.6236 44.4604 73.3156 44.2591 73.0076 43.9571C72.6997 43.6551 72.4943 43.3531 72.3917 43.1518C72.289 42.9505 72.1864 42.8498 72.0837 42.7492L71.9811 42.6485C71.7757 42.5143 71.6617 42.4696 71.5476 42.4248C71.4906 42.4025 71.4336 42.3801 71.3651 42.3465C71.0571 42.2459 70.7492 42.1452 70.4412 41.8432L70.3385 41.7426C70.0306 41.4406 69.9279 41.1386 69.8253 40.8366C69.8253 40.6353 69.7226 40.434 69.5173 40.132C69.5173 40.0313 69.4146 39.9307 69.312 39.83C69.1067 39.6287 69.004 39.528 68.696 39.3267C68.4907 39.2261 68.2854 39.1254 68.0801 38.9241C67.9774 38.8738 67.9004 38.7983 67.8235 38.7228C67.7465 38.6473 67.6695 38.5718 67.5668 38.5214V40.736C67.7721 46.7756 68.5934 52.1106 69.5173 56.4389C68.7987 56.2376 68.2854 56.2376 67.8748 56.2376C67.4762 56.2376 67.2227 56.285 66.9618 56.3338C66.685 56.3856 66.3999 56.4389 65.9243 56.4389C65.5137 56.4389 65.3084 56.3886 65.103 56.3383C64.8977 56.288 64.6924 56.2376 64.2818 56.2376C63.7908 56.2376 63.5608 56.266 63.3451 56.2927C63.155 56.3162 62.976 56.3383 62.6393 56.3383C62.2635 56.3383 62.0382 56.2961 61.8453 56.26C61.6166 56.2173 61.4335 56.183 61.0994 56.2376C61.0618 56.2376 60.9555 56.2511 60.8207 56.2682C60.5871 56.2978 60.2681 56.3383 60.0728 56.3383H59.5596H59.4569C58.9511 56.2887 58.6946 56.2147 58.4785 56.1523C58.2559 56.0881 58.0763 56.0363 57.7117 56.0363C57.3524 56.0363 57.1471 56.1118 56.9418 56.1873C56.7365 56.2628 56.5312 56.3383 56.1719 56.3383C55.8126 56.3383 55.6073 56.2628 55.4019 56.1873C55.1966 56.1118 54.9913 56.0363 54.632 56.0363C54.2214 56.0363 54.0161 56.1118 53.8108 56.1873C53.6055 56.2628 53.4001 56.3383 52.9895 56.3383C52.5789 56.3383 52.3736 56.2628 52.1683 56.1873C51.9629 56.1118 51.7576 56.0363 51.347 56.0363C50.9877 56.0363 50.808 56.0866 50.6284 56.137C50.4487 56.1873 50.2691 56.2376 49.9098 56.2376C49.4652 56.2921 49.2613 56.2286 49.0375 56.1589C48.8478 56.0998 48.6439 56.0363 48.2673 56.0363C47.8192 55.9814 47.585 56.0463 47.3313 56.1167C47.1201 56.1753 46.8953 56.2376 46.5221 56.2376C46.1115 56.2376 45.9062 56.1873 45.7009 56.137C45.4955 56.0866 45.2902 56.0363 44.8796 56.0363C44.404 56.0363 44.1733 56.1163 43.9493 56.194C43.7381 56.2672 43.533 56.3383 43.1344 56.3383C42.7238 56.3383 42.5185 56.2628 42.3132 56.1873C42.1079 56.1118 41.9025 56.0363 41.4919 56.0363C41.103 56.0363 40.9246 56.0953 40.7126 56.1653C40.5328 56.2247 40.3289 56.2921 39.9521 56.3383C39.618 56.3929 39.4349 56.3586 39.2062 56.3159C39.0133 56.2798 38.788 56.2376 38.4122 56.2376C38.0978 56.2376 37.8989 56.2754 37.7448 56.3047C37.6474 56.3232 37.5678 56.3383 37.4883 56.3383H37.591C37.7963 56.4389 38.1042 56.6403 38.4122 56.9422L38.5149 57.0429C38.8228 57.3449 38.9255 57.4455 39.0282 57.6469C39.0496 57.6889 39.0665 57.7265 39.0827 57.7625C39.1442 57.899 39.1951 58.0119 39.4388 58.2508C39.6441 58.4521 39.7468 58.5528 39.9521 58.6535C39.9896 58.6903 40.0547 58.7406 40.1372 58.8045C40.2802 58.915 40.4754 59.066 40.6707 59.2574C40.8246 59.4587 40.953 59.5846 41.0556 59.6852C41.1583 59.7859 41.2353 59.8614 41.2866 59.962C41.2866 60.0627 41.3893 60.1634 41.4919 60.264C41.5433 60.264 41.5689 60.2892 41.5946 60.3144C41.6202 60.3395 41.6459 60.3647 41.6972 60.3647C41.9409 60.6036 42.0561 60.6535 42.1952 60.7138C42.232 60.7297 42.2703 60.7463 42.3132 60.7673C42.5185 60.868 42.7238 60.9686 43.0318 61.2706L43.1344 61.3713C43.4424 61.6733 43.5451 61.8746 43.6477 62.0759C43.7504 62.2772 43.853 62.4785 44.0583 62.6799C44.2637 62.8812 44.3663 62.9818 44.5716 63.0825C44.7769 63.1832 45.0849 63.3845 45.3929 63.6865C45.7009 63.9884 45.8035 64.1898 45.9062 64.3911C46.0088 64.5924 46.1115 64.7937 46.3168 64.995C46.4344 65.0719 46.5221 65.1342 46.597 65.1873C46.7182 65.2733 46.8059 65.3355 46.9327 65.3977C46.9887 65.5074 47.1055 65.5871 47.2501 65.6859C47.3709 65.7684 47.5111 65.8642 47.6513 66.0016C48.062 66.3036 48.1646 66.5049 48.2673 66.7063C48.3699 66.9076 48.4726 67.0082 48.6779 67.2096C48.7982 67.3275 48.9185 67.3763 49.0181 67.4168C49.0885 67.4454 49.1487 67.4699 49.1912 67.5115C49.3965 67.6122 49.6018 67.7129 49.9098 68.0149C50.2178 68.3168 50.3204 68.5182 50.4231 68.7195C50.5257 68.9208 50.6284 69.1221 50.8337 69.3234C50.9514 69.4003 51.039 69.4625 51.1139 69.5157C51.2351 69.6017 51.3228 69.6639 51.4497 69.7261C51.655 69.8267 51.8603 69.9274 52.1683 70.2294L52.2709 70.33C52.5789 70.7327 52.6815 70.934 52.7842 71.1353C52.7842 71.3366 52.8869 71.4373 53.0922 71.6386C53.2425 71.786 53.3378 71.8255 53.4586 71.8755C53.5028 71.8939 53.5504 71.9136 53.6054 71.9406C53.6437 71.9593 53.6854 71.9781 53.7301 71.9981C53.9254 72.0857 54.1761 72.1981 54.4267 72.4439C54.7347 72.7459 54.8373 72.9472 54.94 73.1485C55.0427 73.3498 55.1453 73.5512 55.4533 73.8531V73.9538C55.5167 73.9538 55.541 73.9922 55.5744 74.0454C55.5951 74.0782 55.6194 74.1167 55.6586 74.1551L55.7612 74.2558C55.8639 74.3564 56.0692 74.5578 56.4799 74.8597C56.5312 74.9101 56.5825 74.9352 56.6338 74.9604C56.6852 74.9856 56.7365 75.0107 56.7878 75.0611C56.8391 75.1114 56.8905 75.1869 56.9418 75.2624C56.9931 75.3379 57.0445 75.4134 57.0958 75.4637C57.1383 75.5054 57.1808 75.5644 57.2307 75.6334C57.3011 75.7311 57.3862 75.8491 57.5064 75.967L57.6091 76.0677C57.8144 76.1683 57.917 76.269 58.0197 76.3696C58.112 76.4601 58.2043 76.5303 58.3059 76.6075C58.4303 76.7021 58.5688 76.8074 58.7383 76.9736C59.1489 77.2756 59.2516 77.4769 59.3542 77.6782C59.3968 77.7199 59.4393 77.7789 59.4891 77.848C59.5596 77.9457 59.6446 78.0636 59.7649 78.1815L59.8675 78.2822L59.8676 78.2822C60.0729 78.4835 60.2782 78.6848 60.4835 78.7855C60.6888 78.8861 60.9968 79.0875 61.3047 79.3894C61.6127 79.5908 61.818 79.7921 62.0233 80.0941C64.8977 75.8663 68.0801 71.8399 71.6731 68.2162Z" fill="#939598"/>
<path d="M64.0894 38.9135C63.7955 34.875 64.2364 30.7356 65.2652 27C64.8242 30.5337 64.6773 33.9663 64.8242 37.5C64.8242 37.7019 64.8242 37.9038 64.8242 38.1058C64.9712 41.4375 65.7061 44.6683 66 48C64.9712 45.1731 64.2364 42.0433 64.0894 38.9135Z" fill="#939598"/>
<path d="M64.0894 38.9135C63.7955 34.875 64.2364 30.7356 65.2652 27C64.8242 30.5337 64.6773 33.9663 64.8242 37.5C64.8242 37.7019 64.8242 37.9038 64.8242 38.1058C64.9712 41.4375 65.7061 44.6683 66 48C64.9712 45.1731 64.2364 42.0433 64.0894 38.9135Z" fill="#939598"/>
<path d="M69 55.8C68.6923 55.8 68.2821 55.6 67.9744 55.6C67.4615 55.6 67.2564 55.6 66.9487 55.8C66.7436 55.8 66.5385 56 66.1282 56H66.0256C65.718 56 65.5128 56 65.3077 55.8C65.1026 55.8 64.8974 55.6 64.3846 55.6C63.8718 55.6 63.6667 55.6 63.4615 55.8C63.2564 55.8 63.1538 55.8 62.9487 55.8H62.7436C62.4359 55.8 62.2308 55.8 62.0256 55.6C61.8205 55.6 61.718 55.4 61.4103 55.4C61.3077 55.4 61.2051 55.4 61.1026 55.4C60.5897 55.6 60.2821 55.6 60.1795 55.6H59.6667C59.2564 55.6 58.9487 55.4 58.7436 55.2C58.5385 55 58.2308 55 57.8205 55C57.4103 55 57.1026 55.2 56.8974 55.4C56.6923 55.6 56.5897 55.6 56.2821 55.6C55.9744 55.6 55.8718 55.6 55.6667 55.4C55.4615 55.2 55.1538 55 54.7436 55H54.641C54.2308 55 53.9231 55.2 53.718 55.2C53.5128 55.4 53.4103 55.4 53 55.4C52.5897 55.4 52.4872 55.4 52.2821 55.2C52.0769 55 51.7692 55 51.359 55H51.2564C50.8462 55 50.641 55.2 50.4359 55.2C50.2308 55.2 50.1282 55.4 49.8205 55.4H49.7179C49.4103 55.4 49.3077 55.4 49.1026 55.2C48.8974 55 48.5897 55 48.1795 55C47.7692 55 47.4615 55.2 47.2564 55.2C47.0513 55.2 46.9487 55.4 46.5385 55.4C46.2308 55.4 46.0256 55.4 45.8205 55.2C45.6154 55 45.3077 55 44.8974 55C44.3846 55 44.0769 55.2 43.8718 55.4C43.6667 55.6 43.5641 55.6 43.2564 55.6C42.9487 55.6 42.7436 55.6 42.5385 55.4C42.3333 55.2 42.0256 55 41.6154 55H41.5128C41.1026 55 40.7949 55.2 40.5897 55.4C40.3846 55.6 40.2821 55.6 39.8718 55.8H39.6667C39.5641 55.8 39.4615 55.8 39.2564 55.8C39.0513 55.8 38.8462 55.6 38.4359 55.6C37.9231 55.6 37.7179 55.6 37.4103 55.8C37.3077 55.8 37.1026 55.8 37 56C37.2051 56 37.3077 56 37.4103 55.8C37.6154 55.8 37.9231 55.6 38.4359 55.6C38.8462 55.6 39.1538 55.6 39.2564 55.8C39.359 55.8 39.4615 55.8 39.6667 55.8H39.8718C40.1795 55.8 40.3846 55.6 40.5897 55.4C40.7949 55.2 41 55 41.5128 55H41.6154C42.0256 55 42.3333 55.2 42.5385 55.4C42.7436 55.6 42.8462 55.6 43.2564 55.6C43.5641 55.6 43.6667 55.6 43.8718 55.4C44.0769 55.2 44.3846 55 44.8974 55C45.3077 55 45.6154 55.2 45.8205 55.2C46.0256 55.2 46.1282 55.4 46.5385 55.4C46.8462 55.4 47.0513 55.4 47.2564 55.2C47.4615 55 47.7692 55 48.1795 55C48.5897 55 48.8974 55.2 49.1026 55.2C49.3077 55.2 49.4103 55.4 49.7179 55.4H49.8205C50.1282 55.4 50.2308 55.4 50.4359 55.2C50.641 55.2 50.8462 55 51.2564 55H51.359C51.7692 55 52.0769 55.2 52.2821 55.2C52.4872 55.4 52.5897 55.4 53 55.4C53.4103 55.4 53.5128 55.4 53.718 55.2C53.9231 55 54.1282 55 54.641 55H54.7436C55.1538 55 55.4615 55.2 55.6667 55.4C55.8718 55.6 55.9744 55.6 56.2821 55.6C56.5897 55.6 56.6923 55.6 56.8974 55.4C57.1026 55.2 57.4103 55 57.8205 55C58.2308 55 58.4359 55.2 58.7436 55.2C58.9487 55.4 59.1538 55.4 59.6667 55.6H60.1795C60.2821 55.6 60.5897 55.6 61.1026 55.4C61.2051 55.4 61.3077 55.4 61.4103 55.4C61.6154 55.4 61.8205 55.4 62.0256 55.6C62.2308 55.6 62.3333 55.8 62.7436 55.8H62.9487C63.1538 55.8 63.2564 55.8 63.4615 55.8C63.6667 55.8 63.8718 55.6 64.3846 55.6C64.8974 55.6 65.1026 55.6 65.3077 55.8C65.5128 55.8 65.6154 56 66.0256 56H66.1282C66.4359 56 66.641 56 66.9487 55.8C67.2564 55.8 67.5641 55.6 67.9744 55.6C68.2821 55.4 68.6923 55.4 69 55.8C69 55.6 69 55.6 69 55.8Z" fill="#939598"/>
<path d="M34.7886 33.9285C33.5739 39.5951 27.5003 43.0355 21.3255 41.72C15.0495 40.4046 11.0004 34.738 12.2152 29.0715C13.4299 23.4049 19.5034 19.9645 25.6782 21.28C31.853 22.5954 36.0033 28.262 34.7886 33.9285Z" fill="#EA9F22"/>
<path d="M32 31.6845C32 32.1925 32 32.7005 31.8951 33.2086C31.1605 36.6631 27.8025 39 23.9198 39H23.8148C23.1852 39 22.5556 39 21.9259 38.7968C19.5123 38.3904 17.4136 36.9679 16.0494 34.9358C15.3148 33.8182 15 32.4973 15 31.1765C15 30.6684 15.1049 30.1604 15.2099 29.5508C15.5247 27.7219 16.784 26.4011 17.8333 24.9786C18.2531 24.1658 18.6728 23.2513 19.0926 22.3369C19.4074 21.4225 20.142 20.7112 21.0864 20.3048C21.4012 20.2032 21.821 20.1016 22.2407 20.1016V20C22.6605 20 23.1852 20.1016 23.6049 20.2032C24.1296 20.3048 24.6543 20.508 25.179 20.8128C26.2284 21.5241 26.5432 22.7433 27.0679 23.7594C27.2778 24.2674 27.5926 24.7754 27.9074 25.1818C28.3272 25.5882 28.8519 25.893 29.3765 26.1979C29.6914 26.5027 29.9012 26.7059 30.1111 27.0107C31.3704 28.3316 32 29.9572 32 31.6845Z" fill="#EA8422"/>
<path d="M24 36.8884C22.3838 36.6838 20.4823 36.4791 19.3414 35.2512C19.0562 34.9442 18.771 34.5349 18.5808 34.2279C18.4858 34.0233 18.3907 33.8186 18.2956 33.614C18.2006 33.4093 18.1055 33.2047 18.0104 33C17.9153 33.8186 18.4858 34.8419 19.1513 35.3535C19.8168 36.0698 20.5774 36.4791 21.5281 36.7861C22.2887 36.9908 23.1443 37.0931 24 36.8884Z" fill="#EA9F22"/>
<path fill-rule="evenodd" clip-rule="evenodd" d="M64.2818 39.3267C64.3844 42.4472 64.8977 45.5677 65.719 48.3861C65.613 47.2435 65.4949 46.1128 65.3772 44.9857C65.1528 42.8364 64.9297 40.7006 64.7951 38.5215V37.9175C64.6924 34.3944 64.7951 30.9719 65.103 27.4488C64.3844 31.1733 64.0765 35.3003 64.2818 39.3267ZM71.4678 64.6931C73.9315 62.2772 76.6006 59.962 79.475 57.8482C73.7262 61.4719 67.7721 66.7063 64.2818 72.3432C65.0579 71.516 65.823 70.667 66.5915 69.8142C68.161 68.0725 69.745 66.3148 71.4678 64.6931Z" fill="#E6E7E8"/>
</svg>
