<svg width="300" height="300" viewBox="0 0 300 300" fill="none" xmlns="http://www.w3.org/2000/svg">
<path d="M107.125 89.0678L15.9324 99.6082C11.391 100.15 8 103.945 8 108.462V177.547C8 182.124 11.4515 185.919 15.993 186.401L48.6309 191.038L79.9972 220.792C80.5421 221.274 81.3899 220.853 81.3293 220.19L79.2705 194.351L105.248 195.917C110.455 196.459 115.057 192.484 115.118 187.244L116.995 98.1627C117.177 92.6817 112.514 88.4053 107.125 89.0678Z" fill="#E74011"/>
<path d="M282.55 112.015L190.133 118.029C185.476 118.332 181.847 122.22 181.787 126.897L181.001 194.505C180.94 199.425 184.811 203.434 189.65 203.556L207.492 204.102L201.504 234.049C201.383 234.778 202.23 235.325 202.774 234.778L236.281 205.014L279.526 206.35C284.425 206.471 288.538 202.645 288.719 197.785L291.985 121.43C292.288 116.024 287.873 111.711 282.55 112.015Z" fill="#F6B100"/>
<path d="M202.46 68.9764L106.457 64.0145C101.1 63.7119 96.6558 68.1898 97.021 73.5148L103.352 171.482C103.657 176.444 107.979 180.136 112.91 179.833L138.296 178.018L150.897 203.553C151.202 204.159 152.115 204.159 152.358 203.493L163.56 176.323L197.894 174.205C202.46 173.903 206.052 170.272 206.296 165.734L210.983 78.3557C211.287 73.4543 207.452 69.2185 202.46 68.9764Z" fill="#821B1C"/>
<path d="M154.236 139.345C152.72 139.345 151.386 139.891 150.356 140.982C149.325 142.073 148.779 143.346 148.779 144.923C148.779 146.439 149.325 147.772 150.356 148.803C151.386 149.834 152.72 150.379 154.236 150.379C155.812 150.379 157.146 149.834 158.237 148.803C159.329 147.772 159.874 146.439 159.874 144.923C159.874 143.346 159.329 142.013 158.237 140.921C157.146 139.891 155.812 139.345 154.236 139.345Z" fill="white"/>
<path d="M167.636 100.724C164.483 97.996 160.542 96.6016 155.874 96.6016C152.236 96.6016 148.962 97.4504 145.991 99.148C143.081 100.846 140.595 103.089 138.655 105.938L138.049 106.787L143.566 112.85L144.475 111.334C147.204 106.605 150.963 104.301 155.874 104.301C158.42 104.301 160.421 105.029 162.058 106.484C163.634 107.939 164.422 109.697 164.422 111.941C164.422 114.305 163.513 116.245 161.694 117.882C159.815 119.58 156.965 120.489 153.327 120.671L150.296 120.792V134.737H158.359V127.644C162.543 126.795 165.938 124.976 168.424 122.248C171.152 119.277 172.486 115.7 172.486 111.698C172.425 107.151 170.849 103.513 167.636 100.724Z" fill="white"/>
<path d="M61.1839 145.602L73.3809 129H66.3846L57.531 141.191L48.6773 129H41.681L53.878 145.602L41 163H47.9962L57.531 149.951L67.0037 163H74L61.1839 145.602Z" fill="white"/>
<path d="M227.33 181L213 165.6L217.578 161.096L227.449 171.687L252.541 146L257 150.565L227.33 181Z" fill="white"/>
</svg>
