<svg width="140" height="140" viewBox="0 0 140 140" fill="none" xmlns="http://www.w3.org/2000/svg">
<path d="M31.7245 60.2734L39.8482 58.3092L52.0338 55.3628L50.0556 47.2966L37.8699 50.2431L34.9025 38.144L26.7788 40.1083L29.7462 52.2073L31.7245 60.2734Z" fill="#333333"/>
<path fill-rule="evenodd" clip-rule="evenodd" d="M31.6299 53.1197L33.1858 59.4635L38.5992 58.1545C43.2975 45.459 55.5796 36.4082 70.0001 36.4082C88.4782 36.4082 103.445 51.2686 103.445 69.6156C103.445 78.33 100.068 86.2581 94.5421 92.1807C94.5421 92.1807 84.1004 86.1853 70.3776 86.1853C57.345 86.1853 47.4545 91.1168 45.7267 92.0347L45.7256 92.0542L38.1159 96.4546C45.7863 105.428 57.2274 111.124 70.0001 111.124C93.0767 111.124 111.805 92.5287 111.805 69.6156C111.805 46.7026 93.0767 28.1063 70.0001 28.1063C52.8263 28.1063 38.06 38.406 31.6299 53.1197ZM70.0001 77.9839C79.2391 77.9839 86.7221 70.5534 86.7221 61.38C86.7221 52.2064 79.2391 44.7764 70.0001 44.7764C60.761 44.7764 53.278 52.2064 53.278 61.38C53.278 70.5534 60.761 77.9839 70.0001 77.9839Z" fill="#333333"/>
</svg>
