<svg width="100" height="100" viewBox="0 0 100 100" fill="none" xmlns="http://www.w3.org/2000/svg">
<path d="M15.8028 55.0694L10 59L15.8028 55.0694C15.8028 55.0231 15.7578 55.0231 15.7578 55.0231L23 35L15.8028 55.0694Z" fill="#7C161E"/>
<path d="M84.1972 55.0231L90 59L84.1972 55.0231L77 35L84.1972 55.0231Z" fill="#7C161E"/>
<path d="M92 60.078C92 60.5851 91.598 61 91.1066 61L57.0666 58.9255C56.2179 58.8333 56.0392 58.7411 56.2179 59.3865C56.3519 59.7092 56.1285 60.1241 55.5925 60.078H44.3799C43.6204 60.1241 43.6651 59.5709 43.7545 59.3865C43.9778 58.8333 43.7545 58.8333 42.9057 58.9255L8.86578 61C8.77643 61 8.64242 61 8.55307 60.9539C8.10636 60.7695 7.883 60.2163 8.06168 59.7553L17.7108 35.7837C17.9342 35.3227 18.3362 35 18.8276 35H19.185L9.53585 58.8794C9.53585 58.9255 22.9374 60.1241 33.9713 58.2801C41.3868 57.0816 45.184 58.0957 45.184 58.0957C47.1495 54.8227 49.9638 54.4078 49.9638 54.4078C49.9638 54.4078 52.7782 54.8227 54.7437 58.0957C54.7437 58.0957 58.5408 57.0816 65.9563 58.2801C76.9903 60.1241 90.3918 58.9255 90.3918 58.8794L80.7427 35H81.1448C81.5915 35 82.0382 35.3227 82.2169 35.7837L91.866 59.7553C91.9107 59.8936 91.9553 59.9858 92 60.078Z" fill="#7C161E"/>
<path d="M49.8194 34.783C49.5484 40.77 49.5935 46.757 50 52.744V53.4382C49.9548 53.4382 49.9548 53.3948 49.9097 53.3948C45.4387 50.4013 36.5871 52.1366 31.4387 53.2212C26.3806 54.2625 15.5419 53.9588 15 53.9588L22.2258 35.1735L23.2194 32.5704C25.6581 32.6138 28.0516 32.4402 30.4452 31.963C33.7871 31.2689 36.9484 29.8806 40.3355 29.2732C43.7226 28.6658 47.5613 28.9695 50 31.2255V31.8763C49.9097 32.8307 49.8645 33.8285 49.8194 34.783Z" fill="white"/>
<path d="M24 33L22.918 35.5558L15.0492 54C15.0492 54 15.0492 54 15 54L22.918 35.5558L24 33Z" fill="white"/>
<path d="M23.0096 35.6943L15.7621 55.1382H15.8071L10 59L19.7235 35.7392L19.7685 35.6045L24 33L23.0096 35.6943Z" fill="#E9E9EA"/>
<path d="M24 33L23.0096 35.6943L15.8071 55.1382V55.1831L10 59L15.8071 55.1382C15.8071 55.1382 15.8071 55.1382 15.7621 55.1382L23.0096 35.6943L24 33Z" fill="#E9E9EA"/>
<path d="M50 54.6547C50 54.6547 47.2155 55.0228 45.2707 57.9272C45.2707 57.9272 41.5138 57.0273 34.1768 58.0908C23.2597 59.7271 10 58.6635 10 58.6226L15.7017 55.1456V55.1047C16.1878 55.1047 26.7956 55.391 31.7901 54.4092C36.8287 53.3866 45.4917 51.7503 49.8674 54.5729C49.9116 54.6138 49.9558 54.6138 50 54.6547Z" fill="#E9E9EA"/>
<path d="M15 54L10 59L15 54Z" fill="#C9CACC"/>
<path d="M85 53.9588C84.5032 53.9588 73.6645 54.2625 68.5613 53.2212C63.4129 52.1366 54.5613 50.4013 50.0903 53.3948C50.0452 53.3948 50.0452 53.4382 50 53.4382V52.744C50.3613 46.757 50.4065 40.77 50.1355 34.783C50.0903 33.8285 50.0452 32.8307 50 31.8763V31.2255C52.4387 28.9695 56.2774 28.6658 59.6645 29.2732C63.0516 29.8806 66.2129 31.2689 69.5548 31.963C71.9484 32.4402 74.3419 32.6138 76.7806 32.5704L77.7742 35.1735L85 53.9588Z" fill="white"/>
<path d="M85 54C84.9508 54 84.9508 54 85 54C84.9508 54 84.9508 54 84.9508 54L77.082 35.5558L76 33L77.082 35.5558L85 54Z" fill="white"/>
<path d="M84.1929 55.1382L76.9904 35.6943L76 33L80.2315 35.6045L80.2765 35.7392L90 59L84.1929 55.1382Z" fill="#E9E9EA"/>
<path d="M90 59L84.1929 55.1831V55.1382L76.9904 35.6943L76 33L76.9904 35.6943L84.2379 55.1382C84.2379 55.1382 84.2379 55.1382 84.1929 55.1382L90 59Z" fill="#E9E9EA"/>
<path d="M90 58.6226C90 58.6635 76.7403 59.7271 65.8232 58.0908C58.4862 57.0273 54.7293 57.9272 54.7293 57.9272C52.7845 55.0228 50 54.6547 50 54.6547C50.0442 54.6138 50.0884 54.6138 50.1326 54.5729C54.5083 51.7503 63.1713 53.3866 68.2099 54.4092C73.1602 55.391 83.768 55.1047 84.2983 55.1047V55.1456L90 58.6226Z" fill="#E9E9EA"/>
<path d="M90 59L85 54.0581V54L90 59Z" fill="#C9CACC"/>
<path d="M32 62.293L31.3938 65L29.6762 64.7247C29.2215 64.6329 28.9184 64.2659 29.0195 63.853C29.0195 63.853 29.0195 63.853 29.0195 63.8071L29.2721 62.6141C29.3731 62.2012 29.7772 61.9259 30.2319 62.0177L32 62.293Z" fill="#F26C56"/>
<path d="M68 69.1908L67.1729 69.474L67.8259 70L55.9846 67.815L34 63.7688L34.1741 63L68 69.1908Z" fill="#F8C35D"/>
<path d="M67.8217 71.171L67.0191 71.4611L67.6879 72L33 65.6166L33.1783 64.829L33.3567 64L55.8726 68.1451L68 70.3834L67.1529 70.6321L67.8217 71.171Z" fill="#E79E1A"/>
<path d="M68 70L56 68L68 70Z" fill="#F7B01A"/>
<path d="M34 62.6857L33.8209 63.7714L33.6418 64.9143L33.4627 66L31 65.3714L31.5373 62L32.9701 62.4H33.0149L34 62.6857Z" fill="#7B7C7F"/>
<path d="M34 64V64.05L33 65L34 64Z" fill="white"/>
<path d="M74 71.2373L73.8667 72H68.6667L68 71.339L68.8 70.983H68.8444H68.8L68.1333 70.322L68.9778 70.017H69.0222H68.9778L68.3111 69.3559L69.1556 69L74 71.2373Z" fill="#DC7927"/>
</svg>
