<svg width="100" height="100" viewBox="0 0 100 100" fill="none" xmlns="http://www.w3.org/2000/svg">
<path d="M63.6803 26.3323V34.9936H64.6993V40.6708C63.4619 40.5981 62.2974 40.5253 61.3512 40.5253V34.9936H62.2974V25.8228C62.2974 25.8228 62.2974 24.8038 63.5347 23.8576C64.2626 23.3481 65.7182 23.2753 65.7182 23.2753V24.8038C65.7182 24.8038 64.8448 24.8038 64.4809 25.0221C63.6075 25.4588 63.6803 26.3323 63.6803 26.3323Z" fill="#4F2212"/>
<path d="M32.7468 44.3829H31.8006V44.3101L31.8734 44.0917C32.1645 44.1645 32.4556 44.3101 32.7468 44.3829Z" fill="#4F2212"/>
<path d="M35.1487 42.1265C34.0569 41.617 32.9651 41.1803 31.8006 40.8892V34.9936H34.0569L35.1487 42.1265Z" fill="#4F2212"/>
<path d="M91.0473 45.6202V56.2468C88.791 56.2468 85.3701 56.3195 84.715 56.2468C80.9302 55.6645 83.7688 46.6392 84.6423 45.6202C85.2245 44.8924 88.791 45.2563 91.0473 45.6202Z" fill="#4F2212"/>
<path d="M44.9746 45.1835V51.5885C43.6645 49.1139 41.9904 47.0031 39.8797 45.1835H44.9746V45.1835Z" fill="#4F2212"/>
<path d="M44.0284 57.4841L43.7373 57.5569V56.3923C43.8828 56.7563 43.9556 57.1202 44.0284 57.4841Z" fill="#4F2212"/>
<path d="M52.3986 42.1993L51.6708 43.5822L46.7214 39.4335L44.9018 41.617L44.0284 40.962L48.6138 35.2848L49.4872 36.0126L47.6676 38.1962L52.3986 42.1993Z" fill="#4F2212"/>
<path d="M58.0758 50.4968V57.3385H47.0126C46.7942 56.1012 46.4303 54.8639 45.9936 53.6993H54.4366V47.8765L58.0758 50.4968Z" fill="#4F2212"/>
<path d="M49.56 20V22.1835H39.2974V44.7468C38.9335 44.4556 38.5695 44.1645 38.2056 43.9462V22.1835H28.4525V40.3069C27.7246 40.2341 26.9968 40.1614 26.2689 40.1614V22.1835H21.6835V20H49.56Z" fill="#7D1520"/>
<path d="M32.7468 44.3829H31.8006V44.3101L31.8734 44.0917C32.1645 44.1645 32.4556 44.3101 32.7468 44.3829Z" fill="#F3AD1C"/>
<path d="M84.6423 45.6202C83.7688 46.6392 80.9302 55.6645 84.715 56.2468C85.3701 56.3195 88.791 56.2468 91.0473 56.2468V56.7562H81.7309V44.674H91.0473V45.6202C88.791 45.2563 85.2245 44.8923 84.6423 45.6202Z" fill="#7D1520"/>
<path d="M91.6296 56.2468V57.6297H90.465V61.3417L86.2435 61.4873C84.9334 60.7594 83.4049 60.3227 81.7309 60.3227C79.9112 60.3227 78.1644 60.8322 76.7815 61.7784L69.503 61.9968L42.4271 66.0727C42.5727 65.7088 42.6455 65.2721 42.7183 64.9081L43.9556 65.1993C44.2468 63.9619 44.3195 62.7246 44.3195 61.4145V61.3417H43.155C43.155 60.1043 43.0094 58.9398 42.7911 57.7752L43.7373 57.5569L44.0284 57.4841C43.9556 57.1202 43.8828 56.7563 43.7373 56.3923C43.5189 55.5189 43.2278 54.6455 42.8638 53.8449L41.6993 54.3544C41.3354 53.4809 40.8987 52.6803 40.3892 51.9525C40.2436 51.7341 40.098 51.5158 39.9525 51.2974L40.9714 50.5696C40.2436 49.5506 39.3702 48.6044 38.424 47.731L37.5506 48.7499C36.6772 47.9493 35.731 47.2942 34.712 46.712L35.367 45.6202C35.1487 45.4746 34.9303 45.4018 34.712 45.2563C34.0569 44.8924 33.4018 44.674 32.7468 44.3829C32.4556 44.3101 32.1645 44.1645 31.8734 44.0917L31.8006 44.3101L31.5094 45.3291C30.4177 44.9651 29.2531 44.7468 28.0158 44.6012L28.1613 43.3639C27.5791 43.2911 26.924 43.2911 26.3417 43.2911C25.6867 43.2911 25.0316 43.2911 24.3765 43.3639L24.5221 44.6012C23.3576 44.7468 22.193 44.9651 21.1012 45.3291L20.7373 44.0917C20.3006 44.2373 19.9367 44.3829 19.5 44.5284V41.2531C21.6107 40.5253 23.8671 40.1613 26.1962 40.1613H26.2689C26.9968 40.1613 27.7246 40.2341 28.4525 40.3069C29.617 40.4525 30.7088 40.6708 31.8006 40.962C32.9651 41.2531 34.0569 41.6898 35.1487 42.1993C36.2404 42.7088 37.2594 43.2911 38.2056 43.9462C38.5696 44.2373 38.9335 44.4556 39.2974 44.7468C39.5158 44.8924 39.6613 45.0379 39.8797 45.1835C41.9904 46.9303 43.7373 49.1139 44.9746 51.5885C45.3385 52.2436 45.7025 52.9715 45.9936 53.6993C46.4303 54.8639 46.7942 56.1012 47.0126 57.3385H58.0758V50.4968L54.4366 47.8765L50.7974 45.2563L51.6708 43.5822L52.3986 42.1993L53.9271 39.2879L58.0758 42.0538V40.3797C58.0758 40.3797 59.386 40.4525 61.3512 40.5253C62.2974 40.5981 63.4619 40.5981 64.6993 40.6708C70.8859 40.962 79.6929 41.5443 82.9682 42.1265C89.81 43.3639 91.5568 44.8924 91.5568 44.8924V45.693C91.4112 45.693 91.1929 45.6202 91.0473 45.6202V44.674H81.7309V56.7563H91.0473V56.2468H91.6296Z" fill="#F3AD1C"/>
<path d="M44.0284 57.4841L43.7373 57.5569V56.3923C43.8828 56.7563 43.9556 57.1202 44.0284 57.4841Z" fill="#F3AD1C"/>
<path d="M43.7373 56.3923V57.5569L44.0284 57.4841C43.9556 57.1202 43.8828 56.7563 43.7373 56.3923ZM31.8734 44.0917L31.8006 44.3101V44.3829H32.7468C32.4556 44.3101 32.1645 44.1645 31.8734 44.0917Z" fill="#4F2212"/>
<path d="M43.155 61.3417C43.155 60.1044 43.0094 58.9398 42.7911 57.7752L43.7373 57.5569V56.3923C43.5189 55.5189 43.2278 54.6455 42.8639 53.8449L41.6993 54.3544C41.3354 53.4809 40.8987 52.6803 40.3892 51.9525C40.2436 51.7341 40.098 51.5158 39.9525 51.2974L40.9715 50.5696C40.2436 49.5506 39.3702 48.6044 38.424 47.731L37.5506 48.7499C36.6772 47.9493 35.731 47.2942 34.712 46.712L35.367 45.6202C35.1487 45.4746 34.9303 45.4018 34.712 45.2563C34.0569 44.8924 33.4018 44.674 32.7468 44.3829H31.8006V44.3101L31.5094 45.3291C30.4177 44.9651 29.2531 44.7468 28.0158 44.6012L28.1614 43.3639C27.5791 43.2911 26.924 43.2911 26.3417 43.2911C25.6867 43.2911 25.0316 43.2911 24.3766 43.3639L24.5221 44.6012C23.3576 44.7468 22.193 44.9651 21.1012 45.3291L20.7373 44.0917C20.3006 44.2373 19.9367 44.3829 19.5 44.5284C18.6993 44.8196 17.9715 45.2563 17.2437 45.6202L17.8987 46.712C16.7342 47.2942 15.788 48.0221 14.9145 48.8227L14.0411 47.8765C13.0949 48.7499 12.2215 49.6961 11.4937 50.7151L12.5126 51.443C11.8576 52.3892 11.2753 53.4082 10.7658 54.4999L9.60126 53.9904C9.09177 55.155 8.72785 56.3923 8.43671 57.6297L9.67405 57.9208C9.45569 59.0126 9.31012 60.1771 9.31012 61.4145H8C8 62.6518 8.14557 63.9619 8.43671 65.1993L9.67405 64.9081C9.8924 66.0727 10.3291 67.1645 10.7658 68.2562L9.60126 68.7657C10.1108 69.9303 10.7658 71.0221 11.4937 72.041L12.5126 71.3132C13.2405 72.2594 13.9683 73.1328 14.9145 73.9334L14.0411 74.8796C14.9873 75.7531 16.0063 76.4809 17.0981 77.136L17.7531 76.0442C18.7721 76.6265 19.8639 77.136 20.9557 77.4999L20.5917 78.7372C21.8291 79.1011 23.0664 79.3923 24.3038 79.5379L24.4493 78.3005C25.0316 78.3733 25.6139 78.3733 26.1962 78.3733C26.7784 78.3733 27.3607 78.3733 28.0158 78.3005L28.1614 79.5379C29.3987 79.3923 30.7088 79.1739 31.8734 78.7372L31.5094 77.4999C32.674 77.136 33.693 76.6265 34.712 76.0442L35.367 77.136C36.4588 76.4809 37.4778 75.7531 38.424 74.8796L37.5506 73.9334C38.424 73.1328 39.2246 72.2594 39.8797 71.3132L40.8987 72.041C41.6265 71.0221 42.2816 69.9303 42.7911 68.7657L41.6265 68.2562C41.9904 67.5284 42.2088 66.8005 42.4271 66.0727C42.5727 65.7088 42.6455 65.2721 42.7183 64.9081L43.9556 65.1993C44.2468 63.9619 44.3196 62.7246 44.3196 61.4145V61.3417H43.155V61.3417ZM26.269 70.6581C21.1012 70.6581 16.9525 66.5094 16.9525 61.3417C16.9525 58.867 17.8987 56.6107 19.5 54.9366C21.174 53.117 23.5759 52.0253 26.269 52.0253C31.0727 52.0253 35.0759 55.6645 35.5126 60.3955C35.5126 60.6866 35.5854 61.0506 35.5854 61.3417C35.5854 66.5094 31.4367 70.6581 26.269 70.6581Z" fill="#4F2212"/>
<path d="M35.5126 60.3955C35.0031 55.6645 31.0727 52.0253 26.269 52.0253C23.5759 52.0253 21.174 53.117 19.5 54.9366C17.8987 56.6107 16.9525 58.867 16.9525 61.3417C16.9525 66.5094 21.1012 70.6581 26.269 70.6581C31.4367 70.6581 35.5854 66.5094 35.5854 61.3417C35.5854 61.0506 35.5854 60.6866 35.5126 60.3955ZM26.269 68.0379C22.5569 68.0379 19.5728 65.0537 19.5728 61.3417C19.5728 61.0506 19.5728 60.6866 19.6455 60.3955C20.0823 57.1202 22.9209 54.6455 26.269 54.6455C29.617 54.6455 32.4556 57.1202 32.8924 60.3955C32.9651 60.6866 32.9651 61.0506 32.9651 61.3417C32.9651 65.0537 29.981 68.0379 26.269 68.0379Z" fill="#7D1520"/>
<path d="M32.8923 60.3955C32.4556 57.1202 29.617 54.6455 26.2689 54.6455C22.9208 54.6455 20.0822 57.1202 19.6455 60.3955C19.5728 60.6866 19.5728 61.0505 19.5728 61.3417C19.5728 65.0537 22.5569 68.0379 26.2689 68.0379C29.981 68.0379 32.9651 65.0537 32.9651 61.3417C32.9651 61.0505 32.9651 60.6866 32.8923 60.3955ZM26.2689 63.5252C25.0316 63.5252 24.0854 62.579 24.0854 61.3417C24.0854 60.9778 24.1582 60.6866 24.3038 60.3955C24.6677 59.6676 25.3955 59.1581 26.2689 59.1581C27.1424 59.1581 27.8702 59.6676 28.2341 60.3955C28.3797 60.6866 28.4525 60.9778 28.4525 61.3417C28.4525 62.579 27.5063 63.5252 26.2689 63.5252Z" fill="#4F2212"/>
<path d="M28.4525 61.3417C28.4525 62.579 27.5063 63.5252 26.2689 63.5252C25.0316 63.5252 24.0854 62.579 24.0854 61.3417C24.0854 60.9778 24.1582 60.6866 24.3038 60.3955C24.6677 59.6676 25.3955 59.1581 26.2689 59.1581C27.1424 59.1581 27.8702 59.6676 28.2341 60.3955C28.3797 60.6866 28.4525 60.9778 28.4525 61.3417Z" fill="#7D1520"/>
<path d="M86.2435 61.4873C84.9334 60.7594 83.4049 60.3227 81.7309 60.3227C79.9113 60.3227 78.1644 60.8322 76.7815 61.7784C74.1613 63.4524 72.4144 66.3638 72.4144 69.6391C72.4144 74.8068 76.5632 78.9556 81.7309 78.9556C86.8986 78.9556 91.0473 74.8068 91.0473 69.6391C91.0473 66.1455 89.0821 63.0885 86.2435 61.4873ZM81.7309 73.4239C79.6201 73.4239 77.9461 71.7499 77.9461 69.6391C77.9461 67.5284 79.6201 65.8543 81.7309 65.8543C83.8416 65.8543 85.5157 67.5284 85.5157 69.6391C85.5157 71.7499 83.8416 73.4239 81.7309 73.4239Z" fill="#4F2212"/>
<path d="M81.7309 65.8543C79.6201 65.8543 77.9461 67.5284 77.9461 69.6391C77.9461 71.7499 79.6201 73.4239 81.7309 73.4239C83.8416 73.4239 85.5157 71.7499 85.5157 69.6391C85.5157 67.5284 83.8416 65.8543 81.7309 65.8543ZM81.7309 71.8227C80.4935 71.8227 79.5473 70.8765 79.5473 69.6391C79.5473 68.4018 80.4935 67.4556 81.7309 67.4556C82.9682 67.4556 83.9144 68.4018 83.9144 69.6391C83.9144 70.8765 82.9682 71.8227 81.7309 71.8227Z" fill="#7D1520"/>
<path d="M81.7309 71.8227C82.9368 71.8227 83.9144 70.8451 83.9144 69.6391C83.9144 68.4332 82.9368 67.4556 81.7309 67.4556C80.5249 67.4556 79.5473 68.4332 79.5473 69.6391C79.5473 70.8451 80.5249 71.8227 81.7309 71.8227Z" fill="#4F2212"/>
</svg>
