<svg width="300" height="300" viewBox="0 0 300 300" fill="none" xmlns="http://www.w3.org/2000/svg">
<path d="M196.649 280H286.351C289.489 280 292 277.56 292 274.51V216H191V274.51C191 277.56 193.511 280 196.649 280Z" fill="white"/>
<path d="M292 176.601C292 173.489 289.489 171 286.351 171H196.649C193.511 171 191 173.489 191 176.601V205H292V176.601V176.601Z" fill="#821B1C"/>
<path d="M292 205H191V208H292V205Z" fill="#821B1C"/>
<path d="M292 208H191V212H292V208Z" fill="#821B1C"/>
<path d="M268 173C264.673 173 262 175.673 262 179C262 182.327 264.673 185 268 185C271.327 185 274 182.327 274 179C274 175.673 271.327 173 268 173Z" fill="#F5A999"/>
<path d="M215 173C211.673 173 209 175.673 209 179C209 182.327 211.673 185 215 185C218.327 185 221 182.327 221 179C221 175.673 218.267 173 215 173Z" fill="#F5A999"/>
<path d="M267.5 173C264.478 173 262 175.478 262 178.5C262 181.522 264.478 184 267.5 184C270.522 184 273 181.522 273 178.5C273 175.478 270.522 173 267.5 173Z" fill="#752515"/>
<path d="M267.672 157.845V182.564C269.812 182.564 271.557 180.819 271.557 178.679V161.674C271.557 159.59 269.812 157.845 267.672 157.845Z" fill="black"/>
<path d="M267.672 157.845C265.533 157.845 263.787 159.59 263.787 161.73V178.735C263.787 180.875 265.533 182.564 267.616 182.621V157.845H267.672Z" fill="black"/>
<path opacity="0.1" d="M267.672 157.845C265.533 157.845 263.787 159.59 263.787 161.73V178.735C263.787 180.875 265.533 182.564 267.616 182.621V157.845H267.672Z" fill="black"/>
<path d="M214.855 173.499C212.039 173.499 209.73 175.807 209.73 178.623C209.73 181.438 212.039 183.747 214.855 183.747C217.67 183.747 219.979 181.438 219.979 178.623C219.922 175.807 217.67 173.499 214.855 173.499Z" fill="#752515"/>
<path d="M214.854 157.845V182.564C216.993 182.564 218.739 180.819 218.739 178.679V161.674C218.739 159.59 216.993 157.845 214.854 157.845Z" fill="black"/>
<path d="M214.854 157.845C212.714 157.845 210.969 159.59 210.969 161.73V178.735C210.969 180.875 212.714 182.564 214.798 182.621V157.845H214.854Z" fill="black"/>
<path opacity="0.1" d="M214.854 157.845C212.714 157.845 210.969 159.59 210.969 161.73V178.735C210.969 180.875 212.714 182.564 214.798 182.621V157.845H214.854Z" fill="black"/>
<path d="M217.727 263.706V260.102H226.623V234.369C224.54 236.058 221.556 236.846 217.727 236.846V233.468C219.754 233.355 221.668 232.961 223.414 232.173C225.159 231.384 226.454 230.258 227.243 228.681H230.509V260.102H238.955V263.706H217.727V263.706Z" fill="#821B1C" stroke="#821B1C" stroke-width="5" stroke-miterlimit="10"/>
<path d="M247.628 260.102H265.985V263.706H243.574V262.579C243.574 258.919 244.363 255.879 245.996 253.401C247.572 250.924 250.5 248.671 254.78 246.644L255.737 246.194C257.877 245.18 259.51 244.054 260.636 242.815C261.762 241.633 262.325 240 262.325 237.916C262.325 236.002 261.649 234.481 260.242 233.355C258.834 232.229 257.088 231.609 254.949 231.609C252.865 231.609 251.063 232.229 249.656 233.468C248.248 234.707 247.065 236.339 246.277 238.31L243.687 235.664C244.7 233.355 246.164 231.497 248.079 230.089C249.993 228.738 252.246 228.062 254.949 228.062C258.102 228.062 260.748 228.963 262.945 230.765C265.141 232.567 266.267 235.157 266.267 238.479C266.267 240.844 265.591 242.871 264.183 244.561C262.776 246.25 260.692 247.827 257.877 249.291L255.061 250.698C250.219 253.176 247.797 256.273 247.628 260.102Z" fill="#821B1C" stroke="#821B1C" stroke-width="5" stroke-miterlimit="10"/>
<path d="M226.398 194.558H227.243L229.101 198.049L230.959 194.558H231.804L229.495 198.838V201.709H228.707V198.838L226.398 194.558Z" fill="white"/>
<path d="M237.603 201.766H232.93V194.615H237.603V195.347H233.662V197.768H237.491V198.5H233.662V201.034H237.603V201.766Z" fill="white"/>
<path d="M241.376 194.558H242.277L245.093 201.709H244.248L243.572 200.076H240.081L239.462 201.709H238.617L241.376 194.558ZM243.235 199.344L241.77 195.572L240.306 199.344H243.235Z" fill="white"/>
<path d="M251.399 201.766H250.441L248.583 199.119H246.894V201.766H246.105V194.615H248.583C249.371 194.615 249.991 194.84 250.498 195.234C251.004 195.628 251.23 196.191 251.23 196.867C251.23 197.43 251.061 197.88 250.779 198.275C250.498 198.669 250.047 198.894 249.484 199.063L251.399 201.766ZM248.752 195.29H246.894V198.331H248.752C249.259 198.331 249.709 198.218 249.991 197.937C250.329 197.655 250.441 197.317 250.441 196.811C250.441 196.304 250.272 195.966 249.991 195.684C249.709 195.459 249.259 195.29 248.752 195.29Z" fill="white"/>
<path d="M255.511 198.556L254.61 198.387C254.047 198.275 253.541 198.049 253.146 197.768C252.752 197.43 252.583 196.979 252.583 196.473C252.583 195.853 252.809 195.403 253.315 195.009C253.822 194.671 254.385 194.446 255.061 194.446C256.018 194.446 256.863 194.783 257.539 195.515L257.032 196.079C256.525 195.459 255.849 195.121 255.005 195.121C254.554 195.121 254.16 195.234 253.822 195.459C253.484 195.684 253.372 195.966 253.372 196.36C253.372 197.036 253.878 197.43 254.892 197.599L255.624 197.711C256.3 197.824 256.863 198.049 257.257 198.387C257.651 198.725 257.82 199.176 257.82 199.739C257.82 200.302 257.595 200.808 257.088 201.203C256.638 201.597 255.962 201.766 255.174 201.766C254.61 201.766 254.047 201.653 253.597 201.428C253.09 201.203 252.752 200.865 252.471 200.471L252.977 199.908C253.541 200.64 254.273 201.034 255.286 201.034C255.793 201.034 256.187 200.921 256.525 200.696C256.863 200.471 257.032 200.133 257.032 199.739C257.032 199.176 256.525 198.725 255.511 198.556Z" fill="white"/>
<path d="M10.5312 75H50.4688C51.875 75 53 73.8889 53 72.5V46H8V72.5C8 73.8889 9.125 75 10.5312 75Z" fill="white"/>
<path d="M53 27.6471C53 26.1765 51.875 25 50.4688 25H10.5312C9.125 25 8 26.1765 8 27.6471V41H53V27.6471Z" fill="#821B1C"/>
<path d="M53 41H8V43H53V41Z" fill="#821B1C"/>
<path d="M53 43H8V44H53V43Z" fill="#821B1C"/>
<path d="M42.5 27C41.1413 27 40 28.3043 40 30C40 31.6304 41.087 33 42.5 33C43.8587 33 45 31.6956 45 30C45 28.3696 43.8587 27 42.5 27Z" fill="#F5A999"/>
<path d="M18.5 27C17.1413 27 16 28.3043 16 30C16 31.6304 17.087 33 18.5 33C19.8587 33 21 31.6956 21 30C21 28.3696 19.8587 27 18.5 27Z" fill="#F5A999"/>
<path d="M42.5 27C41.0976 27 40 28.0976 40 29.5C40 30.9024 41.0976 32 42.5 32C43.9024 32 45 30.9024 45 29.5C45 28.1585 43.9024 27 42.5 27Z" fill="#752515"/>
<path d="M42.6621 20V31.1492C43.6194 31.1492 44.4077 30.3609 44.4077 29.4036V21.7456C44.4077 20.732 43.6194 20 42.6621 20Z" fill="black"/>
<path d="M42.6616 20C41.7043 20 40.916 20.7883 40.916 21.7456V29.4036C40.916 30.3609 41.7043 31.1492 42.6616 31.1492V20Z" fill="black"/>
<path opacity="0.1" d="M42.6616 20C41.7043 20 40.916 20.7883 40.916 21.7456V29.4036C40.916 30.3609 41.7043 31.1492 42.6616 31.1492V20Z" fill="black"/>
<path d="M18.7286 27.0386C17.4335 27.0386 16.4199 28.0521 16.4199 29.3472C16.4199 30.6424 17.4335 31.6559 18.7286 31.6559C20.0237 31.6559 21.0373 30.6424 21.0373 29.3472C21.0373 28.1084 20.0237 27.0386 18.7286 27.0386Z" fill="#752515"/>
<path d="M18.7305 20V31.1492C19.6877 31.1492 20.4761 30.3609 20.4761 29.4036V21.7456C20.4761 20.732 19.744 20 18.7305 20Z" fill="black"/>
<path d="M18.73 20C17.7727 20 16.9844 20.7883 16.9844 21.7456V29.4036C16.9844 30.3609 17.7727 31.1492 18.73 31.1492V20Z" fill="black"/>
<path opacity="0.1" d="M18.73 20C17.7727 20 16.9844 20.7883 16.9844 21.7456V29.4036C16.9844 30.3609 17.7727 31.1492 18.73 31.1492V20Z" fill="black"/>
<path d="M24.9238 67.8626V66.2297H28.9781V54.5737C28.0208 55.3057 26.6694 55.6999 24.9238 55.6999V54.1795C25.8248 54.1232 26.7257 53.9543 27.5141 53.6165C28.3024 53.2786 28.8655 52.7155 29.2596 52.0398H30.7237V66.2297H34.5527V67.8626H24.9238Z" fill="#821B1C" stroke="#821B1C" stroke-width="2" stroke-miterlimit="10"/>
<path d="M23.9668 36.5549H24.361L25.2056 38.1316L26.0502 36.5549H26.4444L25.3745 38.4694V39.7645H25.0367V38.4694L23.9668 36.5549Z" fill="white"/>
<path d="M29.0343 39.8207H26.8945V36.6111H29.0343V36.9489H27.2887V38.0188H29.0343V38.3567H27.2887V39.4828H29.0343V39.8207Z" fill="white"/>
<path d="M30.7232 36.5549H31.1173L32.4124 39.8209H32.0183L31.7367 39.0888H30.1601L29.8785 39.8209H29.4844L30.7232 36.5549ZM31.5678 38.751L30.8921 37.0617L30.2164 38.751H31.5678Z" fill="white"/>
<path d="M35.2849 39.8207H34.8907L34.0461 38.6382H33.2578V39.8207H32.9199V36.6111H34.0461C34.384 36.6111 34.7218 36.7237 34.8907 36.8926C35.116 37.0616 35.2286 37.3431 35.2286 37.6246C35.2286 37.8499 35.1723 38.0751 35.0034 38.244C34.8907 38.413 34.6655 38.5256 34.4403 38.5819L35.2849 39.8207ZM34.0461 36.8926H33.2015V38.3004H34.0461C34.2713 38.3004 34.4966 38.244 34.6092 38.1314C34.7218 38.0188 34.8344 37.8499 34.8344 37.6246C34.8344 37.3994 34.7781 37.2305 34.6092 37.1179C34.4966 36.9489 34.3276 36.8926 34.0461 36.8926Z" fill="white"/>
<path d="M37.1424 38.3567L36.7483 38.3004C36.4667 38.2441 36.2415 38.1315 36.0726 38.0189C35.9036 37.85 35.791 37.681 35.791 37.3995C35.791 37.1179 35.9036 36.8927 36.1289 36.7238C36.3541 36.5548 36.6357 36.4985 36.9172 36.4985C37.3677 36.4985 37.7055 36.6675 38.0434 37.0053L37.8181 37.2869C37.5929 37.0053 37.2551 36.8364 36.9172 36.8364C36.692 36.8364 36.523 36.8927 36.4104 37.0053C36.2978 37.1179 36.1852 37.2305 36.1852 37.3995C36.1852 37.681 36.4104 37.9063 36.8609 37.9626L37.1987 38.0189C37.5366 38.0752 37.7618 38.1878 37.9308 38.3567C38.0997 38.5257 38.2123 38.6946 38.2123 38.9761C38.2123 39.2577 38.0997 39.4829 37.8745 39.6518C37.6492 39.8208 37.3677 39.9334 37.0298 39.9334C36.7483 39.9334 36.523 39.8771 36.2978 39.7645C36.0726 39.6518 35.9036 39.5392 35.791 39.314L36.0163 39.0887C36.2415 39.4266 36.6357 39.5955 37.0298 39.5955C37.2551 39.5955 37.424 39.5392 37.5929 39.4266C37.7618 39.314 37.8181 39.2014 37.8181 38.9761C37.8181 38.6383 37.5929 38.4693 37.1424 38.3567Z" fill="white"/>
<path d="M67.5875 75H108.412C109.85 75 111 73.8889 111 72.5V46H65V72.5C65 73.8889 66.15 75 67.5875 75Z" fill="white"/>
<path d="M111 27.6471C111 26.1765 109.85 25 108.412 25H67.5875C66.15 25 65 26.1765 65 27.6471V41H111V27.6471Z" fill="#821B1C"/>
<path d="M111 41H65V43H111V41Z" fill="#821B1C"/>
<path d="M111 43H65V44H111V43Z" fill="#821B1C"/>
<path d="M99.5 27C98.1413 27 97 28.3043 97 30C97 31.6304 98.087 33 99.5 33C100.859 33 102 31.6956 102 30C102 28.3696 100.859 27 99.5 27Z" fill="#F5A999"/>
<path d="M75.5 27C74.1413 27 73 28.3043 73 30C73 31.6304 74.087 33 75.5 33C76.8587 33 78 31.6956 78 30C78 28.3696 76.8587 27 75.5 27Z" fill="#F5A999"/>
<path d="M99.5 27C98.0976 27 97 28.0976 97 29.5C97 30.9024 98.0976 32 99.5 32C100.902 32 102 30.9024 102 29.5C102 28.1585 100.902 27 99.5 27Z" fill="#752515"/>
<path d="M99.8711 20V31.1492C100.828 31.1492 101.617 30.3609 101.617 29.4036V21.7456C101.56 20.732 100.828 20 99.8711 20Z" fill="black"/>
<path d="M99.8139 20C98.8567 20 98.0684 20.7883 98.0684 21.7456V29.4036C98.0684 30.3609 98.8567 31.1492 99.8139 31.1492V20Z" fill="black"/>
<path opacity="0.1" d="M99.8139 20C98.8567 20 98.0684 20.7883 98.0684 21.7456V29.4036C98.0684 30.3609 98.8567 31.1492 99.8139 31.1492V20Z" fill="black"/>
<path d="M75.9415 27.0386C74.6464 27.0386 73.6328 28.0521 73.6328 29.3472C73.6328 30.6424 74.6464 31.6559 75.9415 31.6559C77.2366 31.6559 78.2502 30.6424 78.2502 29.3472C78.2502 28.1084 77.2366 27.0386 75.9415 27.0386Z" fill="#752515"/>
<path d="M75.9395 20V31.1492C76.8967 31.1492 77.685 30.3609 77.685 29.4036V21.7456C77.685 20.732 76.953 20 75.9395 20Z" fill="black"/>
<path d="M75.9389 20C74.9817 20 74.1934 20.7883 74.1934 21.7456V29.4036C74.1934 30.3609 74.9817 31.1492 75.9389 31.1492V20Z" fill="black"/>
<path opacity="0.1" d="M75.9389 20C74.9817 20 74.1934 20.7883 74.1934 21.7456V29.4036C74.1934 30.3609 74.9817 31.1492 75.9389 31.1492V20Z" fill="black"/>
<path d="M83.936 66.2297H92.2134V67.8627H82.0778V67.3559C82.0778 65.723 82.4156 64.3152 83.1477 63.1891C83.8797 62.0629 85.1748 61.0493 87.0893 60.1484L87.5398 59.9231C88.497 59.4727 89.229 58.9659 89.7358 58.4028C90.2426 57.8397 90.5242 57.1077 90.5242 56.2067C90.5242 55.3621 90.1863 54.6301 89.5669 54.1233C88.9475 53.6165 88.1592 53.335 87.1456 53.335C86.1884 53.335 85.4 53.6165 84.7243 54.1796C84.0486 54.7427 83.5418 55.4747 83.204 56.3756L82.0215 55.1932C82.472 54.1233 83.1477 53.2787 83.9923 52.6592C84.8369 52.0398 85.9068 51.7583 87.0893 51.7583C88.497 51.7583 89.7358 52.1525 90.6931 52.9971C91.7066 53.7854 92.2134 54.9679 92.2134 56.4883C92.2134 57.5581 91.8756 58.4591 91.2562 59.2474C90.6368 60.0357 89.6795 60.7114 88.3844 61.3872L87.1456 62.0066C85.1185 63.0764 84.0486 64.4842 83.936 66.2297Z" fill="#821B1C" stroke="#821B1C" stroke-width="2" stroke-miterlimit="10"/>
<path d="M81.1777 36.5549H81.5719L82.4165 38.1316L83.2612 36.5549H83.6553L82.5855 38.4694V39.7645H82.2476V38.4694L81.1777 36.5549Z" fill="white"/>
<path d="M86.2452 39.8207H84.1055V36.6111H86.2452V36.9489H84.4996V38.0188H86.2452V38.3567H84.4996V39.4828H86.2452V39.8207Z" fill="white"/>
<path d="M87.9357 36.5549H88.3299L89.5687 39.7645H89.1745L88.893 39.0325H87.3163L87.0348 39.8209H86.6406L87.9357 36.5549ZM88.7804 38.751L88.1047 37.0617L87.4289 38.751H88.7804Z" fill="white"/>
<path d="M92.4958 39.8207H92.1017L91.257 38.6382H90.4687V39.8207H90.1309V36.6111H91.257C91.5949 36.6111 91.9328 36.7237 92.1017 36.8926C92.3269 37.0616 92.4395 37.3431 92.4395 37.6246C92.4395 37.8499 92.3832 38.0751 92.2143 38.244C92.1017 38.413 91.8764 38.5256 91.6512 38.5819L92.4958 39.8207ZM91.257 36.8926H90.4124V38.3004H91.257C91.4823 38.3004 91.7075 38.244 91.8201 38.1314C91.9328 38.0188 92.0454 37.8499 92.0454 37.6246C92.0454 37.3994 91.9891 37.2305 91.8201 37.1179C91.7075 36.9489 91.5386 36.8926 91.257 36.8926Z" fill="white"/>
<path d="M94.3534 38.3567L93.9592 38.3004C93.6777 38.2441 93.4524 38.1315 93.2835 38.0189C93.1146 37.85 93.002 37.681 93.002 37.3995C93.002 37.1179 93.1146 36.8927 93.3398 36.7238C93.565 36.5548 93.8466 36.4985 94.1281 36.4985C94.5786 36.4985 94.9165 36.6675 95.2543 37.0053L95.0291 37.2869C94.8038 37.0053 94.466 36.8364 94.1281 36.8364C93.9029 36.8364 93.734 36.8927 93.6213 37.0053C93.5087 37.1179 93.3961 37.2305 93.3961 37.3995C93.3961 37.681 93.6213 37.9063 94.0718 37.9626L94.4097 38.0189C94.7475 38.0752 94.9728 38.1878 95.1417 38.3567C95.3106 38.5257 95.4232 38.6946 95.4232 38.9761C95.4232 39.2577 95.3106 39.4829 95.0854 39.6518C94.8602 39.8208 94.5786 39.9334 94.2408 39.9334C93.9592 39.9334 93.734 39.8771 93.5087 39.7645C93.2835 39.6518 93.1146 39.5392 93.002 39.314L93.2272 39.0887C93.4524 39.4266 93.8466 39.5955 94.2408 39.5955C94.466 39.5955 94.6349 39.5392 94.8038 39.4266C94.9728 39.314 95.0291 39.2014 95.0291 38.9761C95.0291 38.6383 94.8038 38.4693 94.3534 38.3567Z" fill="white"/>
<path d="M125.531 75H165.469C166.875 75 168 73.8889 168 72.5V46H123V72.5C123 73.8889 124.125 75 125.531 75Z" fill="white"/>
<path d="M168 27.6471C168 26.1765 166.875 25 165.469 25H125.531C124.125 25 123 26.1765 123 27.6471V41H168V27.6471Z" fill="#821B1C"/>
<path d="M168 41H123V43H168V41Z" fill="#821B1C"/>
<path d="M168 43H123V44H168V43Z" fill="#821B1C"/>
<path d="M157 27C155.37 27 154 28.3043 154 30C154 31.6304 155.304 33 157 33C158.63 33 160 31.6956 160 30C159.935 28.3696 158.63 27 157 27Z" fill="#F5A999"/>
<path d="M133 27C131.913 27 131 28.3043 131 30C131 31.6304 131.87 33 133 33C134.087 33 135 31.6956 135 30C135 28.3696 134.087 27 133 27Z" fill="#F5A999"/>
<path d="M157 27C155.317 27 154 28.0976 154 29.5C154 30.9024 155.317 32 157 32C158.683 32 160 30.9024 160 29.5C160 28.1585 158.683 27 157 27Z" fill="#752515"/>
<path d="M157.025 20V31.1492C157.983 31.1492 158.771 30.3609 158.771 29.4036V21.7456C158.771 20.732 158.039 20 157.025 20Z" fill="black"/>
<path d="M157.025 20C156.068 20 155.279 20.7883 155.279 21.7456V29.4036C155.279 30.3609 156.068 31.1492 157.025 31.1492V20Z" fill="black"/>
<path opacity="0.1" d="M157.025 20C156.068 20 155.279 20.7883 155.279 21.7456V29.4036C155.279 30.3609 156.068 31.1492 157.025 31.1492V20Z" fill="black"/>
<path d="M133.15 27.0386C131.855 27.0386 130.842 28.0521 130.842 29.3472C130.842 30.6424 131.855 31.6559 133.15 31.6559C134.446 31.6559 135.459 30.6424 135.459 29.3472C135.459 28.1084 134.446 27.0386 133.15 27.0386Z" fill="#752515"/>
<path d="M133.15 20V31.1492C134.108 31.1492 134.896 30.3609 134.896 29.4036V21.7456C134.896 20.732 134.108 20 133.15 20Z" fill="black"/>
<path d="M133.15 20C132.193 20 131.404 20.7883 131.404 21.7456V29.4036C131.404 30.3609 132.193 31.1492 133.15 31.1492V20Z" fill="black"/>
<path opacity="0.1" d="M133.15 20C132.193 20 131.404 20.7883 131.404 21.7456V29.4036C131.404 30.3609 132.193 31.1492 133.15 31.1492V20Z" fill="black"/>
<path d="M147.227 59.529C147.959 59.8105 148.579 60.3173 149.086 60.993C149.592 61.6687 149.818 62.457 149.818 63.4143C149.818 64.9346 149.311 66.0608 148.297 66.8491C147.284 67.6375 146.045 68.0316 144.581 68.0316C143.624 68.0316 142.666 67.8064 141.709 67.4122C140.752 67.0181 139.963 66.455 139.4 65.723L140.583 64.5405C141.653 65.7793 143.06 66.3987 144.693 66.3987C145.651 66.3987 146.439 66.1171 147.115 65.6103C147.79 65.1036 148.072 64.3715 148.072 63.358C148.072 62.4007 147.734 61.6687 147.002 61.2182C146.27 60.7678 145.313 60.5425 144.187 60.5425H143.004V58.9659H143.961C145.088 58.9659 145.989 58.6843 146.664 58.1775C147.34 57.6708 147.678 56.9387 147.678 55.9815C147.678 55.0805 147.34 54.4048 146.721 54.0107C146.101 53.5602 145.369 53.335 144.581 53.335C143.117 53.335 141.934 53.8981 140.921 55.0805L139.795 53.898C141.09 52.4903 142.666 51.7583 144.525 51.7583C145.82 51.7583 147.002 52.1525 147.959 52.8845C148.917 53.6165 149.423 54.6864 149.423 56.0378C149.423 56.8824 149.198 57.6708 148.691 58.2902C148.241 58.9096 147.79 59.36 147.227 59.529Z" fill="#821B1C" stroke="#821B1C" stroke-width="2" stroke-miterlimit="10"/>
<path d="M138.387 36.5549H138.781L139.626 38.1316L140.47 36.5549H140.864L139.794 38.4694V39.7645H139.457V38.4694L138.387 36.5549Z" fill="white"/>
<path d="M143.454 39.8207H141.314V36.6111H143.454V36.9489H141.652V38.0188H143.398V38.3567H141.652V39.4828H143.398V39.8207H143.454Z" fill="white"/>
<path d="M145.143 36.5549H145.537L146.776 39.7645H146.382L146.1 39.0325H144.524L144.242 39.7645H143.904L145.143 36.5549ZM145.988 38.751L145.312 37.0617L144.636 38.751H145.988Z" fill="white"/>
<path d="M149.704 39.8207H149.31L148.466 38.6382H147.677V39.8207H147.283V36.6111H148.409C148.747 36.6111 149.085 36.7237 149.254 36.8926C149.479 37.0616 149.592 37.3431 149.592 37.6246C149.592 37.8499 149.536 38.0751 149.367 38.244C149.254 38.413 149.029 38.5256 148.804 38.5819L149.704 39.8207ZM148.466 36.8926H147.621V38.3004H148.466C148.691 38.3004 148.916 38.244 149.029 38.1314C149.141 38.0188 149.254 37.8499 149.254 37.6246C149.254 37.3994 149.198 37.2305 149.029 37.1179C148.916 36.9489 148.747 36.8926 148.466 36.8926Z" fill="white"/>
<path d="M151.562 38.3567L151.168 38.3004C150.887 38.2441 150.661 38.1315 150.492 38.0189C150.324 37.85 150.211 37.681 150.211 37.3995C150.211 37.1179 150.324 36.8927 150.549 36.7238C150.774 36.5548 151.056 36.4985 151.337 36.4985C151.788 36.4985 152.125 36.6675 152.463 37.0053L152.238 37.2869C152.013 37.0053 151.675 36.8364 151.337 36.8364C151.112 36.8364 150.943 36.8927 150.83 37.0053C150.718 37.1179 150.605 37.2305 150.605 37.3995C150.605 37.681 150.83 37.9063 151.281 37.9626L151.619 38.0189C151.957 38.0752 152.182 38.1878 152.351 38.3567C152.52 38.5257 152.632 38.6946 152.632 38.9761C152.632 39.2577 152.52 39.4829 152.294 39.6518C152.069 39.8208 151.788 39.9334 151.45 39.9334C151.168 39.9334 150.943 39.8771 150.718 39.7645C150.492 39.6518 150.324 39.5392 150.211 39.314L150.436 39.0887C150.661 39.4266 151.056 39.5955 151.45 39.5955C151.675 39.5955 151.844 39.5392 152.013 39.4266C152.182 39.314 152.238 39.2014 152.238 38.9761C152.238 38.6383 152.013 38.4693 151.562 38.3567Z" fill="white"/>
<path d="M182.531 75H222.469C223.875 75 225 73.8889 225 72.5V46H180V72.5C180 73.8889 181.125 75 182.531 75Z" fill="white"/>
<path d="M225 27.6471C225 26.1765 223.875 25 222.469 25H182.531C181.125 25 180 26.1765 180 27.6471V41H225V27.6471Z" fill="#821B1C"/>
<path d="M225 41H180V43H225V41Z" fill="#821B1C"/>
<path d="M225 43H180V44H225V43Z" fill="#821B1C"/>
<path d="M214 27C212.37 27 211 28.3043 211 30C211 31.6304 212.304 33 214 33C215.63 33 217 31.6956 217 30C216.935 28.3696 215.63 27 214 27Z" fill="#F5A999"/>
<path d="M190.5 27C189.141 27 188 28.3043 188 30C188 31.6304 189.087 33 190.5 33C191.859 33 193 31.6956 193 30C193 28.3696 191.859 27 190.5 27Z" fill="#F5A999"/>
<path d="M214.5 27C213.098 27 212 28.0976 212 29.5C212 30.9024 213.098 32 214.5 32C215.902 32 217 30.9024 217 29.5C217 28.1585 215.902 27 214.5 27Z" fill="#752515"/>
<path d="M214.236 20V31.1492C215.194 31.1492 215.982 30.3609 215.982 29.4036V21.7456C215.982 20.732 215.25 20 214.236 20Z" fill="black"/>
<path d="M214.236 20C213.279 20 212.49 20.7883 212.49 21.7456V29.4036C212.49 30.3609 213.279 31.1492 214.236 31.1492V20Z" fill="black"/>
<path opacity="0.1" d="M214.236 20C213.279 20 212.49 20.7883 212.49 21.7456V29.4036C212.49 30.3609 213.279 31.1492 214.236 31.1492V20Z" fill="black"/>
<path d="M190.361 27.0386C189.066 27.0386 188.053 28.0521 188.053 29.3472C188.053 30.6424 189.066 31.6559 190.361 31.6559C191.657 31.6559 192.67 30.6424 192.67 29.3472C192.67 28.1084 191.657 27.0386 190.361 27.0386Z" fill="#752515"/>
<path d="M190.361 20V31.1492C191.319 31.1492 192.107 30.3609 192.107 29.4036V21.7456C192.107 20.732 191.319 20 190.361 20Z" fill="black"/>
<path d="M190.361 20C189.404 20 188.615 20.7883 188.615 21.7456V29.4036C188.615 30.3609 189.404 31.1492 190.361 31.1492V20Z" fill="black"/>
<path opacity="0.1" d="M190.361 20C189.404 20 188.615 20.7883 188.615 21.7456V29.4036C188.615 30.3609 189.404 31.1492 190.361 31.1492V20Z" fill="black"/>
<path d="M207.76 62.1756V63.8086H205.564V67.8065H203.818V63.8086H196.498V62.3445L203.931 51.9836H205.564V62.1756H207.76ZM203.818 54.6302L198.3 62.1756H203.818V54.6302Z" fill="#821B1C" stroke="#821B1C" stroke-width="2" stroke-miterlimit="10"/>
<path d="M195.598 36.5549H195.992L196.836 38.1316L197.681 36.5549H198.075L197.005 38.4694V39.7645H196.668V38.4694L195.598 36.5549Z" fill="white"/>
<path d="M200.665 39.8207H198.525V36.6111H200.665V36.9489H198.92V38.0188H200.665V38.3567H198.92V39.4828H200.665V39.8207Z" fill="white"/>
<path d="M202.356 36.5549H202.75L203.989 39.7645H203.594L203.313 39.0325H201.736L201.455 39.7645H201.061L202.356 36.5549ZM203.2 38.751L202.525 37.0617L201.849 38.751H203.2Z" fill="white"/>
<path d="M206.916 39.8207H206.522L205.677 38.6382H204.889V39.8207H204.551V36.6111H205.677C206.015 36.6111 206.353 36.7237 206.522 36.8926C206.747 37.0616 206.859 37.3431 206.859 37.6246C206.859 37.8499 206.803 38.0751 206.634 38.244C206.522 38.413 206.296 38.5256 206.071 38.5819L206.916 39.8207ZM205.677 36.8926H204.832V38.3004H205.677C205.902 38.3004 206.127 38.244 206.24 38.1314C206.353 38.0188 206.465 37.8499 206.465 37.6246C206.465 37.3994 206.409 37.2305 206.24 37.1179C206.127 36.9489 205.959 36.8926 205.677 36.8926Z" fill="white"/>
<path d="M208.773 38.3567L208.379 38.3004C208.098 38.2441 207.872 38.1315 207.703 38.0189C207.534 37.85 207.422 37.681 207.422 37.3995C207.422 37.1179 207.534 36.8927 207.76 36.7238C207.985 36.5548 208.267 36.4985 208.548 36.4985C208.999 36.4985 209.336 36.6675 209.674 37.0053L209.449 37.2869C209.224 37.0053 208.886 36.8364 208.548 36.8364C208.323 36.8364 208.154 36.8927 208.041 37.0053C207.929 37.1179 207.816 37.2305 207.816 37.3995C207.816 37.681 208.041 37.9063 208.492 37.9626L208.83 38.0189C209.167 38.0752 209.393 38.1878 209.562 38.3567C209.731 38.5257 209.843 38.6946 209.843 38.9761C209.843 39.2577 209.731 39.4829 209.505 39.6518C209.28 39.8208 208.999 39.9334 208.661 39.9334C208.379 39.9334 208.154 39.8771 207.929 39.7645C207.703 39.6518 207.534 39.5392 207.422 39.314L207.647 39.0887C207.872 39.4266 208.267 39.5955 208.661 39.5955C208.886 39.5955 209.055 39.5392 209.224 39.4266C209.393 39.314 209.449 39.2014 209.449 38.9761C209.449 38.6383 209.224 38.4693 208.773 38.3567Z" fill="white"/>
<path d="M10.5312 142H50.4688C51.875 142 53 140.851 53 139.414V112H8V139.414C8 140.851 9.125 142 10.5312 142Z" fill="white"/>
<path d="M53 94.6471C53 93.1765 51.875 92 50.4688 92H10.5312C9.125 92 8 93.1765 8 94.6471V108H53V94.6471Z" fill="#821B1C"/>
<path d="M53 108H8V109H53V108Z" fill="#821B1C"/>
<path d="M53 109H8V111H53V109Z" fill="#821B1C"/>
<path d="M42.5 94C41.1413 94 40 94.8696 40 96C40 97.087 41.087 98 42.5 98C43.8587 98 45 97.1304 45 96C45 94.913 43.8587 94 42.5 94Z" fill="#F5A999"/>
<path d="M18.5 94C17.1413 94 16 94.8696 16 96C16 97.087 17.087 98 18.5 98C19.8587 98 21 97.1304 21 96C21 94.913 19.8587 94 18.5 94Z" fill="#F5A999"/>
<path d="M42.5 94C41.0976 94 40 94.8781 40 96C40 97.1219 41.0976 98 42.5 98C43.9024 98 45 97.1219 45 96C45 94.8781 43.9024 94 42.5 94Z" fill="#752515"/>
<path d="M42.6621 86.3884V97.5376C43.6194 97.5376 44.4077 96.7493 44.4077 95.792V88.134C44.4077 87.1767 43.6194 86.3884 42.6621 86.3884Z" fill="black"/>
<path d="M42.6616 86.3884C41.7043 86.3884 40.916 87.1767 40.916 88.134V95.792C40.916 96.7493 41.7043 97.5376 42.6616 97.5376V86.3884Z" fill="black"/>
<path opacity="0.1" d="M42.6616 86.3884C41.7043 86.3884 40.916 87.1767 40.916 88.134V95.792C40.916 96.7493 41.7043 97.5376 42.6616 97.5376V86.3884Z" fill="black"/>
<path d="M18.7286 93.4834C17.4335 93.4834 16.4199 94.497 16.4199 95.7921C16.4199 97.0872 17.4335 98.1008 18.7286 98.1008C20.0237 98.1008 21.0373 97.0872 21.0373 95.7921C21.0373 94.497 20.0237 93.4834 18.7286 93.4834Z" fill="#752515"/>
<path d="M18.7305 86.3884V97.5376C19.6877 97.5376 20.4761 96.7493 20.4761 95.792V88.134C20.4761 87.1767 19.744 86.3884 18.7305 86.3884Z" fill="black"/>
<path d="M18.73 86.3884C17.7727 86.3884 16.9844 87.1767 16.9844 88.134V95.792C16.9844 96.7493 17.7727 97.5376 18.73 97.5376V86.3884Z" fill="black"/>
<path opacity="0.1" d="M18.73 86.3884C17.7727 86.3884 16.9844 87.1767 16.9844 88.134V95.792C16.9844 96.7493 17.7727 97.5376 18.73 97.5376V86.3884Z" fill="black"/>
<path d="M33.2022 129.352C33.2022 128.226 32.8643 127.381 32.1886 126.762C31.5129 126.143 30.6683 125.861 29.5984 125.861C28.9227 125.861 28.3033 126.03 27.7402 126.368C27.1771 126.706 26.7266 127.1 26.5014 127.607H24.9247L25.3189 118.485H33.7653V120.118H26.8393L26.614 125.467C26.8956 125.129 27.346 124.848 27.9654 124.622C28.5285 124.397 29.2042 124.284 29.88 124.284C31.2877 124.284 32.4702 124.735 33.4837 125.636C34.4973 126.537 35.0041 127.776 35.0041 129.409C35.0041 130.816 34.4973 132.055 33.4837 133.069C32.4702 134.082 31.1188 134.589 29.3732 134.589C27.4023 134.589 25.7694 133.801 24.418 132.168L25.6568 130.985C26.7266 132.337 27.9654 133.012 29.4295 133.012C30.4993 133.012 31.4003 132.675 32.1323 132.055C32.8643 131.267 33.2022 130.422 33.2022 129.352Z" fill="#821B1C" stroke="#821B1C" stroke-width="2" stroke-miterlimit="10"/>
<path d="M23.9668 103H24.361L25.2056 104.576L26.0502 103H26.4444L25.3745 104.914V106.209H25.0367V104.914L23.9668 103Z" fill="white"/>
<path d="M29.0343 106.266H26.8945V103.056H29.0343V103.394H27.2887V104.464H29.0343V104.801H27.2887V105.928H29.0343V106.266Z" fill="white"/>
<path d="M30.7232 103H31.1173L32.4124 106.266H32.0183L31.7367 105.534H30.1601L29.8785 106.266H29.4844L30.7232 103ZM31.5678 105.139L30.8921 103.45L30.2164 105.139H31.5678Z" fill="white"/>
<path d="M35.2849 106.266H34.8907L34.0461 105.083H33.2578V106.266H32.9199V103.056H34.0461C34.384 103.056 34.7218 103.169 34.8907 103.337C35.116 103.506 35.2286 103.788 35.2286 104.069C35.2286 104.295 35.1723 104.52 35.0034 104.689C34.8907 104.858 34.6655 104.97 34.4403 105.027L35.2849 106.266ZM34.0461 103.337H33.2015V104.745H34.0461C34.2713 104.745 34.4966 104.689 34.6092 104.576C34.7218 104.464 34.8344 104.295 34.8344 104.069C34.8344 103.844 34.7781 103.675 34.6092 103.563C34.4966 103.394 34.3276 103.337 34.0461 103.337Z" fill="white"/>
<path d="M37.1424 104.802L36.7483 104.745C36.4667 104.689 36.2415 104.576 36.0726 104.464C35.9036 104.295 35.791 104.126 35.791 103.844C35.791 103.563 35.9036 103.338 36.1289 103.169C36.3541 103 36.6357 102.943 36.9172 102.943C37.3677 102.943 37.7055 103.112 38.0434 103.45L37.8181 103.732C37.5929 103.45 37.2551 103.281 36.9172 103.281C36.692 103.281 36.523 103.338 36.4104 103.45C36.2978 103.563 36.1852 103.675 36.1852 103.844C36.1852 104.126 36.4104 104.351 36.8609 104.407L37.1987 104.464C37.5366 104.52 37.7618 104.633 37.9308 104.802C38.0997 104.97 38.2123 105.139 38.2123 105.421C38.2123 105.703 38.0997 105.928 37.8745 106.097C37.6492 106.266 37.3677 106.378 37.0298 106.378C36.7483 106.378 36.523 106.322 36.2978 106.209C36.0726 106.097 35.9036 105.984 35.791 105.759L36.0163 105.534C36.2415 105.871 36.6357 106.04 37.0298 106.04C37.2551 106.04 37.424 105.984 37.5929 105.871C37.7618 105.759 37.8181 105.646 37.8181 105.421C37.8181 105.083 37.5929 104.914 37.1424 104.802Z" fill="white"/>
<path d="M67.5875 142H108.412C109.85 142 111 140.851 111 139.414V112H65V139.414C65 140.851 66.15 142 67.5875 142Z" fill="white"/>
<path d="M111 94.6471C111 93.1765 109.85 92 108.412 92H67.5875C66.15 92 65 93.1765 65 94.6471V108H111V94.6471Z" fill="#821B1C"/>
<path d="M111 108H65V109H111V108Z" fill="#821B1C"/>
<path d="M111 109H65V111H111V109Z" fill="#821B1C"/>
<path d="M99.5 94C98.1413 94 97 94.8696 97 96C97 97.087 98.087 98 99.5 98C100.859 98 102 97.1304 102 96C102 94.913 100.859 94 99.5 94Z" fill="#F5A999"/>
<path d="M75.5 94C74.1413 94 73 94.8696 73 96C73 97.087 74.087 98 75.5 98C76.8587 98 78 97.1304 78 96C78 94.913 76.8587 94 75.5 94Z" fill="#F5A999"/>
<path d="M99.5 94C98.0976 94 97 94.8781 97 96C97 97.1219 98.0976 98 99.5 98C100.902 98 102 97.1219 102 96C102 94.8781 100.902 94 99.5 94Z" fill="#752515"/>
<path d="M99.8711 86.3884V97.5376C100.828 97.5376 101.617 96.7493 101.617 95.792V88.134C101.56 87.1767 100.828 86.3884 99.8711 86.3884Z" fill="black"/>
<path d="M99.8139 86.3884C98.8567 86.3884 98.0684 87.1767 98.0684 88.134V95.792C98.0684 96.7493 98.8567 97.5376 99.8139 97.5376V86.3884Z" fill="black"/>
<path opacity="0.1" d="M99.8139 86.3884C98.8567 86.3884 98.0684 87.1767 98.0684 88.134V95.792C98.0684 96.7493 98.8567 97.5376 99.8139 97.5376V86.3884Z" fill="black"/>
<path d="M75.9415 93.4834C74.6464 93.4834 73.6328 94.497 73.6328 95.7921C73.6328 97.0872 74.6464 98.1008 75.9415 98.1008C77.2366 98.1008 78.2502 97.0872 78.2502 95.7921C78.2502 94.497 77.2366 93.4834 75.9415 93.4834Z" fill="#752515"/>
<path d="M75.9395 86.3884V97.5376C76.8967 97.5376 77.685 96.7493 77.685 95.792V88.134C77.685 87.1767 76.953 86.3884 75.9395 86.3884Z" fill="black"/>
<path d="M75.9389 86.3884C74.9817 86.3884 74.1934 87.1767 74.1934 88.134V95.792C74.1934 96.7493 74.9817 97.5376 75.9389 97.5376V86.3884Z" fill="black"/>
<path opacity="0.1" d="M75.9389 86.3884C74.9817 86.3884 74.1934 87.1767 74.1934 88.134V95.792C74.1934 96.7493 74.9817 97.5376 75.9389 97.5376V86.3884Z" fill="black"/>
<path d="M87.8213 134.533C86.0757 134.533 84.668 133.801 83.5981 132.28C82.5846 130.76 82.0215 128.733 82.0215 126.255C82.0215 123.834 82.5283 121.863 83.5981 120.399C84.668 118.935 86.132 118.203 87.9339 118.203C89.7358 118.203 91.1999 118.879 92.326 120.23L91.1436 121.469C90.3552 120.343 89.2854 119.78 87.9339 119.78C86.6388 119.78 85.569 120.399 84.7243 121.638C83.936 122.877 83.5418 124.453 83.5981 126.424C84.0486 125.636 84.6117 125.017 85.4 124.622C86.1884 124.228 86.9767 124.003 87.765 124.003C89.1727 124.003 90.4115 124.51 91.4251 125.467C92.4387 126.424 93.0018 127.719 93.0018 129.24C93.0018 130.816 92.495 132.111 91.4251 133.069C90.4115 134.026 89.1727 134.533 87.8213 134.533ZM87.8213 125.636C86.8641 125.636 86.0757 125.974 85.4 126.649C84.7243 127.325 84.3865 128.17 84.3865 129.24C84.3865 130.253 84.7243 131.154 85.4 131.886C86.0757 132.618 86.9204 132.956 87.9339 132.956C88.8349 132.956 89.6232 132.618 90.2989 131.999C90.9746 131.379 91.3125 130.479 91.3125 129.296C91.3125 128.17 90.9746 127.325 90.2989 126.649C89.6232 125.974 88.7786 125.636 87.8213 125.636Z" fill="#821B1C" stroke="#821B1C" stroke-width="2" stroke-miterlimit="10"/>
<path d="M81.1777 103H81.5719L82.4165 104.576L83.2612 103H83.6553L82.5855 104.914V106.209H82.2476V104.914L81.1777 103Z" fill="white"/>
<path d="M86.2452 106.266H84.1055V103.056H86.2452V103.394H84.4996V104.464H86.2452V104.801H84.4996V105.928H86.2452V106.266Z" fill="white"/>
<path d="M87.9357 103H88.3299L89.5687 106.209H89.1745L88.893 105.477H87.3163L87.0348 106.266H86.6406L87.9357 103ZM88.7804 105.139L88.1047 103.45L87.4289 105.139H88.7804Z" fill="white"/>
<path d="M92.4958 106.266H92.1017L91.257 105.083H90.4687V106.266H90.1309V103.056H91.257C91.5949 103.056 91.9328 103.169 92.1017 103.337C92.3269 103.506 92.4395 103.788 92.4395 104.069C92.4395 104.295 92.3832 104.52 92.2143 104.689C92.1017 104.858 91.8764 104.97 91.6512 105.027L92.4958 106.266ZM91.257 103.337H90.4124V104.745H91.257C91.4823 104.745 91.7075 104.689 91.8201 104.576C91.9328 104.464 92.0454 104.295 92.0454 104.069C92.0454 103.844 91.9891 103.675 91.8201 103.563C91.7075 103.394 91.5386 103.337 91.257 103.337Z" fill="white"/>
<path d="M94.3534 104.802L93.9592 104.745C93.6777 104.689 93.4524 104.576 93.2835 104.464C93.1146 104.295 93.002 104.126 93.002 103.844C93.002 103.563 93.1146 103.338 93.3398 103.169C93.565 103 93.8466 102.943 94.1281 102.943C94.5786 102.943 94.9165 103.112 95.2543 103.45L95.0291 103.732C94.8038 103.45 94.466 103.281 94.1281 103.281C93.9029 103.281 93.734 103.338 93.6213 103.45C93.5087 103.563 93.3961 103.675 93.3961 103.844C93.3961 104.126 93.6213 104.351 94.0718 104.407L94.4097 104.464C94.7475 104.52 94.9728 104.633 95.1417 104.802C95.3106 104.97 95.4232 105.139 95.4232 105.421C95.4232 105.703 95.3106 105.928 95.0854 106.097C94.8602 106.266 94.5786 106.378 94.2408 106.378C93.9592 106.378 93.734 106.322 93.5087 106.209C93.2835 106.097 93.1146 105.984 93.002 105.759L93.2272 105.534C93.4524 105.871 93.8466 106.04 94.2408 106.04C94.466 106.04 94.6349 105.984 94.8038 105.871C94.9728 105.759 95.0291 105.646 95.0291 105.421C95.0291 105.083 94.8038 104.914 94.3534 104.802Z" fill="white"/>
<path d="M125.531 142H165.469C166.875 142 168 140.851 168 139.414V112H123V139.414C123 140.851 124.125 142 125.531 142Z" fill="white"/>
<path d="M168 94.6471C168 93.1765 166.875 92 165.469 92H125.531C124.125 92 123 93.1765 123 94.6471V108H168V94.6471Z" fill="#821B1C"/>
<path d="M168 108H123V109H168V108Z" fill="#821B1C"/>
<path d="M168 109H123V111H168V109Z" fill="#821B1C"/>
<path d="M157 94C155.37 94 154 94.8696 154 96C154 97.087 155.304 98 157 98C158.63 98 160 97.1304 160 96C159.935 94.913 158.63 94 157 94Z" fill="#F5A999"/>
<path d="M133 94C131.913 94 131 94.8696 131 96C131 97.087 131.87 98 133 98C134.087 98 135 97.1304 135 96C135 94.913 134.087 94 133 94Z" fill="#F5A999"/>
<path d="M157 94C155.317 94 154 94.8781 154 96C154 97.1219 155.317 98 157 98C158.683 98 160 97.1219 160 96C160 94.8781 158.683 94 157 94Z" fill="#752515"/>
<path d="M157.025 86.3884V97.5376C157.983 97.5376 158.771 96.7493 158.771 95.792V88.134C158.771 87.1767 158.039 86.3884 157.025 86.3884Z" fill="black"/>
<path d="M157.025 86.3884C156.068 86.3884 155.279 87.1767 155.279 88.134V95.792C155.279 96.7493 156.068 97.5376 157.025 97.5376V86.3884Z" fill="black"/>
<path opacity="0.1" d="M157.025 86.3884C156.068 86.3884 155.279 87.1767 155.279 88.134V95.792C155.279 96.7493 156.068 97.5376 157.025 97.5376V86.3884Z" fill="black"/>
<path d="M133.15 93.4834C131.855 93.4834 130.842 94.497 130.842 95.7921C130.842 97.0872 131.855 98.1008 133.15 98.1008C134.446 98.1008 135.459 97.0872 135.459 95.7921C135.459 94.497 134.446 93.4834 133.15 93.4834Z" fill="#752515"/>
<path d="M133.15 86.3884V97.5376C134.108 97.5376 134.896 96.7493 134.896 95.792V88.134C134.896 87.1767 134.108 86.3884 133.15 86.3884Z" fill="black"/>
<path d="M133.15 86.3884C132.193 86.3884 131.404 87.1767 131.404 88.134V95.792C131.404 96.7493 132.193 97.5376 133.15 97.5376V86.3884Z" fill="black"/>
<path opacity="0.1" d="M133.15 86.3884C132.193 86.3884 131.404 87.1767 131.404 88.134V95.792C131.404 96.7493 132.193 97.5376 133.15 97.5376V86.3884Z" fill="black"/>
<path d="M141.596 123.271H139.963V118.428H150.211V119.949C146.889 123.89 145.031 128.339 144.637 133.406L144.58 134.307H142.835L142.947 133.406C143.173 130.816 143.736 128.395 144.637 126.03C145.537 123.665 146.72 121.694 148.128 120.061H141.54V123.271H141.596Z" fill="#821B1C" stroke="#821B1C" stroke-width="2" stroke-miterlimit="10"/>
<path d="M138.387 103H138.781L139.626 104.576L140.47 103H140.864L139.794 104.914V106.209H139.457V104.914L138.387 103Z" fill="white"/>
<path d="M143.454 106.266H141.314V103.056H143.454V103.394H141.652V104.464H143.398V104.801H141.652V105.928H143.398V106.266H143.454Z" fill="white"/>
<path d="M145.143 103H145.537L146.776 106.209H146.382L146.1 105.477H144.524L144.242 106.209H143.904L145.143 103ZM145.988 105.139L145.312 103.45L144.636 105.139H145.988Z" fill="white"/>
<path d="M149.704 106.266H149.31L148.466 105.083H147.677V106.266H147.283V103.056H148.409C148.747 103.056 149.085 103.169 149.254 103.337C149.479 103.506 149.592 103.788 149.592 104.069C149.592 104.295 149.536 104.52 149.367 104.689C149.254 104.858 149.029 104.97 148.804 105.027L149.704 106.266ZM148.466 103.337H147.621V104.745H148.466C148.691 104.745 148.916 104.689 149.029 104.576C149.141 104.464 149.254 104.295 149.254 104.069C149.254 103.844 149.198 103.675 149.029 103.563C148.916 103.394 148.747 103.337 148.466 103.337Z" fill="white"/>
<path d="M151.562 104.802L151.168 104.745C150.887 104.689 150.661 104.576 150.492 104.464C150.324 104.295 150.211 104.126 150.211 103.844C150.211 103.563 150.324 103.338 150.549 103.169C150.774 103 151.056 102.943 151.337 102.943C151.788 102.943 152.125 103.112 152.463 103.45L152.238 103.732C152.013 103.45 151.675 103.281 151.337 103.281C151.112 103.281 150.943 103.338 150.83 103.45C150.718 103.563 150.605 103.675 150.605 103.844C150.605 104.126 150.83 104.351 151.281 104.407L151.619 104.464C151.957 104.52 152.182 104.633 152.351 104.802C152.52 104.97 152.632 105.139 152.632 105.421C152.632 105.703 152.52 105.928 152.294 106.097C152.069 106.266 151.788 106.378 151.45 106.378C151.168 106.378 150.943 106.322 150.718 106.209C150.492 106.097 150.324 105.984 150.211 105.759L150.436 105.534C150.661 105.871 151.056 106.04 151.45 106.04C151.675 106.04 151.844 105.984 152.013 105.871C152.182 105.759 152.238 105.646 152.238 105.421C152.238 105.083 152.013 104.914 151.562 104.802Z" fill="white"/>
<path d="M182.531 142H222.469C223.875 142 225 140.851 225 139.414V112H180V139.414C180 140.851 181.125 142 182.531 142Z" fill="white"/>
<path d="M225 94.6471C225 93.1765 223.875 92 222.469 92H182.531C181.125 92 180 93.1765 180 94.6471V108H225V94.6471Z" fill="#821B1C"/>
<path d="M225 108H180V109H225V108Z" fill="#821B1C"/>
<path d="M225 109H180V111H225V109Z" fill="#821B1C"/>
<path d="M214 94C212.37 94 211 94.8696 211 96C211 97.087 212.304 98 214 98C215.63 98 217 97.1304 217 96C216.935 94.913 215.63 94 214 94Z" fill="#F5A999"/>
<path d="M190.5 94C189.141 94 188 94.8696 188 96C188 97.087 189.087 98 190.5 98C191.859 98 193 97.1304 193 96C193 94.913 191.859 94 190.5 94Z" fill="#F5A999"/>
<path d="M214.5 94C213.098 94 212 94.8781 212 96C212 97.1219 213.098 98 214.5 98C215.902 98 217 97.1219 217 96C217 94.8781 215.902 94 214.5 94Z" fill="#752515"/>
<path d="M214.236 86.3884V97.5376C215.194 97.5376 215.982 96.7493 215.982 95.792V88.134C215.982 87.1767 215.25 86.3884 214.236 86.3884Z" fill="black"/>
<path d="M214.236 86.3884C213.279 86.3884 212.49 87.1767 212.49 88.134V95.792C212.49 96.7493 213.279 97.5376 214.236 97.5376V86.3884Z" fill="black"/>
<path opacity="0.1" d="M214.236 86.3884C213.279 86.3884 212.49 87.1767 212.49 88.134V95.792C212.49 96.7493 213.279 97.5376 214.236 97.5376V86.3884Z" fill="black"/>
<path d="M190.361 93.4834C189.066 93.4834 188.053 94.497 188.053 95.7921C188.053 97.0872 189.066 98.1008 190.361 98.1008C191.657 98.1008 192.67 97.0872 192.67 95.7921C192.67 94.497 191.657 93.4834 190.361 93.4834Z" fill="#752515"/>
<path d="M190.361 86.3884V97.5376C191.319 97.5376 192.107 96.7493 192.107 95.792V88.134C192.107 87.1767 191.319 86.3884 190.361 86.3884Z" fill="black"/>
<path d="M190.361 86.3884C189.404 86.3884 188.615 87.1767 188.615 88.134V95.792C188.615 96.7493 189.404 97.5376 190.361 97.5376V86.3884Z" fill="black"/>
<path opacity="0.1" d="M190.361 86.3884C189.404 86.3884 188.615 87.1767 188.615 88.134V95.792C188.615 96.7493 189.404 97.5376 190.361 97.5376V86.3884Z" fill="black"/>
<path d="M205.845 133.238C204.832 134.082 203.649 134.476 202.242 134.476C200.834 134.476 199.595 134.082 198.638 133.238C197.624 132.393 197.174 131.323 197.174 129.972C197.174 129.014 197.455 128.17 198.075 127.438C198.694 126.706 199.314 126.255 199.933 126.086C199.37 125.861 198.863 125.467 198.3 124.848C197.793 124.228 197.512 123.496 197.512 122.595C197.512 121.244 197.962 120.174 198.919 119.386C199.877 118.597 200.947 118.203 202.242 118.203C203.537 118.203 204.607 118.597 205.564 119.386C206.521 120.174 206.972 121.244 206.972 122.595C206.972 123.496 206.69 124.285 206.183 124.848C205.677 125.467 205.113 125.861 204.55 126.086C205.17 126.255 205.789 126.706 206.409 127.438C207.028 128.17 207.309 129.014 207.309 129.972C207.309 131.323 206.803 132.449 205.845 133.238ZM202.185 126.987C201.228 126.987 200.383 127.269 199.764 127.776C199.145 128.282 198.807 129.014 198.807 129.972C198.807 130.873 199.145 131.605 199.764 132.168C200.44 132.675 201.228 132.956 202.185 132.956C203.143 132.956 203.931 132.675 204.607 132.168C205.282 131.661 205.564 130.929 205.564 129.972C205.564 129.071 205.226 128.339 204.607 127.832C203.987 127.269 203.143 126.987 202.185 126.987ZM204.269 120.512C203.649 120.005 202.974 119.78 202.185 119.78C201.453 119.78 200.721 120.005 200.102 120.512C199.482 121.019 199.201 121.694 199.201 122.595C199.201 123.44 199.483 124.116 200.046 124.622C200.609 125.129 201.341 125.354 202.185 125.354C203.03 125.354 203.762 125.129 204.325 124.622C204.888 124.116 205.17 123.44 205.17 122.595C205.17 121.694 204.888 120.962 204.269 120.512Z" fill="#821B1C" stroke="#821B1C" stroke-width="2" stroke-miterlimit="10"/>
<path d="M195.598 103H195.992L196.836 104.576L197.681 103H198.075L197.005 104.914V106.209H196.668V104.914L195.598 103Z" fill="white"/>
<path d="M200.665 106.266H198.525V103.056H200.665V103.394H198.92V104.464H200.665V104.801H198.92V105.928H200.665V106.266Z" fill="white"/>
<path d="M202.356 103H202.75L203.989 106.209H203.594L203.313 105.477H201.736L201.455 106.209H201.061L202.356 103ZM203.2 105.139L202.525 103.45L201.849 105.139H203.2Z" fill="white"/>
<path d="M206.916 106.266H206.522L205.677 105.083H204.889V106.266H204.551V103.056H205.677C206.015 103.056 206.353 103.169 206.522 103.337C206.747 103.506 206.859 103.788 206.859 104.069C206.859 104.295 206.803 104.52 206.634 104.689C206.522 104.858 206.296 104.97 206.071 105.027L206.916 106.266ZM205.677 103.337H204.832V104.745H205.677C205.902 104.745 206.127 104.689 206.24 104.576C206.353 104.464 206.465 104.295 206.465 104.069C206.465 103.844 206.409 103.675 206.24 103.563C206.127 103.394 205.959 103.337 205.677 103.337Z" fill="white"/>
<path d="M208.773 104.802L208.379 104.745C208.098 104.689 207.872 104.576 207.703 104.464C207.534 104.295 207.422 104.126 207.422 103.844C207.422 103.563 207.534 103.338 207.76 103.169C207.985 103 208.267 102.943 208.548 102.943C208.999 102.943 209.336 103.112 209.674 103.45L209.449 103.732C209.224 103.45 208.886 103.281 208.548 103.281C208.323 103.281 208.154 103.338 208.041 103.45C207.929 103.563 207.816 103.675 207.816 103.844C207.816 104.126 208.041 104.351 208.492 104.407L208.83 104.464C209.167 104.52 209.393 104.633 209.562 104.802C209.731 104.97 209.843 105.139 209.843 105.421C209.843 105.703 209.731 105.928 209.505 106.097C209.28 106.266 208.999 106.378 208.661 106.378C208.379 106.378 208.154 106.322 207.929 106.209C207.703 106.097 207.534 105.984 207.422 105.759L207.647 105.534C207.872 105.871 208.267 106.04 208.661 106.04C208.886 106.04 209.055 105.984 209.224 105.871C209.393 105.759 209.449 105.646 209.449 105.421C209.449 105.083 209.224 104.914 208.773 104.802Z" fill="white"/>
<path d="M10.5312 208H50.4688C51.875 208 53 206.889 53 205.5V179H8V205.5C8 206.889 9.125 208 10.5312 208Z" fill="white"/>
<path d="M53 160.647C53 159.176 51.875 158 50.4688 158H10.5312C9.125 158 8 159.176 8 160.647V174H53V160.647Z" fill="#821B1C"/>
<path d="M53 174H8V175H53V174Z" fill="#821B1C"/>
<path d="M53 175H8V177H53V175Z" fill="#821B1C"/>
<path d="M42.5 160C41.1413 160 40 161.087 40 162.5C40 163.859 41.087 165 42.5 165C43.8587 165 45 163.913 45 162.5C45 161.141 43.8587 160 42.5 160Z" fill="#F5A999"/>
<path d="M18.5 160C17.1413 160 16 161.087 16 162.5C16 163.859 17.087 165 18.5 165C19.8587 165 21 163.913 21 162.5C21 161.141 19.8587 160 18.5 160Z" fill="#F5A999"/>
<path d="M42.5 160C41.0976 160 40 161.098 40 162.5C40 163.902 41.0976 165 42.5 165C43.9024 165 45 163.902 45 162.5C45 161.098 43.9024 160 42.5 160Z" fill="#752515"/>
<path d="M42.6621 152.833V163.982C43.6194 163.982 44.4077 163.194 44.4077 162.237V154.579C44.4077 153.621 43.6194 152.833 42.6621 152.833Z" fill="black"/>
<path d="M42.6616 152.833C41.7043 152.833 40.916 153.621 40.916 154.579V162.237C40.916 163.194 41.7043 163.982 42.6616 163.982V152.833Z" fill="black"/>
<path opacity="0.1" d="M42.6616 152.833C41.7043 152.833 40.916 153.621 40.916 154.579V162.237C40.916 163.194 41.7043 163.982 42.6616 163.982V152.833Z" fill="black"/>
<path d="M18.7286 159.928C17.4335 159.928 16.4199 160.942 16.4199 162.237C16.4199 163.532 17.4335 164.546 18.7286 164.546C20.0237 164.546 21.0373 163.532 21.0373 162.237C21.0373 160.942 20.0237 159.928 18.7286 159.928Z" fill="#752515"/>
<path d="M18.7305 152.833V163.982C19.6877 163.982 20.4761 163.194 20.4761 162.237V154.579C20.4761 153.621 19.744 152.833 18.7305 152.833Z" fill="black"/>
<path d="M18.73 152.833C17.7727 152.833 16.9844 153.621 16.9844 154.579V162.237C16.9844 163.194 17.7727 163.982 18.73 163.982V152.833Z" fill="black"/>
<path opacity="0.1" d="M18.73 152.833C17.7727 152.833 16.9844 153.621 16.9844 154.579V162.237C16.9844 163.194 17.7727 163.982 18.73 163.982V152.833Z" fill="black"/>
<path d="M29.0356 184.592C30.7812 184.592 32.1326 185.324 33.2025 186.844C34.2723 188.364 34.7791 190.391 34.7791 192.869C34.7791 195.347 34.2723 197.317 33.2588 198.725C32.2452 200.133 30.7812 200.865 28.8666 200.865C27.0648 200.865 25.6007 200.189 24.5308 198.838L25.7133 197.599C26.5017 198.725 27.5715 199.288 28.8666 199.288C30.2744 199.288 31.4006 198.669 32.1326 197.486C32.9209 196.248 33.2588 194.671 33.1461 192.7C32.6957 193.488 32.1326 194.108 31.3442 194.502C30.5559 194.896 29.7676 195.121 28.9793 195.121C27.5715 195.121 26.389 194.615 25.3755 193.657C24.3619 192.7 23.7988 191.405 23.7988 189.828C23.7988 188.252 24.3056 186.957 25.3755 185.999C26.4454 185.042 27.6842 184.592 29.0356 184.592ZM29.0356 193.488C29.9928 193.488 30.8375 193.151 31.5132 192.475C32.1889 191.799 32.4704 191.011 32.4704 189.997C32.4704 188.927 32.1326 188.026 31.4569 187.294C30.7812 186.562 29.9365 186.225 28.923 186.225C27.9657 186.225 27.1774 186.562 26.558 187.182C25.8823 187.801 25.6007 188.702 25.6007 189.885C25.6007 190.954 25.9386 191.855 26.6706 192.531C27.3463 193.151 28.1346 193.488 29.0356 193.488Z" fill="#821B1C" stroke="#821B1C" stroke-width="2" stroke-miterlimit="10"/>
<path d="M23.9668 169.444H24.361L25.2056 171.021L26.0502 169.444H26.4444L25.3745 171.359V172.654H25.0367V171.359L23.9668 169.444Z" fill="white"/>
<path d="M29.0343 172.71H26.8945V169.444H29.0343V169.782H27.2887V170.852H29.0343V171.19H27.2887V172.316H29.0343V172.71Z" fill="white"/>
<path d="M30.7232 169.444H31.1173L32.4124 172.71H32.0183L31.7367 171.978H30.1601L29.8785 172.71H29.4844L30.7232 169.444ZM31.5678 171.584L30.8921 169.895L30.2164 171.584H31.5678Z" fill="white"/>
<path d="M35.2849 172.71H34.8907L34.0461 171.528H33.2578V172.71H32.9199V169.444H34.0461C34.384 169.444 34.7218 169.557 34.8907 169.726C35.0597 169.895 35.2286 170.176 35.2286 170.458C35.2286 170.683 35.1723 170.908 35.0034 171.077C34.8907 171.246 34.6655 171.359 34.4403 171.415L35.2849 172.71ZM34.0461 169.782H33.2015V171.19H34.0461C34.2713 171.19 34.4966 171.134 34.6092 171.021C34.7218 170.908 34.8344 170.739 34.8344 170.514C34.8344 170.289 34.7781 170.12 34.6092 170.007C34.4966 169.838 34.3276 169.782 34.0461 169.782Z" fill="white"/>
<path d="M37.1424 171.246L36.7483 171.19C36.4667 171.134 36.2415 171.021 36.0726 170.908C35.9036 170.796 35.791 170.57 35.791 170.289C35.791 170.007 35.9036 169.782 36.1289 169.613C36.3541 169.444 36.6357 169.388 36.9172 169.388C37.3677 169.388 37.7055 169.557 38.0434 169.895L37.8181 170.176C37.5929 169.895 37.2551 169.726 36.9172 169.726C36.692 169.726 36.523 169.782 36.4104 169.895C36.2978 170.007 36.1852 170.12 36.1852 170.289C36.1852 170.57 36.4104 170.796 36.8609 170.852L37.1987 170.908C37.5366 170.965 37.7618 171.077 37.9308 171.246C38.0997 171.415 38.2123 171.584 38.2123 171.866C38.2123 172.147 38.0997 172.372 37.8745 172.541C37.6492 172.71 37.3677 172.823 37.0298 172.823C36.7483 172.823 36.523 172.766 36.2978 172.654C36.0726 172.541 35.9036 172.429 35.791 172.203L36.0163 171.978C36.2415 172.316 36.6357 172.485 37.0298 172.485C37.2551 172.485 37.424 172.429 37.5929 172.316C37.7618 172.203 37.8181 172.091 37.8181 171.866C37.8181 171.528 37.5929 171.302 37.1424 171.246Z" fill="white"/>
<path d="M67.5875 208H108.412C109.85 208 111 206.889 111 205.5V179H65V205.5C65 206.889 66.15 208 67.5875 208Z" fill="white"/>
<path d="M111 160.647C111 159.176 109.85 158 108.412 158H67.5875C66.15 158 65 159.176 65 160.647V174H111V160.647Z" fill="#821B1C"/>
<path d="M111 174H65V175H111V174Z" fill="#821B1C"/>
<path d="M111 175H65V177H111V175Z" fill="#821B1C"/>
<path d="M99.5 160C98.1413 160 97 161.087 97 162.5C97 163.859 98.087 165 99.5 165C100.859 165 102 163.913 102 162.5C102 161.141 100.859 160 99.5 160Z" fill="#F5A999"/>
<path d="M75.5 160C74.1413 160 73 161.087 73 162.5C73 163.859 74.087 165 75.5 165C76.8587 165 78 163.913 78 162.5C78 161.141 76.8587 160 75.5 160Z" fill="#F5A999"/>
<path d="M99.5 160C98.0976 160 97 161.098 97 162.5C97 163.902 98.0976 165 99.5 165C100.902 165 102 163.902 102 162.5C102 161.098 100.902 160 99.5 160Z" fill="#752515"/>
<path d="M99.8711 152.833V163.982C100.828 163.982 101.617 163.194 101.617 162.237V154.579C101.56 153.621 100.828 152.833 99.8711 152.833Z" fill="black"/>
<path d="M99.8139 152.833C98.8567 152.833 98.0684 153.621 98.0684 154.579V162.237C98.0684 163.194 98.8567 163.982 99.8139 163.982V152.833Z" fill="black"/>
<path opacity="0.1" d="M99.8139 152.833C98.8567 152.833 98.0684 153.621 98.0684 154.579V162.237C98.0684 163.194 98.8567 163.982 99.8139 163.982V152.833Z" fill="black"/>
<path d="M75.9415 159.928C74.6464 159.928 73.6328 160.942 73.6328 162.237C73.6328 163.532 74.6464 164.546 75.9415 164.546C77.2366 164.546 78.2502 163.532 78.2502 162.237C78.2502 160.942 77.2366 159.928 75.9415 159.928Z" fill="#752515"/>
<path d="M75.9395 152.833V163.982C76.8967 163.982 77.685 163.194 77.685 162.237V154.579C77.685 153.621 76.953 152.833 75.9395 152.833Z" fill="black"/>
<path d="M75.9389 152.833C74.9817 152.833 74.1934 153.621 74.1934 154.579V162.237C74.1934 163.194 74.9817 163.982 75.9389 163.982V152.833Z" fill="black"/>
<path opacity="0.1" d="M75.9389 152.833C74.9817 152.833 74.1934 153.621 74.1934 154.579V162.237C74.1934 163.194 74.9817 163.982 75.9389 163.982V152.833Z" fill="black"/>
<path d="M75.9395 200.696V199.063H79.9937V187.407C79.0365 188.139 77.685 188.533 75.9395 188.533V187.013C76.8404 186.956 77.7413 186.788 78.5297 186.45C79.318 186.112 79.8811 185.549 80.2753 184.873H81.7393V199.063H85.5683V200.696H75.9395Z" fill="#821B1C" stroke="#821B1C" stroke-width="2" stroke-miterlimit="10"/>
<path d="M88.1568 196.754C87.7627 195.572 87.5938 194.22 87.5938 192.813C87.5938 191.405 87.7627 190.053 88.1568 188.815C88.551 187.632 89.1704 186.619 90.0713 185.83C90.9723 185.042 92.0422 184.648 93.281 184.648C94.5198 184.648 95.646 185.042 96.4906 185.83C97.3915 186.619 98.0109 187.632 98.4051 188.815C98.7993 189.997 98.9682 191.348 98.9682 192.813C98.9682 194.277 98.7993 195.572 98.4051 196.754C98.0109 197.937 97.3915 198.95 96.4906 199.739C95.5896 200.527 94.5198 200.921 93.281 200.921C92.0422 200.921 90.916 200.527 90.0713 199.739C89.1704 198.95 88.551 197.937 88.1568 196.754ZM96.209 197.542C96.8848 196.36 97.2226 194.783 97.2226 192.756C97.2226 190.785 96.8848 189.152 96.209 187.97C95.5333 186.787 94.5198 186.168 93.281 186.168C92.0422 186.168 91.0286 186.787 90.3529 187.97C89.6772 189.152 89.3393 190.785 89.3393 192.756C89.3393 194.727 89.6772 196.304 90.3529 197.542C91.0286 198.725 92.0422 199.344 93.281 199.344C94.5198 199.344 95.5333 198.781 96.209 197.542Z" fill="#821B1C" stroke="#821B1C" stroke-width="2" stroke-miterlimit="10"/>
<path d="M81.1777 169.444H81.5719L82.4165 171.021L83.2612 169.444H83.6553L82.5855 171.359V172.654H82.2476V171.359L81.1777 169.444Z" fill="white"/>
<path d="M86.2452 172.71H84.1055V169.444H86.2452V169.782H84.4996V170.852H86.2452V171.19H84.4996V172.316H86.2452V172.71Z" fill="white"/>
<path d="M87.9357 169.444H88.3299L89.5687 172.71H89.1745L88.893 171.978H87.3163L87.0348 172.71H86.6406L87.9357 169.444ZM88.7804 171.584L88.1047 169.895L87.4289 171.584H88.7804Z" fill="white"/>
<path d="M92.4958 172.71H92.1017L91.257 171.528H90.4687V172.71H90.1309V169.444H91.257C91.5949 169.444 91.9328 169.557 92.1017 169.726C92.2706 169.895 92.4395 170.176 92.4395 170.458C92.4395 170.683 92.3832 170.908 92.2143 171.077C92.1017 171.246 91.8764 171.359 91.6512 171.415L92.4958 172.71ZM91.257 169.782H90.4124V171.19H91.257C91.4823 171.19 91.7075 171.134 91.8201 171.021C91.9328 170.908 92.0454 170.739 92.0454 170.514C92.0454 170.289 91.9891 170.12 91.8201 170.007C91.7075 169.838 91.5386 169.782 91.257 169.782Z" fill="white"/>
<path d="M94.3534 171.246L93.9592 171.19C93.6777 171.134 93.4524 171.021 93.2835 170.908C93.1146 170.796 93.002 170.57 93.002 170.289C93.002 170.007 93.1146 169.782 93.3398 169.613C93.565 169.444 93.8466 169.388 94.1281 169.388C94.5786 169.388 94.9165 169.557 95.2543 169.895L95.0291 170.176C94.8038 169.895 94.466 169.726 94.1281 169.726C93.9029 169.726 93.734 169.782 93.6213 169.895C93.5087 170.007 93.3961 170.12 93.3961 170.289C93.3961 170.57 93.6213 170.796 94.0718 170.852L94.4097 170.908C94.7475 170.965 94.9728 171.077 95.1417 171.246C95.3106 171.415 95.4232 171.584 95.4232 171.866C95.4232 172.147 95.3106 172.372 95.0854 172.541C94.8602 172.71 94.5786 172.823 94.2408 172.823C93.9592 172.823 93.734 172.766 93.5087 172.654C93.2835 172.541 93.1146 172.429 93.002 172.203L93.2272 171.978C93.4524 172.316 93.8466 172.485 94.2408 172.485C94.466 172.485 94.6349 172.429 94.8038 172.316C94.9728 172.203 95.0291 172.091 95.0291 171.866C95.0291 171.528 94.8038 171.302 94.3534 171.246Z" fill="white"/>
<path d="M125.531 208H165.469C166.875 208 168 206.889 168 205.5V179H123V205.5C123 206.889 124.125 208 125.531 208Z" fill="white"/>
<path d="M168 160.647C168 159.176 166.875 158 165.469 158H125.531C124.125 158 123 159.176 123 160.647V174H168V160.647Z" fill="#821B1C"/>
<path d="M168 174H123V175H168V174Z" fill="#821B1C"/>
<path d="M168 175H123V177H168V175Z" fill="#821B1C"/>
<path d="M157 160C155.37 160 154 161.087 154 162.5C154 163.859 155.304 165 157 165C158.63 165 160 163.913 160 162.5C159.935 161.141 158.63 160 157 160Z" fill="#F5A999"/>
<path d="M133 160C131.913 160 131 161.087 131 162.5C131 163.859 131.87 165 133 165C134.087 165 135 163.913 135 162.5C135 161.141 134.087 160 133 160Z" fill="#F5A999"/>
<path d="M157 160C155.317 160 154 161.098 154 162.5C154 163.902 155.317 165 157 165C158.683 165 160 163.902 160 162.5C160 161.098 158.683 160 157 160Z" fill="#752515"/>
<path d="M157.025 152.833V163.982C157.983 163.982 158.771 163.194 158.771 162.237V154.579C158.771 153.621 158.039 152.833 157.025 152.833Z" fill="black"/>
<path d="M157.025 152.833C156.068 152.833 155.279 153.621 155.279 154.579V162.237C155.279 163.194 156.068 163.982 157.025 163.982V152.833Z" fill="black"/>
<path opacity="0.1" d="M157.025 152.833C156.068 152.833 155.279 153.621 155.279 154.579V162.237C155.279 163.194 156.068 163.982 157.025 163.982V152.833Z" fill="black"/>
<path d="M133.15 159.928C131.855 159.928 130.842 160.942 130.842 162.237C130.842 163.532 131.855 164.546 133.15 164.546C134.446 164.546 135.459 163.532 135.459 162.237C135.459 160.942 134.446 159.928 133.15 159.928Z" fill="#752515"/>
<path d="M133.15 152.833V163.982C134.108 163.982 134.896 163.194 134.896 162.237V154.579C134.896 153.621 134.108 152.833 133.15 152.833Z" fill="black"/>
<path d="M133.15 152.833C132.193 152.833 131.404 153.621 131.404 154.579V162.237C131.404 163.194 132.193 163.982 133.15 163.982V152.833Z" fill="black"/>
<path opacity="0.1" d="M133.15 152.833C132.193 152.833 131.404 153.621 131.404 154.579V162.237C131.404 163.194 132.193 163.982 133.15 163.982V152.833Z" fill="black"/>
<path d="M134.615 200.696V199.063H138.669V187.407C137.712 188.139 136.361 188.533 134.615 188.533V187.013C135.516 186.956 136.417 186.788 137.205 186.45C137.994 186.112 138.557 185.549 138.951 184.873H140.415V199.063H144.244V200.696H134.615Z" fill="#821B1C" stroke="#821B1C" stroke-width="2" stroke-miterlimit="10"/>
<path d="M146.553 200.696V199.063H150.607V187.407C149.65 188.139 148.298 188.533 146.553 188.533V187.013C147.454 186.956 148.355 186.788 149.143 186.45C149.931 186.112 150.494 185.549 150.889 184.873H152.353V199.063H156.182V200.696H146.553Z" fill="#821B1C" stroke="#821B1C" stroke-width="2" stroke-miterlimit="10"/>
<path d="M138.387 169.444H138.781L139.626 171.021L140.47 169.444H140.864L139.794 171.359V172.654H139.457V171.359L138.387 169.444Z" fill="white"/>
<path d="M143.454 172.71H141.314V169.444H143.454V169.782H141.652V170.852H143.398V171.19H141.652V172.316H143.398V172.71H143.454Z" fill="white"/>
<path d="M145.143 169.444H145.537L146.776 172.71H146.382L146.1 171.978H144.524L144.242 172.71H143.904L145.143 169.444ZM145.988 171.584L145.312 169.895L144.636 171.584H145.988Z" fill="white"/>
<path d="M149.704 172.71H149.31L148.466 171.528H147.677V172.71H147.283V169.444H148.409C148.747 169.444 149.085 169.557 149.254 169.726C149.423 169.895 149.592 170.176 149.592 170.458C149.592 170.683 149.536 170.908 149.367 171.077C149.254 171.246 149.029 171.359 148.804 171.415L149.704 172.71ZM148.466 169.782H147.621V171.19H148.466C148.691 171.19 148.916 171.134 149.029 171.021C149.141 170.908 149.254 170.739 149.254 170.514C149.254 170.289 149.198 170.12 149.029 170.007C148.916 169.838 148.747 169.782 148.466 169.782Z" fill="white"/>
<path d="M151.562 171.246L151.168 171.19C150.887 171.134 150.661 171.021 150.492 170.908C150.324 170.796 150.211 170.57 150.211 170.289C150.211 170.007 150.324 169.782 150.549 169.613C150.774 169.444 151.056 169.388 151.337 169.388C151.788 169.388 152.125 169.557 152.463 169.895L152.238 170.176C152.013 169.895 151.675 169.726 151.337 169.726C151.112 169.726 150.943 169.782 150.83 169.895C150.718 170.007 150.605 170.12 150.605 170.289C150.605 170.57 150.83 170.796 151.281 170.852L151.619 170.908C151.957 170.965 152.182 171.077 152.351 171.246C152.52 171.415 152.632 171.584 152.632 171.866C152.632 172.147 152.52 172.372 152.294 172.541C152.069 172.71 151.788 172.823 151.45 172.823C151.168 172.823 150.943 172.766 150.718 172.654C150.492 172.541 150.324 172.429 150.211 172.203L150.436 171.978C150.661 172.316 151.056 172.485 151.45 172.485C151.675 172.485 151.844 172.429 152.013 172.316C152.182 172.203 152.238 172.091 152.238 171.866C152.238 171.528 152.013 171.302 151.562 171.246Z" fill="white"/>
</svg>
