<?xml version="1.0" encoding="utf-8"?>
<!-- Generator: Adobe Illustrator 26.0.1, SVG Export Plug-In . SVG Version: 6.00 Build 0)  -->
<svg version="1.1" id="Layer_1" xmlns="http://www.w3.org/2000/svg" xmlns:xlink="http://www.w3.org/1999/xlink" x="0px" y="0px"
	 viewBox="0 0 145.7 119.1" style="enable-background:new 0 0 145.7 119.1;" xml:space="preserve">
<style type="text/css">
	.st0{fill:#7D1520;}
	.st1{fill:#EF6C56;}
	.st2{fill:#4F2212;}
	.st3{fill:#382519;}
	.st4{fill:#8A5322;}
	.st5{fill:#AA6F36;}
	.st6{fill:#FCC89C;}
	.st7{fill:#F3AD1C;}
</style>
<path class="st0" d="M74.5,13.7c0.1,0,0.1,0,0.2,0c0.3,0,0.6,0.1,0.9,0.1c0,0,0.1,0,0.2,0c0.1,0,0.2,0,0.3,0c0.1,0,0.2,0,0.3,0
	l-0.1-0.4c0-0.1-0.1-0.2-0.1-0.3l-0.3-0.6c-0.3-0.7-0.6-1.3-1-2c-0.6-1.3-1.6-2.3-2.7-3.1c-0.2-0.2-0.4-0.3-0.5-0.4
	c-0.1,0-0.1-0.1-0.2-0.1c-1.2-0.7-2.4-1.3-3.9-1.3c-0.3,0-0.7,0-1,0.1c-1.2,0.2-2.3,0.5-3.3,0.9l-2,0.8
	C61.4,7.4,74.3,13.4,74.5,13.7z"/>
<path class="st0" d="M59.8,9.1l-0.2,0c-0.2,0.1-0.3,0.2-0.4,0.3c-0.6,0.8-0.9,1.5-1.1,2.3c-0.2,0.6,0.1,0.9,0.3,1l0.2,0.1h0.1
	c0.4,0,0.6-0.3,0.7-0.5c0.5-0.8,1.1-1.4,1.7-1.9c0.2-0.2,0.3-0.3,0.5-0.4l1.2-1l-1.2-0.1C61,8.7,60.4,8.9,59.8,9.1z"/>
<path class="st0" d="M65.8,76.8c-0.3-0.5-0.6-1-0.9-1.4c0,0-0.1-0.1-0.1-0.1c-0.7-0.7-1.3-1.6-2.2-2.2c-0.3-0.2-0.4-0.5-0.5-0.9
	c-0.2-1.3-0.4-2.7-0.6-4c-0.1-0.7-0.2-1.3,0.1-2c0.5-0.9,0.4-1.9,0.1-2.9c-0.3-0.8-0.3-1.6-0.3-2.4c0.1-1.4,0.4-2.7,0.7-4
	c0.3-1.3,0.7-2.5,0.9-3.8c0.1-0.5,0.1-1,0.4-1.4c0.2-0.3-0.1-4.8-0.2-7c-0.2,0-0.4-0.1-0.5-0.2c-1.6-0.9-3.7-0.3-5.2,0.5
	c-1.2,0.5-2.7,0.8-3.3,2c0,0.1-0.1,0.2-0.2,0.2c0,0.6,0,1.2,0.1,1.7c0.4,1.3,0.9,2.6,1.5,3.5c0.4,0.8,2.3,9.4,2,10.3
	c-0.2,0.8-0.2,1.6-0.2,2.4c0,0.3,0.1,0.6,0.3,0.9c0.6,0.8,0.8,1.8,0.9,2.8c0.1,0.9-0.1,1.8-0.3,2.7c-0.1,0.3-0.1,0.5-0.2,0.8
	c-0.1,0.7,0.1,1.2,0.7,1.6c0.4,0.3,0.7,0.6,0.7,1.2c0.1,0.3,0,0.5,0,0.8c0,0.9,0.4,1.6,1.3,2c0.9,0.4,1.9,0.6,2.9,0.7
	c0.4,0,0.8,0.1,1.2,0c0.5-0.1,0.6-0.3,0.5-0.8c-0.1-0.2-0.1-0.4,0.1-0.5C65.9,77.3,65.9,77.1,65.8,76.8z"/>
<path class="st0" d="M20.9,51.9c-0.6,2-2,4.5-2.6,6.2c0.3,0.5,0.5,1.1,0.6,1.6c0.3,0.1,1.7,3.2,2.4,7.1c0.3,0.7,0.5,1.5,0.6,2.2
	c0,0.4,0.1,0.9,0.1,1.3c0,0.9,0.4,1.5,1.1,2c0.5,0.3,0.9,0.8,1.1,1.3c0.2,0.5,0.5,0.8,0.8,1.2c0.2,0.3,0.1,0.6,0.1,0.9
	c0,0.6,0.2,1,0.7,1.3c0.2,0.1,0.4,0.2,0.6,0.2c1,0.3,2.1,0.4,3.2,0.4c0.2,0,0.4,0,0.6-0.1c0.2-0.1,0.4-0.2,0.3-0.5
	c0-0.1,0-0.2,0.1-0.2c0.6-0.6,0.6-0.6,0.2-1.2c-0.4-0.4-0.7-0.9-1.3-1.2c-1.2-0.7-2-1.8-2.9-2.8c-0.9-1-1.3-2.3-1.4-3.6
	c-0.1-1.4-0.4-2.8-0.7-4.2c-0.1-0.3-0.1-0.7-0.2-1.1l1.7-2.9l3.6-3.5c1.6-2.6,1.5-3.9,1.8-3.9c0.1,0,0.3-1.2,0.6-2.1
	C30,48.2,23.1,50.6,20.9,51.9z"/>
<path class="st1" d="M86.2,25.2c-0.2-0.3-0.5-0.6-0.8-0.8c-0.6-0.5-1.2-1-1.7-1.6c-0.3-0.3-0.6-0.7-0.9-1c-2.5-2.5-3.7-4.3-5.2-6.7
	c-0.3-0.5-0.6-1-1.1-1.2c0,0-0.1-0.1-0.1-0.1c-0.1-0.2-0.1-0.3-0.2-0.5c0,0.1,0.1,0.2,0.1,0.2l0.1,0.4c-0.1,0-0.2,0-0.3,0
	c-0.1,0-0.2,0-0.3,0c-0.1,0-0.1,0-0.2,0c-0.3,0-0.6-0.1-0.9-0.1c-0.1,0-0.1,0-0.2,0c-0.2-0.3-0.3-0.6-0.5-0.9
	c-0.2-0.4-0.5-0.8-0.7-1.3c-0.6-1.1-1.5-1.9-2.6-2.7c-1-0.7-1.9-1.1-2.8-1.3c-3.7-0.9-6.4-0.3-6.4-0.3C60,7.5,58.8,8,57.6,8.6
	c-1.2,0.7-2.3,1.5-3.1,2.7c-0.1,0.2-0.2,0.3-0.2,0.5c0,0.3,0,0.6,0.3,0.7c0.3,0.2,0.5,0,0.8-0.2c0.1-0.1,0.1-0.1,0.2-0.2
	c0.9-0.8,3.2-2.3,3.4-2.2c0.1-0.2,3.9-0.8,3.9-0.8c0.2,0,0.8,0.1,1.1,0.2c1.9,0.7,3.5,1.9,4.8,3.4c0.4,0.4,0.7,0.9,1,1.5
	c0.1,0.2,0.2,0.3-0.2,0.4c-0.3,0.1-0.6,0.2-0.9,0.4c-0.2,0.1-0.3,0.2-0.5,0.2c-2,0-4-0.5-6-1c-0.6-0.2-1.1-0.4-1.7-0.4
	c-0.5-0.1-0.8,0.2-0.6,0.7c0.1,0.4,0.3,0.7,0.6,1c1.3,1.5,2.9,2.6,4.7,3.3c0.1,0,0.3,0,0.2,0.3c-0.9,1.3-1.6,2.8-2.4,4.1
	c-0.9,1.4-2,2.6-3.4,3.6c-3.1,2.2-6.9,2.5-10.6,2.9c-1.9,0.2-3.2,1.7-4.8,2.4c-2.6,1.1-5.8,0.7-8.5,0.2c-2.2-0.4-4.2-1.4-6.4-1.7
	c-1.8-0.2-3.6,0.7-5.4,1.1c-2.2,0.5-4,2.2-5.5,3.8c-0.7,0.8-1.4,1.5-2.4,2.1c-1.1,0.6-2.2,1-3.4,0.8c-1-0.2-2-0.2-3,0
	c-4.6,0.5-6.7,4.4-6.8,7.6c0,1.7,0.7,3.3,1.4,4.9c0-0.9,0.1-1.8,0.2-2.7c0.2,0.4,0.2,0.8,0.5,1.2c0.1-1.3,0.5-2.5,1.3-3.6
	c0,0.7,0,1.3,0.2,1.9c0.4-1,0.6-1.4,1.1-1.6c-0.5,0.8,0.1,1.5,0.2,2.2c0.3-1.2,1-2,1.9-2.7c0.9-0.7,1.5-1.6,1.9-2.6
	c0.1-0.4,0.3-0.7,0.5-1c0.5-0.8,1.3-1.3,2.2-1.5c-0.1,0.5-0.2,0.9-0.2,1.3c-0.1,1.3,0.2,2.5,0.6,3.6c0.7,1.9,1.4,3.7,2,5.6
	c0.7,2.3,1.1,4.7,0.4,7.1c-0.4,1.4-0.7,2.9-2,3.9c-0.3,0.2-0.4,0.6-0.4,0.9c0,0.8,0.1,1.5,0.4,2.2c0.3,0.7,0.6,1.4,0.8,2.1
	c0.4,1.4,0.7,2.7,0.9,4.1c0.1,0.8,0.1,1.6-0.2,2.4c-0.1,0.5-0.3,0.9-0.3,1.4c0,0.5,0.1,0.9,0.4,1.3c0.6,0.6,0.8,1.4,0.8,2.2
	c0,0.3,0,0.5,0,0.8c0,0.2,0,0.3,0.1,0.4c0.3,0.3,0.3,0.7,0.4,1c0.2,0.6,0.5,1.1,1,1.4c1,0.5,2.1,0.6,3.2,0.5c0.3,0,0.7-0.1,1-0.1
	c0.1,0,0.3-0.1,0.2-0.2c-0.1-0.3,0.1-0.3,0.3-0.3c0.4,0,0.5-0.1,0.5-0.5c0-0.3-0.1-0.6-0.1-0.8c-0.5-1.1-1.4-2-2.3-2.8
	c-0.4-0.4-0.8-0.8-0.8-1.5c0-0.6-0.2-1.1-0.5-1.7c-0.2-0.4-0.4-0.7-0.5-1.1c-0.2-0.5-0.3-0.9-0.3-1.4c-0.1-1.1-0.2-2.1-0.3-3.2
	C19.7,68.1,20,67,20.5,66l0,0.1c0.2-0.7,0.5-1.4,1-2c0.6-0.8,1.2-1.6,2-2.2l1.6-2.8l3.6-3.5c0.2-0.1,0.5-0.2,0.7-0.1
	c0.2-0.1,0.4-0.1,0.6-0.1c0,0,0.1,0,0.1,0c0.1,0,0.2,0,0.3,0c0.3,0,0.6-0.1,0.8,0.1c0,0,0,0,0,0c0.3,0,0.5,0.1,0.7,0.2
	c0.2-0.1,0.5,0,0.8,0.1c0.7,0.2,1.9,0.8,2.6,0.6c-0.1,0,0.6,0.3,0.6,0.3c0.4,0.1,0.8,0.2,1.2,0.2c1,0.1,2,0.2,3,0.1
	c3.3-0.2,6.3-1.5,9.3-2.7c0.5-0.2,1.1-0.4,1.7-0.4c0.2,0,0.4,0,0.4,0.2c0.2,1.2,0.5,2.5,0.7,3.7c0.3,1.6,0.2,3.3,0.1,4.9
	c0,0.5-0.1,0.9-0.2,1.4c-0.1,0.5-0.3,0.9-0.5,1.4c-0.5,0.8-0.6,1.6-0.3,2.5c0.4,1.3,0.3,2.6,0.2,3.9c0,0.4-0.1,0.7,0,1.1
	c0.1,0.7-0.2,1.2-0.6,1.7c-0.3,0.6-0.6,1.3-0.6,2c-0.1,0.6,0.1,1.2,0.3,1.9c0.1-0.3,0.1-0.6,0.1-0.9c0.1,0.3,0.2,0.5,0.3,0.7
	c0.1-0.2,0-0.4,0.2-0.5c0.1,0.4,0.2,0.8,0,1.2c-0.5,1.5-0.1,2.4,1.2,3.1c0.1,0.1,0.2,0.1,0.3,0.2c0.6,0.2,1.1,0.4,1.8,0.4
	c0.1,0,0.1,0,0.2,0c0.6,0.1,1.1,0,1.7-0.1c0.1,0,0.1,0,0.2,0c0.3,0,0.4-0.2,0.3-0.5c0-0.1,0-0.1-0.1-0.2c0-0.1-0.1-0.3,0.1-0.3
	c0.6-0.2,0.7-0.5,0.4-1c-0.1-0.1-0.1-0.2-0.2-0.3c-0.1-0.1-0.2-0.2-0.3-0.4c0,0,0-0.1-0.1-0.1c-0.2-0.3-0.4-0.5-0.6-0.8
	c-1.4-1.2-2-2.8-1.9-4.6c-0.1-1.6-0.1-3.3,1-4.7c1.1-1.3,1.3-2.8,1-4.4c-0.4-2,0.2-4.1,1.1-6c0,0,0,0,0,0s0.9-2.9,1.9-4.1
	c1.2-1.3,3-2.1,3.8-3.8c0.1-0.2,0.2-0.4,0.4-0.5c0.3-0.4,0.7-0.7,0.9-1.2c0.8-1.5,1.7-3.1,2.1-4.8c0.5-1.9,0.5-3.9,1.2-5.7
	c1.2-3.2,2.3-6.4,3.5-9.5c0.1-0.4,0.3-0.8,0.5-1.1c0.2-0.3,0.3-0.5,0.6-0.8c0,0,0.1-0.1,0.1-0.1c0.5-0.5,1.2-0.6,1.9-0.4
	c0,0,0,0,0,0c0.2,0,0.4,0.1,0.6,0.2c0,0,0,0,0,0c-0.3-0.1,0.1,0,0.2,0c0.1,0,0.2,0,0.3,0c0.2,0,0.2,0,0,0c0.2,0,0.3,0,0.5,0.1
	c0.1,0,0.1,0,0.2,0.1c0.2,0,0.4,0.1,0.6,0.1c1.4,0.3,2.8,0.4,3.8,0.8c0.1,0,0.6,0.2,0.6,0.3c0.2,0.5,0.7,0.9,1.2,1
	c0.1,0,0.3,0.1,0.4,0.1c0.5,0.1,1.2,0,1.7-0.3c0.5-0.2,0.8-0.6,0.9-0.9c0.2,0,0.3-0.3,0.4-0.3c0.3-0.3,0.4-0.7,0.4-1.1
	C86.6,26.7,86.7,25.9,86.2,25.2z"/>
<path class="st2" d="M69.1,17.9c-0.8,0.2-1.7,0.2-2.5,0c-1.8-0.4-3.4-1.2-4.9-2.3c-0.2-0.2-0.5-0.4-0.7-0.6
	c-0.1-0.1-0.2-0.1-0.1-0.2c0-0.1,0.2-0.1,0.2-0.1c0.5,0,0.9,0.2,1.3,0.4c0.9,0.3,1.7,0.8,2.6,1.2C66.3,17,67.6,17.6,69.1,17.9
	C69,17.8,69,17.9,69.1,17.9"/>
<path class="st2" d="M74,20.1c-0.2-0.3-0.3-0.5-0.4-0.8c0-0.2,0-0.3,0.1-0.3c0.6-0.3,1.6-0.5,2.2,0c0.2,0.2,0.4,0.4,0.5,0.7
	c0.2,0.3,0.4,0.6,0.6,0.9c0.1,0.1,0.1,0.3-0.1,0.4c-0.6-0.2-1.2,0-1.8-0.1C74.7,20.7,74.3,20.5,74,20.1"/>
<path class="st3" d="M75.8,20.2c-0.4,0.1-0.8,0.1-1-0.2c-0.3-0.3-0.2-0.7,0.1-1c-0.4,0.3-0.5,0.8-0.3,1.2
	C74.8,20.5,75.4,20.5,75.8,20.2"/>
<path class="st3" d="M76,19.5c0-0.2-0.1-0.3-0.3-0.3c-0.2,0-0.3,0.1-0.2,0.3c0,0.2,0.1,0.3,0.3,0.3C75.9,19.8,76,19.6,76,19.5"/>
<path class="st2" d="M84.1,25.1c0.6,0,1.1,0.2,1.3,0.8c0,0,0,0.1,0,0.1c0,0,0,0.1,0,0.1c-0.1,0.1-0.1,0.1,0,0.2c0,0.1,0,0.1,0,0.2
	l0,0l0,0c-0.1-0.1-0.1-0.2-0.2-0.3c-0.1-0.3-0.3-0.5-0.6-0.6c-0.2-0.1-0.3,0-0.4,0.1c-0.1,0.1-0.1,0.3,0,0.4
	c0.1,0.2,0.3,0.4,0.5,0.5c0.1,0.1,0.3,0.1,0.3,0.2c-0.3,0-0.5-0.1-0.8-0.3C83.5,26.3,83.4,25.6,84.1,25.1"/>
<path class="st2" d="M74.9,17.3c-0.7,0.1-1.2,0.7-1.6,1.3c0-0.4,0.1-0.7,0.3-1c0.1-0.1,0.2-0.1,0.2-0.3c0.9-0.5,1.5-0.5,2.4-0.3
	C75.8,17.2,75.3,17.1,74.9,17.3"/>
<path class="st4" d="M68.4,21.1C68.3,21.1,68.3,21.1,68.4,21.1C68.4,21,68.3,21.1,68.4,21.1L68.4,21.1z"/>
<path class="st4" d="M85.5,26.3c-0.1-0.1-0.1-0.1,0-0.2C85.5,26.2,85.5,26.3,85.5,26.3"/>
<path class="st4" d="M85.5,26C85.4,26,85.4,25.9,85.5,26C85.4,25.9,85.4,26,85.5,26"/>
<path class="st5" d="M72.4,19.8C72.4,19.8,72.4,19.8,72.4,19.8C72.4,19.8,72.4,19.8,72.4,19.8L72.4,19.8z"/>
<path class="st6" d="M75.8,20.2c-0.4,0.4-0.9,0.3-1.2-0.1c-0.3-0.4-0.2-0.9,0.3-1.2c-0.3,0.4-0.3,0.7-0.1,1
	C75,20.3,75.4,20.3,75.8,20.2"/>
<path class="st6" d="M76,19.5c0,0.1-0.1,0.3-0.3,0.3c-0.2,0-0.3-0.1-0.3-0.3c0-0.2,0.1-0.3,0.2-0.3C75.9,19.2,76,19.3,76,19.5"/>
<path class="st1" d="M78.1,28c0-0.2,0-0.4-0.1-0.6c0.2-0.2,0.3-0.5,0.6-0.8c-0.1,0.1,0.3,0,0.4-0.1c0.3,0,0.5,0,0.8,0
	c0.1,0,0.1,0,0.2,0l1.6,0.5c0.3,0.7,0.4,1.4,0.2,1.9c-0.1-0.4-0.3-0.7-0.5-1c0,0.5,0,1-0.1,1.5c-0.2,1-0.5,2-1.4,2.7
	c-0.1,0-0.1,0.1-0.1,0.2c-0.6,0.6-1.4,1.4-2.2,1.5c0.2-0.3,0.5-0.5,0.7-0.8c-0.2,0-0.3,0.1-0.5,0.1c0.2-0.3,0.5-0.5,0.6-0.9
	c-0.3,0.1-0.5,0.3-0.8,0.4c0.3-0.8,0.9-1.5,1.1-2.3c-0.8,0.7-1.5,1.4-2.5,1.8c0.6-0.4,1-1.2,1.4-1.8C77.8,29.5,78.1,28.7,78.1,28z"
	/>
<path class="st2" d="M85.6,28.9c0,0-0.8,0.7-1.8,0.3c-1-0.4-1.2-1.1-1.2-1.1s0.1,0.5,1.1,0.7C84.6,29.1,85.6,28.9,85.6,28.9z"/>
<path class="st0" d="M128,75.4c-2.9-0.8-6-0.9-8.9,0.2c-4.7,1.7-4.7,5.6-4.3,9.9c0.4,0.2,0.8,0.5,1.1,1c1.2,1.4,2.1,2.9,2.7,4.7
	c0.4,1.4,1.5,2.6,2.1,4c0.3,0.7,1.1,0.9,1.8,0.8c1.5,1.1,2.8-0.2,4.2-0.3c0.5-1.2,0.2-2.4-0.2-3.5c-0.5-1.4-0.5-2.9,0.3-3.9
	c1-1.3,1.4-2.7,2-4.1c0.2-0.5,0.1-1.1,0.4-1.4c1.4-1.6,1.7-3.5,1.9-5.5C130.3,76.3,129.3,75.8,128,75.4z"/>
<path class="st2" d="M122.5,95.9c1.5,1.1,2.8-0.2,4.2-0.3c1.1,0.4,1,1.2,0.7,2c-1.2,2.7-1.1,5.4-0.4,8.2c0.2,0.8,0.2,1.5-0.6,1.9
	c-0.8,0.4-0.8,1.3-1.1,2.1c-0.6,1.5-3.6,2.3-4.8,1.4c-0.3-0.2-0.2-0.4-0.1-0.7c0.1-0.6,0.4-1.1,0.8-1.5c2.7-2.9,2.2-6.4,1.9-9.8
	C122.8,98.1,122.6,97,122.5,95.9"/>
<path class="st0" d="M90.1,83.4c-1-0.5-6.8-2.1-7.2-0.1c-0.4,1.9,0.2,3.9,0,5.8c1.3,0.8,1.7,2.3,1.7,3.5c0.1,1.4,0.4,2.1,1.5,2.6
	c0.4,0.1,0.5,0.4,0.7,0.7c0.3,0.4,0,1.3,0.9,1.2c0.8-0.1,1.3-0.4,1.6-1.2c0.1-0.2,0.3-0.4,0.4-0.6c0.4-0.6,1-1,1-1.8
	c0-1.2,0.7-1.6,1.8-1.6c0.2,0,0.4,0,0.5,0C93,88.5,92.7,84.8,90.1,83.4z"/>
<path class="st2" d="M86.1,95.2c0.4,0.1,0.5,0.4,0.7,0.7c0.3,0.4,0,1.3,0.9,1.2c0.8-0.1,1.3-0.4,1.6-1.2c0.1-0.2,0.3-0.4,0.4-0.6
	c0.1,1.8,0.6,3.5,1,5.2c0.3,1.3-0.7,2.2-1.1,3.3c-0.6,1.6-0.6,3.1-0.1,4.6c0.2,0.7,0.5,1.3-0.3,1.9c-0.3,0.2-0.3,0.6-0.3,1
	c-0.2,1.9-0.7,2.4-2.6,2.5c-0.9,0-1.7-0.4-2.6-0.3c-0.6,0.1-0.6-0.4-0.4-0.9c0.3-0.7,0.6-1.5,1.1-2c2.7-2.1,2.5-5.2,1.9-7.8
	C85.5,100,86.2,97.6,86.1,95.2"/>
<path class="st7" d="M83.6,52.7c0.8-0.1,1,0.3,1.6,0.8c1.4,1.2,2,3,3.4,4c1.4,1,2,1.9,2.2,3.6c0.3,2.8,2.4,4.1,5.1,3.5
	c0.7-0.2,1.4-0.3,2,0.2c0.1,0.1,0.3,0.2,0.4,0.1c2.5-1,5,0.6,7.6,0c2.1-0.5,4.4-0.5,6.6-0.1c2.6,0.4,5.1-0.2,7.5-1
	c3-0.9,5.9-0.7,8.8,0.6c1.1,0.5,2.2,0.8,3.4,0.7c1-0.1,1.6,0.3,2.1,1.2c1.4,2.3,3.2,4.2,5.5,5.6c0.8,0.5,1.3,1,1.4,2
	c0,0.5,0.3,1,0.5,1.4c0.8,1.4,1,2.8,0.2,4.2c-0.4,0.7-0.1,1.4-0.3,2.1c-1.5-1-0.6-3.3-2.5-4.3c0.3,1.2,0.2,2.1,0.2,3.1
	c-0.1,2.5-0.2,4.9-2,6.9c-0.3,0.3-0.2,1-0.4,1.4c-0.5,1.4-1,2.8-2,4.1c-0.8,1.1-0.8,2.5-0.3,3.9c0.4,1.1,0.7,2.3,0.2,3.5
	c-1.4,0.1-2.7,1.4-4.2,0.3c-0.8,0.2-1.5-0.1-1.8-0.8c-0.6-1.4-1.6-2.6-2.1-4c-0.6-1.8-1.5-3.3-2.7-4.7c-1.8-2-4-2-6-0.1
	c-2.6,2.6-5.7,3.1-9.1,2.1c-1.1-0.3-2.3-0.4-3.2,0.2c-1.4,0.9-3.1,1.1-4.5,2.2c-0.4,0.3-0.9,0.2-1.3,0.1c-0.9-0.3-1.8-0.2-2.7-0.2
	c-1.1,0-1.8,0.4-1.8,1.6c0,0.8-0.6,1.2-1,1.8c-0.1,0.2-0.3,0.4-0.4,0.6c-0.3,0.8-0.8,1.1-1.6,1.2c-0.9,0.1-0.6-0.8-0.9-1.2
	c-0.2-0.3-0.3-0.6-0.7-0.7c-1.1-0.5-1.4-1.2-1.5-2.6c-0.1-1.4-0.5-3.2-2.3-3.8c-0.5-0.2-1-0.4-1.1-1.1c0-0.3-0.2-0.6-0.5-0.7
	c-1.2-0.6-2.5-0.9-3.2-2.3c-0.2-0.4-1.2-0.6-1.2-1.5c0-0.3-0.2-0.6-0.6-0.7c-1.6-0.3-1.7-1.6-1.5-2.7c0.3-1.5-0.8-3,0-4.5
	c-1.3-1.3-0.6-3.3-1.5-4.8c-0.1-0.2-0.3-0.4-0.3-0.5c0.5-1.9-0.5-3.8,0.1-5.7c0.2-0.6-0.1-1.3,0.5-1.7c1.7-0.2,2.6-1,2.4-2.8
	c1,0.6,2,1.1,3.1,1.6c0.5,0.2,1,1.1,1.6,0.6c0.6-0.4,0.2-1.2,0.1-1.9c0-0.4-0.3-0.8-0.3-1.2c-0.1-1.4-1.4-2.4-1.4-3.8
	c0-0.8,0.4-1.8,0-2.3C82.2,55,82.5,53.8,83.6,52.7"/>
<path class="st1" d="M80.2,63.4c0.1,1.7-0.8,2.6-2.4,2.8c-0.8-2-1.5-2.4-3.3-1.3c-1.3,0.8-2.8,1.5-3.6,2.9c-0.2,0.4-0.6,1.1-1.2,0.2
	c0-0.1,0.1-0.2,0.1-0.4c0.5-0.9,1-1.9,1.5-2.8c-1.1,0.6-1.2,1.7-1.7,2.6c-0.3,0.4-0.7,0.7-1,1.1c-3.8,0.4-3.8-1.5-3-4.1
	c1.1-3.3,2.2-6.5,4.4-9.2c2.8-3.5,8.2-5,12.3-2.9c0.4,0.2,0.9,0.2,1.3,0.4c-1.1,1.2-1.4,2.3-0.3,3.8c0.4,0.5,0,1.5,0,2.3
	c-0.4-0.3-0.5-0.9-0.7-1.3c-0.6-1.5-1.6-2.6-3.3-3.1c-0.8-0.2-1.3,0.1-1.4,0.7c-0.4,1.8-0.7,3.6-0.3,5.4c0.2,1.1,1.4,1.7,2.3,2.4
	C79.9,62.9,80.1,63.2,80.2,63.4"/>
<path class="st2" d="M90.9,98.7c0.4,0.1,0.5,0.4,0.7,0.7c0.3,0.4,0,1.3,0.9,1.2c0.8-0.1,1.3-0.4,1.6-1.2c0.1-0.2,0.3-0.4,0.4-0.6
	c0.1,1.8,0.6,3.5,1,5.2c0.3,1.3-0.7,2.2-1.1,3.3c-0.6,1.6-0.6,3.1-0.1,4.6c0.2,0.7,0.5,1.3-0.3,1.9c-0.3,0.2-0.3,0.6-0.3,1
	c-0.2,1.9-0.7,2.4-2.6,2.5c-0.9,0-1.7-0.4-2.6-0.3c-0.6,0.1-0.6-0.4-0.4-0.9c0.3-0.7,0.6-1.5,1.1-2c2.7-2.1,2.5-5.2,1.9-7.8
	C90.4,103.6,91,101.2,90.9,98.7"/>
<rect x="73.5" y="56.6" class="st6" width="1.8" height="1"/>
<path class="st2" d="M130.7,100.6c1.5,1.1,2.8-0.2,4.2-0.3c1.1,0.4,1,1.2,0.7,2c-1.2,2.7-1.1,5.4-0.4,8.2c0.2,0.8,0.2,1.5-0.6,1.9
	c-0.8,0.4-0.8,1.3-1.1,2.1c-0.6,1.5-3.6,2.3-4.8,1.4c-0.3-0.2-0.2-0.4-0.1-0.7c0.1-0.6,0.4-1.1,0.8-1.5c2.7-2.9,2.2-6.4,1.9-9.8
	C131,102.8,130.8,101.7,130.7,100.6"/>
<path class="st0" d="M80.2,63.4c-0.2-0.2-0.3-0.5-0.5-0.6c-0.9-0.7-2.1-1.2-2.3-2.4c-0.3-1.8-0.1-3.6,0.3-5.4
	c0.1-0.6,0.7-0.9,1.4-0.7c1.6,0.5,2.6,1.6,3.3,3.1c0.2,0.5,0.2,1,0.7,1.3c0,1.4,1.3,2.4,1.4,3.8c0,0.4,0.3,0.8,0.3,1.2
	c0.1,0.6,0.4,1.4-0.1,1.9c-0.6,0.5-1.1-0.3-1.6-0.6C82.2,64.5,81.2,63.9,80.2,63.4"/>
<path class="st2" d="M68.6,68.6c0.1-0.7,0.1-1.2,0.1-1.5c0-0.4,0-0.6,0.1-0.8c0.1-0.3,0.3-0.6,0.7-1c0.2-0.2,0.4-0.4,0.8-0.6
	c0.4-0.1,0.7-0.1,1.1,0.1c0,0.4,0,0.6,0.1,0.8c0.1,0.2,0.2,0.3,0.3,0.5c0.1,0.4,0.1,0.9-0.1,1.3c-0.2,0.5-0.6,1-1.2,1.3
	C69.9,68.9,69.3,69,68.6,68.6"/>
<path class="st2" d="M72.3,59.2c0.1-0.5,0.3-0.9,0.4-1.3l0.2-0.6c0-0.2,0.1-0.5,0.4-0.8c0.5-0.5,1.2-0.5,1.7-0.4
	c0.5,0.1,1.1,0.5,1.4,1l0.2,0.5l-0.4,0.2c-0.3,0.1-0.5,0.1-0.7,0.2c-0.2,0-0.5,0-0.7,0c-0.5-0.1-0.9-0.2-1.3-0.5
	c0.5,0,0.9,0,1.3-0.1c0.2,0,0.4-0.1,0.6-0.2c0.2-0.1,0.4-0.1,0.5-0.2l-0.2,0.6c-0.2-0.2-0.6-0.7-1-0.8c-0.3-0.1-0.5-0.1-0.7,0.1
	c-0.1,0.1-0.2,0.5-0.3,0.7c-0.1,0.2-0.2,0.4-0.4,0.6C72.9,58.6,72.6,58.9,72.3,59.2"/>
<path class="st2" d="M74.7,57.1c0-0.3-0.2-0.5-0.4-0.5c-0.2,0-0.4,0.2-0.4,0.5c0,0.3,0.2,0.5,0.4,0.5C74.5,57.7,74.7,57.4,74.7,57.1
	"/>
<path class="st2" d="M66.2,67c0,0-0.1-1.5,0.6-1.7c0.7-0.2,0.6,0,0.6,0s-0.1,1.1-0.2,1.6c-0.1,0.5-0.3,0.7-0.3,0.7l-0.6-0.1L66.2,67
	z"/>
</svg>
