<svg width="140" height="140" viewBox="0 0 140 140" fill="none" xmlns="http://www.w3.org/2000/svg">
<g clip-path="url(#clip0_384_41)">
<path d="M80.5249 111.603C80.4256 111.503 80.3262 111.404 80.1276 111.404L61.6595 104.454C60.468 109.517 60.1702 116.865 60.0709 123.12C59.9716 123.319 59.9716 123.617 59.9716 123.815C59.9716 123.815 58.0852 134.142 58.1845 137.021C58.1845 139.106 59.5745 141.986 59.6738 143.475C59.8724 145.659 59.8723 150.723 59.8723 150.723C59.8723 152.808 60.071 154.893 60.4681 156.978C61.3618 163.035 62.8511 170.879 63.7447 177.134C63.5462 185.872 61.1631 190.34 61.5602 192.624C61.9574 194.908 60.9645 199.376 59.9716 202.354C59.2766 204.142 59.1774 206.028 59.6738 207.915C59.8724 208.411 60.2695 210.893 60.6666 212.879C61.0638 213.872 61.6595 214.766 62.3546 215.461C62.2553 216.751 64.1418 218.638 64.1418 218.638C64.8368 219.432 65.7305 219.929 66.7235 220.227C67.5178 220.525 66.8227 220.127 67.6171 220.624C67.9149 221.12 68.1135 221.418 68.1135 221.418C69.1064 222.411 68.61 222.212 69.7022 222.808C70.4965 223.305 70.7944 223.205 70.7944 223.205C70.7944 223.205 71.1914 223.205 71.39 222.908C71.39 222.908 71.3901 223.007 71.4894 223.007C71.4894 223.106 71.5887 223.205 71.688 223.305C72.0852 223.702 72.6809 223.801 73.0781 223.404C74.766 222.908 73.3758 219.83 73.1773 219.035C72.9787 218.241 72.9788 216.851 72.6809 215.659C73.1774 215.262 73.4751 214.567 73.4751 213.872C73.4751 212.681 72.1844 210.198 72.1844 209.106C72.1844 205.631 74.8653 199.574 72.6809 193.815C71.9859 191.73 71.5887 189.546 71.688 187.361L73.1773 187.56C73.1773 187.56 78.3404 151.617 77.0496 143.673C76.851 141.489 76.851 139.305 77.0496 137.12C77.0496 135.234 77.3476 133.347 78.0426 131.659C79.9291 126.198 80.8226 117.262 80.9219 113.986C81.0212 113.39 81.1206 112.695 81.2199 111.801L80.5249 111.603ZM68.61 216.553C68.2128 215.858 68.3121 213.971 68.1135 213.376C68.0142 213.177 68.1135 213.177 68.3121 213.475C68.3121 213.475 68.4113 213.971 68.4113 214.269C68.5106 215.461 68.8085 216.652 69.4042 217.744C69.2056 217.347 68.9079 216.95 68.61 216.553Z" fill="#883A20"/>
<path d="M87.3758 64.7371C88.6666 62.0562 88.0708 59.1768 87.4751 57.2903C87.4751 57.2903 80.7233 58.8789 77.0496 56.8931C76.1559 56.0988 75.7588 54.9073 76.0566 53.8151C76.851 51.4321 76.2552 50.4392 76.2552 50.4392C74.9644 50.1413 74.8652 48.1555 75.5602 47.7584C74.5673 47.4605 74.8652 45.9711 74.9644 45.8718C75.4609 45.0775 75.6595 43.9853 75.3616 43.0917C74.7659 43.191 74.1701 42.8931 73.773 42.3967C73.0779 41.4038 73.8722 39.8151 74.7659 38.8222C75.6595 37.8293 77.2481 34.652 76.9503 32.6662C76.6524 30.6804 75.9574 30.7796 76.851 28.3967C78.241 24.3257 78.1417 18.964 84.9928 14.8931C91.0496 11.4179 96.7091 10.7229 102.269 12.6094C108.624 14.7938 112.794 19.2619 113.092 30.6804C113.191 34.8506 111.801 41.1059 109.816 42.1981C107.433 43.5882 106.638 52.5243 106.638 53.6165C106.936 60.0704 107.73 65.73 115.376 68.9073C117.659 69.9002 111.503 79.5314 111.404 82.113C111.305 84.6945 116.567 85.5882 115.177 87.8718C113.092 91.347 100.78 88.3683 95.5176 85.7867C92.9361 84.496 90.2552 83.5031 87.773 82.0137C85.8864 80.9215 76.6524 73.3754 76.5531 70.9924C76.5531 69.8009 83.3049 70.496 87.3758 64.7371Z" fill="#883A20"/>
<path d="M77.5459 43.3896C77.5459 43.3896 78.5388 43.886 78.936 43.191C79.631 42.1981 78.936 40.4108 78.4395 40.0137C80.0282 43.7867 77.5459 43.3896 77.5459 43.3896Z" fill="#3D1911"/>
<path d="M76.3546 42.2975C76.156 42.1982 76.0567 42.1982 75.8581 42.1982C75.6595 42.1982 75.461 42.1982 75.3617 42.2975C75.2624 42.2975 75.2624 42.3968 75.1631 42.3968C75.1631 42.4961 75.1631 42.5954 75.1631 42.5954L75.2624 42.6947C75.461 42.794 75.6595 42.5954 75.8581 42.5954C76.3546 42.5954 76.7517 42.6947 77.1489 42.8933C77.0496 42.5954 76.7517 42.3968 76.3546 42.2975Z" fill="#3D1911"/>
<path d="M114.085 28.1986C113.886 27.4043 113.787 26.7092 113.886 25.9149C113.886 25.1206 113.787 24.227 113.589 23.4326C113.489 22.7376 113.191 22.0426 112.893 21.3475C112.794 20.6525 112.397 18.6667 111.901 18.3688C111.603 18.1702 111.404 17.8724 111.305 17.5745C110.709 16.4823 109.915 15.4894 109.12 14.5958C108.425 14 107.433 13.5036 107.234 13.305C107.035 13.1064 106.142 12.3121 105.943 12.1135C104.851 11.5178 103.759 11.0213 102.468 10.8227C102.369 10.8227 102.269 10.7234 102.17 10.7234C102.071 10.6241 101.972 10.6241 101.972 10.5248C101.574 10.0284 98.8935 10.0284 98.5956 10.1277C98.1985 10.1277 97.8013 10.0284 97.4041 9.9291C96.5105 9.82978 95.6169 9.9291 94.8226 10.1277C94.2268 10.3263 93.7304 10.4256 93.1346 10.6241C92.3403 10.8227 91.6453 10.922 90.9502 10.922C90.0566 10.7234 88.468 11.617 87.8722 11.9149C87.7729 11.9149 87.7729 11.9149 87.6736 12.0142C87.2765 12.1135 86.8793 12.1135 86.4822 12.3121C85.0921 13.1064 83.6027 12.9078 82.7091 14.3972C82.6098 14.4965 82.5105 14.4965 82.4112 14.5958C81.6169 15.0922 80.5247 16.7802 80.624 17.3759C80.7233 17.9717 80.8226 18.5674 80.8226 18.5674C81.319 17.9717 81.5176 18.6667 81.7162 18.766C81.7162 18.766 81.8155 18.766 81.8155 18.8653C82.2127 19.3617 82.9077 19.5603 83.6027 19.5603C84.5956 19.8582 85.4892 20.0568 86.4822 20.1561C87.1772 20.6525 88.0708 20.7518 88.7658 20.3546C88.9644 20.3546 89.0637 20.3546 89.2623 20.3546C89.7588 20.7518 90.3545 21.149 91.0495 21.2483C91.8439 21.3475 92.6382 21.3475 93.4325 21.2483C93.6311 21.2483 93.8297 21.149 94.0282 21.2483C94.1275 21.2483 94.2268 21.3475 94.3261 21.4468C94.624 21.7447 94.7233 22.1419 94.624 22.4397C94.624 22.4397 95.5176 22.7376 95.7162 23.1348C95.9148 23.5319 95.9148 24.7234 95.5176 25.1206C95.2197 25.5178 95.1204 25.9149 95.0212 26.4114C94.9219 27.1064 94.7233 27.8014 94.7233 28.4965C94.624 29.0922 94.5247 29.688 94.5247 30.1844C94.4254 31.078 95.319 32.766 95.2197 33.1631C95.2197 33.2624 95.319 33.3617 95.4183 33.461C95.4183 33.7589 95.4183 34.0568 95.4183 34.4539V35.9433C95.4183 35.9433 95.4183 36.0426 95.319 36.0426C95.319 36.0426 95.319 36.0426 95.4183 35.9433C95.4183 36.3404 95.4183 36.8369 95.4183 37.2341C95.5176 37.8298 96.6098 38.0284 96.7091 37.7305C97.007 37.1348 97.9999 37.2341 98.1985 36.9362C98.397 36.4397 98.4963 35.844 98.4963 35.2482C99.39 34.9504 99.8864 33.7589 100.78 33.5603C102.071 33.461 103.262 34.156 103.957 35.2482C104.156 36.1419 103.957 37.0355 103.461 37.8298C102.865 38.5248 102.468 39.3192 102.071 40.1135C101.773 41.0071 101.872 42 101.674 42.8936C101.574 43.7873 100.879 44.5816 99.9857 44.7802C105.745 47.1631 104.95 50.7376 106.042 51.3334C106.042 51.3334 105.943 52.8227 106.638 52.6241C106.837 52.5248 107.035 51.9291 107.333 51.1348C108.028 50.8369 107.631 49.9433 107.73 49.4468V49.3475C107.73 49.2482 107.73 49.2482 107.83 49.2482C107.929 49.149 108.128 48.2553 108.227 47.3617C108.227 47.2624 108.326 47.1631 108.326 47.0639C109.915 44.6809 111.007 42.7943 111.801 40.7092C112.198 40.1135 112.397 39.7163 112.397 39.617C112.298 39.3192 112.695 38.7234 112.695 38.3263C112.695 37.9291 112.596 37.6312 112.794 37.3334C113.191 36.8369 113.39 36.1419 113.489 35.5461C113.787 34.1561 113.688 32.1702 113.886 31.4752C114.085 30.2837 114.085 29.2908 114.085 28.1986Z" fill="#3D1911"/>
<path d="M100.383 38.4255C100.284 38.3262 100.185 38.3262 100.085 38.3262H99.7874L100.085 38.5248C100.284 38.624 100.383 38.8226 100.284 39.0212C100.284 39.2198 100.085 39.7162 99.8867 39.8155L99.5889 39.9148L99.8867 40.0141H99.986C100.085 40.0141 100.482 39.9148 100.582 39.1205C100.582 38.8226 100.482 38.624 100.383 38.4255Z" fill="#3D1911"/>
<path d="M102.667 35.4467C102.667 35.4467 99.5886 34.9502 99.5886 37.8297C99.5886 37.8297 99.4893 38.2268 99.7872 38.3261C99.7872 38.3261 99.5886 36.7375 100.482 36.241C101.177 35.7446 101.872 35.546 102.667 35.4467Z" fill="#3D1911"/>
<path d="M79.0353 47.2623C78.8367 47.163 78.6381 47.0637 78.4396 46.9644C78.1417 46.7659 77.8438 46.6666 77.6452 46.468C77.3474 46.2694 77.0495 46.0708 76.7516 45.9715C76.3545 45.8722 75.9573 45.7729 75.5601 45.7729C75.3615 45.7729 75.2622 45.7729 75.0637 45.7729C74.6665 45.7729 74.6665 46.2694 74.6665 46.5673C74.6665 46.7659 74.7658 46.9644 74.8651 47.163C74.8651 47.2623 74.9644 47.3616 75.0637 47.4609C75.163 47.5602 75.2623 47.6595 75.4608 47.6595C74.6665 47.9573 74.7658 49.9432 76.1559 50.3403H76.4537C76.9502 50.241 77.3474 49.9432 77.7445 49.6453C78.1417 49.3474 79.4325 48.3545 79.9289 47.9573C80.0282 47.9573 80.2268 47.7588 80.3261 47.6595C80.3261 47.6595 80.7232 47.3616 80.8225 47.163C80.2268 47.5602 79.631 47.5602 79.0353 47.2623Z" fill="#632212"/>
<path d="M84 45.0776C84.1986 45.9713 84.2979 46.7656 84.2979 47.6592C84.4965 46.7656 84.3972 45.7727 84 45.0776Z" fill="#632212"/>
<path d="M101.674 17.1772C101.575 16.78 101.376 16.4821 101.078 16.2835C100.78 16.085 100.681 16.085 100.185 16.085C100.482 16.1843 100.78 16.2835 101.078 16.5814C101.277 16.6807 101.475 16.8793 101.674 17.1772Z" fill="#6C2D14"/>
<path d="M100.78 29.6877C100.78 29.3899 100.582 29.092 100.383 28.8934C100.185 28.6948 100.085 28.6948 99.5889 28.6948C99.8867 28.7941 100.185 28.9927 100.383 29.1913C100.482 29.2906 100.582 29.4891 100.78 29.6877Z" fill="#6C2D14"/>
<path d="M105.943 43.688C105.943 43.3901 105.745 43.1915 105.546 43.0922C105.347 42.8937 105.347 42.8937 104.95 42.993C105.149 43.0922 105.347 43.1915 105.546 43.2908C105.645 43.2908 105.844 43.4894 105.943 43.688Z" fill="#6C2D14"/>
<path d="M105.844 43.6878C105.745 43.4892 104.653 42.5956 105.248 43.092C105.546 43.1913 105.745 43.3899 105.844 43.6878C105.844 43.6878 105.943 43.6878 105.844 43.6878L104.95 42.9927C104.95 42.9927 104.851 42.9927 104.95 42.9927C105.447 42.8935 105.745 43.092 105.844 43.6878C105.844 43.6878 105.943 43.6878 105.844 43.6878Z" fill="#6C2D14"/>
<path d="M91.6455 18.2695C91.3476 18.0709 90.9504 18.0709 90.6526 18.1702C90.3547 18.2695 90.2554 18.3688 89.9575 18.7659C90.1561 18.5674 90.454 18.3688 90.8511 18.2695C91.0497 18.2695 91.3476 18.2695 91.6455 18.2695Z" fill="#6C2D14"/>
<path d="M98.6948 17.6738C98.3969 17.2767 97.9998 16.8795 97.6026 16.6809C97.3047 16.5816 97.2054 16.5816 96.709 16.6809C97.0069 16.6809 97.404 16.7802 97.7019 16.8795C98.0991 17.0781 98.4962 17.3759 98.6948 17.6738Z" fill="#6C2D14"/>
<path d="M91.1487 13.9998C90.9501 13.9005 90.6522 13.8012 90.4537 13.9005C90.1558 13.9998 90.1558 13.9998 89.8579 14.397C90.0565 14.1984 90.2551 14.0991 90.5529 13.9998C90.7515 14.0991 90.9501 14.0991 91.1487 13.9998Z" fill="#6C2D14"/>
<path d="M106.042 29.8864C105.943 29.6878 105.745 29.4892 105.546 29.3899C105.347 29.2906 105.248 29.2906 104.95 29.3899C105.149 29.3899 105.347 29.3899 105.645 29.4892C105.745 29.6878 105.943 29.7871 106.042 29.8864Z" fill="#6C2D14"/>
<path d="M106.936 46.8653C107.036 46.6667 107.036 46.3689 106.936 46.1703C106.837 45.8724 106.837 45.8724 106.539 45.6738C106.638 45.8724 106.837 46.071 106.837 46.3689C106.837 46.4682 106.837 46.6667 106.936 46.8653Z" fill="#6C2D14"/>
<path d="M106.837 46.8653C106.837 46.8653 106.638 45.1774 106.738 45.9717C106.738 46.2696 106.936 46.5674 106.837 46.8653C106.837 46.4682 106.738 46.071 106.539 45.6738H106.638C107.036 45.9717 107.135 46.4682 106.837 46.8653Z" fill="#6C2D14"/>
<path d="M111.801 29.9858C111.901 29.7872 111.801 29.4893 111.702 29.2907C111.603 29.0921 111.503 28.9928 111.206 28.8936C111.404 29.0921 111.503 29.2907 111.603 29.4893C111.801 29.5886 111.801 29.7872 111.801 29.9858Z" fill="#6C2D14"/>
<path d="M109.319 40.4114C109.319 40.2128 109.319 39.9149 109.12 39.7163C108.922 39.5177 108.922 39.5177 108.624 39.4185C108.823 39.5177 109.021 39.7163 109.12 39.9149C109.22 40.0142 109.22 40.2128 109.319 40.4114Z" fill="#6C2D14"/>
<path d="M106.44 19.2621C106.44 19.0635 106.44 18.8649 106.241 18.7656C106.142 18.5671 106.043 18.5671 105.745 18.4678C105.943 18.5671 106.043 18.6664 106.241 18.8649C106.44 18.9642 106.44 19.0635 106.44 19.2621Z" fill="#6C2D14"/>
<path d="M111.801 36.2409C111.801 36.0424 111.702 35.8438 111.603 35.7445C111.404 35.5459 111.404 35.5459 111.106 35.5459C111.305 35.6452 111.404 35.7445 111.603 35.9431C111.702 35.9431 111.702 36.0424 111.801 36.2409Z" fill="#6C2D14"/>
<path d="M104.454 14.3974C104.454 14.1988 104.454 14.0002 104.354 13.9009C104.255 13.7023 104.156 13.7023 103.858 13.603C104.056 13.7023 104.156 13.9009 104.255 14.0002C104.354 14.0995 104.454 14.1988 104.454 14.3974Z" fill="#6C2D14"/>
<path d="M85.6881 14.0994C85.3902 13.9008 84.9931 13.8015 84.6952 13.9008C84.298 14.0001 84.298 14.0001 83.9009 14.3972C84.1988 14.1986 84.4966 14.0994 84.7945 14.0994C85.0924 14.0001 85.3902 14.0001 85.6881 14.0994Z" fill="#6C2D14"/>
<path d="M84.7944 16.6806C84.4965 16.5813 84.0993 16.6806 83.9008 16.8791C83.6029 17.0777 83.5036 17.177 83.4043 17.6735C83.6029 17.3756 83.9008 17.177 84.1986 16.9784C84.2979 16.8791 84.5958 16.7798 84.7944 16.6806Z" fill="#6C2D14"/>
<path d="M107.333 33.4604C107.333 33.0632 107.234 32.7653 106.936 32.4675C106.737 32.1696 106.638 32.1696 106.142 32.0703C106.439 32.2689 106.737 32.4675 106.936 32.7653C107.135 32.9639 107.234 33.2618 107.333 33.4604Z" fill="#6C2D14"/>
<path d="M111.702 23.2338C111.702 22.8367 111.603 22.5388 111.305 22.2409C111.106 21.943 111.007 21.943 110.511 21.8438C110.809 22.0423 111.106 22.2409 111.305 22.5388C111.404 22.7374 111.603 23.0352 111.702 23.2338Z" fill="#6C2D14"/>
<path d="M102.369 23.4324C102.269 23.1346 101.971 22.8367 101.574 22.8367C101.177 22.7374 101.177 22.7374 100.681 22.936C100.979 22.8367 101.276 22.8367 101.574 22.936C101.872 23.0353 102.17 23.2339 102.369 23.4324Z" fill="#6C2D14"/>
<path d="M99.1913 23.8292C99.092 23.6306 98.8934 23.4321 98.6949 23.3328C98.4963 23.2335 98.397 23.2335 98.0991 23.3328C98.2977 23.3328 98.5956 23.4321 98.7942 23.5314C98.8934 23.5314 99.092 23.6306 99.1913 23.8292Z" fill="#6C2D14"/>
<path d="M111.603 20.5531C111.603 20.2552 111.404 20.0567 111.206 19.9574C111.007 19.7588 111.007 19.7588 110.61 19.7588C110.808 19.8581 111.007 19.9574 111.206 20.156C111.305 20.2552 111.503 20.3545 111.603 20.5531Z" fill="#6C2D14"/>
<path d="M99.3901 80.2267C105.248 80.1274 110.61 76.553 112.894 71.092C113.291 70.0991 113.787 68.9076 114.78 68.6097C115.277 68.5104 115.773 68.6097 116.269 68.8083C121.035 70.3969 125.901 72.0849 129.674 75.6594C136.326 82.014 137.816 92.5388 138.014 102.17L121.73 108.525C121.234 118.156 121.532 127.886 122.624 137.518C123.617 147.149 125.206 156.78 126.993 166.213C127.39 168.596 127.887 170.979 128.383 173.362L129.078 176.936C129.177 177.631 129.574 178.624 128.879 179.12C128.184 179.617 126.993 179.418 126.199 179.418C125.106 179.418 124.014 179.418 122.823 179.518C120.638 179.518 118.355 179.518 116.071 179.518C107.135 179.418 98.1986 179.021 89.2624 178.227C87.773 178.128 86.1844 177.929 84.695 177.83C80.3262 177.532 75.9574 176.737 71.7872 175.447C70.4964 175.149 69.4042 174.354 68.8085 173.163C68.6099 172.468 68.6099 171.674 68.7092 170.879C70.5957 150.128 70.8936 129.177 69.5035 108.326L60.7659 105.347C60.2695 105.248 59.8723 104.95 59.5744 104.553C59.3759 104.156 59.2766 103.659 59.3759 103.163C59.5744 98.2977 60.2695 93.4324 61.3617 88.7657C62.4539 84.2977 63.9432 79.9289 66.8227 76.553C70.8936 71.787 77.0496 69.9998 82.8085 68.4111C85.6879 74.4679 91.1489 79.2338 97.4042 80.0282C98.0993 80.2267 98.695 80.2267 99.3901 80.2267Z" fill="#681319"/>
<path d="M137.22 132.156C137.12 130.269 137.12 127.986 137.12 126.099C137.22 124.113 137.319 121.631 137.418 119.645C137.617 114.085 137.12 110.709 136.823 105.149C136.624 101.971 137.617 102.865 137.617 99.2905L122.525 104.851C119.645 114.085 120.142 128.283 121.532 134.042L122.723 138.908C118.354 143.276 105.645 173.461 105.645 173.461H105.744C104.95 174.255 104.057 174.851 103.064 175.347C101.078 176.142 96.8083 178.227 95.0211 178.425C95.0211 178.425 94.3261 177.929 92.1417 180.908C89.9573 183.986 89.2622 183.688 88.0707 185.376C88.0707 185.376 85.8863 186.468 85.8863 187.262C85.8863 188.056 86.5814 189.149 89.6594 188.255C90.4537 187.858 91.248 187.361 91.9431 186.865C90.9502 187.957 89.7587 188.95 88.5672 189.844C87.475 190.34 86.5814 191.333 85.9856 191.73C85.3899 192.028 82.3119 193.021 83.2055 194.709C83.2055 194.709 83.4041 196 84.5956 195.702C84.5956 195.702 84.5956 195.702 84.6948 195.702C84.6948 196 84.9927 196.298 84.9927 196.298C84.9927 196.298 85.1913 196.595 85.9856 196.893C87.0778 197.291 86.6807 197.092 87.9714 197.191C87.9714 197.191 88.3686 197.092 88.8651 197.092C89.858 197.489 89.0636 197.092 89.7587 197.588C90.553 198.184 91.5459 198.581 92.5388 198.581C92.5388 198.581 95.0211 198.78 95.8154 197.886C96.8083 197.986 97.8012 197.886 98.7941 197.489C100.383 196.496 102.369 195.106 102.766 194.908C104.354 194.014 105.546 192.624 106.241 190.936C107.432 188.156 109.12 183.787 111.007 182.595C112.893 181.404 113.588 176.439 114.383 175.844C123.319 166.51 130.17 158.071 134.142 149.234C134.837 147.546 135.73 145.957 136.823 144.567C137.518 142.482 137.915 140.397 138.113 138.213C137.617 135.929 137.22 132.156 137.22 132.156Z" fill="#883A20"/>
<path d="M78.7378 30.5815C78.8371 29.4893 79.4328 29.6878 80.0286 29.5885C80.6243 29.4893 81.3193 29.5885 81.9151 29.4893C82.7094 29.4893 83.4045 29.4893 84.0002 29.5885C84.6952 29.6878 85.291 29.9857 85.6881 30.4822C86.1846 30.9786 86.4825 31.5744 86.5818 32.1701C86.4825 32.2694 86.2839 32.3687 86.1846 32.3687C85.986 32.3687 85.986 32.3687 85.6881 32.1701C85.3903 31.9715 85.1917 31.7729 84.8938 31.5744C84.1988 31.1772 83.3052 30.9786 82.4115 31.0779C81.5179 31.0779 80.7236 31.2765 79.83 31.3758C79.6314 31.3758 79.135 31.5744 78.9364 31.4751C78.7378 31.3758 78.7378 30.78 78.7378 30.5815Z" fill="#3D1911"/>
<path d="M85.1917 35.149C85.1917 34.454 83.8016 33.7589 83.7023 33.7589C83.0073 33.4611 82.3123 33.2625 81.6172 33.3618C81.1208 33.3618 80.7236 33.5603 80.3264 33.7589C79.83 33.9575 79.2342 34.0568 78.7378 33.9575C79.0357 34.2554 79.3335 34.454 79.6314 34.6525C79.6314 34.7518 79.5321 34.9504 79.6314 35.149C79.7307 36.0426 80.1279 36.6384 80.9222 36.8369H81.0215C81.1208 36.8369 81.1208 36.8369 81.1208 36.8369C82.5108 36.6384 82.8087 34.7518 81.9151 34.0568C82.4116 34.0568 82.8087 34.1561 83.3052 34.3547C83.5038 34.454 83.8016 34.5533 84.0002 34.7518C84.0995 34.8511 84.3974 35.0497 84.3974 35.2483C84.3974 35.4469 84.2981 35.4469 84.1988 35.5462C84.0995 35.6455 83.9009 35.7447 83.8016 35.9433L83.4045 36.1419L84.4967 35.6455L84.6952 35.5462C84.9931 35.5462 85.1917 35.4469 85.1917 35.149Z" fill="#331510"/>
<path d="M80.9219 36.1419C81.1205 36.0426 81.2197 35.9433 81.319 35.7447C81.4183 35.5462 81.4183 35.2483 81.319 35.0497C81.2197 34.8511 81.1205 34.6525 80.9219 34.454C81.1205 34.2554 81.4183 34.454 81.6169 34.7518C81.7162 35.0497 81.8155 35.2483 81.7162 35.5462C81.6169 35.844 81.4183 36.0426 81.2197 36.1419C81.1205 36.1419 80.9219 36.2412 80.9219 36.1419Z" fill="#632212"/>
<path d="M15.1915 100.879L12.5107 101.277C11.9149 101.376 11.3192 101.574 10.8227 101.972C8.63828 103.262 5.2624 107.135 5.65956 118.355C6.25531 134.539 8.53899 141.489 7.64538 147.943C6.75176 154.397 3.37587 164.028 8.24112 188.355C8.24112 188.355 9.33332 201.461 6.85105 208.808C6.25531 210.199 5.95743 211.688 5.75885 213.177C5.75885 214.766 6.3546 214.865 6.55318 217.546C6.75176 219.532 6.55318 221.716 7.74467 223.901C8.24112 224.794 8.93616 227.277 10.0284 228.17C10.922 228.965 11.8156 228.071 12.5107 228.567C14.6951 229.858 15.8866 229.461 16.4823 228.567C17.2766 227.376 14.0993 226.681 13.4043 225.986C13.4043 225.986 16.383 227.475 16.9788 226.284C17.5745 224.993 13.9007 223.305 13.4043 222.511C12.3121 220.426 11.8156 218.241 11.8156 215.957C12.0142 214.269 12.3121 212.582 12.8085 210.993C12.8085 210.993 13.7022 214.071 13.4043 215.56C13.1064 217.05 13.0071 222.61 15.4894 222.312L16.0851 222.213C16.1844 221.22 16.1844 220.326 16.0851 219.333C15.9859 217.447 16.4823 212.681 16.383 211.39C16.2837 210.099 15.4894 202.752 14.1986 199.972C12.9078 197.191 13.4043 180.014 15.8866 173.262C18.3688 166.511 16.6809 154.596 16.8795 153.007C17.0781 151.418 17.8724 144.865 17.8724 142.383C17.8724 140.794 18.8653 128.284 18.6667 117.262" fill="#883A20"/>
<path d="M77.2484 349.305C77.1491 350.099 76.8512 350.695 76.3548 351.291C75.6598 351.986 74.6668 352.482 73.7732 352.581C65.4328 354.964 56.8938 357.149 48.1562 357.744C45.5746 357.943 43.0924 357.943 40.5108 357.844C32.6668 357.447 25.1207 355.064 17.5746 352.581C17.5746 352.581 17.5746 352.581 17.4754 352.581C17.2768 352.482 16.9789 352.383 16.7803 352.383C14.4966 351.588 12.3122 350.893 10.0285 350.198C8.3406 349.702 6.35479 348.908 5.75904 347.12C5.46117 346.326 5.46117 345.432 5.56046 344.539C5.85833 341.262 7.14911 338.184 7.94344 335.007C8.14202 334.113 8.3406 333.22 8.43989 332.326C8.93635 327.957 8.93635 323.39 9.13493 319.021C9.23422 317.929 9.23422 316.142 9.33351 313.858C9.4328 310.184 9.53209 305.12 9.53209 299.361C9.63138 295.588 9.63138 291.517 9.73067 287.347C9.82996 282.482 9.82996 277.518 9.92925 272.752C10.1278 259.943 10.2271 248.624 10.3264 244.95C10.3264 244.255 10.3264 243.56 10.4257 242.865C10.525 237.702 10.7236 232.539 10.8229 227.475C10.8229 225.688 10.9222 223.9 10.9222 222.113C11.0215 215.957 11.1207 209.9 11.1207 203.744V201.858C11.1207 191.929 11.1207 181.702 13.0073 171.971C13.4044 169.986 13.8016 168.099 14.298 166.213C15.8867 160.454 17.8725 154.993 18.7661 149.135C19.2626 145.957 18.8654 142.879 18.2697 139.702C17.7732 137.12 17.1775 134.539 16.9789 131.858C16.5817 127.588 18.369 121.929 15.0924 119.447C12.4115 117.461 7.04982 113.688 4.46826 111.702C4.56755 111.007 4.66684 110.411 4.66684 109.716C5.46117 104.057 6.65266 98.9929 8.83706 94.6241C10.6243 90.9504 17.9718 89.9575 21.5463 88.5674C21.5463 88.5674 22.142 89.9574 23.3335 91.9433C25.5179 95.5177 29.6881 100.581 35.8441 101.276C37.4328 101.475 39.0215 101.276 40.5108 100.78C48.1562 98.5957 54.7094 90.0567 54.7094 90.0567C59.5746 90.7518 65.1349 92.1418 66.8229 95.2199C69.7023 100.383 71.4895 113.191 71.4895 113.191L59.1775 118.652C58.8796 121.135 58.5817 124.213 58.2839 127.489C57.4895 137.021 57.1917 148.638 58.3832 155.986C59.3761 161.347 61.1633 166.51 62.1562 171.872C62.3548 172.964 62.5534 174.057 62.752 175.149C64.0427 182.794 64.5392 190.638 65.0356 198.482C65.2342 202.255 65.5321 206.028 65.83 209.702L68.8087 246.142L69.1066 250.312C69.603 256.666 69.9009 263.12 70.0995 269.475C70.4966 280.893 70.6952 292.411 71.7874 303.83C72.1846 308.298 72.5817 312.766 72.9789 317.135C73.1775 319.915 73.3761 322.596 73.5746 325.376C73.8725 330.439 73.6739 336 74.9647 340.865C75.1633 341.461 75.2626 342.057 75.5605 342.652C75.759 343.248 76.0569 343.844 76.2555 344.439C76.8512 345.83 77.447 347.716 77.2484 349.305Z" fill="#681319"/>
<path d="M62.7516 175.05H57.9856C57.092 175.05 56.4962 174.255 56.4962 173.362V166.114H49.9429C49.0493 166.114 48.4536 165.319 48.4536 164.525V157.277H41.9005C41.0069 157.277 40.4111 156.482 40.4111 155.688V146.851C40.4111 145.958 41.0069 145.262 41.9005 145.262H48.4536V138.014C48.4536 137.121 49.0493 136.426 49.9429 136.326H56.5955V129.078C56.5955 128.184 57.1913 127.489 58.0849 127.39H58.2835C57.4891 136.922 57.1912 148.539 58.3827 155.887C59.3756 161.248 61.1628 166.411 62.1557 171.773C62.4536 172.865 62.6523 173.958 62.7516 175.05Z" fill="#3D1911"/>
<path d="M51.4328 111.205V120.241C51.4328 121.035 50.8371 121.73 49.9434 121.83H43.3902V129.078C43.3902 129.872 42.8938 130.468 42.1988 130.666C42.0995 130.666 42.0002 130.766 41.8016 130.766H35.2484V138.014C35.2484 138.808 34.6527 139.503 33.759 139.603H25.8158C25.7165 139.603 25.7165 139.603 25.6172 139.603H18.2697C17.7732 137.021 17.1775 134.439 16.9789 131.759C16.5817 127.489 18.369 121.83 15.0924 119.347C12.4115 117.361 7.04982 113.588 4.46826 111.603C4.56755 110.908 4.66684 110.312 4.66684 109.617H7.94344V102.269C7.94344 101.475 8.63847 100.78 9.4328 100.681H16.1846V93.4324C16.1846 92.5388 16.7803 91.8438 17.6739 91.8438H33.8583C34.7519 91.8438 35.3477 92.6381 35.3477 93.4324V100.681H41.9009C42.7945 100.681 43.3902 101.475 43.3902 102.269V109.518H49.9434C50.8371 109.716 51.4328 110.411 51.4328 111.205Z" fill="#3D1911"/>
<path d="M59.1773 112.993C59.3759 112.496 59.9717 113.291 60.6667 114.581L62.6525 100.979L65.2341 101.376C65.8298 101.475 66.4256 101.674 66.922 102.071C69.1064 103.362 72.4823 107.234 72.0851 118.454C71.4894 134.638 69.305 141.588 70.0993 148.042C70.8936 154.496 74.3689 164.127 69.5037 188.454C69.5037 188.454 68.4115 201.56 70.8937 208.908C71.4895 210.298 71.7874 211.787 71.9859 213.276C71.9859 214.865 71.3901 214.865 71.1915 217.645C70.9929 219.631 71.1915 221.716 70 224C69.5036 224.893 68.8086 227.376 67.7164 228.269C66.8228 229.064 65.9291 228.17 65.2341 228.666C63.0497 229.957 61.8583 229.56 61.2625 228.666C60.4682 227.475 63.6455 226.78 64.3405 226.085C64.3405 226.085 61.3617 227.574 60.766 226.383C60.1702 225.191 63.8441 223.404 64.3405 222.61C65.3335 220.525 65.9292 218.241 65.8299 215.957C65.6313 214.269 65.3334 212.581 64.8369 210.993C64.8369 210.993 63.9434 214.071 64.2413 215.56C64.5391 217.049 64.6384 222.61 62.0569 222.312L61.461 222.213C61.3617 221.22 61.3617 220.326 61.461 219.333C61.5603 217.447 61.0639 212.681 61.1632 211.39C61.2625 210.099 62.0568 202.752 63.3475 199.971C64.539 197.092 64.1419 180.014 61.6596 173.262C60.3688 169.787 60.1703 164.822 60.3689 160.652V160.454C60.071 158.369 59.8725 156.383 59.7732 154.298C59.7732 154.298 59.7732 149.333 59.5746 147.149C59.376 145.659 58.0851 142.879 58.0851 140.794C57.9858 137.915 55.7021 115.376 55.7021 115.376C56 111.404 58.5816 114.581 59.1773 112.993Z" fill="#883A20"/>
<path d="M21.5459 86.5812C22.7374 86.9784 24.7232 85.0919 26.014 85.3898C27.3048 85.5883 28.6948 85.489 29.9856 85.0919C31.7728 84.6947 33.4607 84.1983 35.0493 83.4039C36.7373 82.6096 38.1275 81.2195 38.9218 79.6309C40.1133 77.1486 39.8153 74.1699 39.021 71.5883C38.4252 69.4039 37.4323 67.3188 36.0423 65.5316C34.7515 63.8437 32.865 62.5529 30.7799 62.0564C29.5885 61.6593 28.1983 61.8578 27.1061 62.5529C26.0139 63.5458 25.2197 64.8366 24.8225 66.3259C24.5246 67.021 24.326 67.716 24.2267 68.5103C24.1275 69.4039 24.2267 70.3968 24.326 71.2905C24.6239 73.9713 24.7232 76.5529 24.7232 79.2337C24.8225 80.2266 24.6239 81.3188 24.0282 82.2124C23.7303 82.7089 23.2338 83.0068 22.7374 83.1061L21.8438 82.9075" fill="white"/>
<path d="M27.7021 81.0208C28.0992 79.1343 28.1985 74.4676 27.7021 72.5811C27.6028 71.9853 27.3049 71.4889 26.8085 71.191C26.2127 70.8931 25.4184 70.9924 24.8226 71.2903C22.539 72.0846 20.156 72.2832 17.773 71.9853C16.9787 71.886 16.1843 71.6875 15.4893 71.2903C14.7943 70.7938 14.3971 69.9995 14.3971 69.1059C14.4964 68.113 15.1914 66.9215 14.4964 66.3258C14.2978 66.1272 14.1985 66.0279 13.9999 65.9286C13.4042 65.4321 13.3049 64.5385 13.8014 63.9428C13.9007 63.8435 13.9999 63.7442 14.0992 63.6449C13.5035 63.2477 13.1063 62.652 13.007 61.957C13.007 61.8577 13.007 61.6591 13.1063 61.5598C13.5035 60.9641 14.1985 59.574 13.9007 59.0775C13.7021 58.7797 13.4042 58.7797 13.1063 58.5811C12.7092 58.1839 12.5106 57.4889 12.8085 56.8931C13.007 56.2974 13.4042 55.8009 13.7021 55.3045C14.695 53.5172 15.2907 51.5314 15.39 49.4463C15.4893 47.3612 15.6879 45.3754 16.1843 43.2903C17.2765 38.9215 20.5531 35.6449 23.929 33.0633C28.695 29.4889 34.851 28.2974 40.6099 29.5882C43.6879 30.3825 52.4255 33.4605 52.6241 44.7797C52.7233 48.9499 50.7375 52.7229 48.6524 55.9995C46.5673 59.2761 44.7801 60.7655 43.9858 64.7371C43.4893 67.3187 43.5886 69.9002 44.0851 72.3825C45.2765 78.6378 48.4538 84.2974 51.8297 89.4605C53.4184 91.6449 54.6099 93.9286 55.6028 96.4109C56.3971 98.9924 56.4964 101.971 55.2056 104.255C53.2198 107.631 39.2198 104.751 33.9574 102.17C31.3758 100.879 28.695 99.8862 26.312 98.3967C24.4255 97.3045 21.1489 95.3187 21.0496 93.035C20.851 91.9428 25.5177 85.6875 27.7021 81.0208Z" fill="#883A20"/>
<path d="M18.8653 63.0494C18.8653 63.0494 18.071 63.8437 16.383 62.7515C16.2837 62.6522 16.2837 62.6522 16.1844 62.5529C15.8866 62.1558 15.4894 61.7586 14.993 61.56C13.4043 61.1629 13.2057 61.4607 13.1064 61.6593C13.0071 62.3543 13.305 63.0494 13.8015 63.4465C13.9008 63.5458 14 63.5458 14.0993 63.6451C13.305 63.943 13.305 65.5317 14.2979 66.0281C14.8937 65.7302 17.6738 64.5387 18.8653 63.0494Z" fill="#3D1911"/>
<path d="M15.9856 58.3827C15.8863 58.2834 15.787 58.1841 15.5884 58.1841C15.3899 58.1841 15.1913 58.1841 14.9927 58.1841C14.8934 58.1841 14.7941 58.2834 14.7941 58.2834C14.6948 58.3827 14.6948 58.482 14.6948 58.482L14.7941 58.5812C14.9927 58.6805 15.2906 58.482 15.5884 58.482C15.8863 58.482 16.1842 58.5812 16.4821 58.7798C16.3828 58.9784 16.3828 58.6805 15.9856 58.3827Z" fill="#3D1911"/>
<path d="M16.3828 59.574C16.3828 59.574 17.1771 59.8719 17.5743 59.4748C18.17 58.879 17.5743 57.6875 17.1771 57.3896C18.5672 59.7726 16.3828 59.574 16.3828 59.574Z" fill="#3D1911"/>
<path d="M56 36.4395C56.4965 34.9502 51.0355 38.8225 50.4398 37.4324C49.844 36.0424 49.9433 35.9431 48.6525 36.0424C49.4468 35.4466 47.3617 26.4112 46.071 27.0069C46.071 25.4183 34.7518 24.0282 34.2554 27.5034L33.9575 27.8012C29.4894 27.9998 25.4185 30.1842 22.8369 33.7587C27.1064 35.7445 28.5958 36.4395 31.078 40.3119C33.3617 43.9856 32.6667 44.9785 33.8582 49.248C34.1561 50.4395 34.7518 51.7303 35.844 51.9289C36.539 51.9289 37.1348 51.7303 37.7305 51.3331C39.0213 50.6381 40.9078 50.4395 41.5036 51.8296C41.8015 52.9218 41.6029 54.1133 40.8085 55.0069C40.1135 55.8012 39.5178 56.7941 39.2199 57.8863C39.1206 58.5814 39.3192 59.2764 39.2199 59.9714C39.1206 60.6665 38.7234 61.4608 38.0284 61.3615C38.8227 64.1417 40.3121 75.9573 42.5958 77.4466C46.766 80.1275 46.6667 90.2551 47.9575 89.4608C48.2554 89.2622 48.5532 89.0636 48.8511 88.9643C49.2483 88.8651 49.7447 88.8651 50.1419 88.9643C51.3334 88.9643 52.3263 88.2693 52.922 87.2764C53.1206 86.78 53.4185 86.3828 53.7163 85.9856C54.0142 85.787 54.4114 85.787 54.8085 85.787C57.0922 85.5885 58.9788 68.5105 58.7802 66.0282C58.6809 65.631 58.6809 65.1346 58.7802 64.7374C58.9788 64.3402 59.2766 64.0424 59.5745 63.7445C62.2554 61.3615 62.5532 57.1913 60.071 54.4112C59.8724 54.1133 59.5745 53.9147 59.2766 53.6168C60.1702 52.1275 60.766 50.3402 60.8653 48.553C60.8653 46.7658 59.9717 44.78 58.383 44.3828C57.9859 44.2835 57.4894 44.0849 57.4894 43.6878C57.4894 43.4892 57.5887 43.2906 57.688 43.092C58.7802 40.9076 58.0851 38.2268 56 36.936" fill="#3D1911"/>
<path d="M72.5815 107.532C72.2837 107.333 71.9858 107.135 71.7872 106.738C71.5886 106.241 71.5886 105.745 71.6879 105.347C71.9858 102.865 70.8936 99.7872 68.6099 99.4893C68.6099 97.9009 68.2128 96.4115 67.3191 95.22C66.8227 94.6243 66.2269 94.0285 65.5319 93.6314L65.234 93.4328C65.234 93.4328 65.234 93.4328 65.234 93.3335C65.6312 92.3406 66.0284 91.7448 66.4255 90.9505C67.4184 88.9647 66.8227 86.4824 65.0354 85.1917C64.9362 85.0924 64.8369 84.9931 64.7376 84.8938C64.0425 84.3973 63.2482 84.3973 62.5532 84.7945C63.1489 84.0995 64.0425 82.6101 64.4397 80.0285C65.5319 72.0853 65.3333 56.7945 62.7518 49.1491C61.3617 45.0782 61.2624 43.3902 59.6737 39.4186C58.2837 36.2413 54.2127 29.6881 51.1347 28.4966C47.8581 27.2058 45.9716 25.7165 42.5957 24.7236C39.5177 23.83 27.5035 28.0002 27.2057 29.7874C27.2057 29.986 28.0993 29.2909 29.4893 28.6952C30.0851 28.4966 30.6808 28.298 31.2766 28.1987C32.2695 28.0995 33.2624 28.3973 33.9574 29.0924C43.3901 44.1846 41.6028 55.5037 42.3971 66.7236C42.8936 72.9789 40.6099 83.0073 37.9291 84.7945C35.4468 86.4824 31.4752 86.7803 28.8936 86.7803C27.6028 86.7803 26.4113 86.4824 25.3191 85.8867C24.4255 85.0924 23.7305 84.298 23.234 83.9009C23.1347 83.7023 22.9362 83.4044 22.8369 83.2058C22.6383 82.908 22.2411 82.7094 21.844 82.7094C19.461 82.6101 15.5886 82.8087 13.6028 84.298C12.1135 85.3902 10.2269 88.8654 10.2269 88.8654C8.04256 88.2697 7.14894 95.6172 5.85816 99.5886C5.461 100.78 5.16312 101.872 4.86525 102.965C4.56738 104.057 4.26951 105.248 4.07093 106.44C3.37589 109.418 3.07802 112.397 3.17731 115.475C3.47518 121.83 13.8014 122.326 17.8723 122.525C23.4326 122.922 28.9929 122.624 34.4539 121.73C40.5106 120.738 46.7659 119.347 52.5248 116.667C55.4042 117.56 58.1844 118.652 61.0638 119.347C64.6383 120.241 68.5106 120.539 71.8865 119.05C73.8723 118.355 75.3617 116.766 76.0567 114.78C76.7518 112.199 74.9645 109.021 72.5815 107.532Z" fill="white"/>
<path d="M37.8295 41.106C37.631 40.6095 36.7373 38.6237 36.3402 37.8294C35.5459 36.4393 34.7515 35.0493 33.8579 33.6592" fill="#803417"/>
<path d="M34.0566 38.0278C34.7517 38.7229 35.2481 39.6165 35.546 40.5101C36.3403 42.5952 37.0355 44.6803 37.6312 46.8647" fill="#803417"/>
<path d="M21.4468 61.5601C21.6454 62.0565 21.7446 62.553 21.8439 63.1487C21.9432 62.553 21.8439 61.9572 21.4468 61.5601Z" fill="#632212"/>
<path d="M61.8582 85.3901C61.8582 85.3901 55.305 97.6029 38.5249 100.582C38.5249 100.582 57.688 101.078 61.8582 85.3901Z" fill="#E3DEC9"/>
<path d="M50.3403 116.269C50.3403 116.269 38.4254 109.021 16.3828 108.326C16.3828 108.326 41.5034 113.489 50.3403 116.269Z" fill="#E3DEC9"/>
<path d="M10.2268 90.9502C10.2268 90.9502 6.45374 95.5176 11.319 101.276C9.63104 98.0991 9.33317 94.4254 10.2268 90.9502Z" fill="#E3DEC9"/>
<path d="M6.75195 109.121C6.75195 109.121 11.1208 117.262 25.518 117.66C25.518 117.759 6.95053 119.348 6.75195 109.121Z" fill="#E3DEC9"/>
<path d="M68.6097 100.582C68.6097 100.582 67.7161 112.596 49.248 108.326C49.248 108.326 70.2977 114.979 68.6097 100.582Z" fill="#E3DEC9"/>
<path d="M19.7589 84.2974C19.7589 84.2974 14.4965 94.8222 31.2766 92.042C31.1774 92.1413 17.4752 93.8293 19.7589 84.2974Z" fill="#E3DEC9"/>
<path d="M46.8652 86.7802C46.8652 86.7802 55.5034 78.8369 52.9219 59.6738C52.9219 59.6738 58.6808 78.3405 46.8652 86.7802Z" fill="#E3DEC9"/>
<path d="M37.7304 55.2057C37.6311 55.1064 37.5318 55.1064 37.4325 55.1064H37.1346L37.4325 55.305C37.6311 55.4043 37.7304 55.6029 37.6311 55.8015C37.6311 56.0001 37.4325 56.4965 37.2339 56.5958H36.936L37.2339 56.6951C37.3332 56.6951 37.7303 56.5958 37.8295 55.8015C37.9288 55.6029 37.8296 55.4043 37.7304 55.2057Z" fill="#3D1911"/>
<path d="M40.1136 52.2265C40.1136 52.2265 36.9363 51.73 36.9363 54.6095C36.9363 54.6095 36.837 55.0066 37.1349 55.1059C37.1349 55.1059 36.9363 53.418 37.9292 52.9215C38.5249 52.5244 39.3193 52.2265 40.1136 52.2265Z" fill="#3D1911"/>
<path d="M18.3687 45.0776C19.8581 45.0776 21.4467 45.2762 22.9361 45.4748C23.3332 45.4748 23.6311 45.5741 24.0283 45.7727C25.2198 46.4677 26.2127 47.4606 26.8084 48.6521C26.8084 48.6521 25.9148 47.7585 25.5176 47.5599C23.7304 46.2691 21.1488 46.3684 18.9644 46.4677C18.5673 46.3684 18.0708 45.0776 18.3687 45.0776Z" fill="#3D1911"/>
<path d="M25.0213 52.9218L24.6242 52.624C24.4256 52.5247 24.3263 52.3261 24.227 52.2268C23.7305 51.2339 22.7376 50.4396 21.6454 50.0424C21.2483 49.9431 20.7518 49.8438 20.2554 49.7445C19.8582 49.7445 19.3618 49.6453 18.9646 49.3474L17.9717 48.6523L18.5674 49.9431C18.766 50.4396 19.1632 50.5389 19.461 50.6382C19.3618 50.936 19.2625 51.3332 19.2625 51.4325C19.1632 52.0282 19.0639 52.624 19.6596 53.0211C20.1561 53.4183 20.8511 53.5176 21.4469 53.4183C22.1419 53.0211 22.4398 52.2268 22.1419 51.5318C22.5391 51.8297 22.9362 52.2268 23.2341 52.7233C23.4327 53.0211 23.6313 53.319 23.9291 53.4183C23.4327 53.6169 22.9362 53.8155 22.3405 54.1133C22.0426 54.2126 22.6383 54.3119 22.7376 54.3119C23.532 53.9148 24.3263 53.6169 25.1206 53.319C25.4185 53.1204 25.2199 53.0211 25.0213 52.9218Z" fill="#331510"/>
<path d="M21.2482 51.1348C21.2482 51.3333 21.2482 51.5319 21.2482 51.7305C21.1489 51.9291 20.9503 52.1277 20.7517 52.1277C20.5531 52.1277 20.2553 52.1277 20.0567 52.0284C19.9574 52.3263 20.3546 52.5248 20.5531 52.5248C20.851 52.5248 21.0496 52.4255 21.2482 52.227C21.4468 52.0284 21.4468 51.7305 21.4468 51.4326C21.4468 51.3333 21.3475 51.1348 21.2482 51.1348Z" fill="#632212"/>
</g>
<defs>
<clipPath id="clip0_384_41">
<path d="M0 70C0 31.3401 31.3401 0 70 0V0C108.66 0 140 31.3401 140 70V70C140 108.66 108.66 140 70 140V140C31.3401 140 0 108.66 0 70V70Z" fill="white"/>
</clipPath>
</defs>
</svg>
