<svg width="127" height="403" viewBox="0 0 127 403" fill="none" xmlns="http://www.w3.org/2000/svg">
<g clip-path="url(#clip0_338_142)">
<g filter="url(#filter0_d_338_142)">
<path d="M89.4302 44.0028C89.3422 45.102 89.2543 45.7783 89.2543 45.7783C88.9024 47.3001 87.9345 48.6527 86.9666 49.7519C85.9989 50.8509 84.6791 51.8653 83.4472 52.8799C82.2154 53.7252 80.9836 54.4016 79.5759 54.9089C81.2475 52.119 82.4793 48.9909 83.3592 46.2011C83.6232 45.3556 83.9751 44.5102 84.2391 43.6647C84.5031 42.8193 84.7671 41.8894 84.943 40.9594C85.031 40.3676 85.119 39.6913 85.207 39.0995C85.2949 38.5077 85.2949 37.8313 85.2949 37.155C85.207 36.4787 85.207 35.8023 85.119 35.126C84.5911 34.0269 84.2391 32.8434 83.9751 31.6598C83.8871 31.0679 83.7991 30.4761 83.7111 29.8844C84.7671 19.8239 75.0887 12.2151 64.9704 13.8213C64.0025 13.8213 62.9468 13.8213 61.9789 13.906C55.2041 14.7513 48.6052 20.2466 49.0451 27.179C48.9571 28.2781 48.9571 29.4617 48.7812 30.5607C48.6052 31.6598 48.3413 32.7588 47.7253 33.7733C46.8455 35.4642 47.2854 37.5777 47.5494 39.0995C47.6373 39.7758 47.7253 40.3676 47.8133 40.9594C47.9894 41.8894 48.2533 42.8193 48.5172 43.6647C48.7812 44.5102 49.0451 45.3556 49.3971 46.2011C50.1009 48.9909 51.1568 51.8653 52.6525 54.4861C49.6611 53.3871 47.0215 51.6963 45.4378 48.9909C44.294 47.0465 43.1502 44.9328 42.1823 42.7348C41.2145 40.7058 40.5106 38.5077 39.9827 36.225C38.663 27.6017 40.3347 17.7103 45.7897 10.7779C45.7897 9.67886 45.9657 8.4952 46.3176 7.48074C46.4935 7.05797 46.6696 6.6353 46.9335 6.29718C47.7253 5.28263 49.0451 4.69085 50.3649 4.43718C50.8049 4.35263 51.2448 4.26818 51.6846 4.26818C52.3886 4.09908 53.0924 4.18352 53.6204 4.43718C54.6762 4.0145 55.644 3.59178 56.7878 3.25364C58.4595 3.08458 60.1313 3 61.8909 3C74.1208 3.16907 87.6706 9.00252 91.6299 20.5847C92.0698 22.1066 92.3337 23.6283 92.4218 25.2346C92.8617 31.4907 91.0139 37.9159 89.4302 44.0028Z" fill="#F3AE1C"/>
<path d="M56.7878 8.66402C57.8436 7.81867 59.3393 7.14224 61.187 6.63501C59.4273 6.63501 57.8436 7.22679 56.2599 8.57946C54.9401 9.76302 54.1482 10.9467 53.8843 12.1302C54.5881 10.693 55.468 9.50946 56.7878 8.66402Z" fill="#CB862A"/>
<path d="M46.3174 15.5966C47.1973 14.9203 48.341 14.3285 49.9248 13.9058C48.5171 13.9058 47.1973 14.4131 45.9655 15.5121C44.9097 16.5266 44.2057 17.4565 44.0298 18.4711C44.6457 17.2875 45.4375 16.3575 46.3174 15.5966Z" fill="#CB862A"/>
<path d="M47.4616 29.2925C46.5817 25.7417 46.1418 21.9372 47.4616 18.5555C45.2619 22.3599 46.1418 27.0098 47.9015 30.7297C47.7255 30.2224 47.5496 29.7151 47.4616 29.2925Z" fill="#CB862A"/>
<path d="M86.7021 28.3623C86.8781 27.9396 87.0541 27.4324 87.23 27.0097C87.846 23.5435 88.7259 20.1617 87.846 16.7802C88.8138 20.5845 89.6936 25.2344 86.7021 28.3623Z" fill="#CB862A"/>
<path d="M51.4206 8.24161C50.5408 8.74884 49.397 9.08706 47.9893 9.34072C49.2211 9.50973 50.4529 9.17151 51.6846 8.32607C52.7404 7.56528 53.4443 6.71983 53.7082 5.87439C53.0043 6.80439 52.2125 7.56528 51.4206 8.24161Z" fill="#CB862A"/>
<path d="M92.7736 82.3848C92.1578 81.9619 91.4538 81.4544 90.75 81.1161C86.7027 78.7497 81.7756 77.6503 78.6082 73.846C75.9687 71.0561 77.0244 59.8119 76.8485 54.9085C77.0244 53.0486 77.1124 51.7805 77.1124 51.7805C75.4407 50.6813 71.9214 50.2587 67.3461 50.3431C67.1701 50.3431 67.0822 50.3431 66.9062 50.3431C66.7303 50.3431 66.6423 50.3431 66.4663 50.3431C66.3782 50.3431 66.2903 50.3431 66.2903 50.3431C66.2023 50.3431 66.1143 50.3431 66.1143 50.3431C65.9383 50.3431 65.8504 50.3431 65.6744 50.3431C65.4985 50.3431 65.4105 50.3431 65.2345 50.3431C60.6593 50.1741 57.1399 50.6813 55.4681 51.7805C55.4681 51.7805 55.5561 53.0486 55.7322 54.9085C55.8202 60.3191 56.6999 71.1405 54.0604 73.9305C50.981 77.6503 47.0216 77.9039 42.8864 80.2712C42.1825 80.6941 41.4786 81.1161 40.8628 81.539C35.7596 85.1741 31.8003 87.3722 31.8003 92.6143C31.8003 104.196 46.6697 111.298 65.2345 111.298C65.5864 111.298 66.0263 111.298 66.3782 111.298C66.7303 111.298 67.1701 111.298 67.5221 111.298C86.0868 111.298 100.252 104.196 100.252 92.6143C100.164 87.4569 97.7888 86.0199 92.7736 82.3848Z" fill="#96482C"/>
<path d="M69.7217 45.6093C69.7217 45.6093 70.6895 46.1166 71.2175 45.4402C71.9213 44.4258 71.2175 42.4812 70.6895 41.974C72.3612 46.032 69.7217 45.6093 69.7217 45.6093Z" fill="#502313"/>
<path d="M87.0547 32.4205C87.1426 32.4205 87.1426 32.4205 87.0547 32.4205C87.9345 32.5896 88.4624 34.365 88.7263 35.4641C89.0784 36.6477 87.0547 38.5921 86.8787 40.3675C86.6148 42.7347 86.7028 44.1719 85.6469 45.5246C84.6791 46.8772 84.0632 47.3 82.8314 47.0463L82.4795 46.9618L82.9194 44.0874C83.7112 38.8458 83.9752 35.6332 84.4151 34.6186L84.5911 34.2804C85.031 33.7732 86.6148 32.5051 87.0547 32.4205Z" fill="#994E2E"/>
<path d="M86.8787 40.3675C86.6148 42.7347 86.7028 44.1719 85.6469 45.5246C84.6791 46.8772 84.0632 47.3 82.8314 47.0463L82.4795 46.9618L82.9194 44.0874C83.7112 38.8458 83.9752 35.6332 84.4151 34.6186L84.5911 34.2804C85.031 33.7732 86.6148 32.5051 87.0547 32.4205C87.1426 32.4205 87.1426 32.4205 87.1426 32.4205C87.9345 32.5896 88.4624 34.365 88.7263 35.4641C89.0784 36.6477 87.0547 38.5921 86.8787 40.3675Z" fill="#994E2E"/>
<path d="M45.9656 32.505C47.1095 32.505 47.6373 33.773 47.9893 34.2803L48.3413 34.703C48.7811 35.7176 48.9571 38.8457 49.837 44.1718L50.2769 47.0463L49.837 47.1307C48.6052 47.3844 47.9893 46.8772 47.0215 45.609C45.9656 44.3408 46.0536 42.819 45.7897 40.4519C45.5258 38.592 43.59 36.732 43.942 35.5485C44.206 34.4495 44.8218 32.7586 45.5258 32.5895C45.7017 32.505 45.7897 32.505 45.9656 32.505Z" fill="#994E2E"/>
<path d="M50.2769 47.0463L49.837 47.1307C48.6052 47.3844 47.9893 46.8772 47.0215 45.609C45.9656 44.3408 46.0536 42.819 45.7897 40.4519C45.5258 38.592 43.59 36.732 43.942 35.5485C44.206 34.4495 44.8218 32.7586 45.5258 32.5895C45.7017 32.505 45.7897 32.505 45.9656 32.505C47.1095 32.505 47.6373 33.773 47.9893 34.2803L48.3413 34.703C48.7811 35.7176 48.9571 38.8457 49.837 44.1718L50.2769 47.0463Z" fill="#994E2E"/>
<path d="M47.6372 42.8193C47.3733 42.7347 47.1973 42.3965 47.1973 42.0584C47.1973 41.7202 47.1093 41.3821 47.3733 41.213C47.3733 41.213 47.9891 39.9449 47.9891 39.8603C47.9891 39.5221 47.9891 39.0994 47.9011 38.7613C47.8132 38.1694 47.6372 37.4931 47.1973 37.0704C46.7573 36.4786 45.9655 36.3095 45.3496 36.3941C45.1736 36.3941 45.0856 36.4786 44.9097 36.4786C44.9097 36.4786 45.7896 36.4786 47.0213 37.5776C47.3733 37.9159 47.6372 38.5076 47.7252 39.0994C47.8132 39.4375 47.1093 40.9593 47.1093 41.0439C46.9334 41.3821 46.9334 41.7202 46.9334 41.7202C47.0213 42.9038 47.4612 42.9883 47.6372 42.9883H47.7252L48.0771 42.9038L47.6372 42.8193Z" fill="#502313"/>
<path d="M84.4154 43.7491C84.6793 43.6646 84.8554 43.3265 84.8554 42.9884C84.8554 42.6501 84.9434 42.312 84.6793 42.1429C84.6793 42.1429 84.0635 40.8748 84.0635 40.7901C84.0635 40.452 84.0635 40.0293 84.1515 39.6912C84.2394 39.0994 84.4154 38.423 84.8554 38.0003C85.2953 37.4086 86.0871 37.2394 86.703 37.324C86.879 37.324 86.967 37.4086 87.1429 37.4086C87.1429 37.4086 86.2631 37.4086 85.0313 38.5076C84.6793 38.8458 84.4154 39.4376 84.3274 40.0293C84.2394 40.3675 84.9434 41.8892 84.9434 41.9738C85.1193 42.312 85.1193 42.6501 85.1193 42.6501C85.0313 43.8337 84.5913 43.9182 84.4154 43.9182H84.3274L84.0635 43.8337L84.4154 43.7491Z" fill="#502313"/>
<path d="M85.2946 37.1548C85.2946 37.8311 85.2946 38.5074 85.2066 39.0992C85.1186 39.691 85.0306 40.3674 84.9427 40.9592C84.7667 41.8891 84.5028 42.8191 84.2387 43.6645C83.9747 44.51 83.6228 45.3553 83.3589 46.2008C82.479 48.9907 81.3352 52.1187 79.5755 54.9086C77.0239 59.0511 73.4166 62.5174 68.2255 62.9402H66.3777C65.7619 63.0246 65.146 62.9402 64.5301 62.9402C58.9871 62.4328 55.2037 58.8821 52.6521 54.4859C51.1564 51.8651 50.1006 48.9907 49.3967 46.2008C49.0447 45.3553 48.7808 44.51 48.5169 43.6645C48.2529 42.8191 47.989 41.8891 47.8129 40.9592C47.725 40.3674 47.637 39.7756 47.549 39.0992C47.2851 37.5774 46.8452 35.464 47.725 33.7731C48.3409 32.7586 48.6048 31.6595 48.7808 30.5604C48.9568 29.4614 48.9568 28.2778 49.0447 27.1788C48.6048 20.2464 55.2037 14.751 61.9785 13.9056C62.9464 13.8211 64.0021 13.8211 64.97 13.8211C75.0883 12.2149 84.7667 19.8236 83.7108 29.8842C83.7987 30.476 83.8867 31.0677 83.9747 31.6595C84.2387 32.8431 84.5908 34.0267 85.1186 35.1257C85.2066 35.8021 85.2066 36.4784 85.2946 37.1548Z" fill="#994E2E"/>
<path d="M69.7217 45.6093C69.7217 45.6093 70.6895 46.1166 71.2175 45.4402C71.9213 44.4258 71.2175 42.4812 70.6895 41.974C72.3612 46.032 69.7217 45.6093 69.7217 45.6093Z" fill="#502313"/>
<path d="M68.3137 44.7638C68.5776 44.6793 68.8415 44.6793 68.9295 44.5946C69.1055 44.5946 69.3695 44.5946 69.6334 44.6793C69.7214 44.6793 69.8094 44.7638 69.8974 44.8484C69.9853 44.9329 69.9853 45.0175 69.8974 45.1021C69.8974 45.1021 69.8094 45.1867 69.7214 45.1867C69.4575 45.2712 69.1935 45.1021 68.9295 45.1021C68.3137 45.0175 67.2578 45.4405 67.2578 45.4405C67.2578 45.4405 67.6978 45.0175 68.3137 44.7638Z" fill="#502313"/>
<path d="M63.0346 45.6093C63.0346 45.6093 62.0668 46.1166 61.5388 45.4402C60.835 44.4258 61.5388 42.4812 62.0668 41.974C60.3951 46.032 63.0346 45.6093 63.0346 45.6093Z" fill="#502313"/>
<path d="M64.2662 44.7635C64.0902 44.679 63.8263 44.679 63.7383 44.679C63.5624 44.679 63.2983 44.679 63.1224 44.7635C63.0344 44.7635 62.9465 44.8482 62.8585 44.9327C62.7705 45.0173 62.7705 45.1018 62.8585 45.1865L62.9464 45.271C63.2103 45.3556 63.3864 45.1865 63.6503 45.1865C64.1782 45.1018 65.146 45.5247 65.146 45.5247C65.146 45.5247 64.882 45.0173 64.2662 44.7635Z" fill="#502313"/>
<path d="M60.9227 29.2923C59.163 28.8696 58.3711 28.8696 56.4355 28.7006C56.1715 28.7006 55.9076 28.7006 55.7316 28.7006C55.4676 28.7006 55.2037 28.7006 55.0277 28.7006C52.0363 29.1232 49.7486 31.3213 49.6606 31.6596C49.6606 31.6596 51.5963 30.5605 52.1242 30.3913C52.5641 30.2223 53.7959 29.9687 54.2358 29.9687C54.8518 29.8841 55.4676 29.8841 55.9956 29.8841C56.2595 29.8841 56.6114 29.8841 56.8754 29.9687C59.4269 30.2223 60.2188 31.2368 62.1545 30.2223C62.5065 29.8841 61.0987 29.2923 60.9227 29.2923Z" fill="#502313"/>
<path d="M61.8029 35.2951L61.7149 35.7178C61.4509 35.7178 61.363 35.6333 61.187 35.6333L60.0432 35.3797C59.9552 35.2951 59.8672 35.2951 59.7793 35.2951C59.6033 35.2951 59.4273 35.2106 59.1634 35.2106C59.4273 35.5488 59.5153 35.9715 59.5153 36.3941C59.5153 36.9859 59.2514 37.5777 58.8114 38.0005C58.3715 38.4231 57.7556 38.6768 57.1397 38.6768C56.5239 38.6768 55.9079 38.4231 55.468 38.0005C55.028 37.5777 54.7641 36.9859 54.7641 36.3941C54.7641 36.2251 54.8521 36.0559 54.8521 35.8869C54.7641 35.8869 54.7641 35.9715 54.6761 35.9715L54.4122 36.1406C54.1483 36.3096 54.0603 36.3941 53.8843 36.5632C53.6203 36.8169 53.2684 37.0706 53.0044 37.2396H52.9165C52.8285 37.2396 52.7405 37.3241 52.6525 37.3241H52.5645C52.3885 37.4087 52.3005 37.4087 52.2125 37.4087H51.7726C51.6847 37.4087 51.5967 37.3241 51.5087 37.3241C51.5087 37.2396 51.4207 37.2396 51.4207 37.2396C51.3327 37.155 51.1568 37.0706 51.0687 36.9859L50.7168 36.7323L51.1568 36.6478H51.5967C51.8606 36.6478 52.0366 36.6478 52.3005 36.4787C52.4765 36.3096 52.6525 36.2251 52.8285 36.0559L53.0044 35.8869C53.0924 35.8869 53.1804 35.8023 53.2684 35.7178L53.5323 35.4641L53.7083 35.3797C54.2362 35.0415 54.6761 34.7879 55.116 34.6187C55.2921 34.5342 55.468 34.5342 55.644 34.4497H55.732C55.9079 34.3651 56.0839 34.2806 56.2598 34.2806C56.6998 34.1116 57.1397 34.0269 57.7556 34.1961C58.9874 34.2806 59.8672 34.6187 60.7471 34.9569C61.099 35.126 61.4509 35.2951 61.8029 35.2951Z" fill="#502313"/>
<path d="M71.2174 29.2078C72.9771 28.7851 73.8569 28.8696 75.7926 28.7006C76.0566 28.7006 76.3205 28.7006 76.4965 28.7006C76.7604 28.7006 77.0244 28.7006 77.2004 28.7006C80.1918 29.1232 82.4795 31.3213 82.5674 31.6596C82.5674 31.6596 80.6317 30.5605 80.1039 30.3913C79.6639 30.2223 78.4322 29.9687 77.9922 29.9687C77.3763 29.8841 76.7604 29.8841 76.2325 29.8841C75.9686 29.8841 75.6166 29.8841 75.3526 29.9687C72.8011 30.2223 72.0093 31.2368 70.0735 30.2223C69.8096 29.8841 71.0414 29.2923 71.2174 29.2078Z" fill="#502313"/>
<path d="M81.3358 36.9014L80.9839 37.155C80.8959 37.2396 80.8079 37.3241 80.632 37.4087H80.544C80.456 37.4087 80.368 37.4931 80.2801 37.4931H79.8401C79.7521 37.4931 79.6641 37.4087 79.5761 37.4087H79.4882C79.4002 37.4087 79.3122 37.3241 79.2242 37.3241H79.1362C78.8723 37.155 78.5203 36.9014 78.2564 36.6478C78.1684 36.4787 77.9924 36.3941 77.8165 36.2251L77.5525 36.0559C77.4646 36.0559 77.4646 35.9715 77.3765 35.9715C77.4646 36.1406 77.4646 36.3096 77.4646 36.4787C77.4646 37.0706 77.2005 37.6623 76.7606 38.085C76.3207 38.5078 75.7048 38.7613 75.0889 38.7613C74.473 38.7613 73.8571 38.5078 73.4173 38.085C72.9773 37.6623 72.7133 37.0706 72.7133 36.4787C72.7133 36.0559 72.8893 35.6333 73.0652 35.2951C72.8013 35.2951 72.6253 35.3797 72.4494 35.3797C72.3614 35.4641 72.2734 35.4641 72.1855 35.4641C72.0975 35.4641 72.0094 35.5488 71.8334 35.5488L71.5695 35.6333C71.4815 35.6333 71.3936 35.7178 71.2176 35.7178H71.1296C70.9537 35.7178 70.7777 35.8023 70.6016 35.8023L70.5137 35.3797C70.9537 35.2106 71.3056 35.126 71.6575 34.9569C72.5374 34.6187 73.4173 34.2806 74.6489 34.1961C75.1769 34.0269 75.7048 34.1116 76.1448 34.2806C76.2328 34.3651 76.4087 34.3651 76.5847 34.4497H76.6727C76.7606 34.4497 76.9366 34.5342 77.1125 34.6187C77.5525 34.7879 77.9924 35.0415 78.4323 35.3797L78.6083 35.6333C78.6962 35.7178 78.7842 35.8023 78.8723 35.8869C78.9603 35.8869 79.0483 35.9715 79.1362 36.0559L79.3122 36.2251C79.4882 36.3941 79.6641 36.4787 79.8401 36.6478C80.1041 36.8169 80.2801 36.8169 80.544 36.8169H80.9839L81.3358 36.9014Z" fill="#502313"/>
<path d="M59.9551 50.7661C59.9551 50.7661 60.307 51.5269 61.0109 52.2033C61.7148 52.8796 63.2106 54.1477 65.2342 54.2323C67.1699 54.3168 67.9617 54.0632 68.4897 53.8095C69.0175 53.556 71.0411 52.4568 71.5691 51.6961C72.097 50.8506 72.009 50.6815 72.009 50.6815C72.009 50.6815 64.9702 50.5969 63.8264 50.6815C62.6826 50.6815 59.9551 50.7661 59.9551 50.7661Z" fill="#6C3321"/>
<path d="M58.5474 50.5122C58.5474 50.5122 60.1311 50.3432 61.011 50.1741C61.9787 50.005 63.5625 49.4132 64.1784 49.4977C64.7943 49.5823 65.4981 49.836 65.938 49.836C66.378 49.836 66.7299 49.3286 67.5218 49.4132C68.3136 49.4977 70.4253 50.3432 71.0412 50.3432C71.6571 50.3432 73.5048 50.5968 73.5048 50.5968C73.5048 50.5968 72.8008 50.935 71.3931 51.104C69.9853 51.2732 67.9617 51.5268 67.1698 51.3576C67.1698 51.3576 66.554 51.5268 65.938 51.6113C65.3222 51.6959 64.5303 51.4422 64.4423 51.4422C64.3543 51.4422 62.5067 51.6113 61.3629 51.4422C60.307 51.2732 59.0752 51.104 58.5474 50.5122Z" fill="#502313"/>
<path d="M117.673 207.169C117.233 204.802 116.793 202.857 116.177 201.42L115.562 199.984C114.154 197.278 113.098 194.065 112.394 190.43C111.691 186.71 111.075 182.821 110.458 178.762C110.458 178.594 110.458 178.425 110.37 178.256C110.37 178.002 110.282 177.663 110.282 177.411C110.018 175.466 109.754 173.522 109.402 171.577C109.402 171.324 109.314 170.985 109.226 170.731C109.05 169.379 108.786 168.11 108.522 166.759C107.203 157.374 105.531 151.033 103.42 147.736C103.156 147.398 102.98 147.059 102.716 146.806C101.308 146.721 99.9882 146.806 98.7564 147.144C97.7885 147.398 96.9087 147.821 96.0289 148.413C95.8529 148.582 95.6769 148.666 95.413 148.836C95.237 149.004 94.973 149.172 94.7971 149.342C93.9172 150.357 93.3013 151.202 92.8614 151.878C92.8614 151.963 92.7735 152.132 92.6855 152.217C92.5975 152.471 92.5094 152.724 92.4214 152.893C92.2455 153.315 92.2455 153.654 92.2455 153.739C92.1575 154.415 92.0695 155.09 92.0695 155.852C91.9816 158.389 92.3335 161.601 92.9494 165.49C93.1254 166.335 93.2134 167.181 93.4773 168.11C94.6211 171.914 96.1168 175.973 97.7885 180.538C97.8765 180.707 97.9645 180.961 97.9645 181.13C99.0203 183.835 100.692 188.147 102.892 193.981C103.156 194.656 103.332 195.249 103.596 195.925C103.684 196.178 103.772 196.517 103.86 196.77L103.684 196.854L103.508 196.939C101.748 200.237 101.484 203.702 102.804 207.422C103.772 210.213 103.596 212.664 102.188 214.777C101.66 215.623 100.868 216.385 99.9882 217.145C98.8444 217.906 98.1405 218.836 97.7005 219.935C97.6126 220.104 97.6126 220.357 97.6126 220.527L97.9645 220.864C98.7564 221.034 99.6363 220.949 100.516 220.611C100.692 220.527 100.956 220.357 101.22 220.273L99.6363 222.133L99.1963 223.57C99.7242 223.655 100.252 223.74 100.868 223.74C101.308 223.655 101.748 223.57 102.276 223.486V223.57C103.156 223.74 104.035 223.74 104.915 223.655C105.179 223.655 105.531 223.57 105.883 223.486C106.235 223.401 106.587 223.316 106.939 223.147L107.115 223.062C108.962 222.556 110.546 221.795 111.867 220.78C112.922 220.02 113.89 219.09 114.682 218.075C114.77 217.906 114.946 217.737 115.034 217.652C115.034 217.568 115.122 217.568 115.122 217.483C115.738 217.822 116.177 217.906 116.441 217.652C116.881 217.398 116.969 216.807 116.617 215.792C116.529 215.454 116.529 215.116 116.441 214.862C117.057 213.34 117.321 211.819 117.409 210.213C117.849 209.283 117.849 208.184 117.673 207.169Z" fill="#994E2E"/>
<path d="M110.194 201.335C109.93 201.758 109.666 202.351 109.49 203.111C109.05 204.97 109.05 206.662 109.49 208.269C109.93 209.79 110.546 211.481 111.515 213.509C112.483 215.454 113.626 216.807 115.122 217.568C115.738 217.822 116.178 217.906 116.442 217.822C116.442 217.906 116.618 217.822 116.969 217.652C116.354 218.329 115.474 218.413 114.418 217.906C113.186 217.229 112.043 215.961 111.163 214.017C110.194 212.072 109.578 210.297 109.138 208.776C108.698 207.169 108.786 205.478 109.226 203.619C109.49 202.519 109.842 201.758 110.194 201.335Z" fill="#93462A"/>
<path d="M35.6711 149.172C36.551 150.187 37.1668 151.033 37.6068 151.709C38.0467 152.808 38.2227 153.4 38.2227 153.569C38.6625 156.782 38.2227 161.6 36.9909 167.942C35.7591 171.83 34.2633 176.227 32.5037 180.961C31.4478 183.666 29.7761 187.978 27.5765 193.812C27.2246 194.741 26.8727 195.671 26.6086 196.6L26.9606 196.77C28.7203 200.067 28.9842 203.534 27.6645 207.253C26.2567 211.142 27.2246 214.355 30.48 216.975C31.6238 217.737 32.3277 218.667 32.7676 219.766C32.8556 219.935 32.8556 220.189 32.8556 220.357L32.5037 220.696C31.7118 220.864 30.832 220.781 29.9521 220.442C29.7761 220.357 29.5122 220.189 29.2482 220.104L30.832 221.964L31.2719 223.401C30.832 223.486 30.216 223.57 29.6002 223.57C29.1602 223.486 28.7203 223.401 28.1924 223.316V223.401C27.0486 223.57 25.8168 223.57 24.585 223.316C24.2331 223.232 23.8811 223.147 23.5292 222.978L23.3532 222.893C18.866 221.625 15.7865 218.92 14.1148 214.862C13.059 212.242 12.795 209.62 13.1469 206.831C13.5869 204.463 14.0268 202.519 14.7308 201.082L15.3466 199.645C16.7544 196.939 17.8102 193.727 18.514 190.091C19.2179 186.371 19.8338 182.482 20.4497 178.425C20.9776 174.366 21.5936 170.393 22.2974 166.504C23.7051 156.106 25.6409 149.426 28.1045 146.552C30.92 146.214 33.4715 147.144 35.6711 149.172Z" fill="#994E2E"/>
<path d="M64.0902 308.535C63.9142 309.887 63.7383 315.551 63.3864 325.443C63.0343 334.743 62.3305 344.38 61.2747 354.272C61.0987 355.541 60.8348 359.26 60.2188 365.347C59.691 371.519 59.427 374.815 59.3391 375.323C59.3391 376.169 59.427 377.267 59.691 378.536C59.8669 379.127 60.1309 380.227 60.4828 381.917C60.7468 383.608 59.691 384.877 57.3154 385.721C55.0277 386.652 50.1006 388.512 42.7099 391.386C35.3192 394.261 31.9757 394.768 32.7676 392.739C33.5594 390.71 34.4393 389.019 35.4951 387.497C36.551 385.975 39.2785 383.608 43.6777 380.396C44.2056 379.973 44.7336 379.381 45.2614 378.536C46.4053 377.014 47.1092 375.323 47.3731 373.717C47.5491 372.618 47.637 371.012 47.5491 368.814C47.4611 366.193 47.1092 363.233 46.5812 359.852C44.8215 348.1 43.6777 336.519 43.2378 325.021C43.0619 315.045 42.8858 308.874 42.6219 306.422L62.2425 306.591L64.0902 308.535Z" fill="#994E2E"/>
<path d="M61.3628 306.506L80.9834 306.337C80.7195 308.789 80.5434 314.961 80.3675 324.936C79.9276 336.435 78.7838 348.101 77.0241 359.768C76.4961 363.15 76.2322 366.109 76.0562 368.729C75.9683 370.928 75.9683 372.533 76.2322 373.632C76.4961 375.324 77.2001 376.93 78.3439 378.451C78.9597 379.213 79.4877 379.804 79.9276 380.312C84.4147 383.524 87.1422 385.891 88.1101 387.414C89.1659 388.934 90.0458 390.71 90.8376 392.654C91.6295 394.599 88.286 394.176 80.8955 391.302C73.5047 388.427 68.6656 386.483 66.29 385.638C64.0023 384.708 62.9465 383.44 63.1225 381.833C63.5624 380.142 63.8264 379.044 63.9143 378.451C64.1783 377.183 64.2663 376.168 64.2663 375.239C64.2663 374.816 64.0023 371.434 63.3865 365.262C62.8585 359.176 62.5066 355.456 62.3306 354.188C61.2748 344.297 60.571 334.658 60.219 325.359C59.867 315.468 59.6031 309.803 59.5151 308.45L61.3628 306.506Z" fill="#994E2E"/>
<path d="M24.9368 394.43C25.3767 393.33 26.8724 391.893 29.336 390.202C31.8876 388.512 33.9993 387.159 35.7589 386.314C37.5186 385.468 39.5423 386.483 41.8299 389.441C47.197 389.019 53.092 385.299 56.0834 384.201C58.2831 383.016 59.6908 381.833 60.2187 380.481C62.3304 384.284 62.4184 386.99 55.3796 389.61C49.0447 391.049 46.845 392.739 45.7893 393.246C43.2377 395.274 41.6539 396.205 37.6946 397.304C33.8233 398.404 30.5678 398.657 27.9283 398.065C25.2887 397.472 24.5849 395.528 24.9368 394.43Z" fill="#F16C56"/>
<path d="M95.8526 398.065C93.213 398.741 89.9576 398.488 86.0863 397.304C82.2149 396.205 80.6312 395.274 77.9917 393.246C76.8479 392.739 74.6482 391.049 68.4013 389.61C61.2745 386.99 61.3626 384.284 63.5621 380.481C64.0901 381.749 65.4099 383.016 67.6974 384.201C70.6889 385.299 76.5839 388.934 81.951 389.441C84.2386 386.483 86.1742 385.467 88.0219 386.314C89.7817 387.159 91.9812 388.427 94.4448 390.202C96.9964 391.893 98.4041 393.33 98.844 394.43C99.196 395.528 98.4921 397.472 95.8526 398.065Z" fill="#F16C56"/>
<path d="M55.9955 377.437C56.0835 377.944 56.1715 378.536 56.2595 379.044C56.3476 380.142 55.9955 380.903 54.9398 381.326L53.708 380.903C54.5878 380.988 55.2037 380.734 55.5556 379.973C55.9955 379.213 56.0835 378.283 55.9955 377.437Z" fill="#502313"/>
<path d="M68.2257 379.973C68.5776 380.734 69.1935 381.072 70.0733 380.903L68.8415 381.326C67.8738 380.903 67.4338 380.142 67.5217 379.044C67.6098 378.536 67.6978 377.944 67.7858 377.437C67.6978 378.283 67.8738 379.213 68.2257 379.973Z" fill="#502313"/>
<path d="M105.267 221.034C105.267 221.964 105.267 222.894 105.179 223.824C105.091 228.305 104.915 232.786 104.651 237.266C104.739 239.717 104.739 242.169 104.827 244.706C104.915 247.412 105.003 250.2 105.003 253.076C105.091 258.148 105.091 263.305 105.091 268.716C105.091 281.482 104.827 294.078 104.299 306.506C104.123 309.803 104.035 313.185 103.771 316.482C103.244 325.866 102.716 333.306 102.188 338.547C101.924 340.83 101.748 342.69 101.484 344.211C99.3722 345.819 96.3807 347.171 92.5974 348.27C91.4536 348.608 90.2218 348.946 88.902 349.284C88.1102 349.454 87.3183 349.623 86.5265 349.791C84.7667 350.13 82.919 350.467 81.0713 350.721C80.1035 350.891 79.1356 350.975 78.0798 351.059C76.1442 351.228 74.0325 351.482 72.0089 351.567V351.736C69.6333 351.821 67.2576 351.821 64.7941 351.821H61.4507C60.1309 351.821 58.8991 351.821 57.6673 351.736V351.567C53.2681 351.313 49.2208 350.806 45.4374 350.215C44.6456 350.045 43.8537 349.961 43.1498 349.791C42.27 349.623 41.4781 349.454 40.6863 349.284C38.7506 348.861 36.9909 348.354 35.4072 347.763C32.4158 346.748 29.9522 345.565 28.1924 344.211C27.9285 342.69 27.7525 340.83 27.4886 338.547C26.9606 333.221 26.4327 325.866 25.9049 316.482C25.7289 313.185 25.5528 309.803 25.4649 306.506C25.025 296.023 24.761 285.455 24.6731 274.803V268.716C24.849 263.474 24.761 258.233 24.6731 253.076C24.6731 250.032 24.5851 246.989 24.4971 244.03C24.4091 241.325 24.4091 238.534 24.3211 235.828C24.1451 233.799 24.0571 231.771 23.9691 229.827C23.8812 227.628 23.7932 225.43 23.7932 223.147C23.7052 208.269 25.4649 193.473 28.8083 178.932C28.8963 178.34 29.0723 177.749 29.2482 177.242C29.6001 175.719 29.9522 174.197 30.3921 172.592C30.48 172.422 30.48 172.168 30.568 171.999C30.9199 170.562 31.3599 169.041 31.7998 167.603C31.8878 167.265 31.9758 166.927 32.0637 166.589C33.2076 162.7 34.4394 158.811 35.7591 155.007C36.0231 154.161 36.375 153.315 36.639 152.471C36.727 151.878 36.815 151.287 36.9029 150.695C37.2549 148.751 37.5188 146.891 37.6947 144.946C38.3987 138.267 38.4867 131.588 37.5188 124.825C37.3428 123.896 37.2549 122.964 37.0789 122.035C36.639 119.414 36.111 116.878 35.4072 114.257C35.3192 114.004 35.2313 113.75 35.1433 113.496C35.0552 113.327 35.0552 113.243 34.9672 113.074C34.6153 112.144 34.3514 111.214 34.1754 110.199C33.9995 108.931 33.8235 107.409 33.7354 105.719C33.7354 105.634 33.7354 105.634 33.7354 105.55C33.7354 104.704 33.6474 103.69 33.6474 102.759C33.6474 101.744 33.6474 100.73 33.7354 99.7155V99.3779C33.8235 97.1799 34.0874 94.8972 34.4394 92.6991C35.0552 89.486 35.9351 86.5275 37.4308 84.1602C37.4308 84.0757 37.5188 83.991 37.6068 83.9064C39.1025 81.5391 41.1262 79.7639 43.8537 79.0882C44.1177 79.0035 44.3816 79.0035 44.6456 78.9189C45.0855 78.8344 45.5254 78.8344 45.9654 78.8344C46.0534 78.8344 46.0534 78.8344 46.1414 78.8344C47.0211 78.9189 47.901 79.2564 48.7809 79.6793C49.6607 80.1022 50.5406 80.7788 51.4205 81.5391C55.1157 84.5831 59.251 89.486 66.0258 92.4453C72.1848 89.486 76.1442 83.7373 80.2794 80.4405C81.6872 79.341 83.0949 78.4959 84.5908 78.2423C84.6787 78.2423 84.6787 78.2423 84.7667 78.2423C85.9105 77.9886 87.1423 78.0732 88.4621 78.4959C88.99 78.6653 89.6059 78.9189 90.2218 79.2564C91.4536 79.9331 92.4214 81.0325 93.2132 82.385C93.3013 82.5541 93.4773 82.8078 93.5652 83.0615C93.6532 83.1462 93.6532 83.2298 93.6532 83.3145C95.061 86.02 95.7648 89.5706 96.2048 93.0374C96.5567 95.9957 96.6447 98.871 96.7327 101.323V104.619C96.6447 105.634 96.5567 106.648 96.3808 107.663C96.2048 108.593 96.0288 109.608 95.7648 110.537C94.533 114.257 93.5652 117.978 92.8613 121.781V121.866C92.7733 122.373 92.6854 122.881 92.5974 123.472C92.5094 123.979 92.4214 124.486 92.4214 124.994C91.2776 134.125 91.6295 143.255 92.9493 152.302C92.9493 152.302 92.9493 152.302 92.9493 152.386V152.471C92.9493 152.555 92.9493 152.555 92.9493 152.555C93.0373 153.315 93.2132 154.076 93.3013 154.922C93.6532 157.289 94.1811 159.572 94.7091 161.855C95.061 163.292 95.4129 164.729 95.7648 166.166C95.9408 166.674 96.0288 167.265 96.2048 167.772C96.2928 168.195 96.3808 168.618 96.5567 169.041C96.7327 169.547 96.9086 170.14 97.0846 170.731C97.2605 171.239 97.5246 171.745 97.7005 172.253C97.7885 172.338 97.7885 172.422 97.7885 172.592C98.6683 174.79 99.4602 176.903 100.076 179.101C101.836 184.765 103.068 190.514 103.859 196.348C103.947 196.685 103.947 196.939 104.035 197.278C105.003 204.887 105.355 212.918 105.267 221.034Z" fill="#F3AE1C"/>
<path d="M105.179 268.716C105.179 281.482 104.916 294.078 104.388 306.506H93.1256V295.854H81.5998V285.201H70.0737V274.549H81.5998V263.897H93.1256V253.245H105.091C105.179 258.063 105.179 263.305 105.179 268.716Z" fill="#F7B542"/>
<path d="M81.5996 317.159V327.895H70.0735V338.547H58.5476V349.2H40.7747C38.8389 348.776 37.0793 348.269 35.4956 347.678V338.463H27.5769C27.049 333.136 26.5211 325.781 25.9932 316.398C25.8172 313.1 25.6412 309.718 25.5532 306.422H35.5835V295.769H58.5476V306.422H70.0735V317.074L81.5996 317.159Z" fill="#F7B542"/>
<path d="M89.0777 349.284C88.2859 349.454 87.494 349.623 86.7021 349.791C84.9425 350.13 83.0948 350.468 81.2471 350.722V349.284H89.0777Z" fill="#F7B542"/>
<path d="M102.276 338.547C102.012 340.83 101.836 342.69 101.572 344.211C99.4604 345.818 96.4689 347.171 92.6855 348.269V338.547H102.276Z" fill="#F7B542"/>
<path d="M81.5993 231.687V242.339H70.0732V252.991H58.5473V263.643H35.4952V252.991H24.6732C24.6732 249.947 24.5851 246.904 24.4971 243.945C24.4091 241.24 24.4091 238.449 24.3211 235.744C24.1451 233.716 24.0572 231.687 23.9692 229.742V220.95H35.4952V210.297H58.5473V220.95H70.0732V231.687H81.5993Z" fill="#F7B542"/>
<path d="M88.4619 136.999C88.7258 138.014 88.9898 139.028 89.2537 140.043C89.2537 139.958 89.1657 139.789 89.1657 139.704C88.9898 138.69 88.7258 137.845 88.4619 136.999Z" fill="#F16C56"/>
<path d="M81.5993 146.215V156.867H70.0732V167.519H58.5473V178.256H35.4953V167.604H31.7119C31.7999 167.265 31.8879 166.927 31.9758 166.589C33.1197 162.7 34.3515 158.811 35.6712 155.007C35.9352 154.161 36.2871 153.315 36.551 152.471C36.639 151.878 36.727 151.287 36.8151 150.695C37.167 148.751 37.4309 146.891 37.6069 144.947C38.3108 138.267 38.3988 131.588 37.4309 124.825H58.5473V135.477H70.0732V146.13H81.5993V146.215Z" fill="#F7B542"/>
<path d="M113.098 164.391C113.098 162.7 113.01 160.924 112.834 159.233C110.547 151.456 108.698 143.508 107.379 135.477C105.179 122.881 104.211 110.029 104.563 97.0105C104.387 94.9818 104.123 92.9528 103.86 91.0084C103.42 88.9794 102.804 87.1195 101.924 85.5125C101.22 84.1602 100.252 82.9769 99.0205 82.0466C97.4368 80.7788 95.501 79.933 93.1254 79.1718C92.6855 79.0026 92.3336 78.9189 91.9817 78.8343H91.8937C91.7177 78.8343 91.6297 78.7498 91.4537 78.7498C90.574 78.4958 89.6061 78.2422 88.6382 78.073C87.4064 77.8195 86.1746 77.5659 85.2069 77.3968C83.271 77.0586 81.8633 75.7905 80.6315 75.3678C80.6315 75.5369 80.6315 75.7059 80.6315 75.9596C80.6315 76.044 80.6315 76.044 80.6315 76.1287C80.5435 77.6504 80.3676 79.0873 80.0157 80.525C77.992 88.5565 71.6571 94.8972 68.3136 103.013C67.8738 104.704 67.4338 106.817 66.9059 108.339C66.8179 109.354 66.7299 110.368 66.7299 111.467C66.7299 111.721 66.7299 111.974 66.7299 112.228C66.642 113.328 66.554 114.426 66.378 115.526C66.026 118.146 65.5861 120.851 65.3222 123.557C65.1462 120.851 64.6183 118.146 64.2663 115.526C64.0904 114.426 64.0024 113.328 63.9144 112.228C63.9144 111.974 63.9144 111.721 63.8265 111.467C63.7385 110.622 63.6505 109.776 63.4745 108.931C63.2105 107.831 62.9466 106.817 62.5947 105.803C60.571 100.476 57.9314 95.8267 54.94 91.0084C54.4121 89.9934 53.8841 88.9794 53.3562 87.9644C52.3884 85.9354 51.5966 83.9064 50.9806 81.7083C50.9806 81.6237 50.8926 81.5392 50.8926 81.4545C50.4528 79.933 50.8047 77.9886 50.9806 76.4668C50.9806 76.3822 50.9806 76.3823 50.9806 76.2977C50.9806 76.2131 50.9806 76.1287 50.9806 76.044C49.8368 74.6915 48.3411 76.3822 47.1973 77.0586C46.8453 77.3122 42.798 77.8195 39.7186 78.6652C39.5427 78.6652 39.3667 78.7498 39.1906 78.8343C39.0147 78.9189 38.8387 78.9189 38.6628 79.0026C38.3109 79.0873 37.9589 79.2564 37.519 79.3409C33.3837 80.6942 30.4802 82.4695 28.7205 85.6817C27.8406 87.2879 27.2248 89.1485 26.8728 91.1775C26.6968 93.2065 26.4329 95.2355 26.169 97.1798C26.6968 113.918 24.8492 130.32 21.2418 146.299C20.45 149.85 19.5701 153.485 18.5142 156.952C18.3383 157.711 18.0744 158.557 17.8104 159.318C17.6344 161.009 17.5464 162.785 17.5464 164.476C17.5464 166.166 17.7224 167.942 17.9864 169.716C17.9864 169.97 18.1623 170.224 18.4263 170.477L18.3383 176.564C18.7782 176.818 19.2182 177.072 19.834 177.326C22.2976 178.34 25.641 178.932 28.3685 179.016C29.4244 179.016 30.3922 179.016 31.2721 178.847C31.3601 178.425 32.5919 176.396 33.3837 172.253C33.7356 172.084 33.9996 171.83 34.1756 171.408C34.4395 170.731 34.7914 169.97 35.0554 169.126C35.3194 168.449 35.5833 167.688 35.7593 166.927C35.8473 166.674 35.8473 166.504 35.9352 166.25C36.1992 166.25 36.5512 166.166 36.8151 166.166C45.9656 165.152 58.3714 163.292 58.3714 163.292C58.3714 163.292 59.0752 159.065 61.2749 154.33C61.9787 152.302 63.2105 148.751 63.2985 147.228C63.2985 146.13 63.3865 145.03 63.4745 143.932C63.5625 142.832 63.7385 141.734 63.8265 140.719C64.0024 139.028 64.1784 137.337 64.3543 135.647C64.6183 133.617 64.8823 131.504 64.9703 129.475C65.0583 131.504 65.3222 133.533 65.5861 135.647C65.7621 137.337 66.026 139.028 66.114 140.719C66.29 141.818 66.378 142.832 66.466 143.932C66.554 145.03 69.1056 152.554 69.2815 153.569C69.5454 155.09 70.0733 156.106 70.5133 156.952C70.6893 157.289 70.7772 157.542 70.8652 157.881C71.0412 159.065 72.185 163.292 72.185 163.292C72.185 163.292 83.887 164.476 92.5975 165.659C93.1254 165.744 93.6534 165.827 94.1813 165.827C94.2692 166.166 94.3572 166.504 94.4452 166.842C94.5332 167.096 94.6213 167.349 94.7092 167.603C95.1491 168.956 95.589 170.224 96.117 171.324C96.2929 171.661 96.5569 171.999 96.9088 172.168C97.7007 176.311 98.9325 178.34 99.0205 178.762C99.1964 178.762 99.3724 178.762 99.5483 178.847C101.572 179.016 104.387 178.847 107.027 178.255C107.995 178.001 108.962 177.747 109.842 177.411C110.635 177.157 111.251 176.818 111.867 176.48L111.779 170.394C111.955 170.14 112.131 169.886 112.219 169.632C112.922 167.857 113.098 166.081 113.098 164.391Z" fill="#F16C56"/>
<path d="M31.0083 167.35C32.768 145.284 39.3668 122.796 32.3281 100.73C39.3668 122.374 33.6478 144.354 31.4482 165.997C31.0963 166.758 31.0083 167.35 31.0083 167.35Z" fill="#7D1620"/>
<path d="M99.1965 166.335C96.7329 144.439 87.9345 122.796 96.7329 101.238C88.8144 121.19 94.0934 141.902 98.4927 161.939C98.8446 164.307 99.1965 166.335 99.1965 166.335Z" fill="#7D1620"/>
</g>
</g>
<defs>
<filter id="filter0_d_338_142" x="9" y="3" width="112.783" height="403.434" filterUnits="userSpaceOnUse" color-interpolation-filters="sRGB">
<feFlood flood-opacity="0" result="BackgroundImageFix"/>
<feColorMatrix in="SourceAlpha" type="matrix" values="0 0 0 0 0 0 0 0 0 0 0 0 0 0 0 0 0 0 127 0" result="hardAlpha"/>
<feOffset dy="4"/>
<feGaussianBlur stdDeviation="2"/>
<feComposite in2="hardAlpha" operator="out"/>
<feColorMatrix type="matrix" values="0 0 0 0 0 0 0 0 0 0 0 0 0 0 0 0 0 0 0.25 0"/>
<feBlend mode="normal" in2="BackgroundImageFix" result="effect1_dropShadow_338_142"/>
<feBlend mode="normal" in="SourceGraphic" in2="effect1_dropShadow_338_142" result="shape"/>
</filter>
<clipPath id="clip0_338_142">
<rect width="127" height="403" fill="white"/>
</clipPath>
</defs>
</svg>
