<svg width="127" height="403" viewBox="0 0 127 403" fill="none" xmlns="http://www.w3.org/2000/svg">
<g clip-path="url(#clip0_338_91)">
<g filter="url(#filter0_d_338_91)">
<path d="M101.019 98.941C101.019 99.107 101.019 99.355 101.019 99.604C100.936 102.008 100.272 104.246 99.1098 106.318C96.7027 110.629 92.1373 114.027 86.0778 116.265C80.5993 118.337 73.9588 119.414 66.5712 119.414C66.1562 119.414 65.7411 119.414 65.3261 119.414C64.9111 119.414 64.496 119.414 64.081 119.414C55.6973 119.414 48.0607 118.005 42.0843 115.353C39.013 114.027 36.3568 112.286 34.1987 110.38C32.9536 109.219 31.9575 107.976 31.1274 106.65L31.0444 106.567C30.7954 106.07 30.5464 105.655 30.2973 105.157C30.2143 104.909 30.1313 104.661 29.9653 104.495C29.3013 102.837 28.9692 101.013 28.9692 99.19C28.9692 93.4705 33.2026 91.1495 38.515 87.1709C39.179 86.6742 39.8431 86.1767 40.5902 85.7621C43.4954 84.0215 46.3176 83.3581 48.8908 81.7835C49.0568 81.7005 49.2228 81.5347 49.3888 81.4518C50.3849 80.7884 51.381 79.96 52.2941 78.7991C54.5352 76.3129 54.3692 68.3556 54.2032 62.222C54.1202 60.647 54.1202 59.2379 54.0372 58.0775C53.8712 56.0882 53.7882 54.6791 53.7882 54.6791C54.7013 54.0989 56.0294 53.6845 57.6895 53.4358C59.0176 53.1872 60.6777 53.1043 62.4209 53.1043C62.9189 53.1043 63.5 53.1043 63.998 53.1043C64.164 53.1043 64.33 53.1043 64.413 53.1043C64.579 53.1043 64.745 53.1043 64.9111 53.1043H65.4091C65.5751 53.1043 65.7411 53.1043 65.8241 53.1043C65.9901 53.1043 66.1562 53.1043 66.3222 53.1043C68.0653 53.0214 69.6424 53.1043 71.0535 53.1871C71.2196 53.1871 71.3026 53.1871 71.3026 53.1871C71.6346 53.1871 71.9666 53.2701 72.2156 53.2701C74.1248 53.5187 75.6189 53.9332 76.532 54.5963C76.532 54.5963 76.449 55.9225 76.283 57.9947C76.283 59.0722 76.283 60.4813 76.283 62.0562C76.1169 68.0241 75.9509 76.2299 78.1091 78.6341C80.5993 81.7835 84.2517 83.1923 87.6549 84.8499C87.904 85.0158 88.236 85.0987 88.485 85.2645C89.2321 85.6791 90.0621 86.0937 90.8092 86.5083C91.5562 86.9221 92.3033 87.4197 92.8844 87.9172C98.1138 91.8129 100.521 93.3046 100.687 98.693C101.019 98.693 101.019 98.858 101.019 98.941Z" fill="#994E2E"/>
<path d="M85.2478 36.1952C84.6667 34.9519 84.3347 33.7086 84.0857 32.3824C84.0027 31.7193 83.9197 31.1391 83.8367 30.4759C84.9988 19.5347 74.789 11.1631 64.1642 12.9866C63.0851 12.9037 62.089 12.9866 61.01 13.0695C53.9544 13.9813 46.9819 19.9492 47.3969 27.5749C47.3139 28.8182 47.3139 30.0615 47.1479 31.2219C46.9819 32.4652 46.6498 33.6257 46.0688 34.7861C45.1557 36.6097 45.5707 38.9305 45.8198 40.6712C45.9028 41.3342 45.9858 42.0803 46.1518 42.7433C46.3178 43.7379 46.5668 44.7326 46.8988 45.6444C47.2309 46.5561 47.4799 47.4679 47.8119 48.3797C49.8041 56.5027 54.4524 65.7861 63.6662 66.615C64.3302 66.6978 64.9943 66.6978 65.6583 66.615C66.3224 66.6978 66.9864 66.6978 67.6505 66.615C76.6982 65.7032 81.3466 56.0053 83.5046 48.3797C83.8367 47.4679 84.0857 46.5561 84.4177 45.6444C84.6667 44.7326 84.9158 43.7379 85.1648 42.7433C85.3308 42.0803 85.4138 41.4171 85.4138 40.6712C85.4968 40.008 85.4968 39.2621 85.4968 38.516C85.3308 37.6871 85.3308 36.9412 85.2478 36.1952Z" fill="#994E2E"/>
<path d="M69.0615 47.6336C69.0615 47.6336 70.0576 48.131 70.5556 47.3849C71.3027 46.2245 70.5556 44.1523 69.9746 43.655C71.8007 48.0481 69.0615 47.6336 69.0615 47.6336Z" fill="#502313"/>
<path d="M62.0061 47.6336C62.0061 47.6336 61.01 48.131 60.512 47.3849C59.7649 46.2245 60.512 44.1523 61.093 43.655C59.1839 48.0481 62.0061 47.6336 62.0061 47.6336Z" fill="#502313"/>
<path d="M67.4013 46.5563C67.6504 46.4734 67.9824 46.3904 68.0654 46.3904C68.3144 46.3904 68.5634 46.3904 68.7295 46.4734C68.8125 46.4734 68.8955 46.5563 68.9785 46.6392C69.0615 46.7221 69.0615 46.8051 69.0615 46.888C69.0615 46.888 68.9785 46.9709 68.8955 46.9709C68.6464 47.0538 68.3144 46.888 68.0654 46.8051C67.4844 46.8051 66.4053 47.2197 66.4053 47.2197C66.4053 47.2197 66.7373 46.805 67.4013 46.5563Z" fill="#502313"/>
<path d="M63.2507 46.5563C63.0016 46.4734 62.7526 46.3904 62.6696 46.3904C62.5036 46.3904 62.2546 46.3904 62.0056 46.4734C61.9226 46.4734 61.8396 46.5563 61.7566 46.6392C61.6736 46.7221 61.6736 46.8051 61.7566 46.888C61.7566 46.888 61.8396 46.9709 61.9226 46.9709C62.1716 47.0538 62.4206 46.888 62.6696 46.8051C63.2507 46.7221 64.2468 47.2197 64.2468 47.2197C64.2468 47.2197 63.8317 46.805 63.2507 46.5563Z" fill="#502313"/>
<path d="M59.8479 29.8129C57.9388 29.3155 57.1918 29.3155 55.1166 29.1498C54.8676 29.1498 54.6185 29.1498 54.3695 29.1498C54.1205 29.1498 53.8714 29.1498 53.6224 29.1498C50.4682 29.6471 48.061 32.0509 47.978 32.3824C47.978 32.3824 50.0531 31.1391 50.6342 30.9733C51.1322 30.8075 52.3774 30.5589 52.8755 30.4759C53.5395 30.3931 54.1205 30.3931 54.7845 30.3931C55.1165 30.3931 55.4486 30.3931 55.6976 30.4759C58.4368 30.7246 59.267 31.885 61.2591 30.8075C61.5081 30.4759 60.0139 29.8957 59.8479 29.8129Z" fill="#502313"/>
<path d="M59.5989 36.1122C58.6028 35.6978 57.6897 35.2833 56.1956 35.2005C54.1204 35.0346 52.2943 36.4437 50.8002 37.77C50.5512 38.0187 50.3851 38.0187 50.0531 38.0187C49.8871 38.0187 49.8041 38.0187 49.638 38.0187L49.1401 38.1015L49.5551 38.4331C49.9702 38.7646 50.3851 38.8475 50.7171 38.8475C51.3812 38.8475 51.9622 38.3502 52.5433 37.8528C52.9583 37.5213 53.2904 37.1069 53.7885 36.8582C53.7055 37.1069 53.6224 37.3555 53.6224 37.6042C53.6224 38.2673 53.8715 38.7646 54.2865 39.1791C54.7015 39.5935 55.2826 39.8422 55.8636 39.8422C56.4447 39.8422 57.0256 39.5935 57.4407 39.1791C57.8557 38.7646 58.1048 38.1844 58.1048 37.6042C58.1048 37.1069 57.9388 36.6924 57.6898 36.3609C58.4368 36.4437 58.8519 36.5267 59.3499 36.6924C59.6819 36.7753 60.0969 36.8582 60.6779 37.024L60.844 36.6096C60.346 36.3609 59.9309 36.1951 59.5989 36.1122Z" fill="#502313"/>
<path d="M70.6387 29.73C72.5479 29.2327 73.3779 29.3155 75.4531 29.1498C75.7021 29.1498 75.9511 29.1498 76.2002 29.1498C76.4492 29.1498 76.6982 29.1498 76.9472 29.1498C80.1015 29.6471 82.5086 32.0509 82.5917 32.3824C82.5917 32.3824 80.5995 31.1391 79.9354 30.9733C79.4374 30.8075 78.1923 30.5589 77.6943 30.4759C77.0302 30.3931 76.4492 30.3931 75.7851 30.3931C75.4531 30.3931 75.1211 30.3931 74.872 30.4759C72.1328 30.7246 71.3028 31.885 69.3106 30.8075C69.0616 30.4759 70.4727 29.8129 70.6387 29.73Z" fill="#502313"/>
<path d="M80.8484 38.0187C80.6824 38.0187 80.5164 38.0187 80.4334 38.0187C80.1844 38.0187 79.9354 38.0187 79.6864 37.77C78.1922 36.4437 76.3661 35.0346 74.2909 35.2005C72.8798 35.2833 71.8837 35.6978 70.8877 36.1122C70.4726 36.278 70.1406 36.4437 69.7256 36.5267L69.8916 36.9411C70.4726 36.7753 70.8877 36.6924 71.2197 36.6096C71.7177 36.4437 72.1328 36.3609 72.8798 36.278C72.6308 36.6924 72.4648 37.1069 72.4648 37.5213C72.4648 38.1844 72.7138 38.6817 73.1288 39.0962C73.5439 39.5106 74.1249 39.7593 74.706 39.7593C75.287 39.7593 75.8681 39.5106 76.2831 39.0962C76.6981 38.6817 76.9471 38.1015 76.9471 37.5213C76.9471 37.2726 76.8641 37.024 76.7811 36.7753C77.2792 37.1069 77.6942 37.4384 78.0262 37.77C78.6073 38.2673 79.1053 38.7646 79.8524 38.7646C80.1844 38.7646 80.5164 38.5989 81.0145 38.3502L81.4295 38.0187H80.8484Z" fill="#502313"/>
<path d="M58.9346 53.1044C58.9346 53.1044 59.2666 53.9333 60.0137 54.6793C60.7607 55.4253 62.3379 56.7515 64.413 56.9172C66.4882 57.083 67.3182 56.6686 67.8163 56.5028C68.3143 56.337 70.4725 55.0937 71.0535 54.182C71.6346 53.2702 71.5516 53.1044 71.5516 53.1044C71.5516 53.1044 64.247 52.9386 63.0019 53.0215C61.7568 53.0215 58.9346 53.1044 58.9346 53.1044Z" fill="#6C3321"/>
<path d="M57.5234 52.8556C57.5234 52.8556 59.1005 52.6899 60.0966 52.5241C61.0926 52.3583 62.7528 51.6123 63.4168 51.7781C64.0809 51.861 64.8279 52.1925 65.243 52.1097C65.741 52.0267 66.073 51.5295 66.9031 51.6123C67.7332 51.6952 69.9743 52.6069 70.6384 52.6069C71.3024 52.6069 72.9626 52.8556 72.9626 52.8556C72.9626 52.8556 72.5475 53.353 71.0534 53.5188C69.6423 53.6845 67.4841 53.9332 66.5711 53.8503C66.5711 53.8503 65.907 54.099 65.326 54.099C64.7449 54.099 63.8319 53.8503 63.7488 53.8503C63.6658 53.8503 61.6737 54.016 60.5116 53.8503C59.2665 53.6845 58.0214 53.4358 57.5234 52.8556Z" fill="#4F2315"/>
<path d="M31.5424 126.294C28.8862 128.946 26.728 132.262 25.4829 136.407C26.479 131.93 28.6371 128.366 31.6253 125.631C31.6253 125.88 31.5424 126.045 31.5424 126.294Z" fill="#F6AF1B"/>
<path d="M39.0962 145.358C39.5942 150.746 41.6694 155.802 40.7563 160.693C40.5073 162.184 40.0922 163.593 39.7602 165.086H90.1453C89.7302 163.593 89.3982 162.102 89.1492 160.693C88.2361 155.802 90.6432 150.663 91.1413 145.358C91.5564 141.379 92.4695 136.158 93.8806 129.775C96.5368 118.337 97.8649 112.286 98.0309 111.623L72.7138 110.877V110.463L65.1602 110.712L57.6066 110.463V110.877L32.2896 111.623C32.4556 112.286 33.7837 118.337 36.44 129.775C37.7681 136.075 38.6811 141.296 39.0962 145.358Z" fill="#EF6C83"/>
<path d="M118.533 231.396C118.035 233.966 117.952 236.121 118.201 237.944C118.201 238.027 118.118 238.11 118.118 238.193C117.786 239.104 117.288 240.017 116.79 240.845C115.213 240.099 113.968 238.69 112.972 236.535C112.059 234.379 111.395 232.473 110.897 230.733C110.482 229.075 110.482 227.252 110.98 225.096C111.146 224.35 111.312 223.77 111.561 223.19C111.976 222.361 112.557 221.864 113.221 221.781C114.383 221.532 115.628 222.278 117.039 224.102C118.616 225.926 119.031 228.329 118.533 231.396Z" fill="#994E2E"/>
<path d="M118.201 237.943C119.197 235.126 119.529 232.307 119.197 229.324C118.782 226.671 118.201 224.599 117.62 223.024L116.956 221.45C115.462 218.465 114.383 214.984 113.636 211.006C112.889 206.944 112.225 202.717 111.644 198.323C111.063 193.847 110.399 189.537 109.652 185.31C108.324 175.032 106.497 168.152 104.256 164.588C104.339 163.427 104.339 162.184 104.339 161.024C104.339 159.283 104.339 157.543 104.173 155.885C104.09 154.144 104.09 152.404 104.09 150.58C104.09 148.674 104.173 146.768 104.173 144.778C104.173 142.954 104.256 141.131 104.256 139.307C104.256 137.318 104.256 135.329 104.256 133.339C104.256 131.433 104.173 129.527 104.09 127.703C104.007 125.797 103.841 123.89 103.758 122.067C103.675 120.243 103.509 118.42 103.26 116.679C103.094 114.772 102.679 112.866 102.015 111.042C101.434 109.302 100.521 107.81 99.2756 106.484C98.0305 105.24 96.4534 104.495 94.7932 104.163C92.7181 103.914 90.975 104.495 89.4808 105.987C88.2357 107.313 87.4057 108.887 86.8246 110.546C86.3266 112.783 86.0776 115.021 86.0776 117.259C86.0776 119.248 86.0776 121.155 86.3266 123.061C86.4926 125.631 86.5756 128.201 86.7416 130.687C86.9076 132.925 87.0736 134.997 87.2397 137.152C87.4887 139.805 87.8207 142.457 88.1527 145.109C88.4017 147.264 88.7338 149.419 89.0658 151.575C89.3978 154.061 89.8129 156.631 90.3109 159.2C90.7259 161.77 91.307 164.257 91.888 166.744C92.137 167.987 92.4691 169.147 92.8841 170.307C92.7181 170.805 92.6351 171.054 92.7181 171.219C92.22 174.784 92.6351 180.005 93.9632 186.968C95.2913 191.278 96.8684 196.002 98.6946 201.142C99.7736 204.125 101.517 208.767 103.841 215.15C104.173 216.144 104.505 217.139 104.837 218.216L104.505 218.382C102.679 221.946 102.347 225.759 103.758 229.82C105.169 234.048 104.173 237.613 100.77 240.43C99.6076 241.26 98.7776 242.254 98.4455 243.498C98.3625 243.663 98.3625 243.911 98.3625 244.16L98.7776 244.492C99.6076 244.741 100.521 244.658 101.434 244.16C101.683 243.994 101.932 243.911 102.098 243.746L100.521 245.818L100.023 247.393C100.521 247.559 101.102 247.559 101.766 247.559C102.181 247.476 102.679 247.393 103.26 247.227V247.31C104.505 247.476 105.75 247.476 106.995 247.227C107.41 247.144 107.742 246.979 108.158 246.896L108.407 246.813C112.142 245.735 114.964 243.663 116.79 240.679C117.454 241.011 117.952 241.094 118.201 240.928C118.699 240.679 118.699 240.016 118.367 238.856C118.284 238.607 118.284 238.275 118.201 237.943Z" fill="#994E2E"/>
<path d="M111.312 222.941C111.063 223.438 110.814 224.101 110.565 224.848C110.067 226.837 110.067 228.743 110.565 230.484C110.98 232.141 111.727 234.048 112.64 236.203C113.553 238.358 114.881 239.85 116.375 240.596C117.039 240.845 117.454 240.928 117.786 240.845C117.786 240.928 117.952 240.845 118.367 240.679C117.703 241.425 116.79 241.507 115.711 241.011C114.383 240.264 113.221 238.856 112.225 236.701C111.229 234.545 110.565 232.639 110.15 230.981C109.735 229.241 109.735 227.417 110.233 225.345C110.565 224.35 110.897 223.521 111.312 222.941Z" fill="#934629"/>
<path d="M17.4316 230.318C16.9336 232.059 16.1865 233.965 15.3564 236.12C14.3604 238.275 13.1153 239.685 11.5381 240.43C11.0401 239.602 10.6251 238.773 10.21 237.778C10.21 237.696 10.127 237.613 10.127 237.53C10.376 235.706 10.293 233.468 9.79502 230.981C9.29698 227.914 9.79502 225.511 11.2061 223.688C12.6172 221.863 13.9453 221.118 15.0244 221.367C15.6885 221.45 16.2695 221.946 16.6845 222.775C16.9336 223.356 17.1826 224.018 17.3486 224.682C17.8466 226.837 17.8466 228.66 17.4316 230.318Z" fill="#994E2E"/>
<path d="M42.1675 115.353C42.0845 113.695 41.8355 111.955 41.5034 110.297C41.0054 108.805 40.3414 107.396 39.3453 106.235C39.1793 106.07 39.0963 105.904 38.9302 105.738C37.8512 104.661 36.6891 104.08 35.361 103.914C34.7799 103.832 34.1989 103.832 33.6178 103.914C33.3688 103.997 33.0368 103.997 32.7878 104.08C31.9577 104.329 31.2106 104.578 30.5466 105.075C30.0485 105.406 29.5505 105.738 29.1355 106.153C29.0525 106.235 28.9695 106.318 28.8865 106.401C28.8865 106.401 28.8865 106.401 28.8865 106.484C27.7244 107.727 26.8943 109.136 26.3963 110.712C25.7322 112.535 25.3172 114.358 25.1512 116.348C25.0682 116.928 24.9851 117.591 24.9851 118.171C24.9021 118.752 24.9021 119.331 24.8191 119.912C24.7361 120.575 24.7361 121.155 24.6531 121.818C24.4871 123.642 24.4041 125.548 24.3211 127.454C24.2381 129.278 24.2381 131.184 24.1551 133.091C24.1551 135.081 24.1551 137.07 24.1551 139.059C24.1551 140.883 24.2381 142.706 24.2381 144.53C24.2381 146.436 24.3211 148.425 24.3211 150.249V150.332C24.3211 152.072 24.3211 153.813 24.2381 155.636C24.0721 157.294 24.0721 159.035 24.0721 160.776C24.0721 161.936 24.1551 163.097 24.1551 164.34C21.9139 167.904 20.1708 174.867 18.7597 185.062C18.5106 186.222 18.3446 187.466 18.0956 188.626C17.5976 191.692 17.0995 194.842 16.7675 198.075C16.1865 202.468 15.5224 206.695 14.7753 210.757C14.0283 214.735 12.9492 218.216 11.4551 221.201L10.791 222.775C10.127 224.35 9.62897 226.505 9.21394 229.075C8.79891 232.059 9.13094 234.877 10.21 237.613C10.459 235.789 10.376 233.634 9.87799 231.064C9.37996 227.997 9.87799 225.594 11.2891 223.77C9.87799 225.594 9.37996 227.997 9.87799 231.064C10.376 233.634 10.459 235.789 10.21 237.613C10.127 237.943 10.127 238.275 10.044 238.607C9.71198 239.768 9.79499 240.43 10.21 240.679C10.459 240.845 10.874 240.762 11.6211 240.43C13.1982 239.685 14.4433 238.275 15.4394 236.12C16.1034 234.545 16.6845 233.054 17.0995 231.645C16.6845 233.054 16.1034 234.545 15.4394 236.12C14.4433 238.275 13.1982 239.685 11.6211 240.43C11.7041 240.513 11.7041 240.596 11.7871 240.596C11.8701 240.762 12.0361 240.928 12.1191 241.094C13.9453 243.746 16.6015 245.487 20.0878 246.481L20.3368 246.564C20.7518 246.647 21.0838 246.813 21.4989 246.896C22.744 247.144 23.9891 247.144 25.2342 246.979V246.896C25.7322 246.979 26.2302 247.062 26.7283 247.227C27.3923 247.227 27.9734 247.227 28.4714 247.062L27.9734 245.487L26.3133 243.415C26.5623 243.58 26.8113 243.663 26.9773 243.829C27.8904 244.243 28.8034 244.326 29.6335 244.16L30.0485 243.829C30.0485 243.58 30.0485 243.415 29.9655 243.166C29.5505 241.922 28.8034 240.928 27.5583 240.099C24.1551 237.281 23.159 233.717 24.5701 229.49C25.9812 225.428 25.7322 221.615 23.8231 218.051L23.491 217.885C23.8231 216.808 24.1551 215.812 24.4871 214.818C26.8113 208.436 28.5544 203.794 29.6335 200.81C30.7956 197.577 31.8747 194.511 32.7878 191.609C33.2028 190.449 33.5348 189.289 33.8668 188.211C34.0329 187.631 34.1989 187.134 34.3649 186.554C35.693 179.591 36.108 174.369 35.693 170.805C35.693 170.722 35.693 170.39 35.527 169.976C35.859 168.816 36.191 167.572 36.5231 166.412C36.8551 165.169 37.1041 163.925 37.4361 162.682C37.6851 161.438 37.9342 160.195 38.1832 158.952C38.2662 158.289 38.4322 157.708 38.5152 157.046C38.5982 156.382 38.7642 155.802 38.8472 155.139C39.0963 153.896 39.2623 152.57 39.4283 151.326C39.8433 149.172 40.0923 147.016 40.3414 144.861C40.6734 142.209 41.0054 139.556 41.2544 136.904C41.4204 134.832 41.5865 132.677 41.7525 130.439C41.9185 127.952 42.0015 125.382 42.1675 122.813C42.3335 120.907 42.4165 118.918 42.4165 117.01C42.2505 116.431 42.2505 115.85 42.1675 115.353Z" fill="#994E2E"/>
<path d="M17.9295 225.014C18.4276 227.003 18.4276 228.909 18.0125 230.65C17.5975 232.307 16.8505 234.215 15.9374 236.369C14.9413 238.524 13.7792 239.934 12.4511 240.679C11.289 241.26 10.459 241.094 9.79492 240.347C10.2099 240.513 10.3759 240.596 10.3759 240.513C10.708 240.596 11.123 240.513 11.7871 240.265C13.3642 239.436 14.6093 238.027 15.5224 235.872C16.5184 233.717 17.1825 231.811 17.5975 230.153C18.0956 228.412 18.0956 226.588 17.5975 224.516C17.3485 223.688 17.0995 223.107 16.8505 222.61C17.3485 223.107 17.6805 223.936 17.9295 225.014Z" fill="#914529"/>
<path d="M64.1642 294.307C63.9982 295.799 63.7492 301.933 63.4171 312.708C63.1681 320.748 62.587 329.037 61.8399 337.492C61.6739 339.73 61.4249 341.968 61.1759 344.123C61.0099 345.449 60.6779 349.511 60.0969 356.224C59.5158 362.938 59.1838 366.585 59.1838 367.083C59.1838 368.078 59.2667 369.155 59.5157 370.564C59.5988 371.061 59.7649 371.807 60.0969 372.968C60.0969 372.968 60.0969 372.968 60.0969 372.885C59.5158 374.294 58.1046 375.62 55.7805 376.946C52.6262 378.19 46.4008 382.086 40.8394 382.665C38.9302 380.013 37.104 378.77 35.5269 378.935C37.021 377.361 39.4282 375.289 42.9145 372.719C43.4126 372.222 43.9935 371.559 44.6576 370.73C45.8197 369.072 46.5667 367.248 46.8988 365.425C47.0648 364.264 47.1479 362.524 47.0648 360.12C46.8988 357.302 46.5667 353.987 46.0687 350.339C44.1595 337.575 42.9974 324.893 42.5824 312.294C42.4164 301.436 42.2504 294.639 41.9184 291.986L61.5079 292.152H61.8399H62.421L64.1642 294.307Z" fill="#994E2E"/>
<path d="M88.1529 378.936C86.5758 378.77 84.7496 380.013 82.8405 382.666C77.196 382.169 71.0535 378.19 67.8993 376.947C65.5751 375.703 64.164 374.377 63.5829 372.885C63.832 371.808 64.081 370.979 64.164 370.482C64.413 369.155 64.496 367.995 64.496 367C64.496 366.503 64.164 362.856 63.5829 356.142C63.0019 349.428 62.6699 345.449 62.5039 344.04C62.2548 341.802 62.0058 339.564 61.8398 337.409C61.0928 328.954 60.5117 320.748 60.2627 312.625C59.9307 301.851 59.5986 295.717 59.5156 294.225L61.2588 292.07H61.5078H61.8398L81.8444 291.904C81.7614 292.732 81.6784 293.976 81.5954 295.634C81.5954 295.966 81.5954 296.297 81.5124 296.628C81.5124 297.126 81.5124 297.706 81.4294 298.369C81.3463 300.441 81.2633 302.845 81.2633 305.663C81.2633 306.492 81.2633 307.404 81.1803 308.316C81.1803 309.559 81.0973 310.802 81.0973 312.212C80.5993 324.81 79.4372 337.492 77.6111 350.257C77.362 352.08 77.113 353.821 76.947 355.479C76.864 356.722 76.698 357.882 76.698 358.96C76.698 359.291 76.615 359.706 76.615 360.038C76.532 362.441 76.532 364.182 76.781 365.342C77.113 367.166 77.8601 368.907 79.0222 370.647C79.6032 371.476 80.1843 372.139 80.7653 372.637C84.1686 375.289 86.6588 377.361 88.1529 378.936Z" fill="#994E2E"/>
<path d="M54.5355 385.069C47.895 386.645 45.5708 388.468 44.4087 389.048C41.6695 391.286 40.0094 392.281 35.942 393.441C31.8747 394.685 28.3884 394.933 25.6492 394.27C22.91 393.607 22.163 391.452 22.578 390.209C22.661 389.96 22.827 389.711 22.993 389.462C23.3251 390.457 24.2381 391.535 26.0643 392.032C28.8865 392.778 32.2898 392.447 36.3571 391.203C40.4244 389.96 42.0845 389.048 44.8237 386.81C45.9858 386.313 48.31 384.407 54.8675 382.831C58.2708 381.505 60.0969 380.179 60.844 378.687C61.176 381.173 59.5989 383.163 54.5355 385.069Z" fill="#502313"/>
<path d="M97.1177 394.353C94.3785 395.099 90.8922 394.767 86.8249 393.524C82.7576 392.281 81.0975 391.369 78.3582 389.131C77.1961 388.551 74.872 386.727 68.2314 385.152C62.0059 382.748 61.0099 380.345 62.172 377.195C62.255 379.35 63.9151 381.174 68.6465 382.914C75.287 384.49 77.6112 386.313 78.7733 386.893C81.5125 389.131 83.1726 390.126 87.2399 391.286C91.3073 392.53 94.7935 392.778 97.5327 392.115C98.8609 391.783 99.7739 391.12 100.189 390.375C100.604 391.535 99.8569 393.607 97.1177 394.353Z" fill="#502313"/>
<path d="M60.9267 378.77C60.1796 380.262 58.3535 381.588 54.9502 382.914C48.3097 384.49 45.9855 386.313 44.9064 386.893C42.1672 389.131 40.5071 390.126 36.4397 391.286C32.3724 392.53 28.8861 392.778 26.1469 392.115C24.3208 391.7 23.4077 390.54 23.0757 389.545C22.9097 389.048 22.9097 388.468 23.0757 388.054C23.4907 386.81 25.0678 385.318 27.724 383.412C30.3803 381.505 32.6214 380.096 34.5306 379.184C34.8626 379.018 35.1946 378.935 35.5267 378.853C37.1038 378.687 38.9299 379.931 40.8391 382.582C46.4835 382.086 52.626 378.107 55.7803 376.863C58.1044 375.62 59.5156 374.294 60.0966 372.802C60.0966 372.802 60.0966 372.802 60.0966 372.885C61.2587 375.206 61.8397 377.112 60.9267 378.77Z" fill="#E19726"/>
<path d="M100.189 390.374C99.6908 391.121 98.8608 391.783 97.5327 392.115C94.7934 392.861 91.3072 392.53 87.2398 391.287C83.1725 390.043 81.5125 389.131 78.7733 386.893C77.6112 386.396 75.287 384.49 68.6465 382.915C63.9981 381.091 62.255 379.268 62.1719 377.196C62.0889 375.952 62.67 374.543 63.5001 373.051C64.0811 374.46 65.4922 375.786 67.8164 377.113C70.9706 378.356 77.1131 382.251 82.7576 382.832C84.6666 380.179 86.4928 378.936 88.0699 379.102C88.4019 379.102 88.734 379.267 89.066 379.433C90.9751 380.345 93.2163 381.754 95.8725 383.66C98.5287 385.567 100.023 387.059 100.521 388.302C100.77 388.717 100.687 389.545 100.189 390.374Z" fill="#E19726"/>
<path d="M55.6142 369.487C55.7802 370.067 55.8632 370.73 55.8632 371.31C56.0292 372.554 55.5311 373.382 54.5351 373.797L53.29 373.382C54.203 373.548 54.8671 373.216 55.1991 372.388C55.5311 371.476 55.6972 370.482 55.6142 369.487Z" fill="#60443E"/>
<path d="M68.3972 372.305C68.7292 373.133 69.3933 373.465 70.3063 373.299L69.0612 373.714C68.0652 373.299 67.5671 372.471 67.7331 371.227C67.8161 370.647 67.8992 370.067 67.9822 369.404C67.8992 370.482 67.9822 371.476 68.3972 372.305Z" fill="#60443E"/>
<path d="M124.261 380.926C123.68 378.19 122.85 370.73 123.099 368.161C123.099 364.597 125.091 361.116 123.597 357.385C123.016 355.479 122.601 353.489 122.269 351.583C121.937 349.676 121.688 347.77 121.522 345.781C121.024 335.254 123.099 324.894 122.518 314.45C122.435 312.377 122.186 310.305 121.771 308.233C120.775 305.58 119.944 302.928 119.114 300.193C118.284 297.54 117.537 294.805 116.873 292.07C115.379 284.196 114.549 276.238 113.968 268.364C113.802 265.712 113.553 263.059 113.387 260.489C112.889 244.658 109.32 229.241 105.75 213.99C105.584 211.254 105.501 208.602 105.418 206.033C104.422 196.002 101.683 186.056 99.2756 176.69C98.6946 174.784 98.0305 172.877 97.3665 170.971C96.7024 168.65 95.9554 166.412 95.2083 164.174C94.4613 161.688 93.8802 159.284 93.3822 156.797C92.8841 154.31 92.5521 151.823 92.3031 149.337C89.2319 135.826 97.6985 124.222 99.9397 110.877C101.268 102.589 98.1136 94.6314 91.473 88.8293C81.6783 80.5405 68.2313 80.1258 56.1953 82.7785C51.1319 83.9386 46.2346 85.762 42.0842 88.083C39.594 89.5748 37.2698 91.3982 35.1947 93.3875C29.7993 98.776 28.0561 106.235 28.9692 113.778C30.2973 126.211 37.0208 137.485 36.0248 149.834C35.9417 151.823 35.7757 153.896 35.4437 155.885C34.8627 159.118 34.1156 162.184 32.9535 165.335C32.0404 167.821 31.2104 170.307 30.3803 172.794C24.0718 189.372 21.9136 206.612 19.5064 223.688C19.1744 226.091 18.8424 228.577 18.4274 230.981C14.194 246.813 16.8502 262.976 14.6091 278.394C12.8659 290.412 7.47047 302.928 6.6404 315.527C6.5574 317.931 6.47439 320.418 6.47439 322.821C6.47439 325.722 6.5574 328.706 6.5574 331.607C7.22145 335.834 6.6404 339.896 5.72733 343.874C5.22929 345.864 4.73125 347.853 4.15021 349.759C2.57308 354.816 1.16197 359.374 2.57308 364.265C3.56916 368.824 2.57308 372.968 4.56524 377.527C6.05936 379.765 8.96458 381.671 12.3679 382.417C14.8581 382.915 16.5182 382.832 19.5064 382.749C21.5816 382.666 23.9888 382.915 25.7319 383.909C29.5502 386.064 31.6254 386.562 36.6058 385.319C38.0999 384.904 42.1672 384.738 44.4084 384.904C46.2346 385.401 48.1437 385.65 50.0529 385.567C51.962 385.484 53.9542 385.65 55.7803 385.981C58.2705 386.396 58.6855 385.319 61.5078 385.319C67.0692 385.236 70.0574 386.479 76.0339 386.396C80.2672 386.396 81.9274 386.313 85.3305 386.313C88.7338 386.313 92.1371 385.484 96.5364 385.153C100.936 384.407 115.379 384.572 119.197 385.401C124.676 387.142 124.842 383.494 124.261 380.926Z" fill="#F16C56"/>
<path d="M124.095 384.158C121.688 389.131 112.391 387.722 106.995 385.815C103.509 385.152 101.019 384.82 96.6196 385.567C96.4536 385.567 96.2876 385.567 96.0386 385.65V380.262H106.497V370.564H123.099C123.514 374.46 124.925 381.92 124.095 384.158Z" fill="#7D1620"/>
<path d="M100.189 108.556H96.9514V98.8579H86.4926V89.1601H76.1167V82.363C81.6782 83.3581 86.9076 85.4303 91.3899 89.243C97.3664 94.4646 100.521 101.262 100.189 108.556Z" fill="#7D1620"/>
<path d="M98.363 193.102V183.404H87.9872V173.706H77.5283V164.008H87.9872V154.31H92.8846C93.0506 155.305 93.2166 156.299 93.3826 157.295C93.8806 159.781 94.4617 162.267 95.2087 164.671C95.8728 166.992 96.6199 169.23 97.2839 171.468C97.948 173.375 98.529 175.281 99.1931 177.187C100.521 182.326 101.932 187.714 103.094 193.102H98.363Z" fill="#7D1620"/>
<path d="M103.094 265.877V256.179H92.6351V246.481H82.2593V236.783H92.7181V227.086H103.177V217.387H106.414C109.735 231.727 112.889 246.232 113.387 261.07C113.47 262.644 113.636 264.302 113.719 265.877H103.094Z" fill="#7D1620"/>
<path d="M34.3645 238.856V248.553H23.9887V258.251H15.771C15.854 249.3 16.1031 240.265 18.5103 231.396C18.5933 230.65 18.7593 229.903 18.8423 229.158H24.0717V238.856H34.3645Z" fill="#7D1620"/>
<path d="M27.8072 309.974V319.671H17.3484V329.369H6.97265V339.067H6.72363C6.97265 336.746 7.05565 334.426 6.64062 332.022C6.55762 329.12 6.47461 326.137 6.47461 323.235C6.47461 320.831 6.55762 318.344 6.64062 315.941C6.97265 310.719 8.13474 305.497 9.3798 300.275H17.2654V309.974H27.8072Z" fill="#7D1620"/>
<path d="M121.522 339.067H107.576V329.369H97.1175V319.671H86.6587V309.973H97.1175V300.275H107.576V290.577H116.458C116.541 291.241 116.707 291.986 116.79 292.649C117.454 295.385 118.201 298.037 119.031 300.772C119.861 303.425 120.775 306.16 121.688 308.813C122.103 310.885 122.352 312.957 122.435 315.029C122.933 322.986 121.771 331.026 121.522 339.067Z" fill="#7D1620"/>
<path d="M93.2163 120.658V130.356H82.7575V140.053H72.3817V149.751H51.464V140.053H41.0882V130.356H32.7876C32.0405 127.952 31.3765 125.548 30.7124 123.145V120.658H41.0882V110.96H51.464V101.262H72.2987V110.96H82.7575V120.658H93.2163Z" fill="#7D1620"/>
<path d="M39.4281 220.952H49.8869V230.65H70.7215V220.952H81.1803V211.253H91.5562V201.473H81.1803V191.775H70.7215V182.077H49.8869V191.775H39.4281V201.473H29.0522V211.253H39.4281V220.952Z" fill="#7D1620"/>
<path d="M39.4281 301.187H49.8869V310.885H70.7215V301.187H81.1803V291.489H91.5562V281.792H81.1803V272.093H70.7215V262.396H49.8869V272.093H39.4281V281.792H29.0522V291.489H39.4281V301.187Z" fill="#7D1620"/>
<path d="M76.1169 338.321H65.658V328.623H44.8234V338.321H34.3646V348.019H23.9888V357.717H34.3646V367.497H44.8234V377.112H65.658V367.497H76.1169V357.717H86.4928V348.019H76.1169V338.321Z" fill="#7D1620"/>
<path d="M10.4589 380.262V382.334C9.04782 381.837 7.80272 381.091 6.72363 380.262H10.4589Z" fill="#7D1620"/>
<path d="M101.019 98.9411C101.019 99.1901 101.019 99.355 101.019 99.604C92.3864 99.438 83.5877 101.676 74.955 101.676C73.3779 101.759 71.8837 101.842 70.3066 102.008C71.8837 101.345 73.5439 100.93 75.204 100.515C83.8367 99.9361 92.4694 98.0301 101.019 98.6091C101.019 98.6921 101.019 98.8581 101.019 98.9411Z" fill="#F16C56"/>
<path d="M49.3888 106.65C45.9856 105.904 42.6653 105.987 39.345 106.153C38.349 106.235 37.4359 106.235 36.4398 106.318C35.8588 106.318 35.3607 106.401 34.7797 106.401C33.9496 106.484 33.0365 106.484 32.1235 106.484C31.8745 106.484 31.5424 106.484 31.2934 106.484C30.4633 106.484 29.6333 106.484 28.7202 106.401C28.5542 106.401 28.3882 106.401 28.2222 106.318C28.3882 106.318 28.5542 106.318 28.7202 106.318C28.8032 106.235 28.8862 106.153 28.9692 106.07C29.3843 105.655 29.8823 105.24 30.3803 104.91C30.2973 104.661 30.1313 104.412 30.0483 104.163C30.8784 104.08 31.7084 103.997 32.6215 103.914C33.4516 103.832 34.2816 103.749 35.1117 103.749H35.1947C36.8548 103.666 38.515 103.666 40.0921 103.832C43.4954 104.163 46.5666 104.992 49.3888 106.65Z" fill="#F16C56"/>
<path d="M65.9071 116.099C64.994 116.099 64.0809 116.182 63.2508 116.182C57.9384 116.182 53.2901 116.679 48.0607 117.757C45.4875 118.42 42.9142 119.165 40.507 120.161C37.1868 121.569 34.1155 123.393 31.6253 125.714C28.7201 128.449 26.479 132.013 25.4829 136.49C26.728 132.262 28.8862 128.947 31.5424 126.377C34.7797 123.227 38.7639 121.155 43.2462 119.58C45.9855 118.669 48.8077 117.922 51.7129 117.425C57.4404 116.182 63.4168 116.182 68.9783 116.182C68.0652 115.684 66.7372 115.684 65.9071 116.099Z" fill="#F3AE1C"/>
<path d="M87.9872 84.6841C87.7382 84.767 87.4891 84.8499 87.2401 84.9328C86.244 85.3475 85.248 85.6791 84.1689 86.0108C81.0976 87.0051 77.9434 87.8343 74.7061 88.4968C75.7022 88.331 76.6983 88.083 77.7774 87.9172C79.0225 87.6684 80.2675 87.3368 81.5956 87.088C82.8407 86.8392 84.0859 86.5075 85.414 86.1767C86.5761 85.845 87.8212 85.5133 88.9833 85.0987C88.5682 85.0158 88.2362 84.8499 87.9872 84.6841Z" fill="#F3AE1C"/>
<path d="M110.399 108.639C110.482 107.893 110.648 107.23 110.731 106.484C110.731 102.091 108.406 99.4379 106.58 95.7909C105.169 92.2274 106.58 87.6684 104.505 84.0215C104.173 83.5239 103.841 83.0264 103.509 82.5289C102.43 81.12 100.189 79.877 98.6946 78.5503C100.853 73.4116 97.8646 70.3447 92.6352 69.1014C93.3822 66.6148 94.4613 65.3715 94.5443 64.5426C95.1254 61.3928 93.3822 56.2538 93.3822 56.2538C94.7103 47.3849 94.7103 47.3849 92.0541 34.3715C89.6469 23.0159 91.058 14.7271 79.8521 8.26184C70.9704 3.12286 64.2468 1.54799 55.6142 4.36614C42.5821 10.0854 39.5109 17.3795 38.9299 27.326C38.3488 37.2725 35.7756 42.9918 34.9455 49.1255C34.3645 53.6014 35.3606 56.1709 35.5266 58.4089C35.6096 59.4865 32.8704 62.2217 32.8704 63.2993C33.2024 66.6977 33.6174 67.6095 34.1985 69.1014C34.3645 69.5988 34.6135 70.0961 34.8625 70.7592C32.9534 72.0854 31.2933 73.6603 29.8821 75.318C29.3841 75.8982 28.9691 76.3956 28.72 76.8928C27.475 83.7727 24.6527 85.9278 19.1743 90.2381C19.0083 90.6519 18.9253 90.9836 18.7593 91.7299C17.2651 96.2059 19.5893 101.179 19.0913 105.655C18.5933 109.219 16.7671 112.866 15.937 116.514C15.854 117.342 15.771 118.171 15.771 118.917C15.605 123.807 16.2691 131.93 17.6802 136.82C17.7632 137.235 17.7632 137.65 17.8462 138.064C17.5972 139.639 17.2651 141.214 17.0161 142.871C14.2769 158.869 13.1148 171.054 13.6959 179.508C14.1939 187.962 15.522 190.2 17.6802 186.139C17.7632 186.968 17.9292 187.714 18.1782 188.377C18.3442 187.216 18.5933 185.973 18.8423 184.813C20.1704 174.535 21.9965 167.655 24.2377 164.091C24.1547 162.848 24.1547 161.687 24.1547 160.527C24.1547 158.786 24.1547 157.045 24.3207 155.387C24.4037 153.647 24.4037 151.906 24.4037 150.083C26.5619 145.607 28.554 140.965 31.1272 136.903C34.2815 131.93 38.2658 127.703 44.2423 125.465C50.4678 122.812 57.7723 122.895 65.2429 122.812C67.7331 122.812 70.2233 122.812 72.7135 122.647C74.4566 122.482 76.1168 122.482 77.7769 122.647C79.437 122.812 81.0972 123.061 82.6743 123.476C84.2515 123.973 85.9946 124.471 87.6548 124.885C88.4848 125.05 89.2319 125.382 90.062 125.714C90.892 126.045 91.7221 126.543 92.4692 126.957C96.5365 129.444 101.185 134.831 106.746 132.594C113.719 129.444 106.746 121.321 108.905 115.684C108.822 115.021 108.988 114.276 109.154 113.446C109.486 111.872 109.901 110.297 110.399 108.639ZM78.939 55.342C76.7808 59.3207 74.6227 61.8902 70.7214 64.7084C66.571 67.7752 62.5867 67.7752 58.8514 64.7084C52.7089 59.6522 48.8906 54.4303 47.4795 46.3902C46.3174 41.4998 46.5665 36.6094 48.2266 31.8849L52.2939 20.695C53.041 19.5346 56.4442 17.3795 57.5233 16.6336C58.6854 15.8047 60.8436 15.1415 63.2508 14.7271C65.3259 14.3956 67.1521 14.7271 68.2312 14.8929C72.1325 15.6389 75.2037 16.9651 77.8599 20.7779C80.5161 24.5907 80.1841 27.1602 81.6782 33.0453C81.8442 33.8742 82.4253 35.6148 82.6743 37.6041C82.9233 39.5105 83.0894 40.8367 83.0894 41.9143C82.8403 47.1362 81.0972 51.1977 78.939 55.342Z" fill="#F6AF1B"/>
<path d="M51.7961 117.425C48.8909 117.922 45.9856 118.669 43.3294 119.58C38.9301 121.155 34.8627 123.227 31.6254 126.377C28.9692 129.03 26.811 132.345 25.5659 136.49C26.562 132.013 28.7203 128.449 31.7085 125.714C34.1987 123.393 37.2699 121.569 40.5071 120.161C42.9143 119.165 45.4876 118.337 48.0608 117.757C53.3732 116.679 57.9385 116.182 63.2509 116.182C64.164 116.182 65.0771 116.099 65.9072 116.099C66.7373 115.684 68.1483 115.684 69.0614 116.182C63.4999 116.182 57.4405 116.182 51.7961 117.425Z" fill="#F6AF1B"/>
<path d="M69.0614 116.182C63.4999 116.182 57.5235 116.182 51.7961 117.425C48.8909 117.922 45.9856 118.669 43.3294 119.58C38.9301 121.155 34.8627 123.227 31.6254 126.377C28.9692 129.03 26.811 132.345 25.5659 136.49C26.562 132.013 28.7203 128.449 31.7085 125.714C34.1987 123.393 37.2699 121.569 40.5071 120.161C42.9143 119.165 45.4876 118.337 48.0608 117.757C53.3732 116.679 57.9385 116.182 63.2509 116.182C64.164 116.182 65.0771 116.099 65.9072 116.099C66.7373 115.684 68.0653 115.684 69.0614 116.182Z" fill="#CB862A"/>
<path d="M99.4417 78.965C98.2796 79.3796 97.1174 79.7942 95.8723 80.0429C94.6272 80.3738 93.3821 80.7055 92.054 80.9543C90.8089 81.203 89.4808 81.5347 88.2357 81.7835C87.2396 81.9493 86.2437 82.1973 85.1646 82.3631C88.4018 81.7006 91.5561 80.8713 94.6273 79.8771C95.6234 79.5454 96.7024 79.2137 97.6985 78.7991C97.9475 78.7162 98.1965 78.6333 98.4455 78.5504C98.9436 78.6333 99.1927 78.7991 99.4417 78.965Z" fill="#CB862A"/>
<path d="M35.1118 70.4277C35.1118 70.4277 36.855 86.1767 61.84 87.9172C61.923 87.9172 42.2505 87.5855 35.1118 70.4277Z" fill="#CB862A"/>
</g>
</g>
<defs>
<filter id="filter0_d_338_91" x="-2.00732" y="2.98157" width="130.495" height="399.766" filterUnits="userSpaceOnUse" color-interpolation-filters="sRGB">
<feFlood flood-opacity="0" result="BackgroundImageFix"/>
<feColorMatrix in="SourceAlpha" type="matrix" values="0 0 0 0 0 0 0 0 0 0 0 0 0 0 0 0 0 0 127 0" result="hardAlpha"/>
<feOffset dy="4"/>
<feGaussianBlur stdDeviation="2"/>
<feComposite in2="hardAlpha" operator="out"/>
<feColorMatrix type="matrix" values="0 0 0 0 0 0 0 0 0 0 0 0 0 0 0 0 0 0 0.25 0"/>
<feBlend mode="normal" in2="BackgroundImageFix" result="effect1_dropShadow_338_91"/>
<feBlend mode="normal" in="SourceGraphic" in2="effect1_dropShadow_338_91" result="shape"/>
</filter>
<clipPath id="clip0_338_91">
<rect width="127" height="403" fill="white"/>
</clipPath>
</defs>
</svg>
