<svg width="127" height="403" viewBox="0 0 127 403" fill="none" xmlns="http://www.w3.org/2000/svg">
<g filter="url(#filter0_d_338_43)">
<path d="M86.6966 32.79C86.5314 33.0393 86.367 33.2885 86.2844 33.5377C87.0262 36.4451 86.2844 39.1864 84.6363 41.2631C84.5537 41.5123 84.3893 41.8446 84.224 42.0939C83.0707 44.5859 81.5052 46.995 79.4451 48.8224C80.1044 49.3208 80.5987 49.9853 80.846 50.6499C81.0931 51.3976 81.1755 52.0621 81.0107 52.6436C81.258 52.7266 81.5875 52.8097 81.8348 52.9759C82.7411 53.4743 83.3178 54.3049 83.6474 55.3849C83.8944 56.4648 83.8126 57.4616 83.2352 58.5415C82.9884 59.0398 82.6587 59.4552 82.2467 59.7875C83.1534 60.369 83.73 61.1167 84.0596 62.0304C84.4718 63.0272 84.3893 64.0241 83.8944 64.8548C83.4004 65.7685 82.6587 66.2669 81.5876 66.5161C80.5164 66.6822 79.5275 66.5161 78.4564 65.9346C78.2916 65.8516 78.1268 65.7685 78.0445 65.6854C77.4675 66.4331 76.726 66.9314 75.7372 67.1807C74.5012 67.5129 73.3476 67.3468 72.194 66.7653C71.2052 66.2669 70.546 65.5193 70.1341 64.5225H70.0517C69.3101 64.7717 68.5685 64.6886 67.8269 64.2733C67.0853 63.8579 66.6734 63.2764 66.5085 62.5288C66.3437 61.8643 66.3437 61.1997 66.6733 60.5352C66.0141 60.6182 65.355 60.4521 64.6957 60.0368C63.9541 59.6214 63.3773 59.0399 63.0477 58.2092C62.7182 59.0399 62.1414 59.6214 61.3998 60.0368C60.7406 60.369 60.0814 60.5352 59.4222 60.5352C59.6693 61.1997 59.7518 61.8643 59.587 62.5288C59.4222 63.2764 58.9278 63.941 58.2686 64.2733C57.6094 64.6056 56.8677 64.7717 56.0438 64.5225H55.9614C55.5494 65.5193 54.8902 66.2669 53.9014 66.7653C52.8303 67.4298 51.5942 67.5129 50.3582 67.1807C49.3695 66.9314 48.6278 66.4331 48.0511 65.6854C47.8863 65.7685 47.7215 65.8516 47.5567 65.9346C46.5679 66.5161 45.4966 66.6822 44.5079 66.5161C43.4367 66.2669 42.6951 65.7685 42.2007 64.8548C41.7063 63.9409 41.7063 63.0272 42.0359 62.0304C42.3655 61.1167 42.9424 60.369 43.8487 59.7875C43.4367 59.4552 43.1072 59.0398 42.8599 58.5415C42.2831 57.5447 42.2007 56.4648 42.448 55.3849C42.6951 54.3049 43.272 53.4743 44.2608 52.9759C44.5079 52.8097 44.8375 52.7266 45.0847 52.6436C44.9199 51.979 44.9199 51.3146 45.2495 50.6499C45.5791 49.7362 46.2383 48.9885 47.3095 48.407C47.4743 48.324 47.5567 48.2409 47.7215 48.2409C45.8263 46.7457 44.1783 45.0012 42.8599 43.0076C42.6951 42.7584 42.5304 42.4261 42.3655 42.0939C40.3056 39.5187 38.328 36.7774 39.976 33.6208C39.976 33.4547 39.976 33.4547 39.8936 33.3716C37.9984 31.1287 37.5863 27.5567 40.7175 25.7292C40.7999 25.6461 40.8824 25.5631 40.9648 25.3139C39.2344 22.3234 39.564 18.3361 43.272 17.0901C43.1072 16.9239 42.9424 16.5917 42.8599 16.2594C42.1183 13.1858 44.3431 10.0292 47.5567 10.7767C47.5567 10.3614 47.5567 9.94602 47.7215 9.53081C47.8039 9.28161 47.8863 9.0323 48.0511 8.70009C49.2047 6.54024 51.759 5.70962 54.643 6.12493C54.8078 5.87573 54.9726 5.62652 55.1374 5.37732C57.0326 3.05141 59.9166 2.13761 62.3886 4.7958C62.5534 4.87891 62.8005 4.87891 63.0477 4.7958C65.4373 1.55612 69.3924 3.21754 71.4524 5.70962C71.7821 5.54342 72.1117 5.46032 72.4413 5.37732C75.49 4.7958 78.0445 6.70645 78.374 9.86302C78.7036 9.94602 79.0332 10.1123 79.3628 10.2784C81.9171 11.5244 83.8944 13.435 83.8944 16.2594C83.8944 16.5917 83.8126 16.9239 83.8126 17.2562C86.861 19.1667 88.8386 22.7387 85.7903 25.8123C85.7903 25.8954 85.8721 25.8954 85.9547 25.9785C86.861 26.3107 86.861 27.4736 87.5202 27.9721C87.6028 28.1382 87.6855 28.3874 87.7672 28.6366C88.4264 30.1319 87.4375 31.461 86.6966 32.79Z" fill="#502313"/>
<path d="M52.4613 63.2442C51.4403 62.2173 50.6917 60.5912 50.2832 58.366C49.7388 55.7986 49.943 53.5733 50.8278 51.6906C50.4194 54.0869 50.3513 56.1408 50.6236 57.9381C50.8958 59.7354 51.5084 61.5326 52.4613 63.2442Z" fill="#994E2E"/>
<path d="M49.9832 63.2443C49.0025 62.4264 48.2669 61.1179 47.7766 59.4004C47.2861 57.3559 47.4497 55.6385 48.3487 54.1664C47.94 56.0474 47.8583 57.683 48.1034 59.0733C48.3487 60.4636 49.0025 61.8539 49.9832 63.2443Z" fill="#994E2E"/>
<path d="M54.9397 60.7685C53.9178 60.0331 53.1747 58.8892 52.7103 57.2551C52.2457 55.4575 52.4316 53.905 53.2676 52.5159C52.896 54.2317 52.8032 55.7026 53.0818 56.9281C53.3605 58.2356 54.0108 59.5429 54.9397 60.7685Z" fill="#994E2E"/>
<path d="M73.9399 63.2442C74.9608 62.2173 75.7096 60.5912 76.1179 58.366C76.6624 55.7986 76.4582 53.5733 75.5734 51.6906C75.9818 54.0869 76.0498 56.1408 75.7776 57.9381C75.5734 59.7354 74.9608 61.5326 73.9399 63.2442Z" fill="#994E2E"/>
<path d="M76.4185 63.2443C77.3991 62.4264 78.1346 61.1179 78.625 59.4004C79.1154 57.3559 78.9519 55.6385 78.0529 54.1664C78.4617 56.0474 78.5434 57.683 78.2982 59.0733C77.9712 60.4636 77.3991 61.8539 76.4185 63.2443Z" fill="#994E2E"/>
<path d="M71.4614 60.7685C72.4832 60.0331 73.2264 58.8892 73.6909 57.2551C74.1553 55.4575 73.9696 53.905 73.1335 52.5159C73.5051 54.2317 73.598 55.7026 73.3193 56.9281C73.1335 58.2356 72.4832 59.5429 71.4614 60.7685Z" fill="#994E2E"/>
<path d="M94.5929 92.6534C94.5929 104.095 81.4295 111.11 64.1779 111.11H62.0521C44.8006 111.11 30.9829 104.095 30.9829 92.6534C30.9829 87.4757 34.6622 85.3044 39.4043 81.7129C39.9767 81.2953 40.6307 80.8777 41.2848 80.4601C45.1276 78.1222 48.8069 77.8713 51.6685 74.197C54.1213 71.441 53.3037 60.7514 53.2219 55.4065C53.0584 53.5692 52.9767 52.3166 52.9767 52.3166C54.5302 51.2308 57.8006 50.7298 62.0521 50.8968H62.8697C62.8697 50.8968 62.9515 50.8968 63.0333 50.8968C63.0333 50.8968 63.1151 50.8968 63.1968 50.8968H64.0144C68.266 50.8133 71.5365 51.2308 73.0899 52.3166C73.0899 52.3166 73.0081 53.5692 72.8447 55.4065C73.0081 60.2502 72.027 71.3575 74.4798 74.1135C77.4232 77.788 82.0019 78.874 85.7626 81.2119C86.4169 81.5461 87.0712 82.0471 87.6437 82.4646C92.3855 86.0554 94.5111 87.3923 94.5929 92.6534Z" fill="#96482C"/>
<path d="M82.2249 40.1472C81.9806 42.5442 82.062 43.9494 81.0846 45.1892C80.1885 46.429 79.6184 46.925 78.478 46.677L78.0708 46.5943L78.478 43.7841C79.2925 38.5767 79.4555 35.5186 79.8627 34.5266L80.0256 34.196C80.3515 33.7828 81.4918 33.5348 82.1434 33.5348C82.2249 33.5348 82.3878 33.5348 82.3878 33.5348C83.0393 33.7001 83.5278 34.3613 83.7724 35.3532C84.2614 36.593 82.3878 38.4114 82.2249 40.1472Z" fill="#994D2D"/>
<path d="M80.893 42.444C81.0995 42.3596 81.2372 42.0221 81.2372 41.6845C81.2372 41.347 81.3061 41.0094 81.0995 40.8408C81.0995 40.8408 80.6177 39.575 80.6177 39.4906C80.6177 39.1531 80.6177 38.7312 80.6865 38.3937C80.7553 37.803 80.893 37.1279 81.2372 36.7061C81.5815 36.1153 82.2011 35.9466 82.6829 36.031C82.8206 36.031 82.8895 36.1153 83.0271 36.1153C83.0271 36.1153 82.3388 36.1153 81.375 37.2123C81.0996 37.5498 80.893 38.1405 80.8242 38.7312C80.7553 39.0687 81.3061 40.5876 81.3061 40.672C81.4437 41.0094 81.4437 41.347 81.4437 41.347C81.375 42.5284 81.0307 42.6128 80.893 42.6128H80.8242L80.5488 42.5284L80.893 42.444Z" fill="#502415"/>
<path d="M48.3305 46.5882L47.8745 46.6708C46.5977 46.9186 45.9594 46.5056 44.9562 45.1837C43.8618 43.8619 43.953 42.4573 43.6794 40.1441C43.497 38.4092 41.3994 36.5089 41.7642 35.3524C42.1289 34.2783 42.585 33.7 43.3146 33.5348C43.4058 33.5348 43.497 33.5348 43.5882 33.5348C44.2265 33.5348 45.5945 33.7826 45.9594 34.1957L46.1418 34.5261C46.7801 35.5176 46.9625 38.5744 47.8745 43.7793L48.3305 46.5882Z" fill="#994D2D"/>
<path d="M45.5081 42.444C45.3016 42.3596 45.1638 42.0221 45.1638 41.6845C45.1638 41.347 45.0951 41.0094 45.3016 40.8408C45.3016 40.8408 45.7835 39.575 45.7835 39.4906C45.7835 39.1531 45.7835 38.7312 45.7147 38.3937C45.6458 37.803 45.5081 37.1279 45.1638 36.7061C44.8197 36.1153 44.2002 35.9466 43.7182 36.031C43.5805 36.031 43.5117 36.1153 43.374 36.1153C43.374 36.1153 44.0624 36.1153 45.0263 37.2123C45.3016 37.5498 45.5081 38.1405 45.577 38.7312C45.6458 39.0687 45.0951 40.5876 45.0951 40.672C44.9573 41.0094 44.9573 41.347 44.9573 41.347C45.0263 42.5284 45.3705 42.6128 45.5081 42.6128H45.577L45.8523 42.5284L45.5081 42.444Z" fill="#502415"/>
<path d="M80.3849 35.4166C79.8925 34.3511 79.5643 33.2036 79.3182 32.0561C79.2361 31.4824 79.1541 30.9086 79.072 30.3348C80.0566 20.5813 71.0312 13.2045 61.5953 14.7619C60.6927 14.7619 59.7082 14.7619 58.8056 14.8438C52.4878 15.6635 46.334 20.9911 46.7443 27.712C46.6622 28.7776 46.6622 29.925 46.4981 30.9906C46.334 32.0561 46.0878 33.1216 45.5135 34.1052C44.693 35.7445 45.1032 37.7935 45.3494 39.2688C45.4314 39.9246 45.5135 40.4983 45.5956 41.0721C45.7596 41.9737 46.0058 42.8752 46.2519 43.6949C46.4981 44.5146 46.7443 45.3342 47.0724 46.1537C48.8776 53.3666 52.9801 61.6449 61.1851 62.3826C61.7594 62.3826 62.3338 62.4646 62.9081 62.3826C63.4825 62.3826 64.0568 62.3826 64.6312 62.3826C72.6721 61.6449 76.7747 52.9567 78.7438 46.1537C78.99 45.3342 79.3182 44.5146 79.5643 43.6949C79.8105 42.8752 80.0566 41.9737 80.2207 41.0721C80.3027 40.4983 80.3848 39.8427 80.467 39.2688C80.549 38.6951 80.549 38.0394 80.549 37.3837C80.549 36.81 80.4669 36.1543 80.3849 35.4166Z" fill="#994D2D"/>
<path d="M66.5049 45.7164C66.5049 45.7164 67.3973 46.2646 67.8841 45.5336C68.5331 44.4372 67.8841 42.3356 67.3973 41.7875C68.9387 46.0819 66.5049 45.7164 66.5049 45.7164Z" fill="#502313"/>
<path d="M59.8964 45.7164C59.8964 45.7164 59.0039 46.2646 58.5172 45.5336C57.8682 44.4372 58.5172 42.3356 59.0039 41.7875C57.4626 46.0819 59.8964 45.7164 59.8964 45.7164Z" fill="#502313"/>
<path d="M64.9939 44.4282C65.2358 44.3457 65.4775 44.3457 65.5581 44.2632C65.7193 44.2632 65.9611 44.2632 66.2028 44.3457C66.2835 44.3457 66.3641 44.4282 66.4447 44.5107C66.5253 44.5933 66.5253 44.6758 66.4447 44.7583C66.4447 44.8408 66.3641 44.8408 66.2835 44.8408C66.0417 44.9233 65.7999 44.7583 65.5581 44.7583C64.9939 44.6758 64.0269 45.0884 64.0269 45.0884C64.0269 45.0884 64.4298 44.6758 64.9939 44.4282Z" fill="#502313"/>
<path d="M61.5409 44.4282C61.3557 44.3457 61.0777 44.3457 60.8924 44.2632C60.7072 44.2632 60.4293 44.2632 60.2439 44.3457C60.1513 44.3457 60.0586 44.4282 59.966 44.5107C59.8733 44.5933 59.8733 44.6758 59.966 44.7583C59.966 44.8408 60.0586 44.8408 60.0586 44.8408C60.3366 44.9233 60.5219 44.7583 60.7998 44.7583C61.3557 44.6758 62.3748 45.0884 62.3748 45.0884C62.3748 45.0884 62.0969 44.6758 61.5409 44.4282Z" fill="#502313"/>
<path d="M57.9012 29.2435C56.2766 28.772 55.5456 28.7719 53.7588 28.5833C53.5152 28.5833 53.2714 28.5833 53.109 28.5833C52.8655 28.5833 52.6218 28.5833 52.4593 28.5833C49.6979 29.0549 47.5861 31.5071 47.5049 31.8843C47.5049 31.8843 49.2917 30.6583 49.779 30.4696C50.1851 30.2809 51.3222 29.9981 51.7283 29.9981C52.2968 29.9037 52.8655 29.9037 53.3528 29.9037C53.5964 29.9037 53.9213 29.9037 54.1649 29.9981C56.5204 30.2809 57.2514 31.4128 59.0382 30.2809C59.2819 29.9981 58.0636 29.3378 57.9012 29.2435Z" fill="#502313"/>
<path d="M57.2846 35.2142C56.485 34.8786 55.6056 34.4591 54.4064 34.3751C52.6477 34.2074 51.0487 35.4658 49.7696 36.7244C49.5298 36.8922 49.3699 36.8921 49.13 36.8921C48.9702 36.8921 48.8902 36.8921 48.7303 36.8921L48.3306 36.9761L48.6504 37.2278C48.9702 37.4795 49.29 37.6473 49.6097 37.6473C50.1694 37.6473 50.649 37.2278 51.1287 36.7244C51.4485 36.3887 51.7683 36.0532 52.168 35.8015C52.0881 35.9692 52.0881 36.2209 52.0881 36.4727C52.0881 37.06 52.2479 37.4795 52.6477 37.899C53.0474 38.3186 53.447 38.4864 54.0067 38.4864C54.5664 38.4864 54.9661 38.3186 55.3659 37.899C55.7655 37.4795 55.9254 37.06 55.9254 36.4727C55.9254 36.0532 55.7655 35.6336 55.6056 35.298C56.2452 35.382 56.565 35.4658 57.0447 35.5497C57.2846 35.6336 57.6842 35.7175 58.1639 35.8853L58.2439 35.4659C57.9241 35.5497 57.6043 35.3819 57.2846 35.2142Z" fill="#502313"/>
<path d="M67.6134 29.1491C69.2347 28.6776 70.0453 28.7719 71.8286 28.5833C72.0718 28.5833 72.315 28.5833 72.4771 28.5833C72.7203 28.5833 72.9635 28.5833 73.1256 28.5833C75.8817 29.0549 77.9893 31.5071 78.0704 31.8843C78.0704 31.8843 76.287 30.6583 75.8007 30.4696C75.3954 30.2809 74.2605 29.9981 73.8552 29.9981C73.2877 29.9037 72.7203 29.9037 72.234 29.9037C71.9908 29.9037 71.6665 29.9037 71.4233 29.9981C69.0726 30.2809 68.343 31.4128 66.5596 30.2809C66.2353 29.9981 67.4513 29.2435 67.6134 29.1491Z" fill="#502313"/>
<path d="M76.9246 36.789C76.7646 36.789 76.6847 36.789 76.5248 36.789C76.285 36.789 76.1251 36.789 75.8853 36.6273C74.6061 35.415 73.0071 34.2834 71.2484 34.3642C70.0492 34.445 69.1698 34.7684 68.3703 35.1725C68.0505 35.3341 67.7307 35.415 67.3311 35.5766L67.411 35.9807C67.9707 35.8191 68.2905 35.7383 68.5302 35.6574C69.0099 35.4958 69.2498 35.415 69.9692 35.415C69.7295 35.7383 69.6494 36.1424 69.6494 36.5465C69.6494 37.1123 69.8094 37.5165 70.2091 37.9206C70.6088 38.3247 71.0085 38.4864 71.5681 38.4864C72.1278 38.4864 72.5276 38.3247 72.9273 37.9206C73.3269 37.5165 73.4868 37.1123 73.4868 36.5465C73.4868 36.3041 73.4069 36.0616 73.4069 35.8999C73.8067 36.1424 74.1265 36.4657 74.4463 36.789C74.9259 37.274 75.4057 37.6781 75.9652 37.6781C76.285 37.6781 76.6048 37.5973 76.9246 37.274L77.2443 37.0315L76.9246 36.789Z" fill="#502313"/>
<path d="M87.8524 389.71C87.1089 387.803 86.282 386.062 85.2906 384.569C84.2993 383.076 81.7379 380.754 77.6067 377.603C77.1109 377.188 76.6152 376.608 76.1195 375.779C75.0453 374.286 74.3843 372.628 74.1365 371.053C73.9712 369.975 73.8886 368.4 73.9712 366.243C74.0539 363.672 74.3843 360.77 74.88 357.453C76.5326 346.01 77.6067 334.567 78.0199 323.29C78.1851 313.505 78.3503 307.452 78.5982 305.046L60.7513 305.212L42.8218 305.046C43.0697 307.452 43.2349 313.505 43.4001 323.29C43.8132 334.567 44.8874 346.01 46.5398 357.453C47.0357 360.77 47.2835 363.672 47.4488 366.243C47.5314 368.4 47.4488 369.975 47.2835 371.053C47.0357 372.711 46.2919 374.286 45.3005 375.779C44.7222 376.526 44.2264 377.106 43.8132 377.603C39.5994 380.754 37.038 383.076 36.1292 384.569C35.1377 386.062 34.3114 387.803 33.5678 389.71C32.8242 391.617 35.9639 391.203 42.9044 388.3C49.8448 385.481 54.4718 383.574 56.62 382.745C58.7683 381.832 59.7598 380.588 59.5119 379.013C59.0988 377.355 58.8509 376.277 58.6856 375.697C58.4378 374.453 58.3552 373.457 58.3552 372.546C58.3552 372.131 58.6856 368.814 59.1814 362.761C59.6771 356.789 60.0077 353.141 60.1729 351.898C60.4208 349.825 60.586 347.835 60.7513 345.762C60.9165 347.835 61.1644 349.825 61.3297 351.898C61.4949 353.141 61.7428 356.707 62.3212 362.761C62.8169 368.814 63.1474 372.048 63.1474 372.546C63.1474 373.374 63.0647 374.453 62.8169 375.697C62.7343 376.277 62.4038 377.355 61.9906 379.013C61.7428 380.672 62.7343 381.916 64.9651 382.745C67.1134 383.656 71.7404 385.481 78.6808 388.3C85.621 391.12 88.6785 391.617 87.8524 389.71Z" fill="#994E2E"/>
<path d="M26.1091 390.996C26.516 389.882 27.8991 388.424 30.1771 386.708C32.5367 384.993 34.4894 383.621 36.1167 382.763C37.7438 381.905 39.6151 382.934 41.7305 385.936C46.6936 385.506 52.1449 381.733 54.9111 380.618C56.9451 379.418 58.2469 378.216 58.7351 376.844C60.6877 380.703 60.7691 383.448 54.2602 386.108C48.4022 387.566 46.3681 389.28 45.3918 389.796C43.0323 391.854 41.5677 392.799 37.9066 393.913C34.3266 395.028 31.3163 395.286 28.8754 394.685C26.3532 394.084 25.7837 392.112 26.1091 390.996Z" fill="#F3AE1C"/>
<path d="M92.5102 394.627C90.0136 395.312 86.934 395.055 83.2726 393.857C79.6107 392.746 78.1126 391.805 75.6161 389.754C74.5342 389.241 72.4537 387.531 66.5451 386.077C59.8042 383.427 59.8874 380.692 61.9679 376.844C62.4672 378.127 63.7155 379.409 65.8793 380.606C68.7088 381.718 74.2845 385.394 79.3611 385.907C81.5248 382.914 83.3552 381.888 85.1032 382.743C86.7679 383.599 88.848 384.88 91.1784 386.677C93.5916 388.386 94.9232 389.84 95.3396 390.95C95.6725 392.062 95.0067 394.029 92.5102 394.627Z" fill="#F3AE1C"/>
<path d="M40.3008 133.121C40.7126 137.892 42.6073 142.416 41.7835 146.774C41.5365 148.09 41.2068 149.406 40.8773 150.722H85.8557C85.5269 149.406 85.1973 148.09 84.9503 146.774C84.1259 142.416 86.2679 137.892 86.7619 133.121C87.0915 129.585 87.9152 124.897 89.2337 119.221C91.5401 109.023 92.776 103.676 92.9404 103.101L70.3689 102.443V102.032L63.6139 102.196L56.8588 102.032V102.443L34.2871 103.101C34.3694 103.676 35.6052 109.023 37.994 119.221C39.1474 124.897 39.9712 129.585 40.3008 133.121Z" fill="#EF6C83"/>
<path d="M111.766 215.373C112.673 212.906 113.004 210.357 112.592 207.726C112.261 205.424 111.766 203.533 111.105 202.134L110.527 200.736C109.205 198.106 108.214 194.981 107.554 191.445C106.893 187.827 106.315 184.045 105.737 180.098C105.242 176.151 104.664 172.286 104.003 168.505C102.764 159.377 101.194 153.211 99.213 150.003C99.2956 148.934 99.2956 147.866 99.2956 146.879C99.2956 145.317 99.2956 143.754 99.1304 142.275C99.0478 140.712 99.0478 139.149 99.0478 137.588C99.0478 135.861 99.1304 134.134 99.1304 132.408C99.1304 130.763 99.213 129.118 99.213 127.556C99.2956 125.83 99.2956 124.021 99.213 122.294C99.213 120.567 99.1304 118.922 99.1304 117.278C99.0478 115.551 98.9652 113.906 98.7999 112.262C98.6355 110.618 98.5529 108.973 98.3876 107.41C98.2224 105.685 97.892 104.039 97.3138 102.395C96.818 100.834 95.9928 99.5172 94.8362 98.3657C93.6805 97.2968 92.3587 96.639 90.7899 96.3105C88.9733 96.0647 87.4038 96.639 86.0002 97.9547C84.9262 99.1887 84.101 100.504 83.688 102.066C83.2749 104.04 83.0273 106.096 83.0273 108.068C83.0273 109.796 83.0273 111.523 83.1922 113.248C83.2749 115.551 83.4401 117.771 83.5228 120.074C83.688 122.047 83.8532 123.938 83.9358 125.83C84.1836 128.214 84.4314 130.598 84.7619 132.983C85.0088 134.874 85.2568 136.848 85.5872 138.738C85.9176 140.959 86.248 143.262 86.7437 145.481C87.156 147.701 87.569 150.003 88.1473 152.142C88.3951 153.211 88.7255 154.279 88.9733 155.349C88.8081 155.76 88.8081 156.006 88.8081 156.088C88.3951 159.212 88.7255 163.9 89.9639 170.066C91.1205 173.932 92.5239 178.124 94.1753 182.729C95.1667 185.36 96.7354 189.555 98.7999 195.227C99.1304 196.131 99.4608 197.036 99.7086 197.94L99.3782 198.106C97.7268 201.311 97.479 204.683 98.7172 208.301C100.039 212.084 99.1304 215.209 96.0754 217.757C95.0015 218.497 94.3406 219.402 93.9284 220.471C93.8458 220.636 93.8457 220.882 93.8457 221.046L94.1753 221.375C94.9188 221.539 95.745 221.457 96.5702 221.128C96.7354 221.046 96.9833 220.882 97.2312 220.8L95.745 222.608L95.3319 224.007C95.745 224.088 96.3232 224.171 96.9007 224.171C97.3138 224.088 97.7268 224.007 98.2224 223.924V224.007C99.2956 224.171 100.452 224.171 101.525 223.924C101.855 223.841 102.186 223.76 102.516 223.596L102.681 223.513C106.067 222.526 108.544 220.717 110.197 218.003C110.775 218.333 111.188 218.415 111.435 218.169C111.848 217.922 111.931 217.345 111.601 216.359C111.848 216.031 111.848 215.701 111.766 215.373ZM105.655 210.11C105.902 210.932 106.232 211.754 106.563 212.659C106.232 211.837 105.902 210.932 105.655 210.11ZM111.848 211.179C111.683 212.248 111.683 213.235 111.683 214.14C111.601 213.235 111.683 212.248 111.848 211.179Z" fill="#994E2E"/>
<path d="M105.049 201.889C104.78 202.302 104.512 202.88 104.332 203.623C103.885 205.44 103.885 207.092 104.332 208.661C104.78 210.147 105.406 211.882 106.391 213.781C107.376 215.68 108.539 217.001 110.061 217.746C110.688 217.992 111.136 218.075 111.404 217.992C111.404 218.075 111.583 217.992 111.941 217.827C111.315 218.488 110.419 218.571 109.345 218.075C108.092 217.414 106.928 216.175 106.033 214.276C105.049 212.376 104.422 210.643 103.974 209.156C103.527 207.587 103.616 205.935 104.064 204.118C104.332 203.128 104.69 202.383 105.049 201.889Z" fill="#8C4228"/>
<path d="M21.6181 208.342C21.1966 209.936 20.5219 211.696 19.6784 213.626C18.8352 215.556 17.6545 216.898 16.2209 217.568C15.7149 216.813 15.3775 216.059 15.0403 215.136C15.0403 215.052 15.0403 215.052 14.9559 214.968C15.209 213.29 15.1246 211.277 14.6186 209.013C14.1969 206.245 14.6186 204.064 15.8835 202.386C17.2329 200.708 18.4135 200.037 19.4255 200.289C20.0158 200.373 20.5219 200.793 20.9435 201.547C21.1966 202.051 21.3651 202.638 21.5338 203.309C21.9554 205.154 22.0398 206.832 21.6181 208.342Z" fill="#994E2E"/>
<path d="M42.9128 101.259C42.416 99.6843 41.6707 98.3597 40.5939 97.1176C39.1862 95.792 37.6125 95.2953 35.7906 95.4605C34.2171 95.7084 32.8921 96.4548 31.7326 97.5306C31.6497 97.6142 31.567 97.6968 31.4841 97.7794C30.4903 98.8563 29.7449 100.181 29.2481 101.589C28.6683 103.245 28.3371 104.902 28.1714 106.642C28.0058 108.215 27.8402 109.871 27.7574 111.529C27.6746 113.185 27.5089 114.842 27.4262 116.581C27.4262 118.237 27.3432 119.893 27.2604 121.633C27.2604 123.372 27.2604 125.194 27.2604 126.934C27.2604 128.59 27.3432 130.247 27.3432 131.904C27.3432 133.643 27.4262 135.382 27.4262 137.121C27.4262 138.694 27.4262 140.269 27.3432 141.842C27.2604 143.333 27.1776 144.907 27.1776 146.48C27.1776 147.557 27.2604 148.551 27.2604 149.628C25.2729 152.857 23.6165 159.07 22.4571 168.264C22.2086 169.837 21.8773 171.411 21.6289 173.068C21.2976 175.304 20.9664 177.623 20.6351 179.943C20.0554 183.835 19.4757 187.645 18.8131 191.372C18.1506 194.933 17.1568 197.998 15.8317 200.731L15.2519 202.139C14.6723 203.548 14.1754 205.452 13.7612 207.771C13.4299 210.422 13.7612 212.989 14.5894 215.474C14.5894 215.805 14.5067 216.055 14.4238 216.385C14.0925 217.378 14.1754 218.041 14.5894 218.207C14.8379 218.373 15.2519 218.29 15.8317 218.041C15.8317 218.125 15.9145 218.125 15.9145 218.207C15.9973 218.373 16.0801 218.538 16.2457 218.621C17.9021 220.94 20.3038 222.597 23.368 223.508L23.5337 223.59C23.8649 223.674 24.1962 223.757 24.5274 223.922C25.6869 224.171 26.7635 224.171 27.923 224.004V223.922C28.4199 224.004 28.834 224.088 29.2481 224.171C29.8277 224.171 30.3247 224.171 30.8216 224.004L30.4076 222.597L28.9168 220.775C29.0824 220.858 29.3308 221.023 29.5793 221.106C30.4076 221.519 31.1528 221.603 31.981 221.355L32.3122 221.023C32.3951 220.858 32.3122 220.609 32.2295 220.444C31.8982 219.367 31.1528 218.456 30.0763 217.711C27.0119 215.143 26.101 211.995 27.4262 208.185C28.6683 204.541 28.4199 201.062 26.7635 197.915L26.4323 197.749C26.7635 196.839 27.0948 195.928 27.3432 195.016C29.4137 189.302 30.9872 185.077 31.981 182.427C33.6374 177.788 35.0453 173.564 36.2047 169.672C37.3641 163.46 37.7782 158.738 37.3641 155.591C37.3641 155.509 37.3641 155.26 37.1985 154.846C37.5298 153.769 37.7782 152.692 38.0267 151.616C38.6064 149.379 39.1033 147.143 39.4346 144.907C39.8487 142.671 40.2627 140.352 40.5939 138.115C40.9253 136.21 41.2566 134.223 41.4222 132.317C41.7534 129.915 42.0019 127.513 42.2503 125.111C42.416 123.289 42.5816 121.302 42.6644 119.314C42.8301 117.078 42.9128 114.759 42.9957 112.439C43.1613 110.701 43.2441 108.961 43.1613 107.222C43.5755 105.316 43.327 103.245 42.9128 101.259ZM20.7179 202.388C20.9664 202.885 21.132 203.464 21.2976 204.127C21.132 203.464 20.9664 202.885 20.7179 202.388C20.6351 202.222 20.4695 202.056 20.3866 201.89C20.4695 201.973 20.5522 202.139 20.7179 202.388ZM18.9787 201.062C19.0615 201.062 19.1443 201.062 19.1443 201.062C19.31 201.062 19.4757 201.145 19.5585 201.145C19.3927 201.062 19.31 201.062 19.1443 201.062C19.0615 201.062 18.8959 201.062 18.8131 200.98C18.8959 201.062 18.9787 201.062 18.9787 201.062ZM18.7302 201.062C18.6475 201.062 18.5646 201.062 18.399 201.062C18.5646 201.062 18.6475 201.062 18.7302 201.062ZM18.3162 201.145C18.2334 201.145 18.1506 201.229 18.0677 201.229C18.1506 201.145 18.2334 201.145 18.3162 201.145ZM17.9021 201.229C17.8193 201.229 17.7365 201.311 17.6537 201.393C17.7365 201.311 17.8193 201.311 17.9021 201.229ZM17.4881 201.476C17.4052 201.559 17.3224 201.559 17.2396 201.643C17.3224 201.559 17.4052 201.559 17.4881 201.476ZM17.074 201.808C16.9912 201.89 16.9083 201.973 16.8256 202.056C16.9083 201.973 16.9912 201.89 17.074 201.808ZM16.6598 202.222C16.577 202.305 16.4942 202.388 16.4113 202.471C16.4942 202.388 16.577 202.305 16.6598 202.222ZM14.2582 207.771C14.2582 206.28 14.5894 204.955 15.2519 203.795C14.5894 204.955 14.2582 206.28 14.2582 207.771ZM15.7488 203.215C15.9145 203.051 16.0801 202.802 16.2457 202.636C16.0801 202.802 15.9145 202.967 15.7488 203.215Z" fill="#994E2E"/>
<path d="M21.581 203.404C21.9856 205.312 21.9856 207.047 21.6618 208.695C21.2574 210.255 20.691 212.077 19.8009 214.07C18.9917 216.065 17.9398 217.452 16.807 218.059C15.8361 218.58 15.0268 218.493 14.4604 217.798C14.7841 217.972 14.9459 218.059 14.9459 217.972C15.1887 218.059 15.5932 217.972 16.1597 217.712C17.5352 216.932 18.5871 215.545 19.4772 213.551C20.3673 211.555 20.9336 209.735 21.3383 208.173C21.7428 206.526 21.7428 204.792 21.3383 202.885C21.1765 202.103 20.9336 201.583 20.691 201.063C21.0956 201.671 21.4192 202.451 21.581 203.404Z" fill="#8C4228"/>
<path d="M101.201 267.496C101.201 280.097 100.952 292.534 100.454 304.724C100.288 308.018 100.205 311.313 99.9554 314.607C99.4573 323.914 98.9592 331.162 98.4602 336.433C98.2116 338.657 98.0447 340.551 97.796 342.033C95.8027 343.598 93.1442 344.834 89.739 345.987C88.5759 346.399 87.3301 346.728 85.9183 347.057C85.1707 347.222 84.423 347.386 83.6754 347.551C82.0972 347.881 80.436 348.21 78.7747 348.458C76.0337 348.869 73.0434 349.199 69.9701 349.364V349.528C67.7274 349.611 65.4847 349.611 63.1591 349.611C60.8333 349.611 58.5906 349.611 56.3479 349.528V349.364C51.3642 349.033 46.7958 348.458 42.6427 347.551C41.8121 347.386 41.0645 347.222 40.317 347.057C38.4066 346.646 36.7453 346.07 35.1671 345.575C32.4261 344.587 30.1834 343.433 28.5222 342.116C28.273 340.634 28.1069 338.739 27.8577 336.515C27.3594 331.245 26.8609 323.996 26.3625 314.69C26.1964 311.395 26.0303 308.101 25.9472 304.806C25.4489 292.534 25.1997 280.179 25.1997 267.579C25.1997 262.225 25.1997 257.036 25.2827 252.012C25.4489 240.563 25.8641 230.022 26.4456 220.385C27.7746 199.218 30.2665 182.417 33.7551 169.815C34.0873 169.075 34.4195 168.332 34.6688 167.674C36.9115 162.403 38.4066 157.296 39.2371 152.438C40.0679 147.578 40.317 142.389 39.8185 137.035C39.5694 133.905 38.988 130.035 38.1574 125.422C37.9082 124.105 37.659 122.787 37.3268 121.386C35.001 109.938 33.7551 103.844 33.589 103.185L56.3479 102.443V102.032L63.1591 102.278L69.9701 102.032V102.443L79.1901 102.773L92.7296 103.185C92.6461 103.844 91.4003 109.856 88.9914 121.386C88.7419 122.787 88.4098 124.105 88.2438 125.422C87.4136 130.035 86.8319 133.905 86.5824 137.035C86.1669 142.389 86.333 147.578 87.164 152.438C87.9943 157.296 89.4895 162.32 91.649 167.674C91.9819 168.415 92.2306 169.156 92.5627 169.815C96.0514 182.417 98.4602 199.301 99.8728 220.385C100.537 230.022 100.869 240.563 101.035 252.094C101.201 256.955 101.201 262.143 101.201 267.496Z" fill="#F1572B"/>
<path d="M101.201 266.978C101.201 279.584 100.951 292.027 100.452 304.221H90.1314V293.675H79.1442V283.127H68.1572V272.581H79.1442V262.033H90.1314V251.404H101.119C101.201 256.43 101.201 261.622 101.201 266.978Z" fill="#F37058"/>
<path d="M78.8967 314.999V325.712H67.9922V336.423H57.0049V347.134H40.3176C38.4175 346.716 36.7653 346.13 35.1957 345.629V336.423H27.926C27.4302 331.066 26.9346 323.703 26.439 314.246C26.2737 310.899 26.1085 307.552 26.0259 304.204H35.2783V293.492H57.0875V304.204H67.9922V314.916H78.8967V314.999Z" fill="#F37058"/>
<path d="M98.7229 336.406C98.4635 338.519 98.2901 340.319 98.0306 341.727C95.9539 343.215 93.1847 344.389 89.6357 345.484V336.484L98.7229 336.406Z" fill="#F37058"/>
<path d="M85.5051 347.134C84.8136 347.232 84.1221 347.328 83.4308 347.426C81.9704 347.62 80.4333 347.815 78.8965 347.96V347.134H85.5051Z" fill="#F37058"/>
<path d="M89.9092 210.306H79.0332V199.743H68.1572V189.179H79.0332V178.616H89.9092V168.053H91.3921C91.7217 168.795 91.9687 169.538 92.2982 170.198C95.7588 182.825 98.1488 199.743 99.549 220.869H89.9092V210.306Z" fill="#F37058"/>
<path d="M78.8967 230.41V240.956H67.9752V251.504H56.971V262.133H35.1283V251.504H25.1997C25.3652 240.051 25.7788 229.503 26.358 219.862H35.1283V209.316H56.971V219.862H67.8925V230.41H78.8967Z" fill="#F37058"/>
<path d="M92.9401 103.262C92.8567 103.91 91.5961 109.826 89.1599 121.168C88.908 122.546 88.5717 123.843 88.404 125.139H79.2467V114.768H68.1572V104.396H79.2467V102.857L92.9401 103.262Z" fill="#F37058"/>
<path d="M68.1148 135.686H57.1681V125.139H37.8262C38.6493 129.589 39.2254 133.461 39.4724 136.51C39.8839 141.865 39.7193 147.056 38.8962 151.918C38.0732 156.862 36.5094 161.971 34.2871 167.409H35.4394V177.956H57.1681V167.409H68.0325V156.862H78.8968V146.315H68.1148V135.686Z" fill="#F37058"/>
<path d="M94.3995 104.386C84.8571 103.723 74.6505 103.806 63.6974 104.718C52.7442 105.63 43.3676 105.132 35.4017 103.226C33.0784 102.646 31.0868 101.983 29.3443 101.237C29.3443 101.32 29.2614 101.403 29.2614 101.486C28.6804 103.144 28.3485 104.801 28.1826 106.54C28.0166 108.116 27.8506 109.773 27.7677 111.431C27.6847 113.088 27.5188 114.746 27.4358 116.486C27.4358 118.143 27.3528 119.8 27.2698 121.541C27.2698 123.281 27.2698 125.104 27.2698 126.845C27.2698 128.502 27.2698 130.16 27.3528 131.735C27.3528 133.474 27.4358 135.215 27.4358 136.955C27.4358 138.53 27.4358 140.105 27.3528 141.679C27.2698 143.17 27.1869 144.744 27.1869 146.32C27.1869 147.398 27.2698 148.474 27.2698 149.552C25.2783 152.784 23.6188 158.999 22.4571 168.198C22.2082 169.772 21.8762 171.429 21.6272 173.004C21.1294 171.927 20.7975 170.767 20.6316 169.358C18.7231 173.004 17.5613 171.015 17.0634 163.391C16.5656 155.767 17.5613 144.828 20.0507 130.491C22.2081 118.392 24.2826 108.116 26.4401 99.6624C24.1996 98.1706 23.0379 96.4309 22.789 94.4414C22.706 93.696 23.8677 92.7846 26.2741 91.7901C24.7805 88.8893 26.855 85.6576 32.4144 82.0941C37.9741 78.5306 43.0357 76.6242 47.5996 76.4584C52.1634 76.21 55.9804 76.1271 58.9676 76.0443C60.2123 76.0443 61.0421 76.0443 61.291 75.8785C61.54 75.7128 64.2782 75.3813 69.34 74.8841C74.4846 74.3868 81.1229 76.1271 88.5077 77.9505C91.2462 78.6132 92.4911 79.525 92.0764 80.6854C97.8014 82.1766 99.8757 84.4139 98.3821 87.4806C105.602 100.16 103.942 105.05 94.3995 104.386Z" fill="#F6AF1B"/>
<path d="M98.2272 87.2892C98.3098 87.2892 98.7229 86.7644 98.7229 86.7644C90.0488 85.4513 81.2923 87.6391 72.5355 88.2522C70.966 88.6021 69.479 89.0404 68.1572 89.6527C69.5616 89.5652 70.966 89.4777 72.3703 89.3903C80.9619 89.3903 89.7184 86.7644 98.2272 87.5516C98.2272 87.4641 98.2272 87.3767 98.2272 87.2892Z" fill="#CB862A"/>
<path d="M26.7075 91.7604C26.4562 92.1639 25.6186 92.1639 25.1997 92.5675C27.7127 93.3754 30.6445 93.7786 33.4925 93.698C34.8327 93.698 36.0893 93.6174 37.4296 93.5368C41.2827 93.2945 45.2198 92.9711 49.1568 93.7786C46.6437 92.3257 43.7958 91.6795 40.8639 91.4369C39.3562 91.2751 37.8484 91.2751 36.3406 91.356C34.8327 91.4369 33.2412 91.5986 31.7335 91.7604C30.1419 91.7604 28.4666 91.7604 26.7075 91.7604Z" fill="#CB862A"/>
<path d="M55.4983 374.369C55.5834 374.799 55.6684 375.301 55.7534 375.731C55.8385 376.665 55.4984 377.311 54.478 377.669L53.2876 377.311C54.1378 377.382 54.7331 377.167 55.0731 376.522C55.4133 375.876 55.5834 375.086 55.4983 374.369Z" fill="#60443E"/>
<path d="M66.3702 376.522C66.7105 377.167 67.3061 377.454 68.1571 377.311L66.9657 377.669C66.0298 377.311 65.6043 376.665 65.6893 375.731C65.7745 375.301 65.8596 374.799 65.9447 374.369C65.8596 375.086 65.9447 375.876 66.3702 376.522Z" fill="#60443E"/>
<path d="M57.418 51.0181C57.418 51.0181 57.7555 51.7059 58.4305 52.3173C59.1055 52.9287 60.54 54.075 62.4808 54.1513C64.3371 54.2277 65.0966 53.9985 65.6029 53.7692C66.1091 53.54 68.0499 52.5465 68.5563 51.8588C69.0625 51.0946 68.9782 50.9417 68.9782 50.9417C68.9782 50.9417 62.312 50.8654 61.1307 50.8654C60.0337 50.9418 57.418 51.0181 57.418 51.0181Z" fill="#6C3321"/>
<path d="M56.5918 50.9879C56.5918 50.9879 57.7201 50.737 58.526 50.6116C59.332 50.4861 60.8633 50.0471 61.4275 50.1098C61.9917 50.1725 62.6364 50.3607 63.0395 50.3607C63.4425 50.3607 63.7648 49.9843 64.4901 50.0471C65.2155 50.1098 67.1498 50.6743 67.714 50.737C68.2781 50.737 69.8094 50.8624 69.8094 50.8624C69.8094 50.8624 69.4065 51.176 68.117 51.3015C66.8274 51.4269 64.9737 51.6151 64.2484 51.4896C64.2484 51.4896 63.6841 51.6151 63.12 51.6778C62.5558 51.7405 61.8305 51.5524 61.7499 51.5524C61.6693 51.5524 59.9768 51.6778 58.929 51.5524C57.8812 51.3642 57.0753 51.3642 56.5918 50.9879Z" fill="#4F2315"/>
</g>
<defs>
<filter id="filter0_d_338_43" x="9.63428" y="3" width="107.133" height="400" filterUnits="userSpaceOnUse" color-interpolation-filters="sRGB">
<feFlood flood-opacity="0" result="BackgroundImageFix"/>
<feColorMatrix in="SourceAlpha" type="matrix" values="0 0 0 0 0 0 0 0 0 0 0 0 0 0 0 0 0 0 127 0" result="hardAlpha"/>
<feOffset dy="4"/>
<feGaussianBlur stdDeviation="2"/>
<feComposite in2="hardAlpha" operator="out"/>
<feColorMatrix type="matrix" values="0 0 0 0 0 0 0 0 0 0 0 0 0 0 0 0 0 0 0.25 0"/>
<feBlend mode="normal" in2="BackgroundImageFix" result="effect1_dropShadow_338_43"/>
<feBlend mode="normal" in="SourceGraphic" in2="effect1_dropShadow_338_43" result="shape"/>
</filter>
</defs>
</svg>
