<svg width="108" height="403" viewBox="0 0 108 403" fill="none" xmlns="http://www.w3.org/2000/svg">
<path d="M97.7246 382.414C97.7246 382.414 94.0478 382.17 93.9757 385.738C93.9757 385.738 93.6873 382.251 95.8501 381.684L97.7246 382.414Z" fill="#773017"/>
<path d="M30.9985 102.321C30.9242 102.24 30.85 102.24 30.7758 102.159C30.7015 102.159 30.6273 102.078 30.5531 102.159L22.387 99.1643L12.2166 95.441C10.8804 100.864 10.4349 108.634 10.2122 115.352C10.2122 115.595 10.138 115.838 10.138 116.162C10.138 116.162 10.138 117.942 10.138 120.29V120.856C10.138 122.718 10.138 124.903 10.138 126.684V127.008C10.138 128.06 10.138 128.95 10.138 129.598C10.138 131.864 9.46986 135.587 9.61834 137.206C9.84105 139.553 8.95021 146.676 8.95021 146.676C8.95021 146.676 8.87597 149.104 9.5441 153.394C10.5834 160.193 11.0288 168.044 11.1031 174.115V174.196C11.1773 177.919 11.1031 180.995 10.8804 182.694L20.1599 183.747L20.4569 183.828C20.4569 183.828 27.1382 150.237 26.8412 138.906C26.8412 138.096 26.767 137.368 26.6928 136.801C26.6928 136.801 26.5443 135.021 26.5443 133.078C26.5443 131.945 26.6185 130.731 26.6928 129.76C26.6928 129.598 26.6928 129.436 26.6928 129.112C26.6928 129.112 26.6928 129.112 26.6928 129.031C26.6928 128.303 26.8412 127.008 27.5094 124.903C27.5836 124.579 27.7321 124.256 27.8063 123.932C28.029 123.365 28.1775 122.799 28.4002 122.151C30.1076 116.324 30.9985 108.23 31.147 105.073C31.2212 104.83 31.2212 104.587 31.2954 104.344C31.3697 103.859 31.4439 103.454 31.5181 102.888V102.807L30.9985 102.321Z" fill="#994E2E"/>
<path d="M16.9942 205.721C16.9942 205.721 16.9942 206.366 16.9942 207.333C17.4463 212.571 16.6929 214.747 19.4805 218.696C15.8641 216.762 14.5833 212.652 16.8436 206.769C16.9189 206.124 16.9942 205.721 16.9942 205.721Z" fill="#854324"/>
<path d="M20.4604 180.979C20.0959 183.733 20.0959 186.973 21.2621 189.97C23.5944 196.126 20.6061 202.606 20.6061 206.332C20.6061 207.547 21.918 210.22 21.9909 211.516C21.8452 212.893 21.1163 213.379 21.1163 213.379C21.1163 214.189 20.9706 212.974 21.1163 213.379C21.5536 214.756 21.4807 216.214 21.6994 217.024C21.918 217.834 23.4486 221.155 21.5536 221.722C21.5536 221.722 20.3875 222.451 19.8044 221.236C19.8044 221.236 18.5654 219.778 18.4925 219.292C18.4196 218.806 17.7637 216.133 17.4721 215.566C17.1806 214.999 16.4517 213.298 16.4517 211.84C16.4517 211.597 16.3789 211.03 16.3789 211.03C16.0873 210.625 16.0873 210.625 16.1602 210.868C16.3789 211.516 16.2331 213.541 16.5975 214.27C17.1806 215.242 18.201 216.133 18.784 218.077C19.2213 219.454 19.8773 220.102 19.9502 220.507C20.0231 221.317 19.1484 221.398 19.1484 221.398C19.1484 221.398 18.784 221.479 17.9094 220.912C16.7433 220.183 17.2535 220.426 16.1602 219.373C16.1602 219.373 14.4839 216.781 13.9737 216.052C13.3906 215.242 12.9533 214.27 12.7346 212.974C12.516 211.678 11.9329 208.924 12.7346 210.625C13.1719 211.435 12.3702 212.974 13.3906 213.622C13.8279 213.946 15.7229 218.563 15.7229 218.563C14.6296 217.915 15.5771 218.401 14.6296 218.077C14.6296 218.077 13.0262 217.753 11.7872 216.376C11.7872 216.376 9.7464 214.351 9.89216 213.055C9.89216 213.055 9.23621 210.949 9.09044 209.005C9.01755 208.033 10.0379 211.84 9.89216 213.055C9.89216 213.055 8.21583 211.192 7.99718 210.22C7.55987 208.033 7.12257 205.36 6.9768 204.874C6.83103 204.388 6.24796 202.039 7.34122 198.961C8.50736 195.883 10.621 191.185 10.1108 188.674C9.67351 186.163 10.9854 180.169 11.277 170.853L21.9909 172.068C21.9909 171.987 21.0434 176.767 20.4604 180.979Z" fill="#994E2E"/>
<path d="M12.0608 204.911C12.0608 204.911 12.3721 210.521 12.3721 211.883C12.4499 213.246 12.8391 214.368 13.3839 215.169C13.9287 215.971 15.7188 218.696 15.7188 218.696C15.7188 218.696 13.773 215.81 13.3061 215.49C12.2165 214.688 12.1386 211.643 12.0608 210.601C11.8273 208.277 12.0608 204.911 12.0608 204.911Z" fill="#854324"/>
<path d="M8.94766 210.587C8.94766 210.587 8.60568 208.748 8.67408 206.574C8.74247 204.401 9.08445 203.565 8.19531 202.478C8.19531 202.478 8.74247 204.401 8.60568 205.571C8.46889 206.741 8.67408 210.085 8.94766 210.587Z" fill="#854324"/>
<path d="M81.2297 70.6099C80.6323 70.2841 79.8857 69.9583 79.2137 69.6325C75.107 67.8406 70.9257 64.9899 67.7897 62.0578C65.1017 59.9401 65.3257 53.2613 65.1764 49.4332C65.3257 47.9671 65.4004 47.0712 65.4004 47.0712C63.683 46.2567 60.099 45.8494 55.5444 46.0123C55.3951 46.0123 55.2457 46.0123 55.0964 46.0123C54.9471 46.0123 54.7977 46.0123 54.6484 46.0123C54.5737 46.0123 54.4991 46.0123 54.4244 46.0123C54.3497 46.0123 54.2751 46.0123 54.2004 46.0123C54.0511 46.0123 53.9017 46.0123 53.7524 46.0123C53.6031 46.0123 53.4537 46.0123 53.3044 46.0123C48.7497 45.9309 45.1657 46.2567 43.4484 47.0712C43.4484 47.0712 43.5231 48.0486 43.6724 49.4332C43.7471 53.5871 43.8217 60.0215 41.1337 62.1392C37.9978 65.0714 34.7871 67.189 30.6804 68.9809C29.9338 69.3067 29.2618 69.6325 28.6644 69.9583C23.5871 72.809 19.4805 74.438 19.4805 78.5104C19.4805 87.4698 34.4884 93.0083 53.2297 93.0083C53.6031 93.0083 53.9764 93.0083 54.4244 93.0083C54.7977 93.0083 55.1711 93.0083 55.6191 93.0083C74.3603 93.0083 88.6963 87.4698 88.6963 78.5104C88.6963 74.5194 86.307 73.4606 81.2297 70.6099Z" fill="#924520"/>
<path d="M69.663 40.6178C68.6504 43.5612 68.4168 44.6545 67.0147 48.2707C65.6126 51.8028 63.5095 53.2324 60.7833 54.4939C58.8359 55.4189 56.7328 55.8394 54.474 55.6712C52.1372 55.8394 50.0341 55.4189 48.0867 54.4939C45.3605 53.2324 43.2574 51.8028 41.8553 48.2707C40.3754 44.7386 40.1417 43.5612 39.207 40.6178C38.3502 38.0108 37.3375 35.1515 37.5712 31.9558C37.5712 31.5353 37.6491 31.0307 37.727 30.6103C37.8049 30.1898 37.8828 29.6852 37.9607 29.2647C38.2723 28.8442 38.5838 28.3396 38.8954 27.835C40.2975 26.2372 40.3754 24.2189 40.2196 22.2005C40.2196 22.1164 40.2196 22.0323 40.2196 21.9482C40.5312 21.78 40.5312 20.7709 40.0638 20.6868C40.0638 20.6027 40.0638 20.5186 40.0638 20.4345C40.0638 20.014 39.9859 19.5935 39.9859 19.173C39.9859 19.0889 39.9859 19.0048 39.9859 18.9207C40.4533 18.6684 40.4533 18.6684 40.1417 17.4911C40.1417 17.407 40.1417 17.407 40.1417 17.3229C40.2196 16.9865 40.2975 16.6501 40.4533 16.3137C40.4533 16.2296 40.5312 16.2296 40.5312 16.1455C39.5185 15.5568 42.4785 15.5568 41.3101 15.0523C41.3101 14.9682 41.388 14.9682 41.388 14.8841C41.6995 14.6318 42.0111 14.3795 42.4006 14.2113C42.79 13.8749 45.2047 12.5293 45.6721 12.2771C46.3731 11.8566 46.8405 11.8566 47.2299 12.0248C47.7752 12.193 48.2425 12.6975 49.4109 12.6975C50.0341 12.6134 50.5793 12.6134 51.2025 12.6975C51.8256 12.6975 52.4487 12.7816 53.0719 12.9498C53.5392 12.9498 53.9287 12.9498 54.3961 12.9498C54.8634 12.9498 55.2529 12.9498 55.7202 13.0339C56.3434 13.0339 56.8886 13.118 57.5118 13.2021C60.238 13.5385 61.2506 12.0248 63.1979 13.0339C63.7432 13.2862 67.3263 13.959 67.6378 14.2954C67.7936 14.4636 67.8715 14.6318 68.0273 14.7159C68.1052 14.8 68.1052 14.8841 68.1052 14.8841C67.1705 15.6409 70.1304 15.6409 68.8841 16.2296C68.8841 16.3137 68.962 16.3978 68.962 16.4819C69.0399 16.7342 69.1178 16.9865 69.1178 17.1547C69.1178 17.2388 69.1178 17.3229 69.1957 17.407C69.1178 17.6593 69.1178 18.6684 69.2736 18.8366C69.2736 18.9207 69.2736 19.0048 69.2736 19.0889V19.3412C69.2736 19.4253 69.2736 19.5094 69.2736 19.5935C69.0399 20.7709 69.0399 20.7709 69.1957 21.2755C69.1957 21.3596 69.1957 21.4436 69.1957 21.5277C69.0399 23.7984 68.8062 26.069 70.3641 28.1714C70.5199 28.5078 70.7535 28.8442 70.9872 29.1806C71.0651 29.6011 71.143 30.1057 71.2209 30.6103C71.2988 31.0307 71.3767 31.4512 71.3767 31.8717C71.5325 35.1515 70.5199 38.0108 69.663 40.6178Z" fill="#994E2E"/>
<path d="M38.3604 30.3265C37.97 29.8568 37.6577 29.7002 37.3454 29.7785C36.7988 29.9351 36.3303 30.4831 36.096 31.3443C35.7837 32.2838 36.7207 33.5364 36.8768 35.1022C37.1111 37.1377 36.6426 38.7035 37.5015 39.7996C38.2824 40.8173 39.2194 41.2871 40.2345 41.0522L40.5468 40.9739L40.0783 38.5469C39.3755 34.0844 38.8289 31.5009 38.4385 30.5614L38.3604 30.3265Z" fill="#924520"/>
<path d="M66.8783 30C65.2296 28.6512 63.5025 28.061 61.7754 28.1453C60.1268 28.2296 58.7922 28.9884 57.8501 30.2529C57.9286 30.2529 57.9286 30.1686 58.0071 30.1686C58.0856 30.1686 58.1641 30.0843 58.1641 30C58.8707 29.5785 59.6557 29.2413 60.5978 29.157C60.2838 29.4942 60.1268 29.9157 60.1268 30.4215C60.1268 30.9273 60.2838 31.3488 60.6763 31.6861C60.9903 32.0233 61.4614 32.1919 61.9324 32.1919C62.4034 32.1919 62.8745 32.0233 63.1885 31.6861C63.5025 31.3488 63.738 30.9273 63.738 30.4215C63.738 29.9157 63.581 29.4942 63.1885 29.157C64.6016 29.2413 65.8577 29.4942 66.8783 30Z" fill="#411E15"/>
<path d="M58.6085 25.6772C58.5369 24.5841 59.1813 24.5841 59.7541 24.493C59.8973 24.493 60.0405 24.4019 60.1837 24.4019C60.3269 24.4019 60.4701 24.3108 60.6133 24.3108C62.6181 23.9464 64.1217 23.8553 65.6969 25.3128C65.8401 25.495 65.9117 25.6772 66.0549 25.8594C66.1265 25.9505 66.1265 26.0416 66.1265 26.1327C66.0549 26.3149 65.9117 26.406 65.7685 26.406C65.6253 26.406 65.5537 26.406 65.2673 26.2238C65.1957 26.1327 65.0525 26.0416 64.9093 26.0416C63.4773 25.7683 62.7613 25.8594 61.4009 25.8594C61.2577 25.8594 61.1861 25.9505 61.0429 25.9505C60.6849 26.0416 60.2553 26.2238 59.8973 26.3149C59.6825 26.3149 59.3245 26.5882 59.1097 26.4971C58.8233 26.406 58.6801 25.9505 58.6085 25.6772Z" fill="#411E15"/>
<path d="M47.1536 28.1453C45.4265 28.061 43.6994 28.6512 42.0508 30C43.0714 29.4942 44.3274 29.2413 45.7405 29.157C45.4265 29.4942 45.191 29.9157 45.191 30.4215C45.191 30.9273 45.348 31.3489 45.7405 31.6861C46.0546 32.0233 46.5256 32.1919 46.9966 32.1919C47.4677 32.1919 47.9387 32.0233 48.2527 31.6861C48.5668 31.3489 48.8023 30.9273 48.8023 30.4215C48.8023 29.9157 48.6453 29.4942 48.3312 29.157C49.2733 29.3256 50.1369 29.5785 50.7649 30C50.8434 30 50.9219 30.0843 50.9219 30.1686C51.0004 30.1686 51.0004 30.2529 51.0789 30.2529C50.1369 28.9884 48.8023 28.3139 47.1536 28.1453Z" fill="#411E15"/>
<path d="M50.3212 25.6772C50.3928 24.5841 49.7484 24.5841 49.1756 24.493C49.0324 24.493 48.8892 24.4019 48.746 24.4019C48.6028 24.4019 48.4596 24.3108 48.3164 24.3108C46.3116 23.9464 44.808 23.8553 43.2328 25.3128C43.0896 25.495 43.018 25.6772 42.8748 25.8594C42.8032 25.9505 42.8032 26.0416 42.8032 26.1327C42.8748 26.3149 43.018 26.406 43.1612 26.406C43.3044 26.406 43.376 26.406 43.6624 26.2238C43.734 26.1327 43.8772 26.0416 44.0204 26.0416C45.4524 25.7683 46.1684 25.8594 47.5288 25.8594C47.672 25.8594 47.7436 25.9505 47.8868 25.9505C48.2448 26.0416 48.6744 26.2238 49.0324 26.3149C49.2472 26.3149 49.6052 26.5882 49.82 26.4971C50.1064 26.406 50.2496 25.9505 50.3212 25.6772Z" fill="#411E15"/>
<path d="M57.0977 39.352C57.0977 39.352 57.9523 39.7502 58.3408 39.1927C58.9624 38.3167 58.3408 36.6444 57.8746 36.2462C59.4286 39.6705 57.0977 39.352 57.0977 39.352Z" fill="#502110"/>
<path d="M56.3042 38.7803C56.1058 38.679 55.9073 38.679 55.7089 38.679C55.5105 38.679 55.3121 38.679 55.1136 38.7803C55.0144 38.7803 54.9152 38.8817 54.9152 38.8817C54.816 38.983 54.816 39.0844 54.9152 39.0844L55.0144 39.1858C55.2129 39.2871 55.4113 39.0844 55.7089 39.0844C56.205 38.983 57.0979 39.4898 57.0979 39.4898C57.0979 39.4898 56.8002 38.983 56.3042 38.7803Z" fill="#502110"/>
<path d="M51.8309 39.352C51.8309 39.352 50.9762 39.7502 50.5877 39.1927C49.9661 38.3167 50.5877 36.6444 51.0539 36.2462C49.4999 39.6705 51.8309 39.352 51.8309 39.352Z" fill="#502110"/>
<path d="M52.6252 38.7803C52.8237 38.679 53.0221 38.679 53.2205 38.679C53.4189 38.679 53.6173 38.679 53.8158 38.7803C53.915 38.7803 54.0142 38.8817 54.0142 38.8817C54.1134 38.983 54.1134 39.0844 54.0142 39.0844L53.915 39.1858C53.7165 39.2871 53.5181 39.0844 53.2205 39.0844C52.7244 38.983 51.8315 39.4898 51.8315 39.4898C51.8315 39.4898 52.03 38.983 52.6252 38.7803Z" fill="#502110"/>
<path d="M59.592 44.3551C59.1462 44.4452 57.1401 44.265 56.7686 44.0848C56.2485 43.8145 56.2485 43.7244 55.5055 43.8145C55.4312 43.8145 55.0597 43.5442 54.6882 43.5442C54.3168 43.5442 53.6481 43.7244 53.5738 43.7244C52.8308 43.6343 52.6079 43.7244 52.1621 43.9947C51.7906 44.1749 49.7102 44.3551 49.3387 44.265C48.2985 43.9947 49.1158 44.6254 49.3387 44.7155C49.9331 45.166 51.4191 46.4273 51.8649 46.7877C52.3107 47.1481 52.6822 47.4184 53.4252 47.5986C53.4995 47.5986 53.5738 47.5986 53.7224 47.5986C54.0196 47.5085 54.3167 47.3283 54.4653 47.1481C54.6882 47.3283 54.9111 47.5085 55.2083 47.5986C55.3569 47.5986 55.4312 47.5986 55.5055 47.5986C56.1742 47.3283 56.62 47.058 57.0658 46.7877C57.5116 46.5174 58.9976 45.166 59.592 44.7155C59.8149 44.8056 60.6322 44.0848 59.592 44.3551Z" fill="#773017"/>
<path d="M70.5697 30.3265C70.882 29.8568 71.2724 29.7002 71.5847 29.7785C72.2094 29.9351 72.5998 30.4831 72.8341 31.3443C73.1464 32.2838 72.2094 33.5364 72.0533 35.1022C71.819 37.1377 72.2875 38.7035 71.4286 39.7996C70.6477 40.8173 69.7107 41.2871 68.6956 41.0522L68.3833 40.9739L68.8518 38.5469C69.5546 34.0844 70.1011 31.5009 70.4916 30.5614L70.5697 30.3265Z" fill="#924520"/>
<path d="M58.4003 44.4415C57.8806 44.271 55.7275 42.6514 55.0593 42.7366C54.9851 42.7366 54.6881 42.7366 54.3911 42.7366C54.0199 42.7366 53.7971 42.7366 53.7229 42.7366C52.9805 42.6514 50.9016 44.271 50.3819 44.4415C49.6394 44.6972 48.8228 44.953 48.8228 44.953C49.8622 45.2939 51.2728 44.8677 52.0153 45.1234C52.0895 45.1234 53.8714 45.2939 54.4653 44.953C55.0593 45.2939 56.9154 45.1234 56.9154 45.1234C57.5836 44.953 59.0685 45.2939 60.1079 44.953C59.9595 44.953 59.1428 44.612 58.4003 44.4415Z" fill="#6A2910"/>
<path d="M73.4237 20.1187C73.2728 19.3035 73.1974 18.7329 73.1974 17.9992C73.2728 17.1841 72.9711 16.4504 72.8957 15.7168C72.8957 15.3907 72.5185 14.1679 72.1414 13.8418C72.0659 13.1897 71.6133 11.3963 71.1607 11.1518C70.9344 10.9887 70.6327 10.6627 70.4818 10.3366C70.4064 10.092 68.9732 8.13561 68.3697 7.56499C67.6908 6.99436 66.7856 6.50526 66.5593 6.34222C66.333 6.17919 65.4278 5.36401 65.277 5.20098C64.8998 4.79339 63.3912 4.30428 61.958 3.97821C61.8071 3.97821 61.7317 3.89669 61.6562 3.81518C61.5808 3.73366 61.5054 3.65214 61.4299 3.57062C60.9773 3.08152 58.4126 3.16304 58.1109 3.16304C57.8846 3.16304 57.1303 3.08152 56.904 3C56.3759 3 55.3953 3 54.7164 3.16304C53.9621 3 53.0569 3 52.5289 3C52.3026 3 51.5483 3.16304 51.322 3.16304C51.0202 3.16304 48.4555 3.08152 48.0029 3.57062C47.9275 3.65214 47.8521 3.73366 47.7766 3.81518C47.7012 3.89669 47.5503 3.89669 47.4749 3.97821C46.0417 4.30428 44.533 4.87491 44.1559 5.20098C44.005 5.36401 43.0244 6.17919 42.8735 6.34222C42.7226 6.50526 41.6666 6.99436 41.0631 7.56499C40.3842 8.13561 39.0264 10.092 38.951 10.3366C38.8001 10.6627 38.5739 10.9887 38.3476 11.1518C37.895 11.3963 37.4424 13.2712 37.3669 13.8418C36.9898 14.2494 36.688 15.4722 36.6126 15.7168C36.5372 16.5319 36.3109 17.2656 36.3109 17.9992C36.3863 18.8144 36.3109 19.385 36.0846 20.1187C35.9337 20.6078 36.16 22.7273 36.16 22.9718C36.2354 23.5424 36.2354 25.3358 36.5372 26.7216C36.688 27.2923 36.9143 28.0259 37.2915 28.4335C37.5178 28.7596 37.4424 29.0041 37.4424 29.4117C37.4424 29.6563 37.8195 30.3084 37.8195 30.6345C37.7441 30.879 38.1967 31.5312 38.8001 32.2648C38.8001 31.8572 38.8756 31.4497 38.951 30.9605C39.0264 31.0421 39.0264 31.0421 39.1019 31.1236C39.7053 32.4279 39.7808 33.8137 40.2334 33.8137C40.2334 33.7321 40.9123 33.3246 40.9123 32.1018C40.5351 30.9605 40.3842 29.4117 40.0825 28.2705C40.0825 28.2705 40.0825 28.2705 40.0825 28.1889C41.4403 26.6401 41.5157 24.7652 41.3649 22.8903C41.3649 22.8088 41.3649 22.7273 41.3649 22.6457C41.6666 22.4827 41.6666 21.5045 41.214 21.423C41.214 21.3415 41.214 21.26 41.214 21.1784C41.214 20.7708 41.1386 20.3633 41.1386 19.9557C41.1386 19.8742 41.1386 19.7926 41.1386 19.7111C41.5912 19.4666 41.5912 19.4666 41.2894 18.3253C41.2894 18.2438 41.2894 18.2438 41.2894 18.1623C41.3649 17.8362 41.4403 17.5101 41.5912 17.1841C41.5912 17.1025 41.6666 17.1025 41.6666 17.021C40.686 16.4504 43.477 16.4504 42.4209 15.9613C42.4209 15.8798 42.4963 15.8798 42.4963 15.7983C42.7981 15.5537 43.0998 15.3092 43.477 15.1461C43.6278 14.9831 44.3067 14.5755 44.9856 14.2494C45.4382 14.4125 45.8908 14.5755 46.4188 14.7385C46.5697 14.7385 46.6451 14.8201 46.796 14.8201C48.3801 14.5755 49.2098 14.5755 50.1905 15.1461C50.3413 15.1461 50.4922 15.1461 50.5676 15.1461C50.7185 15.1461 50.7939 15.1461 50.9448 15.1461C52.0763 15.5537 53.8867 15.5537 54.7164 15.0646C54.8673 15.0646 55.0182 15.0646 55.169 15.0646C55.5462 15.0646 55.8479 15.0646 56.1496 15.0646C56.3005 15.0646 56.4514 15.0646 56.6777 15.0646C57.6583 15.3907 58.5635 15.3907 59.8458 14.9831C59.9967 14.9831 60.1476 14.9831 60.2984 14.9831C60.4493 14.9831 60.5247 14.9831 60.6756 14.9831C61.4299 14.5755 63.2403 14.5755 64.2964 14.657C64.3718 14.657 64.5227 14.5755 64.5981 14.5755C64.6735 14.5755 64.749 14.494 64.8998 14.494C66.0313 14.7385 67.2382 15.0646 67.4645 15.2276C67.6154 15.3907 67.6908 15.5537 67.8417 15.6352C67.9171 15.7168 67.9171 15.7983 67.9171 15.7983C67.0119 16.5319 69.8029 16.5319 68.6714 17.1026C68.6714 17.1841 68.7469 17.2656 68.7469 17.3471C68.8223 17.5917 68.8977 17.8362 68.8977 17.9992C68.8977 18.0808 68.8977 18.1623 68.9732 18.2438C68.8977 18.4883 68.8977 19.4666 69.0486 19.6296C69.0486 19.7111 69.0486 19.7926 69.0486 19.8741V20.1187C69.0486 20.2002 69.0486 20.2817 69.0486 20.3633C68.8223 21.5045 68.8223 21.5045 68.9732 21.9936C68.9732 22.0751 68.9732 22.1566 68.9732 22.2382C68.8223 24.1946 68.6715 26.2325 69.8784 28.0259C69.5766 29.1672 69.4258 30.7975 68.9732 32.0203C68.9732 33.243 69.6521 33.6506 69.6521 33.7321C70.1047 33.7321 70.1801 32.2648 70.7836 31.0421C70.859 30.9605 70.9344 30.879 71.0099 30.7975C71.0853 31.2051 71.1607 31.6127 71.1607 32.0203C71.6888 31.3681 72.0659 30.7975 71.9905 30.553C71.9151 30.3084 72.3676 29.6563 72.3676 29.3302C72.3676 28.9226 72.2168 28.6781 72.5185 28.352C72.8957 27.9444 73.122 27.2107 73.2728 26.6401C73.5746 25.2543 73.4991 23.4609 73.65 22.8903C73.4237 22.7273 73.5746 20.6078 73.4237 20.1187Z" fill="#502110"/>
<path d="M42.0508 11.1089C42.3329 10.7188 42.615 10.5627 43.0853 10.4067C43.5555 10.2507 43.6495 10.2507 44.3078 10.4847C44.3078 10.4847 43.6495 10.4067 42.9912 10.7188C42.521 10.8748 42.0508 11.1089 42.0508 11.1089Z" fill="#803D1B"/>
<path d="M37.5371 20.8394C37.5371 20.2988 37.7141 20.0285 37.9797 19.6681C38.3337 19.3077 38.4222 19.3077 39.0418 19.2177C39.0418 19.2177 38.4222 19.4879 38.0682 20.0285C37.8026 20.2988 37.5371 20.8394 37.5371 20.8394Z" fill="#803D1B"/>
<path d="M66.8784 11.1089C67.3159 11.3684 67.4909 11.563 67.5784 11.8873C67.6659 12.2117 67.6659 12.2766 67.4034 12.7307C67.4034 12.7307 67.5784 12.2766 67.3159 11.8225C67.1409 11.4332 66.8784 11.1089 66.8784 11.1089Z" fill="#803D1B"/>
<path d="M61.6123 14.1497C61.9467 13.5415 62.1139 13.5415 62.4482 13.5415C62.7826 13.5415 62.7826 13.5415 63.117 14.3524C63.117 14.3524 62.7826 13.9469 62.2811 13.9469C61.9467 13.7442 61.6123 14.1497 61.6123 14.1497Z" fill="#803D1B"/>
<path d="M69.1357 12.7306C69.7 13.1122 69.8881 13.303 69.8881 13.5892C69.8881 13.9708 69.8881 13.9708 69.3238 14.3524C69.3238 14.3524 69.7 13.9708 69.5119 13.3984C69.5119 13.1122 69.1357 12.7306 69.1357 12.7306Z" fill="#803D1B"/>
<path d="M38.7685 37.6324C38.4949 37.5538 38.4037 37.3181 38.3126 37.0038C38.3126 36.6896 38.2214 36.4539 38.4949 36.2967C38.4949 36.2967 39.0421 35.2753 39.0421 35.1182C39.0421 34.8039 39.0421 34.4897 38.9509 34.1754C38.8597 33.704 38.6773 33.154 38.3126 32.7612C37.8566 32.2898 37.127 32.1326 36.4887 32.2112C36.3063 32.2112 36.2151 32.2898 36.0327 32.2898C36.0327 32.2898 36.8535 32.2898 38.039 33.2326C38.4037 33.5468 38.5861 34.0183 38.6773 34.4897C38.7685 34.7254 38.1302 36.061 38.039 36.1396C37.8566 36.3753 37.8566 36.6896 37.8566 36.7681C37.9478 37.7895 38.4037 37.8681 38.5861 37.8681H38.6773L39.0421 37.7895L38.7685 37.6324Z" fill="#502313"/>
<path d="M70.1608 37.6324C70.366 37.5538 70.4344 37.3181 70.4344 37.0038C70.4344 36.6896 70.5028 36.4539 70.2976 36.2967C70.2976 36.2967 69.8872 35.2753 69.8872 35.1182C69.8872 34.8039 69.8872 34.4897 69.9556 34.1754C70.024 33.704 70.1608 33.154 70.4344 32.7612C70.7763 32.2898 71.3235 32.1326 71.8023 32.2112C71.9391 32.2112 72.0074 32.2898 72.1442 32.2898C72.1442 32.2898 71.5287 32.2898 70.6395 33.2326C70.366 33.5468 70.2292 34.0183 70.1608 34.4897C70.0924 34.7254 70.5712 36.061 70.6395 36.1396C70.7763 36.3753 70.7763 36.6896 70.7763 36.7681C70.7079 37.7895 70.366 37.8681 70.2292 37.8681H70.1608L69.8872 37.7895L70.1608 37.6324Z" fill="#502313"/>
<path d="M97.8425 174.089C97.9163 167.952 98.4326 160.014 99.3914 153.14C99.9815 148.885 99.9815 146.348 99.9815 146.348C99.9815 146.348 99.0226 139.147 99.3177 136.774C99.4652 135.137 98.8014 131.373 98.8014 129.082C98.8014 128.427 98.8014 127.527 98.8014 126.463C98.8014 126.381 98.8014 126.217 98.8014 126.136C98.8014 124.499 98.8014 122.617 98.8014 120.898V119.671C98.8014 117.298 98.8014 115.497 98.8014 115.497C98.8014 115.252 98.7276 115.006 98.7276 114.761C98.5801 107.969 98.0638 100.113 96.7361 94.63L78.5913 101.504C78.4438 101.504 78.2962 101.504 78.1487 101.668L77.4111 101.913C77.5587 102.813 77.6324 103.55 77.7799 104.204C77.9274 107.396 78.7388 115.579 80.509 121.471C80.509 121.553 80.5828 121.635 80.5828 121.798C80.7303 122.289 80.8778 122.862 81.0991 123.353C81.2466 123.681 81.3204 124.008 81.3941 124.253C81.7629 125.317 81.9842 126.217 82.058 126.872C82.2055 127.609 82.2055 128.1 82.2055 128.509C82.2055 128.509 82.2055 128.509 82.2055 128.591C82.2055 128.918 82.2055 129.163 82.2055 129.245C82.5743 131.782 82.2793 136.365 82.2793 136.365C82.058 137.674 82.058 139.638 82.2055 142.093C82.5743 148.23 83.902 157.314 85.2296 165.415C85.8197 169.098 86.4835 172.616 86.9999 175.562C87.885 180.472 88.5488 183.827 88.5488 183.827L88.9176 183.746L97.99 182.682C97.8425 180.963 97.7687 177.854 97.8425 174.089Z" fill="#994E2E"/>
<path d="M92.0108 205.721C92.0108 205.721 92.0108 206.366 91.9355 207.333C91.4834 212.571 92.2368 214.747 89.4492 218.696C93.0656 216.762 94.3464 212.652 92.0862 206.769C92.0108 206.124 92.0108 205.721 92.0108 205.721Z" fill="#854324"/>
<path d="M88.5087 180.979C88.894 183.733 88.894 186.973 87.6609 189.97C85.1948 196.126 88.3545 202.606 88.3545 206.332C88.3545 207.547 86.9674 210.22 86.9674 211.516C87.1215 212.893 87.8921 213.379 87.8921 213.379C87.8151 214.189 88.0463 212.974 87.8921 213.379C87.4297 214.756 87.5068 216.214 87.2756 217.024C87.0444 217.834 85.426 221.155 87.4298 221.722C87.4298 221.722 88.6628 222.451 89.2793 221.236C89.2793 221.236 90.5895 219.778 90.6665 219.292C90.7436 218.806 91.4372 216.133 91.6684 215.566C91.8996 214.999 92.7473 213.298 92.7473 211.84C92.7473 211.597 92.8244 211.03 92.8244 211.03C93.1326 210.625 93.1326 210.625 93.0556 210.868C92.8244 211.516 92.9785 213.541 92.5932 214.27C91.9766 215.242 90.8977 216.133 90.2812 218.077C89.8188 219.454 89.1252 220.102 89.0481 220.507C88.894 221.317 89.8959 221.398 89.8959 221.398C89.8959 221.398 90.2041 221.479 91.206 220.912C92.439 220.183 91.8996 220.426 93.0556 219.373C93.0556 219.373 94.8281 216.781 95.3675 216.052C95.907 215.323 96.4465 214.27 96.6006 212.974C96.8318 211.678 97.4483 208.924 96.6006 210.625C96.1382 211.435 96.9859 212.974 95.907 213.622C95.4446 213.946 93.4409 218.563 93.4409 218.563C94.5969 217.915 93.595 218.401 94.5969 218.077C94.5969 218.077 96.2923 217.753 97.6025 216.376C97.6025 216.376 99.7603 214.351 99.6062 213.055C99.6062 213.055 100.3 210.949 100.454 209.005C100.531 208.033 99.375 211.84 99.6062 213.055C99.6062 213.055 101.379 211.192 101.61 210.22C102.072 208.033 102.535 205.36 102.689 204.874C102.843 204.388 103.459 202.039 102.303 198.961C101.07 195.883 98.8355 191.185 99.375 188.674C99.9144 186.163 98.4502 180.169 98.1419 170.853L86.8132 172.068C86.8903 171.987 87.8921 176.767 88.5087 180.979Z" fill="#994E2E"/>
<path d="M96.9164 204.911C96.9164 204.911 96.6651 210.521 96.6651 211.883C96.6022 213.246 96.288 214.368 95.8481 215.169C95.4082 215.971 93.9629 218.696 93.9629 218.696C93.9629 218.696 95.5339 215.81 95.911 215.49C96.7907 214.688 96.8536 211.643 96.9164 210.601C97.0421 208.277 96.9164 204.911 96.9164 204.911Z" fill="#854324"/>
<path d="M99.9814 210.587C99.9814 210.587 100.323 208.748 100.255 206.574C100.187 204.401 99.8446 203.565 100.734 202.478C100.734 202.478 100.187 204.401 100.323 205.571C100.529 206.825 100.187 210.085 99.9814 210.587Z" fill="#854324"/>
<path d="M61.645 344.414C61.8712 345.71 62.3988 349.436 63.2278 355.754C64.1323 362.072 63.68 365.474 63.68 365.96C63.7554 366.851 63.7554 367.985 63.5293 369.2C63.4539 369.848 63.3032 370.253 63.2278 370.577C63.0771 371.306 63.0017 372.035 63.0771 372.764L84.9346 372.035C84.1809 371.549 83.3518 371.063 82.5227 370.496C81.9951 370.091 81.4675 369.443 80.8645 368.714C79.734 367.175 78.9049 365.474 78.5281 363.773C78.3019 362.639 77.2468 353.081 77.5482 349.598C78.6034 337.528 78.9803 325.54 78.7542 313.714C78.3019 303.508 74.8349 305.452 74.9856 302.941L66.2427 297.757L62.248 297.352C62.4741 298.729 57.0474 304.723 57.9519 314.848C58.8563 324.487 60.0623 334.288 61.645 344.414Z" fill="#994E2E"/>
<path d="M46.7522 346.803C48.4723 336.687 49.8934 326.895 50.9404 317.345C51.9875 307.23 46.7522 301.16 46.9765 299.784L43.0127 300.108L34.2622 305.126C34.337 307.634 30.8967 305.611 30.2984 315.808C29.8496 327.623 30.074 339.6 30.8967 351.658C31.121 355.138 29.9244 364.768 29.7 365.82C29.4009 367.034 28.9521 368.248 28.2042 369.381C28.1294 369.462 28.0547 369.543 27.9051 369.624C27.9051 369.624 26.0353 371.404 24.016 373.508C23.7916 373.67 23.4925 373.832 23.2681 373.994H23.5673C21.8471 375.693 20.1269 377.474 19.0051 378.607C16.4622 381.277 5.54284 382.491 4.86973 384.272C2.70082 390.341 8.98318 393.416 15.7143 391.798C22.4454 390.179 30.9715 385.243 33.5143 385.243C36.0572 385.243 45.3312 386.78 46.6026 382.896C47.7992 379.416 45.7799 372.052 44.4337 370.676C44.3589 369.705 44.3589 368.896 44.4337 368.167C44.5085 367.682 44.0597 364.283 45.032 357.97C45.9295 351.82 46.5278 348.097 46.7522 346.803Z" fill="#994E2E"/>
<path d="M47.0503 379.997C47.0503 380.077 46.9753 380.157 46.9753 380.238C45.5513 384.481 36.2574 383.36 33.6341 383.52C31.0108 383.68 22.4664 390.006 15.5709 392.327C10.3243 394.089 5.1527 392.488 3.95349 388.404C3.57873 387.203 3.57873 385.762 4.02844 384.081C4.62805 381.919 15.7957 379.837 18.2691 376.554C20.7425 373.192 27.1133 365.505 27.1133 365.505C31.0857 360.621 31.2356 367.827 33.4092 370.229C35.5828 372.711 42.4033 365.345 43.6775 365.505C45.1016 365.585 48.2495 375.434 47.0503 379.997Z" fill="#994E2E"/>
<path d="M47.3172 379.038C47.1652 381.372 46.8612 384.29 46.0253 384.707C44.5814 385.457 31.3583 385.29 23.2268 390.793C15.1713 396.212 5.74793 394.878 4.07603 391.46C3.62006 390.459 3.62006 388.959 3.77205 387.458C4.98798 391.793 10.2316 393.377 15.5513 391.543C22.4668 389.125 31.1303 382.539 33.8661 382.373C36.4499 382.289 45.7973 383.54 47.3172 379.038Z" fill="#783218"/>
<path d="M19.4805 374.71C19.4805 374.71 21.3362 374.71 22.4327 377.629C22.4327 377.629 23.0231 374.143 20.4083 373.575L19.4805 374.71Z" fill="#783218"/>
<path d="M23.2427 369.926C23.2427 369.926 25.9376 370.581 26.2456 373.575C26.2456 373.575 26.4766 369.365 24.1667 368.71L23.2427 369.926Z" fill="#783218"/>
<path d="M21.7373 372.156C21.7373 372.156 24.4323 372.702 24.7403 375.197C24.7403 375.197 24.9713 371.688 22.6613 371.142L21.7373 372.156Z" fill="#783218"/>
<path d="M103.137 392.493C100.728 394.886 93.1991 397.197 84.1649 391.172C75.9588 385.725 62.558 385.725 61.1276 384.983C59.8477 384.24 59.7725 377.803 59.7725 376.565C59.7725 377.473 59.8477 378.298 59.9983 379.041C61.2029 383.745 70.7641 382.507 73.4744 382.672C76.1094 382.837 84.6919 389.357 91.5428 391.75C98.0174 393.978 104.266 391.09 103.438 384.57C103.89 386.798 104.567 391.172 103.137 392.493Z" fill="#783218"/>
<path d="M91.8483 393.109C85.0037 390.813 76.4291 384.253 73.7966 384.089C71.1641 383.925 61.5365 385.155 60.3331 380.481C60.1826 379.743 60.1074 378.923 60.1074 378.021V377.857C60.1826 372.773 62.5143 365.721 63.6425 365.557C64.9964 365.393 71.7658 372.937 73.947 370.395C76.2035 367.853 76.2787 360.555 80.2651 365.557C80.2651 365.557 86.5832 373.511 89.1405 376.873C91.6226 380.317 102.905 382.449 103.431 384.581C103.582 384.991 103.657 385.483 103.657 385.893C104.56 392.453 98.2416 395.323 91.8483 393.109Z" fill="#994E2E"/>
<path d="M88.6965 376.9C88.6965 376.9 86.5832 376.494 86.4512 380.062C86.4512 380.062 86.187 376.575 88.1682 376.008L88.6965 376.9Z" fill="#783218"/>
<path d="M84.1818 371.467C84.1818 371.467 82.0003 370.899 81.9362 374.386C81.9362 374.386 81.6795 370.899 83.6044 370.331L84.1818 371.467Z" fill="#783218"/>
<path d="M86.4396 373.899C86.4396 373.899 83.5309 373.332 83.4453 376.818C83.4453 376.818 83.1031 373.332 85.6696 372.764L86.4396 373.899Z" fill="#783218"/>
<path d="M89.4563 237.736C88.9261 234.098 92.4101 231.268 91.577 229.247C90.8953 227.064 90.3652 224.881 89.9865 222.779C86.6539 212.269 91.577 193.997 85.5936 192.542C81.8066 191.571 77.4137 191.895 72.8693 192.622C71.3545 192.865 69.8397 193.107 68.2491 193.35C60.5237 195.371 52.268 193.027 45.2999 192.38C43.9366 192.299 42.4976 192.299 41.1343 192.542C39.3165 192.784 37.4987 193.431 35.9082 194.239C34.6206 193.916 33.333 193.512 31.9697 193.107C28.41 192.056 23.4869 194.563 19.7756 193.673C19.9271 207.499 16.3673 214.532 18.9425 229.732C19.6241 229.894 18.791 235.553 17.5792 236.928C17.2005 239.677 17.1247 238.302 17.3519 241.455C17.3519 241.779 17.4277 242.102 17.4277 242.345C19.0939 246.225 19.1697 251.157 19.4726 255.361C19.4726 255.846 19.5484 256.332 19.6241 256.817C19.7756 257.787 19.8513 258.757 19.9271 259.808C19.9271 260.293 20.0028 260.778 20.0028 261.344C20.0786 261.829 20.23 262.314 20.3058 262.719C23.1082 267.893 21.3661 272.825 20.3058 278.323C20.3058 278.727 20.3058 279.131 20.3058 279.535C19.6241 287.62 20.0028 298.777 21.7448 306.862C21.7448 307.752 21.7448 308.56 21.6691 309.449C21.4419 314.624 23.1082 328.045 21.8206 333.057C21.7448 333.866 21.6691 334.755 21.5934 335.564C21.4419 338.07 21.5176 340.576 21.9721 343.083C22.0478 343.649 22.1993 344.134 22.275 344.7C22.275 344.7 22.1993 345.104 22.1235 345.751C22.1235 346.074 22.0478 346.478 21.9721 346.963C21.4419 348.58 21.2147 350.036 21.2147 351.491C21.2147 351.976 21.2147 352.461 21.2904 352.946C22.5022 357.231 22.578 362.163 22.3508 365.721C22.578 366.286 22.6537 366.852 22.8052 367.337C23.1839 368.308 24.0928 368.874 27.4253 368.954C33.4845 369.035 38.1804 369.44 41.2857 369.52C41.8159 369.52 42.5733 369.44 43.4064 369.197C43.7851 369.116 44.2396 368.954 44.694 368.874C51.2077 368.631 53.0254 364.669 50.1473 358.848C50.0716 358.363 50.0716 357.878 50.0716 357.393C50.1473 355.938 50.4503 354.563 51.2077 353.189C51.2834 352.704 51.3591 352.219 51.4349 351.653C51.8136 349.066 52.0408 346.236 51.4349 343.73C50.526 339.768 52.4195 337.1 50.9047 331.44C49.4656 325.781 49.6171 311.632 50.0716 307.59C50.2988 305.569 49.5414 300.799 50.0716 298.616C50.6017 296.433 51.1319 294.007 51.3591 290.935C52.3438 282.931 52.6467 259.808 53.7828 248.893C55.1461 266.438 54.1615 299.101 56.5852 308.964C57.0396 311.147 57.4941 313.088 57.6455 315.109C57.9485 319.151 58.1 324.568 56.4337 330.228C54.7674 335.887 56.5852 338.636 55.6006 342.517C54.6159 346.398 55.4491 351.491 56.1307 354.563C56.7367 357.636 54.7674 360.95 54.9189 364.265C55.1461 367.903 62.0385 368.469 65.2195 368.55C68.3249 368.631 73.0965 368.308 79.0799 368.389C80.5947 368.389 81.5793 368.308 82.261 368.065C82.9427 367.823 83.3214 367.58 83.5486 367.176C87.1841 357.07 82.9427 345.993 84.9119 336.13C84.9876 335.402 85.0634 334.594 85.1391 333.866C85.2906 332.33 85.4421 330.794 85.5936 329.177C85.5178 328.368 85.3663 327.56 85.1391 326.751C84.9876 325.943 84.7604 325.134 84.4575 324.326C84.306 323.517 84.2302 322.79 84.0788 321.981C83.9273 321.173 83.8515 320.364 83.7758 319.556C83.7001 318.666 83.6243 317.777 83.6243 316.807C82.8669 310.986 85.5936 293.36 86.8054 288.429C86.9569 287.701 87.1084 286.973 87.2598 286.327C87.1841 285.356 87.1084 284.305 86.9569 283.335C86.8811 282.85 86.8811 282.365 86.8054 281.88C86.5782 277.433 84.003 272.34 86.5782 267.327C86.6539 266.842 86.7297 266.357 86.8811 265.953C87.1084 265.063 87.3356 264.093 87.7143 263.204C87.7143 262.314 87.79 261.425 87.79 260.536C88.093 254.391 85.8208 251.723 89.3048 246.549C91.88 241.455 90.7439 238.383 89.4563 237.736Z" fill="#502110"/>
<path d="M101.937 120.125L97.2616 86.2101L96.8846 83.3703C96.2059 78.3399 92.8878 74.283 88.3632 72.7414L84.819 71.6055L74.7894 67.5487L72.678 66.0882C72.678 66.0071 72.7534 66.0071 72.7534 66.0071L70.2648 64.3032C68.6812 66.7373 63.1009 75.9058 53.7501 75.9058C44.3992 75.9058 40.7795 66.2505 39.1959 63.8164L36.5566 65.5203C36.5566 65.5203 36.5566 65.6826 36.7074 65.926L36.5566 65.8448L36.4812 65.7637L31.5795 68.4412L30.5238 69.0091L26.8287 70.3885L25.9992 70.713C25.9238 70.713 25.8484 70.7942 25.773 70.7942H25.6975C25.1697 70.9564 21.3992 72.2546 20.6451 72.498H20.5697C20.5697 72.498 20.5697 72.498 20.4943 72.498C20.4943 72.498 20.4943 72.498 20.4188 72.498H20.3434C20.268 72.498 20.1926 72.5792 20.1172 72.5792C11.8975 75.8246 11.8221 83.1269 11.8221 83.1269L6.09096 120.044H6.39259H6.09096L5.18604 126.373L22.0779 128.401C22.2287 134.324 22.5303 140.247 22.6811 146.332C22.6811 147.874 22.6057 149.497 22.6057 151.038C22.5303 152.661 22.4549 154.284 22.3041 155.906C21.927 161.424 21.3238 166.86 20.7959 172.296C20.4943 174.892 20.268 177.489 20.1172 180.085C20.0418 181.302 19.9664 182.519 19.891 183.736C19.891 183.98 19.891 184.142 19.891 184.385C19.8156 185.846 19.7402 187.225 19.6647 188.686C19.5893 190.471 19.5139 191.931 19.5139 193.229C19.4385 195.745 19.3631 197.124 19.3631 197.124L19.9664 197.205L22.0779 197.448L51.0353 200.856H57.973L86.9304 197.448L88.4386 197.286L89.6452 197.124C89.6452 197.124 89.4944 193.067 89.2681 186.576C89.2681 185.684 89.1927 184.71 89.1927 183.655C89.1927 182.844 89.1173 182.114 89.1173 181.221C88.8911 179.598 88.7403 177.976 88.5895 176.353C88.5895 176.028 88.514 175.704 88.514 175.379C88.4386 174.324 88.2878 173.189 88.2124 172.134C88.2124 171.971 88.2124 171.728 88.137 171.566V171.485C87.9862 170.998 87.9108 170.43 87.7599 169.943C85.6485 159.558 86.1009 149.01 86.5534 138.543C86.5534 138.543 86.5534 138.462 86.5534 138.381V138.3C86.5534 137.975 86.5534 137.57 86.6288 137.245C86.7042 135.866 86.7796 134.486 86.855 133.107V133.026C86.9304 131.484 87.0058 129.862 87.0058 128.32L102.239 126.535V120.125H101.937Z" fill="#7E1620"/>
<path d="M32.6471 88.9128L27.7568 89.4055V94.9894H33.1658V100.491H37.9078V105.172H48.3552V99.5878H53.5418V94.4967H57.0983V88.9128H53.5418V84.3144H48.5774V79.2233H37.9078V84.3144H32.6471V88.9128Z" fill="#660D1A"/>
<path d="M36.785 69.0029V74.4623H33.1396V79.4401H27.8233V84.8995H17.1149V80.3232H12.71C13.0897 79.2795 13.5454 78.0752 14.077 77.1118C15.5959 74.5426 19.2414 73.0975 20.3046 72.7763C20.3806 72.7763 20.4565 72.6961 20.5325 72.6961H20.6084C20.6084 72.6961 20.6084 72.6961 20.6844 72.6961C20.6844 72.6961 20.6844 72.6961 20.7603 72.6961H20.8362C21.5198 72.4552 22.2792 72.2946 23.0387 72.0538C24.3298 71.6523 25.0893 71.3312 26.0006 71.0101C26.0006 71.0101 26.0006 71.0101 26.0766 71.0101C26.1525 71.0101 26.2285 70.9298 26.3044 70.9298L27.2158 70.6086C27.5196 70.5283 27.8993 70.3678 28.279 70.2875H28.355C28.5828 70.2072 28.8866 70.1269 29.1144 70.0466C29.722 69.8058 30.2536 69.4846 30.9371 69.2438C31.165 69.1635 31.5447 68.9226 31.8485 68.762C31.9245 68.762 31.9245 68.6818 32.0004 68.6818H32.3801L36.785 69.0029Z" fill="#660D1A"/>
<path d="M52.4358 103.55V108.482H47.1296V112.937L42.0508 113.414V118.823H47.5844V124.153H52.4358V128.687H63.124V123.278H68.5061V118.346H72.1446V112.937H68.5061V108.482H63.3515V103.55H52.4358Z" fill="#660D1A"/>
<path d="M70.3852 122.2V127.132H65.0588V131.587L60.1074 132.064V137.474H65.5839V142.803H70.3852V147.338H80.963V141.928H85.8394C85.9894 140.656 86.1394 139.462 86.2145 138.19V136.996H86.2895C86.4395 135.167 86.4395 133.417 86.4395 131.587H86.1394V127.132H81.1131V122.2H70.3852V122.2Z" fill="#660D1A"/>
<path d="M44.3159 148.96V143.376H49.698V138.285H53.3365V132.701H49.698V128.102H44.5434V123.011H33.6277V128.102H28.3215V132.701L23.2427 133.193V138.777H28.7763V144.279H33.6277V148.96H44.3159Z" fill="#660D1A"/>
<path d="M61.8448 168.421V162.837H67.0922V157.746H70.6398V152.162H67.0922V147.564H62.0665V142.472H51.4237V147.564H46.1763V152.162L41.2983 152.655V158.239H46.6936V163.74H51.4237V168.421H61.8448Z" fill="#660D1A"/>
<path d="M88.0141 170.905C87.9382 170.576 87.8624 170.248 87.7107 170.001H86.4974V165.403H81.4166V160.312H70.4966V165.403H65.1124V170.001L60.1074 170.494V176.078H65.6432V181.58H70.4966V186.26H81.1891V180.676H86.5732V175.585H88.6966C88.3174 174.025 88.2416 172.465 88.0141 170.905Z" fill="#660D1A"/>
<path d="M30.6883 119.049H36.0898V113.958H39.7936V108.374H36.0898V103.776H30.9198V98.6847H22.2775C21.4286 103.037 21.8145 107.635 21.8916 111.987C21.8916 114.533 21.9688 116.996 21.8916 119.542C21.8145 121.266 21.8145 122.909 21.9688 124.633H30.6883V119.049Z" fill="#660D1A"/>
</svg>
