<?xml version="1.0" encoding="utf-8"?>
<!-- Generator: Adobe Illustrator 26.0.1, SVG Export Plug-In . SVG Version: 6.00 Build 0)  -->
<svg version="1.1" id="Layer_1" xmlns="http://www.w3.org/2000/svg" xmlns:xlink="http://www.w3.org/1999/xlink" x="0px" y="0px"
	 viewBox="0 0 99.8 84.5" style="enable-background:new 0 0 99.8 84.5;" xml:space="preserve">
<style type="text/css">
	.st0{fill:#9FA4AF;}
	.st1{fill:#FFFFFF;}
	.st2{fill:#D1D2D3;}
	.st3{fill:#6B727B;}
</style>
<path class="st0" d="M17.6,77.5L2.5,49.6c-2.1-3.9-0.7-8.8,3.2-11L69.9,3.8c3.9-2.1,8.8-0.7,11,3.2L96,34.9c2.1,3.9,0.7,8.8-3.2,11
	L28.6,80.7C24.7,82.9,19.8,81.4,17.6,77.5z"/>
<path class="st1" d="M52.3,33.7c4.7,1.6,7.3,6.8,5.6,11.5c-1.6,4.7-6.8,7.3-11.6,5.6c-4.7-1.6-7.3-6.8-5.6-11.5
	C42.3,34.6,47.5,32,52.3,33.7"/>
<path class="st2" d="M46.7,49.6c-4.1-1.4-6.2-5.9-4.8-9.9c1.4-4.1,5.9-6.2,10-4.8s6.2,5.9,4.8,9.9C55.3,48.9,50.8,51.1,46.7,49.6
	 M45.9,52c5.4,1.9,11.3-1,13.2-6.4s-1-11.3-6.4-13.1c-5.4-1.9-11.3,1-13.2,6.4S40.5,50.2,45.9,52"/>
<path class="st3" d="M11.3,45.5l-0.5-0.9c-0.2-0.4-0.1-1,0.4-1.2L71,10.9c0.4-0.2,1-0.1,1.2,0.4l0.5,0.9c0.2,0.4,0.1,1-0.4,1.2
	L12.5,45.9C12.1,46.1,11.5,45.9,11.3,45.5z"/>
<path class="st3" d="M26.4,73.2l-0.5-0.9c-0.2-0.4-0.1-1,0.4-1.2L86,38.6c0.4-0.2,1-0.1,1.2,0.4l0.5,0.9c0.2,0.4,0.1,1-0.4,1.2
	L27.6,73.6C27.2,73.8,26.6,73.7,26.4,73.2z"/>
</svg>
