<?xml version="1.0" encoding="utf-8"?>
<!-- Generator: Adobe Illustrator 26.0.1, SVG Export Plug-In . SVG Version: 6.00 Build 0)  -->
<svg version="1.1" id="Layer_2" xmlns="http://www.w3.org/2000/svg" xmlns:xlink="http://www.w3.org/1999/xlink" x="0px" y="0px"
	 viewBox="0 0 83.3 31.1" enable-background="new 0 0 83.3 31.1" xml:space="preserve">
<rect x="2.1" y="24" fill="#80736A" width="5.1" height="4"/>
<rect x="76.6" y="24" fill="#80736A" width="5.2" height="4"/>
<rect x="7.2" y="24" fill="#EDEFF2" width="69.4" height="4"/>
<path fill="#80736A" d="M80.9,5c-1.4,0.3-2.9,0.6-4.3,0.9L75.7,2c1.4-0.3,2.9-0.6,4.3-0.9C80.3,2.4,80.6,3.7,80.9,5z"/>
<path fill="#80736A" d="M7.2,20.6c-1.4,0.3-2.8,0.6-4.2,0.9c-0.3-1.3-0.6-2.6-0.8-3.9c1.4-0.3,2.8-0.6,4.3-0.9L7.2,20.6z"/>
<path fill="#EDEFF2" d="M76.6,5.9c-23.1,4.9-46.3,9.8-69.4,14.8l-0.8-3.9C29.5,11.8,52.6,6.9,75.7,2L76.6,5.9z"/>
</svg>
