<svg width="24" height="24" viewBox="0 0 24 24" fill="none" xmlns="http://www.w3.org/2000/svg">
<path className="pathcc" fill-rule="evenodd" clip-rule="evenodd" d="M22 12C22 17.52 17.52 22 12 22C6.48 22 2 17.52 2 12C2 6.48 6.48 2 12 2C17.52 2 22 6.48 22 12ZM8 6.59091C8 5.71273 8.68923 5 9.53846 5H14.4615C15.3108 5 16 5.71273 16 6.59091V17.4091C16 18.2873 15.3108 19 14.4615 19H9.53846C8.68923 19 8 18.2873 8 17.4091V6.59091ZM11.0769 17.4091C11.0769 17.9373 11.4892 18.3636 12 18.3636C12.5108 18.3636 12.9231 17.9373 12.9231 17.4091C12.9231 16.8809 12.5108 16.4545 12 16.4545C11.4892 16.4545 11.0769 16.8809 11.0769 17.4091ZM9.23077 6.90909V15.8182H14.7692V6.90909H9.23077Z" fill="black"/>
</svg>
