<svg width="24" height="24" viewBox="0 0 24 24" fill="none" xmlns="http://www.w3.org/2000/svg">
<path className="pathcc" fill-rule="evenodd" clip-rule="evenodd" d="M22 12C22 17.52 17.52 22 12 22C6.48 22 2 17.52 2 12C2 6.48 6.48 2 12 2C17.52 2 22 6.48 22 12ZM16.483 12.06L16.918 12.4036C17.0029 12.4691 17.0241 12.5891 16.9711 12.6818L16.5201 13.4891C16.4777 13.56 16.4087 13.5982 16.3345 13.5982C16.3079 13.5982 16.2814 13.5927 16.2549 13.5818L15.7509 13.3745L15.7031 13.4073C15.6952 13.4127 15.6859 13.4168 15.6766 13.4209C15.6673 13.425 15.658 13.4291 15.6501 13.4345L15.5705 13.9855C15.5546 14.0891 15.4644 14.1709 15.3583 14.1709H14.4511C14.345 14.1709 14.2548 14.0945 14.2389 13.9855L14.1593 13.4345C14.1169 13.4127 14.0957 13.4018 14.0532 13.3745L13.5492 13.5764C13.5227 13.5873 13.4962 13.5927 13.4697 13.5927C13.3954 13.5927 13.3211 13.5545 13.284 13.4836L12.833 12.6764C12.78 12.5836 12.8012 12.4636 12.8861 12.3982L13.3105 12.0545V11.9291L12.8861 11.5855C12.8012 11.52 12.78 11.4 12.833 11.3073L13.284 10.5C13.3264 10.4291 13.3954 10.3909 13.4697 10.3909C13.4962 10.3909 13.5227 10.3964 13.5492 10.4073L14.0532 10.6145L14.101 10.5818C14.1089 10.5764 14.1182 10.5723 14.1275 10.5682C14.1368 10.5641 14.1461 10.56 14.154 10.5545L14.2283 10.0036C14.2442 9.9 14.3344 9.81818 14.4405 9.81818H15.3477C15.4538 9.81818 15.544 9.9 15.5599 10.0145L15.6395 10.5655C15.6774 10.585 15.6942 10.5958 15.7277 10.6173C15.7316 10.6199 15.7358 10.6226 15.7403 10.6255L16.2443 10.4182C16.2708 10.4073 16.2973 10.4018 16.3238 10.4018C16.3981 10.4018 16.4724 10.44 16.5095 10.5109L16.9605 11.3182C17.0135 11.4109 16.9923 11.5309 16.9074 11.5964L16.483 11.94V12.06ZM14.101 12C14.101 12.4527 14.4564 12.8182 14.8967 12.8182C15.3371 12.8182 15.6925 12.4527 15.6925 12C15.6925 11.5473 15.3371 11.1818 14.8967 11.1818C14.4564 11.1818 14.101 11.5473 14.101 12ZM15.4273 14.7273H14.3662V15.2727H9.06104V8.72727H14.3662V9.27273H15.4273V7.09091C15.4273 6.49091 14.9498 6 14.3662 6H9.06104C8.47747 6 8 6.49091 8 7.09091V16.9091C8 17.5091 8.47747 18 9.06104 18H14.3662C14.9498 18 15.4273 17.5091 15.4273 16.9091V14.7273Z" fill="black"/>
</svg>
