<?xml version="1.0" encoding="utf-8"?>
<!-- Generator: Adobe Illustrator 26.0.1, SVG Export Plug-In . SVG Version: 6.00 Build 0)  -->
<svg version="1.1" id="Layer_1" xmlns="http://www.w3.org/2000/svg" xmlns:xlink="http://www.w3.org/1999/xlink" x="0px" y="0px"
	 viewBox="0 0 117.5 126.4" style="enable-background:new 0 0 117.5 126.4;" xml:space="preserve">
<style type="text/css">
	.st0{fill:#924520;}
	.st1{fill:#502110;}
	.st2{fill:#E8E6D4;}
</style>
<path class="st0" d="M46,4.9c-1-1-2.3-1.7-3.6-2.2c-2.5-0.7-5.1,0.4-7.5,1.5C29.2,6.9,10.5,22,6.4,27.2c-1.6,2-3.2,4.4-3,7
	c0.2,1.4,0.7,2.8,1.4,4c1.9,3.5,61.4,79.5,65.4,82.8c1.2,1.1,2.7,2,4.3,2.5c1.7,0.4,3.4,0.4,5.1,0.1c7.3-0.9,16.4-6.6,20.5-10
	c4.2-3.3,11.1-10.6,13.5-17.5c0.6-1.6,0.9-3.3,0.9-5c-0.2-1.7-0.7-3.3-1.6-4.7C110.5,81.9,48.9,7.5,46,4.9"/>
<path class="st1" d="M103.2,81.1c0.1,0-58.6-70.5-58.6-70.5c-1.2-1.8-3.2-2.7-5.3-2.5c-2.7,0.5-10.2,6.5-10.2,6.5
	c1,1.3,1.4,2.3,0.1,3.3c-0.7,0.6-2.5,2.1-3.6,2.9l-0.8,0.7l-3.6,2.9c-1.3,1-2.2,0.5-3.2-0.8c0,0-7.4,6.1-8.5,8.6
	c-0.7,2-0.2,4.2,1.3,5.7c0,0,56.8,72,56.8,71.9c4.4,5.7,7.9,7.7,13.7,6.8c4.8-0.8,10.6-4.5,14.7-8.1c4.4-3.3,9.2-8.1,11-12.7
	C109.1,90.4,107.9,86.6,103.2,81.1"/>
<path class="st1" d="M103.2,81.1c0,0-13-15.7-26.5-31.9l-10.6,8.6c-2.3-1.2-3.6-0.3-5.6,1.3l-5.7,4.6c-2,1.6-2.8,2.7-2.2,5.2
	l-10.7,8.7C55.1,94.3,67.5,110,67.6,110c5.9,8,7.9,8.2,13.7,7.3c4.8-0.8,9.8-4.1,14.8-8.2c5.3-4.3,9.6-8.5,11.3-13.1
	C109.5,90.4,109.9,88.7,103.2,81.1"/>
<path class="st2" d="M72,72.2l-6.6,5.4c-1.1,0.9-2.6,0.7-3.5-0.4l-6.3-7.8c-0.9-1.1-0.7-2.6,0.4-3.5l6.6-5.4
	c1.1-0.9,2.6-0.7,3.5,0.4l6.3,7.8C73.2,69.8,73,71.3,72,72.2"/>
<path class="st2" d="M62.7,42.4L38,62.4c-0.9,0.7-2.1,0.6-2.8-0.3c0,0,0,0,0,0L18.4,41.4c-0.7-0.9-0.6-2.1,0.3-2.8l24.7-20.1
	c0.9-0.7,2.1-0.6,2.8,0.3L63,39.6C63.7,40.4,63.6,41.7,62.7,42.4C62.7,42.4,62.7,42.4,62.7,42.4"/>
<path class="st2" d="M66.4,87.8l-7.2,5.9c-0.9,0.7-2.2,0.6-3-0.3c0,0,0,0,0,0l-2.1-2.6c-0.7-0.9-0.6-2.2,0.3-3c0,0,0,0,0,0l7.3-5.8
	c0.9-0.7,2.2-0.6,3,0.3c0,0,0,0,0,0l2.1,2.6C67.5,85.7,67.4,87.1,66.4,87.8C66.5,87.8,66.4,87.8,66.4,87.8"/>
<path class="st2" d="M77.7,78.6l-7.2,5.9c-0.9,0.7-2.2,0.6-3-0.3c0,0,0,0,0,0l-2.1-2.6c-0.7-0.9-0.6-2.2,0.3-3c0,0,0,0,0,0l7.2-5.9
	c0.9-0.7,2.2-0.6,3,0.3c0,0,0,0,0,0l2.1,2.6C78.7,76.5,78.6,77.9,77.7,78.6C77.7,78.6,77.7,78.6,77.7,78.6"/>
<path class="st2" d="M89,69.5l-7.2,5.9c-0.9,0.7-2.2,0.6-3-0.3c0,0,0,0,0,0l-2.1-2.6c-0.7-0.9-0.6-2.2,0.3-3c0,0,0,0,0,0l7.2-5.9
	c0.9-0.7,2.2-0.6,3,0.3c0,0,0,0,0,0l2.1,2.6C90,67.4,89.9,68.7,89,69.5C89,69.5,89,69.5,89,69.5"/>
<path class="st2" d="M61.2,81l-7.7,6.2c-0.8,0.6-1.9,0.5-2.6-0.3l-1.2-1.6c-0.6-0.8-0.5-1.9,0.3-2.5c0,0,0,0,0,0l7.7-6.2
	c0.8-0.6,1.9-0.5,2.5,0.3c0,0,0,0,0,0l1.2,1.5C62.1,79.1,62,80.3,61.2,81C61.2,80.9,61.2,80.9,61.2,81"/>
<path class="st2" d="M56.9,75.6l-7.7,6.2c-0.8,0.6-1.9,0.5-2.6-0.3L45.4,80c-0.6-0.8-0.5-1.9,0.3-2.6l7.7-6.2
	c0.8-0.6,1.9-0.5,2.5,0.3c0,0,0,0,0,0l1.2,1.5C57.8,73.8,57.7,75,56.9,75.6C56.9,75.6,56.9,75.6,56.9,75.6"/>
<path class="st2" d="M83.7,62.6L76,68.9c-0.8,0.6-1.9,0.5-2.6-0.3l-1.2-1.5c-0.6-0.8-0.5-1.9,0.3-2.5c0,0,0,0,0,0l7.7-6.2
	c0.8-0.6,1.9-0.5,2.5,0.3c0,0,0,0,0,0l1.2,1.5C84.6,60.9,84.5,62,83.7,62.6"/>
<path class="st2" d="M79.4,57.3l-7.7,6.2c-0.8,0.6-1.9,0.5-2.6-0.3L68,61.8c-0.6-0.8-0.5-1.9,0.3-2.6l7.7-6.3
	c0.8-0.6,1.9-0.5,2.5,0.3c0,0,0,0,0,0l1.2,1.5C80.3,55.5,80.2,56.7,79.4,57.3C79.4,57.3,79.4,57.3,79.4,57.3"/>
<path class="st2" d="M71.8,94.5l-7.2,5.9c-0.9,0.7-2.2,0.6-3-0.3c0,0,0,0,0,0l-2.1-2.6c-0.7-0.9-0.6-2.2,0.3-3c0,0,0,0,0,0l7.2-5.9
	c0.9-0.7,2.2-0.6,3,0.3c0,0,0,0,0,0l2.1,2.6C72.9,92.4,72.7,93.7,71.8,94.5C71.8,94.5,71.8,94.5,71.8,94.5"/>
<path class="st2" d="M83.1,85.3l-7.2,5.9c-0.9,0.7-2.2,0.6-3-0.3c0,0,0,0,0,0l-2.1-2.6c-0.7-0.9-0.6-2.2,0.3-3c0,0,0,0,0,0l7.2-5.9
	c0.9-0.7,2.2-0.6,3,0.3c0,0,0,0,0,0l2.1,2.6C84.2,83.2,84,84.6,83.1,85.3C83.1,85.3,83.1,85.3,83.1,85.3"/>
<path class="st2" d="M94.4,76.2l-7.2,5.9c-0.9,0.7-2.2,0.6-3-0.3c0,0,0,0,0,0l-2.1-2.6c-0.7-0.9-0.6-2.2,0.3-3c0,0,0,0,0,0l7.2-5.9
	c0.9-0.7,2.2-0.6,3,0.3c0,0,0,0,0,0l2.1,2.6C95.5,74.1,95.4,75.5,94.4,76.2C94.4,76.2,94.4,76.2,94.4,76.2"/>
<path class="st2" d="M77.2,101.2L70,107c-0.9,0.7-2.2,0.6-3-0.3c0,0,0,0,0,0l-2-2.6c-0.7-0.9-0.6-2.2,0.3-3c0,0,0,0,0,0l7.2-5.9
	c0.9-0.7,2.2-0.6,3,0.3c0,0,0,0,0,0.1l2.1,2.6C78.3,99.1,78.2,100.4,77.2,101.2C77.3,101.1,77.3,101.1,77.2,101.2"/>
<path class="st2" d="M88.5,92l-7.2,5.9c-0.9,0.7-2.2,0.6-3-0.3c0,0,0,0,0,0L76.2,95c-0.7-0.9-0.6-2.2,0.3-3c0,0,0,0,0,0l7.2-5.9
	c0.9-0.7,2.2-0.6,3,0.3c0,0,0,0,0,0l2.1,2.6C89.6,89.9,89.4,91.2,88.5,92C88.5,92,88.5,92,88.5,92"/>
<path class="st2" d="M99.8,82.9l-7.2,5.9c-0.9,0.7-2.2,0.6-3-0.3c0,0,0,0,0,0l-2.1-2.6c-0.7-0.9-0.6-2.2,0.3-3c0,0,0,0,0,0L95,77
	c0.9-0.7,2.2-0.6,3,0.3c0,0,0,0,0,0l2.1,2.6C100.9,80.8,100.7,82.1,99.8,82.9C99.8,82.9,99.8,82.9,99.8,82.9"/>
<path class="st2" d="M82.6,107.8l-7.2,5.9c-0.9,0.7-2.2,0.6-3-0.3c0,0,0,0,0,0l-2.1-2.6c-0.7-0.9-0.6-2.2,0.3-3c0,0,0,0,0,0l7.3-5.9
	c0.9-0.7,2.2-0.6,3,0.3c0,0,0,0,0,0l2.1,2.6C83.7,105.7,83.6,107.1,82.6,107.8C82.7,107.8,82.7,107.8,82.6,107.8"/>
<path class="st2" d="M93.9,98.7l-7.2,5.9c-0.9,0.7-2.2,0.6-3-0.3c0,0,0,0,0,0l-2.1-2.6c-0.7-0.9-0.6-2.2,0.3-3c0,0,0,0,0,0l7.2-5.9
	c0.9-0.7,2.2-0.6,3,0.3c0,0,0,0,0,0l2.1,2.6C95,96.6,94.9,97.9,93.9,98.7C94,98.7,93.9,98.7,93.9,98.7"/>
<path class="st2" d="M105.2,89.5L98,95.4c-0.9,0.7-2.2,0.6-3-0.3c0,0,0,0,0,0l-2.1-2.6c-0.7-0.9-0.6-2.2,0.3-3c0,0,0,0,0,0l7.2-5.9
	c0.9-0.7,2.2-0.6,3,0.3c0,0,0,0,0,0l2.1,2.6C106.3,87.5,106.1,88.8,105.2,89.5C105.2,89.5,105.2,89.5,105.2,89.5"/>
<path class="st2" d="M27.6,17.5l-6.5,5.3c-0.3,0.2-0.7,0-0.9-0.3c-0.1-0.2-0.1-0.5,0.1-0.7l6.5-5.3c0.3-0.2,0.7,0,0.9,0.3
	C27.8,17,27.7,17.3,27.6,17.5"/>
<path class="st2" d="M93.9,104.1c0.5,0.6,0.4,1.6-0.2,2.1c-0.6,0.5-1.6,0.4-2.1-0.2c-0.5-0.6-0.4-1.6,0.2-2.1
	C92.5,103.4,93.4,103.5,93.9,104.1"/>
</svg>
