<?xml version="1.0" encoding="utf-8"?>
<!-- Generator: Adobe Illustrator 26.0.1, SVG Export Plug-In . SVG Version: 6.00 Build 0)  -->
<svg version="1.1" id="Layer_1" xmlns="http://www.w3.org/2000/svg" xmlns:xlink="http://www.w3.org/1999/xlink" x="0px" y="0px"
	 viewBox="0 0 123.3 86.1" enable-background="new 0 0 123.3 86.1" xml:space="preserve">
<path fill="#4F2212" d="M80,11.2v11.9h1.4v7.8c-1.7-0.1-3.3-0.2-4.6-0.2v-7.6h1.3V10.5c0,0,0-1.4,1.7-2.7c1-0.7,3-0.8,3-0.8v2.1
	c0,0-1.2,0-1.7,0.3C79.9,10,80,11.2,80,11.2z"/>
<path fill="#4F2212" d="M37.5,36h-1.3v-0.1l0.1-0.3C36.7,35.7,37.1,35.9,37.5,36z"/>
<path fill="#4F2212" d="M40.8,32.9c-1.5-0.7-3-1.3-4.6-1.7v-8.1h3.1L40.8,32.9z"/>
<path fill="#4F2212" d="M117.6,37.7v14.6c-3.1,0-7.8,0.1-8.7,0c-5.2-0.8-1.3-13.2-0.1-14.6C109.6,36.7,114.5,37.2,117.6,37.7z"/>
<path fill="#4F2212" d="M54.3,37.1v8.8c-1.8-3.4-4.1-6.3-7-8.8H54.3z"/>
<path fill="#4F2212" d="M53,54l-0.4,0.1v-1.6C52.8,53,52.9,53.5,53,54z"/>
<polygon fill="#4F2212" points="64.5,33 63.5,34.9 56.7,29.2 54.2,32.2 53,31.3 59.3,23.5 60.5,24.5 58,27.5 "/>
<path fill="#4F2212" d="M72.3,44.4v9.4H57.1c-0.3-1.7-0.8-3.4-1.4-5h11.6v-8L72.3,44.4z"/>
<path fill="#7D1520" d="M60.6,2.5v3H46.5v31c-0.5-0.4-1-0.8-1.5-1.1V5.5H31.6v24.9c-1-0.1-2-0.2-3-0.2V5.5h-6.3v-3H60.6z"/>
<path fill="#F3AD1C" d="M37.5,36h-1.3v-0.1l0.1-0.3C36.7,35.7,37.1,35.9,37.5,36z"/>
<path fill="#7D1520" d="M108.8,37.7c-1.2,1.4-5.1,13.8,0.1,14.6c0.9,0.1,5.6,0,8.7,0V53h-12.8V36.4h12.8v1.3
	C114.5,37.2,109.6,36.7,108.8,37.7z"/>
<path fill="#F3AD1C" d="M118.4,52.3v1.9h-1.6v5.1l-5.8,0.2h0c-1.8-1-3.9-1.6-6.2-1.6c-2.5,0-4.9,0.7-6.8,2h0l-10,0.3l-37.2,5.6
	c0.2-0.5,0.3-1.1,0.4-1.6l1.7,0.4c0.4-1.7,0.5-3.4,0.5-5.2v-0.1h-1.6c0-1.7-0.2-3.3-0.5-4.9l1.3-0.3L53,54c-0.1-0.5-0.2-1-0.4-1.5
	c-0.3-1.2-0.7-2.4-1.2-3.5l-1.6,0.7c-0.5-1.2-1.1-2.3-1.8-3.3c-0.2-0.3-0.4-0.6-0.6-0.9l1.4-1c-1-1.4-2.2-2.7-3.5-3.9L44.1,42
	c-1.2-1.1-2.5-2-3.9-2.8l0.9-1.5c-0.3-0.2-0.6-0.3-0.9-0.5c-0.9-0.5-1.8-0.8-2.7-1.2c-0.4-0.1-0.8-0.3-1.2-0.4l-0.1,0.3l-0.4,1.4
	c-1.5-0.5-3.1-0.8-4.8-1l0.2-1.7c-0.8-0.1-1.7-0.1-2.5-0.1c-0.9,0-1.8,0-2.7,0.1l0.2,1.7c-1.6,0.2-3.2,0.5-4.7,1L21,35.6
	c-0.6,0.2-1.1,0.4-1.7,0.6v-4.5c2.9-1,6-1.5,9.2-1.5h0.1c1,0,2,0.1,3,0.2c1.6,0.2,3.1,0.5,4.6,0.9c1.6,0.4,3.1,1,4.6,1.7
	c1.5,0.7,2.9,1.5,4.2,2.4c0.5,0.4,1,0.7,1.5,1.1c0.3,0.2,0.5,0.4,0.8,0.6c2.9,2.4,5.3,5.4,7,8.8c0.5,0.9,1,1.9,1.4,2.9
	c0.6,1.6,1.1,3.3,1.4,5h15.2v-9.4l-5-3.6l-5-3.6l1.2-2.3l1-1.9l2.1-4l5.7,3.8v-2.3c0,0,1.8,0.1,4.5,0.2c1.3,0.1,2.9,0.1,4.6,0.2
	c8.5,0.4,20.6,1.2,25.1,2c9.4,1.7,11.8,3.8,11.8,3.8v1.1c-0.2,0-0.5-0.1-0.7-0.1v-1.3h-12.8V53h12.8v-0.7H118.4z"/>
<path fill="#F3AD1C" d="M53,54l-0.4,0.1v-1.6C52.8,53,52.9,53.5,53,54z"/>
<path fill="#4F2212" d="M52.6,52.5v1.6L53,54C52.9,53.5,52.8,53,52.6,52.5z M36.3,35.6l-0.1,0.3V36h1.3
	C37.1,35.9,36.7,35.7,36.3,35.6z"/>
<path fill="#4F2212" d="M51.8,59.3c0-1.7-0.2-3.3-0.5-4.9l1.3-0.3v-1.6c-0.3-1.2-0.7-2.4-1.2-3.5l-1.6,0.7c-0.5-1.2-1.1-2.3-1.8-3.3
	c-0.2-0.3-0.4-0.6-0.6-0.9l1.4-1c-1-1.4-2.2-2.7-3.5-3.9L44.1,42c-1.2-1.1-2.5-2-3.9-2.8l0.9-1.5c-0.3-0.2-0.6-0.3-0.9-0.5
	c-0.9-0.5-1.8-0.8-2.7-1.2h-1.3v-0.1l-0.4,1.4c-1.5-0.5-3.1-0.8-4.8-1l0.2-1.7c-0.8-0.1-1.7-0.1-2.5-0.1c-0.9,0-1.8,0-2.7,0.1
	l0.2,1.7c-1.6,0.2-3.2,0.5-4.7,1L21,35.6c-0.6,0.2-1.1,0.4-1.7,0.6c-1.1,0.4-2.1,1-3.1,1.5l0.9,1.5C15.5,40,14.2,41,13,42.1
	l-1.2-1.3c-1.3,1.2-2.5,2.5-3.5,3.9l1.4,1C8.8,47,8,48.4,7.3,49.9l-1.6-0.7c-0.7,1.6-1.2,3.3-1.6,5l1.7,0.4
	c-0.3,1.5-0.5,3.1-0.5,4.8H3.5c0,1.7,0.2,3.5,0.6,5.2l1.7-0.4c0.3,1.6,0.9,3.1,1.5,4.6l-1.6,0.7c0.7,1.6,1.6,3.1,2.6,4.5l1.4-1
	c1,1.3,2,2.5,3.3,3.6l-1.2,1.3c1.3,1.2,2.7,2.2,4.2,3.1l0.9-1.5c1.4,0.8,2.9,1.5,4.4,2l-0.5,1.7c1.7,0.5,3.4,0.9,5.1,1.1l0.2-1.7
	c0.8,0.1,1.6,0.1,2.4,0.1s1.6,0,2.5-0.1l0.2,1.7c1.7-0.2,3.5-0.5,5.1-1.1l-0.5-1.7c1.6-0.5,3-1.2,4.4-2l0.9,1.5
	c1.5-0.9,2.9-1.9,4.2-3.1l-1.2-1.3c1.2-1.1,2.3-2.3,3.2-3.6l1.4,1c1-1.4,1.9-2.9,2.6-4.5l-1.6-0.7c0.5-1,0.8-2,1.1-3
	c0.2-0.5,0.3-1.1,0.4-1.6l1.7,0.4c0.4-1.7,0.5-3.4,0.5-5.2v-0.1H51.8z M28.6,72.1c-7.1,0-12.8-5.7-12.8-12.8c0-3.4,1.3-6.5,3.5-8.8
	c2.3-2.5,5.6-4,9.3-4c6.6,0,12.1,5,12.7,11.5c0,0.4,0.1,0.9,0.1,1.3C41.4,66.4,35.7,72.1,28.6,72.1z"/>
<path fill="#7D1520" d="M41.3,58c-0.7-6.5-6.1-11.5-12.7-11.5c-3.7,0-7,1.5-9.3,4c-2.2,2.3-3.5,5.4-3.5,8.8
	c0,7.1,5.7,12.8,12.8,12.8c7.1,0,12.8-5.7,12.8-12.8C41.4,58.9,41.4,58.4,41.3,58z M28.6,68.5c-5.1,0-9.2-4.1-9.2-9.2
	c0-0.4,0-0.9,0.1-1.3c0.6-4.5,4.5-7.9,9.1-7.9c4.6,0,8.5,3.4,9.1,7.9c0.1,0.4,0.1,0.9,0.1,1.3C37.8,64.4,33.7,68.5,28.6,68.5z"/>
<path fill="#4F2212" d="M37.7,58c-0.6-4.5-4.5-7.9-9.1-7.9c-4.6,0-8.5,3.4-9.1,7.9c-0.1,0.4-0.1,0.9-0.1,1.3c0,5.1,4.1,9.2,9.2,9.2
	c5.1,0,9.2-4.1,9.2-9.2C37.8,58.9,37.8,58.4,37.7,58z M28.6,62.3c-1.7,0-3-1.3-3-3c0-0.5,0.1-0.9,0.3-1.3c0.5-1,1.5-1.7,2.7-1.7
	s2.2,0.7,2.7,1.7c0.2,0.4,0.3,0.8,0.3,1.3C31.6,61,30.3,62.3,28.6,62.3z"/>
<path fill="#7D1520" d="M31.6,59.3c0,1.7-1.3,3-3,3c-1.7,0-3-1.3-3-3c0-0.5,0.1-0.9,0.3-1.3c0.5-1,1.5-1.7,2.7-1.7s2.2,0.7,2.7,1.7
	C31.5,58.4,31.6,58.8,31.6,59.3z"/>
<path fill="#4F2212" d="M111,59.5L111,59.5c-1.8-1-3.9-1.6-6.2-1.6c-2.5,0-4.9,0.7-6.8,2h0c-3.6,2.3-6,6.3-6,10.8
	c0,7.1,5.7,12.8,12.8,12.8s12.8-5.7,12.8-12.8C117.6,65.9,114.9,61.7,111,59.5z M104.8,75.9c-2.9,0-5.2-2.3-5.2-5.2s2.3-5.2,5.2-5.2
	c2.9,0,5.2,2.3,5.2,5.2S107.7,75.9,104.8,75.9z"/>
<path fill="#7D1520" d="M104.8,65.5c-2.9,0-5.2,2.3-5.2,5.2s2.3,5.2,5.2,5.2c2.9,0,5.2-2.3,5.2-5.2S107.7,65.5,104.8,65.5z
	 M104.8,73.7c-1.7,0-3-1.3-3-3c0-1.7,1.3-3,3-3c1.7,0,3,1.3,3,3C107.8,72.4,106.5,73.7,104.8,73.7z"/>
<circle fill="#4F2212" cx="104.8" cy="70.7" r="3"/>
</svg>
