<?xml version="1.0" encoding="utf-8"?>
<!-- Generator: Adobe Illustrator 26.0.1, SVG Export Plug-In . SVG Version: 6.00 Build 0)  -->
<svg version="1.1" id="Layer_1" xmlns="http://www.w3.org/2000/svg" xmlns:xlink="http://www.w3.org/1999/xlink" x="0px" y="0px"
	 viewBox="0 0 117.8 120.6" style="enable-background:new 0 0 117.8 120.6;" xml:space="preserve">
<style type="text/css">
	.st0{fill:#FCC89C;}
	.st1{fill:#502110;}
	.st2{fill:#4F2212;}
	.st3{fill:#6D6F70;}
	.st4{fill:#58595B;}
	.st5{fill:#403F41;}
	.st6{fill:#242427;}
	.st7{fill:#CCC8C7;}
	.st8{fill:#FFFFFF;}
	.st9{fill:#F6AE1A;}
	.st10{fill:#7D1520;}
	.st11{fill:#EF6C56;}
	.st12{fill:#1A1310;}
	.st13{fill:#FAA81B;}
	.st14{fill:#DBEEF8;}
	.st15{fill:#ABA6A4;}
	.st16{fill:#EED0B3;}
	.st17{fill:#E6262A;}
	.st18{fill:#DB7927;}
	.st19{fill:#375176;}
	.st20{fill:#0E88C4;}
	.st21{fill:#2EA9DF;}
	.st22{fill:#066493;}
	.st23{fill:#F3AD1C;}
</style>
<path class="st0" d="M113.3,39.9c-0.3-0.9-0.4-1.8-0.4-2.7c-0.1-3.2,0-6.3-0.1-9.5c-0.1-1.6-0.1-3.1-0.2-4.7
	c-0.1-1.8-0.3-3.6-0.5-5.4c-0.1-0.6,0.1-1.3-0.4-1.8c0,0.7,0.1,1.4,0.1,2.1c0-0.7-0.1-1.4-0.1-2.1v0h0c0,0,0-0.7-0.2-1.6
	c-0.2-0.9-0.3-1.8-1-2.5c-0.3-0.5-0.7-0.9-1.2-1.3c0,0,1.4-8.2-51.3-7.1c0,0-28.8-2.2-33.9,4.7v3.5v1.6h1l40.1-0.5l9.9-1
	c0,0.2,0,0.3,0,0.5c0,0.2,0.1,0.3,0.3,0.3c1.4-0.1,2.7,0.2,4.1,0.2c1.1,0.1,2.3,0.2,3.4,0.3c1.5,0.1,3,0.3,4.5,0.5
	c1,0.1,2.1,0.2,3.1,0.3c1.6,0.2,3.2,0.4,4.8,0.6c0.3,0,0.6,0.1,0.9,0.1l5,0.8c0.9,0.2,1.8,0.5,2.7,0.9c1.2,0.5,2,1.4,2.6,2.5
	c0.6,1.1,0.8,2.4,0.8,3.7c0.1,2.7,0,5.4-0.2,8c-0.2,2.6-0.3,5.2-0.5,7.8c-0.1,1.6-0.1,3.2-0.3,4.7c-0.1,0.6-0.1,1.3-0.2,1.9
	c-0.1,1.2-0.2,2.4-0.3,3.7c2.1-0.8,4.2-1.6,6.3-2.3c0.6-0.2,1.1-0.5,1.8-0.4h0c0-0.1,0.1-0.1,0.2-0.2c0,0,0.1,0,0.1-0.1
	C114.1,43.5,113.9,41.7,113.3,39.9z M79.1,11.9c-0.2,0-0.3,0.1-0.5-0.2c0.1,0,0.2-0.1,0.3-0.1l1.9,0.3
	C80.2,11.9,79.7,11.9,79.1,11.9z M108.3,16.2c0.1,1.8,0,3.5-0.1,5.3C108.3,19.8,108.4,18,108.3,16.2z M111.2,25.7
	c-1,2.7-2,5.4-2.9,8.1c-0.5,1.3-0.9,2.5-1.5,3.8c0.6-1.2,1-2.5,1.5-3.8C109.3,31.1,110.2,28.4,111.2,25.7c0.6-1.5,0.9-3,0.7-4.6
	c0-0.1,0-0.2,0-0.3c0,0.1,0,0.2,0,0.3C112.1,22.6,111.8,24.1,111.2,25.7z"/>
<path class="st1" d="M18.9,32.4c0,1.6-1.3,3-3,3c-1.6,0-3-1.3-3-3c0-1.6,1.3-3,3-3C17.5,29.5,18.9,30.8,18.9,32.4z"/>
<path class="st1" d="M102.5,81.2c0,0-0.6,3.9,4.2,4.8c0,0,4.9,1.6,7.3-3.2c2.4-4.9,1.8-7,1.2-9.2c0,0-5-6.5-8.8,1.2
	C106.4,74.8,102.9,74.3,102.5,81.2"/>
<path class="st0" d="M28.6,8.7l-6.8,13.6l-5.1,13l-1.2,1.8c0,0-1,1.6-1.1,2.5c-0.2,0.8,1.1,1.4,1.1,1.4l10.7,12.3l15.5,3.2l69.9-0.4
	l-1.6-25.2L107,11.3L73.6,5.9L28.6,8.7z"/>
<polyline class="st1" points="30.6,98.2 31.7,97.6 31.1,96.7 30.3,95.7 28.4,96 29.5,97.6 30.6,98.3 "/>
<path class="st1" d="M34.5,106.3c0,6.2-5,11.3-11.3,11.3c-6.2,0-11.3-5-11.3-11.3c0-6.2,5-11.3,11.3-11.3
	C29.5,95.1,34.5,100.1,34.5,106.3"/>
<path class="st1" d="M12.3,101.7c0.1-0.8,0.3-1.6,0.4-2.4l0,0c0.5,0.1,0.9,0.3,1.3,0.5c0.8,0.4,1.6,0.6,2.5,0.8
	c0.3,0,0.4,0.1,0.3,0.6c-0.1,0.4-0.1,0.7-0.2,1.1c-0.1,0.5,0,0.7,0.5,0.7c1,0,2-0.2,3-0.5c-0.3,1-0.5,2-0.6,3
	c-0.1,1.5-0.1,3.1,0.4,4.5c0.6,1.6,1.7,2.4,3.1,2.8c1.6,0.4,3,0.1,4.4-0.9c1.5-1.1,2.4-2.8,3.1-4.7c0.6-1.9,1-3.9,0.9-6
	c-0.1-2-0.5-3.8-1.9-5c-0.1-0.1-0.2-0.2-0.2-0.2c0-0.2,0.1-0.2,0.2-0.2c1.2-0.4,2.4-0.8,3.5-1.3c0.2-0.1,0.3-0.1,0.4,0.3
	c0.6,2.2,1,4.4,1.1,6.8c0.1,4.4-1,8.2-3.4,11.5c-1.7,2.4-3.8,4-6.3,4.8c-1.4,0.5-2.9,0.4-4.3,0.2c-0.8-0.1-1.3-0.8-1.7-1.5
	c-1.1-1.7-1.7-3.6-1.9-5.8c-0.1-1.3-0.2-2.5-0.2-3.8c0-0.7,0.1-1.4,0.1-2.1c0-0.2,0-0.5-0.2-0.5c-0.1-0.1,0-0.3,0-0.4
	c0-0.5,0.1-0.9-0.5-1c-0.9-0.1-1.8-0.4-2.7-0.8C13,101.8,12.6,101.7,12.3,101.7"/>
<path class="st2" d="M12.5,104c0.5,0,1,0.1,1.5,0.2c1.3,0.3,2.7,0.6,4,0.7c0.9,0.1,0.8,0.4,0.8,0.9c0,0.1-0.2,0.3,0,0.4
	c-1.5,3.3-1.3,6.5,0.6,9.6c0.5,0.8,1.3,1.5,2.2,2.2c-2.1-0.4-4-0.7-5.7-1.4c-1.1-0.4-1.6-1.2-2.2-2c-1.8-2.4-2.3-5-1.9-7.8
	C12,105.9,12.1,104.9,12.5,104"/>
<path class="st3" d="M21.3,107.9c0-0.6,0.1-1.1,0.1-1.7c0.2-0.3,0.2-0.6,0.2-0.9l0,0c0.1,0,0.1-0.1,0-0.1l0,0
	c0.1-0.7,0.3-1.4,0.6-2.1c0.2-0.1,0.4-0.1,0.6-0.2c1.1-0.2,1.9-0.7,2.3-1.8c0.1-0.3,0.3-0.5,0.6-0.6c0.7-0.3,1.4-0.5,2.1-0.8
	c0.4-0.2,0.6,0,0.8,0.2c1.6,2.1,1.9,4.9,0.4,7.3c-0.4,0.6-0.7,1.2-1.5,1.4c0.1-0.2,0.3-0.4,0.4-0.6c1-1.7,1.6-3.6,1-5.6
	c-0.2-0.5-0.3-1.1-0.8-1.3c0-0.1-0.1-0.1-0.1-0.2c0,0-0.1,0-0.1,0.1c0.1,0.1,0.1,0.1,0.2,0.2c0.2,0.5,0.5,0.9,0.6,1.4
	c0.5,2.5-0.2,4.7-2,6.5c-1,1-2.2,1.3-3.6,1C22.1,109.9,21.6,109,21.3,107.9 M24.7,107.2c-0.1-0.3-0.3-0.6-0.7-0.6
	c-0.4,0-0.6,0.3-0.6,0.7c0,0.4,0.3,0.7,0.7,0.7C24.4,108,24.7,107.7,24.7,107.2 M27.9,103.6c-0.4,0.1-0.7,0.3-0.7,0.7
	c0,0.4,0.2,0.6,0.6,0.6c0.4,0,0.7-0.3,0.7-0.7C28.5,103.9,28.3,103.7,27.9,103.6 M25.6,106.5c0.5,0,0.7-0.3,0.7-0.7
	c0-0.4-0.3-0.6-0.7-0.6c-0.4,0-0.7,0.3-0.7,0.7C24.9,106.2,25.2,106.4,25.6,106.5 M27.1,107.7c0-0.4-0.3-0.7-0.7-0.7
	c-0.4,0-0.7,0.3-0.7,0.7c0,0.4,0.3,0.7,0.7,0.6C26.9,108.4,27.1,108.2,27.1,107.7 M26.3,103.7c0-0.4-0.3-0.7-0.7-0.7
	c-0.4,0-0.7,0.3-0.7,0.7c0,0.4,0.2,0.6,0.6,0.6C26,104.4,26.2,104.2,26.3,103.7"/>
<path class="st3" d="M30.4,98.7c1.6,0.8,2.3,2.2,2.4,3.8c0.2,2.6-0.4,5.1-1.8,7.4c-1.5,2.5-4.3,3.7-6.8,3c-1.8-0.5-2.8-1.7-3-3.6
	c0-0.2-0.1-0.4-0.1-0.7c0.4,0.3,0.5,0.9,0.9,1.2c0,0.2,0.1,0.3,0.2,0.5c1.1,1.4,3.2,1.6,4.7,1c2-0.9,3.3-2.5,4-4.6
	c0.6-1.7,0.7-3.4,0-5.2c-0.4-0.9-1.1-1.5-1.8-2.2C29.6,99.1,30,98.9,30.4,98.7"/>
<path class="st4" d="M30.4,98.7c-0.4,0.2-0.8,0.4-1.3,0.6c0.7,0.7,1.4,1.3,1.8,2.2c0.7,1.7,0.6,3.4,0,5.2c-0.7,2.1-2,3.7-4,4.6
	c-1.4,0.6-3.5,0.5-4.7-1c-0.1-0.2-0.2-0.3-0.2-0.5c2,1.2,3.8,0.5,4.9-0.5c0.2-0.2,0.3-0.4,0.5-0.5c0.1,0,0.2-0.1,0.2-0.2l0,0
	c0.7-0.2,1.1-0.9,1.5-1.4c1.5-2.3,1.2-5.1-0.4-7.3c-0.2-0.3-0.4-0.4-0.8-0.2c-0.7,0.3-1.4,0.6-2.1,0.8c-0.3,0.1-0.5,0.3-0.6,0.6
	c-0.4,1-1.3,1.5-2.3,1.8c-0.2,0-0.4,0.1-0.6,0.2c0.1-0.7,0.6-1,1.2-1.2c0.6-0.2,1.1-0.5,1.4-1.1c0.2-0.5,0.7-0.7,1.1-0.9
	c0.9-0.5,1.7-0.9,2.6-1.4C29.3,98.2,29.8,98.3,30.4,98.7"/>
<path class="st3" d="M27.5,108.9c-0.3,0.1-0.4,0.3-0.5,0.5c-1.1,1-3,1.7-4.9,0.5c-0.4-0.3-0.5-0.9-0.9-1.2c0-0.3-0.2-0.6,0.2-0.8
	c0.3,1.1,0.8,1.9,1.9,2.2c1.3,0.2,2.6,0,3.6-1c1.8-1.8,2.4-4,2-6.5c-0.1-0.5-0.5-0.9-0.6-1.4l0,0c0.5,0.3,0.7,0.8,0.8,1.3
	c0.6,2,0,3.8-1,5.6c-0.1,0.2-0.2,0.4-0.4,0.6l0,0C27.7,108.7,27.6,108.8,27.5,108.9"/>
<path class="st5" d="M21.7,105.3c0,0.3,0,0.6-0.2,0.9c-0.2-0.3,0-0.6,0.1-0.9C21.6,105.3,21.7,105.3,21.7,105.3"/>
<path class="st6" d="M24.7,107.2c0,0.5-0.3,0.8-0.7,0.8c-0.4,0-0.7-0.3-0.7-0.7c0-0.4,0.2-0.7,0.6-0.7
	C24.4,106.6,24.6,106.9,24.7,107.2"/>
<path class="st6" d="M25.6,106.5c-0.4,0-0.7-0.2-0.7-0.7c0-0.4,0.3-0.7,0.7-0.7c0.4,0,0.6,0.2,0.7,0.6
	C26.3,106.2,26.1,106.4,25.6,106.5"/>
<path class="st6" d="M27.1,107.7c0,0.4-0.2,0.7-0.6,0.7c-0.5,0-0.7-0.2-0.7-0.6c0-0.4,0.2-0.7,0.7-0.7
	C26.8,107.1,27.1,107.3,27.1,107.7"/>
<path class="st3" d="M27.5,108.9c0.1-0.1,0.1-0.2,0.2-0.2C27.7,108.8,27.7,108.9,27.5,108.9"/>
<path class="st7" d="M11,107.9c0-0.1,0-0.1,0-0.1C11,107.9,11,107.9,11,107.9"/>
<path class="st1" d="M34.1,109.2c0,0,2.8-8.7-0.6-14.1l-2.2,1l0.7,2.2C32.1,98.2,35.1,100.4,34.1,109.2"/>
<path class="st3" d="M21.7,105.3c0,0-0.1,0-0.1,0c0,0,0.1-0.1,0.1-0.1l0,0C21.7,105.3,21.7,105.3,21.7,105.3L21.7,105.3z"/>
<path class="st6" d="M27.9,103.6c0.4,0,0.7,0.3,0.7,0.7c0,0.4-0.3,0.7-0.7,0.7c-0.4,0-0.6-0.2-0.6-0.6
	C27.2,103.9,27.4,103.7,27.9,103.6"/>
<path class="st6" d="M26.3,103.7c0,0.5-0.3,0.7-0.7,0.7c-0.4,0-0.6-0.2-0.6-0.6c0-0.4,0.2-0.7,0.7-0.7C26,103,26.2,103.3,26.3,103.7
	"/>
<path class="st5" d="M21.7,105.3c0,0,0-0.1,0-0.1C21.8,105.3,21.8,105.3,21.7,105.3"/>
<path class="st8" d="M18.3,37.4c1.3-2.5,2.5-5,3.6-7.5c2.2-4.7,4.4-9.5,6.6-14.2c0.6-1.2,1.1-2.4,1.7-3.7c0.2-0.4,0.4-0.5,0.8-0.5
	c4.7-0.1,9.5-0.3,14.2-0.4c3.8-0.1,7.5-0.2,11.3-0.4c0.2,0,0.4,0,0.6,0c0.1,0.2,0,0.4-0.1,0.5c-1.1,2.8-2.2,5.6-3.4,8.4
	c-1.8,4.4-3.5,8.7-5.3,13.1c-0.2,0.5-0.5,0.7-0.9,0.9c-4.6,1.4-9.1,2.9-13.5,5c-0.5,0.2-1,0.3-1.5,0.2c-4.1-0.2-8.2-0.5-12.3-0.7
	c-0.7,0-1.3,0.1-2-0.1c0-0.1,0-0.2,0-0.2c0,0,0-0.1,0-0.1l0,0C18.3,37.6,18.3,37.4,18.3,37.4L18.3,37.4z"/>
<path class="st9" d="M73.2,51.4c0,1.8,0,3.5,0,5.2c0,4.5,0,9.1,0,13.6c0,4.8-0.5,9.5-1.3,14.2c-0.4,2.7-0.8,5.4-1.5,8
	c-3.6,1-7.2,1.9-10.9,1.6c-1.8-0.2-3.6-0.6-5-1.8c-1.5-1.2-2.7-2.5-3.9-3.9c-1.6-1.8-3.1-3.7-4.6-5.6c-0.1-0.2-0.2-0.4-0.5-0.3l0,0
	c0-0.3,0-0.6-0.4-0.6l0,0c0-0.1,0-0.2-0.2-0.3c-0.7-1.2-1.4-2.4-2.1-3.6c-0.6-1.1-1.4-1.9-2.3-2.6c-2.8-2.1-6-3.5-9.4-4.4
	c-3.5-0.9-7-1.3-10.6-1.2c-0.4,0-0.6,0.1-0.8,0.4c-0.8,0.9-1.6,1.8-2.4,2.8c-0.6-2-1.2-3.9-1.8-5.9c0-0.1,0-0.1-0.1-0.2
	c0,0-0.1-0.1,0-0.1c0.2,0,0.4,0,0.5,0.1c4.5,1,8.9,1.9,13.4,2.9c2.8,0.6,5.5,1.3,8.2,1.9c4.1,0.8,8.1,1.9,12.1,2.8
	c2.9,0.6,5.9,1.3,8.9,1c1.4-0.1,2.8-0.5,4.1-1.1c2.2-1.1,4-2.7,5.5-4.6c0.3-0.3,0.7-0.6,0.8-1.1c1-0.3,1.2-1,1.2-2
	c0-4.4,0.1-8.8,0.3-13.2c0-0.5-0.1-0.6-0.6-0.5c-5.7,1.4-11.5,2.3-17.4,3c-4,0.5-8.1,0.3-12.1,0c-2.2-0.2-4.4-0.5-6.6-0.8
	c-0.2-1.2-0.1-2.4-0.1-3.6c4.7,0.8,9.4,1.2,14.1,1.5c4.7,0.3,9.5,0.3,14.2,0c3.5-0.2,7-0.6,10.4-1.2c0.2,0,0.4-0.1,0.6-0.2
	C73.1,51.4,73.2,51.4,73.2,51.4"/>
<path class="st9" d="M97.1,50.5c-0.1,1.8-0.3,3.7-0.4,5.5c-0.3,3.8-0.6,7.5-0.8,11.3c-0.3,4.8-0.6,9.6-0.7,14.4c0,1-0.4,1.4-1.2,1.9
	c-5,2.7-9.9,5.5-15.1,7.6c-1.1,0.4-2.2,0.9-3.3,0.9c-1.1,0-1.4-0.3-1.1-1.3c0.9-3.2,1.3-6.4,1.6-9.7c0.9-8.6,1.3-17.2,1.4-25.8
	c0-0.2,0-0.4,0.1-0.6c1.8-0.4,3.7-0.8,5.5-1.2C87.8,52.5,92.4,51.5,97.1,50.5"/>
<path class="st10" d="M3.7,90.8c-0.2,0.9,0.4,1.3,1,1.6c1,0.5,1.8,1.2,2.8,1.5c1.3,0.4,2.5,1.1,3.8,1.6c1.4,0.4,2.9,0.6,4.3,1.1
	c0.9,0.3,1.9,0,2.7-0.3c2.4-0.7,4.2-2.2,6.2-3.6c1.8-1.2,3.6-2.4,5.3-3.7c1.6-1.1,3.3-2.3,4.9-3.4c2.1-1.4,4.1-3,6.1-4.5
	c0.5-0.4,1.1-0.7,1.6-1c0.1-0.1,0.1-0.1,0.2-0.2l3.4,6c0,0-0.1,0-0.1,0c-2.7,1.6-5.5,3.2-8.2,4.8c-2.2,1.3-4.4,2.5-6.6,3.7
	c-3.3,1.9-6.7,3.8-10.3,5.2c-2.2,0.9-4.4,1.2-6.7,0.4c-2.7-0.9-5.4-2-8-3.2c-0.6-0.3-1.2-0.5-1.8-0.8c0.7,0.9,1.7,1.4,2.7,1.8
	c2.3,1.1,4.8,1.9,7.3,2.8c1.2,0.4,2.5,0.4,3.7,0.2c2.3-0.4,4.5-1.2,6.7-2.2c3-1.4,6-3,8.9-4.7c2.8-1.6,5.6-3.3,8.4-4.9
	c1.5-0.9,2.9-1.8,4.4-2.6c1.4,2.4,2.7,4.8,4.1,7.2c0.1,0.2,0.1,0.3-0.1,0.4c-1.8,0.6-3.6,1.3-5.4,1.7c-0.4,0.1-0.7-0.2-1-0.4
	c-0.7-0.5-1.4-1.2-2.2-1.7c-1.1-0.8-2.3-0.9-3.6-0.4c-2.9,1-5.6,2.4-8.4,3.8c-1.5,0.7-2.9,1.5-4.4,2.3c-0.5,0.3-0.9,0.6-1.2,1.1
	c-0.2,0.4-0.5,0.6-0.9,0.8c-3.4,1.5-6.8,1.4-10.2,0c-2.7-1.1-5.4-2.3-8.1-3.5c-0.2-0.1-0.5-0.3-0.7-0.2c-0.3,0-0.5-0.2-0.5-0.5
	c0.1-0.8,0-1.7-0.1-2.5C3.6,93.3,3.5,92.1,3.7,90.8"/>
<path class="st11" d="M114.6,67.2c-1.5-2.1-3-2.3-5-0.9c-2,1.5-3.2,3.7-4,6.3c-0.5,1.4-0.8,2.9-0.8,4.5c0.3-1.3,0.6-2.6,1.1-3.9
	c0.8-2.4,1.9-4.5,3.7-6c0.9-0.7,1.9-1.3,3.1-0.9c0.4,0.1,0.7,0.3,1,0.7c-1.8,0.3-2.6,1.9-3.4,3.5c-1,2-1.6,4.1-2,6.4
	c0,0.3-0.1,0.6,0,0.9c0.3-0.2,0.4-0.6,0.6-1c0.9-2.2,1.6-4.6,2.6-6.7c0.5-0.9,1-1.8,1.8-2.4c0.7-0.5,0.8-0.4,1.1,0.4
	c0.6,1.5,0.9,3.1,1.1,4.7c0,0.3,0,0.6-0.2,0.7c-0.3,0.1-0.3-0.2-0.4-0.4c-0.8-1.3-0.8-1.3-1.8-0.5c-0.2,0.2-0.4,0.4-0.7,0.6
	c-1.5,0.8-2.2,2.2-2.4,4.2c0,0.7-0.3,0.9-0.8,1.3c-1,0.7-2,0.7-3,0.6c-0.7-0.1-1.3,0.1-1.9,0.7c-0.1,0.1-0.2,0.3-0.5,0.3
	c0.2-1.3,0.4-2.6,0.5-3.9c0.4-4.2,0.7-8.5,0.9-12.7c0.3-5.3,0.4-10.5,0.4-15.8c0-0.2-0.1-0.4,0.2-0.5c1.1-0.1,2-0.7,3-1.2
	c1.8-0.9,3.6-1.9,5.4-3.3C114.3,51,114.6,59,114.6,67.2"/>
<path class="st0" d="M52.3,50.2c-2.1,0.1-4.3-0.1-6.4-0.1c-2.7-0.1-5.4-0.2-8.1-0.5c0.1-0.2,0.1-0.4,0-0.7c-0.4-1.3-1.4-2-2.6-2.5
	c-1.8-0.7-3.8-0.6-5.7-0.9c-2.1-0.3-4.2-0.5-6.3-0.9c-1.1-0.2-2.2-0.5-3.1-1.1c-1.3-0.9-2.4-2.1-2.8-3.8c2.9,0.3,5.7,0.5,8.6,0.8
	c1,0.1,1.9,0.2,2.9,0.2c0.1,0.2-0.2,0.2-0.3,0.3c-0.2,0.1-0.4,0.3-0.3,0.6c0.1,0.3,0.2,0.5,0.5,0.6c0.2,0,0.4,0.1,0.5,0
	c0.1,0,0.2,0,0.2-0.1c1.9-1.2,4-1.1,6.1-0.8c3.5,0.4,7.1,0.7,10.6,0.9c5.1,0.4,10.2,0.8,15.3,0.8c1.8,0,3.6-0.1,5.4-0.3
	c1.9-0.2,3.9-2,4.5-4.1c0-0.2,0.1-0.4,0.1-0.5c0,0.1,0.1,0.1,0.1,0.2c-0.2,1.6-0.6,3.2-2.3,4c-0.6,0.3-1.3,0.4-2,0.5
	c-2.3,0.4-4.6,0.6-6.9,0.6c-1.3,0-2.6,0-4,0c-0.2,0-0.5,0-0.6,0.3c-0.2,0.4-0.4,0.7-0.6,1c-0.7,1.3-1.5,2.6-2.2,3.9
	C52.7,49.1,52.3,49.6,52.3,50.2"/>
<path class="st9" d="M104.9,48.8c0.4,1.8-0.1,3.5-0.2,5.3c-0.1,2.9-0.3,5.7-0.4,8.6c-0.3,4.9-0.5,9.8-0.8,14.8
	c0,0.2-0.1,0.4-0.3,0.5c-2.5,1.5-4.9,3-7.4,4.5c-0.1,0-0.1,0.1-0.3,0.1c0.1-1.3,0.3-2.6,0.4-3.9c0.2-2.1,0.4-4.3,0.6-6.4
	c0.4-5,0.7-9.9,1-14.9c0.2-2.4,0.3-4.7,0.4-7.1c0.1,0,0.3,0,0.4-0.1C100.5,49.8,102.7,49.3,104.9,48.8"/>
<path class="st8" d="M68.9,25.5V26c-0.2,0.2-0.1,0.4-0.1,0.6c0,2.9,0,5.8,0,8.7c0,0.1,0,0.3,0.1,0.5v-5.9c0.1,2.5,0.2,5,0,7.5
	c-0.1,1-0.7,1.7-1.6,2.1c-1.5,0.7-3.1,0.8-4.7,0.8c-3.6,0.2-7.2,0-10.9,0c-0.3,0-0.6,0-0.9,0c-0.7-0.1-1.5-0.1-2.2-0.1
	c-0.2,0-0.4,0.1-0.5-0.1c0.7-1.3,1.3-2.8,1.9-4.2c0.2-0.4,0.4-0.6,0.8-0.8c2.9-1.1,5.7-2.3,8.5-3.5c2.2-0.9,4.3-1.9,6.5-2.8
	c0.4-0.1,0.4-0.3,0.2-0.6c-0.1-0.3-0.3-0.5-0.4-0.8c0-0.3-0.3-0.2-0.5-0.1c-1,0.4-1.9,0.8-2.9,1.1c-1.2,0.3-2.4,0.9-3.6,1.3
	c-1.9,0.7-3.8,1.4-5.7,2.2c-0.4,0.2-0.9,0.3-1.5,0.5c1-2.5,2-4.8,3-7.1c0,0.3,0.3,0.6,0.2,1.1c-0.1,0.3,0.2,0.4,0.4,0.2
	c0.3-0.3,0.7-0.3,1.1-0.3c2.6,0,5.1,0,7.7,0c0.2,0,0.5,0,0.7,0.1c0.6,0.1,1.2,0.4,1.8,0c0.2-0.1,0.4,0,0.6,0.1
	c0.4,0.1,0.8,0.1,1-0.4C68.2,25.2,68.5,25.2,68.9,25.5"/>
<path class="st0" d="M52.3,50.2c0-0.6,0.4-1,0.7-1.5c0.7-1.3,1.5-2.6,2.2-3.9c0.2-0.3,0.4-0.7,0.6-1c0.1-0.3,0.4-0.3,0.6-0.3
	c1.3,0,2.6,0,4,0c2.3-0.1,4.7-0.2,6.9-0.6c0.7-0.1,1.4-0.2,2-0.5c1.7-0.8,2-2.4,2.3-4c0,0-0.1-0.1-0.1-0.2c0.2-1.2,0.2-2.5,0.2-3.7
	c0.1-6.1,0.3-12.2,0.4-18.3c0-1.7-0.2-3.2-1.2-4.6c0.3-0.2,0.6-0.5,0.9-0.7c0.8-0.6,1.4-1.3,2.3-1.8c0,2.6-0.1,5.2-0.1,7.8
	c-0.1,3.2-0.2,6.4-0.2,9.6c0,0.5,0,0.9-0.6,1.1c0.6,0.1,0.5,0.5,0.5,0.9c-0.1,6.9-0.3,13.7-0.4,20.6c0,0.6-0.2,0.7-0.7,0.7
	c-4.8,0.3-9.6,0.6-14.5,0.6C56.2,50.2,54.2,50.2,52.3,50.2"/>
<path class="st4" d="M48.1,40c0.1,0.3,0.4,0.1,0.5,0.1c0.7,0,1.5,0,2.2,0.1h-2.6c0,0,0,0.1,0,0.1c1.3,0.1,2.7,0.3,4,0.4
	c3.7,0.2,7.4,0.3,11,0.2c1.2,0,2.4-0.1,3.6-0.5c2.2-0.7,2.9-2,2.9-3.9c0.1-7.3,0-14.5,0-21.8c0-1.5-0.9-2.5-2-3.3
	c-1.4-1-2.9-1.4-4.6-1.7c-1-0.1-2-0.2-3-0.2c-0.4,0-0.5,0.1-0.7,0.5c-1.3,3.3-2.6,6.6-4,10c-1.6,4-3.2,8-4.7,12
	c-0.3,0.8-1.1,0.7-1.7,1c-0.1-0.3,0-0.4,0.1-0.6c2.7-6.6,5.4-13.2,8.1-19.8c0.3-0.8,0.7-1.6,1-2.4c0.1-0.3,0.1-0.4-0.3-0.4
	c-2.2,0-4.3,0.1-6.5,0.2c-0.1,0-0.2,0-0.2,0c-2.1,0-4.1,0.1-6.2,0.2c-2.4,0.1-4.8,0.2-7.3,0.3c-2.3,0.1-4.6,0.2-6.8,0.2
	c-1.4,0-1.3,0-1.9,1.3c-1.1,2.4-2.2,4.8-3.2,7.2c-1.4,3.2-2.8,6.4-4.2,9.5c-1.1,2.6-2.2,5.1-3.4,7.7c-0.1,0.3-0.3,0.7-0.2,1
	c0,0,0,0,0,0c-0.2,0-0.1,0.1-0.1,0.3c0,0,0,0,0,0l-0.1,0c0,0,0,0.1,0.1,0.1c0,0.1,0,0.2,0,0.2c0,0.3,0.3,0.2,0.5,0.2
	c2.5,0.2,5,0.5,7.4,0.7c1.8,0.2,3.5,0.3,5.3,0.4c0.1,0,0.3,0,0.4,0.1c-0.8,0.5-1.6,0.9-2.7,0.8c-0.8-0.1-1.6-0.2-2.4-0.2
	c-1.8-0.1-3.5-0.1-5.3-0.3c-2-0.2-3.9-0.2-5.9-0.6c-0.1,0-0.2,0-0.2,0c-0.4-0.1-0.4-0.4-0.3-0.7c0.4-0.8,0.4-0.9,1.4-0.5
	c0.5,0.2,0.7,0.1,1-0.4c2.2-4.6,4.3-9.2,6.4-13.9c1.5-3.5,3.1-6.9,4.6-10.4c0.2-0.6,0.5-1.1,0.7-1.7c0.2-0.5,0.1-0.6-0.4-0.5
	c-1.3,0-2.4,0.4-3.4,1.2c-0.1,0.1-0.2,0.1-0.3,0.2c0,0,0,0-0.1,0c-0.1-0.9,1.1-2.1,2.1-2.2c1.8-0.1,3.7-0.2,5.5-0.3
	c2.8-0.1,5.6-0.3,8.3-0.5c0.9-0.1,1.9,0,2.8-0.1c2.3-0.1,4.6-0.2,6.9-0.3c2.1-0.1,4.2-0.1,6.3-0.3c2.1-0.1,4.2-0.2,6.3-0.1
	c2.2,0.1,4.3,0.7,6,2.1c1.2,1,1.9,2.4,2,4c0.1,3.2-0.1,6.4-0.2,9.5c0,1.4,0,2.8-0.1,4.1c-0.1,2.7,0,5.4-0.1,8.1
	c-0.1,2.6-1.4,4.5-3.7,5.1c-0.7,0.2-1.3,0.1-2,0.2c-2.2,0.2-4.4,0.2-6.7,0.1c-2.5-0.1-5.1-0.2-7.6-0.4c-2.3-0.1-4.5-0.3-6.8-0.5
	c-2.7-0.2-5.3-0.4-8-0.6c-0.7-0.1-1.5,0-2.1-0.2c1.1-1,2.5-0.6,3.8-0.6c1.2,0.1,2.4,0.2,3.6,0.3c1.4,0.1,2.8,0.2,4.3,0.3
	c0.5,0,0.7-0.1,0.8-0.5c0.4-0.9,0.8-1.8,1.1-2.7c0.3-1.1,1.1-1.2,2-1.4l0,0c-0.4,1.2-0.9,2.4-1.3,3.7C48.1,39.6,48,39.8,48.1,40"/>
<path class="st12" d="M76.3,12.7c1.5,0.2,3,0.4,4.5,0.6c1.4,0.2,2.8,0.3,4.3,0.5c1.5,0.2,3,0.4,4.5,0.6c1.5,0.2,3,0.3,4.5,0.5
	c0.6,0.1,1.3,0.1,1.9,0.4v0.2c-0.4,0.4-0.4,0.9-0.3,1.3c0,1.2-0.3,2.5-0.3,3.7l-0.3,0c0,0-0.1,0-0.1,0c-0.1,0-0.2,0-0.3,0.1
	c-0.2-0.4-0.6-0.3-1-0.3c-2.9,0-5.7-0.1-8.6,0c-1.3,0-2.7,0.1-3.9,0.8c-0.6,0.4-0.9,1-1.2,1.6c-0.3,0.9-0.4,1.7-0.4,2.6
	c0,0.6,0.1,1.2-0.1,1.8c0,0.2,0,0.4,0,0.5c0,0.2,0.4,0.3,0.1,0.5c-0.2,0.2-0.4,0-0.5-0.1c-0.7-0.4-1.5-0.7-2.3-0.9
	c-0.4-0.1-0.6-0.3-0.6-0.8c0-1.3,0.2-2.6,0.1-4c-0.2-3.1-0.1-6.3-0.1-9.4C76.3,12.9,76.3,12.8,76.3,12.7"/>
<path class="st8" d="M95,20.6l0.3,0c-0.2,3.8-0.4,7.7-0.5,11.5c0,0.3-0.1,0.4-0.4,0.3c-1.4-0.3-2.8-0.3-4.2,0
	c-0.3,0.1-0.4,0-0.5-0.2c-1.7-2.1-4.1-2.4-6.3-0.9c-0.2,0.1-0.3,0.2-0.5-0.1c-0.6-0.8-1.3-1.5-2.1-2.2c-0.1-0.1-0.2-0.2-0.2-0.4
	c0-1.6-0.1-3.1,0.1-4.7c0.3-1.8,1-2.4,2.7-2.6c1.4-0.2,2.8-0.2,4.2-0.2c2.1-0.1,4.2-0.2,6.3-0.4c0.2,0,0.5-0.1,0.7-0.1
	c0.1,0,0.2,0,0.3-0.1C94.9,20.6,94.9,20.6,95,20.6"/>
<path class="st0" d="M81.7,36.2c0.5,2.6,3.7,4.2,6.2,3.1c0.7-0.3,1.3-0.8,1.8-1.4c0.2-0.2,0.3-0.2,0.5-0.2c1.3,0.4,2.5,0.3,3.8,0.1
	c0.4-0.1,0.5,0,0.5,0.4c0,2.7,0,5.4-0.3,8.2c-0.5,0.1-1,0.1-1.5,0.2c-0.8-0.4-1.8-0.5-2.7-0.6c-2.7-0.4-5.4-0.7-8.2-0.9
	c-1.8-0.2-3.6-0.4-5.4-0.3c-0.4,0-0.6-0.1-0.6-0.5c0.1-2.4,0.1-4.7,0.2-7.1c0.3-0.3-0.1-0.8,0.3-1C78.2,36.6,79.9,37,81.7,36.2"/>
<path class="st8" d="M54.6,24.9c0.6-1.4,1.1-2.9,1.7-4.3c1.3-3.3,2.7-6.5,4-9.8c0.1-0.2,0.1-0.4,0.5-0.4c2.1,0,4.1,0.3,5.9,1.3
	c1.1,0.6,2.1,1.5,2.3,2.8c0,0.1,0,0.2,0,0.3c-0.2,0.2-0.1,0.4-0.1,0.6c0,1.1,0,2.1,0,3.2c0,0.3,0,0.5-0.3,0.6
	c-1.5,0.7-3,1.5-4.5,2.1c-1.6,0.6-3.2,1.2-4.7,1.9c-1.2,0.5-2.5,1-3.8,1.4C55.2,24.7,54.9,24.9,54.6,24.9"/>
<path class="st9" d="M75.4,79.4c-0.3,3.4-0.8,6.9-1.5,10.3c-0.1,0.6-0.4,1.1-0.4,1.7c0,0.9,0.5,1.5,1.4,1.7c0.9,0.1,1.7-0.1,2.6-0.3
	c2.7-0.9,5.2-2.2,7.7-3.5c6.2-3.2,12.1-6.8,17.8-10.9c0.1,0,0.1-0.1,0.3-0.2c0.1,0.9-0.1,1.7-0.1,2.5c0,0.2-0.2,0.2-0.3,0.3
	c-7.9,4.7-15.8,9.5-24.1,13.5c-1.4,0.7-2.9,1.3-4.5,1.5c-1.6,0.2-2.8-0.4-3.2-1.9c-0.1-0.2-0.1-0.4,0-0.7c0.9-3.8,1.6-7.7,2.1-11.6
	c0-0.1,0-0.2,0.1-0.2C73.9,80.8,74.7,80.1,75.4,79.4"/>
<path class="st13" d="M31.4,50.7c0,0.9,0,1.9,0,2.8c0,0.4-0.1,0.5-0.5,0.4c-3.1-0.4-6.3-0.8-9.4-1.2c-0.9-0.1-1.9-0.2-2.9-0.3
	c-0.3,0-0.5-0.1-0.4-0.5c0.2-1.9,0.2-3.9,0.2-5.8c0-0.4,0.1-0.5,0.6-0.5c3.8,0.5,7.7,1,11.5,1.4c0.6,0.1,0.9,0.3,0.8,0.9
	C31.3,48.9,31.3,49.8,31.4,50.7L31.4,50.7z"/>
<path class="st12" d="M98.2,32.9c0.6,0.4,1.3,0.2,1.9,0.3c1,0.1,2.1,0.2,3.1-0.1c0.8-0.3,1.3-0.9,1.4-1.7c0.3-1.8,0.3-3.6,0.2-5.5
	c-0.1-1-0.1-2-0.2-3c0-1.4-0.6-2.1-1.9-2.5c-0.9-0.2-1.9-0.1-2.8-0.1c-0.5,0-0.9,0-1.4,0.1c-0.3,0-0.3-0.1-0.3-0.4
	c0-1.4,0-2.7,0-4.1c0-0.3,0.1-0.4,0.4-0.4c0.8,0,1.5,0.2,2.2,0.4c1,0.2,1.9,0.5,2.7,0.9c1.5,0.8,2.2,2.1,2.4,3.8
	c0.4,2.6,0.1,5.2,0.1,7.8c0,1.5-0.2,3.1-0.2,4.6c0,1.5-0.2,2.9-0.2,4.4c0,0.4-0.3,0.4-0.5,0.3c-0.9-0.1-1.8-0.2-2.8-0.3
	c-0.1,0-0.2-0.1-0.4-0.1c-1.1,0-2.2,0-3.3-0.1c-0.3,0-0.6,0-1,0c0-1.3,0.1-2.6,0.1-3.9c0-0.2,0.1-0.4,0.1-0.5
	C98,32.9,98.1,32.9,98.2,32.9"/>
<path class="st9" d="M69.4,55.2v4.7c-0.2,0.1-0.3,0-0.4,0c-0.6-0.5-1.3-0.5-1.9,0.1c-0.9,0.9-0.9,2.8-0.1,3.7
	c0.6,0.6,1.2,0.7,2.1,0.2v2.6c-1.1,0.4-2.2,0.7-3.3,1.1c0-3.2-0.1-6.5-0.1-9.7c0-0.4,0-0.8,0-1.3c-1,0.5-1.9,1-2.9,1.4
	c-2.3,0.8-4.8,1.2-7.2,1.5c-0.5,0.1-0.8,0.1-0.6,0.8c1,3.3,1.1,6.6-0.1,9.8c-0.2,0.5,0.2,0.4,0.4,0.4c2,0.2,4,0.3,6.1,0.1
	c-0.7,0.2-1.2,0.5-1.7,0.4c-1.8,0-3.6-0.1-5.4-0.1c-0.2,0-0.3,0-0.5-0.3c-0.2-0.5-0.5-0.5-0.8,0c-0.1,0.2-0.2,0.2-0.4,0.2
	c-1.3,0-2.7-0.1-4-0.2c1-0.5,2-1.1,2.7-2c0.9-1.1,1.3-2.4,1.3-3.9c0-0.3,0-0.5-0.2-0.8l0,0c0.2-1-0.2-1.9-0.6-2.7
	c-0.5-1-1.3-1.8-2.3-2.3c1,0,2,0,2.9,0c0.2,0,0.3,0.1,0.3,0.3c0,0.2,0.1,0.4,0.4,0.4c0.2,0,0.4-0.1,0.4-0.3c0-0.4,0.3-0.3,0.5-0.3
	c0.8,0,1.6,0,2.4,0c2.5,0.1,4.8-0.8,7-1.9c1.5-0.8,3.1-1.6,4.5-2.6c0.4-0.3,0.8-0.2,1.2-0.4c0.2-0.1,0.2,0.1,0.2,0.2
	c0,0.3,0,0.5,0,0.8c-1.2,0.4-2.3,1-3.6,1.6c0.5,0.2,0.8,0.1,1.2-0.1C67.8,56,68.6,55.6,69.4,55.2"/>
<path class="st9" d="M69,68.6c-0.1,0.5-0.5,0.8-0.8,1.1c-1.5,1.9-3.3,3.5-5.5,4.6c-1.3,0.6-2.7,1-4.1,1.1c-3,0.2-6-0.4-8.9-1
	c-4.1-0.9-8.1-1.9-12.1-2.8c-2.8-0.6-5.5-1.3-8.2-1.9c-4.5-1-8.9-1.9-13.4-2.9c-0.2,0-0.4,0-0.5-0.1c-0.2-0.6-0.4-1.2-0.7-1.9
	c1.5,0.5,2.9,1,4.3,1.4c5,1.5,10.1,2.6,15.2,3.5c2.5,0.5,5.1,0.8,7.7,1.1c0.5,0.1,1,0.3,1.6,0.4c4.4,1,8.7,2,13.2,2.5
	c2.4,0.3,4.7-0.1,6.6-1.6c0.6-0.5,1.3-1.1,1.7-1.8C66.3,69.8,67.6,69.2,69,68.6"/>
<path class="st9" d="M75.4,79.4c-0.7,0.7-1.4,1.4-2.2,2.1c0.2-2.2,0.5-4.4,0.6-6.6c0.1-1.9,0.2-3.9,0.2-5.8c-0.1-6,0.1-12,0.1-18
	c0-0.6,0.1-0.9,0.8-0.8c0.6,0,1.2-0.1,1.7-0.2c0.4-0.1,0.5,0,0.5,0.5c-0.2,4-0.4,8.1-0.6,12.2C76.3,68.3,76,73.9,75.4,79.4"/>
<path class="st8" d="M98.2,32.9c-0.1,0-0.2,0-0.2,0c0.1-2.7,0.1-5.3,0.2-8c0-1.4,0-2.8,0-4.2c1.6,0.4,3.3,0,4.9,0.7
	c0.4,0.2,0.8,0.5,0.8,1c0.1,2.7,0.2,5.3,0.1,8c-0.1,1.6-0.5,2.1-2.1,2.2c-1,0.1-2,0.1-3.1,0.1C98.5,32.7,98.2,32.6,98.2,32.9"/>
<path class="st9" d="M45.4,82.5c0.3-0.1,0.4,0.2,0.5,0.3c1.5,1.9,3,3.8,4.6,5.6c1.2,1.4,2.5,2.7,3.9,3.9c1.5,1.2,3.2,1.6,5,1.8
	c3.8,0.4,7.4-0.6,10.9-1.6l-0.5,2c-2.5,0.7-5,1.5-7.6,2c-1,0.2-2.1,0.4-3.1,0.3c-2-0.2-3.9-0.8-5.7-1.5c-0.6-0.2-1.3-0.3-1.8-0.8
	c0.5-0.1,0.2-0.4,0.1-0.6c-1.6-2.8-3.2-5.7-4.8-8.5C46.5,84.5,45.9,83.5,45.4,82.5"/>
<path class="st13" d="M64.9,61.2c0,2,0,3.9,0,5.9c0,0.3-0.1,0.5-0.3,0.7c-0.9,1-2,1.5-3.3,1.7c-1.6,0.2-3.3,0.2-4.9,0.1
	c-0.2,0-0.5,0-0.3-0.4c0.6-2.3,0.6-4.6,0.1-6.9c0.2,0,0.5,0,0.7,0c1.1,0.1,2.2,0,3.3,0.1C61.9,62.4,63.4,61.8,64.9,61.2"/>
<path class="st0" d="M15,38.3c-0.1,0.3-0.1,0.6,0.3,0.7c0.6,0.4,1.3,0.4,2,0.6c0.4,1.7,1.4,2.8,2.8,3.8c0.9,0.6,2,0.9,3.1,1.1
	c2.1,0.4,4.2,0.6,6.3,0.9c1.9,0.3,3.8,0.2,5.7,0.9c1.2,0.5,2.2,1.2,2.6,2.5c0.1,0.3,0.1,0.5,0,0.7c-1.4,0-2.7-0.2-4.1-0.3
	c0-0.4,0-0.8-0.1-1.1c-0.1-1.2-0.1-1.2-1.3-1.3c0-0.3-0.1-0.4-0.4-0.5c-4.4-0.5-8.9-1-13.3-1.4c-0.8-0.1-0.7-0.1-0.7,0.7
	c0,0.6,0,1.1,0,1.7c-1.4-0.4-2.8-0.8-4.3-1.1c-0.4-0.1-0.2-0.3-0.2-0.5c0.2-1.9,0.5-3.7,0.9-5.5c0.1-0.4,0.1-0.8,0.2-1.1
	c0.2-0.3,0.2-0.7,0.4-0.9C14.9,38.2,14.9,38.3,15,38.3L15,38.3z"/>
<path class="st0" d="M97.1,46.1c0.3-2.6,0.4-5.1,0.6-7.7c0-0.3,0.1-0.4,0.4-0.3c2.2,0.4,4.5,0.5,6.8,0.3c0.3,0,0.4-0.1,0.7-0.4
	c-0.1,1.9-0.2,3.7-0.3,5.6c0,0.4-0.1,0.8-0.1,1.2c0,0.5-0.3,0.7-0.7,0.7c-1.5,0-3,0.3-4.5,0.4c-0.7,0-1.3,0-1.9,0.2
	C97.7,46,97.4,46,97.1,46.1"/>
<path class="st8" d="M54.6,24.9c0.3,0.1,0.6-0.1,0.9-0.2c1.3-0.3,2.5-0.9,3.8-1.4c1.6-0.6,3.2-1.2,4.7-1.9c1.6-0.6,3-1.4,4.5-2.1
	c0.3-0.1,0.3-0.3,0.3-0.6c0-1.1,0-2.1,0-3.2c0-0.2-0.1-0.5,0.1-0.6c0,2.7,0,5.5,0,8.2c0,0.8,0,1.6,0,2.4c-0.4-0.2-0.7-0.2-0.9,0.3
	c-0.1,0.4-0.6,0.5-1,0.4c-0.2,0-0.5-0.2-0.6-0.1c-0.6,0.4-1.2,0.2-1.8,0c-0.2-0.1-0.5-0.1-0.7-0.1c-2.6,0-5.1,0-7.7,0
	c-0.4,0-0.8,0-1.1,0.3c-0.2,0.2-0.5,0.1-0.4-0.2c0.1-0.4-0.1-0.7-0.2-1.1C54.5,25,54.5,24.9,54.6,24.9"/>
<path class="st0" d="M24.3,11.3c-0.1,0.3-0.2,0.5-0.2,0.8c0-1-0.1-2.1,0.1-3.1c0.1-0.5,0.5-0.6,0.9-0.7c1.5-0.4,3.1-0.6,4.6-0.7
	c3.8-0.3,7.6-0.4,11.4-0.5C47,6.9,52.8,6.7,58.7,6.6c2.8-0.1,5.6-0.1,8.4-0.1c2.2,0,4.4,0.3,6.6,0.9c0.1,0,0.3,0,0.4,0l0,0
	C74,7.7,74.4,7.7,74.2,8c-0.3,0-0.6,0-0.9,0c-0.9-0.1-1.9-0.1-2.8-0.2c-3.2-0.3-6.3-0.3-9.5-0.1c-0.2,0-0.4,0-0.6,0
	c-0.3,0.1-0.6,0.2-0.9,0.1c-0.5-0.2-1-0.1-1.5,0c-2.2,0.1-4.4,0.1-6.5,0.2c-0.3,0-0.7-0.1-1,0c-1.3,0.2-2.6,0.1-3.8,0.2
	c-2.3,0.1-4.6,0.2-6.9,0.3c-2.6,0.1-5.2,0.1-7.8,0.3c-1.6,0.1-3.3,0.1-4.9,0.1c-1.5,0-2.5,1.1-2.5,2.4l0,0
	C24.4,11.2,24.3,11.3,24.3,11.3"/>
<path class="st14" d="M28.1,11.7c-0.8,1.9-1.7,3.7-2.5,5.5c-3,6.6-5.9,13.2-8.6,19.9c-0.1,0.2-0.1,0.5-0.4,0.4
	c-0.4-0.1-0.8,0-1.1-0.3c-0.1-0.1,0.1-0.4,0.2-0.6c1.4-3.7,2.8-7.4,4.3-11.1c1.4-3.6,2.9-7.2,4.3-10.9c0.3-0.8,0.7-1.5,1.4-2
	C26.3,12,27.1,11.7,28.1,11.7"/>
<path class="st5" d="M96,15.6v-0.2c0.5-0.1,1,0.1,1.5,0.1c0.3,0,0.3,0.2,0.3,0.4c0.1,0.6-0.1,1.1-0.1,1.6c0,0.7-0.1,1.4-0.1,2.2
	c-0.1,1.5-0.2,2.9-0.3,4.4c-0.1,1.9-0.2,3.9-0.3,5.8c-0.1,1.1,0,2.2-0.1,3.3c-0.2,1.9,0,3.7-0.1,5.6c-0.2,2,0,4.1-0.1,6.1
	c0,0.4,0.2,0.9,0.1,1.3c-0.4,0.1-0.8,0.1-1.1,0.3c-0.8,0.2-0.8,0.2-0.7-0.6c0.1-1.1,0.2-2.1,0.3-3.2c0.1-2.8,0.3-5.6,0.4-8.5
	c0.1-2.2,0.1-4.4,0.2-6.6c0.1-1.7,0-3.5,0.1-5.2c0.2-1.9,0-3.9,0.1-5.8C96.1,16.2,96,15.9,96,15.6"/>
<path class="st5" d="M73.2,51.4c-0.1,0-0.2,0-0.3,0c-0.2-0.2-0.4-0.1-0.6-0.1c-2.3,0.2-4.5,0.4-6.8,0.5c-1.7,0.1-3.4,0.2-5,0.3
	c-3.1,0.2-6.2,0.1-9.3,0.1c-2.5,0-5-0.2-7.5-0.4c-1.7-0.1-3.4-0.2-5.2-0.4c-2-0.2-3.9-0.3-5.9-0.5c-0.2,0-0.4-0.1-0.4-0.4
	c0-0.3-0.2-0.8,0-1c0.2-0.2,0.6,0.1,0.9,0.1c2.5,0.5,5.1,0.7,7.6,1c1.6,0.2,3.1,0.2,4.7,0.3c4.1,0.3,8.2,0.2,12.3,0.2
	c2.5,0,5-0.2,7.5-0.4c2.5-0.2,5-0.4,7.4-0.9c0.4-0.1,0.6,0.1,0.5,0.4C73.1,50.7,73.5,51,73.2,51.4"/>
<path class="st15" d="M52.5,63.8L52.5,63.8c-0.1,0.6-0.2,1.2-0.4,1.8c-0.5,1.6-1.4,2.7-3.2,2.9c-0.9,0.1-1.7-0.1-2.4-0.6
	c-2.1-1.3-3.1-4.3-2.2-6.6c0.9-2.2,3.2-3,5.2-1.8c1.4,0.8,2.2,2,2.7,3.5C52.4,63.3,52.5,63.6,52.5,63.8 M46.2,66.7
	c0,0,0.1,0.1,0.1,0.1C46.5,66.8,46.4,66.7,46.2,66.7c0-0.3-0.1-0.5-0.1-0.7c-0.1-0.2,0-0.3,0.2-0.1c0.2,0.6,0.7,0.9,1.3,0.8
	c0.8-0.1,1-0.3,1-1c0.1-0.1,0.3-0.3,0.4-0.4c0.3-0.4,0.3-0.8-0.1-1c-1.2-0.7-2.5-0.8-3.8-0.4c-0.4,0.1-0.5,0.5-0.4,0.8
	C45.1,65.6,45.5,66.3,46.2,66.7 M49.8,64.5c0.9,0.7,1.1,1.2,0.7,2.1c-0.3,0.8-1,1.2-1.9,1.4c0.1,0.1,0.1,0.1,0.2,0.1
	c2.1,0,3.8-2.4,3-4.4c-0.1-0.2-0.1-0.4-0.4-0.4c-0.2,0-0.4,0.1-0.4,0.3C50.9,64.3,50.5,64.5,49.8,64.5 M50.4,61
	c-0.6-1.1-1.7-1.7-2.9-1.5c-0.7,0.1-1.8,1-2,1.9C47.1,60.4,48.7,60.6,50.4,61 M48.7,62.7c0.1,0,0.2,0,0.3,0c0.4-0.1,0.7-0.2,0.7-0.6
	c0-0.4-0.3-0.6-0.7-0.6c-0.1,0-0.2,0-0.3,0c-0.5,0-0.9,0.1-0.9,0.7C47.8,62.6,48.2,62.7,48.7,62.7"/>
<path class="st1" d="M90.3,35.2c-0.3,0.7-0.5,1.4-1,2c-0.9,1-2,1.6-3.4,1.5c-1.7-0.1-2.9-1-3.3-2.7c-0.7-2.5,1-4.7,3.3-4.8
	c-0.1,0.3-0.4,0.3-0.6,0.4c-0.5,0.3-1.1,0.6-1.4,1.2c0,0-0.1,0.1-0.1,0.1c0,0,0,0,0,0c0,0,0.1-0.1,0.1-0.1c0.5-0.2,1.1-0.4,1.6-0.5
	c1.6-0.2,3.4,0.2,3.9,2.1c0,0,0.1,0.1,0.1,0.1c0.2-0.6-0.1-1.1-0.2-1.6c0.6,0.4,0.6,1.2,0.9,1.8C90.3,34.9,90.3,35.1,90.3,35.2"/>
<path class="st12" d="M81.7,36.2c-1.7,0.7-3.4,0.3-5.2,0c-0.2-0.1,0.2-0.6-0.3-0.4c0.2-2.5,0.1-5,0.1-7.4c0-0.4,0.1-0.5,0.5-0.4
	c1,0.3,1.8,0.8,2.7,1.3c0.3,0.2,0.5,0.5,0.5,0.9c0.1,0.9,0.3,1.8,1.3,2.3c0.3,0.1,0.7-0.1,0.8,0.3c0.1,0.3-0.2,0.6-0.3,0.9
	C81.5,34.4,81.4,35.3,81.7,36.2"/>
<path class="st9" d="M97.1,50.5c-4.6,1-9.3,2-13.9,3c-1.8,0.4-3.7,0.8-5.5,1.2c-0.1-0.3-0.1-0.7,0-1c2.1-0.5,4.2-0.9,6.5-1.4
	c-1.2-0.9-2.3-1.8-3.4-2.7c1.5-0.3,3-0.5,4.5-0.7c1,0.8,2.1,1.5,3.1,2.3c0.2,0.2,0.4,0.1,0.6,0c2.8-0.6,5.6-1.2,8.4-1.8
	C97.2,49.8,97.2,50.2,97.1,50.5"/>
<path class="st9" d="M51.8,94.6c0.5,0.5,1.2,0.6,1.8,0.8c1.8,0.7,3.7,1.3,5.7,1.5c1.1,0.1,2.1-0.1,3.1-0.3c2.6-0.5,5.1-1.3,7.6-2
	c-0.3,1.8-0.3,1.8-2,2.3c-3.4,0.9-6.8,1.6-10.3,1.4c-0.7,0-1.4-0.1-2.1-0.3c-2.3-0.7-4.5-1.4-6.9-2.2C49.8,95.3,50.8,95,51.8,94.6"
	/>
<path class="st11" d="M46.5,86.5c-1.5,0.8-2.9,1.7-4.4,2.6c-2.8,1.7-5.5,3.3-8.4,4.9c-2.9,1.7-5.8,3.3-8.9,4.7
	c-2.1,1-4.3,1.9-6.7,2.2c-1.2,0.2-2.5,0.2-3.7-0.2C12,99.8,9.5,99,7.2,97.9c-1-0.5-2-0.9-2.7-1.8c0.6,0.3,1.2,0.5,1.8,0.8
	c2.6,1.2,5.2,2.4,8,3.2c2.3,0.7,4.5,0.4,6.7-0.4c3.6-1.4,7-3.3,10.3-5.2c2.2-1.3,4.4-2.5,6.6-3.7c2.7-1.6,5.5-3.2,8.2-4.8
	c0,0,0.1,0,0.1,0L46.5,86.5z"/>
<path class="st9" d="M64.9,70.4c-0.4,0.7-1.1,1.3-1.7,1.8c-1.9,1.6-4.1,2-6.6,1.6c-4.4-0.6-8.8-1.5-13.2-2.5c-0.5-0.1-1-0.3-1.6-0.4
	c1.6,0.1,3.2,0.2,4.9,0.4c2.1,0.2,4.3,0.3,6.4,0.3c2,0.1,4,0.1,6,0.2c0.9,0,1.7-0.2,2.5-0.4C62.8,71,63.8,70.7,64.9,70.4"/>
<path class="st9" d="M97.2,49.5c-2.8,0.6-5.6,1.2-8.4,1.8c-0.2,0-0.4,0.1-0.6,0c-1-0.8-2-1.5-3.1-2.3c4-0.6,8-1.3,12-1.9
	c0.3-0.1,0.4,0,0.3,0.3C97.4,48.1,97.3,48.8,97.2,49.5"/>
<path class="st1" d="M115.7,75.7c-0.1,2.9-0.5,5.5-2,7.8c-0.4,0.6-0.9,1.1-1.4,1.6c-1,0.9-1.9,0.8-2.7-0.3c-0.7-1-0.9-2.1-1.2-3.2
	c0-0.2-0.1-0.4-0.1-0.7c0-0.2,0-0.4,0.2-0.5c0.5-0.2,1-0.4,1.5-0.6c0.2-0.1,0.3,0,0.3,0.2c0,0.2,0,0.4,0.1,0.5
	c0.2,0.7,0.3,1.5,1.2,1.6c1,0.2,1.8-0.2,2.3-1.1c0.7-1.3,0.8-2.7,0.7-4.1c0-0.4-0.2-0.8-0.2-1.2c0-0.1-0.2-0.2-0.1-0.3
	c0.1-0.1,0.3,0,0.4,0.1C114.9,75.8,115.1,76.2,115.7,75.7"/>
<path class="st1" d="M109.9,86.2c-1.8,0.2-3.3-0.1-4.8-0.6c-1.1-0.4-1.6-1.3-2.1-2.3c0-0.1-0.1-0.2-0.1-0.2
	c-0.1-0.3-0.5-0.6-0.4-0.8c0.1-0.2,0.5-0.3,0.8-0.5c0.5-0.3,0.9-0.5,1.3-0.8c0.9-0.6,1.9-0.3,2.8-0.3c0.3,0,0.2,0.3,0.2,0.5
	c-0.1,1.3,0.1,2.5,0.7,3.6C108.7,85.3,109.2,85.7,109.9,86.2"/>
<path class="st0" d="M51.3,5.8C49.1,5.9,47,5.9,44.8,6c-3.6,0.1-7.2,0.2-10.7,0.5c-0.4,0-0.9,0-1.3,0c-0.2-0.1-0.3,0.1-0.5-0.1
	c0.2,0,0.5,0,0.7-0.1c2.1-0.5,4.3-0.8,6.5-1c2.4-0.3,4.9-0.6,7.3-0.7c2.5-0.2,5-0.4,7.5-0.4c0.9,0,1.8,0,2.7,0c1.1,0,2.2,0,3.3,0.1
	c-1.4,0.1-2.8,0.2-4.2,0.3c-1.4,0.1-2.8,0.3-4.2,0.9C51.5,5.5,51.3,5.6,51.3,5.8"/>
<path class="st9" d="M44.4,58.5c-2.6,0-4.7,1.4-5.3,3.6c-0.8,2.7,0.3,5.7,2.5,7.4c0.2,0.1,0.4,0.3,0.7,0.5c-1.3-0.1-2.4-0.3-3.5-0.4
	c-0.3,0-0.1-0.2-0.1-0.3c0.1-0.3-0.1-0.5-0.4-0.5c-0.3,0-0.4,0.1-0.5,0.4c0,0.1,0.2,0.3-0.1,0.3c-0.2,0-0.1-0.2-0.1-0.4
	c0.1-0.8,0.2-1.5,0.2-2.3c0.2-3,0.2-6.1,0.2-9.1c0.4-0.2,0.7,0.1,1.1,0c1,0.4,2.1,0.4,3.2,0.5c0.8,0.1,1.6,0.2,2.4,0.2
	C44.8,58.6,44.6,58.5,44.4,58.5 M38.8,58.7c0.2-0.1,0.4-0.2,0.4-0.5c0-0.2-0.2-0.4-0.4-0.4c-0.3,0-0.4,0.2-0.4,0.4
	C38.4,58.5,38.6,58.7,38.8,58.7"/>
<path class="st9" d="M38.8,56.9c0.4-0.5,0.8-0.6,1.4-0.5c4,0.5,8,0.6,12.1,0.3c4.1-0.4,8.2-1,12.2-1.7c0.7-0.1,1.3-0.4,2.1-0.3
	c-1.7,0.9-3.4,1.7-5.2,2.4c-0.1-0.1-0.2-0.1-0.3-0.1c-1.5,0.3-2.9,0.3-4.4,0.3c-4.8,0.1-9.6,0.1-14.4-0.1
	C41.1,57.1,39.9,57.2,38.8,56.9"/>
<path class="st13" d="M64.9,61.2c-1.5,0.6-2.9,1.2-4.6,1.2c-1.1,0-2.2,0-3.3-0.1c-0.2,0-0.5,0-0.7,0c-0.3-0.8-0.6-1.6-0.8-2.4
	c0.1-0.1-0.1-0.2,0-0.3c0.1,0,0.2,0,0.2,0c0,0,0,0.1,0,0.1c0.2,0.3,0.5,0.3,0.8,0.3c0.9,0.1,1.9,0,2.8-0.2c0.6-0.1,1.2,0,1.6-0.6
	c1.3-0.4,2.7-0.7,4.1-1.3V61.2z M61,60.1c-1.6,0.2-3.1,0.1-4.7,0.2C57.1,60.9,59.9,60.8,61,60.1 M57,61.6c0.9,0.5,2.6,0.6,3.4,0.1
	C59.3,61.8,58.2,61.6,57,61.6 M60.8,60.9c-1.3,0.1-2.6-0.1-4.1,0C58.2,61.5,59.5,61.2,60.8,60.9"/>
<path class="st5" d="M74.3,47.1c0.1-2.7,0.1-5.4,0.2-8.1c0.1-2,0-4,0.1-6c0.1-1.6,0-3.2,0.1-4.8c0-0.2-0.1-0.6,0.3-0.6
	c0.4,0,0.4,0.3,0.4,0.6c-0.3,3-0.1,6-0.1,9c0,3.3,0,6.5,0,9.8c0,0.8,0.2,1.5,0.1,2.3c0,0.5-0.3,0.6-0.7,0.6c-0.5,0-0.4-0.3-0.4-0.6
	C74.3,48.6,74.3,47.9,74.3,47.1"/>
<path class="st0" d="M51.3,5.8c0.1-0.2,0.2-0.3,0.5-0.4c1.3-0.5,2.8-0.8,4.2-0.9c1.4-0.1,2.8-0.2,4.2-0.3c0.2,0,0.3,0,0.5,0
	c0.6,0.2,1.3,0.1,2,0.1c1,0,2,0.1,3,0.2c0.3,0.1,0.5,0.2,0.8,0.4c0.4,0.2,0.8,0.3,0.9,0.8c-0.1,0-0.2,0-0.2,0
	c-0.4-0.2-0.7-0.1-1.1-0.1c-4.4,0-8.7,0-13.1,0C52.4,5.8,51.8,5.8,51.3,5.8"/>
<path class="st15" d="M9.7,58c-0.5-1.2-0.6-2.5-0.2-3.8c0.3-0.9,0.9-1.1,1.8-0.7c-0.9,0.2-1.3,0.9-1.5,1.8c0.1,0,0.2,0,0.3-0.1
	c0.6-0.5,1.2-0.5,1.9-0.4c0.2,0.1,0.5,0.3,0.7,0c0.5,0.6,0.8,1.3,1.2,2c0.1,0.2,0.2,0.4,0.3,0.6l0,0c-0.1,0.6,0.1,1.2-0.1,1.8
	c-0.1-0.5-0.1-1.1-0.3-1.6c0-0.1-0.1-0.4-0.3-0.4c-0.2,0-0.2,0.2-0.2,0.4c0,0.4-0.2,0.6-0.6,0.6c0.9,0.7,0.8,2.2,0.3,2.8
	c-0.2,0.2-0.6,0.2-0.6,0.6c-0.6-0.1-1-0.4-1.4-0.9c0.2-0.2,0-0.3,0-0.5c0.2,0,0.3,0.1,0.5,0.1c0.5,0,0.7-0.3,0.6-0.7
	c0.5-1.2,0.3-1.6-0.9-2C10.7,57.5,10.2,57.8,9.7,58 M11.3,56c0,0.4,0.3,0.6,0.6,0.6c0.3,0,0.5-0.2,0.5-0.5c0-0.4-0.2-0.6-0.7-0.6
	C11.4,55.5,11.3,55.7,11.3,56"/>
<path class="st9" d="M80.6,49.7c1.1,0.9,2.2,1.7,3.4,2.7c-2.2,0.5-4.3,0.9-6.5,1.4c0-1.1-0.1-2.3-0.1-3.4c0-0.3,0.1-0.3,0.3-0.3
	C78.7,49.9,79.7,49.7,80.6,49.7"/>
<path class="st12" d="M90.3,35.2c0-0.2,0-0.3,0-0.5c0.3-0.5,0.1-0.9,0-1.4c-0.1-0.3-0.1-0.4,0.3-0.4c1.2,0,2.5,0.2,3.7-0.1
	c0.3-0.1,0.5,0,0.5,0.4c-0.1,1.2-0.1,2.3-0.1,3.5c0,0.5-0.5,0.3-0.8,0.3c-0.7,0-1.4-0.1-2.1-0.2c-0.5,0-0.9,0-1.4-0.1
	c-0.1-0.3,0.1-0.7,0.1-1C90.4,35.6,90.5,35.4,90.3,35.2"/>
<path class="st14" d="M36.8,39c2.8-1.3,5.5-2.4,8.3-3.2c-0.9,0.5-1.8,1-2.7,1.6c-0.2,0.1-0.6,0.1-0.4,0.5c0.2,0.4,0.4,0.4,0.8,0.3
	c1.3-0.5,2.6-1,4-1.5c-0.4,0.9-0.7,1.8-1.1,2.7c-0.1,0.3-0.3,0.3-0.5,0.2C42.5,39.4,39.7,39.2,36.8,39"/>
<path class="st0" d="M56.9,4.2c-0.9,0-1.8,0-2.7,0c-2.5,0-5,0.2-7.5,0.4c-2.4,0.2-4.9,0.4-7.3,0.7c-2.2,0.3-4.3,0.6-6.5,1
	c-0.2,0-0.4,0.1-0.7,0.1c0.2,0.2,0.4,0,0.5,0.1c-1.1,0.1-2.2,0.2-3.3,0.3c-1,0.1-2.1,0.3-3.1,0.4c-0.1,0-0.1,0-0.2-0.1
	c1.7-0.6,3.3-1.1,5.1-1.4c5.2-1,10.6-1.4,15.9-1.6c2.9-0.1,5.7-0.1,8.6-0.1C56.1,4.1,56.5,4.1,56.9,4.2"/>
<path class="st9" d="M33.2,55.3c1.9,0.3,3.8,0.7,5.7,1c-0.8,0.4-1.4,0.7-2.4,0.5c-4.5-0.9-9.1-1.6-13.7-2.3
	c-2.5-0.4-5.1-0.8-7.6-1.4c0.3-0.5,0.6-0.7,1.3-0.6c1.1,0.2,2.3,0.1,3.3,0.5c0.1,0.1,0.2,0.1,0.4,0.1l0,0c0.1,0.2,0.3,0.2,0.4,0.2
	C24.7,54.7,28.9,55.4,33.2,55.3"/>
<path class="st16" d="M24.4,11.2c0-1.4,1-2.4,2.5-2.4c1.6-0.1,3.3-0.1,4.9-0.1c2.6-0.1,5.2-0.2,7.8-0.3c2.3-0.1,4.6-0.1,6.9-0.3
	c1.3-0.1,2.6,0,3.8-0.2c0.3-0.1,0.7,0,1,0C52,7.9,52.6,8,53.2,8c-2.2,0.1-4.4,0.2-6.6,0.3C41.3,8.6,36,8.9,30.8,9.2
	c-1.2,0.1-2.4,0.2-3.5,0.2c-1.1,0-2,0.6-2.6,1.5C24.6,11,24.5,11.1,24.4,11.2"/>
<path class="st9" d="M40.1,65.5c-0.4-1.7-0.4-3.3,0.7-4.7c0.9,0,1.7,0.5,2.6,0.4c-0.1,0.7-0.3,1.4-0.3,2.1c0,0.2-0.1,0.3-0.3,0.3
	c-0.4,0.1-0.7,0.2-1.1,0.3c-0.2,0.1-0.3,0.2-0.3,0.4c0,0.2,0.2,0.3,0.4,0.3c0.2,0,0.4,0,0.6-0.1c0.6-0.2,0.9,0.1,0.9,0.7
	C42.3,65.4,41.1,65.3,40.1,65.5"/>
<path class="st9" d="M18.1,52.4c-1.3-0.4-2.5-0.7-3.6-1.4c-1.6-0.9-1.4-0.7-1.2-2.8c1,0.6,2,0.9,3.2,1.1c0.2,0,0.4,0.1,0.6,0.1
	c0.9,0,0.9,0,1,0.9C18,50.9,18,51.6,18.1,52.4"/>
<path class="st9" d="M38.8,56.9c1.1,0.3,2.2,0.2,3.3,0.2c4.8,0.2,9.6,0.2,14.4,0.1c1.5,0,3,0,4.4-0.3c0.1,0,0.2,0,0.3,0.1
	c-1.6,0.7-3.3,0.9-5,0.9c-4.6-0.1-9.2-0.3-13.8-0.4c-0.9,0-1.8,0-2.6,0c-0.2,0-0.4-0.1-0.6,0.1c-0.4,0.1-0.7-0.2-1.1,0
	C38.1,57.1,38.6,57.1,38.8,56.9"/>
<path class="st9" d="M15.5,52.3c-0.7,0.6-1.4,0.6-2.2,0.3c-1.4-0.5-2.8-0.9-4.1-1.7c-0.4-0.3-0.4-0.5,0-0.7c0.9-0.5,1.8-0.8,2.7-1.2
	c0.3-0.1,0.4,0,0.3,0.2c-0.3,1.6,0.9,2.1,2.1,2.7C14.7,52,15.1,52.1,15.5,52.3"/>
<path class="st9" d="M14.2,57.6L14.2,57.6c0-1.7-0.8-3-1.9-4.2c-0.1-0.1-0.2-0.2-0.3-0.2c0,0,0,0,0-0.1c0.4,0.1,0.8,0.3,1.2,0.4
	c0.5,0.1,0,0.6,0.3,0.8c0.2,0.1,0.6-0.1,0.7,0.5c0.2,2,0.6,4,1,6c0.2,1,0.4,2,0.7,3c-0.1,0-0.2,0-0.3,0c-0.3,0-0.4,0.2-0.4,0.5
	c0.1,0.3,0.3,0.4,0.5,0.2c0.6-0.3,0.3,0.2,0.6,0.5c-1.6-0.5-3-1-4.3-1.6c1.1,0,1.3-0.2,1.6-0.9C14.9,61.3,15.2,59,14.2,57.6"/>
<path class="st5" d="M76.3,12.7c0,0.1,0,0.2,0,0.2c-0.3,0-0.4,0.1-0.4,0.4c-0.1,1-0.2,2-0.2,3c0,1.8-0.1,3.5-0.2,5.3
	c-0.1,1.6,0,3.2-0.1,4.8c0,0.3,0,0.6-0.5,0.5c-0.4-0.1-0.2-0.3-0.2-0.6c0-1.3,0-2.5,0.1-3.8c0.1-2.1,0-4.2,0.1-6.3c0-1,0.1-2,0.1-3
	c0-0.7,0.1-0.7,0.7-0.6C76,12.7,76.1,12.7,76.3,12.7"/>
<path class="st9" d="M44.3,67.2c1.1,1.4,2.5,2.3,4.4,2.3c-2.2,1.2-5.4,0.5-7.2-1.4C42.5,67.8,43.4,67.6,44.3,67.2"/>
<path class="st9" d="M44.3,67.2c-0.9,0.4-1.9,0.6-2.8,0.8c-0.8-0.7-1.3-1.6-1.5-2.6c1.1-0.2,2.2-0.1,3.3-0.2
	C43.6,65.9,43.9,66.6,44.3,67.2"/>
<path class="st0" d="M74.2,9c-0.9,0.5-1.5,1.2-2.3,1.8c-0.3,0.2-0.6,0.5-0.9,0.7c-0.5-0.6-1.1-1.2-1.7-1.7c0.4-0.3,0.9-0.6,1.1-1.1
	c1.3,0,2.5,0,3.8,0C74.2,8.7,74.2,8.8,74.2,9"/>
<path class="st17" d="M104.9,48.8c-2.2,0.5-4.4,1-6.6,1.4c-0.1,0-0.3,0-0.4,0.1c0-0.3,0-0.6,0-1c0.7-0.2,1.3-0.3,2-0.5
	c1-0.2,2-0.4,3.1-0.7c0.7-0.1,1.3-0.2,2-0.4C105,48.2,104.9,48.5,104.9,48.8"/>
<path class="st13" d="M33.2,55.3c-4.3,0.1-8.5-0.6-12.6-1.9c-0.2,0-0.3-0.1-0.4-0.2c1.5,0.1,2.9,0.4,4.3,0.7
	c2.3,0.4,4.5,0.7,6.8,1.1C32,55,32.6,55.1,33.2,55.3"/>
<path class="st9" d="M102.9,48.2c-1,0.2-2,0.4-3.1,0.7c0.3-0.8,0.7-1.6,1-2.5c0.9-0.2,1.8-0.3,2.7-0.5L102.9,48.2z"/>
<path class="st9" d="M100.8,46.4c-0.3,0.8-0.7,1.6-1,2.5c-0.7,0.2-1.3,0.3-2,0.5c0-0.7,0-1.3,0-2c0-0.3,0.1-0.4,0.4-0.5
	C99.1,46.7,100,46.6,100.8,46.4"/>
<path class="st3" d="M111.2,79.9c-0.4-0.4-0.2-0.9-0.4-1.4c0.9-0.4,0-1.3,0.4-1.9c0.1-0.2,0.2-0.4,0.4-0.5c0.1,0.1,0.1,0.2,0.1,0.3
	c0,0.1,0,0.3,0.2,0.3c0.2,0,0.2-0.2,0.2-0.3c-0.2-0.7,0.3-0.8,0.7-1c0.3,1.4,0.1,2.8-0.7,4.1C111.9,79.8,111.6,79.9,111.2,79.9
	 M112,78.6c0.2-0.1,0.2-0.2,0.2-0.3c0-0.1,0-0.3-0.2-0.2c-0.2,0-0.1,0.2-0.1,0.4C111.7,78.4,111.8,78.6,112,78.6 M112.6,77
	c0-0.1,0-0.3-0.2-0.3c-0.2,0-0.2,0.2-0.2,0.3c0,0.1,0,0.3,0.2,0.3C112.6,77.3,112.6,77.2,112.6,77"/>
<path class="st9" d="M43.4,61.2c-0.9,0.1-1.7-0.4-2.6-0.4c0.8-1.1,2-1.5,3.1-1.9c0.2-0.1,0.5,0,0.5-0.4c0.2,0,0.4,0.1,0.5-0.1h0.9
	C44.7,59,43.9,60,43.4,61.2"/>
<path class="st1" d="M84,32.9c0.3-0.6,0.9-0.9,1.4-1.2c0.2-0.1,0.5-0.1,0.6-0.4c1.5-0.1,2.7,0.4,3.4,1.8c0,0.5,0.3,1,0.2,1.6
	c0,0-0.1-0.1-0.1-0.1c-0.5-1.9-2.2-2.3-3.9-2.1C85,32.6,84.5,32.8,84,32.9L84,32.9z"/>
<path class="st8" d="M11.2,60.3c0,0.2,0.2,0.3,0,0.5C10.4,60,10,59.1,9.7,58c0.5-0.3,1-0.5,1.7-0.3c1.2,0.4,1.4,0.8,0.9,2
	c-0.4,0.1-0.9,0.3-1.3,0c0,0,0,0-0.1,0l0,0.1c0,0.1,0,0.3,0.1,0.4C11.1,60.2,11.1,60.3,11.2,60.3L11.2,60.3z"/>
<path class="st0" d="M74.1,7.5c-0.9-0.7-1.9-0.8-3-1.1c-0.6-0.2-1.3-0.2-2-0.4c0.2,0,0.3,0,0.6,0c-0.3-0.3-0.6-0.6-0.9-0.8
	c1.6,0.3,3.2,0.7,4.8,0.8c0.4,0,0.4,0.5,0.6,0.8C74.3,7,74.5,7.3,74.1,7.5L74.1,7.5z"/>
<path class="st13" d="M33.6,51.4c0,1.2-0.1,2.4,0.1,3.6c-1.3-0.2-1.3-0.2-1.4-1.5c0-0.6,0-1.3,0-1.9c0-0.4,0.1-0.5,0.4-0.4
	C33,51.3,33.3,51.4,33.6,51.4"/>
<path class="st4" d="M111.2,79.9c0.4,0,0.8-0.1,1-0.5c0.8-1.3,1-2.6,0.7-4.1c0.1-0.1,0.2-0.1,0.3-0.2c0.2,1,0.1,2-0.1,3
	c0.4-1,0.5-2,0.2-3.1c0.1-0.1,0.1-0.1,0.2-0.2c0.1,0,0.1-0.1,0.3-0.1c0,1.3,0.1,2.6-0.2,3.9c-0.4,0.1-0.3,0.5-0.4,0.8
	c-0.4,0.8-1,1.2-1.9,1.1l0,0c0-0.1,0-0.3-0.1-0.4C111,80.1,111,80,111.2,79.9"/>
<path class="st13" d="M67.4,61.8c0-0.1,0-0.1,0-0.2c0-0.5,0.1-1.1,0.6-1.4c0.2-0.1,0.4,0,0.6,0.1c0.4,0.5,0.7,1,0.6,1.6
	c0,0.1-0.1,0.2-0.1,0.3c-0.2,0.4-0.4,1-1,1c-0.6-0.1-0.7-0.7-0.7-1.3C67.4,62,67.4,61.9,67.4,61.8"/>
<path class="st9" d="M102.9,48.2c0.2-0.8,0.4-1.5,0.6-2.3c0.5-0.1,1-0.3,1.6-0.4c-0.1,0.8-0.1,1.6-0.2,2.4
	C104.3,48,103.6,48.1,102.9,48.2"/>
<path class="st13" d="M69.1,67.3c-1.2,0.8-2.5,1.3-3.8,1.8c-0.3,0.1-0.7,0.3-1.1,0.3c0.5-0.4,1-0.9,1.5-1.5c1-0.3,1.9-0.7,2.9-1
	C68.9,66.9,69.1,66.9,69.1,67.3"/>
<path class="st13" d="M32.3,46.8c1.2,0.1,1.2,0.1,1.3,1.3c0,0.4,0,0.8,0.1,1.1c-1.4,0.1-1.4,0.1-1.4-1.3
	C32.2,47.6,32.3,47.2,32.3,46.8"/>
<path class="st8" d="M12.6,61.8c0-0.4,0.4-0.3,0.6-0.6c0.5-0.6,0.6-2.2-0.3-2.8c0.4-0.1,0.6-0.3,0.6-0.6c0-0.2,0-0.4,0.2-0.4
	c0.2,0,0.2,0.2,0.3,0.4c0.2,0.5,0.2,1.1,0.3,1.6c0,0.6-0.1,1.2-0.4,1.7C13.5,61.6,13.1,61.9,12.6,61.8"/>
<path class="st7" d="M12.8,55c-0.2,0.3-0.5,0.1-0.7,0c-0.7-0.2-1.4-0.1-1.9,0.4c-0.1,0-0.1,0.1-0.3,0.1c0.2-0.9,0.6-1.6,1.5-1.8
	C12,53.9,12.4,54.4,12.8,55"/>
<path class="st9" d="M10.8,52.5c-1.1,0-1.8,0.6-2.3,1.5c0-0.6,0-1.1,0-1.7c0-0.2,0.1-0.2,0.2-0.2c0.5-0.3,0.5-0.5,0-0.8
	c-0.2-0.1-0.2-0.1-0.2-0.5C9.2,51.5,10,52,10.8,52.5"/>
<path class="st5" d="M17.8,48.8c-1.4-0.4-2.9-0.8-4.3-1.2c-0.3-0.1-0.2-0.4-0.2-0.6c0.1-0.3,0.3-0.1,0.4,0c1,0.5,2.1,0.8,3.2,0.8
	C17.8,47.9,17.8,47.9,17.8,48.8"/>
<path class="st0" d="M70.5,7.8c-1.8,0.2-3.7,0-5.5,0.1c-0.2,0-0.4,0-0.6,0c-1.1,0-2.1-0.2-3.2-0.1c-0.1,0-0.2,0-0.2-0.1
	C64.1,7.4,67.3,7.4,70.5,7.8"/>
<path class="st18" d="M13.7,62.4c-0.3,0.7-0.6,0.8-1.6,0.9c-0.2,0-0.5-0.1-0.7-0.3c-0.1-0.1-0.1-0.1-0.2-0.1l0,0
	c-0.4-0.5-0.7-1.1-1.2-1.5c0-0.2-0.1-0.4-0.2-0.6c0-0.1,0-0.3,0.1-0.4c0.5,0.7,1,1.4,1.7,1.8C12.1,62.7,12.9,62.8,13.7,62.4"/>
<path class="st0" d="M68.8,5.2c0.3,0.3,0.6,0.5,0.9,0.8c-0.2,0-0.4,0-0.6,0c-0.6-0.1-1.2-0.1-1.8-0.2c-0.1-0.5-0.5-0.6-0.9-0.8
	c-0.3-0.1-0.5-0.2-0.8-0.4C66.7,4.7,67.8,4.8,68.8,5.2"/>
<path class="st13" d="M60.8,59.3c-0.4,0.6-1.1,0.5-1.6,0.6c-0.9,0.1-1.9,0.2-2.8,0.2c-0.3,0-0.6,0-0.8-0.3c0.5-0.1,1.1,0.1,1.6-0.1
	c1.1,0,2.1-0.2,3.2-0.3c0.1,0,0.2,0,0.3-0.1C60.7,59.3,60.8,59.3,60.8,59.3"/>
<path class="st0" d="M67.3,8.7c0.6-0.2,1.2-0.1,1.8-0.1c0.4,0,0.9,0,1.3,0c-0.2,0.6-0.7,0.8-1.1,1.1C68.6,9.4,68,9,67.3,8.7"/>
<path class="st14" d="M80.7,30.1c0.6,0.6,1.2,1.1,1.7,1.6c0.1,0.1,0.3,0.2,0.2,0.3c-0.1,0.2-0.3,0.2-0.5,0.2
	C81,32,80.7,31.4,80.7,30.1"/>
<path class="st13" d="M69.1,67.3c0-0.5-0.2-0.5-0.5-0.3c-1,0.4-1.9,0.8-2.9,1c0.1-0.2,0.2-0.3,0.2-0.5c1.1-0.4,2.2-0.7,3.3-1.1
	C69.2,66.7,69.2,67,69.1,67.3"/>
<path class="st3" d="M111.2,80.6c0.9,0.1,1.5-0.3,1.9-1.1c0.1-0.3,0.1-0.7,0.4-0.8c-0.1,0.6-0.2,1.2-0.5,1.7
	c-0.2,0.3-0.4,0.5-0.7,0.7C111.7,81.4,111.5,81.3,111.2,80.6"/>
<path class="st13" d="M69.4,55.2c-0.8,0.4-1.6,0.8-2.4,1.3c-0.4,0.2-0.7,0.3-1.2,0.1c1.3-0.6,2.4-1.2,3.6-1.6
	C69.4,55,69.4,55.1,69.4,55.2"/>
<path class="st18" d="M9.8,61.4c0.5,0.4,0.9,0.9,1.2,1.5c-0.5,0-0.8-0.6-1.3-0.3c-0.3-0.2-0.4-0.4-0.4-0.7
	C9.4,61.7,9.7,61.6,9.8,61.4"/>
<path class="st8" d="M69,29.8v5.9c-0.2-0.2-0.1-0.4-0.1-0.5c0-2.9,0-5.8,0-8.7c0-0.2-0.1-0.4,0.1-0.6C69,27.2,69,28.5,69,29.8"/>
<path class="st0" d="M53.2,8c-0.6,0-1.2-0.1-1.8-0.1c2.2-0.1,4.4-0.1,6.5-0.2c0.2,0,0.3,0,0.5,0.1C56.7,7.9,54.9,7.9,53.2,8"/>
<path class="st18" d="M9.7,60.5c-0.1,0.1-0.1,0.2-0.1,0.4c-0.4,0.1-0.6,0-0.6-0.4c-0.1-0.7-0.3-1.3-0.2-2l0,0
	C9,59.1,9.3,59.8,9.7,60.5"/>
<path class="st3" d="M113.2,75.1c0.4,1,0.2,2.1-0.2,3.1C113.2,77.2,113.3,76.2,113.2,75.1C113.1,75.1,113.2,75.1,113.2,75.1"/>
<path class="st0" d="M58.4,7.8c-0.1-0.1-0.3-0.1-0.5-0.1c0.5-0.1,1-0.2,1.5,0c0.3,0.1,0.6,0,0.9-0.1c-0.2,0.3-0.5,0.1-0.8,0.2
	C59.2,7.9,58.8,7.8,58.4,7.8"/>
<path class="st15" d="M95.7,46.4c0.3-0.2,0.7-0.2,1.1-0.3c0.1,0.1,0.2,0.1,0.3,0c0.3,0,0.6,0,1,0c0,0,0,0,0.1,0.1
	C97.3,46.2,96.5,46.4,95.7,46.4"/>
<path class="st19" d="M90.3,36.8c0.5,0,0.9,0,1.4,0.1c-0.4,0.4-0.9,0.1-1.2,0.2c-0.1,0-0.2,0.1-0.3,0C90.1,37,90.2,36.9,90.3,36.8"
	/>
<path class="st7" d="M92.8,46.6c0.5-0.1,1-0.1,1.5-0.2c0,0.2,0,0.2-0.2,0.2c-0.4,0.1-0.9,0.1-1.3,0.2c0,0-0.2,0-0.1-0.1
	C92.7,46.7,92.7,46.7,92.8,46.6"/>
<path class="st18" d="M9.1,83.4C9.2,84,9,84.3,8.4,84.3C8.6,84,8.8,83.7,9.1,83.4"/>
<path class="st3" d="M98.1,46.1C98.1,46.1,98.1,46.1,98.1,46.1c0.6-0.3,1.2-0.3,1.9-0.3C99.4,45.9,98.8,46,98.1,46.1"/>
<path class="st18" d="M10.8,81.5c0.1,0.3-0.1,0.6-0.3,0.8c0,0.1-0.1,0.1-0.1,0.1c-0.1-0.1-0.1-0.2-0.1-0.3
	C10.4,81.8,10.6,81.7,10.8,81.5"/>
<path class="st3" d="M76.2,35.8c0.5-0.2,0.1,0.4,0.3,0.4c-0.5,0.2-0.1,0.7-0.3,1L76.2,35.8z"/>
<path class="st5" d="M97.7,37.3c0.3,0,0.6,0,1,0C98.3,37.7,98,37.8,97.7,37.3"/>
<path class="st0" d="M62.6,4.4c-0.7,0-1.3,0.1-2-0.1C61.3,4.3,61.9,4.3,62.6,4.4"/>
<path class="st15" d="M57.2,59.6c-0.5,0.2-1.1,0.1-1.6,0.1c0,0,0-0.1,0-0.1C56.1,59.6,56.7,59.6,57.2,59.6"/>
<path class="st0" d="M66,5.8c0.4,0,0.7-0.1,1.1,0.1C66.7,5.9,66.3,5.9,66,5.8"/>
<path class="st20" d="M45.1,81.9c0.4,0.1,0.4,0.3,0.4,0.6C45.2,82.3,45.1,82.1,45.1,81.9"/>
<path class="st21" d="M14.5,77.3c0,0.3-0.1,0.5-0.4,0.5C14.2,77.6,14.3,77.5,14.5,77.3"/>
<path class="st21" d="M14.8,77c0.1,0.1,0.2,0.2,0.1,0.3c-0.1,0.1-0.2,0-0.2-0.1C14.7,77,14.8,77,14.8,77"/>
<path class="st8" d="M55.3,59.6c0,0.1,0.2,0.2,0,0.3C55.3,59.9,55,59.8,55.3,59.6"/>
<path class="st18" d="M8.1,84.6c0,0.2,0,0.4-0.3,0.3C7.9,84.8,8,84.7,8.1,84.6"/>
<path class="st18" d="M8.4,84.3c0.1,0.3-0.1,0.2-0.2,0.3C8.2,84.5,8.3,84.4,8.4,84.3"/>
<path class="st22" d="M20.3,53.1c-0.2,0-0.3,0-0.4-0.1C20,53,20.2,53,20.3,53.1"/>
<path class="st3" d="M111.1,80.3c0.2,0.1,0.1,0.2,0.1,0.4C111.1,80.6,111.1,80.4,111.1,80.3"/>
<path class="st18" d="M9.4,83.2c0,0.2-0.1,0.3-0.2,0.3C9.2,83.4,9.3,83.3,9.4,83.2"/>
<path class="st20" d="M44.9,81.6c0.1,0,0.2,0.1,0.2,0.3C45,81.8,44.9,81.7,44.9,81.6"/>
<path class="st4" d="M15,38.3c0-0.1-0.1-0.1-0.1-0.2c0,0,0-0.1,0.1-0.1C15,38.1,15,38.2,15,38.3"/>
<path class="st7" d="M60.7,59.3c-0.1,0.1-0.2,0.1-0.3,0.1C60.5,59.3,60.6,59.2,60.7,59.3"/>
<path class="st21" d="M11.1,62.9c0.1,0,0.2,0,0.2,0.1C11.2,63,11.1,63,11.1,62.9"/>
<path class="st20" d="M15.4,66.9c0,0.1,0,0.1,0.1,0.2C15.4,67,15.4,67,15.4,66.9"/>
<path class="st20" d="M24.3,11.3c0-0.1,0.1-0.1,0.1-0.2C24.4,11.2,24.3,11.3,24.3,11.3"/>
<path class="st4" d="M49.5,35.7C49.5,35.7,49.5,35.7,49.5,35.7C49.5,35.7,49.5,35.7,49.5,35.7L49.5,35.7z"/>
<polyline class="st21" points="8.8,58.4 8.7,58.4 8.8,58.4 8.8,58.4 "/>
<path class="st21" d="M14.6,77.2c0,0.1-0.1,0.1-0.1,0.2C14.5,77.3,14.6,77.2,14.6,77.2"/>
<path class="st6" d="M18.2,37.6c0-0.1,0-0.2,0.1-0.3C18.3,37.4,18.3,37.6,18.2,37.6"/>
<path class="st6" d="M18.2,37.7C18.1,37.7,18.1,37.6,18.2,37.7l0-0.1C18.2,37.6,18.2,37.7,18.2,37.7"/>
<path class="st6" d="M114,45.4c0,0.1-0.1,0.1-0.2,0.2C113.7,45.4,113.9,45.4,114,45.4"/>
<path class="st6" d="M95,20.6c0,0-0.1,0-0.1,0C94.9,20.6,94.9,20.6,95,20.6"/>
<path class="st18" d="M30.2,66.9c-3.6,0-6.8-1.1-10-2.6c-1.1-0.5-2.1-1.1-3-1.8c-0.4-0.3-0.6-0.7-0.7-1.2c0-1.1-0.1-2.2-0.2-3.2
	c0-0.4,0.1-0.5,0.5-0.5c1.8,0.2,3.5,0.5,5.3,0.7c0.3,0.1,0.5,0.4,0.6,0.6c0.4,0.7,1,1.1,1.9,1.1c0.8,0,1.5,0.2,2.3,0.4
	c0.4,0.1,0.7,0,0.9-0.3c0.5-0.7,1-0.8,1.8-0.6c2.3,0.4,4.5,0.7,6.8,1c0.5,0.1,0.7,0.2,0.6,0.8c-0.2,0.9-0.3,1.8-0.4,2.8
	c-0.1,1-0.6,1.7-1.6,2.1C33.4,66.7,31.8,66.8,30.2,66.9 M22.6,60.1L22.6,60.1c0-0.1,0-0.2-0.1-0.2c-0.3-0.7-0.8-1-1.5-1.1
	c-1.1-0.2-2.2-0.5-3.3-0.7c-0.4-0.1-0.8-0.2-1.2-0.4c0.2,1.2,0.4,2.2,0.6,3.3c-0.1,0.9,0.6,1.1,1.1,1.5c1.5,1,3.1,1.6,4.8,2.2
	c2.5,0.9,5.1,1.4,7.8,1.3c1.2-0.1,2.4-0.1,3.6-0.7c0.1,0,0.1,0,0.2-0.1c0.1,0,0.1,0,0.2-0.1c0.3-0.2,0.8-0.3,0.8-0.7
	c0.1-0.8,0.2-1.6,0.4-2.3c0.1-0.6-0.1-0.8-0.6-0.9c-1.9-0.3-3.7-0.6-5.6-0.9c-0.7-0.1-1.1,0.1-1.4,0.6c-0.1,0.1-0.2,0.1-0.2,0.2
	c-0.2,0.2-0.4,0.2-0.7,0.1c-1.3-0.2-2.5-0.5-3.8-0.7c-0.3-0.1-0.5-0.2-0.7-0.4C22.7,60.2,22.6,60.1,22.6,60.1"/>
<path class="st5" d="M105.8,9.9L105.8,9.9C105.7,9.9,105.7,9.9,105.8,9.9C105.8,9.9,105.8,9.9,105.8,9.9"/>
<path class="st5" d="M28.2,101.2c-0.1-0.1-0.1-0.1-0.2-0.2c0,0,0.1,0,0.1-0.1C28.1,101,28.2,101.1,28.2,101.2
	C28.2,101.2,28.2,101.2,28.2,101.2"/>
<path class="st8" d="M46.3,66c-0.2-0.2-0.3-0.1-0.2,0.1c0.1,0.2,0.1,0.4,0.2,0.6c0,0-0.1,0-0.1,0.1c-0.8-0.4-1.2-1.1-1.5-1.9
	c-0.1-0.4,0-0.7,0.4-0.8c1.3-0.4,2.6-0.3,3.8,0.4c0.4,0.3,0.5,0.7,0.1,1c-0.1,0.2-0.3,0.3-0.4,0.4C47.9,66.1,47.1,66.2,46.3,66"/>
<path class="st8" d="M49.8,64.5c0.7,0,1.1-0.1,1.2-0.8c0-0.2,0.2-0.3,0.4-0.3c0.3,0,0.3,0.2,0.4,0.4c0.8,2-0.9,4.4-3,4.4
	c0,0-0.1,0-0.2-0.1c0.8-0.2,1.5-0.6,1.9-1.4C50.9,65.7,50.8,65.2,49.8,64.5"/>
<path class="st7" d="M50.4,61c-1.7-0.4-3.3-0.5-4.9,0.4c0.3-0.9,1.3-1.8,2-1.9C48.7,59.3,49.8,59.8,50.4,61"/>
<path class="st8" d="M48.7,62.7c-0.5,0-0.9-0.1-0.9-0.6c0-0.5,0.5-0.6,0.9-0.7c0.1,0,0.2,0,0.3,0c0.4,0.1,0.7,0.2,0.7,0.6
	c0,0.4-0.3,0.6-0.7,0.6C48.9,62.7,48.8,62.7,48.7,62.7"/>
<path class="st7" d="M46.3,66c0.8,0.2,1.6,0.1,2.3-0.1c0,0.6-0.2,0.8-1,1C47,66.9,46.5,66.5,46.3,66"/>
<path class="st8" d="M46.3,66.7c0.1,0.1,0.1,0.1,0,0.2C46.3,66.8,46.3,66.8,46.3,66.7C46.3,66.7,46.3,66.7,46.3,66.7"/>
<path class="st3" d="M84,32.9c0,0-0.1,0.1-0.1,0.1c0,0,0,0,0,0C83.9,33,83.9,32.9,84,32.9C84,32.9,84,32.9,84,32.9"/>
<path class="st18" d="M38.8,58.7c-0.3,0-0.4-0.2-0.4-0.4c0-0.2,0.2-0.4,0.4-0.4c0.2,0,0.4,0.1,0.4,0.4
	C39.2,58.5,39.1,58.7,38.8,58.7"/>
<path class="st13" d="M61,60.1c-1.1,0.7-3.9,0.8-4.7,0.2C57.9,60.1,59.4,60.3,61,60.1"/>
<path class="st13" d="M57,61.6c1.1-0.1,2.3,0.1,3.4,0.1C59.6,62.2,57.9,62.2,57,61.6"/>
<path class="st13" d="M60.8,60.9c-1.3,0.3-2.6,0.6-4.1,0C58.1,60.9,59.5,61,60.8,60.9"/>
<path class="st8" d="M11.3,56c0-0.3,0.1-0.5,0.4-0.5c0.4,0,0.6,0.3,0.7,0.6c0,0.3-0.1,0.5-0.5,0.5C11.6,56.7,11.3,56.4,11.3,56"/>
<path class="st7" d="M11.1,60.1c-0.1-0.1-0.1-0.2-0.1-0.4l0,0c0.4,0.3,0.9,0.1,1.3,0c0.1,0.4-0.1,0.8-0.6,0.7
	c-0.2,0-0.4-0.1-0.5-0.1l0,0C11.2,60.2,11.2,60.1,11.1,60.1"/>
<path class="st6" d="M112,78.6c-0.2,0-0.2-0.1-0.2-0.2c0-0.1,0-0.3,0.1-0.4c0.2-0.1,0.2,0.1,0.2,0.2C112.1,78.4,112.1,78.5,112,78.6
	"/>
<path class="st6" d="M112.6,77c0,0.1,0,0.3-0.2,0.3c-0.1,0-0.2-0.2-0.2-0.3c0-0.1,0-0.3,0.2-0.3C112.6,76.7,112.6,76.9,112.6,77"/>
<path class="st15" d="M11.1,60.1c0.1,0.1,0.1,0.1,0.1,0.3C11.1,60.3,11.1,60.2,11.1,60.1"/>
<path class="st7" d="M10.9,59.7L10.9,59.7C10.9,59.7,10.9,59.7,10.9,59.7C11,59.7,10.9,59.7,10.9,59.7"/>
<path class="st18" d="M28.1,60.9c0.3-0.5,0.8-0.7,1.4-0.6c1.9,0.3,3.7,0.6,5.6,0.9c0.6,0.1,0.8,0.3,0.6,0.9
	c-0.2,0.8-0.2,1.5-0.4,2.3c-0.1,0.4-0.5,0.5-0.8,0.7c-0.1,0-0.1,0-0.2,0.1c-0.1,0-0.1,0-0.2,0.1c0,0,0,0,0,0
	c-0.2-0.1-0.3-0.1-0.5-0.1c-1.9,0-3.7,0-5.6-0.3c-2.8-0.5-5.6-1.3-8.2-2.5c-0.1-0.1-0.3-0.1-0.4-0.3c1.3,0.3,2.5,0.6,3.7,0.9
	c1.2,0.3,2.4,0.6,3.7,0.8c1.2,0.3,2.5,0.5,3.8,0.7c1.2,0.2,2.5,0.5,3.7,0.5c-0.2-0.1-0.3-0.2-0.5-0.2c-2.9-0.5-5.7-1.1-8.6-1.7
	c-1.9-0.4-3.8-0.9-5.8-1.2c-0.7-0.1-1.1-0.3-1.3-1c-0.1-0.3-0.1-0.4,0.3-0.3c1.1,0.3,2.2,0.5,3.3,0.7c3.8,0.8,7.6,1.5,11.3,2.2
	c0.6,0.1,1.3,0.4,2.1,0.2c-3-0.7-5.9-1.3-8.8-1.9c-2.6-0.5-5.2-1-7.8-1.5c-0.4-0.1-0.5-0.2-0.6-0.6c-0.1-0.4,0-0.8-0.3-1.1
	c-0.1-0.2-0.1-0.4-0.1-0.6c1.1,0.2,2.2,0.5,3.3,0.7c0.7,0.1,1.2,0.5,1.5,1.1L18.4,59c0.9,0.4,1.7,0.6,2.6,0.8c0.5,0.1,1,0.3,1.5,0.2
	h0c0,0.1,0.1,0.1,0.1,0.1c0.2,0.2,0.4,0.3,0.7,0.4c1.3,0.2,2.5,0.5,3.8,0.7c0.2,0,0.5,0.1,0.7-0.1c2.5,0.5,5.1,0.8,7.6,1
	c-0.4-0.1-0.9-0.2-1.3-0.3C32.2,61.6,30.2,61.2,28.1,60.9"/>
<path class="st18" d="M34.3,65.2L34.3,65.2c-1.1,0.6-2.3,0.7-3.5,0.7c-2.7,0.1-5.3-0.4-7.8-1.3c-1.7-0.6-3.3-1.2-4.8-2.2
	c0.3-0.1,0.5-0.2,0.7-0.5c0.8,0.4,1.6,0.9,2.4,1.2C25.5,64.8,29.7,65.7,34.3,65.2"/>
<path class="st18" d="M17.7,58c0,0.2-0.1,0.4,0.1,0.6c0,0.8,0.3,1.5,0.4,2.3c-0.4,0-0.7,0-1.1,0c-0.2-1.1-0.4-2.1-0.6-3.3
	C16.9,57.8,17.3,57.9,17.7,58"/>
<path class="st18" d="M28.1,60.9c2,0.3,4,0.6,6.1,0.9c0.4,0.1,0.9,0.1,1.3,0.3c-2.6-0.2-5.1-0.5-7.6-1C28,61.1,28.1,61,28.1,60.9"/>
<path class="st18" d="M17.1,61c0.4,0,0.7,0,1.1,0c0.2,0.4,0.4,0.8,0.7,1c-0.2,0.2-0.4,0.4-0.7,0.5C17.6,62.1,16.9,61.8,17.1,61"/>
<path class="st18" d="M22.6,60.1c-0.5,0.1-1-0.1-1.5-0.2c-0.9-0.2-1.8-0.5-2.6-0.8l4.1,0.8C22.6,59.9,22.6,60,22.6,60.1"/>
<path class="st22" d="M34.4,65.2c0.1,0,0.1,0,0.2-0.1C34.5,65.1,34.5,65.2,34.4,65.2"/>
<path class="st22" d="M22.7,60.2c-0.1,0-0.1,0-0.1-0.1C22.6,60.1,22.7,60.2,22.7,60.2"/>
<path class="st18" d="M18.9,61.9c-0.4-0.2-0.6-0.6-0.7-1c-0.1-0.8-0.4-1.5-0.4-2.3c0.3,0.3,0.2,0.7,0.3,1.1c0.1,0.3,0.2,0.5,0.6,0.6
	c2.6,0.5,5.2,1,7.8,1.5c2.9,0.6,5.8,1.2,8.8,1.9c-0.8,0.2-1.4-0.1-2.1-0.2c-3.8-0.7-7.6-1.4-11.3-2.2c-1.1-0.2-2.2-0.4-3.3-0.7
	c-0.4-0.1-0.4,0-0.3,0.3c0.1,0.7,0.6,0.9,1.3,1c1.9,0.3,3.8,0.8,5.8,1.2c2.9,0.6,5.7,1.2,8.6,1.7c0.2,0,0.3,0.1,0.5,0.2
	c-1.3,0-2.5-0.3-3.7-0.5c-1.3-0.2-2.5-0.5-3.8-0.7c-1.2-0.3-2.5-0.5-3.7-0.8c-1.2-0.3-2.5-0.6-3.7-0.9c0,0.2,0.2,0.2,0.4,0.3
	c2.6,1.3,5.3,2.1,8.2,2.5c1.9,0.3,3.7,0.4,5.6,0.3c0.2,0,0.4,0,0.5,0.1c-4.5,0.5-8.8-0.4-13-2.1C20.5,62.8,19.7,62.4,18.9,61.9"/>
<path class="st23" d="M71.6,69.3v-0.7V52.4l-5.8,0.7L52.7,54l-19.5-1.2l-0.9-1.1l0.3-0.7l-0.1-4.7l-14.8-1.5l0.1,2.7l-4.4-1.1
	l-0.2,2.4l-1,0.2c0,0-3.2,1.2-3.3,1.5c0,0-0.7,0-0.3,2.3l0,1.4c0,0-0.7,9.2,3.1,9.3l2.5,0.8l3.1,10.2l3.3-3.7c0,0,11.4-0.3,18.6,4.8
	c0,0,5.3,5.7,8.8,13.4l2.8,4.8l0.3,1.2l-2.1,0.7l6.1,2c0,0,0.9,1.1,9.1,0.1l4.8-1.2c0,0,0.9-0.2,1.3-2.6L71.6,69.3z"/>
<polyline class="st18" points="14.5,77.3 14.5,77.3 14.5,77.3 14.5,77.3 "/>
<polygon class="st18" points="8.4,84.3 8.4,84.3 8.4,84.3 "/>
<path class="st11" d="M38.5,75C33,71.7,27,70.5,20.7,70.6c-0.2,0-0.3,0-0.5,0.2c-1.8,2.1-3.6,4.1-5.4,6.2c0.1,0.1,0.2,0.2,0.1,0.3
	c-0.1,0.1-0.2,0-0.2-0.1c0,0-0.1,0-0.1,0.1c0,0-0.1,0.1-0.1,0.1c0,0.3-0.1,0.5-0.4,0.5c-1.1,1.2-2.2,2.5-3.3,3.7
	c0.1,0.3-0.1,0.6-0.3,0.8c0,0-0.1,0.1-0.1,0.1c-0.1-0.1-0.1-0.2-0.1-0.3c-0.3,0.4-0.6,0.7-1,1.1c0,0.2-0.1,0.3-0.2,0.3v0
	C9.2,84,9,84.3,8.4,84.3c0.1,0.3-0.1,0.2-0.2,0.3l0,0c0,0.2,0,0.4-0.3,0.3c-1.2,1.3-2.3,2.6-3.5,3.9c-0.5,0.6-0.7,1.2-0.7,2
	c-0.2,0.9,0.4,1.3,1,1.6c1,0.5,1.8,1.2,2.8,1.5c1.3,0.5,2.5,1.1,3.8,1.6c1.4,0.4,2.9,0.6,4.3,1.1c0.9,0.3,1.9,0,2.7-0.3
	c0.4-0.1,0.7-0.2,1-0.4c3.9-1.8,4.1-2.5,6.6-4.2c1.3-0.9,2.6-1.8,3.9-2.7c1.6-1.1,3.3-2.3,4.9-3.5c2.1-1.4,4.1-3,6.1-4.5
	c0.5-0.4,1.1-0.7,1.6-1c0.1-0.1,0.1-0.1,0.2-0.2C41.9,77.8,40.4,76.2,38.5,75"/>
<path class="st23" d="M68,96.8c0,0,2.7-1.1,4.7-1c0,0,19.9-8.5,21.2-10.4c1.3-1.8,10.1-6,10.1-6l1.2-8l1.1-19.6v-2.8l-0.2-1
	l-0.5,0.2l0.2-3l-0.7,0.1l-6.9,1.4l-1.7,0.3l-15.9,2.5L77.8,50l-1,0.1l-1.2,0.2l-0.9,0c0,0-0.8-0.2-0.6,1.1l-1,0l-0.3,0l-0.5,0.2
	L68,96.8z"/>
<path class="st9" d="M102.7,81c-0.1,0.1,0.9-0.5,0.9-0.5l0.3-1.5l-1.2,0.2L102.7,81z"/>
<path class="st11" d="M104,80.1l0.7-5l2.4-8.4l3.3-2.6l2.8,0.5l1.4,0.8c0,0,0,3.9,0.1,4.3l0.6,3.6l-1.4-2.3l-1.8-0.5l-2.4,4.4
	l-0.6,2.7l-2.1,0.8l-2.2,0.7L104,80.1z"/>
<path class="st10" d="M41.6,80.7l1.3-0.8c0,0,6.6,9.9,7.7,13.8l-4.5-1L41.6,80.7z"/>
<path class="st10" d="M24,60.7c0,1.1-1,1.8-2.2,1.7l-10.3-1.4c-1.2-0.2-2.2-1.2-2.2-2.3l0.1-5.6c0-1.1,1-1.8,2.2-1.7l10.3,1.4
	c1.2,0.2,2.2,1.2,2.2,2.3L24,60.7z"/>
<path class="st10" d="M56.6,65c0,1.1-1.3,1.8-2.8,1.7L41,65.1c-1.5-0.2-2.7-1.2-2.7-2.3l0.1-5.6c0-1.1,1.3-1.8,2.8-1.7l12.8,1.5
	c1.5,0.2,2.7,1.2,2.7,2.3L56.6,65z"/>
<path class="st10" d="M32.9,66c0,3.9-2.8,7-6.3,7c-3.5,0-6.3-3.1-6.3-7c0-3.9,2.8-7,6.3-7C30,59,32.9,62.1,32.9,66z"/>
<path class="st0" d="M30.2,66c0,3.9-2.2,7-5,7c-2.8,0-5-3.1-5-7c0-3.9,2.2-7,5-7C27.9,59,30.2,62.1,30.2,66z"/>
</svg>
