<svg width="140" height="140" viewBox="0 0 140 140" fill="none" xmlns="http://www.w3.org/2000/svg">
<g clip-path="url(#clip0_384_106)">
<path d="M36.6386 186.964C36.5393 191.134 36.8372 194.709 37.4329 195.801C37.4329 195.9 37.5322 196 37.5322 196C38.9223 199.078 39.8159 206.326 40.0145 207.517C40.1138 208.808 39.518 213.673 39.7166 215.659C39.8159 216.652 39.8159 217.645 39.7166 218.638L38.9223 218.737C35.9436 219.134 35.9435 213.376 36.3407 211.886C36.7379 210.397 35.6457 207.22 35.6457 207.22C35.0499 208.908 34.5535 210.595 34.3549 212.283C34.3549 214.666 34.9506 217.049 36.2414 219.134C36.9365 219.929 41.3053 221.716 40.5109 223.007C39.8159 224.198 36.5393 222.908 36.2414 222.709C37.135 223.404 40.9081 224.099 39.9152 225.29C39.2201 226.283 37.7308 226.581 35.1492 225.29C34.5535 224.993 33.8584 225.39 33.0641 225.29C32.7662 225.29 32.4684 225.191 32.1705 224.993C31.6741 224.595 31.2769 224.099 30.8797 223.503C30.284 222.411 29.7875 221.22 29.3904 220.624C28.0003 218.439 28.0996 216.354 28.0003 214.369C28.0003 214.269 28.0003 214.17 28.0003 214.071C27.7024 211.191 27.0074 211.191 27.0074 209.503C27.206 207.915 27.7024 206.425 28.2982 204.936C30.3833 199.673 30.3833 191.432 30.1847 186.964C30.0854 185.177 29.9861 183.986 29.9861 183.986C29.4897 181.801 29.0925 179.815 28.6953 177.83C26.2131 164.723 26.7095 156.383 27.7024 150.525C28.1989 147.149 28.8939 144.666 29.2911 142.482C29.3904 142.184 29.3904 141.787 29.3904 141.489C29.9861 135.432 27.8017 128.581 27.0074 114.085C27.0074 113.489 26.9081 112.794 26.9081 112.099C26.8088 109.915 26.9081 108.028 27.1067 106.34C27.1067 105.844 27.206 105.347 27.3053 104.95C28.0996 100.482 29.6882 97.9996 31.2769 96.6095C31.3762 96.5102 31.3762 96.5102 31.4755 96.411C31.7733 96.2124 31.9719 96.0138 32.2698 95.8152C32.5677 95.6166 32.8655 95.4181 33.0641 95.3188C33.6599 95.0209 34.3549 94.723 35.0499 94.6237L38.2272 94.2266L38.5251 95.8152L40.1138 104.95L41.206 111.007C41.3053 115.078 41.3053 119.347 41.3053 123.22C41.3053 125.404 41.3053 127.39 41.3053 129.276C41.3053 129.574 41.3053 129.773 41.3053 130.071C41.3053 133.744 41.3053 136.227 41.3053 136.822C41.6031 139.404 40.8088 146.156 40.7095 147.744C40.7095 148.142 40.8088 149.333 40.9081 151.021C41.206 155.588 41.7024 163.532 39.6173 168.496C39.6173 168.595 39.518 168.695 39.518 168.794C38.6244 171.078 37.9294 174.354 37.5322 177.929C36.9365 180.908 36.7379 184.085 36.6386 186.964Z" fill="#883A20"/>
<path d="M111.702 351.092C111.603 351.191 111.504 351.39 111.404 351.489C110.511 352.184 109.518 352.581 108.426 352.78H108.326C102.071 354.369 95.6171 355.759 89.1632 356.851C85.9859 357.347 82.7093 357.745 79.532 357.943C75.8582 358.241 72.2837 358.34 68.61 358.142C56.0993 357.645 44.1844 353.376 32.2695 350.198C30.1844 349.702 27.9007 348.908 27.1064 347.021C26.8085 346.128 26.7093 345.234 26.9078 344.34C27.4043 340.369 29.3901 336.695 30.1844 332.823C30.2837 332.525 30.2837 332.227 30.383 331.929C30.7802 329.248 30.8795 326.468 30.9788 323.787C31.0781 321.901 31.0781 320.113 31.1773 318.326C31.4752 312.567 31.8724 288.837 32.071 269.177C32.071 266 32.1703 262.922 32.1703 260.042C32.1703 256.667 32.2695 253.589 32.2695 250.908C32.3688 246.936 32.3688 243.858 32.4681 242.269C32.4681 242.071 32.4681 241.972 32.4681 241.773C32.6667 236.312 32.8653 230.851 32.9646 225.489C33.0639 223.702 33.0639 221.816 33.0639 220.028C33.0639 219.929 33.0639 219.929 33.0639 219.83C33.2625 213.177 33.2625 206.525 33.2625 199.872C33.2625 198.681 33.2625 197.489 33.2625 196.298C33.2625 193.319 33.2624 190.241 33.3617 187.163C33.461 184.085 33.5603 181.106 33.8582 178.028C34.1561 174.95 34.5532 171.872 35.149 168.894C35.6454 166.312 36.2412 163.83 37.0355 161.347C38.1277 157.872 39.4185 154.596 40.4114 151.12C41.2057 148.738 41.8015 146.355 42.2979 143.773C42.9929 140 42.1986 136.227 41.305 132.454C41.1064 131.659 41.0071 130.964 40.8085 130.17C40.5107 128.879 40.3121 127.489 40.1135 126.198C40.0142 125.305 40.0142 124.411 40.1135 123.418C40.2128 120.042 40.8085 116.468 38.8227 114.284C38.5249 113.986 38.227 113.688 37.8298 113.489C36.2412 112.397 33.6596 110.808 31.0781 109.319C30.9788 109.319 30.9788 109.22 30.8795 109.22C29.3901 108.326 27.9007 107.433 26.7093 106.638C26.1135 106.241 25.5178 105.844 25.1206 105.546C25.1206 105.447 25.1206 105.347 25.2199 105.149C26.1135 98.5956 27.6029 92.936 30.383 88.0707C32.4681 84.2977 41.305 83.2055 45.5745 81.8154C45.6738 82.014 46.766 84.2977 48.9504 86.8793C49.4468 87.475 49.9433 88.0707 50.539 88.6665C52.922 91.0495 56.0993 93.4324 60.1703 94.4254C60.9646 94.6239 61.7589 94.7232 62.5532 94.8225C74.2695 95.6168 85.3901 83.1062 85.3901 83.1062C91.149 83.8012 97.8015 85.1913 99.8866 88.3686C103.362 93.631 105.447 106.837 105.447 106.837L90.7518 112.496C90.3547 115.475 89.8582 119.248 89.5603 123.22C89.5603 123.716 89.461 124.113 89.461 124.61C89.2625 127.092 89.0639 129.773 88.9646 132.355C88.8653 135.433 88.766 138.511 88.8653 141.489C88.9646 144.269 89.1632 146.851 89.461 149.035C89.5603 149.532 89.6596 150.028 89.7589 150.525C89.7589 150.624 89.7589 150.624 89.7589 150.723C90.3547 153.702 91.2483 156.681 92.2412 159.659C93.0355 162.142 93.7305 164.525 94.3263 167.106C94.4256 167.702 94.5249 168.198 94.7235 168.794C96.61 177.73 97.2057 186.964 97.8015 196.099C98 199.177 98.1986 202.156 98.4965 205.234C98.4965 205.433 98.4965 205.73 98.5958 206.028C98.8937 208.808 99.0922 211.589 99.3901 214.369C99.688 217.447 99.9859 220.425 100.284 223.503C100.582 226.581 100.879 229.56 101.177 232.638C101.475 235.716 101.773 238.695 102.071 241.773C102.27 243.759 102.468 245.745 102.667 247.73C103.362 254.879 103.66 262.028 103.957 269.177C104.057 272.255 104.156 275.234 104.355 278.312C104.653 286.454 105.05 294.596 105.943 302.737C106.043 303.73 106.142 304.723 106.241 305.617C106.539 308.596 106.837 311.674 107.135 314.752C107.433 318.128 107.731 321.503 107.929 324.879C108.426 331.333 107.83 338.581 111.106 344.44C112.199 346.425 113.192 349.305 111.702 351.092Z" fill="#681319"/>
<path d="M79.7307 104.95V114.085H69.901H70.0995V123.22H60.4684V132.354H41.206V123.12H40.511C40.6103 119.744 41.206 116.17 39.2202 113.986C38.9223 113.688 38.6244 113.39 38.2273 113.191C36.6386 112.099 34.0571 110.51 31.4755 109.021C31.3762 109.021 31.3762 108.922 31.2769 108.922C29.7876 108.028 28.2982 107.135 27.1067 106.34C26.511 105.943 25.9152 105.546 25.5181 105.248C25.5181 105.149 25.5181 105.049 25.6174 104.851H31.3762V95.7163H41.206V86.5815H60.5677V95.7163H70.1989V104.851H79.7307V104.95Z" fill="#E73D23"/>
<path d="M88.8656 141.39H89.362V132.255H79.7308V141.39H70.0996V150.525H79.7308V159.66H89.362V168.794H94.6244C94.5251 168.199 94.4259 167.702 94.2273 167.106C93.6315 164.624 92.9365 162.142 92.1422 159.66C91.2485 156.681 90.2556 153.801 89.6599 150.723C89.6599 150.624 89.6599 150.624 89.6599 150.525C89.5606 150.028 89.4613 149.532 89.362 149.036C89.1634 146.752 88.9649 144.17 88.8656 141.39Z" fill="#E73D23"/>
<path d="M89.4609 123.121V124.511C89.4609 124.014 89.5602 123.617 89.5602 123.121H89.4609Z" fill="#E73D23"/>
<path d="M94.9221 94.2266L98.0994 94.6237C98.7945 94.723 99.4894 94.9216 100.085 95.3188C102.667 96.6095 106.738 100.581 106.241 112.099C105.447 128.78 102.865 135.829 103.957 142.482C105.05 149.134 109.121 159.064 103.262 183.986C103.262 183.986 101.972 197.489 104.95 204.936C105.645 206.326 106.142 207.915 106.34 209.503C106.34 211.191 105.645 211.191 105.348 214.071C105.149 216.056 105.348 218.34 103.858 220.624C103.262 221.617 102.369 224.099 101.078 225.092C99.9858 225.886 98.993 224.993 98.0994 225.489C95.5179 226.78 94.0285 226.482 93.3335 225.489C92.3405 224.298 96.1136 223.603 97.0072 222.908C97.0072 222.908 93.4327 224.496 92.7377 223.205C92.0427 221.915 96.4115 220.127 97.0072 219.333C98.1987 217.248 98.8937 214.964 98.8937 212.482C98.6952 210.794 98.298 209.007 97.7023 207.418C97.7023 207.418 96.6101 210.595 97.0072 212.085C97.4044 213.574 97.4044 219.333 94.4257 218.936L93.6313 218.837C93.532 217.844 93.532 216.851 93.6313 215.858C93.7306 213.872 93.1349 209.007 93.3335 207.716C93.532 206.425 94.4257 198.879 95.915 195.9C97.4044 192.922 96.8086 175.347 93.9292 168.496C91.0498 161.645 92.9363 149.234 92.837 147.744C92.7377 146.255 91.9434 139.404 92.2413 136.822C92.4398 135.432 92.0427 122.326 92.3405 111.007" fill="#883A20"/>
<path d="M53.1205 73.8721C53.617 71.8863 53.8156 67.1204 53.1205 65.1346C52.9219 64.5388 52.6241 64.0424 52.0283 63.6452C51.234 63.3473 50.4397 63.4466 49.6453 63.7445C46.8652 64.5388 43.9858 64.8367 41.2056 64.5388C40.312 64.4395 39.3191 64.2409 38.5248 63.7445C37.7305 63.3473 37.234 62.4537 37.1347 61.5601C37.234 60.5672 38.0283 59.3757 37.3333 58.6807C37.1347 58.4821 36.9361 58.3828 36.7375 58.2835C36.1418 57.8863 35.9432 57.092 36.3404 56.4963C36.4397 56.2977 36.6383 56.1984 36.8368 56.0991C36.1418 55.8012 35.6453 55.1062 35.5461 54.3119C35.5461 54.2126 35.5461 54.014 35.6453 53.9147C36.1418 53.319 36.9361 51.9289 36.6383 51.4324C36.4397 51.1346 36.0425 51.1346 35.7446 50.936C35.2482 50.5388 35.0496 49.8438 35.3475 49.1487C35.6453 48.553 36.0425 48.0565 36.4397 47.5601C37.6312 45.7729 38.3262 43.6878 38.4255 41.6026C38.5248 39.5175 38.8226 37.3331 39.3191 35.248C40.7092 30.78 44.5815 27.4041 48.5531 24.7232C54.4113 20.8509 61.8581 19.7587 68.6099 21.0495C72.2836 21.7445 82.7092 24.9218 82.9077 36.5388C83.007 40.8083 80.7233 44.6807 78.1418 48.0565C75.5602 51.4324 73.5744 53.0211 72.5815 57.092C72.0851 59.6736 72.0851 62.3544 72.7801 64.936C74.2694 71.3899 77.9432 77.1487 82.0141 82.5104C83.8014 84.6948 85.39 87.0778 86.4822 89.6594C87.4751 92.2409 87.5744 95.4182 85.9858 97.7019C83.5035 101.276 66.9219 98.2977 60.5673 95.6168C57.4893 94.326 54.312 93.3331 51.4326 91.8438C49.2482 90.6523 45.2765 88.6665 45.078 86.2835C44.9787 84.9927 50.6383 78.5388 53.1205 73.8721Z" fill="#883A20"/>
<path d="M39.617 55.0069C39.5178 54.9076 39.4185 54.8083 39.3192 54.8083C38.922 54.4111 38.4256 54.014 37.9291 53.8154C36.0426 53.4182 35.7447 53.7161 35.7447 53.9147C35.6454 54.6097 36.0426 55.3048 36.6383 55.7019C36.7376 55.8012 36.8369 55.8012 36.9362 55.9005C36.2412 56.2977 36.0426 57.092 36.4397 57.787C36.6383 58.0849 36.8369 58.2835 37.1348 58.3828L37.2341 58.2835L37.1348 58.3828C37.1348 58.3828 41.1064 57.092 42.6951 55.3048C42.5958 55.3048 41.6029 56.1984 39.617 55.0069Z" fill="#3E1910"/>
<path d="M39.1206 50.5389C39.0213 50.4396 38.8227 50.3403 38.6241 50.3403C38.3262 50.3403 38.1277 50.3403 37.8298 50.3403C37.7305 50.3403 37.6312 50.4396 37.5319 50.4396C37.4326 50.5389 37.4326 50.6382 37.4326 50.6382L37.5319 50.7375C37.8298 50.8368 38.1277 50.6382 38.4255 50.6382C38.8227 50.6382 39.1206 50.8368 39.4184 50.9361C39.617 51.1347 39.617 50.8368 39.1206 50.5389Z" fill="#3E1910"/>
<path d="M42.2982 36.8367C43.9862 36.7374 45.6741 36.7374 47.4613 36.8367C47.8585 36.8367 48.2557 36.936 48.6528 37.0353C50.0429 37.7303 51.1351 38.9218 51.7308 40.4111C51.7308 40.4111 50.7379 39.4182 50.3408 39.1204C48.355 37.7303 45.3762 38.1275 42.9933 38.4253C42.4968 38.5246 41.9011 37.0353 42.2982 36.8367Z" fill="#3E1910"/>
<path d="M39.6172 51.73C39.6172 51.73 40.6101 52.0279 41.0073 51.6307C41.7023 50.9357 41.0073 49.8435 40.5108 49.4463C42.1987 52.0279 39.6172 51.73 39.6172 51.73Z" fill="#3E1910"/>
<path d="M49.5465 43.9857C49.3479 43.8864 49.2486 43.7871 49.05 43.6878C48.2557 42.6949 47.0642 41.9999 45.6741 41.9006C45.0784 41.8013 44.5819 41.9006 44.0855 41.9006C43.4897 41.9006 42.9933 41.9999 42.5961 41.8013L41.2061 41.2056L42.0997 42.3971C42.3975 42.7942 42.7947 42.9928 43.1919 42.9928C42.5961 44.4822 43.0926 45.5744 43.8869 45.6737C44.6812 45.7729 45.277 45.0779 45.5748 44.3829C45.7734 43.8864 45.7734 43.4893 45.7734 42.9928C46.7663 43.1914 47.66 43.7871 48.355 44.5815C48.5536 44.78 48.8514 44.8793 49.05 44.8793C49.2486 44.8793 49.4472 44.78 49.6458 44.6807L50.2415 44.1843L49.5465 43.9857Z" fill="#3E1910"/>
<path d="M86.8795 27.9999C87.4753 26.5106 80.9221 30.3829 80.3264 28.9928C79.7306 27.6028 79.8299 27.4042 78.142 27.6028C79.0356 26.9077 76.5532 17.6737 75.0638 18.3687C75.0638 16.7801 61.5604 15.39 60.9647 18.8652L60.6667 19.0638C55.6029 19.1631 50.7377 21.4467 47.3618 25.2198C52.5249 27.3049 54.2128 27.9006 57.1915 31.8723C59.9716 35.6453 59.0781 36.6382 60.5675 41.007C60.9647 42.1985 61.5604 43.5886 62.9505 43.7872C63.7448 43.7872 64.5391 43.5886 65.2342 43.1914C66.7235 42.4964 69.0071 42.2978 69.8014 43.6879C70.3972 44.6808 69.8015 45.9716 69.0072 46.8652C68.1136 47.6595 67.5177 48.6524 67.1206 49.7446C67.0213 50.4397 67.2199 51.234 67.1206 51.929C67.0213 52.624 66.5249 53.4184 65.7306 53.4184C66.7235 56.2978 68.4114 68.4113 71.0922 69.9006C76.0567 72.6808 75.9575 83.007 77.5461 82.2127C77.844 82.0141 78.2412 81.8155 78.6384 81.7163C79.1349 81.617 79.6312 81.617 80.227 81.7163C81.5177 81.7163 82.8085 81.0212 83.5036 79.929C83.7021 79.4326 84.0993 78.9361 84.4965 78.6382C84.8936 78.4397 85.3902 78.4396 85.7873 78.4396C88.4682 78.2411 90.7518 60.7659 90.4539 58.1843C90.3546 57.7872 90.3546 57.2907 90.4539 56.8936C90.6525 56.4964 91.0497 56.0992 91.4468 55.9006C94.227 53.9148 94.922 50.0425 92.9362 47.2623C92.4397 46.5673 91.844 45.9716 91.0497 45.5744C92.1419 44.085 92.8369 42.2978 92.9362 40.4113C93.0355 38.4255 91.844 36.7375 89.9575 36.0425C89.461 35.9432 88.8654 35.7446 88.8654 35.3475C88.8654 35.1489 88.9645 34.9503 89.0638 34.7517C90.2553 32.6666 89.5603 29.8865 87.4752 28.695C87.3759 28.5957 87.2766 28.5957 87.078 28.4964" fill="#3E1910"/>
<path d="M106.738 101.078C106.341 100.879 106.043 100.681 105.745 100.284C105.546 99.7871 105.546 99.2907 105.646 98.7942C106.043 96.2126 104.752 93.0353 101.972 92.7375C101.873 91.2481 101.376 89.858 100.383 88.6665C99.7874 88.0708 99.0924 87.475 98.298 87.0779C98.1987 86.8793 98.0995 86.6807 98.0002 86.5814C98.4966 85.6878 98.9931 84.7942 99.3902 83.9006C100.582 81.8155 99.8867 79.1346 97.8016 77.9431C96.908 77.2481 95.7165 77.1488 94.8229 77.6453C95.5179 76.9502 96.6101 75.4609 97.1066 72.6807C98.4966 64.5389 98.1987 48.7516 95.0214 40.9077C93.3335 36.7375 93.3335 34.9502 91.2484 30.9786C89.6597 27.702 84.6952 21.0495 81.1207 19.858C77.1491 18.5672 74.8654 16.9786 70.8938 15.9857C67.22 14.9928 52.9222 19.3616 52.525 21.2481C52.525 21.4467 53.5179 20.7516 55.3051 20.0566C56.0002 19.7587 56.6952 19.6594 57.4895 19.5602C58.5817 19.4609 59.6739 19.858 60.5675 20.5531C71.7874 36.0424 69.7023 47.6594 70.6952 59.1772C71.1917 65.6311 68.5108 75.858 65.3335 77.7446C62.3548 79.4325 57.5888 79.7304 54.5108 79.8297C53.0214 79.8297 51.5321 79.5318 50.142 78.936C49.9434 78.8367 49.8441 78.7375 49.6456 78.6382C49.0498 78.241 48.5534 77.7446 48.1562 77.4467C47.8583 77.0495 47.5604 76.6524 47.2626 76.2552C46.9647 75.858 46.4683 75.7587 46.0711 75.7587C43.1917 75.6594 38.6243 75.858 36.2413 77.4467C34.4541 78.6382 32.1704 82.1133 32.1704 82.1133C29.4895 81.5176 28.4966 89.0637 27.0073 93.1346C26.5108 94.3261 26.1136 95.6169 25.8158 96.6098C25.5179 97.702 25.1207 98.8935 24.8229 100.184C24.0285 103.163 23.7307 106.34 23.83 109.418C24.2271 115.971 36.5392 116.468 41.4044 116.766C48.0569 117.163 54.6101 116.865 61.1633 115.972C68.4115 114.979 75.8583 113.489 82.7094 110.808C86.0853 111.702 89.3619 112.794 92.837 113.589C97.1066 114.482 101.773 114.78 105.844 113.291C108.029 112.496 110.014 111.007 110.809 108.922C111.702 105.844 109.617 102.567 106.738 101.078Z" fill="white"/>
<path d="M65.1351 47.3615C65.0358 47.2622 64.9366 47.2622 64.8373 47.2622H64.4402L64.8373 47.4608C65.0359 47.5601 65.1351 47.7587 65.1351 47.9572C65.1351 48.1558 64.9366 48.6523 64.6387 48.7516L64.3408 48.8509L64.6387 48.9501H64.7381C64.8374 48.9501 65.3338 48.8509 65.4331 48.0565C65.3338 47.7587 65.2344 47.4608 65.1351 47.3615Z" fill="#3E1910"/>
<path d="M67.9149 44.1843C67.9149 44.1843 64.1419 43.6879 64.1419 46.6666C64.1419 46.6666 64.0426 47.0638 64.4398 47.1631C64.4398 47.1631 64.2412 45.4751 65.3334 44.8794C66.1277 44.4822 67.0213 44.2836 67.9149 44.1843Z" fill="#3E1910"/>
<path d="M65.2342 32.8651C64.9363 32.3687 63.9434 30.2836 63.447 29.4892C62.5534 27.9999 61.5605 26.5105 60.4683 25.2197" fill="#7F3316"/>
<path d="M60.7661 29.6875C61.5604 30.3825 62.1562 31.2762 62.5533 32.2691C63.5463 34.3542 64.3406 36.5386 65.0356 38.723" fill="#7F3316"/>
<path d="M47.3618 53.418C47.5604 53.9144 47.759 54.5102 47.8583 55.0066C47.9576 54.4109 47.759 53.8151 47.3618 53.418Z" fill="#9B4325"/>
<path d="M94.0285 78.3403C94.0285 78.3403 86.2838 90.851 66.1278 93.929C66.0285 93.929 88.8653 94.4254 94.0285 78.3403Z" fill="#E3DEC9"/>
<path d="M80.1278 110.113C80.1278 110.113 65.9292 102.666 39.6172 101.872C39.6172 101.872 69.603 107.234 80.1278 110.113Z" fill="#E3DEC9"/>
<path d="M32.2695 84C32.2695 84 27.8014 88.766 33.5602 94.6241C31.6737 91.4468 31.1773 87.5745 32.2695 84Z" fill="#E3DEC9"/>
<path d="M28.1987 102.667C28.1987 102.667 33.4611 111.007 50.6384 111.404C50.5392 111.503 28.298 113.092 28.1987 102.667Z" fill="#E3DEC9"/>
<path d="M101.972 93.9292C101.972 93.9292 100.879 106.241 78.8369 101.872C78.8369 101.872 104.057 108.723 101.972 93.9292Z" fill="#E3DEC9"/>
<path d="M43.5889 77.248C43.5889 77.248 37.2343 88.0707 57.291 85.1913C57.3903 85.1913 41.0073 86.8792 43.5889 77.248Z" fill="#E3DEC9"/>
<path d="M76.0571 79.7308C76.0571 79.7308 86.3834 71.5889 83.3054 51.8301C83.3054 51.8301 90.1564 71.0925 76.0571 79.7308Z" fill="#E3DEC9"/>
</g>
<defs>
<clipPath id="clip0_384_106">
<path d="M0 70C0 31.3401 31.3401 0 70 0V0C108.66 0 140 31.3401 140 70V70C140 108.66 108.66 140 70 140V140C31.3401 140 0 108.66 0 70V70Z" fill="white"/>
</clipPath>
</defs>
</svg>
