<svg width="100" height="100" viewBox="0 0 100 100" fill="none" xmlns="http://www.w3.org/2000/svg">
<path d="M50.8675 21.939C50.9272 21.939 50.9272 21.939 50.9868 21.939C51.1656 21.939 51.3444 22 51.5232 22C51.5232 22 51.5828 22 51.6424 22C51.702 22 51.7616 22 51.8212 22C51.8808 22 51.9404 22 52 22L51.9404 21.7561C51.9404 21.6951 51.8808 21.6341 51.8808 21.5732L51.702 21.2073C51.5232 20.7805 51.3444 20.4146 51.106 19.9878C50.7483 19.1951 50.1523 18.5854 49.4967 18.0976C49.3775 17.9756 49.2583 17.9146 49.1987 17.8537C49.1391 17.8537 49.1391 17.7927 49.0795 17.7927C48.3642 17.3659 47.649 17 46.755 17C46.5762 17 46.3377 17 46.1589 17.061C45.4437 17.1829 44.7881 17.3659 44.1921 17.6098L43 18.0976C43.0596 18.0976 50.7483 21.7561 50.8675 21.939Z" fill="#7D1520"/>
<path d="M42.1116 19.142H41.9857C41.8598 19.1922 41.7969 19.2425 41.7339 19.2927C41.3563 19.6944 41.1674 20.0459 41.0415 20.4476C40.9156 20.7489 41.1045 20.8996 41.2304 20.9498L41.3562 21H41.4192C41.671 21 41.7969 20.8494 41.8598 20.7489C42.1746 20.3472 42.5522 20.0459 42.9299 19.7948C43.0558 19.6944 43.1187 19.6442 43.2446 19.594L44 19.0918L43.2446 19.0416C42.867 18.9412 42.4893 19.0416 42.1116 19.142Z" fill="#7D1520"/>
<path d="M45.9672 59.8803C45.7901 59.5768 45.6129 59.2733 45.4358 59.0305L45.3768 58.9698C44.9634 58.5449 44.6092 57.9985 44.0778 57.6343C43.9007 57.5129 43.8416 57.3308 43.7826 57.088C43.6645 56.2988 43.5464 55.4489 43.4283 54.6598C43.3693 54.2349 43.3102 53.8706 43.4873 53.4457C43.7826 52.8994 43.7235 52.2923 43.5464 51.6853C43.3693 51.1996 43.3693 50.714 43.3693 50.2284C43.4283 49.3785 43.6054 48.5894 43.7826 47.8002C43.9597 47.0111 44.1959 46.2826 44.314 45.4935C44.373 45.1899 44.373 44.8864 44.5501 44.6436C44.6682 44.4615 44.4911 41.7298 44.4321 40.3943C44.314 40.3943 44.1959 40.3336 44.1368 40.2729C43.1921 39.7266 41.9522 40.0908 41.0665 40.5764C40.358 40.8799 39.4724 41.062 39.1181 41.7905C39.1181 41.8512 39.059 41.9119 39 41.9119C39 42.2761 39 42.6404 39.059 42.9439C39.2952 43.733 39.5904 44.5222 39.9447 45.0685C40.1809 45.5542 41.3027 50.7747 41.1256 51.3211C41.0075 51.8067 41.0075 52.2923 41.0075 52.778C41.0075 52.9601 41.0665 53.1422 41.1846 53.3243C41.5389 53.8099 41.657 54.417 41.716 55.024C41.7751 55.5704 41.657 56.1167 41.5389 56.663C41.4798 56.8451 41.4798 56.9665 41.4208 57.1487C41.3618 57.5736 41.4798 57.8771 41.8341 58.1199C42.0703 58.302 42.2474 58.4841 42.2474 58.8484C42.3065 59.0305 42.2474 59.1519 42.2474 59.334C42.2474 59.8803 42.4836 60.3053 43.015 60.5481C43.5464 60.7909 44.1368 60.9123 44.7273 60.973C44.9634 60.973 45.1996 61.0337 45.4358 60.973C45.731 60.9123 45.7901 60.7909 45.731 60.4874C45.672 60.366 45.672 60.2446 45.7901 60.1839C46.0262 60.1839 46.0262 60.0625 45.9672 59.8803Z" fill="#7D1520"/>
<path d="M18.5182 44.5541C18.1679 45.834 17.3504 47.4337 17 48.5216C17.1752 48.8416 17.292 49.2255 17.3504 49.5455C17.5255 49.6095 18.3431 51.5932 18.7518 54.0889C18.927 54.5368 19.0438 55.0488 19.1022 55.4967C19.1022 55.7527 19.1606 56.0726 19.1606 56.3286C19.1606 56.9045 19.3942 57.2885 19.8029 57.6084C20.0949 57.8004 20.3285 58.1204 20.4453 58.4403C20.562 58.7603 20.7372 58.9523 20.9124 59.2082C21.0292 59.4002 20.9708 59.5922 20.9708 59.7842C20.9708 60.1681 21.0876 60.4241 21.3796 60.6161C21.4964 60.68 21.6131 60.744 21.7299 60.744C22.3139 60.936 22.9562 61 23.5985 61C23.7153 61 23.8321 61 23.9489 60.936C24.0657 60.872 24.1825 60.808 24.1241 60.6161C24.1241 60.5521 24.1241 60.4881 24.1825 60.4881C24.5328 60.1041 24.5328 60.1041 24.2993 59.7202C24.0657 59.4642 23.8905 59.1442 23.5401 58.9523C22.8394 58.5043 22.3723 57.8004 21.8467 57.1605C21.3212 56.5206 21.0876 55.6887 21.0292 54.8568C20.9708 53.9609 20.7956 53.065 20.6204 52.1691C20.562 51.9772 20.562 51.7212 20.5036 51.4652L21.4964 49.6095L23.5985 47.3698C24.5328 45.706 24.4745 44.8741 24.6496 44.8741C24.708 44.8741 24.8248 44.1062 25 43.5303C23.8321 42.1864 19.8029 43.7222 18.5182 44.5541Z" fill="#7D1520"/>
<path d="M58.805 28.7518C58.6831 28.5736 58.5004 28.3954 58.3176 28.2765C57.9521 27.9794 57.5866 27.6824 57.282 27.3259C57.0993 27.1476 56.9165 26.91 56.7338 26.7317C55.2109 25.2463 54.4799 24.1768 53.5661 22.7508C53.3833 22.4538 53.2006 22.1567 52.896 22.0379L52.8351 21.9784C52.7742 21.8596 52.7742 21.8002 52.7133 21.6814C52.7133 21.7408 52.7742 21.8002 52.7742 21.8002L52.8351 22.0379C52.7742 22.0379 52.7133 22.0379 52.6523 22.0379C52.5914 22.0379 52.5305 22.0379 52.4696 22.0379C52.4087 22.0379 52.4087 22.0379 52.3477 22.0379C52.165 22.0379 51.9822 21.9784 51.7995 21.9784C51.7386 21.9784 51.7386 21.9784 51.6777 21.9784C51.5558 21.8002 51.4949 21.6219 51.3731 21.4437C51.2512 21.206 51.0685 20.9684 50.9467 20.6713C50.5812 20.0177 50.0329 19.5424 49.3628 19.0671C48.7536 18.6511 48.2054 18.4135 47.6571 18.2947C45.4032 17.7599 43.7584 18.1164 43.7584 18.1164C42.8447 18.2352 42.1137 18.5323 41.3826 18.8888C40.6516 19.3047 39.9816 19.7801 39.4942 20.493C39.4333 20.6119 39.3724 20.6713 39.3724 20.7901C39.3724 20.9684 39.3724 21.1466 39.5551 21.206C39.7379 21.3249 39.8597 21.206 40.0425 21.0872C40.1034 21.0278 40.1034 21.0278 40.1643 20.9684C40.7126 20.493 42.1137 19.6018 42.2355 19.6612C42.2964 19.5424 44.6113 19.1859 44.6113 19.1859C44.7331 19.1859 45.0986 19.2453 45.2814 19.3047C46.4388 19.7206 47.4135 20.4336 48.2054 21.3249C48.449 21.5625 48.6318 21.8596 48.8146 22.2161C48.8755 22.3349 48.9364 22.3943 48.6927 22.4538C48.51 22.5132 48.3272 22.5726 48.1445 22.6914C48.0226 22.7508 47.9617 22.8103 47.8399 22.8103C46.6215 22.8103 45.4032 22.5132 44.1848 22.2161C43.8193 22.0973 43.5148 21.9784 43.1492 21.9784C42.8447 21.919 42.6619 22.0973 42.7837 22.3943C42.8447 22.632 42.9665 22.8103 43.1492 22.9885C43.9412 23.8797 44.9158 24.5333 46.0124 24.9492C46.0733 24.9492 46.1951 24.9492 46.1342 25.1275C45.5859 25.8999 45.1595 26.7911 44.6722 27.5635C44.1239 28.3954 43.4538 29.1083 42.601 29.7025C40.7126 31.0096 38.3977 31.1879 36.1438 31.4256C34.9863 31.5444 34.1944 32.4356 33.2197 32.8515C31.6359 33.5051 29.6865 33.2675 28.0418 32.9704C26.7016 32.7327 25.4832 32.1386 24.1431 31.9603C23.0466 31.8415 21.95 32.3762 20.8535 32.6139C19.5134 32.911 18.4168 33.921 17.5031 34.8717C17.0767 35.347 16.6502 35.7629 16.0411 36.1194C15.371 36.4759 14.7009 36.7136 13.9699 36.5947C13.3607 36.4759 12.7515 36.4759 12.1424 36.5947C9.34018 36.8918 8.06092 39.209 8 41.1103C8 42.1204 8.42642 43.0711 8.85284 44.0217C8.85284 43.487 8.91376 42.9522 8.97468 42.4175C9.09651 42.6552 9.09651 42.8928 9.27926 43.1305C9.34018 42.3581 9.58385 41.6451 10.0712 40.9915C10.0712 41.4074 10.0712 41.7639 10.193 42.1204C10.4367 41.5263 10.5585 41.2886 10.8631 41.1698C10.5585 41.6451 10.924 42.061 10.9849 42.4769C11.1677 41.7639 11.5941 41.2886 12.1424 40.8727C12.6906 40.4568 13.0561 39.922 13.2998 39.3279C13.3607 39.0902 13.4826 38.912 13.6044 38.7337C13.909 38.2584 14.3963 37.9613 14.9446 37.8425C14.8836 38.1396 14.8227 38.3772 14.8227 38.6149C14.7618 39.3873 14.9446 40.1003 15.1882 40.7539C15.6147 41.8828 16.0411 42.9522 16.4066 44.0811C16.833 45.4477 17.0767 46.8737 16.6502 48.2997C16.4066 49.1315 16.2238 50.0227 15.4319 50.6169C15.2492 50.7357 15.1882 50.9734 15.1882 51.1516C15.1882 51.627 15.2492 52.0429 15.4319 52.4588C15.6147 52.8747 15.7974 53.2906 15.9192 53.7065C16.1629 54.5383 16.3457 55.3107 16.4675 56.1426C16.5284 56.6179 16.5284 57.0932 16.3457 57.5685C16.2847 57.8656 16.1629 58.1033 16.1629 58.4004C16.1629 58.6974 16.2238 58.9351 16.4066 59.1728C16.7721 59.5293 16.8939 60.0046 16.8939 60.4799C16.8939 60.6582 16.8939 60.777 16.8939 60.9553C16.8939 61.0741 16.8939 61.1335 16.9548 61.1929C17.1376 61.3712 17.1376 61.6088 17.1985 61.7871C17.3203 62.1436 17.5031 62.4406 17.8077 62.6189C18.4168 62.916 19.0869 62.9754 19.757 62.916C19.9398 62.916 20.1834 62.8566 20.3662 62.8566C20.4271 62.8566 20.549 62.7971 20.488 62.7377C20.4271 62.5595 20.549 62.5595 20.6708 62.5595C20.9145 62.5595 20.9754 62.5001 20.9754 62.2624C20.9754 62.0842 20.9145 61.9059 20.9145 61.7871C20.6099 61.1335 20.0616 60.5988 19.5134 60.1234C19.2697 59.8858 19.026 59.6481 19.026 59.2322C19.026 58.8757 18.9042 58.5786 18.7214 58.2221C18.5996 57.9845 18.4778 57.8062 18.4168 57.5685C18.295 57.2715 18.2341 57.0338 18.2341 56.7367C18.1732 56.0832 18.1123 55.489 18.0513 54.8354C18.295 54.2413 18.4778 53.5877 18.7824 52.9935V53.0529C18.9042 52.637 19.0869 52.2211 19.3915 51.8646C19.757 51.3893 20.1225 50.914 20.6099 50.5575L21.5845 48.8938L23.7776 46.8143C23.8994 46.7549 24.0822 46.6954 24.204 46.7549C24.3258 46.6954 24.4477 46.6954 24.5695 46.6954H24.6304C24.6913 46.6954 24.7522 46.6954 24.8132 46.6954C24.9959 46.6954 25.1787 46.636 25.3005 46.7549C25.4832 46.7549 25.6051 46.8143 25.7269 46.8737C25.8488 46.8143 26.0315 46.8737 26.2143 46.9331C26.6407 47.0519 27.3717 47.4084 27.7981 47.2896C27.7372 47.2896 28.1636 47.4678 28.1636 47.4678C28.4073 47.5273 28.6509 47.5867 28.8946 47.5867C29.5038 47.6461 30.113 47.7055 30.7221 47.6461C32.7324 47.5273 34.5599 46.7549 36.3874 46.0419C36.692 45.923 37.0575 45.8042 37.423 45.8042C37.5449 45.8042 37.6667 45.8042 37.6667 45.923C37.7885 46.636 37.9713 47.4084 38.0931 48.1214C38.2759 49.0721 38.215 50.0821 38.154 51.0328C38.154 51.3299 38.0931 51.5675 38.0322 51.8646C37.9713 52.1617 37.8494 52.3994 37.7276 52.6964C37.423 53.1718 37.3621 53.6471 37.5449 54.1818C37.7885 54.9542 37.7276 55.7267 37.6667 56.4991C37.6667 56.7367 37.6058 56.915 37.6667 57.1526C37.7276 57.5685 37.5449 57.8656 37.3012 58.1627C37.1184 58.5192 36.9357 58.9351 36.9357 59.351C36.8748 59.7075 36.9966 60.064 37.1184 60.4799C37.1794 60.3017 37.1794 60.1234 37.1794 59.9452C37.2403 60.1234 37.3012 60.2423 37.3621 60.3611C37.423 60.2423 37.3621 60.1234 37.4839 60.064C37.5449 60.3017 37.6058 60.5393 37.4839 60.777C37.1794 61.6682 37.423 62.203 38.215 62.6189C38.2759 62.6783 38.3368 62.6783 38.3977 62.7377C38.7632 62.8566 39.0678 62.9754 39.4942 62.9754C39.5551 62.9754 39.5551 62.9754 39.616 62.9754C39.9816 63.0348 40.2861 62.9754 40.6516 62.916C40.7126 62.916 40.7126 62.916 40.7735 62.916C40.9562 62.916 41.0171 62.7971 40.9562 62.6189C40.9562 62.5595 40.9562 62.5595 40.8953 62.5001C40.8953 62.4406 40.8344 62.3218 40.9562 62.3218C41.3217 62.203 41.3826 62.0247 41.1999 61.7277C41.139 61.6682 41.139 61.6088 41.0781 61.5494C41.0171 61.49 40.9562 61.4306 40.8953 61.3117C40.8953 61.3117 40.8953 61.2523 40.8344 61.2523C40.7126 61.0741 40.5907 60.9552 40.4689 60.777C39.616 60.064 39.2505 59.1134 39.3115 58.0439C39.2505 57.0932 39.2505 56.0832 39.9206 55.2513C40.5907 54.4789 40.7126 53.5877 40.5298 52.637C40.2861 51.4487 40.6516 50.201 41.1999 49.0721C41.1999 49.0721 41.7482 47.349 42.3573 46.636C43.0883 45.8636 44.1848 45.3883 44.6722 44.3782C44.7331 44.2594 44.794 44.1406 44.9158 44.0811C45.0986 43.8435 45.3423 43.6652 45.4641 43.3682C45.9514 42.4769 46.4997 41.5263 46.7434 40.5162C47.048 39.3873 47.0479 38.199 47.4744 37.1295C48.2054 35.2282 48.8755 33.3269 49.6065 31.485C49.6674 31.2473 49.7892 31.0097 49.9111 30.8314C50.0329 30.6532 50.0938 30.5343 50.2766 30.3561L50.3375 30.2967C50.6421 29.9996 51.0685 29.9402 51.4949 30.059C51.6167 30.059 51.7386 30.1184 51.8604 30.1778C51.6777 30.1184 51.9213 30.1778 51.9822 30.1778C52.0432 30.1778 52.1041 30.1778 52.165 30.1778C52.2868 30.1778 52.2868 30.1778 52.165 30.1778C52.2868 30.1778 52.3478 30.1778 52.4696 30.2372C52.5305 30.2372 52.5305 30.2372 52.5914 30.2967C52.7133 30.2967 52.8351 30.3561 52.9569 30.3561C53.8098 30.5343 54.6626 30.5937 55.2718 30.8314C55.3327 30.8314 55.6373 30.9502 55.6373 31.0097C55.7591 31.3067 56.0637 31.5444 56.3683 31.6038C56.4292 31.6038 56.551 31.6632 56.612 31.6632C56.9165 31.7226 57.343 31.6632 57.6476 31.485C57.9521 31.3661 58.1349 31.1285 58.1958 30.9502C58.3176 30.9502 58.3786 30.772 58.4395 30.772C58.6222 30.5937 58.6831 30.3561 58.6831 30.1184C59.0486 29.6431 59.1096 29.1678 58.805 28.7518Z" fill="#EF6C56"/>
<path d="M48 23.9104C47.4176 24.0299 46.7623 24.0299 46.1799 23.9104C44.8695 23.6716 43.7046 23.194 42.6126 22.5373C42.467 22.4179 42.2486 22.2985 42.103 22.1791C42.0302 22.1194 41.9574 22.1194 42.0302 22.0597C42.0302 22 42.1758 22 42.1758 22C42.5398 22 42.831 22.1194 43.1222 22.2388C43.7774 22.4179 44.3599 22.7164 45.0151 22.9552C45.9615 23.3731 46.908 23.7313 48 23.9104C47.9272 23.9104 47.9272 23.8507 48 23.9104Z" fill="#4F2212"/>
<path d="M50.3463 25.6095C50.1731 25.4793 50.0866 25.3925 50 25.2623C50 25.1755 50 25.1322 50.0866 25.1322C50.6059 25.002 51.4716 24.9152 51.9909 25.1322C52.1641 25.2189 52.3372 25.3057 52.4238 25.4359C52.5969 25.5661 52.77 25.6963 52.9431 25.8264C53.0297 25.8698 53.0297 25.9566 52.8566 26C52.3372 25.9132 51.8178 26 51.2984 25.9566C50.9522 25.8698 50.6059 25.783 50.3463 25.6095Z" fill="#4F2212"/>
<path d="M52 25.8421C51.6923 25.9123 51.3846 25.9123 51.2308 25.7018C51 25.4912 51.0769 25.2105 51.3077 25C51 25.2105 50.9231 25.5614 51.0769 25.8421C51.2308 26.0526 51.6923 26.0526 52 25.8421Z" fill="#382519"/>
<path d="M57.2687 29C57.6062 29 57.8875 29.1176 58 29.4706V29.5294V29.5882C57.9437 29.6471 57.9437 29.6471 58 29.7059C58 29.7647 58 29.7647 58 29.8235C57.9437 29.7647 57.9437 29.7059 57.8875 29.6471C57.8312 29.4706 57.7187 29.3529 57.55 29.2941C57.4375 29.2353 57.3812 29.2941 57.325 29.3529C57.2687 29.4118 57.2687 29.5294 57.325 29.5882C57.3812 29.7059 57.4937 29.8235 57.6062 29.8824C57.6625 29.9412 57.775 29.9412 57.775 30C57.6062 30 57.4937 29.9412 57.325 29.8235C56.9312 29.7059 56.8749 29.2941 57.2687 29Z" fill="#4F2212"/>
<path d="M51.1034 24.2464C50.6207 24.3043 50.2759 24.6522 50 25C50 24.7681 50.069 24.5942 50.2069 24.4203C50.2759 24.3623 50.3448 24.3623 50.3448 24.2464C50.9655 23.9565 51.3793 23.9565 52 24.0724C51.7241 24.1884 51.3793 24.1304 51.1034 24.2464Z" fill="#4F2212"/>
<path d="M52 25.8362C51.7078 26.0935 51.3425 26.0292 51.1233 25.7719C50.9041 25.5146 50.9772 25.193 51.3425 25C51.1233 25.2573 51.1233 25.4503 51.2694 25.6432C51.4155 25.9005 51.7078 25.9005 52 25.8362Z" fill="#FCC89C"/>
<path d="M53.3783 30.8219C53.3783 30.7123 53.3783 30.6027 53.3094 30.4932C53.4473 30.3836 53.5162 30.2192 53.7229 30.0548C53.654 30.1096 53.9297 30.0548 53.9986 30C54.2054 30 54.3432 30 54.5499 30C54.6189 30 54.6189 30 54.6878 30L55.7905 30.274C55.9972 30.6575 56.0661 31.0411 55.9283 31.3151C55.8594 31.0959 55.7215 30.9315 55.5837 30.7671C55.5837 31.0411 55.5837 31.3151 55.5148 31.589C55.3769 32.137 55.1702 32.6849 54.5499 33.0685C54.481 33.0685 54.481 33.1233 54.481 33.1781C54.0675 33.5068 53.5162 33.9452 52.9648 34C53.1027 33.8356 53.3094 33.726 53.4473 33.5616C53.3094 33.5616 53.2405 33.6164 53.1027 33.6164C53.2405 33.4521 53.4473 33.3425 53.5162 33.1233C53.3094 33.1781 53.1716 33.2877 52.9648 33.3425C53.1716 32.9041 53.5851 32.5205 53.7229 32.0822C53.1716 32.4658 52.6892 32.8493 52 33.0685C52.4135 32.8493 52.6892 32.411 52.9648 32.0822C53.1716 31.6438 53.3783 31.2055 53.3783 30.8219Z" fill="#EF6C56"/>
<path d="M58 31.6539C58 31.6539 57.4667 32.226 56.8 31.8991C56.1333 31.5721 56 31 56 31C56 31 56.0667 31.4087 56.7333 31.5721C57.3333 31.8174 58 31.6539 58 31.6539Z" fill="#4F2212"/>
<path d="M83.1167 59.368C81.3549 58.8877 79.4715 58.8277 77.7097 59.4881C74.8544 60.5088 74.8544 62.8503 75.0974 65.4321C75.3404 65.5521 75.5834 65.7322 75.7656 66.0324C76.4947 66.873 77.0414 67.7736 77.406 68.8543C77.649 69.6949 78.3172 70.4153 78.6818 71.2559C78.864 71.6762 79.35 71.7963 79.7753 71.7362C80.6866 72.3967 81.4764 71.6161 82.3269 71.5561C82.6307 70.8356 82.4484 70.1151 82.2054 69.4547C81.9016 68.6142 81.9016 67.7136 82.3876 67.1132C82.9952 66.3326 83.2382 65.4921 83.6027 64.6515C83.7242 64.3513 83.6634 63.9911 83.8457 63.811C84.6962 62.8503 84.8785 61.7096 85 60.5088C84.514 59.9084 83.9065 59.6082 83.1167 59.368Z" fill="#7D1520"/>
<path d="M80.2054 71.2065C81.0273 71.9638 81.7395 71.0688 82.5066 71C83.1093 71.2754 83.0545 71.8261 82.8901 72.3769C82.2327 74.2356 82.2874 76.0944 82.671 78.0219C82.7806 78.5727 82.7806 79.0546 82.3422 79.33C81.9039 79.6053 81.9039 80.2249 81.7395 80.7757C81.4108 81.8083 79.7671 82.359 79.1096 81.7394C78.9452 81.6018 79 81.4641 79.0548 81.2575C79.1096 80.8445 79.274 80.5003 79.4931 80.2249C80.9725 78.2285 80.6985 75.819 80.5341 73.4783C80.3698 72.7211 80.2602 71.9638 80.2054 71.2065Z" fill="#4F2212"/>
<path d="M60.3009 63.6571C59.715 63.3528 56.3169 62.379 56.0825 63.5963C55.8482 64.7527 56.1997 65.9699 56.0825 67.1263C56.8442 67.6132 57.0785 68.5261 57.0785 69.2565C57.1371 70.1086 57.3129 70.5346 57.9574 70.8389C58.1917 70.8998 58.2503 71.0824 58.3675 71.265C58.5433 71.5084 58.3675 72.0562 58.8948 71.9953C59.3635 71.9345 59.6564 71.7519 59.8322 71.265C59.8908 71.1432 60.008 71.0215 60.0666 70.8998C60.3009 70.5346 60.6525 70.2912 60.6525 69.8043C60.6525 69.0739 61.0626 68.8305 61.7071 68.8305C61.8242 68.8305 61.9414 68.8305 62 68.8305C62 66.7611 61.8242 64.5092 60.3009 63.6571Z" fill="#7D1520"/>
<path d="M58.1563 71C58.3147 71.0591 58.3543 71.2366 58.4335 71.414C58.5523 71.6505 58.4335 72.1828 58.79 72.1237C59.1068 72.0645 59.3048 71.8871 59.4236 71.414C59.4632 71.2957 59.5425 71.1774 59.5821 71.0591C59.6217 72.1237 59.8197 73.129 59.9781 74.1344C60.0969 74.9032 59.7009 75.4355 59.5425 76.086C59.3048 77.0323 59.3048 77.9194 59.5029 78.8065C59.5821 79.2204 59.7009 79.5753 59.384 79.9301C59.2652 80.0484 59.2652 80.2849 59.2652 80.5215C59.186 81.6452 58.988 81.9409 58.2355 82C57.8791 82 57.5622 81.7634 57.2058 81.8226C56.9682 81.8817 56.9682 81.586 57.0474 81.2903C57.1662 80.8763 57.285 80.4032 57.483 80.1075C58.5523 78.8656 58.4731 77.0323 58.2355 75.4946C57.9187 73.8387 58.1959 72.4194 58.1563 71Z" fill="#4F2212"/>
<path d="M56.9344 45.0096C57.4114 44.9474 57.5307 45.1961 57.8884 45.507C58.7232 46.253 59.0809 47.3721 59.9157 47.9938C60.7505 48.6155 61.1082 49.175 61.2275 50.2319C61.4064 51.9726 62.6585 52.7808 64.2684 52.4078C64.6858 52.2835 65.1032 52.2213 65.4609 52.5322C65.5205 52.5943 65.6398 52.6565 65.6994 52.5943C67.1901 51.9726 68.6807 52.9674 70.231 52.5943C71.4831 52.2835 72.8545 52.2835 74.1663 52.5322C75.7166 52.7808 77.2072 52.4078 78.6383 51.9105C80.427 51.3509 82.1562 51.4753 83.8853 52.2835C84.5412 52.5943 85.1971 52.7808 85.9126 52.7187C86.5089 52.6565 86.8666 52.9052 87.1648 53.4647C87.9995 54.8946 89.0728 56.0759 90.4442 56.9462C90.9212 57.2571 91.2193 57.5679 91.279 58.1896C91.279 58.5005 91.4578 58.8113 91.5771 59.06C92.0541 59.9304 92.1733 60.8008 91.6963 61.6712C91.4578 62.1063 91.6367 62.5415 91.5175 62.9767C90.6231 62.355 91.1597 60.9251 90.0268 60.3034C90.2057 61.0495 90.1461 61.609 90.1461 62.2307C90.0864 63.7849 90.0268 65.277 88.9535 66.5204C88.7747 66.7069 88.8343 67.1421 88.715 67.3908C88.4169 68.2612 88.1188 69.1316 87.5225 69.9398C87.0455 70.6236 87.0455 71.494 87.3436 72.3644C87.5822 73.0483 87.761 73.7943 87.4629 74.5403C86.6281 74.6025 85.853 75.4107 84.9586 74.7269C84.4816 74.8512 84.0642 74.6647 83.8853 74.2295C83.5276 73.3591 82.9313 72.6131 82.6332 71.7427C82.2754 70.6236 81.7388 69.6911 81.0233 68.8207C79.95 67.5773 78.6383 67.5773 77.4457 68.7585C75.8955 70.375 74.0471 70.6858 72.0198 70.0641C71.3639 69.8776 70.6484 69.8154 70.1117 70.1884C69.277 70.748 68.2633 70.8723 67.4286 71.5562C67.1901 71.7427 66.8919 71.6805 66.6534 71.6184C66.1168 71.4318 65.5802 71.494 65.0435 71.494C64.3876 71.494 63.9703 71.7427 63.9703 72.4887C63.9703 72.9861 63.6125 73.2348 63.374 73.6078C63.3144 73.7321 63.1951 73.8565 63.1355 73.9808C62.9566 74.4782 62.6585 74.6647 62.1815 74.7269C61.6449 74.789 61.8237 74.2295 61.6449 73.9808C61.5256 73.7943 61.466 73.6078 61.2275 73.5456C60.5716 73.2348 60.3927 72.7996 60.3331 71.9292C60.2735 71.0588 60.035 69.9398 58.9617 69.5667C58.6636 69.4424 58.3654 69.3181 58.3058 68.8829C58.3058 68.6964 58.1866 68.5099 58.0077 68.4477C57.2922 68.0747 56.517 67.8882 56.0996 67.0178C55.9804 66.7691 55.3841 66.6448 55.3841 66.0852C55.3841 65.8987 55.2649 65.7122 55.0264 65.65C54.0724 65.4635 54.0127 64.6553 54.132 63.9714C54.3109 63.0389 53.655 62.1063 54.132 61.1738C53.3568 60.3656 53.7742 59.1222 53.2376 58.1896C53.178 58.0653 53.0587 57.941 53.0587 57.8788C53.3568 56.6976 52.7606 55.5163 53.1183 54.3351C53.2376 53.9621 53.0587 53.5269 53.4165 53.2782C54.4301 53.1539 54.9667 52.6565 54.8475 51.5374C55.4438 51.9105 56.04 52.2213 56.6959 52.5322C56.994 52.6565 57.2922 53.216 57.6499 52.9052C58.0077 52.6565 57.7692 52.1591 57.7095 51.724C57.7095 51.4753 57.5307 51.2266 57.5307 50.9779C57.471 50.1075 56.6959 49.4858 56.6959 48.6155C56.6959 48.1181 56.9344 47.4964 56.6959 47.1855C56.0996 46.4395 56.2785 45.6935 56.9344 45.0096Z" fill="#F3AD1C"/>
<path d="M54.7855 51.7074C54.8506 52.7936 54.2645 53.3686 53.2223 53.4964C52.7013 52.2185 52.2454 51.963 51.073 52.6658C50.2263 53.1769 49.2493 53.6242 48.7282 54.5187C48.598 54.7743 48.3374 55.2215 47.9466 54.6465C47.9466 54.5826 48.0118 54.5187 48.0118 54.3909C48.3374 53.8159 48.6631 53.1769 48.9888 52.6019C48.2723 52.9853 48.2072 53.6881 47.8815 54.2631C47.6861 54.5187 47.4256 54.7104 47.2302 54.966C44.7552 55.2215 44.7552 54.0076 45.2762 52.3463C45.9927 50.2378 46.7091 48.1933 48.142 46.4681C49.9657 44.2319 53.4829 43.2735 56.1533 44.6152C56.4138 44.743 56.7395 44.743 57 44.8708C56.2835 45.6375 56.0882 46.3404 56.8046 47.2988C57.0651 47.6182 56.8046 48.2572 56.8046 48.7683C56.5441 48.5766 56.4789 48.1933 56.3487 47.9377C55.9579 46.9793 55.3066 46.2765 54.1993 45.957C53.6783 45.8292 53.3526 46.0209 53.2875 46.4042C53.0269 47.5543 52.8315 48.7044 53.0921 49.8545C53.2223 50.5573 54.0039 50.9407 54.5901 51.3879C54.5901 51.3879 54.7204 51.5796 54.7855 51.7074Z" fill="#EF6C56"/>
<path d="M61.1563 73C61.3147 73.0591 61.3543 73.2366 61.4335 73.414C61.5523 73.6505 61.4335 74.1828 61.79 74.1237C62.1068 74.0645 62.3048 73.8871 62.4236 73.414C62.4632 73.2957 62.5425 73.1774 62.5821 73.0591C62.6217 74.1237 62.8197 75.129 62.9781 76.1344C63.0969 76.9032 62.7009 77.4355 62.5425 78.086C62.3048 79.0323 62.3048 79.9194 62.5029 80.8065C62.5821 81.2204 62.7009 81.5753 62.384 81.9301C62.2652 82.0484 62.2652 82.2849 62.2652 82.5215C62.186 83.6452 61.988 83.9409 61.2355 84C60.8791 84 60.5622 83.7634 60.2058 83.8226C59.9682 83.8817 59.9682 83.586 60.0474 83.2903C60.1662 82.8763 60.285 82.4032 60.483 82.1075C61.5523 80.8656 61.4731 79.0323 61.2355 77.4946C60.9583 75.8979 61.1959 74.4785 61.1563 73Z" fill="#4F2212"/>
<path d="M84.5067 74.1877C85.5341 74.8762 86.4244 74.0626 87.3833 74C88.1366 74.2503 88.0681 74.751 87.8627 75.2517C87.0408 76.9415 87.1093 78.6312 87.5887 80.3836C87.7257 80.8843 87.7257 81.3223 87.1778 81.5727C86.6299 81.823 86.6299 82.3863 86.4244 82.887C86.0135 83.8257 83.9588 84.3264 83.137 83.7631C82.9315 83.638 83 83.5128 83.0685 83.325C83.137 82.9495 83.3424 82.6366 83.6164 82.3863C85.4656 80.5713 85.1231 78.3809 84.9177 76.253C84.7122 75.5646 84.5752 74.8762 84.5067 74.1877Z" fill="#4F2212"/>
<path d="M54.9057 52.361C54.7763 52.2222 54.7116 52.0139 54.5821 51.9444C53.9996 51.4584 53.2229 51.1113 53.0935 50.2781C52.8993 49.0284 53.0288 47.7786 53.2877 46.5289C53.3524 46.1123 53.7407 45.904 54.1938 46.0428C55.2294 46.39 55.8766 47.1537 56.3296 48.1952C56.4591 48.5423 56.4591 48.8895 56.7827 49.0978C56.7827 50.0698 57.6241 50.7641 57.6888 51.7361C57.6888 52.0139 57.883 52.2916 57.883 52.5693C57.9477 52.9859 58.1419 53.5413 57.8183 53.8885C57.4299 54.2356 57.1063 53.6802 56.7827 53.4719C56.2002 53.1248 55.553 52.7082 54.9057 52.361Z" fill="#7D1520"/>
<path d="M47 55.8055C47.0612 55.3103 47.0612 54.9565 47.0612 54.7443C47.0612 54.4613 47.0612 54.3199 47.1225 54.1784C47.1837 53.9661 47.3062 53.7539 47.5512 53.4709C47.6737 53.3294 47.7962 53.188 48.0411 53.0465C48.2861 52.9757 48.4698 52.9757 48.7148 53.1172C48.7148 53.4002 48.7148 53.5417 48.776 53.6832C48.8373 53.8246 48.8985 53.8954 48.9598 54.0369C49.021 54.3198 49.021 54.6736 48.8985 54.9565C48.776 55.3103 48.5311 55.664 48.1636 55.8762C47.7962 56.0177 47.4287 56.0884 47 55.8055Z" fill="#4F2212"/>
<path d="M50 49C50.0465 48.6828 50.1395 48.429 50.186 48.1752L50.2791 47.7945C50.2791 47.6676 50.3256 47.4773 50.4651 47.2869C50.6977 46.9697 51.0233 46.9697 51.2558 47.0332C51.4884 47.0966 51.7674 47.3504 51.907 47.6676L52 47.9849L51.814 48.1117C51.6744 48.1752 51.5814 48.1752 51.4884 48.2386C51.3953 48.2386 51.2558 48.2386 51.1628 48.2386C50.9302 48.1752 50.7442 48.1117 50.5581 47.9214C50.7907 47.9214 50.9767 47.9214 51.1628 47.858C51.2558 47.858 51.3488 47.7945 51.4419 47.7311C51.5349 47.6676 51.6279 47.6676 51.6744 47.6042L51.5814 47.9849C51.4884 47.858 51.3023 47.5407 51.1163 47.4773C50.9767 47.4138 50.8837 47.4138 50.7907 47.5407C50.7442 47.6042 50.6977 47.858 50.6512 47.9849C50.6046 48.1117 50.5581 48.2386 50.4651 48.3655C50.2791 48.6193 50.1395 48.8097 50 49Z" fill="#4F2212"/>
<path d="M46.0041 54.4977C46.0041 54.4977 45.9214 53.2419 46.5 53.0744C47.0786 52.907 46.9959 53.0744 46.9959 53.0744C46.9959 53.0744 46.9133 53.9953 46.8306 54.414C46.748 54.8326 46.5827 55 46.5827 55L46.0867 54.9163L46.0041 54.4977Z" fill="#4F2212"/>
</svg>
