<svg width="50" height="50" viewBox="0 0 50 50" fill="none" xmlns="http://www.w3.org/2000/svg">
<path d="M38.618 16.2666L34.018 11.6666C31.818 9.46662 29.218 10.9166 28.468 11.6666L13.468 26.6666C13.368 26.7666 13.268 26.9166 13.268 27.0666L10.518 38.8166C10.468 39.1166 10.518 39.3666 10.718 39.5666C10.968 39.8166 11.268 39.8166 11.468 39.7666L23.218 37.0166C23.368 36.9666 23.518 36.9166 23.618 36.8166L38.618 21.8166C39.368 21.1166 40.918 18.5666 38.618 16.2666ZM26.718 15.7166L30.068 19.0666L19.568 29.5666C19.368 28.8166 18.968 28.0166 18.318 27.4166C17.718 26.8166 16.968 26.3666 16.168 26.1666L26.718 15.7166ZM12.368 37.9666L13.018 35.2666C13.868 35.7666 14.568 36.5166 15.068 37.3166L12.368 37.9666ZM22.568 35.5666L16.718 36.9166C15.968 35.5166 14.818 34.3166 13.368 33.5666L14.718 27.7166C15.568 27.5166 16.468 27.8666 17.168 28.5666C17.918 29.3166 18.218 30.4166 17.968 31.2666C17.868 31.5666 17.968 31.8666 18.168 32.1166C18.368 32.3166 18.718 32.4166 19.018 32.3166C19.868 32.0166 20.968 32.3166 21.718 33.1166C22.418 33.8166 22.718 34.7666 22.568 35.5666ZM24.118 34.0666C23.918 33.3166 23.518 32.5666 22.868 31.9166C22.268 31.3166 21.518 30.9166 20.718 30.6666L31.218 20.1666L34.568 23.5166L24.118 34.0666ZM37.468 20.7166L35.768 22.4666L27.868 14.5666L29.568 12.8166C30.018 12.3666 31.518 11.4666 32.818 12.8166L37.418 17.4166C38.918 18.8666 37.868 20.2666 37.468 20.7166Z" fill="white"/>
</svg>
