<svg width="300" height="300" viewBox="0 0 300 300" fill="none" xmlns="http://www.w3.org/2000/svg">
<path d="M15.144 142.754H80.7382C83.047 142.754 84.8822 140.919 84.8822 138.61V94.6243H11V138.61C11 140.919 12.8944 142.754 15.144 142.754Z" fill="white"/>
<path d="M84.8822 65.6753C84.8822 63.3665 83.047 61.5312 80.7382 61.5312H15.144C12.8352 61.5312 11 63.3665 11 65.6753V86.6323H84.8822V65.6753Z" fill="#821B1C"/>
<path d="M84.823 86.5732H11V89.5333H84.823V86.5732Z" fill="#821B1C"/>
<path d="M84.823 89.5332H11V92.4932H84.823V89.5332Z" fill="#821B1C"/>
<path d="M67.4777 63.6626C65.1688 63.6626 63.2744 65.557 63.2744 67.8658C63.2744 70.1747 65.1688 72.0691 67.4777 72.0691C69.7865 72.0691 71.6809 70.1747 71.6809 67.8658C71.6809 65.4978 69.7865 63.6626 67.4777 63.6626Z" fill="#F5A999"/>
<path d="M28.2862 63.6626C25.9774 63.6626 24.083 65.557 24.083 67.8658C24.083 70.1747 25.9774 72.0691 28.2862 72.0691C30.5951 72.0691 32.4895 70.1747 32.4895 67.8658C32.4895 65.4978 30.5951 63.6626 28.2862 63.6626Z" fill="#F5A999"/>
<path d="M67.5359 63.6033C65.4639 63.6033 63.7471 65.3201 63.7471 67.3921C63.7471 69.4641 65.4639 71.1809 67.5359 71.1809C69.6079 71.1809 71.3247 69.4641 71.3247 67.3921C71.3247 65.3201 69.6079 63.6033 67.5359 63.6033Z" fill="#752515"/>
<path d="M67.5361 52V70.293C69.1345 70.293 70.3778 68.9905 70.3778 67.4513V54.9008C70.3778 53.3024 69.1345 52 67.5361 52Z" fill="black"/>
<path d="M67.536 52C65.9375 52 64.6943 53.3024 64.6943 54.8416V67.4513C64.6943 69.0497 65.9967 70.293 67.536 70.293V52Z" fill="black"/>
<path opacity="0.1" d="M67.536 52C65.9375 52 64.6943 53.3024 64.6943 54.8416V67.4513C64.6943 69.0497 65.9967 70.293 67.536 70.293V52Z" fill="black"/>
<path d="M28.405 63.6033C26.333 63.6033 24.6162 65.3201 24.6162 67.3921C24.6162 69.4641 26.333 71.1809 28.405 71.1809C30.4771 71.1809 32.1939 69.4641 32.1939 67.3921C32.1939 65.3201 30.4771 63.6033 28.405 63.6033Z" fill="#752515"/>
<path d="M28.4043 52V70.293C30.0027 70.293 31.2459 68.9905 31.2459 67.4513V54.9008C31.2459 53.3024 30.0027 52 28.4043 52Z" fill="black"/>
<path d="M28.4041 52C26.8057 52 25.5625 53.3024 25.5625 54.8416V67.4513C25.5625 69.0497 26.8649 70.293 28.4041 70.293V52Z" fill="black"/>
<path opacity="0.1" d="M28.4041 52C26.8057 52 25.5625 53.3024 25.5625 54.8416V67.4513C25.5625 69.0497 26.8649 70.293 28.4041 70.293V52Z" fill="black"/>
<path d="M40.3633 130.441V127.777H46.9937V108.714C45.4545 109.957 43.2641 110.549 40.4225 110.549V108.004C41.9025 107.944 43.3233 107.589 44.6257 107.056C45.9281 106.464 46.8753 105.636 47.4673 104.452H49.8946V127.717H56.1698V130.381H40.3633V130.441Z" fill="#821B1C" stroke="#821B1C" stroke-width="3" stroke-miterlimit="10"/>
<path d="M38.9434 79.2324H39.5946L40.9562 81.8372L42.3178 79.2324H42.969L41.2522 82.37V84.5013H40.6602V82.37L38.9434 79.2324Z" fill="white"/>
<path d="M47.2311 84.5605H43.7383V79.2324H47.2311V79.7652H44.3303V81.5412H47.1719V82.074H44.3303V83.9685H47.2311V84.5605Z" fill="white"/>
<path d="M50.0144 79.2324H50.6656L52.7376 84.5605H52.1456L51.672 83.3173H49.0672L48.5936 84.5605H47.9424L50.0144 79.2324ZM51.4352 82.7845L50.3696 80.002L49.304 82.7845H51.4352Z" fill="white"/>
<path d="M57.4733 84.5605H56.7629L55.4013 82.6068H54.0988V84.5605H53.5068V79.2324H55.3421C55.9341 79.2324 56.4077 79.41 56.7629 79.706C57.1181 80.002 57.2957 80.4164 57.2957 80.9492C57.2957 81.3636 57.1773 81.7188 56.9405 81.9556C56.7037 82.1925 56.4077 82.4293 55.9933 82.5477L57.4733 84.5605ZM55.4605 79.7652H54.0988V82.0148H55.4605C55.8749 82.0148 56.1709 81.8964 56.4077 81.7188C56.6445 81.5412 56.7629 81.2452 56.7629 80.89C56.7629 80.5348 56.6445 80.2388 56.4077 80.0612C56.1709 79.8836 55.8749 79.7652 55.4605 79.7652Z" fill="white"/>
<path d="M116.733 142.754H182.327C184.636 142.754 186.471 140.919 186.471 138.61V94.6243H112.589V138.61C112.589 140.919 114.424 142.754 116.733 142.754Z" fill="white"/>
<path d="M186.412 65.6753C186.412 63.3665 184.577 61.5312 182.268 61.5312H116.733C114.424 61.5312 112.589 63.3665 112.589 65.6753V86.6323H186.412V65.6753Z" fill="#821B1C"/>
<path d="M186.412 86.5732H112.589V89.5333H186.412V86.5732Z" fill="#821B1C"/>
<path d="M186.412 89.5332H112.589V92.4932H186.412V89.5332Z" fill="#821B1C"/>
<path d="M169.067 63.6626C166.758 63.6626 164.863 65.557 164.863 67.8658C164.863 70.1747 166.758 72.0691 169.067 72.0691C171.375 72.0691 173.27 70.1747 173.27 67.8658C173.27 65.4978 171.375 63.6626 169.067 63.6626Z" fill="#F5A999"/>
<path d="M129.875 63.6626C127.566 63.6626 125.672 65.557 125.672 67.8658C125.672 70.1747 127.566 72.0691 129.875 72.0691C132.184 72.0691 134.078 70.1747 134.078 67.8658C134.078 65.4978 132.184 63.6626 129.875 63.6626Z" fill="#F5A999"/>
<path d="M169.066 63.6033C166.994 63.6033 165.277 65.3201 165.277 67.3921C165.277 69.4641 166.994 71.1809 169.066 71.1809C171.138 71.1809 172.855 69.4641 172.855 67.3921C172.855 65.3201 171.197 63.6033 169.066 63.6033Z" fill="#752515"/>
<path d="M169.125 52V70.293C170.723 70.293 171.967 68.9905 171.967 67.4513V54.9008C171.967 53.3024 170.664 52 169.125 52Z" fill="black"/>
<path d="M169.125 52C167.526 52 166.283 53.3024 166.283 54.8416V67.4513C166.283 69.0497 167.586 70.293 169.125 70.293V52Z" fill="black"/>
<path opacity="0.1" d="M169.125 52C167.526 52 166.283 53.3024 166.283 54.8416V67.4513C166.283 69.0497 167.586 70.293 169.125 70.293V52Z" fill="black"/>
<path d="M129.934 63.6033C127.862 63.6033 126.146 65.3201 126.146 67.3921C126.146 69.4641 127.862 71.1809 129.934 71.1809C132.006 71.1809 133.723 69.4641 133.723 67.3921C133.723 65.3201 132.006 63.6033 129.934 63.6033Z" fill="#752515"/>
<path d="M129.936 52V70.293C131.534 70.293 132.777 68.9905 132.777 67.4513V54.9008C132.836 53.3024 131.534 52 129.936 52Z" fill="black"/>
<path d="M129.935 52C128.337 52 127.094 53.3024 127.094 54.8416V67.4513C127.094 69.0497 128.396 70.293 129.935 70.293V52Z" fill="black"/>
<path opacity="0.1" d="M129.935 52C128.337 52 127.094 53.3024 127.094 54.8416V67.4513C127.094 69.0497 128.396 70.293 129.935 70.293V52Z" fill="black"/>
<path d="M144.557 127.777H158.173V130.441H141.538V129.612C141.538 126.889 142.13 124.639 143.314 122.804C144.498 120.969 146.689 119.311 149.826 117.831L150.537 117.476C152.135 116.706 153.319 115.877 154.148 114.989C154.977 114.101 155.391 112.917 155.391 111.378C155.391 109.957 154.858 108.832 153.852 108.004C152.845 107.175 151.484 106.701 149.945 106.701C148.405 106.701 147.103 107.175 146.037 108.063C144.972 109.01 144.143 110.194 143.492 111.615L141.538 109.661C142.308 107.944 143.373 106.583 144.794 105.517C146.215 104.511 147.873 103.978 149.885 103.978C152.194 103.978 154.207 104.629 155.805 105.991C157.463 107.352 158.233 109.247 158.233 111.674C158.233 113.45 157.7 114.93 156.693 116.173C155.687 117.417 154.089 118.601 152.017 119.725L149.945 120.791C146.511 122.626 144.676 124.935 144.557 127.777Z" fill="#821B1C" stroke="#821B1C" stroke-width="3" stroke-miterlimit="10"/>
<path d="M140.472 79.2324H141.123L142.484 81.8372L143.846 79.2324H144.497L142.78 82.37V84.5013H142.188V82.37L140.472 79.2324Z" fill="white"/>
<path d="M148.759 84.5605H145.267V79.2324H148.759V79.7652H145.859V81.5412H148.7V82.074H145.859V83.9685H148.759V84.5605Z" fill="white"/>
<path d="M151.543 79.2324H152.194L154.266 84.5605H153.674L153.2 83.3173H150.596L150.122 84.5605H149.471L151.543 79.2324ZM152.964 82.7845L151.898 80.002L150.832 82.7845H152.964Z" fill="white"/>
<path d="M159.002 84.5605H158.292L156.93 82.6068H155.687V84.5605H155.095V79.2324H156.93C157.522 79.2324 157.996 79.41 158.351 79.706C158.706 80.002 158.884 80.4164 158.884 80.9492C158.884 81.3636 158.765 81.7188 158.528 81.9556C158.292 82.2517 157.996 82.4293 157.581 82.5477L159.002 84.5605ZM157.048 79.7652H155.687V82.0148H157.048C157.463 82.0148 157.759 81.8964 157.996 81.7188C158.232 81.5412 158.351 81.2452 158.351 80.89C158.351 80.5348 158.232 80.2388 157.996 80.0612C157.759 79.8836 157.404 79.7652 157.048 79.7652Z" fill="white"/>
<path d="M124.133 157.436V175.729C125.731 175.729 126.974 174.427 126.974 172.887V160.278C126.974 158.738 125.672 157.436 124.133 157.436Z" fill="black"/>
<path d="M124.133 157.436C122.534 157.436 121.291 158.738 121.291 160.278V172.887C121.291 174.486 122.593 175.729 124.133 175.729V157.436Z" fill="black"/>
<path opacity="0.1" d="M124.133 157.436C122.534 157.436 121.291 158.738 121.291 160.278V172.887C121.291 174.486 122.593 175.729 124.133 175.729V157.436Z" fill="black"/>
<path d="M71.7407 248.191H137.335C139.644 248.191 141.479 246.355 141.479 244.047V200.061H67.5967V244.047C67.5967 246.296 69.4319 248.191 71.7407 248.191Z" fill="white"/>
<path d="M141.42 171.052C141.42 168.743 139.585 166.908 137.276 166.908H71.7407C69.4319 166.908 67.5967 168.743 67.5967 171.052V192.009H141.42V171.052Z" fill="#821B1C"/>
<path d="M141.42 192.009H67.5967V194.969H141.42V192.009Z" fill="#821B1C"/>
<path d="M141.42 194.969H67.5967V197.929H141.42V194.969Z" fill="#821B1C"/>
<path d="M124.074 169.039C121.766 169.039 119.871 170.934 119.871 173.243C119.871 175.551 121.766 177.446 124.074 177.446C126.383 177.446 128.278 175.551 128.278 173.243C128.278 170.934 126.383 169.039 124.074 169.039Z" fill="#F5A999"/>
<path d="M84.8829 169.039C82.5741 169.039 80.6797 170.934 80.6797 173.243C80.6797 175.551 82.5741 177.446 84.8829 177.446C87.1917 177.446 89.0862 175.551 89.0862 173.243C89.0862 170.934 87.1917 169.039 84.8829 169.039Z" fill="#F5A999"/>
<path d="M124.074 169.039C122.002 169.039 120.285 170.756 120.285 172.828C120.285 174.9 122.002 176.617 124.074 176.617C126.146 176.617 127.863 174.9 127.863 172.828C127.863 170.756 126.205 169.039 124.074 169.039Z" fill="#752515"/>
<path d="M84.9431 169.039C82.8711 169.039 81.1543 170.756 81.1543 172.828C81.1543 174.9 82.8711 176.617 84.9431 176.617C87.0152 176.617 88.732 174.9 88.732 172.828C88.732 170.756 87.0152 169.039 84.9431 169.039Z" fill="#752515"/>
<path d="M84.9424 157.436V175.729C86.5408 175.729 87.784 174.427 87.784 172.887V160.278C87.8432 158.738 86.5408 157.436 84.9424 157.436Z" fill="black"/>
<path d="M84.9422 157.436C83.3438 157.436 82.1006 158.738 82.1006 160.278V172.887C82.1006 174.486 83.403 175.729 84.9422 175.729V157.436Z" fill="black"/>
<path opacity="0.1" d="M84.9422 157.436C83.3438 157.436 82.1006 158.738 82.1006 160.278V172.887C82.1006 174.486 83.403 175.729 84.9422 175.729V157.436Z" fill="black"/>
<path d="M114.365 226.642V229.306H110.754V235.877H107.912V229.306H95.8945V226.878L108.09 209.947H110.695V226.642H114.365ZM107.912 214.269L98.9138 226.642H107.912V214.269Z" fill="#821B1C" stroke="#821B1C" stroke-width="3" stroke-miterlimit="10"/>
<path d="M95.4805 184.668H96.1317L97.4933 187.273L98.8549 184.668H99.5061L97.7893 187.806V189.937H97.1973V187.806L95.4805 184.668Z" fill="white"/>
<path d="M103.768 189.937H100.275V184.609H103.768V185.142H100.867V186.918H103.709V187.451H100.867V189.345H103.768V189.937Z" fill="white"/>
<path d="M106.552 184.668H107.203L109.275 189.997H108.683L108.209 188.753H105.604L105.131 189.997H104.479L106.552 184.668ZM107.972 188.161L106.907 185.379L105.841 188.161H107.972Z" fill="white"/>
<path d="M114.011 189.937H113.3L111.939 187.984H110.696V189.937H110.104V184.609H111.939C112.531 184.609 113.004 184.787 113.36 185.083C113.715 185.379 113.892 185.793 113.892 186.326C113.892 186.74 113.774 187.096 113.537 187.332C113.3 187.628 113.004 187.806 112.59 187.924L114.011 189.937ZM112.057 185.201H110.696V187.451H112.057C112.472 187.451 112.768 187.332 113.004 187.155C113.241 186.977 113.36 186.681 113.36 186.326C113.36 185.971 113.241 185.675 113.004 185.497C112.768 185.32 112.412 185.201 112.057 185.201Z" fill="white"/>
<path d="M225.663 157.436V175.729C227.261 175.729 228.505 174.427 228.505 172.887V160.278C228.505 158.738 227.261 157.436 225.663 157.436Z" fill="black"/>
<path d="M225.663 157.436C224.064 157.436 222.821 158.738 222.821 160.278V172.887C222.821 174.486 224.124 175.729 225.663 175.729V157.436Z" fill="black"/>
<path opacity="0.1" d="M225.663 157.436C224.064 157.436 222.821 158.738 222.821 160.278V172.887C222.821 174.486 224.124 175.729 225.663 175.729V157.436Z" fill="black"/>
<path d="M173.27 248.191H238.864C241.173 248.191 243.008 246.355 243.008 244.047V200.061H169.126V244.047C169.126 246.296 171.02 248.191 173.27 248.191Z" fill="white"/>
<path d="M243.008 171.052C243.008 168.743 241.173 166.908 238.864 166.908H173.27C170.961 166.908 169.126 168.743 169.126 171.052V192.009H242.949V171.052H243.008Z" fill="#821B1C"/>
<path d="M242.949 192.009H169.126V194.969H242.949V192.009Z" fill="#821B1C"/>
<path d="M242.949 194.969H169.126V197.929H242.949V194.969Z" fill="#821B1C"/>
<path d="M225.604 169.039C223.295 169.039 221.4 170.934 221.4 173.243C221.4 175.551 223.295 177.446 225.604 177.446C227.912 177.446 229.807 175.551 229.807 173.243C229.807 170.934 227.912 169.039 225.604 169.039Z" fill="#F5A999"/>
<path d="M186.412 169.039C184.103 169.039 182.209 170.934 182.209 173.243C182.209 175.551 184.103 177.446 186.412 177.446C188.721 177.446 190.615 175.551 190.615 173.243C190.615 170.934 188.721 169.039 186.412 169.039Z" fill="#F5A999"/>
<path d="M225.662 169.039C223.59 169.039 221.873 170.756 221.873 172.828C221.873 174.9 223.59 176.617 225.662 176.617C227.734 176.617 229.451 174.9 229.451 172.828C229.451 170.756 227.734 169.039 225.662 169.039Z" fill="#752515"/>
<path d="M186.531 169.039C184.459 169.039 182.742 170.756 182.742 172.828C182.742 174.9 184.459 176.617 186.531 176.617C188.603 176.617 190.32 174.9 190.32 172.828C190.32 170.756 188.603 169.039 186.531 169.039Z" fill="#752515"/>
<path d="M186.531 157.436V175.729C188.13 175.729 189.373 174.427 189.373 172.887V160.278C189.373 158.738 188.13 157.436 186.531 157.436Z" fill="black"/>
<path d="M186.531 157.436C184.933 157.436 183.689 158.738 183.689 160.278V172.887C183.689 174.486 184.992 175.729 186.531 175.729V157.436Z" fill="black"/>
<path opacity="0.1" d="M186.531 157.436C184.933 157.436 183.689 158.738 183.689 160.278V172.887C183.689 174.486 184.992 175.729 186.531 175.729V157.436Z" fill="black"/>
<path d="M212.579 227.826C212.579 226.05 212.046 224.629 210.921 223.622C209.797 222.616 208.376 222.083 206.718 222.083C205.653 222.083 204.587 222.379 203.64 222.912C202.693 223.445 201.982 224.155 201.568 224.925H199.022L199.673 209.947H213.526V212.611H202.219L201.805 221.373C202.278 220.781 203.048 220.307 203.995 219.952C204.942 219.597 206.008 219.419 207.133 219.419C209.441 219.419 211.395 220.189 213.053 221.669C214.71 223.149 215.48 225.221 215.48 227.885C215.48 230.253 214.651 232.206 212.993 233.864C211.336 235.522 209.086 236.35 206.304 236.35C203.107 236.35 200.443 235.048 198.193 232.384L200.206 230.43C201.923 232.621 203.995 233.746 206.422 233.746C208.198 233.746 209.678 233.213 210.862 232.147C211.987 230.963 212.579 229.542 212.579 227.826Z" fill="#821B1C" stroke="#821B1C" stroke-width="3" stroke-miterlimit="10"/>
<path d="M197.068 184.668H197.72L199.081 187.273L200.443 184.668H201.094L199.377 187.806V189.937H198.785V187.806L197.068 184.668Z" fill="white"/>
<path d="M205.356 189.937H201.863V184.609H205.356V185.142H202.455V186.918H205.297V187.451H202.455V189.345H205.356V189.937Z" fill="white"/>
<path d="M208.139 184.668H208.791L210.863 189.997H210.271L209.797 188.753H207.192L206.719 189.997H206.067L208.139 184.668ZM209.56 188.161L208.495 185.379L207.429 188.161H209.56Z" fill="white"/>
<path d="M215.599 189.937H214.888L213.527 187.984H212.283V189.937H211.691V184.609H213.527C214.119 184.609 214.592 184.787 214.947 185.083C215.303 185.379 215.48 185.793 215.48 186.326C215.48 186.74 215.362 187.096 215.125 187.332C214.888 187.628 214.592 187.806 214.178 187.924L215.599 189.937ZM213.586 185.201H212.224V187.451H213.586C214 187.451 214.296 187.332 214.533 187.155C214.77 186.977 214.888 186.681 214.888 186.326C214.888 185.971 214.77 185.675 214.533 185.497C214.296 185.32 214 185.201 213.586 185.201Z" fill="white"/>
<path d="M218.262 142.754H283.856C286.165 142.754 288 140.919 288 138.61V94.6243H214.118V138.61C214.118 140.919 216.013 142.754 218.262 142.754Z" fill="white"/>
<path d="M288 65.6753C288 63.3665 286.165 61.5312 283.856 61.5312H218.262C215.953 61.5312 214.118 63.3665 214.118 65.6753V86.6323H287.941V65.6753H288Z" fill="#821B1C"/>
<path d="M287.941 86.5732H214.118V89.5333H287.941V86.5732Z" fill="#821B1C"/>
<path d="M287.941 89.5332H214.118V92.4932H287.941V89.5332Z" fill="#821B1C"/>
<path d="M270.596 63.6626C268.287 63.6626 266.393 65.557 266.393 67.8658C266.393 70.1747 268.287 72.0691 270.596 72.0691C272.905 72.0691 274.799 70.1747 274.799 67.8658C274.799 65.4978 272.964 63.6626 270.596 63.6626Z" fill="#F5A999"/>
<path d="M231.404 63.6626C229.096 63.6626 227.201 65.557 227.201 67.8658C227.201 70.1747 229.096 72.0691 231.404 72.0691C233.713 72.0691 235.608 70.1747 235.608 67.8658C235.608 65.4978 233.713 63.6626 231.404 63.6626Z" fill="#F5A999"/>
<path d="M270.654 63.6033C268.582 63.6033 266.865 65.3201 266.865 67.3921C266.865 69.4641 268.582 71.1809 270.654 71.1809C272.726 71.1809 274.443 69.4641 274.443 67.3921C274.443 65.3201 272.726 63.6033 270.654 63.6033Z" fill="#752515"/>
<path d="M270.655 52V70.293C272.254 70.293 273.497 68.9905 273.497 67.4513V54.9008C273.497 53.3024 272.254 52 270.655 52Z" fill="black"/>
<path d="M270.655 52C269.057 52 267.813 53.3024 267.813 54.8416V67.4513C267.813 69.0497 269.116 70.293 270.655 70.293V52Z" fill="black"/>
<path opacity="0.1" d="M270.655 52C269.057 52 267.813 53.3024 267.813 54.8416V67.4513C267.813 69.0497 269.116 70.293 270.655 70.293V52Z" fill="black"/>
<path d="M231.523 63.6033C229.451 63.6033 227.734 65.3201 227.734 67.3921C227.734 69.4641 229.451 71.1809 231.523 71.1809C233.595 71.1809 235.312 69.4641 235.312 67.3921C235.312 65.3201 233.595 63.6033 231.523 63.6033Z" fill="#752515"/>
<path d="M231.523 52V70.293C233.122 70.293 234.365 68.9905 234.365 67.4513V54.9008C234.365 53.3024 233.122 52 231.523 52Z" fill="black"/>
<path d="M231.523 52C229.925 52 228.682 53.3024 228.682 54.8416V67.4513C228.682 69.0497 229.984 70.293 231.523 70.293V52Z" fill="black"/>
<path opacity="0.1" d="M231.523 52C229.925 52 228.682 53.3024 228.682 54.8416V67.4513C228.682 69.0497 229.984 70.293 231.523 70.293V52Z" fill="black"/>
<path d="M255.202 116.884C256.386 117.357 257.452 118.186 258.281 119.252C259.11 120.318 259.524 121.679 259.524 123.218C259.524 125.646 258.695 127.54 257.038 128.902C255.38 130.204 253.367 130.914 250.94 130.914C249.341 130.914 247.802 130.559 246.204 129.908C244.605 129.257 243.362 128.31 242.415 127.185L244.369 125.231C246.145 127.244 248.394 128.25 251.118 128.25C252.716 128.25 254.018 127.836 255.084 127.007C256.15 126.178 256.682 124.935 256.682 123.278C256.682 121.679 256.09 120.495 254.906 119.725C253.722 118.956 252.183 118.601 250.348 118.601H248.394V115.877H249.933C251.769 115.877 253.249 115.463 254.374 114.575C255.498 113.746 256.09 112.503 256.09 111.023C256.09 109.543 255.558 108.477 254.492 107.767C253.426 107.057 252.302 106.701 250.999 106.701C248.631 106.701 246.618 107.649 245.02 109.543L243.125 107.589C245.257 105.221 247.861 104.037 250.881 104.037C253.012 104.037 254.906 104.629 256.505 105.873C258.103 107.116 258.932 108.833 258.932 111.023C258.932 112.444 258.518 113.687 257.748 114.753C256.86 115.877 256.09 116.529 255.202 116.884Z" fill="#821B1C" stroke="#821B1C" stroke-width="3" stroke-miterlimit="10"/>
<path d="M242.061 79.2322H242.712L244.073 81.837L245.435 79.2322H246.086L244.369 82.3698V84.501H243.777V82.3698L242.061 79.2322Z" fill="white"/>
<path d="M250.348 84.5605H246.855V79.2324H250.348V79.7652H247.447V81.5412H250.289V82.074H247.447V83.9685H250.348V84.5605Z" fill="white"/>
<path d="M253.132 79.2324H253.783L255.855 84.5605H255.263L254.789 83.3173H252.184L251.711 84.5605H251.06L253.132 79.2324ZM254.552 82.7845L253.487 80.002L252.421 82.7845H254.552Z" fill="white"/>
<path d="M260.591 84.5605H259.88L258.519 82.6068H257.276V84.5605H256.684V79.2324H258.519C259.111 79.2324 259.584 79.41 259.94 79.706C260.295 80.002 260.472 80.4164 260.472 80.9492C260.472 81.3636 260.354 81.7188 260.117 81.9556C259.88 82.2517 259.584 82.4293 259.17 82.5477L260.591 84.5605ZM258.578 79.7652H257.216V82.0148H258.578C258.992 82.0148 259.288 81.8964 259.525 81.7188C259.762 81.5412 259.88 81.2452 259.88 80.89C259.88 80.5348 259.762 80.2388 259.525 80.0612C259.288 79.8836 258.992 79.7652 258.578 79.7652Z" fill="white"/>
</svg>
