<svg width="100" height="100" viewBox="0 0 100 100" fill="none" xmlns="http://www.w3.org/2000/svg">
<path d="M22.0613 57.0909C21.9519 57.2545 21.8972 57.4182 21.8424 57.5818L14.5109 54.3091C14.5656 54.1455 14.6203 53.9818 14.7297 53.8182L22.0613 57.0909Z" fill="#EF6C56"/>
<path d="M33.9341 62.4364C33.8794 62.5455 33.8246 62.7091 33.7699 62.8182C33.7699 62.8727 33.7152 62.8727 33.7152 62.9273L26.3289 59.6C26.4384 59.4364 26.4931 59.2727 26.5478 59.1091L33.9341 62.4364Z" fill="#EF6C56"/>
<path d="M23.4839 60.6909L20.2011 67.9454C20.0369 67.8909 19.8728 67.7818 19.7086 67.7273L22.9367 60.4727C23.1556 60.5818 23.3197 60.6364 23.4839 60.6909Z" fill="#EF6C56"/>
<path d="M22.0066 59.4909L14.5656 62.3273C14.5109 62.1636 14.4015 62 14.3467 61.8364L21.7877 59C21.8425 59.1636 21.9519 59.3273 22.0066 59.4909Z" fill="#EF6C56"/>
<path d="M34.2624 54.8545L26.6025 57.7455C26.5478 57.5818 26.4931 57.4182 26.4384 57.2L34.0982 54.3091C34.1529 54.4727 34.2076 54.5818 34.2624 54.7455C34.2076 54.8 34.2076 54.8545 34.2624 54.8545Z" fill="#EF6C56"/>
<path d="M23.648 55.9455C23.4838 56 23.265 56.0545 23.1009 56.1091L20.201 48.5818C20.3652 48.5273 20.5293 48.4182 20.6935 48.3636L23.648 55.9455Z" fill="#EF6C56"/>
<path d="M28.2439 67.9455C28.0798 68 27.9156 68.0546 27.7515 68.1636L24.9064 60.6909C25.0705 60.6364 25.2347 60.5818 25.3988 60.4727L28.2439 67.9455Z" fill="#EF6C56"/>
<path d="M14.5109 54.3091C14.292 54.8545 14.1279 55.4545 13.9637 56.0545C14.1279 55.4545 14.292 54.9091 14.5109 54.3091C14.5656 54.1455 14.675 53.9818 14.7297 53.8182C14.675 53.9818 14.5656 54.1455 14.5109 54.3091Z" fill="#4F2212"/>
<path d="M36.7245 64.1818C34.4812 68.9818 29.557 72.0364 24.2498 72.0364C22.1707 72.0364 20.1463 71.6 18.2861 70.6727C14.9486 69.0909 12.4318 66.3091 11.2281 62.8182C9.96967 59.3273 10.1885 55.6182 11.7752 52.2364C14.0732 47.4909 18.9974 44.3818 24.3045 44.3818C25.9459 44.3818 27.5873 44.6545 29.1193 45.2545L28.5175 46.4545L28.2439 47L27.8609 47.7636C26.7119 47.3818 25.5082 47.1636 24.3045 47.1636C22.9914 47.1636 21.733 47.3818 20.584 47.8182C20.4199 47.8727 20.2558 47.9273 20.0916 48.0364C17.6295 49.0727 15.4957 50.9818 14.3467 53.4909C14.3467 53.5455 14.292 53.6 14.292 53.6545C14.2373 53.8182 14.1279 53.9818 14.0732 54.1455C13.0883 56.6545 13.0336 59.3818 13.909 61.9455C13.909 62 13.909 62 13.9637 62.0545C14.0185 62.2182 14.0732 62.3818 14.1826 62.5455C15.2221 65.0545 17.0824 67.0182 19.5445 68.2182H19.5992C19.7633 68.3273 19.9275 68.3818 20.0916 68.4364C21.4047 68.9818 22.882 69.3091 24.3045 69.3091C25.563 69.3091 26.8214 69.0909 27.9703 68.7091C28.1345 68.6545 28.2986 68.6 28.4628 68.4909C30.9249 67.5091 33.004 65.6 34.2076 63.2C34.2076 63.1455 34.2624 63.0909 34.2624 63.0364C34.3171 62.9273 34.3718 62.8182 34.4265 62.6545C35.5208 60.1455 35.6302 57.3091 34.7548 54.6909C34.7548 54.6364 34.7001 54.5818 34.7001 54.5273C34.6454 54.4182 34.5906 54.3091 34.5906 54.1455C33.7152 51.9091 32.1833 50.0545 30.1589 48.8L30.5419 48.0364L30.8154 47.4909L31.3626 46.2909C34.2076 47.9273 36.2868 50.5455 37.381 53.6C38.53 57.0909 38.3659 60.8545 36.7245 64.1818Z" fill="#4F2212"/>
<path d="M34.4265 62.6C34.3718 62.7091 34.3171 62.8182 34.2624 62.9818C34.2624 63.0364 34.2076 63.0909 34.2076 63.1455C33.004 65.6 30.9248 67.4545 28.4628 68.4364C28.2986 68.4909 28.1345 68.5455 27.9703 68.6545C26.8214 69.0364 25.563 69.2545 24.3045 69.2545C22.882 69.2545 21.4047 68.9818 20.0916 68.3818C19.9275 68.3273 19.7633 68.2182 19.5992 68.1636H19.5445C17.0824 67.0182 15.2221 65 14.1826 62.4909C14.1279 62.3273 14.0185 62.1636 13.9637 62C13.9637 61.9455 13.909 61.9455 13.909 61.8909C12.9242 59.3273 13.0336 56.6 14.0185 54.0909C14.0732 53.9273 14.1279 53.7636 14.2373 53.6C14.2373 53.5455 14.292 53.4909 14.292 53.4364C15.4957 50.9273 17.5748 49.0182 20.0369 47.9818C20.2011 47.9273 20.3652 47.8727 20.5293 47.7636C21.733 47.3273 22.9914 47.1091 24.2498 47.1091C25.4535 47.1091 26.6572 47.3273 27.8062 47.7091L27.5873 48.2V48.2545C26.5478 47.8727 25.3988 47.7091 24.2498 47.7091C23.0461 47.7091 21.8425 47.9273 20.6935 48.3091C20.5293 48.3636 20.3652 48.4182 20.2011 48.5273C18.3955 49.2909 16.7541 50.5455 15.6051 52.1818C15.5504 52.2909 15.441 52.4 15.3863 52.5091C15.2221 52.7818 15.058 53.0545 14.8939 53.3273C14.8392 53.4364 14.7844 53.5455 14.7297 53.6545C14.7297 53.7091 14.675 53.7091 14.675 53.7636C14.6203 53.9273 14.5109 54.0909 14.4562 54.2545C14.2373 54.8 14.0732 55.4 13.909 56C13.8543 56.2182 13.7996 56.4364 13.7996 56.7091C13.7996 56.8182 13.7449 56.9273 13.7449 57.0909C13.6355 57.9091 13.6355 58.7273 13.7449 59.5455C13.7449 59.7091 13.7996 59.9273 13.8543 60.0909C13.9637 60.6364 14.1279 61.1818 14.292 61.6727C14.292 61.7273 14.292 61.7273 14.3467 61.7818C14.4014 61.9455 14.4562 62.1091 14.5656 62.2727C15.5504 64.6182 17.356 66.5273 19.7086 67.6727C19.7086 67.6727 19.7086 67.6727 19.7633 67.6727C19.9275 67.7818 20.0916 67.8364 20.2558 67.8909C21.5142 68.4364 22.882 68.7091 24.2498 68.7091C25.4535 68.7091 26.6572 68.4909 27.7515 68.1091C27.9156 68.0545 28.0798 68 28.2439 67.8909C30.5966 66.9091 32.5662 65.1636 33.7152 62.8182C33.7152 62.7636 33.7699 62.7636 33.7699 62.7091C33.8247 62.6 33.8794 62.4364 33.9341 62.3273C34.9736 59.9273 35.0831 57.2545 34.2076 54.8V54.7455C34.1529 54.5818 34.0982 54.4727 34.0435 54.3091C33.2228 52.2364 31.7455 50.4909 29.8306 49.2909L29.8853 49.2364L30.1042 48.7455C32.1285 50 33.6605 51.8545 34.5359 54.0909C34.5906 54.2 34.6453 54.3091 34.6453 54.4727C34.6453 54.5273 34.7001 54.5818 34.7001 54.6364C35.6302 57.3091 35.5208 60.0909 34.4265 62.6Z" fill="#EF6C56"/>
<path d="M34.4265 62.6C34.3718 62.7091 34.3171 62.8182 34.2624 62.9818C34.2624 63.0364 34.2076 63.0909 34.2076 63.1455C33.004 65.6 30.9248 67.4545 28.4628 68.4364C28.2986 68.4909 28.1345 68.5455 27.9703 68.6545C26.8214 69.0364 25.563 69.2545 24.3045 69.2545C22.882 69.2545 21.4047 68.9818 20.0916 68.3818C19.9275 68.3273 19.7633 68.2182 19.5992 68.1636H19.5445C17.0824 67.0182 15.2221 65 14.1826 62.4909C14.1279 62.3273 14.0185 62.1636 13.9637 62C13.9637 61.9455 13.909 61.9455 13.909 61.8909C12.9242 59.3273 13.0336 56.6 14.0185 54.0909C14.0732 53.9273 14.1279 53.7636 14.2373 53.6C14.2373 53.5455 14.292 53.4909 14.292 53.4364C15.4957 50.9273 17.5748 49.0182 20.0369 47.9818C20.2011 47.9273 20.3652 47.8727 20.5293 47.7636C21.733 47.3273 22.9914 47.1091 24.2498 47.1091C25.4535 47.1091 26.6572 47.3273 27.8062 47.7091L27.5873 48.2V48.2545C26.5478 47.8727 25.3988 47.7091 24.2498 47.7091C23.0461 47.7091 21.8425 47.9273 20.6935 48.3091C20.5293 48.3636 20.3652 48.4182 20.2011 48.5273C18.3955 49.2909 16.7541 50.5455 15.6051 52.1818C15.5504 52.2909 15.441 52.4 15.3863 52.5091C15.2221 52.7818 15.058 53.0545 14.8939 53.3273C14.8392 53.4364 14.7844 53.5455 14.7297 53.6545C14.7297 53.7091 14.675 53.7091 14.675 53.7636C14.6203 53.9273 14.5109 54.0909 14.4562 54.2545C14.2373 54.8 14.0732 55.4 13.909 56C13.8543 56.2182 13.7996 56.4364 13.7996 56.7091C13.7996 56.8182 13.7449 56.9273 13.7449 57.0909C13.6355 57.9091 13.6355 58.7273 13.7449 59.5455C13.7449 59.7091 13.7996 59.9273 13.8543 60.0909C13.9637 60.6364 14.1279 61.1818 14.292 61.6727C14.292 61.7273 14.292 61.7273 14.3467 61.7818C14.4014 61.9455 14.4562 62.1091 14.5656 62.2727C15.5504 64.6182 17.356 66.5273 19.7086 67.6727C19.7086 67.6727 19.7086 67.6727 19.7633 67.6727C19.9275 67.7818 20.0916 67.8364 20.2558 67.8909C21.5142 68.4364 22.882 68.7091 24.2498 68.7091C25.4535 68.7091 26.6572 68.4909 27.7515 68.1091C27.9156 68.0545 28.0798 68 28.2439 67.8909C30.5966 66.9091 32.5662 65.1636 33.7152 62.8182C33.7152 62.7636 33.7699 62.7636 33.7699 62.7091C33.8247 62.6 33.8794 62.4364 33.9341 62.3273C34.9736 59.9273 35.0831 57.2545 34.2076 54.8V54.7455C34.1529 54.5818 34.0982 54.4727 34.0435 54.3091C33.2228 52.2364 31.7455 50.4909 29.8306 49.2909L29.8853 49.2364L30.1042 48.7455C32.1285 50 33.6605 51.8545 34.5359 54.0909C34.5906 54.2 34.6453 54.3091 34.6453 54.4727C34.6453 54.5273 34.7001 54.5818 34.7001 54.6364C35.6302 57.3091 35.5208 60.0909 34.4265 62.6Z" fill="#EF6C56"/>
<path d="M31.9097 44.9818L31.3078 46.2909L30.7607 47.4909L30.4871 48.0364L30.1041 48.8L29.8853 49.2909L29.8306 49.3455L26.2195 56.9273C26.0554 56.6545 25.7818 56.4364 25.5082 56.2182C25.3441 56.1091 25.1799 56.0545 25.0158 56C24.7422 55.8909 24.4687 55.8909 24.1951 55.8909C24.1404 55.8909 24.031 55.8909 23.9763 55.8909L27.642 48.3091V48.2545L27.8609 47.7636L28.2439 47L28.5175 46.4545L29.1193 45.2545L29.7211 44C30.2136 44.1636 30.706 44.3818 31.1984 44.6C31.4173 44.7091 31.6908 44.8727 31.9097 44.9818Z" fill="#4F2212"/>
<path d="M26.6572 58.3455C26.6572 58.6182 26.6025 58.8909 26.5478 59.1091C26.4931 59.2727 26.4384 59.4364 26.3289 59.6C26.1101 59.9818 25.7818 60.2545 25.3988 60.4727C25.2347 60.5818 25.0705 60.6364 24.9064 60.6909C24.6875 60.7455 24.4687 60.8 24.1951 60.8C23.9763 60.8 23.7027 60.7455 23.4839 60.6909C23.3197 60.6364 23.1556 60.5818 22.9914 60.4727C22.5537 60.2545 22.2254 59.9273 22.0066 59.4909C21.8972 59.3273 21.8425 59.1636 21.7877 59C21.733 58.7818 21.6783 58.5636 21.6783 58.3455C21.6783 58.0727 21.733 57.8545 21.7877 57.5818C21.8425 57.4182 21.8972 57.2545 22.0066 57.0909C22.2802 56.6545 22.6084 56.3273 23.1009 56.1091C23.265 56.0545 23.4291 56 23.648 55.9455C23.7574 55.9455 23.8668 55.8909 23.9763 55.8909C24.031 55.8909 24.0857 55.8909 24.1951 55.8909C24.4687 55.8909 24.7423 55.9455 25.0158 56C25.18 56.0545 25.3441 56.1636 25.5082 56.2182C25.7818 56.3818 26.0554 56.6545 26.2195 56.9273C26.2742 57.0364 26.3289 57.1455 26.3837 57.2545C26.4384 57.4182 26.5478 57.5818 26.5478 57.8C26.6572 57.9636 26.6572 58.1273 26.6572 58.3455Z" fill="#EF6C56"/>
<path d="M53.5214 39.6364L53.2478 39.3636H53.412C53.412 39.4182 53.4667 39.5273 53.5214 39.6364Z" fill="#4F2212"/>
<path d="M61.3454 47.2727L61.2907 47.3273L53.5214 39.6364L61.3454 47.2727Z" fill="#4F2212"/>
<path d="M68.0751 42.3636L67.9657 42.4727L67.911 42.5273V42.4727H67.8563C67.8563 42.4727 67.8563 42.4727 67.911 42.4727C67.9657 42.4182 68.0204 42.4182 68.0751 42.3636Z" fill="#4F2212"/>
<path d="M86.0211 35C86.0211 37.1273 84.3797 39.0364 79.7291 40.6727C79.4555 40.7818 79.2367 40.8364 78.9631 40.8909L78.7989 40.9455V41.9273C78.3065 41.7636 77.8141 41.6545 77.3217 41.5455C76.0633 41.2727 74.7502 41.1636 73.437 41.2182C71.5768 41.3273 69.7713 41.7091 68.0752 42.3091C68.0204 42.3091 67.9657 42.3636 67.911 42.3636C67.911 42.3636 67.911 42.3636 67.8563 42.3636C66.9809 42.6909 66.1602 43.1273 65.3942 43.6182C63.8622 44.5455 62.4944 45.7455 61.3454 47.1636L53.5214 39.6364C53.4667 39.5273 53.412 39.4727 53.412 39.3636C53.412 39.3636 53.3573 39.3091 53.3573 39.2545L54.2327 39.1455C54.2327 39.1455 59.4305 39.6909 63.0962 39.1455C65.5583 38.7636 68.4581 36.8 71.0844 35.2182C72.0145 33.8545 74.6407 32.9818 77.9235 32.7636H77.9783C80.0574 32.5455 81.6988 32.7091 81.6988 32.7091C82.5742 32.7091 83.2854 32.7636 83.8873 32.8727H83.942C85.5287 33.1455 86.0758 33.6364 86.0211 35Z" fill="#7D1520"/>
<path d="M64.6282 62.8727H64.5735L64.1905 63.0364C64.1358 62.8727 64.0264 62.7091 63.9716 62.5455L64.3546 62.3818H64.4094C64.4641 62.4909 64.5188 62.7091 64.6282 62.8727Z" fill="#7D1520"/>
<path d="M83.8326 54.3091C83.7779 54.1455 83.6684 53.9818 83.6137 53.8182C83.6684 53.9273 83.7231 54.1455 83.8326 54.3091Z" fill="#7D1520"/>
<path d="M83.942 61.8909C83.8873 62.0546 83.8326 62.2182 83.7231 62.3818C83.8326 62.2182 83.8873 62.0546 83.942 61.8909Z" fill="#7D1520"/>
<path d="M78.033 48.4727C77.8688 48.4182 77.7047 48.3636 77.5405 48.3091C77.7047 48.3636 77.8688 48.4182 78.033 48.4727Z" fill="#7D1520"/>
<path d="M64.5188 62.8182C64.4641 62.6546 64.4094 62.5455 64.3546 62.3818C64.0264 61.6727 63.8075 60.9091 63.6981 60.1455H63.2604C63.3698 60.7455 63.5339 61.2909 63.6981 61.8909C63.7528 62.1091 63.8622 62.3273 63.9716 62.5455C64.0264 62.7091 64.1358 62.8727 64.1905 63.0364L64.5735 62.8727C64.5188 62.8727 64.5188 62.8182 64.5188 62.8182Z" fill="#4F2212"/>
<path d="M83.942 61.8909C83.8873 62.0546 83.8326 62.2182 83.7231 62.3818C83.8326 62.2182 83.8873 62.0546 83.942 61.8909C83.942 61.8909 83.9967 61.8364 83.9967 61.7818C84.0514 61.5636 84.1061 61.3455 84.1608 61.1818C84.1061 61.4 84.0514 61.6182 83.942 61.8909ZM64.3546 62.3273C64.2452 62.1091 64.1905 61.8909 64.0811 61.7273C63.9169 61.2364 63.7528 60.6909 63.6434 60.1455H63.2604C63.3698 60.7455 63.5339 61.2909 63.6981 61.8909C63.7528 62.1091 63.8622 62.3273 63.9716 62.5455C64.0264 62.7091 64.1358 62.8727 64.1905 63.0364L64.5735 62.8727H64.6282C64.5188 62.7091 64.4641 62.4909 64.3546 62.3273ZM84.1608 61.1818C84.2703 60.8 84.325 60.4182 84.4344 60.0364C84.3797 60.4182 84.2703 60.8 84.1608 61.1818ZM83.8326 54.3091C83.7778 54.1455 83.7231 53.9818 83.6137 53.8182C83.6137 53.8182 83.6137 53.7636 83.559 53.7636C82.41 51.3636 80.3856 49.5091 78.033 48.5273C77.8688 48.4727 77.7047 48.4182 77.5405 48.3091C77.7047 48.3636 77.8688 48.4182 78.033 48.5273C78.2518 48.5818 78.4707 48.6909 78.6348 48.8C80.8233 49.8909 82.5742 51.6364 83.559 53.8182C83.6684 53.9818 83.7231 54.1455 83.8326 54.3091C83.8873 54.4727 83.942 54.6364 83.9967 54.8C83.942 54.6364 83.8873 54.4727 83.8326 54.3091Z" fill="#EF6C56"/>
<path d="M64.2999 54.3636C64.2452 54.5273 64.1905 54.6909 64.1358 54.8545C64.0264 55.2364 63.9169 55.6182 63.8075 56C63.5339 57.3636 63.4792 58.7273 63.7528 60.0909H63.2604C62.9868 58.7273 63.0415 57.3636 63.3151 56C63.3698 55.5636 63.5339 55.1273 63.6434 54.6909C63.6981 54.5273 63.7528 54.3636 63.8075 54.2C63.9169 53.9273 64.0264 53.6545 64.1358 53.4364C65.0112 51.5818 66.379 50.0545 68.0204 49.0182L68.294 49.5636C66.7073 50.6 65.4489 52.0182 64.5735 53.7636C64.4641 53.9273 64.3546 54.1455 64.2999 54.3636Z" fill="#EF6C56"/>
<path d="M84.4891 62.0545C84.4344 62.2182 84.3797 62.3818 84.2703 62.5455C84.2156 62.6545 84.1609 62.8182 84.1061 62.9273C82.9572 65.2727 81.0422 67.0727 78.7442 68.1636C78.5801 68.2182 78.416 68.3273 78.2518 68.3818C76.9387 68.9273 75.5162 69.2 74.0936 69.2C72.8352 69.2 71.5221 68.9818 70.3184 68.5455C70.1543 68.4909 69.9901 68.4364 69.826 68.3273C69.6618 68.2727 69.4977 68.1636 69.3336 68.1091C67.0356 67.0182 65.2848 65.2182 64.1905 62.9818L64.5735 62.8182H64.6282C65.6678 64.8909 67.3639 66.6364 69.4977 67.6727C69.6618 67.7818 69.826 67.8364 69.9901 67.8909C70.1543 67.9455 70.3184 68.0545 70.4825 68.1091C71.6315 68.5455 72.7805 68.7091 74.0389 68.7091C75.4614 68.7091 76.7746 68.4364 78.033 67.8909C78.1971 67.8364 78.3612 67.7273 78.5254 67.6727C80.6592 66.6364 82.4647 64.9455 83.5043 62.7636C83.559 62.6 83.6137 62.4909 83.7231 62.3273C83.7779 62.1636 83.8326 62 83.942 61.8364C83.942 61.7818 83.942 61.7818 83.9967 61.7273C84.0514 61.5091 84.1061 61.2909 84.1609 61.1273C84.2703 60.7455 84.325 60.3636 84.4344 59.9818C84.4891 59.6 84.5438 59.2727 84.5438 58.8909C84.5438 58.8364 84.5438 58.7818 84.5438 58.6727C84.5438 58.3455 84.5438 58.0727 84.5438 57.7455C84.5438 57.6364 84.5438 57.5273 84.5438 57.4727C84.5438 57.4727 84.5438 57.4727 84.5438 57.4182C84.5438 57.3091 84.5438 57.2545 84.5438 57.1455C84.5438 57.0909 84.5438 57.0364 84.5438 56.9818C84.5438 56.8727 84.5438 56.8182 84.4891 56.7091C84.4891 56.6 84.4891 56.4909 84.4344 56.4364C84.3797 56.2727 84.3797 56.0545 84.325 55.8909C84.2703 55.7273 84.2703 55.5636 84.2156 55.4C84.1609 55.2364 84.1609 55.1273 84.1061 54.9636C84.1061 54.8545 84.0514 54.8 84.0514 54.6909C83.9967 54.5273 83.942 54.3636 83.8873 54.2C83.8326 54.0364 83.7779 53.8727 83.6684 53.7091C83.6684 53.7091 83.6684 53.6546 83.6137 53.6546C82.4647 51.2546 80.4404 49.4 78.0877 48.4182C77.9235 48.3636 77.7594 48.3091 77.5953 48.2C76.501 47.8182 75.352 47.6546 74.203 47.6546C73.0541 47.6546 71.9598 47.8182 70.9202 48.2L70.6467 47.6546C71.7957 47.2727 72.9993 47.0546 74.2578 47.0546C75.4614 47.0546 76.6651 47.2727 77.8141 47.6546C77.9783 47.7091 78.1424 47.7636 78.3065 47.8182C78.5254 47.9273 78.7442 48.0364 78.9631 48.0909C81.3158 49.1818 83.1213 51.0364 84.2156 53.3818C84.2703 53.5455 84.3797 53.7091 84.4344 53.8727C84.4891 54.0364 84.5438 54.2 84.5986 54.3636C85.4193 56.9818 85.3645 59.6545 84.4891 62.0545Z" fill="#EF6C56"/>
<path d="M75.2973 60.4727L78.5801 67.7273C78.416 67.7818 78.2518 67.8909 78.0877 67.9455L74.8049 60.6909C74.586 60.7455 74.3672 60.8 74.0936 60.8C73.82 60.8 73.6012 60.7455 73.3823 60.6909L70.5373 68.1636C70.3731 68.1091 70.209 68.0546 70.0448 67.9455L72.8899 60.4727C72.7258 60.3636 72.5616 60.2545 72.4522 60.1455C72.2881 59.9818 72.1239 59.7636 72.0145 59.6L70.7014 60.1455L64.6282 62.8727C64.5735 62.7091 64.4641 62.5455 64.4094 62.3818L69.3336 60.2L71.7409 59.1091C71.6862 58.8909 71.6315 58.6182 71.6315 58.4C71.6315 58.1818 71.6315 58.0182 71.6862 57.8545L67.0356 56.1091L64.0811 54.9636C64.1358 54.8 64.1905 54.6364 64.2452 54.4727L68.5676 56.1091L71.8504 57.3636C71.9051 57.2545 71.9051 57.2 71.9598 57.1455C72.1786 56.8182 72.4522 56.5455 72.7805 56.3818C72.9446 56.2727 73.1088 56.2182 73.2729 56.1636H73.3276C73.5465 56.1091 73.82 56.0545 74.0936 56.0545C74.2578 56.0545 74.4219 56.0545 74.586 56.1091L77.4858 48.4727C77.65 48.5273 77.8141 48.5818 77.9783 48.6909L75.0784 56.2727C75.5162 56.4909 75.8991 56.8182 76.1727 57.2545L83.559 53.9818C83.6137 54.1455 83.7231 54.3091 83.7779 54.4727L76.3916 57.7455C76.4463 58.0182 76.501 58.2364 76.501 58.5091C76.501 58.7273 76.4463 58.9455 76.3916 59.1636L83.8873 62C83.8326 62.1636 83.7779 62.3273 83.6684 62.4909L76.1727 59.6545C76.0086 59.9273 75.6803 60.2545 75.2973 60.4727Z" fill="#EF6C56"/>
<path d="M74.586 55.9455C74.4219 55.8909 74.2578 55.8909 74.0936 55.8909C73.82 55.8909 73.6012 55.9455 73.3276 56H72.6711H71.4674L68.7317 50.3818L68.294 49.5091L68.0204 48.9636L66.762 46.3455L66.4885 45.8L66.2696 45.3636C66.5979 45.0909 66.9809 44.8182 67.4186 44.6C67.911 44.3818 68.3487 44.2182 68.7864 44.1091L69.2241 44.9273L69.3336 45.1455L70.592 47.7091L70.8655 48.2545L71.4127 49.2909L74.586 55.9455Z" fill="#4F2212"/>
<path d="M66.7073 46.4L66.4337 45.8545L66.7073 46.4Z" fill="#4F2212"/>
<path d="M87.4983 48.2L86.1852 49.1818C83.2307 45.2 78.4706 42.9091 73.4917 43.1273C71.8503 43.1818 70.2089 43.5091 68.7317 44.1091C68.294 44.2182 67.8563 44.3818 67.3639 44.6C66.9262 44.8182 66.5432 45.0909 66.2149 45.3636C64.7923 46.2364 63.5339 47.3818 62.4397 48.6909L63.2057 49.4545C62.2208 50.6545 61.4548 52.0727 60.9077 53.6C60.1417 55.7273 59.9776 57.9636 60.3058 60.2L51.114 62.5455L47.7218 58.6727H44.6031L39.3507 47.4364L34.3171 42.4182L33.5511 44.0545C37.8187 46.7273 40.6638 51.2 41.2109 56.3273L39.5695 56.4909C39.0771 51.5818 36.1773 47.3273 31.9097 44.9818C31.6361 44.8182 31.4173 44.7091 31.1437 44.6C30.6513 44.3818 30.1589 44.1636 29.6664 44C25.5082 42.5273 20.9123 42.9636 17.0824 45.2L16.2617 43.7818C20.3105 41.4364 25.0705 40.8909 29.5023 42.2545L30.1041 40.9455V31.6727H34.5359L35.9585 28.7273L39.7337 30.5273H40.3355V30.3091H44.7126V32.2182H40.3355V31.9455H39.3507L36.232 38.4364C37.764 36.6909 40.8826 35.4909 44.4937 35.4909C48.6519 35.4909 52.1536 37.0727 53.3573 39.2545C53.3573 39.2545 53.412 39.3091 53.412 39.3636H53.2478L53.5214 39.6364L61.2907 47.3273L61.3454 47.2727C62.4944 45.8545 63.8622 44.6545 65.3942 43.7273C66.1602 43.2364 66.9809 42.8 67.8563 42.4727H67.911V42.5273L67.9657 42.4727L68.0751 42.3636C69.7712 41.7091 71.5221 41.3273 73.437 41.2727C74.7501 41.2182 76.0633 41.3273 77.3217 41.6C77.8141 41.7091 78.3065 41.8182 78.7989 41.9818C82.2459 42.9636 85.3098 45.0909 87.4983 48.2Z" fill="#F3AD1C"/>
<path d="M86.4588 52.2364C84.1608 47.4364 79.2366 44.3818 73.9295 44.3818C72.3428 44.3818 70.7561 44.6545 69.2788 45.2L70.5372 47.7636C71.6862 47.3818 72.8899 47.1636 74.1483 47.1636C75.352 47.1636 76.5557 47.3818 77.7047 47.7636C77.8688 47.8182 78.033 47.8727 78.1971 47.9273C78.4159 48.0364 78.6348 48.1455 78.8536 48.2C81.2063 49.2909 83.0119 51.1455 84.1061 53.4909C84.1608 53.6545 84.2703 53.8182 84.325 53.9818C84.3797 54.1455 84.4344 54.3091 84.4891 54.4727C85.3645 56.9273 85.3098 59.6 84.4344 62C84.3797 62.1636 84.325 62.3273 84.2155 62.4909C84.1608 62.6 84.1061 62.7636 84.0514 62.8727C82.9024 65.2182 80.9875 67.0182 78.6895 68.1091C78.5254 68.1636 78.3612 68.2727 78.1971 68.3273C76.884 68.8727 75.4614 69.1455 74.0389 69.1455C72.7805 69.1455 71.4674 68.9273 70.2637 68.4909C70.0995 68.4364 69.9354 68.3818 69.7713 68.2727C69.6071 68.2182 69.443 68.1091 69.2788 68.0545C66.9809 66.9636 65.2301 65.1636 64.1358 62.9273C64.0811 62.7636 63.9717 62.6 63.9169 62.4364C63.8075 62.2182 63.7528 62 63.6434 61.7818C63.4245 61.1818 63.3151 60.6364 63.2057 60.0364C62.9321 58.6727 62.9868 57.3091 63.2604 55.9455C63.3151 55.5091 63.4792 55.0727 63.5887 54.6364C63.6434 54.4727 63.6981 54.3091 63.7528 54.1455C63.8622 53.8727 63.9717 53.6 64.0811 53.3818C64.9565 51.5273 66.3243 50 67.9657 48.9636L66.7073 46.3455C65.3395 47.1636 64.1905 48.2 63.2057 49.4C62.2208 50.6 61.4548 52.0182 60.9077 53.5455C60.1417 55.6727 59.9776 57.9091 60.3059 60.1455C60.5247 61.5091 60.9077 62.8727 61.5096 64.1273C63.8075 68.9273 68.7317 71.9818 74.0389 71.9818C76.118 71.9818 78.1424 71.5455 80.0026 70.6182C83.3401 69.0364 85.8569 66.2546 87.0606 62.7636C88.2643 59.3273 88.0455 55.5636 86.4588 52.2364Z" fill="#4F2212"/>
<path d="M68.0751 42.3636L67.9657 42.4727H67.8563C67.8563 42.4727 67.8563 42.4727 67.911 42.4727C67.9657 42.4182 68.0204 42.4182 68.0751 42.3636Z" fill="#4F2212"/>
<path d="M53.5214 39.6364L53.2478 39.3636H53.412C53.412 39.4182 53.4667 39.5273 53.5214 39.6364Z" fill="#7D1520"/>
<path d="M68.0751 42.3636L67.9657 42.4727L67.911 42.5273V42.4727H67.8563C67.8563 42.4727 67.8563 42.4727 67.911 42.4727C67.9657 42.4182 68.0204 42.4182 68.0751 42.3636Z" fill="#7D1520"/>
<path d="M71.7409 59.0545L69.3336 60.1455H63.6981C63.4245 58.7818 63.4793 57.4182 63.7528 56.0545H67.0356L71.6862 57.8C71.6315 57.9636 71.6315 58.1818 71.6315 58.3455C71.6315 58.6182 71.6862 58.8364 71.7409 59.0545Z" fill="#4F2212"/>
<path d="M73.2729 56C73.1088 56.0545 72.9446 56.1091 72.7805 56.2182C72.4522 56.4364 72.1786 56.6545 71.9598 56.9818C71.9051 57.0364 71.8504 57.1455 71.8504 57.2L68.5676 55.9455H71.4674H72.6711L73.2729 56Z" fill="#4F2212"/>
<path d="M72.3975 60.1455H70.6467L71.9598 59.6C72.0692 59.7636 72.2333 59.9818 72.3975 60.1455Z" fill="#4F2212"/>
<path d="M53.5214 39.6364L53.2478 39.3636H53.412C53.412 39.4182 53.4667 39.5273 53.5214 39.6364Z" fill="#4F2212"/>
<path d="M68.0751 42.3636L67.9657 42.4727L67.911 42.5273V42.4727H67.8563C67.8563 42.4727 67.8563 42.4727 67.911 42.4727C67.9657 42.4182 68.0204 42.4182 68.0751 42.3636Z" fill="#4F2212"/>
<path d="M30.1042 33.5273V39.9091H27.9156V40.6727H25.563V32.6545H27.9156V33.5273H30.1042Z" fill="#EF6C56"/>
</svg>
