<svg width="100" height="100" viewBox="0 0 100 100" fill="none" xmlns="http://www.w3.org/2000/svg">
<path d="M41.532 9.67525C40.839 8.98295 39.9382 8.49833 39.0373 8.15218C37.3049 7.66757 35.5032 8.4291 33.8401 9.19064C29.8902 11.0599 16.9318 21.5137 14.0907 25.1137C12.9819 26.4983 11.8732 28.1598 12.0118 29.9598C12.1504 30.929 12.4968 31.8983 12.9819 32.729C14.2986 35.1521 55.5299 87.7674 58.3017 90.052C59.1333 90.8135 60.1727 91.4366 61.2815 91.7827C62.4595 92.0596 63.6375 92.0596 64.8156 91.852C69.8742 91.2289 76.1802 87.2827 79.0213 84.9289C81.9318 82.6443 86.7132 77.5905 88.3763 72.8135C88.7921 71.7059 89 70.5289 89 69.352C88.8614 68.1751 88.5149 67.0674 87.8913 66.0982C86.2281 62.9828 43.5416 11.4752 41.532 9.67525Z" fill="#924520"/>
<path d="M81.6509 62.3711C81.7207 62.3711 40.7288 13.7433 40.7288 13.7433C39.8908 12.5017 38.4942 11.881 37.0277 12.0189C35.1422 12.3638 29.9047 16.5023 29.9047 16.5023C30.603 17.399 30.8824 18.0888 29.9745 18.7785C29.4857 19.1924 28.2287 20.227 27.4606 20.7788L26.9019 21.2617L24.3879 23.2619C23.4801 23.9517 22.8516 23.6068 22.1533 22.7101C22.1533 22.7101 16.9856 26.9177 16.2175 28.6421C15.7286 30.0216 16.0778 31.539 17.1253 32.5737C17.1253 32.5737 56.7904 82.2361 56.7904 82.1672C59.863 86.0988 62.3072 87.4783 66.3575 86.8575C69.7095 86.3057 73.7598 83.7536 76.6229 81.2705C79.6956 78.9943 83.0475 75.6834 84.3045 72.5106C85.771 68.7859 84.933 66.1648 81.6509 62.3711Z" fill="#502110"/>
<path d="M81.1738 62.8987C81.1738 62.8987 72.2299 52.121 62.9421 41L55.6494 46.9037C54.067 46.0799 53.1726 46.6978 51.7966 47.7961L47.8751 50.9539C46.4991 52.0523 45.9487 52.8074 46.3615 54.5236L39 60.496C48.0815 71.9602 56.6125 82.7379 56.6813 82.7379C60.7405 88.2297 62.1165 88.367 66.1068 87.7492C69.4092 87.2 72.8491 84.9346 76.2891 82.1201C79.9354 79.1682 82.8938 76.285 84.0634 73.1272C85.5081 69.2829 85.7833 68.1159 81.1738 62.8987Z" fill="#502110"/>
<path d="M59.3996 56.0731L54.9652 59.627C54.2261 60.2193 53.2183 60.0877 52.6136 59.3637L48.3808 54.2303C47.7761 53.5064 47.9105 52.5192 48.6496 51.9269L53.0839 48.373C53.823 47.7807 54.8308 47.9123 55.4355 48.6363L59.6683 53.7697C60.2058 54.4936 60.0715 55.4808 59.3996 56.0731Z" fill="#E8E6D4"/>
<path d="M53.4662 35.8488L36.1019 49.6823C35.4692 50.1664 34.6256 50.0973 34.1335 49.4748L22.3229 35.1571C21.8308 34.5346 21.9011 33.7046 22.5338 33.2204L39.8981 19.3177C40.5308 18.8336 41.3744 18.9027 41.8665 19.5252L53.6771 33.9121C54.1692 34.4654 54.0989 35.3646 53.4662 35.8488Z" fill="#E8E6D4"/>
<path d="M55.4371 66.9604L50.6761 71.636C50.081 72.1907 49.2214 72.1114 48.6924 71.3982L47.3038 69.3378C46.8409 68.6246 46.907 67.5944 47.5021 66.9604L52.3292 62.364C52.9243 61.8093 53.784 61.8886 54.3129 62.6018L55.7016 64.6622C56.1644 65.2962 56.0983 66.4056 55.4371 66.9604C55.4371 66.9604 55.5032 66.9604 55.4371 66.9604Z" fill="#E8E6D4"/>
<path d="M63.4945 60.5L58.7011 64.6749C58.1019 65.1703 57.2365 65.0995 56.7039 64.4627L55.3058 62.6228C54.8398 61.986 54.9064 61.0661 55.5055 60.5L60.2989 56.3251C60.8981 55.8297 61.7635 55.9005 62.2961 56.5373L63.6942 58.3771C64.1602 59.014 64.0936 60.0047 63.4945 60.5Z" fill="#E8E6D4"/>
<path d="M71.4383 54.5L66.1123 58.6749C65.4466 59.1703 64.485 59.0995 63.8932 58.4627L62.3398 56.6228C61.822 55.986 61.896 55.0661 62.5617 54.5L67.8877 50.3251C68.5534 49.8297 69.515 49.9005 70.1068 50.5373L71.6602 52.3771C72.178 53.014 72.104 53.9339 71.4383 54.5Z" fill="#E8E6D4"/>
<path d="M51.5742 61.946L46.6674 65.7626C46.1576 66.1319 45.4566 66.0704 45.0105 65.5779L44.2458 64.593C43.8634 64.1005 43.9272 63.4234 44.437 63.054L49.3438 59.2374C49.8537 58.8681 50.5546 58.9296 50.937 59.4221L51.7017 60.3455C52.1478 60.7764 52.084 61.5151 51.5742 61.946C51.5742 61.8844 51.5742 61.8844 51.5742 61.946Z" fill="#E8E6D4"/>
<path d="M49.521 58.3668L44.0008 62.7286C43.4273 63.1508 42.6387 63.0804 42.1368 62.5176L41.2765 61.4623C40.8464 60.8995 40.9181 60.1256 41.4916 59.6332L47.0118 55.2714C47.5854 54.8492 48.374 54.9196 48.8041 55.4824L49.6644 56.5377C50.1662 57.1005 50.0946 57.9447 49.521 58.3668Z" fill="#E8E6D4"/>
<path d="M67.521 49.2548L62.0008 53.7262C61.4273 54.1521 60.6387 54.0811 60.1368 53.5133L59.2765 52.4487C58.8464 51.8809 58.9181 51.1001 59.4916 50.6743L65.0118 46.2738C65.5854 45.8479 66.374 45.9189 66.8041 46.4867L67.6644 47.5513C68.1662 48.0482 68.0945 48.8289 67.521 49.2548Z" fill="#E8E6D4"/>
<path d="M64.5052 45.946L58.9485 49.7626C58.3711 50.1319 57.5773 50.0704 57.0722 49.5779L56.2783 48.7161C55.8454 48.2236 55.9175 47.5465 56.4948 47.1156L62.0515 43.2374C62.6289 42.8681 63.4227 42.9296 63.8557 43.4221L64.7216 44.3455C65.1546 44.8379 65.0825 45.5766 64.5052 45.946Z" fill="#E8E6D4"/>
<path d="M59.4683 71.5L54.6897 75.6749C54.0924 76.1703 53.2296 76.0995 52.6986 75.4627L51.3049 73.6228C50.8403 72.986 50.9067 72.0661 51.504 71.5L56.2826 67.3251C56.8799 66.8297 57.7427 66.9005 58.2736 67.5373L59.6674 69.3771C60.1983 70.014 60.0656 70.9339 59.4683 71.5Z" fill="#E8E6D4"/>
<path d="M66.4683 65.5L61.6897 69.6749C61.0924 70.1703 60.2296 70.0995 59.6986 69.4627L58.3049 67.6229C57.8403 66.986 57.9067 66.0661 58.504 65.5L63.2826 61.3251C63.8799 60.8297 64.7427 60.9005 65.2736 61.5373L66.6674 63.3772C67.1983 64.014 67.0656 65.0047 66.4683 65.5Z" fill="#E8E6D4"/>
<path d="M75.3869 58.5L70.09 62.6749C69.4278 63.1703 68.4715 63.0995 67.8829 62.4627L66.338 60.6228C65.823 59.986 65.8965 59.0661 66.5587 58.5L71.8556 54.3251C72.5177 53.8297 73.4741 53.9005 74.0627 54.5373L75.6076 56.3771C76.1962 57.014 76.1226 58.0047 75.3869 58.5Z" fill="#E8E6D4"/>
<path d="M62.4329 76.5708L57.6367 80.6749C57.0372 81.1703 56.1712 81.0995 55.6383 80.4627L54.306 78.6228C53.8397 77.986 53.9063 77.0661 54.5059 76.5L59.302 72.3251C59.9016 71.8297 60.7676 71.9005 61.3005 72.5373C61.3005 72.5373 61.3005 72.5373 61.3005 72.6081L62.6994 74.4479C63.1657 75.0848 63.099 76.0047 62.4329 76.5708C62.4995 76.5 62.4995 76.5 62.4329 76.5708Z" fill="#E8E6D4"/>
<path d="M71.4092 70L66.0997 74.6388C65.436 75.1892 64.4773 75.1106 63.8874 74.4029L62.3388 72.3587C61.8226 71.6511 61.8963 70.629 62.56 70L67.8695 65.3612C68.5332 64.8108 69.4919 64.8894 70.0818 65.5971L71.6304 67.6413C72.2204 68.3489 72.0729 69.371 71.4092 70Z" fill="#E8E6D4"/>
<path d="M79.3501 63.5L73.5096 67.6749C72.7796 68.1703 71.725 68.0995 71.0761 67.4627L69.3726 65.6228C68.8048 64.986 68.8859 64.0661 69.616 63.5L75.4565 59.3251C76.1865 58.8297 77.241 58.9005 77.89 59.5373L79.5935 61.3771C80.2424 62.014 80.0802 62.9339 79.3501 63.5Z" fill="#E8E6D4"/>
<path d="M66.4371 81L61.6761 84.7111C61.081 85.1514 60.2214 85.0885 59.6924 84.5224L58.3038 82.887C57.8409 82.3209 57.907 81.5032 58.5021 81L63.3292 77.2889C63.9243 76.8486 64.784 76.9115 65.313 77.4776L66.7016 79.113C67.1644 79.6791 67.0983 80.5597 66.4371 81C66.5032 81 66.5032 81 66.4371 81Z" fill="#E8E6D4"/>
<path d="M75.3256 75L69.499 78.7111C68.7706 79.1514 67.7186 79.0885 67.0712 78.5224L65.3718 76.887C64.8053 76.3209 64.8862 75.5032 65.6145 75L71.4412 71.2889C72.1695 70.8486 73.2215 70.9115 73.869 71.4776L75.5684 73.113C76.2158 73.6791 76.1349 74.4968 75.3256 75C75.3256 75 75.4065 75 75.3256 75Z" fill="#E8E6D4"/>
<path d="M82.4683 68L77.6897 72.6388C77.0924 73.1892 76.2296 73.1106 75.6986 72.4029L74.3049 70.3587C73.8403 69.6511 73.9067 68.629 74.504 68L79.2826 63.3612C79.8799 62.8108 80.7427 62.8894 81.2736 63.5971L82.6674 65.6413C83.1983 66.4275 83.0656 67.4496 82.4683 68Z" fill="#E8E6D4"/>
<path d="M27.907 17.8362L23.6347 21.9377C23.4375 22.0925 23.1746 21.9377 23.0432 21.7055C22.9774 21.5508 22.9774 21.3186 23.1089 21.1638L27.3812 17.0623C27.5784 16.9075 27.8413 17.0623 27.9728 17.2945C28.0385 17.4492 27.9728 17.6814 27.907 17.8362Z" fill="#E8E6D4"/>
<path d="M74.7822 78.3538C75.1223 78.7619 75.0543 79.4421 74.6462 79.7822C74.2381 80.1223 73.5579 80.0543 73.2178 79.6462C72.8777 79.2381 72.9457 78.5579 73.3538 78.2178C73.83 77.8777 74.4421 77.9457 74.7822 78.3538Z" fill="#E8E6D4"/>
</svg>
