<svg width="300" height="300" viewBox="0 0 300 300" fill="none" xmlns="http://www.w3.org/2000/svg">
<path d="M62.5624 265H245.438C251.809 265 257 259.78 257 253.374V130H51V253.453C51 259.78 56.1913 265 62.5624 265Z" fill="white"/>
<path d="M256.921 48.5748C256.921 42.1969 251.73 37 245.359 37H62.5624C56.1913 37 51 42.1969 51 48.5748V107H257V48.5748H256.921Z" fill="#821B1C"/>
<path d="M257 107H51V117H257V107Z" fill="#821B1C"/>
<path d="M257 117H51V125H257V117Z" fill="#821B1C"/>
<path d="M209 43C202.396 43 197 48.396 197 55C197 61.6846 202.396 67 209 67C215.603 67 220.999 61.604 220.999 55C221.08 48.396 215.684 43 209 43Z" fill="#F5A999"/>
<path d="M98.9996 43C92.9461 43 88 48.396 88 55C88 61.6846 92.9461 67 98.9996 67C105.127 67 109.999 61.604 109.999 55C110.073 48.396 105.127 43 98.9996 43Z" fill="#F5A999"/>
<path d="M208.5 43C202.701 43 198 47.9254 198 54C198 60.0746 202.701 65 208.5 65C214.298 65 218.999 60.0746 218.999 54C219.077 48.0075 214.298 43 208.5 43Z" fill="#752515"/>
<path d="M209 11V63C213.435 63 216.999 59.3944 216.999 54.9075V19.1726C217.078 14.6857 213.435 11 209 11Z" fill="black"/>
<path d="M209 11C204.564 11 201 14.6111 201 19.1049V54.8951C201 59.3889 204.564 63 209 63V11Z" fill="black"/>
<path opacity="0.1" d="M209 11C204.564 11 201 14.6111 201 19.1049V54.8951C201 59.3889 204.564 63 209 63V11Z" fill="black"/>
<path d="M98.9995 43C93.4774 43 89 47.9254 89 54C89 60.0746 93.4774 65 98.9995 65C104.522 65 108.999 60.0746 108.999 54C109.074 48.0075 104.522 43 98.9995 43Z" fill="#752515"/>
<path d="M99 11V63C103.435 63 106.999 59.3944 106.999 54.9075V19.1726C107.078 14.6857 103.435 11 99 11Z" fill="black"/>
<path d="M99 11C94.5644 11 91 14.6111 91 19.1049V54.8951C91 59.3889 94.5644 63 99 63V11Z" fill="black"/>
<path opacity="0.1" d="M99 11C94.5644 11 91 14.6111 91 19.1049V54.8951C91 59.3889 94.5644 63 99 63V11Z" fill="black"/>
<path d="M105 229.922V222.495H123.485V169.648C119.14 173.088 112.978 174.808 105 174.808V167.85C109.187 167.616 113.136 166.756 116.849 165.192C120.483 163.629 123.169 161.205 124.749 158H131.463V222.573H149V230H105V229.922Z" fill="#821B1C"/>
<path d="M151 233H104V221.49H122.089V173.464C117.837 175.845 112.426 177.036 105.933 177.036H104V166.081L105.855 166.002C109.72 165.843 113.431 164.97 116.755 163.462C119.924 162.033 122.166 159.969 123.48 157.111L124.021 156H133.762V221.569H150.923V233H151ZM107.865 229.031H147.135V225.459H129.974V159.89H126.418C124.64 163.065 121.934 165.446 118.301 167.034C115.054 168.463 111.576 169.415 107.865 169.733V172.988C114.281 172.75 119.306 171.162 122.862 168.225L126.031 165.685V225.459H107.942V229.031H107.865Z" fill="#821B1C"/>
<path d="M167.373 222.591H205.526V230H159V227.66C159 220.173 160.659 213.934 163.976 208.864C167.294 203.795 173.376 199.193 182.145 195.06L184.119 194.124C188.543 192.018 191.94 189.678 194.309 187.261C196.679 184.765 197.864 181.411 197.864 177.2C197.864 173.3 196.442 170.181 193.519 167.841C190.597 165.501 186.963 164.331 182.539 164.331C178.195 164.331 174.482 165.579 171.56 168.153C168.558 170.726 166.188 174.002 164.529 178.058L159.158 172.598C161.291 167.841 164.371 164.019 168.321 161.212C172.271 158.404 177.01 157 182.539 157C189.017 157 194.625 158.872 199.128 162.537C203.709 166.203 206 171.506 206 178.292C206 183.127 204.578 187.339 201.655 190.77C198.812 194.28 194.388 197.478 188.543 200.519L182.697 203.405C172.824 208.396 167.768 214.792 167.373 222.591Z" fill="#821B1C"/>
<path d="M206.764 233H156.472V228.602C156.472 220.606 158.282 213.73 161.745 208.213C165.208 202.695 171.583 197.658 180.634 193.34L182.602 192.381C186.773 190.302 190 188.143 192.125 185.744C194.093 183.585 195.116 180.627 195.116 176.788C195.116 173.43 193.935 170.712 191.495 168.713C188.898 166.554 185.75 165.514 181.736 165.514C177.88 165.514 174.653 166.634 172.056 168.952C169.301 171.351 167.097 174.55 165.523 178.388L164.343 181.186L156 172.471L156.551 171.191C158.833 165.994 162.139 161.756 166.31 158.718C170.56 155.599 175.755 154 181.657 154C188.583 154 194.565 156.079 199.444 160.157C204.481 164.315 207 170.312 207 177.908C207 183.345 205.426 188.063 202.278 191.981C199.287 195.739 194.644 199.257 188.583 202.455L182.759 205.414C174.574 209.652 170.009 214.929 168.986 221.326H206.764V233V233ZM160.407 229.002H202.829V225.404H164.736L164.815 223.325C165.287 214.529 170.718 207.333 181.028 201.976L186.852 199.017C192.44 196.059 196.611 192.86 199.287 189.582C201.884 186.384 203.144 182.546 203.144 177.988C203.144 171.511 201.176 166.794 197.005 163.355C192.833 159.917 187.718 158.158 181.657 158.158C176.62 158.158 172.213 159.517 168.593 162.076C165.287 164.475 162.611 167.753 160.722 171.751L163.162 174.31C164.815 171.111 166.94 168.313 169.458 166.074C172.764 163.115 176.935 161.676 181.736 161.676C186.616 161.676 190.708 163.035 193.935 165.754C197.319 168.553 198.972 172.311 198.972 176.948C198.972 181.826 197.634 185.744 194.88 188.622C192.361 191.341 188.741 193.82 184.176 196.059L182.208 197.018C173.787 201.016 168.042 205.574 164.894 210.451C161.824 215.329 160.25 221.486 160.25 228.682V229.002H160.407Z" fill="#821B1C"/>
<path d="M123 87H124.917L129 94.3404L133.083 87H135L129.917 95.9362V102H128.25V95.9362L123 87Z" fill="white"/>
<path d="M146 102H137V87H146V88.516H138.463V93.5425H145.78V95.0585H138.463V100.404H146V102Z" fill="white"/>
<path d="M154.094 87H155.988L162 102H160.188L158.788 98.5692H151.212L149.812 102H148L154.094 87ZM158.212 96.9734L155.082 89.0745L151.953 96.9734H158.212Z" fill="white"/>
<path d="M175 102H173.087L169.181 96.4947H165.594V102H164V87H169.261C170.935 87 172.29 87.3989 173.246 88.2766C174.203 89.1543 174.761 90.2713 174.761 91.7074C174.761 92.9043 174.442 93.8617 173.804 94.6596C173.167 95.4575 172.29 96.016 171.094 96.2553L175 102ZM169.341 88.5957H165.514V94.9787H169.341C170.457 94.9787 171.333 94.7394 171.971 94.1809C172.609 93.6223 172.928 92.8245 172.928 91.7872C172.928 90.75 172.609 89.9521 171.971 89.3936C171.333 88.8351 170.457 88.5957 169.341 88.5957Z" fill="white"/>
<path d="M183.979 95.3938L181.936 95.0829C180.66 94.8498 179.553 94.4611 178.702 93.7617C177.851 93.0622 177.426 92.2073 177.426 91.0415C177.426 89.7979 177.936 88.7876 179.043 88.0881C180.149 87.3886 181.426 87 182.957 87C185.17 87 186.957 87.7772 188.489 89.2539L187.298 90.4197C186.106 89.1762 184.66 88.4767 182.787 88.4767C181.766 88.4767 180.83 88.7099 180.149 89.1762C179.468 89.6425 179.128 90.2643 179.128 90.9637C179.128 92.3627 180.234 93.2176 182.532 93.5285L184.149 93.7617C185.681 93.9948 186.872 94.4611 187.723 95.1606C188.574 95.8601 189 96.7927 189 97.8808C189 99.0466 188.489 100.057 187.383 100.834C186.277 101.611 184.915 102 183.128 102C181.851 102 180.66 101.767 179.553 101.223C178.447 100.756 177.596 100.057 177 99.2798L178.191 98.114C179.468 99.6684 181.17 100.446 183.298 100.446C184.404 100.446 185.34 100.212 186.106 99.7461C186.872 99.2798 187.213 98.658 187.213 97.8031C187.298 96.6373 186.191 95.7047 183.979 95.3938Z" fill="white"/>
<path d="M42 119.956C41.28 119.657 40.56 119.418 39.48 119.12C39.24 119.06 39 119.06 39 119C39.36 119.12 39.96 119.359 40.44 119.538C41.4 119.956 42 120.076 42 119.956Z" fill="#E41413"/>
<path d="M178.558 199.347C188.44 205.454 198.401 211.562 208.362 217.67C208.681 217.835 209 218 209 218C209 218 208.761 217.752 208.522 217.587C198.56 211.562 188.599 205.454 178.717 199.347C178.398 199.181 178.08 199.016 178 199.016C178 198.934 178.239 199.181 178.558 199.347Z" fill="#E41413"/>
<path d="M250.347 246.067C249.912 245.955 249.912 245.955 250.202 246.289C250.492 246.511 251.218 246.845 251.653 246.956C252.088 247.068 252.088 246.956 251.798 246.734C251.363 246.511 250.782 246.178 250.347 246.067Z" fill="#E41413"/>
<path d="M246.445 249.166C245.027 248.451 243.688 247.737 242.428 247.181C242.191 247.101 241.955 246.943 241.797 246.784C241.876 246.863 241.561 246.784 241.01 246.546C230.849 241.464 220.057 235.589 209.502 229.793C209.424 229.793 209.266 229.793 208.951 229.713C208.163 229.475 206.667 228.681 205.17 227.808L204.067 227.093C199.578 224.314 195.009 221.615 190.519 218.836C189.574 218.359 188.471 217.803 187.211 217.168C183.115 215.104 179.098 213.04 174.923 210.816C175.16 210.975 175.238 211.134 175.238 211.213C175.081 211.293 174.057 210.896 172.954 210.261C172.403 209.943 171.851 209.625 171.3 209.308C172.875 210.261 174.451 211.213 175.947 212.166C176.184 212.325 176.341 212.404 176.577 212.563C178.31 213.595 180.043 214.548 181.855 215.58C197.451 224.473 212.417 232.413 227.304 240.114C227.54 240.194 227.934 240.432 228.092 240.591C228.249 240.67 228.171 240.75 227.855 240.591C218.246 236.065 209.818 232.492 199.184 227.014C186.581 220.503 174.136 213.913 161.296 206.926C148.142 199.224 135.775 192.475 122.227 184.774C103.953 174.452 86.8603 164.369 69.2162 153.888C62.5209 150.077 56.8496 145.789 56.5345 144.44C56.377 143.646 58.1099 143.963 61.0243 145.313C60.4729 144.995 59.9216 144.678 59.449 144.36L56.9284 142.693C54.5653 141.105 52.6749 139.676 51.4934 138.644L49.918 137.214C47.9488 135.071 44.483 132.212 42.9864 130.307H43.6165L43.2227 129.989C41.8049 128.878 40.9384 128.004 40.7809 127.528L41.0959 127.29C41.6473 127.131 42.5926 127.21 44.0104 127.607C44.0892 127.448 44.2467 127.369 44.6405 127.448C43.7741 126.496 43.5378 125.86 44.5618 125.94C44.0104 125.463 44.1679 125.384 44.9556 125.781C45.1919 125.94 45.5857 126.099 45.9008 126.257C45.5857 125.94 45.507 125.86 45.1131 125.463C44.483 125.066 44.1679 124.828 44.1679 124.828C42.5926 123.796 42.5925 123.796 41.1747 122.843C39.9932 121.97 39.363 121.335 39.363 121.335C38.3391 119.906 38.3391 119.906 38.7329 119.826C38.8117 119.826 38.9692 119.906 39.048 119.906C38.024 119.191 37.9452 119.112 37.6301 118.873C37.3151 118.635 37.1575 118.476 37.1575 118.476C37.1575 118.318 37.1575 118.318 37 118.159C37 118.079 37 118 37 118C37.7089 118.238 37.7089 118.238 37.7089 118.159C37.8665 118.238 38.1028 118.318 38.1028 118.318C38.8117 118.715 39.1268 118.873 39.2843 118.953C40.6233 120.223 40.6233 120.223 40.6233 120.223C41.0172 120.303 41.0172 120.303 41.0172 120.303C41.2535 120.7 41.2535 120.7 41.2535 120.7C41.1747 120.461 41.1747 120.461 41.1747 120.461C41.8836 121.017 41.8836 121.017 41.8836 121.017C41.0959 120.382 41.0959 120.382 41.0959 120.382C42.9076 121.573 42.9076 121.573 43.6165 121.97C44.4042 122.446 45.0344 122.764 45.1131 122.843C45.1131 122.764 45.1131 122.685 45.1131 122.685C47.0036 123.955 47.0036 123.955 48.894 125.146C49.0515 125.305 49.2091 125.384 49.2879 125.543C49.5242 125.622 49.8392 125.781 50.2331 126.019C50.5481 126.257 50.8632 126.416 51.2571 126.654C51.3358 126.654 51.4146 126.734 51.4934 126.734C51.8872 126.893 52.1235 127.051 52.3598 127.21C52.5173 127.29 52.5173 127.29 52.5173 127.29C53.1475 127.607 54.0139 128.004 56.377 129.195C56.9284 129.592 57.4797 129.91 58.0311 130.227C57.8736 130.069 57.7161 129.989 57.5585 129.83C57.2434 129.592 57.6373 129.672 57.4797 129.513C53.4626 126.734 48.9728 123.875 44.5618 121.017C43.7741 120.541 43.0652 119.985 42.9864 119.826C42.9076 119.667 43.6165 119.906 44.4042 120.382C53.9352 125.146 65.0415 131.974 74.0999 138.088C76.5417 139.596 78.9835 141.184 81.4253 142.693L81.1102 142.375L83.0007 143.646L83.237 143.804C82.7644 143.407 82.3705 143.09 81.8979 142.693C81.5828 142.455 81.2678 142.216 80.9527 141.978C75.2814 138.405 70.2402 134.912 64.8052 131.339C61.8908 129.433 59.449 127.607 56.7708 125.781C56.0619 125.305 55.5893 124.908 55.7468 124.908C55.9044 124.828 56.6133 125.225 57.3222 125.622C66.8532 131.101 77.5657 137.691 84.576 143.09C86.3089 144.122 87.8843 145.154 89.2234 146.186L89.3021 146.266C88.9871 145.948 88.672 145.71 88.3569 145.392C89.6172 146.186 90.1686 146.822 91.3501 147.536C91.2713 147.377 91.1926 147.139 91.1138 146.98C97.3365 150.95 104.347 154.92 109.939 158.89C110.176 159.049 110.412 159.208 110.57 159.287C113.248 160.637 115.926 161.907 118.919 163.654C117.895 163.019 116.95 162.384 115.926 161.748C118.21 162.939 120.416 164.13 122.7 165.559C129.001 169.371 135.854 173.976 138.847 176.675C151.214 183.821 163.581 191.046 175.947 198.033C176.577 198.43 177.129 198.748 177.208 198.907C177.208 199.066 176.735 198.827 176.105 198.51C167.125 193.666 158.067 188.585 149.087 183.424C156.491 187.95 163.974 192.555 171.615 197.081C172.639 197.636 173.584 198.192 174.608 198.748C175.553 199.304 176.577 199.859 177.523 200.495C187.369 206.211 196.663 211.69 206.746 217.327C215.41 222.091 223.051 226.299 231.715 230.984C243.924 237.574 255.031 243.449 266.925 250.277C268.5 251.151 269.918 252.183 269.996 252.5C270.075 252.818 268.815 252.342 267.24 251.468C242.113 237.971 217.379 224.711 191.622 209.625C188.865 207.958 186.108 206.37 183.43 204.782C183.43 204.862 183.43 204.862 183.43 204.941C183.351 205.02 183.036 205.02 182.564 204.862C185.636 206.688 188.708 208.593 191.78 210.419C200.602 215.263 209.424 220.027 218.64 225.584C224.941 229.396 230.612 232.968 236.362 236.541C243.924 240.67 251.486 244.878 259.126 249.086C259.442 249.245 259.757 249.483 259.835 249.563C259.914 249.642 259.757 249.642 259.442 249.483C254.085 246.784 248.65 243.925 243.215 240.988C244.003 241.623 244.397 242.099 244.239 242.179C244.082 242.337 243.294 242.099 242.27 241.702L245.893 243.846C246.681 244.322 247.154 244.719 247.154 244.799C247.075 244.878 246.445 244.64 245.736 244.243C240.773 241.385 235.811 238.526 230.849 235.589C224.862 232.254 218.876 228.919 212.89 225.584C213.677 226.22 214.15 226.696 214.386 227.014C215.331 227.569 216.198 228.046 217.143 228.602C234.314 237.812 251.722 247.419 269.051 257.503C269.366 257.661 269.681 257.899 269.603 257.979C269.603 258.058 269.288 257.899 268.973 257.741C263.774 254.724 258.496 251.706 253.219 248.769C253.376 248.928 253.455 249.007 253.14 248.928C252.904 248.848 252.51 248.61 252.352 248.451C252.116 248.292 252.195 248.213 252.352 248.292C242.585 242.814 232.818 237.415 223.129 232.174C232.03 237.256 240.852 242.337 249.674 247.498C250.698 247.975 251.643 248.531 252.667 249.007C252.904 249.166 253.298 249.404 253.376 249.483C253.455 249.563 253.219 249.483 252.904 249.325C252.589 249.166 252.352 249.007 252.037 248.928C253.691 249.88 254.873 250.833 254.715 251.071C254.479 251.23 252.983 250.595 251.25 249.563C246.602 246.943 241.955 244.243 237.229 241.623L235.732 240.829C235.181 240.591 234.708 240.353 234.157 240.035C241.325 244.322 248.493 248.531 255.582 252.739C256.212 253.056 256.685 253.453 256.685 253.533C256.685 253.612 256.133 253.374 255.503 253.056C242.664 246.149 229.746 239.003 216.907 231.778C212.496 229.713 208.085 227.569 203.595 225.505C204.146 225.823 204.698 226.14 205.249 226.458C219.191 234.556 231.558 240.353 245.184 247.895C245.5 248.054 245.815 248.292 245.815 248.372C245.815 248.451 245.578 248.372 245.263 248.134C238.568 244.481 232.345 241.385 225.729 237.812C220.215 234.874 214.937 232.095 209.739 229.475C220.057 235.35 230.219 240.591 240.458 246.228C240.931 246.466 241.325 246.704 241.64 246.943C241.64 246.943 241.797 246.943 241.955 247.022C243.294 247.657 244.712 248.372 246.208 249.086C246.524 249.245 246.839 249.404 246.917 249.563C246.917 249.325 246.76 249.245 246.445 249.166ZM70.9491 139.755C70.8704 139.676 70.7916 139.596 70.7128 139.517C70.9491 139.676 71.2642 139.914 71.5793 140.152C71.5793 140.152 71.5793 140.152 72.6032 141.264C72.6032 141.264 71.8156 140.549 70.9491 139.755ZM54.6441 131.656C54.329 131.339 54.0139 131.021 54.0139 131.021C54.329 131.26 54.4866 131.498 54.6441 131.656ZM156.176 188.029C150.82 184.853 145.543 181.677 140.344 178.343C141.683 179.057 142.943 179.851 144.282 180.566C148.221 183.027 152.159 185.488 156.176 188.029ZM61.2606 132.292C62.5997 133.324 63.5449 134.197 64.4114 134.991C65.3566 135.547 66.3018 136.103 67.3258 136.659C69.9251 138.247 72.5245 139.834 74.9663 141.422C74.73 141.105 75.2814 141.502 75.5964 141.661C75.9115 141.819 76.2266 142.058 76.5417 142.216C73.8635 140.549 71.2642 138.802 68.5073 137.056C66.223 135.468 63.5449 133.8 61.2606 132.292ZM42.1987 121.414C42.1199 121.335 42.0412 121.335 41.9624 121.255C41.9624 121.255 41.9624 121.255 42.5926 121.414C42.5926 121.335 42.3562 121.335 42.1987 121.414ZM41.1747 121.176C41.3323 121.255 41.411 121.335 41.5686 121.414C41.411 121.414 41.2535 121.335 41.1747 121.176ZM44.6405 123.558C44.483 123.399 44.3255 123.32 44.1679 123.161C44.6405 123.558 44.6405 123.558 44.6405 123.558ZM44.0891 130.227L45.9796 130.148L44.0104 130.069L44.0891 130.227Z" fill="#E41413"/>
<path d="M45.0692 119.981C45.3044 120.146 45.4612 120.311 45.6964 120.476C45.226 120.228 44.5989 119.899 43.8934 119.404C50.478 124.514 59.963 129.871 66.3908 132.838C68.5072 134.239 70.5453 135.146 70.9373 134.981C71.3292 134.816 69.8398 133.58 67.7234 132.179C67.253 131.849 66.7043 131.437 66.3908 131.19C63.5688 128.8 59.963 126.08 55.9652 123.278C56.7491 123.855 57.5329 124.514 58.2384 125.091C57.0626 124.267 55.9652 123.443 54.5542 122.618C54.6326 122.783 54.7894 122.948 54.9461 123.113C51.0267 120.146 45.3044 116.684 42.0905 115.448C38.8766 114.212 39.4253 115.613 43.3447 118.662L45.0692 119.981Z" fill="#E41413"/>
<path d="M52.9415 126.79C50.5378 125.124 48.2142 123.458 45.8906 121.792L45.49 121.395L45.4099 121.95H45.49C47.9739 122.902 51.8198 124.965 55.3452 126.948L56.6272 127.583C57.2682 127.9 57.6688 128.059 57.9092 127.98C58.3098 127.9 57.3483 127.107 55.7459 126.076L53.903 124.965C49.4962 122.03 42.3652 117.825 39.4006 117.032C38.7596 116.873 39.0801 117.349 39.0801 117.666C38.7596 117.825 40.282 119.094 42.5254 120.522C44.7689 121.871 46.8521 122.823 47.1726 122.585C47.5732 122.823 47.8937 123.061 48.2943 123.299C47.9739 123.14 47.6534 122.982 47.3329 122.902C48.1341 123.061 50.2173 124.172 51.8198 124.965L54.1434 126.234L53.262 124.806L51.98 124.172C52.0602 124.251 52.2204 124.41 52.2204 124.41C49.8167 123.22 47.5732 122.188 45.0093 120.84L41.7242 119.253C40.7627 118.856 40.7627 119.094 41.6441 119.808L42.9261 120.76L42.3652 120.284C45.49 122.347 48.7751 124.489 51.8999 126.472C52.3807 126.79 53.0216 127.107 53.3421 127.186C53.5825 127.345 53.4223 127.107 52.9415 126.79Z" fill="#E41413"/>
<path d="M254.896 132.371C254.66 132.535 254.424 132.616 254.187 132.78C254.581 132.371 255.132 131.963 255.84 131.391C248.837 135.885 240.655 143.24 235.619 148.306C233.652 149.859 232 151.493 232 151.902C232 152.311 233.652 151.412 235.698 149.777C236.17 149.45 236.721 149.042 237.035 148.878C240.183 146.999 243.881 144.466 247.893 141.605C247.106 142.096 246.241 142.668 245.454 143.158C246.634 142.341 247.736 141.524 248.995 140.543C248.837 140.625 248.601 140.707 248.444 140.707C252.535 138.01 257.728 133.679 259.931 130.982C262.213 128.285 260.718 128.367 256.627 131.064L254.896 132.371Z" fill="#E41413"/>
<path d="M247.013 136.989C249.469 135.492 251.844 134.071 254.22 132.574L254.696 132.35L254.22 132.05V132.125C252.399 133.996 249.073 136.615 245.984 139.009L244.875 139.907C244.4 140.356 244.083 140.655 244.004 140.879C243.925 141.254 245.034 140.73 246.538 139.682L248.281 138.485C252.557 135.717 259.051 130.928 260.873 128.609C261.269 128.085 260.635 128.234 260.398 128.085C260.318 127.711 258.576 128.609 256.517 130.105C254.458 131.601 252.795 133.098 252.874 133.472C252.478 133.697 252.161 133.921 251.765 134.22C252.003 133.996 252.24 133.771 252.478 133.547C252.082 134.22 250.26 135.642 248.914 136.764L246.855 138.336L248.518 138.036L249.548 137.138C249.469 137.138 249.231 137.288 249.231 137.213C251.211 135.567 253.032 133.921 255.171 132.2L257.863 129.881C258.576 129.207 258.339 129.057 257.388 129.581L256.042 130.404C256.279 130.255 256.438 130.18 256.675 130.03C253.666 132.05 250.498 134.145 247.489 136.166C247.013 136.465 246.459 136.914 246.301 137.138C246.301 137.363 246.538 137.288 247.013 136.989Z" fill="#E41413"/>
<path d="M257.041 129C257.531 128.778 258.102 128.556 258.755 128.167C258.918 128.056 259 128 259 128C258.755 128.111 258.347 128.278 257.939 128.444C257.204 128.722 256.878 128.944 257.041 129Z" fill="#E41413"/>
<path d="M259 128C259.6 127.333 260 127 260 127C259.8 127.333 259.4 127.333 259.2 127.667C259.2 127.667 259.2 127.667 259 128C259.2 127.667 259.2 127.667 259 128Z" fill="#E41413"/>
<path d="M132.471 228.266C123.773 235.215 115.151 242.321 106.529 249.427C106.227 249.664 106 249.901 106 249.979C106 250.058 106.227 249.901 106.529 249.664C115.151 242.558 123.773 235.53 132.471 228.582C132.773 228.345 133 228.109 133 228.03C132.924 227.951 132.697 228.03 132.471 228.266Z" fill="#E41413"/>
<path d="M62.8883 277.208C63.0486 276.947 63.0485 276.947 62.8082 277.121C62.5679 277.296 62.2475 277.557 62.0873 277.818C61.9271 277.992 62.0072 278.079 62.1674 277.905C62.4077 277.644 62.7281 277.383 62.8883 277.208Z" fill="#E41413"/>
<path d="M62.0874 272.35C63.2761 271.333 64.4648 270.316 65.4158 269.378C65.5743 269.221 65.812 269.065 65.9705 268.908C65.812 268.908 66.0498 268.674 66.446 268.282C74.9255 260.695 84.3561 252.873 93.5488 245.129C93.5488 245.051 93.6281 244.895 93.8658 244.66C94.4206 243.956 95.6093 242.861 97.0358 241.844L98.066 241.062C102.266 237.855 106.466 234.726 110.746 231.519C111.538 230.815 112.489 229.955 113.519 229.094C116.927 226.122 120.414 223.071 123.901 220.099C123.663 220.255 123.425 220.334 123.425 220.255C123.425 220.099 124.139 219.317 125.169 218.534L126.675 217.361C125.248 218.456 123.742 219.551 122.316 220.646C122.078 220.803 121.92 220.959 121.761 221.037C120.176 222.289 118.591 223.541 117.006 224.792C102.979 235.978 90.1412 247.007 77.5407 257.957C77.303 258.114 76.986 258.427 76.7483 258.505C76.5898 258.583 76.5898 258.505 76.8275 258.27C84.5146 251.074 91.0129 244.504 100.047 236.681C110.746 227.373 121.444 218.222 132.618 208.913C144.585 199.527 155.442 190.532 167.567 180.754C183.892 167.535 199.504 155.411 215.749 142.817C221.772 138.046 227.795 134.291 229.222 134.448C230.093 134.604 229.063 136.09 226.765 138.359C227.24 137.968 227.795 137.577 228.271 137.264L230.727 135.543C233.025 133.9 235.086 132.649 236.512 132.023L238.414 131.084C241.109 130.067 245.071 127.877 247.449 127.173L247.211 127.721L247.686 127.486C249.271 126.626 250.381 126.078 250.935 126.156L251.015 126.548C251.015 127.095 250.539 127.956 249.668 129.129C249.826 129.207 249.747 129.442 249.588 129.833C250.777 129.442 251.49 129.363 251.015 130.302C251.649 129.911 251.649 130.146 251.015 130.771C250.777 131.006 250.539 131.241 250.222 131.475C250.619 131.319 250.698 131.241 251.173 131.006C251.807 130.615 252.124 130.38 252.124 130.38C253.709 129.285 253.709 129.285 255.056 128.268C256.245 127.486 257.117 127.095 257.117 127.095C258.781 126.704 258.781 126.704 258.781 127.017C258.702 127.095 258.623 127.173 258.623 127.252C259.732 126.548 259.732 126.548 260.049 126.313C260.366 126.156 260.604 126 260.604 126C260.762 126.078 260.762 126.078 260.921 126C261 126 261 126.078 261 126.078C260.525 126.704 260.525 126.704 260.525 126.704C260.445 126.86 260.287 127.017 260.287 127.017C259.653 127.564 259.415 127.799 259.336 127.877C257.672 128.659 257.672 128.659 257.672 128.659C257.434 128.972 257.434 128.972 257.434 128.972C256.958 129.051 256.958 129.051 256.958 129.051C257.275 129.051 257.275 129.051 257.275 129.051C256.483 129.52 256.483 129.52 256.483 129.52C257.434 129.051 257.434 129.051 257.434 129.051C255.69 130.302 255.69 130.302 255.056 130.85C254.343 131.397 253.788 131.867 253.709 131.945C253.788 131.945 253.868 131.945 253.868 131.945C252.045 133.274 252.045 133.274 250.222 134.604C250.064 134.682 249.905 134.761 249.747 134.839C249.588 134.995 249.271 135.308 248.954 135.543C248.637 135.778 248.32 136.012 248.003 136.247C247.924 136.325 247.845 136.325 247.845 136.403C247.528 136.638 247.369 136.873 247.132 137.029C246.973 137.185 246.973 137.185 246.973 137.185C246.498 137.655 245.705 138.281 243.803 140.08C243.248 140.471 242.694 140.862 242.218 141.175C242.377 141.096 242.535 141.018 242.694 140.862C243.011 140.705 242.852 141.018 243.011 140.862C247.052 138.124 251.411 134.995 255.611 132.023C256.324 131.475 257.117 131.006 257.275 131.006C257.434 131.006 256.958 131.554 256.245 132.101C248.32 139.219 237.939 147.041 228.905 153.142C226.606 154.863 224.229 156.506 221.931 158.227L222.327 158.07L220.504 159.322L220.346 159.478C220.821 159.244 221.376 158.931 221.851 158.696C222.168 158.461 222.485 158.227 222.802 158.07C228.191 154.081 233.263 150.718 238.573 146.963C241.426 144.929 243.962 143.365 246.735 141.488C247.449 141.018 247.924 140.705 247.924 140.862C247.924 141.018 247.369 141.566 246.656 142.035C238.018 148.84 228.033 156.349 220.425 160.964C218.84 162.216 217.255 163.311 215.908 164.171L215.829 164.25C216.225 164.093 216.542 163.859 216.938 163.702C215.749 164.563 214.957 164.875 213.847 165.658C214.006 165.658 214.244 165.579 214.481 165.579C208.459 169.96 202.198 174.888 196.492 178.72C196.254 178.877 196.096 179.033 195.858 179.19C193.639 181.145 191.42 183.179 188.726 185.369C189.677 184.665 190.628 183.961 191.579 183.257C189.677 184.9 187.696 186.542 185.556 188.185C179.691 192.644 172.876 197.337 169.31 199.058C158.136 207.896 146.883 216.735 135.867 225.731C135.313 226.2 134.758 226.513 134.599 226.591C134.52 226.591 134.837 226.2 135.392 225.731C143.237 219.16 151.241 212.668 159.325 206.176C152.351 211.416 145.456 216.657 138.403 222.054C137.532 222.758 136.66 223.462 135.709 224.166C134.837 224.87 133.965 225.574 133.014 226.2C124.059 233.24 115.58 239.81 106.625 247.163C99.017 253.421 92.3601 258.974 84.8316 265.31C74.2916 274.227 64.6233 282.362 54.004 290.966C52.5776 292.14 51.1511 293 50.8341 293C50.5171 292.922 51.3889 291.983 52.8153 290.81C74.6085 272.428 96.0055 254.359 119.463 235.978C121.999 234.022 124.535 232.067 126.992 230.111C126.912 230.111 126.912 230.111 126.833 230.111C126.754 230.033 126.912 229.72 127.229 229.329C124.376 231.519 121.523 233.709 118.67 235.899C110.983 242.313 103.217 248.806 94.7376 255.298C88.8732 259.756 83.4843 263.667 78.0162 267.735C71.3594 273.21 64.7025 278.686 58.0457 284.239C57.808 284.474 57.491 284.709 57.3325 284.709C57.174 284.787 57.3325 284.63 57.5702 284.396C62.0874 280.407 66.763 276.417 71.4386 272.428C70.5669 272.897 70.0122 273.132 69.9329 272.897C69.8537 272.663 70.3292 272.037 71.1216 271.255L67.7932 273.836C67.08 274.384 66.5253 274.696 66.446 274.618C66.3668 274.54 66.8422 273.993 67.5555 273.523C72.0726 270.003 76.5105 266.405 81.0276 262.885C86.3373 258.505 91.6469 254.203 96.9565 249.901C96.0848 250.37 95.4508 250.683 95.0546 250.761C94.1828 251.465 93.3903 252.091 92.5979 252.717C77.7785 265.232 62.4044 277.904 46.634 290.341C46.317 290.575 46.0792 290.732 46 290.732C46 290.732 46.1585 290.497 46.4755 290.262C51.2304 286.508 55.906 282.753 60.5816 278.999C60.3439 279.155 60.2647 279.077 60.5024 278.92C60.6609 278.764 61.0571 278.451 61.2156 278.295C61.4534 278.138 61.4534 278.216 61.2949 278.373C70.0122 271.333 78.571 264.215 86.9713 257.175C78.9672 263.589 71.0424 269.925 62.9591 276.183C62.1666 276.887 61.2949 277.669 60.4231 278.451C60.1854 278.686 59.8684 278.842 59.7099 278.92C59.6307 278.92 59.7892 278.764 60.0269 278.529C60.2647 278.295 60.5024 278.138 60.7401 277.904C59.2344 279.077 57.8872 279.859 57.808 279.624C57.7287 279.311 58.9174 278.138 60.4231 276.887C64.6233 273.523 68.7442 270.16 72.9443 266.796L74.2916 265.701C74.6878 265.31 75.1633 264.919 75.5595 264.528C68.9819 269.612 62.4043 274.696 55.8268 279.703C55.272 280.172 54.7173 280.485 54.7173 280.407C54.638 280.328 55.0343 279.937 55.589 279.468C66.763 270.082 78.0955 260.773 89.5864 251.465C93.1526 248.18 96.7188 244.816 100.364 241.453C99.8887 241.844 99.3339 242.235 98.8585 242.626C86.258 252.56 76.2728 261.947 64.2271 271.802C63.9101 272.037 63.6723 272.193 63.5931 272.193C63.5138 272.193 63.6723 271.959 63.9893 271.724C69.8537 266.875 75.0048 262.26 80.7107 257.332C85.4655 253.264 89.9827 249.431 94.3413 245.599C85.0693 253.03 76.5105 260.46 67.4762 267.97C67.08 268.282 66.6837 268.595 66.3668 268.752C66.3668 268.752 66.2875 268.908 66.2083 268.986C65.178 270.003 63.9101 271.098 62.7213 272.115C62.4836 272.35 62.1666 272.585 62.0081 272.585C61.6911 272.741 61.8496 272.585 62.0874 272.35ZM228.191 149.544C228.271 149.466 228.35 149.466 228.429 149.388C228.191 149.544 227.874 149.779 227.557 149.935C227.557 149.935 227.557 149.935 226.21 150.483C226.131 150.483 227.161 150.014 228.191 149.544ZM241.743 137.342C242.218 137.185 242.535 137.029 242.535 137.029C242.218 137.185 241.901 137.264 241.743 137.342ZM152.034 210.947C156.947 207.114 161.861 203.36 166.853 199.762C165.665 200.7 164.476 201.639 163.366 202.578C159.562 205.393 155.838 208.131 152.034 210.947ZM238.731 143.208C237.305 144.069 236.116 144.616 235.007 145.164C234.214 145.868 233.263 146.572 232.391 147.276C229.935 149.153 227.557 150.874 225.18 152.673C225.576 152.517 225.021 152.986 224.704 153.221C224.387 153.455 224.15 153.69 223.833 153.925C226.369 152.126 228.984 150.248 231.52 148.371C233.897 146.65 236.433 144.773 238.731 143.208ZM255.849 129.52C255.928 129.442 256.007 129.442 256.087 129.363C256.087 129.363 256.087 129.363 255.77 129.911C255.77 129.911 255.77 129.755 255.849 129.52ZM256.324 128.659C256.166 128.738 256.087 128.816 255.928 128.894C256.087 128.738 256.166 128.738 256.324 128.659ZM252.917 131.006C253.154 130.928 253.313 130.85 253.471 130.771C252.917 131.006 252.917 131.006 252.917 131.006ZM246.973 128.112L246.339 129.911L247.132 128.112H246.973Z" fill="#E41413"/>
</svg>
